<?xml version="1.0" encoding="utf-8"?>
<!-- Generator: Adobe Illustrator 25.2.1, SVG Export Plug-In . SVG Version: 6.00 Build 0)  -->
<svg version="1.1" id="icons" xmlns="http://www.w3.org/2000/svg" width="50" height="50" xmlns:xlink="http://www.w3.org/1999/xlink" x="0px" y="0px"
	 viewBox="0 0 48 47.74" style="enable-background:new 0 0 48 47.74;" xml:space="preserve">
<style type="text/css">
	.st0{fill:none;stroke:#703ED9;stroke-width:2;stroke-miterlimit:10;}
</style>
<g>
	<path class="st0" d="M5.31,43.81c0,0,1.08-4.67,1.08-7.55c0-6.06-2.67-9.05-4.12-13.26"/>
	<g>
		<polyline class="st0" points="22,23 26,23 26,17 22,17 		"/>
		<polyline class="st0" points="7,17 1,17 1,23 7,23 		"/>
	</g>
	<path class="st0" d="M39.42,37.55c0,0.72-1.2,1.74-1.98,1.98c-0.08,0.32,0.12,0.92,0.39,1.78c0.75,2.37-0.9,4.25-3.07,4.25
		c-1.56,0-10.16-2.57-11.46-4.34l-3.4-5.16"/>
	<line class="st0" x1="26.07" y1="42.87" x2="25" y2="47.51"/>
	<path class="st0" d="M38.87,31.21c0.31,1.63,1.46,2.63,1.18,3.11c-0.27,0.48-4.53,1.14-7.05,1.14"/>
	<path class="st0" d="M22.04,23c0.12,1.69,0.69,3.79,2.96,5c0,0,8.91,2.99,11.92,3h6.98c2.27,0,3.11-1.24,3.11-2.76V11.76
		C47,10.24,46.16,9,43.89,9h-6.98C33.91,9.01,25,12,25,12c-2.27,1.21-2.83,3.31-2.96,5"/>
	<line class="st0" x1="26" y1="15" x2="26" y2="25"/>
	<path class="st0" d="M14.5,30L14.5,30C10.38,30,7,26.62,7,22.5v-4c0-4.12,3.38-7.5,7.5-7.5l0,0c4.12,0,7.5,3.38,7.5,7.5v4
		C22,26.62,18.62,30,14.5,30z"/>
	<path class="st0" d="M18,22c0,1.92-1.58,3.5-3.5,3.5l0,0c-1.93,0-3.5-1.58-3.5-3.5"/>
	<g>
		<polyline class="st0" points="18,12 18,1 11,1 11,12 		"/>
	</g>
	<path class="st0" d="M18,2.72c4.7-0.67,9.29,0.16,12.43,1.46c2.33,0.96,4.74,2.53,5.94,4.82"/>
	<path class="st0" d="M2,17.17c0.83-4.49,3.36-8.64,7.84-11.5C10.22,5.43,10.6,5.21,10.98,5"/>
</g>
</svg>
