<?xml version="1.0" encoding="utf-8"?>
<!-- Generator: Adobe Illustrator 25.2.1, SVG Export Plug-In . SVG Version: 6.00 Build 0)  -->
<svg version="1.1" id="icons" xmlns="http://www.w3.org/2000/svg" width="50" height="50" xmlns:xlink="http://www.w3.org/1999/xlink" x="0px" y="0px"
	 viewBox="0 0 46.92 39.42" style="enable-background:new 0 0 46.92 39.42;" xml:space="preserve">
<style type="text/css">
	.st0{fill:none;stroke:#703ED9;stroke-width:2;stroke-miterlimit:10;}
</style>
<g>
	<polyline class="st0" points="36.71,14.22 40.71,10.22 43.71,13.22 45.71,1.22 33.71,3.22 36.71,6.22 33.71,9.22 	"/>
	<circle class="st0" cx="22.71" cy="20.22" r="13"/>
	<line class="st0" x1="31.71" y1="29.22" x2="41.21" y2="38.72"/>
	<path class="st0" d="M29.71,13.22l-7.29,7.29c-0.39,0.39-1.02,0.39-1.41,0l-6.29-6.29"/>
	<path class="st0" d="M32.71,18.22l-8.88,8.88c-1.17,1.17-3.07,1.17-4.24,0l-6.88-6.88"/>
	<path class="st0" d="M10.71,10.22L7.83,7.34c-1.17-1.17-3.07-1.17-4.24,0l-2.88,2.88"/>
	<path class="st0" d="M7.71,15.22l-1.29-1.29c-0.39-0.39-1.02-0.39-1.41,0l-4.29,4.29"/>
</g>
</svg>
