<?xml version="1.0" encoding="utf-8"?>
<!-- Generator: Adobe Illustrator 16.0.0, SVG Export Plug-In . SVG Version: 6.00 Build 0)  -->
<!DOCTYPE svg PUBLIC "-//W3C//DTD SVG 1.1//EN" "http://www.w3.org/Graphics/SVG/1.1/DTD/svg11.dtd">
<svg version="1.1" id="Layer_1" xmlns="http://www.w3.org/2000/svg" xmlns:xlink="http://www.w3.org/1999/xlink" x="0px" y="0px"
	 width="1634.37px" height="743.268px" viewBox="0 0 1634.37 743.268" enable-background="new 0 0 1634.37 743.268"
	 xml:space="preserve">
<g>
	<defs>
		<rect id="SVGID_1_" width="1634.37" height="743.268"/>
	</defs>
	<clipPath id="SVGID_2_">
		<use xlink:href="#SVGID_1_"  overflow="visible"/>
	</clipPath>
	<polygon clip-path="url(#SVGID_2_)" fill="#FFD6D6" points="1007.006,702.594 1045.09,708.316 1043.156,716.414 1000.62,717.489 	
		"/>
	<g clip-path="url(#SVGID_2_)">
		<defs>
			<rect id="SVGID_3_" width="1634.37" height="743.268"/>
		</defs>
		<clipPath id="SVGID_4_">
			<use xlink:href="#SVGID_3_"  overflow="visible"/>
		</clipPath>
		<path clip-path="url(#SVGID_4_)" fill="#814D4D" d="M1045.965,720.002l-1.688-1.036c-3.087-1.893-4.33-5.864-2.989-9.559
			c0.413-1.135,1.246-2.179,2.237-2.597c0.724-0.307,1.472-0.313,2.07,0.054l17.4,10.664c1.71,1.048-0.36,7.334-6.818,5.626
			C1056.177,723.155,1048.173,721.355,1045.965,720.002"/>
		<polygon clip-path="url(#SVGID_4_)" fill="#FFD6D6" points="1007.874,707.607 1045.715,714.762 1043.478,722.783 
			1000.931,722.249 		"/>
		<path clip-path="url(#SVGID_4_)" fill="#814D4D" d="M1046.147,726.474l-1.649-1.1c-3.014-2.007-4.104-6.023-2.624-9.664
			c0.455-1.119,1.327-2.131,2.333-2.511c0.733-0.279,1.482-0.256,2.066,0.133l16.984,11.315c1.669,1.11-0.636,7.314-7.026,5.362
			C1056.231,730.01,1048.302,727.91,1046.147,726.474"/>
	</g>
	<g clip-path="url(#SVGID_2_)">
		<defs>
			<path id="SVGID_5_" d="M846.634,0c-3.297,0.006-6.647,0.093-10.035,0.262c-240.023,12.002-283.822,363.13-346.828,362.712
				c-63.006-0.419-78.343-145.487-199.228-173.692C201.029,168.395,84.892,349.487,31.37,443.905L0,497.792h1634.37
				c0,0-52.646-70.021-67.999-121.639c-31.334-105.332-134-117.999-134-117.999c-79.334-5.333-133.756,42.314-180.667,96
				c-37.882,43.354-102.765,4.512-129.486-46.482C1062.514,193.732,1008.683,0.284,847.351,0H846.634z"/>
		</defs>
		<clipPath id="SVGID_6_">
			<use xlink:href="#SVGID_5_"  overflow="visible"/>
		</clipPath>
		<defs>
			<filter id="Adobe_OpacityMaskFilter" filterUnits="userSpaceOnUse" x="0" y="0" width="1634.37" height="497.792">
				<feColorMatrix  type="matrix" values="1 0 0 0 0  0 1 0 0 0  0 0 1 0 0  0 0 0 1 0"/>
			</filter>
		</defs>
		<mask maskUnits="userSpaceOnUse" x="0" y="0" width="1634.37" height="497.792" id="SVGID_7_">
			<g filter="url(#Adobe_OpacityMaskFilter)">
				
					<linearGradient id="SVGID_8_" gradientUnits="userSpaceOnUse" x1="0" y1="743.2681" x2="1" y2="743.2681" gradientTransform="matrix(0 432.8213 432.8213 0 -320885 54.5181)">
					<stop  offset="0" style="stop-color:#FFFFFF"/>
					<stop  offset="1" style="stop-color:#333333"/>
				</linearGradient>
				<rect clip-path="url(#SVGID_6_)" fill="url(#SVGID_8_)" width="1634.37" height="497.792"/>
			</g>
		</mask>
		
			<linearGradient id="SVGID_9_" gradientUnits="userSpaceOnUse" x1="0" y1="743.2681" x2="1" y2="743.2681" gradientTransform="matrix(0 432.8213 432.8213 0 -320885 54.5181)">
			<stop  offset="0" style="stop-color:#FFFFFF"/>
			<stop  offset="1" style="stop-color:#FFFFFF"/>
		</linearGradient>
		<rect clip-path="url(#SVGID_6_)" mask="url(#SVGID_7_)" fill="url(#SVGID_9_)" width="1634.37" height="497.792"/>
	</g>
	<g clip-path="url(#SVGID_2_)">
		<defs>
			<rect id="SVGID_10_" width="1634.37" height="743.268"/>
		</defs>
		<clipPath id="SVGID_11_">
			<use xlink:href="#SVGID_10_"  overflow="visible"/>
		</clipPath>
		<g opacity="0.4" clip-path="url(#SVGID_11_)">
			<g>
				<defs>
					<rect id="SVGID_12_" x="122.129" width="912.491" height="319.476"/>
				</defs>
				<clipPath id="SVGID_13_">
					<use xlink:href="#SVGID_12_"  overflow="visible"/>
				</clipPath>
				<g clip-path="url(#SVGID_13_)">
					<defs>
						<path id="SVGID_14_" d="M835.799,0.263C730.882,5.508,663.458,75.55,615.534,152.704
							c37.032-29.818,77.199-51.934,116.716-51.275c119.999,2,59.603,64,222.801,40c26.646-3.919,53.416-7.25,79.565-10.083
							C990.301,56.405,931.188-4.507,835.799,0.263"/>
					</defs>
					<clipPath id="SVGID_15_">
						<use xlink:href="#SVGID_14_"  overflow="visible"/>
					</clipPath>
					
						<linearGradient id="SVGID_16_" gradientUnits="userSpaceOnUse" x1="4.882813e-004" y1="743.2583" x2="1.0005" y2="743.2583" gradientTransform="matrix(419.0818 0 0 -419.0818 615.5 311566.4063)">
						<stop  offset="0" style="stop-color:#DCDFFB"/>
						<stop  offset="1" style="stop-color:#F3F3FA"/>
					</linearGradient>
					<rect x="615.534" y="-4.507" clip-path="url(#SVGID_15_)" fill="url(#SVGID_16_)" width="419.082" height="169.936"/>
				</g>
				<g clip-path="url(#SVGID_13_)">
					<defs>
						<path id="SVGID_17_" d="M214.149,319.429c79.353-1.47,161.944-11.577,210.489-15.249
							c-28.85-43.786-63.46-98.674-132.995-114.898c-53.647-12.518-116.354,46.838-169.514,116.737
							C148.712,314.248,179.874,320.063,214.149,319.429"/>
					</defs>
					<clipPath id="SVGID_18_">
						<use xlink:href="#SVGID_17_"  overflow="visible"/>
					</clipPath>
					
						<linearGradient id="SVGID_19_" gradientUnits="userSpaceOnUse" x1="-4.882813e-004" y1="743.2837" x2="0.9995" y2="743.2837" gradientTransform="matrix(302.5091 0 0 -302.5091 122.25 225098.8594)">
						<stop  offset="0" style="stop-color:#DCDFFB"/>
						<stop  offset="1" style="stop-color:#F3F3FA"/>
					</linearGradient>
					<rect x="122.129" y="176.764" clip-path="url(#SVGID_18_)" fill="url(#SVGID_19_)" width="302.509" height="143.299"/>
				</g>
			</g>
		</g>
		<path clip-path="url(#SVGID_11_)" fill="#814D4D" d="M617.298,618.278l7.286-0.089l1.264,5.374
			c0.227,0.966,0.094,2.053-0.455,2.773c-0.401,0.528-0.963,0.859-1.589,0.866l-18.182,0.221c-1.786,0.021-3.205-5.232,2.478-6.87
			C608.1,620.553,614.991,618.305,617.298,618.278"/>
		<path clip-path="url(#SVGID_11_)" fill="#814D4D" d="M670.303,618.278l7.286-0.089l1.264,5.374
			c0.227,0.966,0.094,2.053-0.455,2.773c-0.402,0.528-0.963,0.859-1.589,0.866l-18.182,0.221c-1.786,0.021-3.205-5.232,2.477-6.87
			C661.104,620.553,667.996,618.305,670.303,618.278"/>
	</g>
	<g clip-path="url(#SVGID_2_)">
		<defs>
			<polygon id="SVGID_20_" points="612.773,618.19 625.819,618.19 655.522,499.632 631.112,494.785 			"/>
		</defs>
		<clipPath id="SVGID_21_">
			<use xlink:href="#SVGID_20_"  overflow="visible"/>
		</clipPath>
		
			<linearGradient id="SVGID_22_" gradientUnits="userSpaceOnUse" x1="0" y1="743.269" x2="1" y2="743.269" gradientTransform="matrix(0 78.9177 78.9177 0 -58022.8672 543.5181)">
			<stop  offset="0" style="stop-color:#5C5E60"/>
			<stop  offset="1" style="stop-color:#9FA1A4"/>
		</linearGradient>
		<rect x="612.773" y="494.785" clip-path="url(#SVGID_21_)" fill="url(#SVGID_22_)" width="42.749" height="123.405"/>
	</g>
	<g clip-path="url(#SVGID_2_)">
		<defs>
			<polygon id="SVGID_23_" points="651.668,500.271 665.156,618.19 678.202,618.19 674.701,498.224 			"/>
		</defs>
		<clipPath id="SVGID_24_">
			<use xlink:href="#SVGID_23_"  overflow="visible"/>
		</clipPath>
		
			<linearGradient id="SVGID_25_" gradientUnits="userSpaceOnUse" x1="0" y1="743.2681" x2="1" y2="743.2681" gradientTransform="matrix(0 78.9177 78.9177 0 -57992.0547 543.5181)">
			<stop  offset="0" style="stop-color:#5C5E60"/>
			<stop  offset="1" style="stop-color:#9FA1A4"/>
		</linearGradient>
		<rect x="651.668" y="498.224" clip-path="url(#SVGID_24_)" fill="url(#SVGID_25_)" width="26.534" height="119.966"/>
	</g>
	<g clip-path="url(#SVGID_2_)">
		<defs>
			<path id="SVGID_26_" d="M650.379,437.163c-4.382,0.858-14.607,3.047-19.103,3.933c-0.091,0.017-0.177,0.037-0.267,0.06
				c-4.318,1.12-8.637,2.238-12.957,3.357c-3.256,0.843-6.553,1.704-9.49,3.333s-5.522,4.143-6.486,7.315
				c-0.703,2.315-0.502,4.787-0.186,7.176c0.293,2.203,0.679,4.394,1.156,6.563c0.632,2.874,3.729,4.466,6.45,3.348l3.11-1.277
				c2.773-1.137,5.892,0.536,6.472,3.476c1.675,8.495,4.941,24.658,7.6,35.369c0.598,2.407,2.939,3.947,5.387,3.546
				c4.116-0.674,8.82-1.617,12.843-2.543v0.003c4.887-0.955,16.561-3.841,23.859-5.93c2.396-0.688,3.85-3.106,3.34-5.545
				c-2.462-11.749-7.309-30.477-9.595-39.161c-0.681-2.585,0.902-5.22,3.503-5.837l8.201-1.943c0.674,1.717-0.291-2.27-1.558-6.158
				c-0.747-2.29-1.635-4.606-3.27-6.39c-2.241-2.444-5.659-3.593-9.012-3.792c-0.419-0.024-0.838-0.037-1.257-0.037
				C656.188,436.027,653.266,436.596,650.379,437.163"/>
		</defs>
		<clipPath id="SVGID_27_">
			<use xlink:href="#SVGID_26_"  overflow="visible"/>
		</clipPath>
		
			<linearGradient id="SVGID_28_" gradientUnits="userSpaceOnUse" x1="0" y1="743.2192" x2="1" y2="743.2192" gradientTransform="matrix(10 58.6667 58.6667 -10 -42966.6875 7891.73)">
			<stop  offset="0" style="stop-color:#5C5E60"/>
			<stop  offset="1" style="stop-color:#9FA1A4"/>
		</linearGradient>
		<polygon clip-path="url(#SVGID_27_)" fill="url(#SVGID_28_)" points="672.814,423.85 687.766,511.566 603.449,525.939 
			588.497,438.222 		"/>
	</g>
	<g clip-path="url(#SVGID_2_)">
		<defs>
			<rect id="SVGID_29_" width="1634.37" height="743.268"/>
		</defs>
		<clipPath id="SVGID_30_">
			<use xlink:href="#SVGID_29_"  overflow="visible"/>
		</clipPath>
		<path clip-path="url(#SVGID_30_)" fill="#FFD6D6" d="M626.277,442.474c0,0,3.86,3.294,9.313,2.055
			c5.453-1.241,5.747-5.479,5.747-5.479l-7.981-0.271L626.277,442.474z"/>
		<path clip-path="url(#SVGID_30_)" fill="#450606" d="M625.808,427.459L625.808,427.459c-3.913,2.25-8.955,0.89-11.206-3.023
			l-2.354-4.094c-2.25-3.912-0.889-8.955,3.024-11.205c3.912-2.25,8.954-0.889,11.205,3.023l2.354,4.094
			C631.081,420.167,629.721,425.209,625.808,427.459"/>
		<path clip-path="url(#SVGID_30_)" fill="#FFD6D6" d="M638.073,418.728c-0.746,0.325-3.903,0.822-4.649,1.147l-0.457-4.133
			c-0.474-4.284-4.331-7.373-8.614-6.899l-2.586,0.286c-4.284,0.474-7.373,4.33-6.899,8.614l1.073,9.703
			c0.473,4.284,4.33,7.373,8.614,6.899l0.001-0.001c2.095-0.256,3.999,1.238,4.258,3.333c0.35,2.831-1.802,3.96-2.327,4.355
			l14.473-1.336C639.604,432.596,638.672,427.475,638.073,418.728"/>
		<path clip-path="url(#SVGID_30_)" fill="#450606" d="M639.271,430.22c0,0,7.465-12.993,1.588-23.276
			c-5.877-10.284-25.475-7.349-25.325,2.799c0.151,10.15,14.094,5.478,14.094,5.478s6.143,0.928,8.065,6.824L639.271,430.22z"/>
		<path clip-path="url(#SVGID_30_)" fill="#FFAB8F" d="M632.552,420.751c0.247,2.232,2.087,3.861,4.111,3.637
			c2.024-0.223,3.464-2.215,3.217-4.446c-0.246-2.233-2.087-3.861-4.111-3.639C633.745,416.528,632.305,418.519,632.552,420.751"/>
		<path clip-path="url(#SVGID_30_)" fill="#450606" d="M634.208,422.717L634.208,422.717c-0.782,0.087-1.493-0.482-1.579-1.265
			l-0.56-5.063c-0.087-0.782,0.482-1.493,1.264-1.58c0.783-0.086,1.494,0.482,1.58,1.265l0.56,5.064
			C635.561,421.92,634.99,422.631,634.208,422.717"/>
		<polygon clip-path="url(#SVGID_30_)" fill="#BD35B8" points="672.514,443.327 683.308,465.436 671.628,473.625 655.78,452.773 
			669.17,440 		"/>
		<polygon clip-path="url(#SVGID_30_)" fill="#FFFFFF" points="639.934,434.541 647.108,437.784 641.959,449.336 635.204,444.616 		
			"/>
		<polygon clip-path="url(#SVGID_30_)" fill="#FFD6D6" points="199.272,577.522 177.706,544.7 165.422,553.739 192.99,583.072 		"/>
	</g>
	<g clip-path="url(#SVGID_2_)">
		<defs>
			<path id="SVGID_31_" d="M253.12,479.644c-4.734,0-8.608,3.872-8.608,8.607v0.398c0,4.735,3.874,8.608,8.608,8.608h22.798
				c4.734,0,8.608-3.873,8.608-8.608v-0.398c0-4.735-3.874-8.607-8.608-8.607H253.12z"/>
		</defs>
		<clipPath id="SVGID_32_">
			<use xlink:href="#SVGID_31_"  overflow="visible"/>
		</clipPath>
		
			<linearGradient id="SVGID_33_" gradientUnits="userSpaceOnUse" x1="0" y1="743.2681" x2="1" y2="743.2681" gradientTransform="matrix(0 19.0467 19.0467 0 -13892.3076 484.1587)">
			<stop  offset="0" style="stop-color:#5C5E60"/>
			<stop  offset="1" style="stop-color:#9FA1A4"/>
		</linearGradient>
		<rect x="244.512" y="479.644" clip-path="url(#SVGID_32_)" fill="url(#SVGID_33_)" width="40.014" height="17.614"/>
	</g>
	<g clip-path="url(#SVGID_2_)">
		<defs>
			<path id="SVGID_34_" d="M239.503,482.765c-3.564,0-6.479,2.915-6.479,6.477v0.302c0,3.563,2.915,6.479,6.479,6.479h10.017
				c3.564,0,6.479-2.915,6.479-6.479v-0.302c0-3.562-2.915-6.477-6.479-6.477H239.503z"/>
		</defs>
		<clipPath id="SVGID_35_">
			<use xlink:href="#SVGID_34_"  overflow="visible"/>
		</clipPath>
		
			<linearGradient id="SVGID_36_" gradientUnits="userSpaceOnUse" x1="0" y1="743.269" x2="1" y2="743.269" gradientTransform="matrix(0 -16.4148 -16.4148 0 12445.084 496.1509)">
			<stop  offset="0" style="stop-color:#5C5E60"/>
			<stop  offset="1" style="stop-color:#9FA1A4"/>
		</linearGradient>
		<rect x="233.024" y="482.765" clip-path="url(#SVGID_35_)" fill="url(#SVGID_36_)" width="22.975" height="13.257"/>
	</g>
	<g clip-path="url(#SVGID_2_)">
		<defs>
			<path id="SVGID_37_" d="M230.591,484.68c-2.534,0-4.606,2.072-4.606,4.605v0.215c0,2.532,2.072,4.606,4.606,4.606h7.087
				c2.533,0,4.607-2.074,4.607-4.606v-0.215c0-2.533-2.074-4.605-4.607-4.605H230.591z"/>
		</defs>
		<clipPath id="SVGID_38_">
			<use xlink:href="#SVGID_37_"  overflow="visible"/>
		</clipPath>
		
			<linearGradient id="SVGID_39_" gradientUnits="userSpaceOnUse" x1="0" y1="743.2671" x2="1" y2="743.2671" gradientTransform="matrix(0 19.0467 19.0467 0 -13922.6826 484.1587)">
			<stop  offset="0" style="stop-color:#5C5E60"/>
			<stop  offset="1" style="stop-color:#9FA1A4"/>
		</linearGradient>
		<rect x="225.985" y="484.68" clip-path="url(#SVGID_38_)" fill="url(#SVGID_39_)" width="16.3" height="9.427"/>
	</g>
	<g clip-path="url(#SVGID_2_)">
		<defs>
			<rect id="SVGID_40_" width="1634.37" height="743.268"/>
		</defs>
		<clipPath id="SVGID_41_">
			<use xlink:href="#SVGID_40_"  overflow="visible"/>
		</clipPath>
		<path clip-path="url(#SVGID_41_)" fill="#FFD6D6" d="M248.612,484.202L248.612,484.202c-2.655,0.254-4.671,2.06-4.481,4.012
			l0.554,5.681c0.19,1.952,2.516,3.34,5.169,3.085c2.654-0.254,4.671-2.059,4.481-4.011l-0.554-5.681
			C253.591,485.336,251.265,483.947,248.612,484.202"/>
		<path clip-path="url(#SVGID_41_)" fill="#814D4D" d="M225.403,702.423l-7.334-0.09l-1.273,5.409
			c-0.228,0.973-0.094,2.066,0.459,2.792c0.403,0.532,0.969,0.865,1.599,0.871l18.302,0.222c1.799,0.023,3.226-5.266-2.494-6.914
			C234.662,704.713,227.725,702.45,225.403,702.423"/>
		<path clip-path="url(#SVGID_41_)" fill="#814D4D" d="M190.235,702.423l-7.334-0.09l-1.273,5.409
			c-0.228,0.973-0.094,2.066,0.459,2.792c0.404,0.532,0.969,0.865,1.599,0.871l18.302,0.222c1.799,0.023,3.226-5.266-2.493-6.914
			C199.495,704.713,192.557,702.45,190.235,702.423"/>
	</g>
	<g clip-path="url(#SVGID_2_)">
		<defs>
			<polygon id="SVGID_42_" points="204.661,583.634 216.825,702.334 229.957,702.334 229.957,583.634 			"/>
		</defs>
		<clipPath id="SVGID_43_">
			<use xlink:href="#SVGID_42_"  overflow="visible"/>
		</clipPath>
		
			<linearGradient id="SVGID_44_" gradientUnits="userSpaceOnUse" x1="0" y1="743.2681" x2="1" y2="743.2681" gradientTransform="matrix(0 75.3695 75.3695 0 -55802.4023 630.5181)">
			<stop  offset="0" style="stop-color:#5C5E60"/>
			<stop  offset="1" style="stop-color:#9FA1A4"/>
		</linearGradient>
		<rect x="204.661" y="583.634" clip-path="url(#SVGID_43_)" fill="url(#SVGID_44_)" width="25.296" height="118.7"/>
	</g>
	<g clip-path="url(#SVGID_2_)">
		<defs>
			<polygon id="SVGID_45_" points="182.283,702.334 195.416,702.334 208.993,583.634 185.808,581.574 			"/>
		</defs>
		<clipPath id="SVGID_46_">
			<use xlink:href="#SVGID_45_"  overflow="visible"/>
		</clipPath>
		
			<linearGradient id="SVGID_47_" gradientUnits="userSpaceOnUse" x1="0" y1="743.2681" x2="1" y2="743.2681" gradientTransform="matrix(0 75.3695 75.3695 0 -55824.0898 630.5181)">
			<stop  offset="0" style="stop-color:#5C5E60"/>
			<stop  offset="1" style="stop-color:#9FA1A4"/>
		</linearGradient>
		<rect x="182.283" y="581.574" clip-path="url(#SVGID_46_)" fill="url(#SVGID_47_)" width="26.71" height="120.761"/>
	</g>
	<g clip-path="url(#SVGID_2_)">
		<defs>
			<rect id="SVGID_48_" width="1634.37" height="743.268"/>
		</defs>
		<clipPath id="SVGID_49_">
			<use xlink:href="#SVGID_48_"  overflow="visible"/>
		</clipPath>
		<path clip-path="url(#SVGID_49_)" fill="#FFD6D6" d="M208.058,489.237l2.474,0.911l0.234-4.485
			c0.243-4.651,4.209-8.226,8.859-7.983l2.807,0.147c4.65,0.241,8.224,4.209,7.981,8.858l-0.549,10.533
			c-0.242,4.651-4.208,8.225-8.859,7.983h-0.001c-2.276-0.146-3.341,0.823-4.572,4.039c-1.103,2.878-1.18,5.592-1.215,8.674
			c-3.713-0.727-8.482-1.571-12.262-1.415C204.904,507.229,207.958,498.709,208.058,489.237"/>
		<path clip-path="url(#SVGID_49_)" fill="#450606" d="M227.299,485.515c7.818-7.376-2.993-16.477-14.492-14.319
			c-6.896,1.294-13.11,2.907-15.357,10.596c-0.681,2.332-0.743,0.698-0.967,3.117c-0.61,6.61,0.77,7.472,4.471,14.458
			c5.439,10.266,16.157,6.354,18.241,3.417C220.77,500.563,224.646,488.018,227.299,485.515"/>
	</g>
	<g clip-path="url(#SVGID_2_)">
		<defs>
			<path id="SVGID_50_" d="M195.638,513.272c-1.589,0.048-9.78,4.643-9.78,18.859c0,11.939-0.92,51.279-0.428,62.399
				c6.573,0.665,39.318,1.369,44.527,0.845c0.685-15.471,3.195-59.711,3.195-59.711s0.115-17.462-2.303-20.169
				c-1.647-1.845-3.27-2.113-6.902-2.224c-4.869-0.145-9.737-0.291-14.606-0.437C204.473,512.981,200.507,513.127,195.638,513.272"
				/>
		</defs>
		<clipPath id="SVGID_51_">
			<use xlink:href="#SVGID_50_"  overflow="visible"/>
		</clipPath>
		
			<linearGradient id="SVGID_52_" gradientUnits="userSpaceOnUse" x1="0" y1="743.2661" x2="1" y2="743.2661" gradientTransform="matrix(0 55.3333 55.3333 0 -40918.2813 548.1431)">
			<stop  offset="0" style="stop-color:#8647E1"/>
			<stop  offset="1" style="stop-color:#B78FED"/>
		</linearGradient>
		<rect x="184.938" y="512.835" clip-path="url(#SVGID_51_)" fill="url(#SVGID_52_)" width="48.329" height="83.064"/>
	</g>
	<g clip-path="url(#SVGID_2_)">
		<defs>
			<rect id="SVGID_53_" width="1634.37" height="743.268"/>
		</defs>
		<clipPath id="SVGID_54_">
			<use xlink:href="#SVGID_53_"  overflow="visible"/>
		</clipPath>
		<path clip-path="url(#SVGID_54_)" fill="#FFD6D6" d="M218.674,513.095c0,0-3.894,2.4-9.936,2.4s-6.751-2.4-6.751-2.4l8.344-2.195
			L218.674,513.095z"/>
		<path clip-path="url(#SVGID_54_)" fill="#FFD6D6" d="M218.252,492.396c-0.152,2.927,1.52,5.392,3.735,5.507
			c2.215,0.114,4.135-2.162,4.287-5.088c0.153-2.927-1.52-5.392-3.735-5.507C220.324,487.194,218.404,489.47,218.252,492.396"/>
		<polygon clip-path="url(#SVGID_54_)" fill="#FFD6D6" points="245.633,494.522 240.066,533.401 255.256,534.758 254.015,494.522 		
			"/>
	</g>
	<g clip-path="url(#SVGID_2_)">
		<defs>
			<path id="SVGID_55_" d="M219.732,530.049l20.126,11.326c5.094,2.867,11.536,1.332,14.79-3.525l1.562-2.333l-26.253-20.864
				L219.732,530.049z"/>
		</defs>
		<clipPath id="SVGID_56_">
			<use xlink:href="#SVGID_55_"  overflow="visible"/>
		</clipPath>
		
			<linearGradient id="SVGID_57_" gradientUnits="userSpaceOnUse" x1="0" y1="743.2681" x2="1" y2="743.2681" gradientTransform="matrix(0 55.3333 55.3333 0 -40889.5313 548.1431)">
			<stop  offset="0" style="stop-color:#8647E1"/>
			<stop  offset="1" style="stop-color:#B78FED"/>
		</linearGradient>
		<rect x="219.732" y="514.653" clip-path="url(#SVGID_56_)" fill="url(#SVGID_57_)" width="36.478" height="29.59"/>
	</g>
	<g clip-path="url(#SVGID_2_)">
		<defs>
			<path id="SVGID_58_" d="M168.997,536.548c-5.501,4.948-7.601,13.057-4.821,18.612c0.708,1.411,2.497,1.875,3.799,0.983
				l31.622-21.641l-8.865-17.51L168.997,536.548z"/>
		</defs>
		<clipPath id="SVGID_59_">
			<use xlink:href="#SVGID_58_"  overflow="visible"/>
		</clipPath>
		
			<linearGradient id="SVGID_60_" gradientUnits="userSpaceOnUse" x1="0" y1="743.2544" x2="1" y2="743.2544" gradientTransform="matrix(0 55.3333 55.3333 0 -40946.2188 548.1431)">
			<stop  offset="0" style="stop-color:#8647E1"/>
			<stop  offset="1" style="stop-color:#B78FED"/>
		</linearGradient>
		<rect x="161.396" y="516.994" clip-path="url(#SVGID_59_)" fill="url(#SVGID_60_)" width="38.201" height="40.042"/>
	</g>
	<g clip-path="url(#SVGID_2_)">
		<defs>
			<rect id="SVGID_61_" width="1634.37" height="743.268"/>
		</defs>
		<clipPath id="SVGID_62_">
			<use xlink:href="#SVGID_61_"  overflow="visible"/>
		</clipPath>
		<g opacity="0.1" clip-path="url(#SVGID_62_)">
			<g>
				<defs>
					<rect id="SVGID_63_" x="355.713" y="81.945" width="232.297" height="55.438"/>
				</defs>
				<clipPath id="SVGID_64_">
					<use xlink:href="#SVGID_63_"  overflow="visible"/>
				</clipPath>
				<g clip-path="url(#SVGID_64_)">
					<defs>
						<path id="SVGID_65_" d="M582.499,106.576c0,0-25.898-33.539-42.852-22.343c-16.955,11.197-36.473,41.785-36.473,41.785
							s-37.972-53.599-63.444-32.932c-25.472,20.666-19.974,38.754-19.974,38.754s-42.555-20.978-64.043,2.861l221.063,2.679
							c8.333,0.101,13.079-6.601,10.556-14.904L582.499,106.576z"/>
					</defs>
					<clipPath id="SVGID_66_">
						<use xlink:href="#SVGID_65_"  overflow="visible"/>
					</clipPath>
					
						<linearGradient id="SVGID_67_" gradientUnits="userSpaceOnUse" x1="-9.765625e-004" y1="743.2876" x2="0.999" y2="743.2876" gradientTransform="matrix(232.2964 0 0 -232.2964 355.75 172768.1719)">
						<stop  offset="0" style="stop-color:#8647E1"/>
						<stop  offset="1" style="stop-color:#B78FED"/>
					</linearGradient>
					<rect x="355.713" y="72.419" clip-path="url(#SVGID_66_)" fill="url(#SVGID_67_)" width="234.142" height="65.062"/>
				</g>
			</g>
		</g>
		<g opacity="0.1" clip-path="url(#SVGID_62_)">
			<g>
				<defs>
					<rect id="SVGID_68_" x="1148.22" y="134.115" width="194.24" height="46.353"/>
				</defs>
				<clipPath id="SVGID_69_">
					<use xlink:href="#SVGID_68_"  overflow="visible"/>
				</clipPath>
				<g clip-path="url(#SVGID_69_)">
					<defs>
						<path id="SVGID_70_" d="M1337.85,154.709c0,0-21.652-28.044-35.83-18.681c-14.177,9.362-30.496,34.938-30.496,34.938
							s-31.752-44.817-53.05-27.536c-21.298,17.28-16.7,32.404-16.7,32.404s-35.582-17.54-53.551,2.392l184.842,2.241
							c6.969,0.084,10.937-5.52,8.827-12.462L1337.85,154.709z"/>
					</defs>
					<clipPath id="SVGID_71_">
						<use xlink:href="#SVGID_70_"  overflow="visible"/>
					</clipPath>
					
						<linearGradient id="SVGID_72_" gradientUnits="userSpaceOnUse" x1="4.882813e-004" y1="743.2896" x2="1.0005" y2="743.2896" gradientTransform="matrix(194.2347 0 0 -194.2347 1148.25 144525.7188)">
						<stop  offset="0" style="stop-color:#8647E1"/>
						<stop  offset="1" style="stop-color:#B78FED"/>
					</linearGradient>
					<rect x="1148.223" y="126.149" clip-path="url(#SVGID_71_)" fill="url(#SVGID_72_)" width="195.778" height="54.402"/>
				</g>
			</g>
		</g>
		<g opacity="0.1" clip-path="url(#SVGID_62_)">
			<g>
				<defs>
					<rect id="SVGID_73_" x="1202.09" y="323.755" width="158.88" height="296.528"/>
				</defs>
				<clipPath id="SVGID_74_">
					<use xlink:href="#SVGID_73_"  overflow="visible"/>
				</clipPath>
				<g clip-path="url(#SVGID_74_)">
					<defs>
						<path id="SVGID_75_" d="M1205.157,586.864c0,0-15.677-72.661,23.847-99.246c39.524-26.584,5.396-96.224,67.795-118.025
							c62.4-21.803,62.342-45.837,62.342-45.837s12.055,90.958-25.777,123.343c-37.833,32.384-57.758,104.453-74.928,119.768
							c-17.171,15.316-41.564,53.417-41.564,53.417L1205.157,586.864z"/>
					</defs>
					<clipPath id="SVGID_76_">
						<use xlink:href="#SVGID_75_"  overflow="visible"/>
					</clipPath>
					
						<linearGradient id="SVGID_77_" gradientUnits="userSpaceOnUse" x1="0" y1="743.3062" x2="1" y2="743.3062" gradientTransform="matrix(-130.4935 212.9893 212.9893 130.4935 -156982 -96612.625)">
						<stop  offset="0" style="stop-color:#8647E1"/>
						<stop  offset="1" style="stop-color:#B78FED"/>
					</linearGradient>
					<polygon clip-path="url(#SVGID_76_)" fill="url(#SVGID_77_)" points="1503.287,404.685 1321.601,701.23 1057.389,539.353 
						1239.075,242.809 					"/>
				</g>
			</g>
		</g>
		<path clip-path="url(#SVGID_62_)" fill="#FFFFFF" d="M1229.645,557.862c-0.232,0-0.472-0.044-0.701-0.137
			c-0.959-0.387-1.424-1.479-1.035-2.439c0.248-0.614,25.253-62.031,62.365-113.601c2.476-3.437,5.226-7.219,8.158-11.252
			c22.04-30.303,55.348-76.098,57.606-95.009c0.122-1.029,1.065-1.763,2.082-1.64c1.027,0.123,1.761,1.056,1.639,2.083
			c-2.374,19.882-34.695,64.322-58.296,96.771c-2.929,4.027-5.675,7.804-8.147,11.238c-36.842,51.19-61.687,112.203-61.934,112.813
			C1231.088,557.42,1230.386,557.862,1229.645,557.862"/>
		<g opacity="0.1" clip-path="url(#SVGID_62_)">
			<g>
				<defs>
					<rect id="SVGID_78_" x="1197.79" y="494.119" width="223.35" height="136.843"/>
				</defs>
				<clipPath id="SVGID_79_">
					<use xlink:href="#SVGID_78_"  overflow="visible"/>
				</clipPath>
				<g clip-path="url(#SVGID_79_)">
					<defs>
						<path id="SVGID_80_" d="M1197.786,630.001c0,0,61.346-110.38,129.207-130.089c67.86-19.707,94.151,17.178,94.151,17.178
							s-30.047-3.011-58.576,20.671c-28.532,23.68-53.283,34.397-70.237,40.233c-16.953,5.837-49.576,52.967-49.576,52.967
							L1197.786,630.001z"/>
					</defs>
					<clipPath id="SVGID_81_">
						<use xlink:href="#SVGID_80_"  overflow="visible"/>
					</clipPath>
					
						<linearGradient id="SVGID_82_" gradientUnits="userSpaceOnUse" x1="0" y1="743.231" x2="1" y2="743.231" gradientTransform="matrix(-130.4935 212.9893 212.9893 130.4935 -156907.5625 -96567.125)">
						<stop  offset="0" style="stop-color:#8647E1"/>
						<stop  offset="1" style="stop-color:#B78FED"/>
					</linearGradient>
					<polygon clip-path="url(#SVGID_81_)" fill="url(#SVGID_82_)" points="1488.301,521.35 1360.185,730.458 1130.63,589.816 
						1258.746,380.708 					"/>
				</g>
			</g>
		</g>
		<path clip-path="url(#SVGID_62_)" fill="#FFFFFF" d="M1235.698,615.053c-0.291,0-0.585-0.067-0.859-0.211
			c-0.919-0.476-1.279-1.605-0.804-2.525c0.112-0.218,11.51-22.084,29.642-44.311c16.847-20.652,43.145-45.871,72.752-48.736
			c9.177-0.889,18.651-3.21,27.814-5.456c16.487-4.04,32.06-7.858,44.912-3.41c0.979,0.337,1.497,1.405,1.158,2.383
			c-0.338,0.979-1.405,1.495-2.384,1.159c-11.809-4.084-26.859-0.397-42.794,3.508c-9.291,2.278-18.9,4.633-28.345,5.546
			c-28.322,2.741-53.814,27.277-70.211,47.376c-17.889,21.929-29.104,43.449-29.217,43.664
			C1237.03,614.684,1236.377,615.053,1235.698,615.053"/>
	</g>
	<g clip-path="url(#SVGID_2_)">
		<defs>
			<path id="SVGID_83_" d="M430.189,375.254c11.41-22.819,22.82-45.639,32.961-67.825h2.536c-1.268,25.356-3.803,64.022-3.803,90.01
				v65.289h-84.939L430.189,375.254z M434.626,227.562L287.568,469.701v64.022h174.315v96.347h86.841v-96.347h46.272v-70.995
				h-46.272V227.562H434.626z"/>
		</defs>
		<clipPath id="SVGID_84_">
			<use xlink:href="#SVGID_83_"  overflow="visible"/>
		</clipPath>
		
			<linearGradient id="SVGID_85_" gradientUnits="userSpaceOnUse" x1="0" y1="743.2681" x2="1" y2="743.2681" gradientTransform="matrix(0 162.5741 162.5741 0 -120394.8828 384.2681)">
			<stop  offset="0" style="stop-color:#8647E1"/>
			<stop  offset="1" style="stop-color:#B78FED"/>
		</linearGradient>
		<rect x="287.568" y="227.562" clip-path="url(#SVGID_84_)" fill="url(#SVGID_85_)" width="307.428" height="402.508"/>
	</g>
	<g clip-path="url(#SVGID_2_)">
		<defs>
			<path id="SVGID_86_" d="M721.774,427.232c0-110.294,24.72-135.015,55.78-135.015c31.694,0,55.78,24.721,55.78,135.015
				c0,109.66-24.086,138.185-55.78,138.185C746.494,565.417,721.774,536.892,721.774,427.232 M633.666,427.232
				c0,136.915,57.682,210.445,143.888,210.445c86.207,0,143.889-73.53,143.889-210.445c0-136.916-57.683-207.276-143.889-207.276
				C691.348,219.956,633.666,290.316,633.666,427.232"/>
		</defs>
		<clipPath id="SVGID_87_">
			<use xlink:href="#SVGID_86_"  overflow="visible"/>
		</clipPath>
		
			<linearGradient id="SVGID_88_" gradientUnits="userSpaceOnUse" x1="0" y1="743.2681" x2="1" y2="743.2681" gradientTransform="matrix(0 162.5741 162.5741 0 -120058.6328 384.2681)">
			<stop  offset="0" style="stop-color:#8647E1"/>
			<stop  offset="1" style="stop-color:#B78FED"/>
		</linearGradient>
		<rect x="633.666" y="219.956" clip-path="url(#SVGID_87_)" fill="url(#SVGID_88_)" width="287.777" height="417.721"/>
	</g>
	<g clip-path="url(#SVGID_2_)">
		<defs>
			<path id="SVGID_89_" d="M1099.564,375.254c11.41-22.819,22.819-45.639,32.963-67.825h2.535
				c-1.269,25.356-3.804,64.022-3.804,90.01v65.289h-84.938L1099.564,375.254z M1104.002,227.562L956.945,469.701v64.022h174.313
				v96.347h86.841v-96.347h46.271v-70.995H1218.1V227.562H1104.002z"/>
		</defs>
		<clipPath id="SVGID_90_">
			<use xlink:href="#SVGID_89_"  overflow="visible"/>
		</clipPath>
		
			<linearGradient id="SVGID_91_" gradientUnits="userSpaceOnUse" x1="0" y1="743.2681" x2="1" y2="743.2681" gradientTransform="matrix(0 162.5741 162.5741 0 -119725.5078 384.2681)">
			<stop  offset="0" style="stop-color:#8647E1"/>
			<stop  offset="1" style="stop-color:#B78FED"/>
		</linearGradient>
		<rect x="956.945" y="227.562" clip-path="url(#SVGID_90_)" fill="url(#SVGID_91_)" width="307.426" height="402.508"/>
	</g>
	<g clip-path="url(#SVGID_2_)">
		<defs>
			<rect id="SVGID_92_" width="1634.37" height="743.268"/>
		</defs>
		<clipPath id="SVGID_93_">
			<use xlink:href="#SVGID_92_"  overflow="visible"/>
		</clipPath>
		<path clip-path="url(#SVGID_93_)" fill="#E2E2E2" d="M941.815,594.87c0,12.363-10.022,22.388-22.388,22.388
			s-22.388-10.024-22.388-22.388c0-12.364,10.022-22.389,22.388-22.389S941.815,582.505,941.815,594.87"/>
		<path clip-path="url(#SVGID_93_)" fill="#E2E2E2" d="M944.214,634.021l-0.343,0.247c-0.683,0.494-1.646,0.34-2.14-0.346
			l-12.511-17.339c-0.492-0.684-0.338-1.647,0.347-2.14l0.342-0.247c0.684-0.494,1.647-0.339,2.14,0.346l12.512,17.339
			C945.053,632.566,944.897,633.529,944.214,634.021"/>
	</g>
	<g clip-path="url(#SVGID_2_)">
		<defs>
			<path id="SVGID_94_" d="M937.208,625.713c-2.073,1.495-2.544,4.413-1.05,6.484l13.863,19.211c1.495,2.072,4.413,2.544,6.485,1.05
				c2.071-1.495,2.543-4.414,1.048-6.485l-13.862-19.212c-0.905-1.254-2.332-1.922-3.776-1.922
				C938.974,624.839,938.025,625.124,937.208,625.713"/>
		</defs>
		<clipPath id="SVGID_95_">
			<use xlink:href="#SVGID_94_"  overflow="visible"/>
		</clipPath>
		
			<linearGradient id="SVGID_96_" gradientUnits="userSpaceOnUse" x1="0" y1="743.2544" x2="1" y2="743.2544" gradientTransform="matrix(23.1442 0 0 -23.1442 935.2813 17841.4434)">
			<stop  offset="0" style="stop-color:#5C5E60"/>
			<stop  offset="1" style="stop-color:#9FA1A4"/>
		</linearGradient>
		<rect x="934.664" y="624.839" clip-path="url(#SVGID_95_)" fill="url(#SVGID_96_)" width="24.386" height="29.113"/>
	</g>
	<g clip-path="url(#SVGID_2_)">
		<defs>
			<path id="SVGID_97_" d="M913.382,614.887c-11.038-3.333-17.305-15.026-13.972-26.063c3.333-11.038,15.024-17.307,26.063-13.972
				c11.038,3.333,17.307,15.025,13.974,26.063c-2.729,9.028-11.048,14.866-20.029,14.866
				C917.42,615.782,915.39,615.493,913.382,614.887 M894.169,587.241c-4.206,13.928,3.703,28.681,17.63,32.887
				c13.928,4.207,28.682-3.702,32.887-17.629c4.206-13.928-3.702-28.682-17.631-32.889c-2.533-0.765-5.093-1.129-7.612-1.129
				C908.111,568.482,897.61,575.848,894.169,587.241"/>
		</defs>
		<clipPath id="SVGID_98_">
			<use xlink:href="#SVGID_97_"  overflow="visible"/>
		</clipPath>
		
			<linearGradient id="SVGID_99_" gradientUnits="userSpaceOnUse" x1="0" y1="743.2378" x2="1" y2="743.2378" gradientTransform="matrix(52.7756 0 0 -52.7756 893.0313 39821.3008)">
			<stop  offset="0" style="stop-color:#5C5E60"/>
			<stop  offset="1" style="stop-color:#9FA1A4"/>
		</linearGradient>
		<rect x="889.963" y="568.481" clip-path="url(#SVGID_98_)" fill="url(#SVGID_99_)" width="58.929" height="55.854"/>
	</g>
	<g clip-path="url(#SVGID_2_)">
		<defs>
			<rect id="SVGID_100_" width="1634.37" height="743.268"/>
		</defs>
		<clipPath id="SVGID_101_">
			<use xlink:href="#SVGID_100_"  overflow="visible"/>
		</clipPath>
		<path clip-path="url(#SVGID_101_)" fill="#FFD6D6" d="M952.787,645.721l-0.062,0.096c-1.421,2.22-4.402,2.876-6.623,1.456
			l-5.802-3.709c-2.226-1.422-2.88-4.404-1.456-6.628l0.06-0.097c1.422-2.221,4.403-2.876,6.624-1.456l5.802,3.71
			C953.556,640.516,954.211,643.498,952.787,645.721"/>
		<path clip-path="url(#SVGID_101_)" fill="#FFD6D6" d="M988.343,650.349l-4.35,6.234c-1.478,2.118-4.336,2.739-6.558,1.426
			l-23.36-14.393l-11.922,0.975l30.625,24.45c5.542,4.425,13.735,2.772,17.128-3.456l9.06-16.631L988.343,650.349z"/>
		<path clip-path="url(#SVGID_101_)" fill="#FFD6D6" d="M1004.496,599.816c-0.625,0.465-1.25,0.929-1.875,1.394l-1.318-3.756
			c-1.368-3.893-5.631-5.939-9.523-4.572l-2.349,0.826c-3.893,1.367-5.939,5.63-4.573,9.521l3.098,8.816
			c1.367,3.892,5.631,5.938,9.522,4.573l0.001-0.001c1.899-0.692,3.045-0.134,4.895,2.292c1.656,2.171,2.399,4.458,3.199,7.067
			c2.976-1.544,6.817-3.452,10.069-4.265C1011.67,614.322,1006.945,607.842,1004.496,599.816"/>
		<path clip-path="url(#SVGID_101_)" fill="#450606" d="M987.212,601.457c-8.485-4.315-1.569-14.751,8.742-15.788
			c6.186-0.623,11.869-0.804,15.699,5.172c1.162,1.811,0.806,0.405,1.6,2.406c2.17,5.467,1.212,6.544-0.188,13.405
			c-2.062,10.084-12.146,9.438-14.652,7.459C996.52,612.617,990.092,602.922,987.212,601.457"/>
		<path clip-path="url(#SVGID_101_)" fill="#FFD6D6" d="M996.62,605.046c0.86,2.448,0.055,4.963-1.8,5.613
			c-1.854,0.651-4.054-0.805-4.915-3.254c-0.858-2.449-0.054-4.962,1.801-5.613C993.56,601.142,995.761,602.599,996.62,605.046"/>
	</g>
	<g clip-path="url(#SVGID_2_)">
		<defs>
			<polygon id="SVGID_102_" points="983.835,654.042 995.152,660.364 1012.064,635.823 995.763,627.65 			"/>
		</defs>
		<clipPath id="SVGID_103_">
			<use xlink:href="#SVGID_102_"  overflow="visible"/>
		</clipPath>
		
			<linearGradient id="SVGID_104_" gradientUnits="userSpaceOnUse" x1="0" y1="743.2681" x2="1" y2="743.2681" gradientTransform="matrix(0 77.0616 77.0616 0 -56279.5 641.6431)">
			<stop  offset="0" style="stop-color:#8647E1"/>
			<stop  offset="1" style="stop-color:#B78FED"/>
		</linearGradient>
		<rect x="983.835" y="627.65" clip-path="url(#SVGID_103_)" fill="url(#SVGID_104_)" width="28.229" height="32.714"/>
	</g>
	<g clip-path="url(#SVGID_2_)">
		<defs>
			<rect id="SVGID_105_" width="1634.37" height="743.268"/>
		</defs>
		<clipPath id="SVGID_106_">
			<use xlink:href="#SVGID_105_"  overflow="visible"/>
		</clipPath>
		<path clip-path="url(#SVGID_106_)" fill="#FFFFFF" d="M1002.734,597.463c1.304,2.854,4.674,4.113,7.529,2.812
			c2.855-1.303,4.114-4.674,2.811-7.53c-1.303-2.854-4.674-4.112-7.528-2.81C1002.69,591.237,1001.432,594.609,1002.734,597.463"/>
	</g>
	<g clip-path="url(#SVGID_2_)">
		<defs>
			<path id="SVGID_107_" d="M1013.529,623.107c-4.683,0.511-8.346,0.902-13.002,1.563c-8.913,1.27-9.185,20.014-9.185,20.014
				s13.493,28.361,14.647,41.653c5.029,0.042,1.996,3.637,7.889,3.139v0.001c6.365-0.346,12.177-9.093,18.483-10.186
				c0.116-9.633,2.359-39.471,0.965-49.686c-0.839-6.13-5.354-7.552-10.021-7.552
				C1019.519,622.054,1015.631,622.991,1013.529,623.107"/>
		</defs>
		<clipPath id="SVGID_108_">
			<use xlink:href="#SVGID_107_"  overflow="visible"/>
		</clipPath>
		
			<linearGradient id="SVGID_109_" gradientUnits="userSpaceOnUse" x1="0" y1="743.2739" x2="1" y2="743.2739" gradientTransform="matrix(0 77.0616 77.0616 0 -56264.875 641.6431)">
			<stop  offset="0" style="stop-color:#8647E1"/>
			<stop  offset="1" style="stop-color:#B78FED"/>
		</linearGradient>
		<rect x="991.343" y="622.054" clip-path="url(#SVGID_108_)" fill="url(#SVGID_109_)" width="43.379" height="67.92"/>
	</g>
	<g clip-path="url(#SVGID_2_)">
		<defs>
			<rect id="SVGID_110_" width="1634.37" height="743.268"/>
		</defs>
		<clipPath id="SVGID_111_">
			<use xlink:href="#SVGID_110_"  overflow="visible"/>
		</clipPath>
		<path clip-path="url(#SVGID_111_)" fill="#FFD6D6" d="M1004.568,624.065c0,0,3.969,1.729,9.783,1.251
			c5.817-0.477,6.279-2.568,6.279-2.568l-8.232-1.204L1004.568,624.065z"/>
		<path clip-path="url(#SVGID_111_)" fill="#450606" d="M1005.419,593.394c2.171-2.82,6.025-3.505,8.971-1.48
			c2.053,1.41,4.136,4.084,5.59,9.017c3.953,13.415,13.042,5.109,13.881,11.319c0.84,6.21-3.046,24.755-13.666,16.915
			c-10.62-7.839-14.513-13.144-12.495-20.892c0.966-3.705-0.287-6.268-1.855-7.932
			C1004.046,598.437,1003.853,595.43,1005.419,593.394"/>
	</g>
	<g clip-path="url(#SVGID_2_)">
		<defs>
			<path id="SVGID_112_" d="M1007.905,676.131c0,0-38.483,17.572-34.083,34.375c4.399,16.8,40.708,13.47,40.708,13.47l23.405-16.446
				c1.358-0.956,1.342-2.977-0.035-3.908l-4.118-2.783c0,0,14.86-16.525-0.901-34.516c-3.852-4.397-7.314-6.06-10.346-6.06
				C1013.165,660.262,1007.905,676.131,1007.905,676.131"/>
		</defs>
		<clipPath id="SVGID_113_">
			<use xlink:href="#SVGID_112_"  overflow="visible"/>
		</clipPath>
		
			<linearGradient id="SVGID_114_" gradientUnits="userSpaceOnUse" x1="0" y1="743.2974" x2="1" y2="743.2974" gradientTransform="matrix(0 77.0616 77.0616 0 -56270.625 641.6431)">
			<stop  offset="0" style="stop-color:#8647E1"/>
			<stop  offset="1" style="stop-color:#B78FED"/>
		</linearGradient>
		<rect x="969.422" y="660.262" clip-path="url(#SVGID_113_)" fill="url(#SVGID_114_)" width="79.221" height="67.044"/>
	</g>
	<g clip-path="url(#SVGID_2_)">
		<defs>
			<rect id="SVGID_115_" width="1634.37" height="743.268"/>
		</defs>
		<clipPath id="SVGID_116_">
			<use xlink:href="#SVGID_115_"  overflow="visible"/>
		</clipPath>
		<path clip-path="url(#SVGID_116_)" fill="#FFFFFF" d="M931.322,585.372c0,2.503-2.027,4.529-4.528,4.529
			c-2.502,0-4.53-2.026-4.53-4.529c0-2.501,2.028-4.528,4.53-4.528C929.295,580.843,931.322,582.871,931.322,585.372"/>
		<path clip-path="url(#SVGID_116_)" fill="#FFD6D6" d="M638.641,477.256L638.641,477.256c-2.655,0.254-4.671,2.06-4.481,4.012
			l0.554,5.68c0.19,1.952,2.516,3.34,5.169,3.086c2.654-0.254,4.671-2.059,4.481-4.011l-0.554-5.682
			C643.62,478.39,641.294,477.001,638.641,477.256"/>
		<path clip-path="url(#SVGID_116_)" fill="#FFD6D6" d="M603.708,469.645c0,0-1.528,32.544,9.712,29.657
			c11.241-2.886,24.599-11.676,24.599-11.676l-1.803-5.836c0,0-20.509,10.422-20.682,3.447c-0.174-6.977,0.871-24.653,0.871-24.653
			L603.708,469.645z"/>
	</g>
	<g clip-path="url(#SVGID_2_)">
		<defs>
			<polygon id="SVGID_117_" points="601.6,458.654 602.704,482.155 618.37,480.034 620.539,456.812 			"/>
		</defs>
		<clipPath id="SVGID_118_">
			<use xlink:href="#SVGID_117_"  overflow="visible"/>
		</clipPath>
		
			<linearGradient id="SVGID_119_" gradientUnits="userSpaceOnUse" x1="0" y1="743.2603" x2="1" y2="743.2603" gradientTransform="matrix(10 58.6667 58.6667 -10 -42994.4375 7896.48)">
			<stop  offset="0" style="stop-color:#5C5E60"/>
			<stop  offset="1" style="stop-color:#9FA1A4"/>
		</linearGradient>
		<polygon clip-path="url(#SVGID_118_)" fill="url(#SVGID_119_)" points="620.004,453.675 624.737,481.44 602.135,485.292 
			597.402,457.528 		"/>
	</g>
	<g clip-path="url(#SVGID_2_)">
		<defs>
			<rect id="SVGID_120_" width="1634.37" height="743.268"/>
		</defs>
		<clipPath id="SVGID_121_">
			<use xlink:href="#SVGID_120_"  overflow="visible"/>
		</clipPath>
		<path clip-path="url(#SVGID_121_)" fill="#450606" d="M1148.678,634.12h7.076l1.166,5.231c0.209,0.94,0.068,1.994-0.474,2.688
			c-0.396,0.508-0.945,0.821-1.554,0.821h-17.657c-1.735,0-3.052-5.114,2.484-6.638
			C1139.72,636.222,1146.439,634.12,1148.678,634.12"/>
		<polygon clip-path="url(#SVGID_121_)" fill="#FFD6D6" points="1139.462,562.541 1147.077,634.304 1155.754,634.119 
			1159.837,568.237 		"/>
		<path clip-path="url(#SVGID_121_)" fill="#FFD6D6" d="M1155.37,562.541l4.007,17.423c2.767,12.025,9.094,22.938,18.154,31.314
			l20.255,18.724l2.584-6.529l-17.825-22.496c-4.476-5.647-6.832-12.682-6.661-19.885l0.729-30.938L1155.37,562.541z"/>
		<path clip-path="url(#SVGID_121_)" fill="#450606" d="M1179.394,435.174c4.653,1.06,9.692,1.53,13.468,4.449
			c2.849,2.202,4.576,5.51,6.808,8.335c1.231,1.56,2.774,3.031,4.511,3.968c2.953,1.59,4.794,4.696,4.935,8.049
			c0.149,3.604,0.087,9.229-0.022,14.166c-0.144,6.539-7.346,10.683-12.908,7.239c-0.414-0.257-0.778-0.534-1.081-0.837
			c-2.579-2.573-3.455-1.506-6.034-3.962c-4.563-4.347-13.455-6.626-19.615-5.293c-5.406,1.17-10.774-0.073-15.928-1.96
			c-3.881-1.421-8.321-5.712-9.777-9.577c-1.616-4.286-1.78-8.947-1.749-13.514c0.032-4.442,0.245-8.878,0.644-13.302
			c0.19-2.108,0.521-4.426,3.713-4.948c1.021-0.167,2.066-0.08,3.07,0.167l1.848,0.454c5.266,1.295,10.435,0.366,15.636,1.188
			C1171.359,430.5,1174.861,434.144,1179.394,435.174"/>
		<rect x="1148.604" y="532.859" clip-path="url(#SVGID_121_)" fill="#CE434A" width="21.328" height="12.629"/>
		<path clip-path="url(#SVGID_121_)" fill="#FFD6D6" d="M1163.102,446.075c-0.745,0.23-1.488,0.463-2.232,0.692v-3.983
			c0-4.128-3.348-7.475-7.477-7.475h-2.49c-4.13,0-7.477,3.347-7.477,7.475v9.353c0,4.128,3.347,7.475,7.477,7.475l0,0
			c2.021-0.022,3.679,1.602,3.703,3.622c0.035,2.733-0.002,5.465-0.112,8.196c3.32-0.472,6.696-0.553,10.037-0.241
			C1163.23,462.89,1162.752,454.466,1163.102,446.075"/>
		<path clip-path="url(#SVGID_121_)" fill="#450606" d="M1145.985,437.453c-3.614-2.353-4.046-7.6-0.715-10.341
			c0.222-0.182,0.452-0.353,0.692-0.508c2.863-1.864,6.486-2.092,9.897-1.878c4.92,0.308,10.188,1.655,13.241,5.525
			c1.177,1.491,1.946,3.269,2.46,5.095c0.585,2.073,0.845,4.339,0.076,6.352c-1.076,2.819-4.174,4.639-7.188,4.467
			c-1.371-0.078-2.659,0.74-3.965,0.309c-1.984-0.657-4.02-2.574-5.842-3.604C1152.542,441.683,1148.696,439.216,1145.985,437.453"
			/>
	</g>
	<g clip-path="url(#SVGID_2_)">
		<defs>
			<path id="SVGID_122_" d="M1143.389,468.847c-3.22,0.097-6.481,0.2-9.572,1.098c-3.088,0.898-6.038,2.698-7.612,5.457
				c-1.148,2.014-1.485,4.366-1.697,6.663c-0.357,3.901-0.412,7.829-0.161,11.737l13.817-2.316c0,0-1.066,30.604-0.459,44.32
				c4.618,0.467,11.259,0.695,16.688,0.68v0.003c5.856,0.18,21.895-0.188,27.724-0.775c0.605-13.715-0.692-47.448-0.692-47.448
				l12.751-0.117c0.266,1.746,0.211-2.182-0.147-6.083c-0.21-2.297-0.548-4.649-1.697-6.663c-1.574-2.759-4.522-4.559-7.611-5.457
				c-3.09-0.897-6.353-1.001-9.573-1.098c-4.315-0.128-14.49-0.257-18.807-0.387C1152.021,468.59,1147.705,468.719,1143.389,468.847
				"/>
		</defs>
		<clipPath id="SVGID_123_">
			<use xlink:href="#SVGID_122_"  overflow="visible"/>
		</clipPath>
		
			<linearGradient id="SVGID_124_" gradientUnits="userSpaceOnUse" x1="0" y1="743.2681" x2="1" y2="743.2681" gradientTransform="matrix(0 45.6332 45.6332 0 -32758.3867 489.2056)">
			<stop  offset="0" style="stop-color:#DCDFFB"/>
			<stop  offset="1" style="stop-color:#F3F3FA"/>
		</linearGradient>
		<rect x="1124.095" y="468.46" clip-path="url(#SVGID_123_)" fill="url(#SVGID_124_)" width="70.345" height="68.208"/>
	</g>
	<g clip-path="url(#SVGID_2_)">
		<defs>
			<rect id="SVGID_125_" width="1634.37" height="743.268"/>
		</defs>
		<clipPath id="SVGID_126_">
			<use xlink:href="#SVGID_125_"  overflow="visible"/>
		</clipPath>
		<path clip-path="url(#SVGID_126_)" fill="#FFD6D6" d="M1151.504,468.691c0,0,0.854,9.74,6.211,9.74s8.583-9.74,8.583-9.74
			l-7.396-1.947L1151.504,468.691z"/>
		<path clip-path="url(#SVGID_126_)" fill="#FFD6D6" d="M1124.573,480.924l-4.473,12.493c-4.037,11.73-13.532,11.688-25.703,9.289
			l-11.822-2.33l-0.336,6.517l21.632,6.533c11.375,3.435,23.591-1.67,29.14-12.18l6.831-12.938L1124.573,480.924z"/>
	</g>
	<g clip-path="url(#SVGID_2_)">
		<defs>
			<path id="SVGID_127_" d="M1085.924,477.902l-10.052,3.661c-1.437,0.524-2.183,2.125-1.66,3.562l7.31,20.067
				c0.522,1.436,2.125,2.182,3.56,1.659l10.053-3.661c1.437-0.523,2.183-2.125,1.659-3.56l-7.308-20.068
				c-0.41-1.125-1.483-1.827-2.618-1.827C1086.553,477.736,1086.234,477.79,1085.924,477.902"/>
		</defs>
		<clipPath id="SVGID_128_">
			<use xlink:href="#SVGID_127_"  overflow="visible"/>
		</clipPath>
		
			<linearGradient id="SVGID_129_" gradientUnits="userSpaceOnUse" x1="0" y1="743.2661" x2="1" y2="743.2661" gradientTransform="matrix(14.1954 23.659 23.659 -14.1954 -16500.9453 11041.0039)">
			<stop  offset="0" style="stop-color:#5C5E60"/>
			<stop  offset="1" style="stop-color:#9FA1A4"/>
		</linearGradient>
		<polygon clip-path="url(#SVGID_128_)" fill="url(#SVGID_129_)" points="1091.063,467.312 1110.392,499.528 1079.943,517.796 
			1060.614,485.581 		"/>
	</g>
	<g clip-path="url(#SVGID_2_)">
		<defs>
			<rect id="SVGID_130_" width="1634.37" height="743.268"/>
		</defs>
		<clipPath id="SVGID_131_">
			<use xlink:href="#SVGID_130_"  overflow="visible"/>
		</clipPath>
		
			<rect x="1079.562" y="482.369" transform="matrix(0.9396 -0.3423 0.3423 0.9396 -102.9475 401.3007)" clip-path="url(#SVGID_131_)" fill="#C9C9C9" width="12.049" height="19.953"/>
		<path clip-path="url(#SVGID_131_)" fill="#FFD6D6" d="M1080.95,504.87L1080.95,504.87c-1.038,0.38-2.196-0.16-2.575-1.198
			l-2.396-6.578c-0.378-1.038,0.162-2.198,1.2-2.576c1.039-0.377,2.197,0.163,2.576,1.201l2.395,6.578
			C1082.528,503.334,1081.988,504.492,1080.95,504.87"/>
	</g>
	<g clip-path="url(#SVGID_2_)">
		<defs>
			<path id="SVGID_132_" d="M1137.597,527.424c0.07,5.476-5.893,46.567-4.288,46.611c18.498,4.667,30.247,3.056,51.322,0
				c1.332-0.213-2.295-48.831-2.295-48.831c-15.222,2.197-30.158,2.228-44.77-0.192L1137.597,527.424z"/>
		</defs>
		<clipPath id="SVGID_133_">
			<use xlink:href="#SVGID_132_"  overflow="visible"/>
		</clipPath>
		
			<linearGradient id="SVGID_134_" gradientUnits="userSpaceOnUse" x1="0" y1="743.2642" x2="1" y2="743.2642" gradientTransform="matrix(0 35.9554 35.9554 0 -25565.5684 542.5806)">
			<stop  offset="0" style="stop-color:#5C5E60"/>
			<stop  offset="1" style="stop-color:#9FA1A4"/>
		</linearGradient>
		<rect x="1131.704" y="525.012" clip-path="url(#SVGID_133_)" fill="url(#SVGID_134_)" width="54.259" height="53.69"/>
	</g>
	<g clip-path="url(#SVGID_2_)">
		<defs>
			<rect id="SVGID_135_" width="1634.37" height="743.268"/>
		</defs>
		<clipPath id="SVGID_136_">
			<use xlink:href="#SVGID_135_"  overflow="visible"/>
		</clipPath>
		<path clip-path="url(#SVGID_136_)" fill="#FFD6D6" d="M1167.219,449.452c0,2.598-1.595,4.701-3.562,4.701
			c-1.966,0-3.561-2.104-3.561-4.701s1.595-4.702,3.561-4.702C1165.624,444.75,1167.219,446.854,1167.219,449.452"/>
		<path clip-path="url(#SVGID_136_)" fill="#FFD6D6" d="M1181.056,488.265l12.916,16.093c1.826,2.275,2.769,5.136,2.65,8.052
			l-1.078,26.764h5.46l4.672-32.521c0.375-2.611-0.113-5.272-1.392-7.578l-12.511-22.576L1181.056,488.265z"/>
		<path clip-path="url(#SVGID_136_)" fill="#FFD6D6" d="M1199.979,545.887L1199.979,545.887c-2.385,0-4.337-1.95-4.337-4.337v-6.944
			c0-2.386,1.952-4.337,4.337-4.337c2.387,0,4.338,1.951,4.338,4.337v6.944C1204.316,543.937,1202.365,545.887,1199.979,545.887"/>
	</g>
	<g clip-path="url(#SVGID_2_)">
		<defs>
			<path id="SVGID_137_" d="M1119.98,492.601c-0.339,0.957,0.159,2.01,1.114,2.356l12.369,4.487
				c0.864,0.315,1.828-0.055,2.263-0.865l6.27-11.676l-16.572-9.763L1119.98,492.601z"/>
		</defs>
		<clipPath id="SVGID_138_">
			<use xlink:href="#SVGID_137_"  overflow="visible"/>
		</clipPath>
		
			<linearGradient id="SVGID_139_" gradientUnits="userSpaceOnUse" x1="0" y1="743.2651" x2="1" y2="743.2651" gradientTransform="matrix(0 45.6332 45.6332 0 -32786.7305 489.2056)">
			<stop  offset="0" style="stop-color:#DCDFFB"/>
			<stop  offset="1" style="stop-color:#F3F3FA"/>
		</linearGradient>
		<rect x="1119.642" y="477.141" clip-path="url(#SVGID_138_)" fill="url(#SVGID_139_)" width="22.354" height="22.619"/>
	</g>
	<g clip-path="url(#SVGID_2_)">
		<defs>
			<path id="SVGID_140_" d="M1180.031,479.356l-1.826,6.118l8.464,10.469c0.499,0.616,1.405,0.71,2.019,0.207l9.948-8.148
				c0.554-0.454,0.688-1.247,0.312-1.857l-6.618-10.742L1180.031,479.356z"/>
		</defs>
		<clipPath id="SVGID_141_">
			<use xlink:href="#SVGID_140_"  overflow="visible"/>
		</clipPath>
		
			<linearGradient id="SVGID_142_" gradientUnits="userSpaceOnUse" x1="0" y1="743.269" x2="1" y2="743.269" gradientTransform="matrix(0 45.6332 45.6332 0 -32728.9805 489.2056)">
			<stop  offset="0" style="stop-color:#DCDFFB"/>
			<stop  offset="1" style="stop-color:#F3F3FA"/>
		</linearGradient>
		<rect x="1178.205" y="475.402" clip-path="url(#SVGID_141_)" fill="url(#SVGID_142_)" width="21.118" height="21.251"/>
	</g>
	<g clip-path="url(#SVGID_2_)">
		<defs>
			<rect id="SVGID_143_" width="1634.37" height="743.268"/>
		</defs>
		<clipPath id="SVGID_144_">
			<use xlink:href="#SVGID_143_"  overflow="visible"/>
		</clipPath>
		<path clip-path="url(#SVGID_144_)" fill="#450606" d="M1196.067,628.096l3.081-6.369l5.217,1.228
			c0.938,0.221,1.824,0.808,2.214,1.597c0.283,0.577,0.329,1.209,0.063,1.757l-7.688,15.896c-0.756,1.563-5.936,0.52-4.896-5.129
			C1194.06,637.076,1195.092,630.114,1196.067,628.096"/>
	</g>
	<g clip-path="url(#SVGID_2_)">
		<defs>
			<path id="SVGID_145_" d="M506.017,652.375l-12.916,0.386c-3.245,0.098-6.533,0.202-9.646,1.105
				c-3.114,0.905-6.085,2.719-7.672,5.5c-1.157,2.028-1.497,4.399-1.711,6.714c-0.196,2.138-0.301,4.281-0.317,6.427
				c-0.02,2.841,2.555,5.002,5.356,4.531l3.201-0.536c2.853-0.478,5.432,1.764,5.348,4.655c-0.242,8.357-0.627,24.271-0.415,34.922
				c0.047,2.396,1.921,4.345,4.311,4.492c4.02,0.246,8.65,0.365,12.634,0.355v0.001c4.805,0.147,16.411-0.07,23.73-0.476
				c2.402-0.134,4.289-2.099,4.33-4.504c0.197-11.588-0.358-30.254-0.651-38.919c-0.086-2.579,1.967-4.721,4.547-4.744l8.136-0.073
				c0.267,1.76,0.213-2.199-0.148-6.132c-0.213-2.314-0.553-4.686-1.71-6.714c-1.587-2.781-4.559-4.595-7.672-5.5
				c-3.114-0.903-6.402-1.008-9.647-1.105c-4.307-0.128-14.403-0.257-18.824-0.386c-0.044-0.003-0.088-0.003-0.132-0.003
				C506.106,652.372,506.062,652.372,506.017,652.375"/>
		</defs>
		<clipPath id="SVGID_146_">
			<use xlink:href="#SVGID_145_"  overflow="visible"/>
		</clipPath>
		
			<linearGradient id="SVGID_147_" gradientUnits="userSpaceOnUse" x1="0" y1="743.2681" x2="1" y2="743.2681" gradientTransform="matrix(0 41.7567 41.7567 0 -30527.3555 675.9868)">
			<stop  offset="0" style="stop-color:#DCDFFB"/>
			<stop  offset="1" style="stop-color:#F3F3FA"/>
		</linearGradient>
		<rect x="473.735" y="652.372" clip-path="url(#SVGID_146_)" fill="url(#SVGID_147_)" width="70.814" height="68.703"/>
	</g>
	<g clip-path="url(#SVGID_2_)">
		<defs>
			<path id="SVGID_148_" d="M527.845,676.015l1.208,44.226l0.042-0.002c1.656-0.052,2.964-1.42,2.942-3.074l-0.604-44.837
				C529.412,672.328,527.79,673.995,527.845,676.015"/>
		</defs>
		<clipPath id="SVGID_149_">
			<use xlink:href="#SVGID_148_"  overflow="visible"/>
		</clipPath>
		
			<linearGradient id="SVGID_150_" gradientUnits="userSpaceOnUse" x1="0" y1="743.2681" x2="1" y2="743.2681" gradientTransform="matrix(4.1938 0 0 -4.1938 527.8438 3813.4314)">
			<stop  offset="0" style="stop-color:#DCDFFB"/>
			<stop  offset="1" style="stop-color:#F3F3FA"/>
		</linearGradient>
		<rect x="527.79" y="672.328" clip-path="url(#SVGID_149_)" fill="url(#SVGID_150_)" width="4.269" height="47.913"/>
	</g>
	<g clip-path="url(#SVGID_2_)">
		<defs>
			<rect id="SVGID_151_" width="1634.37" height="743.268"/>
		</defs>
		<clipPath id="SVGID_152_">
			<use xlink:href="#SVGID_151_"  overflow="visible"/>
		</clipPath>
		<path clip-path="url(#SVGID_152_)" fill="#FFD6D6" d="M501.28,652.603c0,0,0.861,9.815,6.259,9.815
			c5.399,0,8.651-9.815,8.651-9.815l-7.455-1.964L501.28,652.603z"/>
		<path clip-path="url(#SVGID_152_)" fill="#FFD6D6" d="M474.139,664.93l-6.927,13.53c-0.947,1.85-3.411,2.255-4.901,0.808
			l-13.45-13.074l-7.771,1.925l17.516,23.458c4.44,5.947,13.397,5.811,17.655-0.267l13.265-18.939L474.139,664.93z"/>
	</g>
	<g clip-path="url(#SVGID_2_)">
		<defs>
			<path id="SVGID_153_" d="M445.033,639.199l-10.465,2.594c-1.495,0.37-2.415,1.896-2.045,3.39l5.177,20.893
				c0.37,1.494,1.895,2.414,3.39,2.044l10.465-2.594c1.495-0.37,2.415-1.895,2.044-3.389l-5.176-20.894
				c-0.315-1.27-1.465-2.126-2.721-2.126C445.481,639.117,445.256,639.144,445.033,639.199"/>
		</defs>
		<clipPath id="SVGID_154_">
			<use xlink:href="#SVGID_153_"  overflow="visible"/>
		</clipPath>
		
			<linearGradient id="SVGID_155_" gradientUnits="userSpaceOnUse" x1="0" y1="743.2671" x2="1" y2="743.2671" gradientTransform="matrix(6.6667 32.3333 32.3333 -6.6667 -23591.4297 5598.3418)">
			<stop  offset="0" style="stop-color:#5C5E60"/>
			<stop  offset="1" style="stop-color:#9FA1A4"/>
		</linearGradient>
		<polygon clip-path="url(#SVGID_154_)" fill="url(#SVGID_155_)" points="453.08,634.802 459.779,667.292 433.042,672.804 
			426.344,640.315 		"/>
	</g>
	<g clip-path="url(#SVGID_2_)">
		<defs>
			<rect id="SVGID_156_" width="1634.37" height="743.268"/>
		</defs>
		<clipPath id="SVGID_157_">
			<use xlink:href="#SVGID_156_"  overflow="visible"/>
		</clipPath>
		<path clip-path="url(#SVGID_157_)" fill="#FFD6D6" d="M437.163,665.691L437.163,665.691c-1.081,0.269-2.185-0.396-2.452-1.479
			l-1.697-6.847c-0.268-1.081,0.398-2.186,1.479-2.452c1.08-0.269,2.184,0.396,2.451,1.478l1.697,6.849
			C438.909,664.321,438.244,665.423,437.163,665.691"/>
		<path clip-path="url(#SVGID_157_)" fill="#450606" d="M502.424,638.866L502.424,638.866c-3.993,1.743-8.687-0.097-10.431-4.09
			l-1.824-4.178c-1.745-3.993,0.096-8.687,4.089-10.43c3.993-1.744,8.687,0.095,10.431,4.089l1.824,4.177
			C508.257,632.428,506.417,637.123,502.424,638.866"/>
		<path clip-path="url(#SVGID_157_)" fill="#FFD6D6" d="M515.12,631.79c-0.75,0.232-3.833,0.375-4.583,0.606v-4.014
			c0-4.16-3.373-7.533-7.533-7.533h-2.511c-4.162,0-7.535,3.373-7.535,7.533v9.425c0,4.161,3.373,7.534,7.535,7.534h0.001
			c2.037-0.024,3.706,1.611,3.731,3.648c0.036,2.754-2.149,3.61-2.695,3.933l14.03,0.253
			C515.119,645.259,514.768,640.245,515.12,631.79"/>
		<path clip-path="url(#SVGID_157_)" fill="#450606" d="M515.05,642.942c0,0,8.542-11.675,3.994-22.166
			c-4.549-10.489-23.665-9.754-24.598,0c-0.933,9.756,12.943,6.749,12.943,6.749s5.795,1.544,7.014,7.405L515.05,642.942z"/>
		<path clip-path="url(#SVGID_157_)" fill="#FFD6D6" d="M509.607,633.144c0,2.169,1.593,3.928,3.559,3.928
			c1.965,0,3.559-1.759,3.559-3.928c0-2.168-1.594-3.926-3.559-3.926C511.2,629.218,509.607,630.976,509.607,633.144"/>
		<path clip-path="url(#SVGID_157_)" fill="#450606" d="M502.151,613.554h-10.337c-1.59,0-2.788,1.479-2.423,3.025
			c0.925,3.936,3.602,10.406,11.242,11.238C508.697,628.697,502.151,613.554,502.151,613.554"/>
		<path clip-path="url(#SVGID_157_)" fill="#450606" d="M510.989,635.207L510.989,635.207c-0.76,0-1.381-0.621-1.381-1.381v-4.919
			c0-0.76,0.621-1.382,1.381-1.382c0.76,0,1.381,0.622,1.381,1.382v4.919C512.37,634.585,511.749,635.207,510.989,635.207"/>
		
			<rect x="437.251" y="643.491" transform="matrix(0.9697 -0.2444 0.2444 0.9697 -146.2769 128.1608)" clip-path="url(#SVGID_157_)" fill="#C9C9C9" width="12.144" height="20.108"/>
	</g>
	<g clip-path="url(#SVGID_2_)">
		<defs>
			<polygon id="SVGID_158_" points="468.167,673.565 482.982,684.288 493.933,670.436 476.215,658.688 			"/>
		</defs>
		<clipPath id="SVGID_159_">
			<use xlink:href="#SVGID_158_"  overflow="visible"/>
		</clipPath>
		
			<linearGradient id="SVGID_160_" gradientUnits="userSpaceOnUse" x1="0" y1="743.2671" x2="1" y2="743.2671" gradientTransform="matrix(0 41.7567 41.7567 0 -30555.3867 675.9868)">
			<stop  offset="0" style="stop-color:#DCDFFB"/>
			<stop  offset="1" style="stop-color:#F3F3FA"/>
		</linearGradient>
		<rect x="468.167" y="658.688" clip-path="url(#SVGID_159_)" fill="url(#SVGID_160_)" width="25.766" height="25.6"/>
	</g>
	<g clip-path="url(#SVGID_2_)">
		<defs>
			<path id="SVGID_161_" d="M467.856,672.903c-0.555,0.862-0.307,2.01,0.554,2.564l13.482,8.686
				c0.861,0.556,2.008,0.308,2.564-0.554c0.555-0.861,0.306-2.01-0.556-2.565l-13.48-8.685c-0.311-0.201-0.659-0.296-1.003-0.296
				C468.807,672.053,468.21,672.353,467.856,672.903"/>
		</defs>
		<clipPath id="SVGID_162_">
			<use xlink:href="#SVGID_161_"  overflow="visible"/>
		</clipPath>
		
			<linearGradient id="SVGID_163_" gradientUnits="userSpaceOnUse" x1="0" y1="743.2612" x2="1" y2="743.2612" gradientTransform="matrix(17.1917 0 0 -17.1917 467.5625 13456.2695)">
			<stop  offset="0" style="stop-color:#DCDFFB"/>
			<stop  offset="1" style="stop-color:#F3F3FA"/>
		</linearGradient>
		<rect x="467.301" y="672.053" clip-path="url(#SVGID_162_)" fill="url(#SVGID_163_)" width="17.71" height="12.655"/>
	</g>
	<g clip-path="url(#SVGID_2_)">
		<defs>
			<rect id="SVGID_164_" width="1634.37" height="743.268"/>
		</defs>
		<clipPath id="SVGID_165_">
			<use xlink:href="#SVGID_164_"  overflow="visible"/>
		</clipPath>
		<path clip-path="url(#SVGID_165_)" fill="#814D4D" d="M468.035,740.937c-13.922-0.048-13.881-12.861,0.042-12.814l5.51,0.018
			c4.516,0.017,8.169,2.501,8.159,5.553l-0.008,2.58c-0.009,2.602-3.137,4.699-6.988,4.687L468.035,740.937z"/>
	</g>
	<g clip-path="url(#SVGID_2_)">
		<defs>
			<path id="SVGID_166_" d="M542.417,707.544L476.5,727.704l2.062,13.256c27.49-3.128,49.093-7.947,68.518-16.748
				c5.043-1.235,8.344-5.832,7.372-10.269c-0.892-4.072-4.766-6.739-9.249-6.739C544.293,707.204,543.358,707.314,542.417,707.544"
				/>
		</defs>
		<clipPath id="SVGID_167_">
			<use xlink:href="#SVGID_166_"  overflow="visible"/>
		</clipPath>
		
			<linearGradient id="SVGID_168_" gradientUnits="userSpaceOnUse" x1="0" y1="743.2603" x2="1" y2="743.2603" gradientTransform="matrix(-62 22.75 22.75 62 -16368.7852 -45366.9766)">
			<stop  offset="0" style="stop-color:#5C5E60"/>
			<stop  offset="1" style="stop-color:#9FA1A4"/>
		</linearGradient>
		<polygon clip-path="url(#SVGID_167_)" fill="url(#SVGID_168_)" points="566.34,736.954 485.865,766.483 465.584,711.209 
			546.059,681.68 		"/>
	</g>
	<g clip-path="url(#SVGID_2_)">
		<defs>
			<rect id="SVGID_169_" width="1634.37" height="743.268"/>
		</defs>
		<clipPath id="SVGID_170_">
			<use xlink:href="#SVGID_169_"  overflow="visible"/>
		</clipPath>
		<path clip-path="url(#SVGID_170_)" fill="#814D4D" d="M542.413,730.449c13.923,0.067,13.859,12.888-0.063,12.818l-5.511-0.025
			c-4.516-0.022-8.164-2.516-8.149-5.566l0.013-2.581c0.013-2.603,3.145-4.698,6.996-4.678L542.413,730.449z"/>
	</g>
	<g clip-path="url(#SVGID_2_)">
		<defs>
			<path id="SVGID_171_" d="M461.278,712.192c-1.211,4.374,1.856,9.105,6.851,10.566c19.018,9.65,36.497,15.891,63.908,20.259
				l2.588-13.188l-60.933-23.465c-1.107-0.323-2.216-0.478-3.292-0.478C466.113,705.886,462.348,708.329,461.278,712.192"/>
		</defs>
		<clipPath id="SVGID_172_">
			<use xlink:href="#SVGID_171_"  overflow="visible"/>
		</clipPath>
		
			<linearGradient id="SVGID_173_" gradientUnits="userSpaceOnUse" x1="0" y1="743.2896" x2="1" y2="743.2896" gradientTransform="matrix(35.25 13.75 13.75 -35.25 -9727.6553 26923.5449)">
			<stop  offset="0" style="stop-color:#5C5E60"/>
			<stop  offset="1" style="stop-color:#9FA1A4"/>
		</linearGradient>
		<polygon clip-path="url(#SVGID_172_)" fill="url(#SVGID_173_)" points="469.913,680.644 547.196,710.79 524.779,768.259 
			447.496,738.114 		"/>
	</g>
	<g clip-path="url(#SVGID_2_)">
		<defs>
			<rect id="SVGID_174_" width="1634.37" height="743.268"/>
		</defs>
		<clipPath id="SVGID_175_">
			<use xlink:href="#SVGID_174_"  overflow="visible"/>
		</clipPath>
		<path clip-path="url(#SVGID_175_)" fill="#FFD6D6" d="M532.27,674.432l-2.649,18.683c-0.588,4.142-2.654,7.931-5.817,10.669
			l-18.956,16.404l3.765,4.013l25.706-18.003c3.096-2.168,5.398-5.289,6.555-8.888l3.576-14.764L532.27,674.432z"/>
		<path clip-path="url(#SVGID_175_)" fill="#FFD6D6" d="M502.972,728.078L502.972,728.078c-1.645-1.755-1.557-4.534,0.196-6.18
			l5.104-4.789c1.753-1.645,4.533-1.556,6.179,0.197c1.645,1.752,1.557,4.533-0.197,6.178l-5.103,4.789
			C507.396,729.918,504.617,729.831,502.972,728.078"/>
	</g>
	<g clip-path="url(#SVGID_2_)">
		<defs>
			<path id="SVGID_176_" d="M530.933,670.438l-0.642,12.854l16.516,0.482l0.188-6.154c0.04-1.318-0.109-2.638-0.446-3.914
				l-2.966-11.287L530.933,670.438z"/>
		</defs>
		<clipPath id="SVGID_177_">
			<use xlink:href="#SVGID_176_"  overflow="visible"/>
		</clipPath>
		
			<linearGradient id="SVGID_178_" gradientUnits="userSpaceOnUse" x1="0" y1="743.2681" x2="1" y2="743.2681" gradientTransform="matrix(0 41.7567 41.7567 0 -30497.793 675.9868)">
			<stop  offset="0" style="stop-color:#DCDFFB"/>
			<stop  offset="1" style="stop-color:#F3F3FA"/>
		</linearGradient>
		<rect x="530.291" y="662.419" clip-path="url(#SVGID_177_)" fill="url(#SVGID_178_)" width="16.744" height="21.355"/>
	</g>
	<g clip-path="url(#SVGID_2_)">
		<defs>
			<path id="SVGID_179_" d="M528.466,682.763c-0.104,1.019,0.637,1.93,1.656,2.035l15.952,1.645
				c1.019,0.106,1.931-0.635,2.035-1.655c0.105-1.018-0.635-1.93-1.654-2.034l-15.953-1.645c-0.065-0.007-0.13-0.011-0.194-0.011
				C529.37,681.099,528.565,681.809,528.466,682.763"/>
		</defs>
		<clipPath id="SVGID_180_">
			<use xlink:href="#SVGID_179_"  overflow="visible"/>
		</clipPath>
		
			<linearGradient id="SVGID_181_" gradientUnits="userSpaceOnUse" x1="0" y1="743.2661" x2="1" y2="743.2661" gradientTransform="matrix(19.6625 0 0 -19.6625 528.4531 15298.2676)">
			<stop  offset="0" style="stop-color:#DCDFFB"/>
			<stop  offset="1" style="stop-color:#F3F3FA"/>
		</linearGradient>
		<rect x="528.362" y="681.098" clip-path="url(#SVGID_180_)" fill="url(#SVGID_181_)" width="19.852" height="5.451"/>
	</g>
	<g clip-path="url(#SVGID_2_)">
		<defs>
			<rect id="SVGID_182_" width="1634.37" height="743.268"/>
		</defs>
		<clipPath id="SVGID_183_">
			<use xlink:href="#SVGID_182_"  overflow="visible"/>
		</clipPath>
		<path clip-path="url(#SVGID_183_)" fill="#814D4D" d="M1382.749,713.732l7.271-0.088l1.263,5.363
			c0.228,0.963,0.093,2.048-0.455,2.768c-0.399,0.526-0.961,0.857-1.586,0.864l-18.146,0.22c-1.783,0.021-3.199-5.221,2.473-6.854
			C1373.568,716.004,1380.446,713.759,1382.749,713.732"/>
		<path clip-path="url(#SVGID_183_)" fill="#814D4D" d="M1417.618,713.732l7.271-0.088l1.263,5.363
			c0.228,0.963,0.093,2.048-0.455,2.768c-0.399,0.526-0.961,0.857-1.586,0.864l-18.146,0.22c-1.783,0.021-3.199-5.221,2.473-6.854
			C1408.438,716.004,1415.315,713.759,1417.618,713.732"/>
	</g>
	<g clip-path="url(#SVGID_2_)">
		<defs>
			<polygon id="SVGID_184_" points="1378.233,713.644 1391.254,713.644 1403.316,595.952 1378.233,591.14 			"/>
		</defs>
		<clipPath id="SVGID_185_">
			<use xlink:href="#SVGID_184_"  overflow="visible"/>
		</clipPath>
		
			<linearGradient id="SVGID_186_" gradientUnits="userSpaceOnUse" x1="0" y1="743.2681" x2="1" y2="743.2681" gradientTransform="matrix(0 91.5228 91.5228 0 -66635.1875 638.0806)">
			<stop  offset="0" style="stop-color:#5C5E60"/>
			<stop  offset="1" style="stop-color:#9FA1A4"/>
		</linearGradient>
		<rect x="1378.233" y="591.14" clip-path="url(#SVGID_185_)" fill="url(#SVGID_186_)" width="25.083" height="122.504"/>
	</g>
	<g clip-path="url(#SVGID_2_)">
		<defs>
			<polygon id="SVGID_187_" points="1399.02,595.952 1412.48,713.644 1425.502,713.644 1422.008,593.909 			"/>
		</defs>
		<clipPath id="SVGID_188_">
			<use xlink:href="#SVGID_187_"  overflow="visible"/>
		</clipPath>
		
			<linearGradient id="SVGID_189_" gradientUnits="userSpaceOnUse" x1="0" y1="743.2681" x2="1" y2="743.2681" gradientTransform="matrix(0 91.5228 91.5228 0 -66613.6875 638.0806)">
			<stop  offset="0" style="stop-color:#5C5E60"/>
			<stop  offset="1" style="stop-color:#9FA1A4"/>
		</linearGradient>
		<rect x="1399.02" y="593.909" clip-path="url(#SVGID_188_)" fill="url(#SVGID_189_)" width="26.482" height="119.735"/>
	</g>
	<g clip-path="url(#SVGID_2_)">
		<defs>
			<path id="SVGID_190_" d="M1395.676,525.184c-4.452,0.132-8.901,0.266-13.353,0.399c-3.356,0.1-6.755,0.208-9.975,1.143
				c-3.219,0.937-6.291,2.811-7.932,5.686c-1.196,2.098-1.548,4.549-1.768,6.941c-0.202,2.21-0.313,4.427-0.327,6.646
				c-0.021,2.937,2.641,5.171,5.536,4.684l3.309-0.554c2.95-0.494,5.616,1.823,5.531,4.813c-0.251,8.64-0.648,25.092-0.431,36.105
				c0.05,2.475,1.987,4.49,4.457,4.644c4.156,0.254,8.943,0.378,13.063,0.367v0.002c4.967,0.152,16.968-0.073,24.533-0.493
				c2.483-0.138,4.434-2.17,4.477-4.657c0.205-11.979-0.37-31.276-0.673-40.236c-0.09-2.665,2.033-4.879,4.702-4.904l8.41-0.077
				c0.276,1.82,0.222-2.273-0.153-6.339c-0.219-2.393-0.572-4.844-1.769-6.941c-1.641-2.875-4.711-4.749-7.931-5.686
				c-3.219-0.935-6.619-1.043-9.975-1.143c-4.453-0.134-14.89-0.268-19.46-0.399c-0.046-0.002-0.092-0.002-0.137-0.002
				C1395.767,525.182,1395.722,525.182,1395.676,525.184"/>
		</defs>
		<clipPath id="SVGID_191_">
			<use xlink:href="#SVGID_190_"  overflow="visible"/>
		</clipPath>
		
			<linearGradient id="SVGID_192_" gradientUnits="userSpaceOnUse" x1="0" y1="743.2681" x2="1" y2="743.2681" gradientTransform="matrix(0 83.9836 83.9836 0 -61023.4609 535.8306)">
			<stop  offset="0" style="stop-color:#8647E1"/>
			<stop  offset="1" style="stop-color:#B78FED"/>
		</linearGradient>
		<rect x="1362.301" y="525.182" clip-path="url(#SVGID_191_)" fill="url(#SVGID_192_)" width="73.212" height="71.03"/>
	</g>
	<g clip-path="url(#SVGID_2_)">
		<defs>
			<rect id="SVGID_193_" width="1634.37" height="743.268"/>
		</defs>
		<clipPath id="SVGID_194_">
			<use xlink:href="#SVGID_193_"  overflow="visible"/>
		</clipPath>
		<path clip-path="url(#SVGID_194_)" fill="#FFD6D6" d="M1390.777,525.419c0,0,3.028,4.061,8.609,4.061
			c5.582,0,6.806-4.061,6.806-4.061l-7.708-2.028L1390.777,525.419z"/>
		<path clip-path="url(#SVGID_194_)" fill="#FFD6D6" d="M1420.573,544.741l7.917,17.829c1.756,3.953,3.09,8.996,3.09,8.996
			l-16.798,5.538l-0.529,7.662l23.062-4.579c4.113-0.816,6.755-4.848,5.861-8.946c-0.937-4.287-2.025-9.201-2.521-11.16
			l-6.151-24.339L1420.573,544.741z"/>
		<path clip-path="url(#SVGID_194_)" fill="#FFD6D6" d="M1362.718,538.166l-7.162,13.987c-0.979,1.912-3.525,2.332-5.066,0.835
			l-13.906-13.517l-8.034,1.991l18.109,24.252c4.591,6.147,13.851,6.008,18.253-0.277l13.715-19.579L1362.718,538.166z"/>
		<path clip-path="url(#SVGID_194_)" fill="#FFD6D6" d="M1321.875,538.857L1321.875,538.857c0.621-2.407,3.099-3.868,5.505-3.249
			l7.008,1.808c2.405,0.621,3.867,3.097,3.247,5.504c-0.62,2.408-3.099,3.869-5.505,3.249l-7.007-1.807
			C1322.717,543.741,1321.255,541.263,1321.875,538.857"/>
		<path clip-path="url(#SVGID_194_)" fill="#450606" d="M1393.644,510.703L1393.644,510.703c-4.307,1.323-8.913-1.115-10.235-5.422
			l-1.387-4.505c-1.323-4.305,1.116-8.912,5.422-10.235c4.306-1.324,8.912,1.114,10.236,5.422l1.385,4.505
			C1400.389,504.772,1397.95,509.379,1393.644,510.703"/>
		<path clip-path="url(#SVGID_194_)" fill="#FFD6D6" d="M1407.513,504.919c-0.798,0.151-3.98-0.063-4.778,0.088l0.47-4.123
			c0.487-4.275-2.584-8.135-6.857-8.621l-2.58-0.294c-4.273-0.487-8.134,2.583-8.62,6.856l-1.104,9.683
			c-0.487,4.272,2.583,8.133,6.858,8.619h0.001c2.095,0.215,3.617,2.091,3.405,4.188c-0.286,2.832-2.63,3.455-3.229,3.721
			l14.382,1.904C1405.936,518.756,1406.16,513.566,1407.513,504.919"/>
		<path clip-path="url(#SVGID_194_)" fill="#450606" d="M1406.136,516.37c0,0,10.142-10.994,6.696-22.304
			c-3.444-11.308-23.167-12.79-25.266-2.879c-2.101,9.911,12.505,8.449,12.505,8.449s5.771,2.262,6.338,8.427L1406.136,516.37z"/>
		<path clip-path="url(#SVGID_194_)" fill="#FFD6D6" d="M1401.691,505.667c-0.254,2.229,1.178,4.221,3.196,4.449
			c2.019,0.231,3.862-1.388,4.116-3.616c0.253-2.228-1.178-4.22-3.197-4.449C1403.789,501.82,1401.945,503.439,1401.691,505.667"/>
		<path clip-path="url(#SVGID_194_)" fill="#450606" d="M1402.869,507.948L1402.869,507.948c-0.779-0.09-1.347-0.802-1.258-1.581
			l0.576-5.054c0.089-0.779,0.8-1.345,1.58-1.257c0.781,0.089,1.347,0.8,1.258,1.58l-0.576,5.053
			C1404.36,507.469,1403.649,508.037,1402.869,507.948"/>
	</g>
	<g clip-path="url(#SVGID_2_)">
		<defs>
			<polygon id="SVGID_195_" points="1417.213,541.972 1428.023,565.772 1441.201,560.388 1435.589,536.48 1433.072,532.502 			"/>
		</defs>
		<clipPath id="SVGID_196_">
			<use xlink:href="#SVGID_195_"  overflow="visible"/>
		</clipPath>
		
			<linearGradient id="SVGID_197_" gradientUnits="userSpaceOnUse" x1="0" y1="743.2681" x2="1" y2="743.2681" gradientTransform="matrix(0 83.9836 83.9836 0 -60993.1484 535.8306)">
			<stop  offset="0" style="stop-color:#8647E1"/>
			<stop  offset="1" style="stop-color:#B78FED"/>
		</linearGradient>
		<rect x="1417.213" y="532.502" clip-path="url(#SVGID_196_)" fill="url(#SVGID_197_)" width="23.988" height="33.27"/>
	</g>
	<g clip-path="url(#SVGID_2_)">
		<defs>
			<path id="SVGID_198_" d="M1353.587,552.554l3.525,18.027c7.895,0.508,17.01-13.424,26.069-26.724l-18.317-12.147
				L1353.587,552.554z"/>
		</defs>
		<clipPath id="SVGID_199_">
			<use xlink:href="#SVGID_198_"  overflow="visible"/>
		</clipPath>
		
			<linearGradient id="SVGID_200_" gradientUnits="userSpaceOnUse" x1="0" y1="743.2681" x2="1" y2="743.2681" gradientTransform="matrix(0 83.9836 83.9836 0 -61053.9609 535.8306)">
			<stop  offset="0" style="stop-color:#8647E1"/>
			<stop  offset="1" style="stop-color:#B78FED"/>
		</linearGradient>
		<rect x="1353.587" y="531.71" clip-path="url(#SVGID_199_)" fill="url(#SVGID_200_)" width="29.595" height="39.379"/>
	</g>
	<g clip-path="url(#SVGID_2_)">
		<defs>
			<rect id="SVGID_201_" width="1634.37" height="743.268"/>
		</defs>
		<clipPath id="SVGID_202_">
			<use xlink:href="#SVGID_201_"  overflow="visible"/>
		</clipPath>
		<path clip-path="url(#SVGID_202_)" fill="#FFFFFF" d="M1354.607,570.103l-3.365-16.239c-0.216-1.037,0.45-2.053,1.487-2.269
			c1.037-0.215,2.052,0.452,2.268,1.489l3.365,16.24c0.216,1.037-0.45,2.051-1.487,2.266
			C1355.837,571.805,1354.822,571.139,1354.607,570.103"/>
		<path clip-path="url(#SVGID_202_)" fill="#FFFFFF" d="M1441.651,564.096l-12.267,4.373c-0.998,0.356-2.094-0.165-2.45-1.162
			s0.164-2.096,1.162-2.451l12.267-4.372c0.998-0.356,2.096,0.164,2.451,1.162C1443.171,562.644,1442.649,563.742,1441.651,564.096"
			/>
		<polygon clip-path="url(#SVGID_202_)" fill="#FFFFFF" points="1393.822,521.686 1386.291,525.464 1393.857,535.569 
			1399.387,529.48 		"/>
		<polygon clip-path="url(#SVGID_202_)" fill="#FFFFFF" points="1405.825,520.719 1412.091,525.464 1404.521,535.569 
			1398.992,529.48 		"/>
		<path clip-path="url(#SVGID_202_)" fill="#C7C7FF" d="M1406.477,588.811h-11.759c-0.502,0-0.912-0.41-0.912-0.912v-17.606
			c0-0.502,0.41-0.913,0.912-0.913h11.76c0.502,0,0.912,0.411,0.912,0.913v17.606
			C1407.39,588.401,1406.979,588.811,1406.477,588.811"/>
		<path clip-path="url(#SVGID_202_)" fill="#C7C7FF" d="M1407.2,573.659h-4.628c-2.106,0-3.953,1.159-4.942,2.869
			c0.312-0.078,0.636-0.124,0.971-0.124h7.955c2.227,0,4.049,1.822,4.049,4.05c0,2.227-1.822,4.048-4.049,4.048h-7.955
			c-0.233,0-0.461-0.025-0.685-0.063c1.038,1.461,2.739,2.421,4.656,2.421h4.627c3.144,0,5.713-2.569,5.713-5.712v-1.775
			C1412.912,576.229,1410.343,573.659,1407.2,573.659"/>
		<path clip-path="url(#SVGID_202_)" fill="#FFD6D6" d="M1408.15,581.349l-0.02-2.094c-0.016-1.91,1.532-3.485,3.441-3.504
			l2.6-0.022c1.909-0.019,3.486,1.53,3.502,3.44l0.02,2.093c0.018,1.91-1.53,3.486-3.44,3.505l-2.599,0.022
			C1409.745,584.808,1408.168,583.258,1408.15,581.349"/>
		<rect x="1401.189" y="569.379" clip-path="url(#SVGID_202_)" fill="#A3A3D1" width="4.082" height="19.432"/>
	</g>
</g>
</svg>
