<?xml version="1.0" encoding="utf-8"?>
<!-- Generator: Adobe Illustrator 25.2.1, SVG Export Plug-In . SVG Version: 6.00 Build 0)  -->
<svg version="1.1" id="icons" xmlns="http://www.w3.org/2000/svg" width="50" height="50" xmlns:xlink="http://www.w3.org/1999/xlink" x="0px" y="0px"
	 viewBox="0 0 46.91 41.5" style="enable-background:new 0 0 46.91 41.5;" xml:space="preserve">
<style type="text/css">
	.st0{fill:#FFFFFF;stroke:#703ED9;stroke-width:1.5;stroke-miterlimit:10;}
	.st1{fill:#FFFFFF;stroke:#703ED9;stroke-width:1.5;stroke-linejoin:round;stroke-miterlimit:10;}
</style>
<g>
	<path class="st0" d="M39.63,8.98c-3.64-4.99-9.53-8.23-16.17-8.23c-11.05,0-20,8.95-20,20v1h-2l5,7l4-7h-2v-1c0-8.28,6.72-15,15-15
		"/>
	<path class="st0" d="M7.28,32.52c3.64,4.99,9.53,8.23,16.17,8.23c11.05,0,20-8.95,20-20v-1h2l-5-7l-4,7h2v1c0,8.28-6.72,15-15,15"
		/>
	<path class="st1" d="M30.48,20.73c0-0.56-0.07-1.09-0.19-1.61l1.96-1.13l-2-3.46l-1.96,1.13c-0.79-0.75-1.76-1.32-2.83-1.64v-2.26
		h-4v2.28c-1.07,0.32-2.02,0.89-2.8,1.64l-1.99-1.15l-2,3.46l2,1.16c-0.12,0.51-0.19,1.04-0.19,1.59c0,0.56,0.07,1.1,0.2,1.63
		l-2.02,1.16l2,3.46l2.02-1.17c0.78,0.73,1.72,1.29,2.77,1.61v2.32h4v-2.31c1.06-0.31,2.02-0.87,2.8-1.61l1.99,1.15l2-3.46
		l-1.98-1.14C30.4,21.85,30.48,21.3,30.48,20.73z"/>
	<circle class="st0" cx="23.46" cy="20.75" r="3"/>
</g>
</svg>
