<?xml version="1.0" encoding="utf-8"?>
<!-- Generator: Adobe Illustrator 25.2.1, SVG Export Plug-In . SVG Version: 6.00 Build 0)  -->
<svg version="1.1" id="icons" xmlns="http://www.w3.org/2000/svg" width="50" height="50" xmlns:xlink="http://www.w3.org/1999/xlink" x="0px" y="0px"
	 viewBox="0 0 49.19 45" style="enable-background:new 0 0 49.19 45;" xml:space="preserve">
<style type="text/css">
	.st0{fill:#703ED9;}
</style>
<g>
	<path class="st0" d="M33.55,19.54H18.42c-0.52,0-0.95-0.43-0.95-0.95c0-0.52,0.43-0.95,0.95-0.95h15.13c0.52,0,0.95,0.43,0.95,0.95
		C34.5,19.12,34.08,19.54,33.55,19.54z"/>
	<path class="st0" d="M33.55,11.78H12.9c-0.52,0-0.95-0.43-0.95-0.95c0-0.52,0.43-0.95,0.95-0.95h20.66c0.52,0,0.95,0.43,0.95,0.95
		C34.5,11.36,34.08,11.78,33.55,11.78z"/>
	<path class="st0" d="M33.55,27.3H18.42c-0.52,0-0.95-0.43-0.95-0.95c0-0.52,0.43-0.95,0.95-0.95h15.13c0.52,0,0.95,0.43,0.95,0.95
		C34.5,26.88,34.08,27.3,33.55,27.3z"/>
	<path class="st0" d="M33.55,35.12H12.9c-0.52,0-0.95-0.43-0.95-0.95c0-0.52,0.43-0.95,0.95-0.95h20.66c0.52,0,0.95,0.43,0.95,0.95
		C34.5,34.69,34.08,35.12,33.55,35.12z"/>
	<path class="st0" d="M34.22,45c-3.08,0-5.58-2.53-5.58-5.64c0-0.52,0.43-0.95,0.95-0.95c0.52,0,0.95,0.43,0.95,0.95
		c0,2.06,1.65,3.74,3.68,3.74c2.03,0,3.74-1.71,3.74-3.74c0-0.52,0.43-0.95,0.95-0.95c0.52,0,0.95,0.43,0.95,0.95
		C39.86,42.47,37.33,45,34.22,45z"/>
	<path class="st0" d="M6.42,45c-3.08,0-5.58-2.53-5.58-5.64c0-0.52,0.43-0.95,0.95-0.95c0.52,0,0.95,0.43,0.95,0.95
		c0,2.06,1.65,3.74,3.69,3.74c0.52,0,0.95,0.43,0.95,0.95C7.37,44.57,6.94,45,6.42,45z"/>
	<path class="st0" d="M29.59,40.31H1.79c-0.52,0-0.95-0.43-0.95-0.95c0-0.52,0.43-0.95,0.95-0.95h27.8c0.52,0,0.95,0.43,0.95,0.95
		C30.54,39.88,30.11,40.31,29.59,40.31z"/>
	<path class="st0" d="M34.22,45H6.42c-0.52,0-0.95-0.43-0.95-0.95c0-0.52,0.43-0.95,0.95-0.95h27.8c0.52,0,0.95,0.43,0.95,0.95
		C35.17,44.57,34.75,45,34.22,45z"/>
	<path class="st0" d="M38.91,40.31c-0.52,0-0.95-0.43-0.95-0.95V5.64c0-0.52,0.43-0.95,0.95-0.95c0.52,0,0.95,0.43,0.95,0.95v33.72
		C39.86,39.88,39.44,40.31,38.91,40.31z M7.59,40.31c-0.52,0-0.95-0.43-0.95-0.95v-5.92c0-0.52,0.43-0.95,0.95-0.95
		c0.52,0,0.95,0.43,0.95,0.95v5.92C8.54,39.88,8.12,40.31,7.59,40.31z M7.59,12.51c-0.52,0-0.95-0.43-0.95-0.95V5.64
		c0-0.52,0.43-0.95,0.95-0.95c0.52,0,0.95,0.43,0.95,0.95v5.92C8.54,12.08,8.12,12.51,7.59,12.51z"/>
	<path class="st0" d="M7.59,6.59c-0.52,0-0.95-0.43-0.95-0.95C6.64,2.53,9.15,0,12.23,0c0.52,0,0.95,0.43,0.95,0.95
		c0,0.52-0.43,0.95-0.95,0.95c-2.03,0-3.68,1.68-3.68,3.74C8.54,6.16,8.12,6.59,7.59,6.59z"/>
	<path class="st0" d="M48.24,6.59c-0.52,0-0.95-0.43-0.95-0.95c0-2.03-1.71-3.74-3.74-3.74c-2.03,0-3.69,1.68-3.69,3.74
		c0,0.52-0.43,0.95-0.95,0.95c-0.52,0-0.95-0.43-0.95-0.95c0-3.11,2.51-5.64,5.58-5.64c3.11,0,5.64,2.53,5.64,5.64
		C49.19,6.16,48.76,6.59,48.24,6.59z"/>
	<path class="st0" d="M48.24,6.59h-9.32c-0.52,0-0.95-0.43-0.95-0.95c0-0.52,0.43-0.95,0.95-0.95h9.32c0.52,0,0.95,0.43,0.95,0.95
		C49.19,6.16,48.76,6.59,48.24,6.59z"/>
	<path class="st0" d="M43.55,1.9H12.23c-0.52,0-0.95-0.43-0.95-0.95C11.28,0.43,11.7,0,12.23,0h31.32c0.52,0,0.95,0.43,0.95,0.95
		C44.5,1.47,44.07,1.9,43.55,1.9z"/>
	<path class="st0" d="M3.85,30.32c-0.17,0-0.34-0.05-0.5-0.14c-0.45-0.28-0.58-0.86-0.3-1.31l8.54-13.74
		c0.28-0.45,0.86-0.58,1.31-0.3s0.58,0.86,0.3,1.31L4.66,29.87C4.48,30.16,4.17,30.32,3.85,30.32z"/>
	<path class="st0" d="M3.29,21.72C1.48,21.72,0,20.04,0,17.98c0-2.09,1.48-3.8,3.29-3.8c1.82,0,3.24,1.67,3.24,3.8
		C6.53,20.08,5.11,21.72,3.29,21.72z M3.29,16.08c-0.76,0-1.4,0.87-1.4,1.9c0,1.02,0.63,1.84,1.4,1.84c0.75,0,1.34-0.81,1.34-1.84
		C4.63,16.95,4.02,16.08,3.29,16.08z"/>
	<path class="st0" d="M12.95,30.76c-1.82,0-3.29-1.68-3.29-3.74c0-2.09,1.48-3.8,3.29-3.8c1.82,0,3.29,1.7,3.29,3.8
		C16.25,29.08,14.77,30.76,12.95,30.76z M12.95,25.12c-0.76,0-1.4,0.87-1.4,1.9c0,1.02,0.63,1.84,1.4,1.84c0.77,0,1.4-0.83,1.4-1.84
		C14.35,25.99,13.71,25.12,12.95,25.12z"/>
</g>
</svg>
