<?xml version="1.0" encoding="utf-8"?>
<!-- Generator: Adobe Illustrator 25.2.1, SVG Export Plug-In . SVG Version: 6.00 Build 0)  -->
<svg version="1.1" id="icons" xmlns="http://www.w3.org/2000/svg" width="50" height="50" xmlns:xlink="http://www.w3.org/1999/xlink" x="0px" y="0px"
	 viewBox="0 0 36.12 41.36" style="enable-background:new 0 0 36.12 41.36;" xml:space="preserve">
<style type="text/css">
	.st0{fill:#703ED9;}
</style>
<g>
	<path class="st0" d="M18.06,41.36c-2.99,0-5.98-0.51-8.84-1.53c-0.31-0.11-0.52-0.4-0.52-0.73v-4.66c0-2.16,1.31-3.97,3.88-5.38
		c0.38-0.2,0.85-0.07,1.05,0.31c0.21,0.38,0.07,0.85-0.31,1.05c-2.04,1.12-3.08,2.48-3.08,4.02v4.1c5.06,1.68,10.55,1.68,15.57,0
		v-4.1c0-1.56-1.02-2.92-3.03-4.02c-0.38-0.21-0.51-0.68-0.31-1.05c0.21-0.37,0.68-0.51,1.05-0.31c2.54,1.4,3.84,3.21,3.84,5.38
		v4.66c0,0.33-0.21,0.62-0.51,0.73C24.03,40.85,21.04,41.36,18.06,41.36z"/>
	<path class="st0" d="M18.04,30.1c-3.3,0-5.95-4.1-5.95-7.5c0-3.31,2.67-6,5.95-6c3.31,0,6,2.69,6,6
		C24.03,25.98,21.27,30.1,18.04,30.1z M18.04,18.15c-2.42,0-4.4,1.99-4.4,4.44c0,2.6,2.13,5.95,4.4,5.95c2.29,0,4.44-3.35,4.44-5.95
		C22.48,20.15,20.49,18.15,18.04,18.15z"/>
	<path class="st0" d="M6.8,38.99c-0.01,0-0.01,0-0.02,0c-2.11-0.05-4.22-0.44-6.26-1.17C0.21,37.7,0,37.41,0,37.08v-3.34
		c0-1.65,1.01-3.04,2.91-4.03c0.38-0.2,0.85-0.05,1.05,0.33c0.2,0.38,0.05,0.85-0.33,1.05c-1.38,0.71-2.07,1.6-2.07,2.65v2.79
		c1.72,0.56,3.49,0.87,5.26,0.91c0.43,0.01,0.77,0.37,0.76,0.79C7.56,38.65,7.22,38.99,6.8,38.99z"/>
	<path class="st0" d="M6.94,30.85c-2.49,0-4.49-3.07-4.49-5.62c0-2.5,2.01-4.54,4.49-4.54c2.5,0,4.54,2.04,4.54,4.54
		C11.48,27.78,9.45,30.85,6.94,30.85z M6.94,22.25C5.32,22.25,4,23.59,4,25.23c0,1.78,1.43,4.07,2.94,4.07
		c1.51,0,2.99-2.33,2.99-4.07C9.92,23.59,8.58,22.25,6.94,22.25z"/>
	<path class="st0" d="M29.33,38.99c-0.42,0-0.77-0.34-0.78-0.76c-0.01-0.43,0.33-0.78,0.76-0.79c1.77-0.04,3.54-0.35,5.26-0.91
		v-2.79c0-1.02-0.7-1.91-2.08-2.65c-0.38-0.2-0.52-0.67-0.32-1.05c0.2-0.38,0.67-0.52,1.05-0.32c1.9,1.02,2.9,2.41,2.9,4.02v3.34
		c0,0.33-0.21,0.62-0.52,0.73c-2.04,0.73-4.15,1.13-6.26,1.17C29.34,38.99,29.33,38.99,29.33,38.99z"/>
	<path class="st0" d="M29.14,30.85c-2.49,0-4.49-3.07-4.49-5.62c0-2.5,2.02-4.54,4.49-4.54c2.5,0,4.54,2.04,4.54,4.54
		C33.68,27.78,31.65,30.85,29.14,30.85z M29.14,22.25c-1.62,0-2.94,1.34-2.94,2.99c0,1.78,1.43,4.07,2.94,4.07
		c1.51,0,2.99-2.33,2.99-4.07C32.12,23.59,30.78,22.25,29.14,22.25z"/>
	<path class="st0" d="M27.91,19.94c-0.28,0-0.54-0.15-0.68-0.41l-0.33-0.61c-0.13-0.23-0.12-0.52,0.01-0.75
		c0.32-0.56,0.59-1.2,0.83-1.96c0.08-0.24,0.27-0.44,0.51-0.51l1.61-0.49v-3.69l-1.61-0.49c-0.25-0.07-0.44-0.27-0.51-0.51
		c-0.24-0.77-0.51-1.41-0.83-1.96c-0.13-0.23-0.14-0.52-0.01-0.76l0.8-1.46L25.1,3.71l-1.46,0.8c-0.23,0.12-0.51,0.13-0.74,0
		c-0.59-0.32-1.25-0.59-2-0.84c-0.24-0.08-0.42-0.27-0.5-0.51l-0.49-1.61h-3.69l-0.49,1.61c-0.07,0.25-0.27,0.44-0.51,0.52
		c-0.77,0.24-1.41,0.51-1.96,0.83c-0.23,0.13-0.52,0.13-0.76,0.01l-1.46-0.8L8.42,6.32l0.8,1.46c0.13,0.24,0.13,0.52-0.01,0.76
		c-0.32,0.55-0.59,1.2-0.83,1.96c-0.08,0.24-0.27,0.44-0.51,0.51l-1.61,0.49v3.69l1.61,0.49c0.25,0.07,0.44,0.27,0.51,0.51
		c0.24,0.76,0.51,1.4,0.83,1.96c0.13,0.23,0.14,0.52,0.01,0.75l-0.33,0.61c-0.2,0.38-0.67,0.52-1.05,0.32
		c-0.38-0.2-0.52-0.67-0.32-1.05l0.13-0.24c-0.23-0.45-0.44-0.95-0.62-1.49l-1.78-0.54c-0.33-0.1-0.55-0.4-0.55-0.74v-4.84
		c0-0.34,0.22-0.64,0.55-0.74l1.78-0.54C7.22,9.1,7.42,8.61,7.65,8.16L6.77,6.56c-0.17-0.3-0.11-0.68,0.13-0.92l3.43-3.43
		c0.24-0.24,0.62-0.3,0.92-0.13l1.61,0.88c0.45-0.23,0.94-0.43,1.49-0.62l0.54-1.78C15,0.22,15.3,0,15.64,0h4.84
		c0.34,0,0.64,0.22,0.74,0.55l0.54,1.79c0.53,0.19,1.02,0.4,1.48,0.62l1.62-0.88c0.3-0.17,0.68-0.11,0.92,0.13l3.43,3.43
		c0.24,0.24,0.3,0.62,0.13,0.92l-0.88,1.61c0.23,0.45,0.44,0.94,0.62,1.49l1.78,0.54c0.33,0.1,0.55,0.4,0.55,0.74v4.84
		c0,0.34-0.22,0.64-0.55,0.74l-1.78,0.54c-0.19,0.54-0.39,1.04-0.62,1.49l0.13,0.24c0.2,0.38,0.06,0.85-0.32,1.05
		C28.17,19.91,28.04,19.94,27.91,19.94z"/>
	<path class="st0" d="M12.25,17.4c-0.28,0-0.55-0.15-0.69-0.42c-0.62-1.19-0.93-2.4-0.93-3.61c0-4.08,3.32-7.41,7.41-7.41
		s7.41,3.32,7.41,7.41c0,1.29-0.33,2.54-0.95,3.63c-0.21,0.37-0.69,0.5-1.06,0.29c-0.37-0.21-0.5-0.69-0.29-1.06
		c0.49-0.85,0.74-1.84,0.74-2.86c0-3.23-2.63-5.86-5.86-5.86c-3.23,0-5.86,2.63-5.86,5.86c0,0.97,0.25,1.91,0.76,2.89
		c0.2,0.38,0.05,0.85-0.33,1.05C12.5,17.37,12.37,17.4,12.25,17.4z"/>
</g>
</svg>
