<?xml version="1.0" encoding="utf-8"?>
<!-- Generator: Adobe Illustrator 25.2.1, SVG Export Plug-In . SVG Version: 6.00 Build 0)  -->
<svg version="1.1" id="Ñëîé_1" xmlns="http://www.w3.org/2000/svg" width="350" xmlns:xlink="http://www.w3.org/1999/xlink" x="0px" y="0px"
	 viewBox="0 0 1020.08 816.92" style="enable-background:new 0 0 1020.08 816.92;" xml:space="preserve">
<style type="text/css">
	.st0{fill:url(#SVGID_1_);}
	.st1{fill:#D1D4FC;}
	.st2{opacity:0.38;}
	.st3{fill:#1D99B3;}
	.st4{fill:url(#SVGID_2_);}
	.st5{fill:url(#SVGID_3_);}
	.st6{fill:url(#SVGID_4_);}
	.st7{fill:url(#SVGID_5_);}
	.st8{fill:url(#SVGID_6_);}
	.st9{fill:url(#SVGID_7_);}
	.st10{fill:url(#SVGID_8_);}
	.st11{fill:url(#SVGID_9_);}
	.st12{fill:#F0F1FE;}
	.st13{fill:#8FF2F2;}
	.st14{opacity:0.57;fill:#FFFFFF;}
	.st15{opacity:0.64;}
	.st16{opacity:0.51;fill:#00234C;}
	.st17{fill:url(#SVGID_10_);}
	.st18{fill:url(#SVGID_11_);}
	.st19{fill:url(#SVGID_12_);}
	.st20{fill:#FFFFFF;}
	.st21{fill:url(#SVGID_13_);}
	.st22{fill:url(#SVGID_14_);}
	.st23{fill:#565656;}
	.st24{fill:url(#SVGID_15_);}
	.st25{fill:url(#SVGID_16_);}
	.st26{fill:url(#SVGID_17_);}
	.st27{fill:url(#SVGID_18_);}
	.st28{fill:url(#SVGID_19_);}
	.st29{fill:url(#SVGID_20_);}
	.st30{fill:#9FEDEB;}
	.st31{fill:url(#SVGID_21_);}
	.st32{opacity:0.61;fill:#D7FCFF;}
	.st33{opacity:0.7;fill:#FFFFFF;}
	.st34{fill:url(#SVGID_22_);}
	.st35{fill:url(#SVGID_23_);}
	.st36{fill:url(#SVGID_24_);}
	.st37{fill:url(#SVGID_25_);}
	.st38{fill:url(#SVGID_26_);}
	.st39{fill:url(#SVGID_27_);}
	.st40{fill:url(#SVGID_28_);}
	.st41{fill:url(#SVGID_29_);}
	.st42{fill:url(#SVGID_30_);}
	.st43{fill:#E9FFFF;}
	.st44{fill:url(#SVGID_31_);}
	.st45{fill:url(#SVGID_32_);}
	.st46{fill:url(#SVGID_33_);}
	.st47{fill:url(#SVGID_34_);}
	.st48{fill:url(#SVGID_35_);}
	.st49{opacity:0.28;fill:#33B3C4;}
	.st50{fill:#0F6B93;}
	.st51{fill:url(#SVGID_36_);}
	.st52{opacity:0.35;}
	.st53{fill:#33B3C4;}
	.st54{opacity:0.35;fill:#A980C1;}
	.st55{opacity:0.2;fill:#A980C1;}
	.st56{fill:#3DBFC9;}
	.st57{fill:url(#SVGID_37_);}
	.st58{fill:#FFD6D6;}
	.st59{fill:url(#SVGID_38_);}
	.st60{fill:#002B6A;}
	.st61{fill:url(#SVGID_39_);}
	.st62{fill:url(#SVGID_40_);}
	.st63{fill:url(#SVGID_41_);}
	.st64{fill:url(#SVGID_42_);}
	.st65{fill:url(#SVGID_43_);}
	.st66{fill:#450606;}
	.st67{fill:url(#SVGID_44_);}
	.st68{fill:url(#SVGID_45_);}
	.st69{fill:url(#SVGID_46_);}
	.st70{fill:url(#SVGID_47_);}
	.st71{fill:url(#SVGID_48_);}
	.st72{fill:url(#SVGID_49_);}
	.st73{fill:url(#SVGID_50_);}
	.st74{fill:url(#SVGID_51_);}
	.st75{fill:url(#SVGID_52_);}
	.st76{fill:url(#SVGID_53_);}
	.st77{fill:url(#SVGID_54_);}
	.st78{fill:url(#SVGID_55_);}
	.st79{fill:url(#SVGID_56_);}
</style>
<g>
	<g>
		<g>
			<linearGradient id="SVGID_1_" gradientUnits="userSpaceOnUse" x1="37.648" y1="675.3448" x2="793.1731" y2="675.3448">
				<stop  offset="0" style="stop-color:#8647E1"/>
				<stop  offset="1" style="stop-color:#B78FED"/>
			</linearGradient>
			<path class="st0" d="M46.53,650.35l253.48,127.3c11.9,5.98,31.4,5.99,43.38,0.01l440.69-219.89c6.02-3.01,9.04-6.98,9.02-10.93
				c0.03,7.24,0.06,14.48,0.08,21.71c0.01,3.96-3,7.93-9.03,10.94l-440.7,219.88c-11.95,5.98-31.47,5.97-43.37,0L46.6,672.06
				c-5.92-2.96-8.87-6.87-8.89-10.78c-0.01-7.23-0.04-14.48-0.07-21.71C37.67,643.47,40.62,647.38,46.53,650.35z"/>
			<path class="st1" d="M46.77,628.57l440.69-219.89c11.99-5.99,31.49-5.99,43.38,0l253.47,127.29c11.9,5.99,11.84,15.75-0.13,21.73
				L343.49,777.59c-11.98,5.98-31.48,5.97-43.38-0.01L46.63,650.28C34.73,644.3,34.8,634.54,46.77,628.57z"/>
			<g class="st2">
				<polygon class="st3" points="258.08,588.44 285.64,602.37 319.65,585.49 292.08,571.55 				"/>
				<linearGradient id="SVGID_2_" gradientUnits="userSpaceOnUse" x1="224.7047" y1="701.1963" x2="322.9452" y2="701.1963">
					<stop  offset="0" style="stop-color:#8647E1"/>
					<stop  offset="1" style="stop-color:#B78FED"/>
				</linearGradient>
				<polygon class="st4" points="224.7,706.68 252.24,720.61 322.34,685.77 322.95,681.78 225.66,703.58 				"/>
				<polygon class="st3" points="130.07,618.24 157.63,632.18 191.63,615.26 164.08,601.34 				"/>
				<polygon class="st3" points="202.23,650.01 229.8,663.94 263.83,647.05 236.27,633.11 				"/>
				<polygon class="st3" points="240.52,631 268.05,644.94 302.07,628.03 274.5,614.11 				"/>
				<polygon class="st3" points="180.7,626.89 208.25,640.84 242.24,623.95 214.7,609.99 				"/>
				<linearGradient id="SVGID_3_" gradientUnits="userSpaceOnUse" x1="89.611" y1="643.6251" x2="151.184" y2="643.6251">
					<stop  offset="0" style="stop-color:#8647E1"/>
					<stop  offset="1" style="stop-color:#B78FED"/>
				</linearGradient>
				<polygon class="st5" points="89.61,638.3 117.18,652.24 151.18,635.32 90.97,635.01 				"/>
				<polygon class="st3" points="278.78,611.99 306.31,625.95 340.32,609.04 312.75,595.1 				"/>
				<polygon class="st3" points="290.81,639.83 318.38,653.76 352.36,636.86 324.82,622.94 				"/>
				<polygon class="st3" points="252.58,658.83 280.13,672.77 314.13,655.87 286.57,641.94 				"/>
				<polygon class="st3" points="328.64,621.03 356.2,634.97 390.2,618.06 362.64,604.13 				"/>
				<linearGradient id="SVGID_4_" gradientUnits="userSpaceOnUse" x1="123.3261" y1="656.2568" x2="203.5481" y2="656.2568">
					<stop  offset="0" style="stop-color:#8647E1"/>
					<stop  offset="1" style="stop-color:#B78FED"/>
				</linearGradient>
				<polygon class="st6" points="123.33,655.39 150.87,669.34 203.55,643.17 124.38,652.33 				"/>
				<linearGradient id="SVGID_5_" gradientUnits="userSpaceOnUse" x1="158.8708" y1="682.2454" x2="275.7157" y2="682.2454">
					<stop  offset="0" style="stop-color:#8647E1"/>
					<stop  offset="1" style="stop-color:#B78FED"/>
				</linearGradient>
				<polygon class="st7" points="158.87,673.38 218.37,703.47 275.72,674.96 248.14,661.02 230.53,669.79 160.23,670.47 				"/>
				<linearGradient id="SVGID_6_" gradientUnits="userSpaceOnUse" x1="298.1552" y1="668.967" x2="379.2016" y2="668.967">
					<stop  offset="0" style="stop-color:#8647E1"/>
					<stop  offset="1" style="stop-color:#B78FED"/>
				</linearGradient>
				<polygon class="st8" points="298.16,670.18 325.71,684.09 378.85,657.71 379.2,653.84 				"/>
				<polygon class="st3" points="453.79,457.59 481.34,471.51 530.82,446.73 503.25,432.79 				"/>
				<polygon class="st3" points="412.86,511.52 440.43,525.45 474.41,508.57 446.86,494.63 				"/>
				<polygon class="st3" points="251.5,557.91 279.04,571.83 313.05,554.95 285.48,541.01 				"/>
				<polygon class="st3" points="296.79,569.2 324.33,583.16 358.34,566.24 330.79,552.33 				"/>
				<linearGradient id="SVGID_7_" gradientUnits="userSpaceOnUse" x1="354.7343" y1="615.6651" x2="532.9184" y2="615.6651">
					<stop  offset="0" style="stop-color:#8647E1"/>
					<stop  offset="1" style="stop-color:#B78FED"/>
				</linearGradient>
				<polygon class="st9" points="354.73,642.05 382.31,655.98 531.66,581.76 532.92,575.35 				"/>
				<polygon class="st3" points="413.41,477.43 440.98,491.38 474.96,474.48 447.44,460.54 				"/>
				<polygon class="st3" points="520.74,525.57 548.29,539.5 631.99,497.91 604.47,483.97 				"/>
				<polygon class="st3" points="291.96,537.77 319.53,551.71 353.54,534.83 325.98,520.9 				"/>
				<polygon class="st3" points="431.74,535.96 459.31,549.9 493.31,533.02 465.74,519.09 				"/>
				<linearGradient id="SVGID_8_" gradientUnits="userSpaceOnUse" x1="566.3231" y1="530.8336" x2="666.9368" y2="530.8336">
					<stop  offset="0" style="stop-color:#8647E1"/>
					<stop  offset="1" style="stop-color:#B78FED"/>
				</linearGradient>
				<polygon class="st10" points="566.32,536.91 593.87,550.84 665.89,515.05 666.94,510.83 				"/>
				<polygon class="st3" points="334.79,549.71 362.37,563.65 396.35,546.76 368.78,532.83 				"/>
				<polygon class="st3" points="482.06,544.79 509.62,558.73 543.6,541.84 516.06,527.9 				"/>
				<polygon class="st3" points="393.52,554.98 421.07,568.91 455.06,552.01 427.49,538.07 				"/>
				<polygon class="st3" points="444.23,563.58 471.8,577.52 505.79,560.62 478.23,546.71 				"/>
				<polygon class="st3" points="211.04,578.01 238.56,591.94 272.6,575.05 245.02,561.11 				"/>
				<linearGradient id="SVGID_9_" gradientUnits="userSpaceOnUse" x1="508.9295" y1="564.1283" x2="590.35" y2="564.1283">
					<stop  offset="0" style="stop-color:#8647E1"/>
					<stop  offset="1" style="stop-color:#B78FED"/>
				</linearGradient>
				<polygon class="st11" points="508.93,565.42 536.5,579.36 589.62,552.96 590.35,548.9 				"/>
				<polygon class="st3" points="354.73,574.25 382.53,588.08 416.28,571.3 388.72,557.36 				"/>
				<polygon class="st3" points="405.99,582.59 433.52,596.53 467.57,579.64 440,565.7 				"/>
				<polygon class="st3" points="170.55,598.12 198.12,612.05 232.09,595.17 204.53,581.23 				"/>
				<polygon class="st3" points="317,592.97 344.57,606.92 378.57,590.04 351,576.1 				"/>
				<polygon class="st3" points="219.41,607.67 246.93,621.6 280.95,604.72 253.39,590.77 				"/>
				<polygon class="st3" points="368.17,601.39 395.74,615.33 429.71,598.44 402.14,584.51 				"/>
				<polygon class="st3" points="372.91,497.56 400.48,511.48 434.47,494.6 406.94,480.65 				"/>
				<polygon class="st3" points="453.28,491.44 480.81,505.39 564.54,463.79 536.97,449.85 				"/>
				<polygon class="st3" points="508.39,497.88 535.94,511.82 598.28,480.85 570.73,466.9 				"/>
				<polygon class="st3" points="332.45,517.66 360.02,531.59 394,514.71 366.46,500.77 				"/>
				<polygon class="st3" points="469.99,516.96 497.56,530.89 531.56,514.02 504,500.07 				"/>
				<polygon class="st3" points="374.2,530.74 401.71,544.69 435.75,527.8 408.17,513.86 				"/>
			</g>
			<polygon class="st1" points="590.14,545.37 590.35,548.9 530.29,578.75 382.2,652.33 379.25,650.85 379.2,653.84 325.58,680.44 
				322.74,679.01 322.95,681.78 253.28,717.54 225.66,703.58 225.69,697.72 219.68,700.54 160.23,670.47 160.16,661.02 
				150.76,665.7 124.38,652.33 124.32,647.22 118.66,649.48 90.97,635.01 90.97,625.35 124.95,608.45 131.43,611.74 131.43,605.25 
				165.43,588.35 171.91,591.61 171.91,585.13 205.89,568.23 212.38,571.86 212.4,565.02 246.38,548.12 252.86,552.04 
				252.86,544.91 286.84,528.02 293.86,532.55 293.32,524.78 327.34,507.91 334.09,512.66 333.81,504.67 367.82,487.78 374.27,492 
				374.27,484.57 408.3,467.66 414.87,470.98 414.77,464.44 448.8,447.55 454.63,454.03 455.15,444.57 504.61,419.8 532.18,433.74 
				532.18,439.91 538.33,436.85 565.9,450.8 565.9,456.99 572.09,453.91 599.64,467.85 599.64,474.06 605.83,470.98 633.35,484.92 
				633.35,491.3 639.73,488.13 667.25,502.06 666.94,510.83 593.76,547.2 			"/>
			<g>
				<polygon class="st12" points="259.44,575.45 286.99,589.38 321,572.5 293.44,558.56 				"/>
				<polygon class="st12" points="226.06,693.69 253.6,707.62 323.7,672.78 296.17,658.83 				"/>
				<polygon class="st12" points="131.43,605.25 158.99,619.18 192.99,602.27 165.43,588.35 				"/>
				<polygon class="st12" points="203.59,637.02 231.16,650.95 265.19,634.06 237.62,620.12 				"/>
				<polygon class="st12" points="241.87,618.01 269.41,631.95 303.43,615.04 275.86,601.11 				"/>
				<polygon class="st12" points="182.06,613.9 209.61,627.84 243.59,610.96 216.06,597 				"/>
				<polygon class="st12" points="90.97,625.31 118.54,639.24 152.54,622.33 124.98,608.4 				"/>
				<polygon class="st12" points="280.14,599 307.67,612.95 341.68,596.04 314.11,582.11 				"/>
				<polygon class="st12" points="292.17,626.83 319.74,640.77 353.72,623.87 326.18,609.95 				"/>
				<polygon class="st12" points="253.94,645.84 281.48,659.77 315.49,642.88 287.93,628.94 				"/>
				<polygon class="st12" points="330,608.04 357.55,621.98 391.56,605.07 364,591.14 				"/>
				<polygon class="st12" points="124.68,642.4 152.23,656.35 204.91,630.18 177.36,616.25 				"/>
				<polygon class="st12" points="160.23,660.39 192.16,676.54 210.48,685.8 219.73,690.47 277.07,661.97 249.5,648.03 
					231.88,656.8 199.95,640.65 				"/>
				<polygon class="st12" points="299.51,657.18 327.06,671.1 380.21,644.72 352.64,630.78 				"/>
				<polygon class="st12" points="455.15,444.6 482.69,458.52 532.18,433.74 504.61,419.8 				"/>
				<polygon class="st13" points="414.22,498.52 441.79,512.46 475.77,495.57 448.22,481.64 				"/>
				<polygon class="st12" points="252.86,544.91 280.4,558.84 314.41,541.95 286.84,528.02 				"/>
				<polygon class="st12" points="298.15,556.21 325.68,570.17 359.7,553.25 332.15,539.33 				"/>
				<polygon class="st12" points="356.09,629.06 383.67,642.99 533.02,568.77 505.5,554.83 				"/>
				<polygon class="st13" points="414.77,464.44 442.33,478.39 476.32,461.48 448.8,447.55 				"/>
				<polygon class="st12" points="522.1,512.58 549.65,526.51 633.35,484.92 605.83,470.98 				"/>
				<polygon class="st12" points="293.32,524.78 320.89,538.72 354.9,521.83 327.34,507.91 				"/>
				<polygon class="st12" points="433.1,522.96 460.67,536.91 494.67,520.03 467.1,506.1 				"/>
				<polygon class="st12" points="567.68,523.92 595.23,537.84 667.25,502.06 639.73,488.13 				"/>
				<polygon class="st12" points="336.15,536.72 363.72,550.66 397.71,533.77 370.14,519.83 				"/>
				<polygon class="st12" points="483.41,531.8 510.98,545.74 544.96,528.85 517.42,514.9 				"/>
				<polygon class="st12" points="394.87,541.99 422.43,555.92 456.42,539.02 428.85,525.08 				"/>
				<polygon class="st12" points="445.59,550.59 473.16,564.53 507.15,547.63 479.59,533.71 				"/>
				<polygon class="st12" points="212.4,565.02 239.92,578.94 273.96,562.06 246.38,548.12 				"/>
				<polygon class="st12" points="510.29,552.43 537.85,566.37 590.98,539.96 563.44,526.02 				"/>
				<polygon class="st12" points="356.09,561.26 383.89,575.09 417.64,558.3 390.07,544.37 				"/>
				<polygon class="st12" points="407.34,569.6 434.88,583.54 468.92,566.65 441.36,552.71 				"/>
				<polygon class="st12" points="171.91,585.13 199.48,599.06 233.45,582.18 205.89,568.23 				"/>
				<polygon class="st12" points="318.36,579.98 345.93,593.92 379.93,577.05 352.36,563.11 				"/>
				<polygon class="st12" points="220.77,594.67 248.29,608.61 282.31,591.72 254.75,577.78 				"/>
				<polygon class="st12" points="369.53,588.4 397.09,602.33 431.07,585.45 403.5,571.51 				"/>
				<polygon class="st13" points="374.27,484.57 401.84,498.49 435.83,481.6 408.3,467.66 				"/>
				<polygon class="st12" points="454.63,478.45 482.17,492.4 565.9,450.8 538.33,436.85 				"/>
				<polygon class="st12" points="509.74,484.89 537.3,498.83 599.64,467.85 572.09,453.91 				"/>
				<polygon class="st13" points="333.81,504.67 361.38,518.6 395.36,501.72 367.82,487.78 				"/>
				<polygon class="st12" points="471.35,503.97 498.92,517.9 532.92,501.02 505.36,487.08 				"/>
				<polygon class="st13" points="375.56,517.75 403.07,531.7 437.11,514.81 409.53,500.86 				"/>
			</g>
			<polygon class="st14" points="349.35,684.7 419.23,719.79 527.05,665.98 457.16,630.9 			"/>
			<g class="st15">
				<path class="st16" d="M284.01,781.03c0,2.91-2.36,4.09-5.27,2.63c-2.91-1.45-5.27-4.99-5.27-7.9c0-2.91,2.36-4.09,5.27-2.63
					C281.65,774.58,284.01,778.12,284.01,781.03z"/>
				<polygon class="st16" points="214.71,750.95 188.36,737.77 188.36,727.64 214.71,740.81 				"/>
				<polygon class="st16" points="91.85,689.4 58.35,672.71 58.35,664.18 91.85,680.86 				"/>
				<polygon class="st16" points="253.89,770.43 227.54,757.25 227.54,747.11 253.89,760.29 				"/>
			</g>
		</g>
		<g>
			<linearGradient id="SVGID_10_" gradientUnits="userSpaceOnUse" x1="249.7218" y1="271.2096" x2="254.3176" y2="650.3585">
				<stop  offset="0" style="stop-color:#8647E1"/>
				<stop  offset="1" style="stop-color:#B78FED"/>
			</linearGradient>
			<path class="st17" d="M21.69,222.45L462.38,2.56c6.02-3,11.51-3.28,15.46-1.28c7.25,3.64,14.49,7.28,21.73,10.91
				c-3.96-2-474.56,618.62-470.65,620.59c-3.61-1.81-7.24-3.63-10.86-5.44c-3.63-1.83-7.25-3.64-10.86-5.47
				c-3.92-1.97-6.36-6.14-6.38-12.05L0,254.92C-0.03,243.03,9.71,228.43,21.69,222.45z"/>
			<linearGradient id="SVGID_11_" gradientUnits="userSpaceOnUse" x1="8.920672e-04" y1="240.9477" x2="101.8298" y2="240.9477">
				<stop  offset="0" style="stop-color:#8647E1"/>
				<stop  offset="1" style="stop-color:#B78FED"/>
			</linearGradient>
			<path class="st18" d="M101.83,235.35l-49.37-24.69L9.74,232.02c-5.87,6.82-9.76,15.39-9.74,22.89l0,1.27l30.08,15.04
				L101.83,235.35z"/>
			<linearGradient id="SVGID_12_" gradientUnits="userSpaceOnUse" x1="22.934" y1="270.0589" x2="172.2957" y2="175.8461">
				<stop  offset="0" style="stop-color:#8647E1"/>
				<stop  offset="1" style="stop-color:#B78FED"/>
			</linearGradient>
			<path class="st19" d="M499.57,12.19c-7.25-3.63-14.48-7.27-21.73-10.91c-3.96-2-9.45-1.72-15.46,1.28L21.69,222.45
				c-5.21,2.6-9.94,6.88-13.68,11.81c15.22,8.47,31.21,17.63,31.21,17.63L488.68,24.85C495.35,16.57,499.23,12.02,499.57,12.19z"/>
			<path class="st1" d="M21.72,265.84l0.82,354.89c0.04,11.89,9.87,16.76,21.84,10.79l440.69-219.89
				c11.97-5.99,21.72-20.61,21.68-32.51l-0.84-354.89c-0.03-11.88-9.84-16.73-21.83-10.74L43.41,233.37
				C31.44,239.34,21.68,253.94,21.72,265.84z"/>
			<path class="st12" d="M52.26,260.56L475.39,49.42c7.2-3.58,13.07-0.65,13.09,6.48l0.77,315.65c0.02,7.13-5.8,15.87-13,19.46
				L53.1,602.15c-7.17,3.57-13.1,0.69-13.12-6.44l-0.76-315.66C39.2,272.95,45.07,264.14,52.26,260.56z"/>
			<path class="st20" d="M240.37,155.9l69.09-34.55c1.42-0.71,2.59-2.46,2.59-3.88l0,0c0-1.42-1.16-2-2.59-1.29l-69.09,34.55
				c-1.42,0.71-2.59,2.46-2.59,3.88l0,0C237.78,156.03,238.95,156.61,240.37,155.9z"/>
			<path class="st20" d="M221.27,162.33c0,2.5,2.03,3.51,4.52,2.26c2.5-1.25,4.52-4.29,4.52-6.79c0-2.5-2.03-3.51-4.52-2.26
				C223.3,156.79,221.27,159.83,221.27,162.33z"/>
		</g>
	</g>
	<g>
		<linearGradient id="SVGID_13_" gradientUnits="userSpaceOnUse" x1="544.1555" y1="719.7031" x2="948.4885" y2="719.7031">
			<stop  offset="0" style="stop-color:#8647E1"/>
			<stop  offset="1" style="stop-color:#B78FED"/>
		</linearGradient>
		<polygon class="st21" points="948.46,641.71 598.13,816.92 544.16,789.64 544.16,770.69 948.49,622.49 		"/>
		<linearGradient id="SVGID_14_" gradientUnits="userSpaceOnUse" x1="544.1555" y1="785.7184" x2="598.1261" y2="785.7184">
			<stop  offset="0" style="stop-color:#8647E1"/>
			<stop  offset="1" style="stop-color:#B78FED"/>
		</linearGradient>
		<polygon class="st22" points="544.16,789.64 598.13,816.64 598.13,757.92 587.83,754.79 544.16,770.8 		"/>
		<polygon class="st1" points="948.49,622.49 598.15,797.69 544.16,770.69 894.49,595.48 		"/>
		<polygon class="st12" points="929.65,624.47 600.78,789.43 562.5,770.28 891.37,605.33 		"/>
		<g>
			<g>
				<path class="st23" d="M575.07,770.28v-1.37l18.01-3.38v1.37l-5.07,2.54l5.33,2.67l9.86-0.95v1.37l-4.52,2.26l11.81,4.54v1.37
					l-7.31,3.66L575.07,770.28z"/>
				<path class="st23" d="M596.54,759.54l28.12,12.69v1.37l-7.31,3.66l-28.12-14.06v-1.37L596.54,759.54z"/>
				<path class="st23" d="M615.8,749.91l28.12,12.69v1.37l-6.41,3.21l-16.59-4.49l12.78,5.02v1.37l-6.11,3.06l-28.12-14.06v-1.37
					l6.11-1.69l16.76,4.28l-12.66-6.33v-1.37L615.8,749.91z"/>
				<path class="st23" d="M618.73,748.44v-1.37l5.47-1.37c3.53-1.77,6.08-2.88,7.65-3.34c1.57-0.46,3.05-0.67,4.44-0.62
					c1.39,0.05,2.62,0.26,3.69,0.63c1.07,0.37,2.94,1.23,5.6,2.56l9.85,4.92c2.52,1.26,4.09,2.17,4.71,2.71
					c0.61,0.54,0.87,1.08,0.76,1.62c-0.11,0.54-0.5,1.07-1.18,1.6c-0.68,0.53-1.89,1.23-3.64,2.11l-9.22,4.61L618.73,748.44z
					 M630.85,747.19l18.5,9.25c1.05-0.53,1.49-0.96,1.31-1.29c-0.18-0.33-1.21-0.97-3.08-1.91l-10.92-5.46
					c-1.27-0.64-2.13-1.02-2.57-1.16c-0.44-0.14-0.89-0.18-1.35-0.12C632.28,746.56,631.65,746.79,630.85,747.19z"/>
			</g>
			<g>
				<linearGradient id="SVGID_15_" gradientUnits="userSpaceOnUse" x1="575.0698" y1="772.8444" x2="610.4987" y2="772.8444">
					<stop  offset="0" style="stop-color:#5C5E60"/>
					<stop  offset="1" style="stop-color:#9FA1A4"/>
				</linearGradient>
				<path class="st24" d="M575.07,768.91l12.38-6.19l5.63,2.81l-5.07,2.54l5.33,2.67l4.52-2.26l5.35,2.68l-4.52,2.26l11.81,5.91
					l-7.31,3.66L575.07,768.91z"/>
				<linearGradient id="SVGID_16_" gradientUnits="userSpaceOnUse" x1="589.224" y1="767.0339" x2="624.6529" y2="767.0339">
					<stop  offset="0" style="stop-color:#5C5E60"/>
					<stop  offset="1" style="stop-color:#9FA1A4"/>
				</linearGradient>
				<path class="st25" d="M596.54,758.17l28.12,14.06l-7.31,3.66l-28.12-14.06L596.54,758.17z"/>
				<linearGradient id="SVGID_17_" gradientUnits="userSpaceOnUse" x1="599.4706" y1="759.6555" x2="643.913" y2="759.6555">
					<stop  offset="0" style="stop-color:#5C5E60"/>
					<stop  offset="1" style="stop-color:#9FA1A4"/>
				</linearGradient>
				<path class="st26" d="M615.8,748.54l28.12,14.06l-6.41,3.21l-16.59-4.49l12.78,6.39l-6.11,3.06l-28.12-14.06l6.11-3.06
					l16.76,4.28l-12.66-6.33L615.8,748.54z"/>
				<linearGradient id="SVGID_18_" gradientUnits="userSpaceOnUse" x1="618.7307" y1="750.7542" x2="660.9144" y2="750.7542">
					<stop  offset="0" style="stop-color:#5C5E60"/>
					<stop  offset="1" style="stop-color:#9FA1A4"/>
				</linearGradient>
				<path class="st27" d="M618.73,747.07l5.47-2.74c3.53-1.77,6.08-2.88,7.65-3.34c1.57-0.46,3.05-0.67,4.44-0.62
					c1.39,0.05,2.62,0.26,3.69,0.63c1.07,0.37,2.94,1.23,5.6,2.56l9.85,4.92c2.52,1.26,4.09,2.17,4.71,2.71
					c0.61,0.54,0.87,1.08,0.76,1.62c-0.11,0.54-0.5,1.07-1.18,1.6c-0.68,0.53-1.89,1.23-3.64,2.11l-9.22,4.61L618.73,747.07z
					 M630.85,745.82l18.5,9.25c1.05-0.53,1.49-0.96,1.31-1.29c-0.18-0.33-1.21-0.97-3.08-1.91l-10.92-5.46
					c-1.27-0.64-2.13-1.02-2.57-1.16c-0.44-0.14-0.89-0.18-1.35-0.12C632.28,745.19,631.65,745.42,630.85,745.82z"/>
			</g>
		</g>
		<g>
			<linearGradient id="SVGID_19_" gradientUnits="userSpaceOnUse" x1="914.999" y1="623.014" x2="885.382" y2="624.8013">
				<stop  offset="0" style="stop-color:#8647E1"/>
				<stop  offset="1" style="stop-color:#B78FED"/>
			</linearGradient>
			<polygon class="st28" points="925.91,624.44 891.37,641.71 856.83,624.44 856.83,620.53 891.37,607.17 925.91,620.53 			"/>
			<linearGradient id="SVGID_20_" gradientUnits="userSpaceOnUse" x1="856.8297" y1="620.5313" x2="925.9092" y2="620.5313">
				<stop  offset="0" style="stop-color:#8647E1"/>
				<stop  offset="1" style="stop-color:#B78FED"/>
			</linearGradient>
			<polygon class="st29" points="925.91,620.53 891.37,637.8 856.83,620.53 891.37,603.26 			"/>
			<g>
				<path class="st12" d="M913.29,619.62l-12.58-0.91v0.91c0.46,1.05,0.34,1.66,0,2.72c-0.05,0.15,0.06,0.76,0,0.91l12.58,0
					c2.01,0,3.64-0.81,3.63-1.82C916.93,620.44,917.56,619.39,913.29,619.62z"/>
				<path class="st12" d="M894.45,616.3c-5.68-2.84-14.88-2.84-20.56,0c-5.68,2.84-5.68,7.44,0,10.28c5.68,2.84,14.88,2.84,20.56,0
					C900.13,623.74,900.13,619.14,894.45,616.3z M891.88,625.3c-4.25,2.13-11.17,2.13-15.42,0c-4.25-2.13-4.25-5.58,0-7.71
					c4.25-2.13,11.17-2.13,15.42,0C896.13,619.71,896.13,623.17,891.88,625.3z"/>
				<path class="st30" d="M878.18,624.44l1.71-0.86v-0.91l-1.38-0.16c-0.81-1.08-0.35-2.35,1.38-3.21v-0.91l-1.71,0.05
					C874.87,620.1,874.87,622.79,878.18,624.44z"/>
			</g>
			<g>
				<path class="st20" d="M913.29,618.71l-12.58,0c0.52,1.2,0.52,2.44,0,3.63l12.58,0c2.01,0,3.64-0.81,3.63-1.82
					C916.93,619.53,915.3,618.71,913.29,618.71z"/>
				<path class="st20" d="M894.45,615.39c-5.68-2.84-14.88-2.84-20.56,0c-5.68,2.84-5.68,7.44,0,10.28c5.68,2.84,14.88,2.84,20.56,0
					C900.13,622.83,900.13,618.23,894.45,615.39z M891.88,624.39c-4.25,2.13-11.17,2.13-15.42,0c-4.25-2.13-4.25-5.58,0-7.71
					c4.25-2.13,11.17-2.13,15.42,0C896.13,618.8,896.13,622.26,891.88,624.39z"/>
				<path class="st20" d="M878.18,623.53l1.71-0.86c-2.36-1.18-2.36-3.1,0-4.28l-1.71-0.86
					C874.87,619.19,874.87,621.88,878.18,623.53z"/>
			</g>
		</g>
	</g>
	<g>
		<linearGradient id="SVGID_21_" gradientUnits="userSpaceOnUse" x1="680.7695" y1="425.4431" x2="912.4231" y2="425.4431">
			<stop  offset="0" style="stop-color:#5C5E60"/>
			<stop  offset="1" style="stop-color:#9FA1A4"/>
		</linearGradient>
		<path class="st31" d="M912.42,473.5L885.6,460c12.95-9.35,19.18-20.41,18.76-31.55c-0.54-14.26,5.19-32.53-17.35-43.01
			c-71.97-33.46-145.78-23.23-188.48-2.05c-21.38,10.59-17.74,27.86-17.2,42.12c0.54,14.26,11.98,28.66,34.18,39.82
			c39.5,19.91,99.83,22.83,142.72,8.24l26.83,13.5L912.42,473.5z M735.98,447.62c-16.9-8.51-27.66-10.89-28.07-21.76
			c-0.41-10.87,7.47-21.62,23.74-29.69c32.54-16.14,86.35-15.43,120.14,1.59c16.9,8.51,25.6,19.48,26.01,30.35
			c0.41,10.87-9.01,12.09-25.28,20.16C819.98,464.4,769.77,464.63,735.98,447.62z"/>
		<ellipse class="st32" cx="790.81" cy="416.92" rx="87.71" ry="42.29"/>
		<path class="st33" d="M852.83,387.02c-34.25-16.52-89.78-16.52-124.04,0c-3.38,1.63-6.34,3.39-9.05,5.2
			c1.8-0.49,59.88-10.64,85.4,15.51c19.15,19.62,50.06,16.39,72.74,14.08C880.85,409.42,872.54,396.52,852.83,387.02z"/>
		<linearGradient id="SVGID_22_" gradientUnits="userSpaceOnUse" x1="931.0457" y1="447.9069" x2="835.301" y2="420.3325">
			<stop  offset="0" style="stop-color:#5C5E60"/>
			<stop  offset="1" style="stop-color:#9FA1A4"/>
		</linearGradient>
		<path class="st34" d="M912.42,454.62l-26.83-13.51c12.95-9.35,19.18-20.41,18.76-31.55c-0.54-14.26-11.98-28.66-34.18-39.82
			c-44.35-22.32-114.94-23.25-157.64-2.08c-21.38,10.59-31.74,24.7-31.2,38.96c0.54,14.26,11.98,28.66,34.18,39.82
			c39.5,19.91,99.83,22.83,142.72,8.24l26.83,13.5L912.42,454.62z M733.91,437.33c-16.9-8.51-25.6-19.48-26.01-30.35
			c-0.41-10.87,7.47-21.62,23.74-29.69c32.54-16.14,86.35-15.43,120.14,1.59c16.9,8.51,25.6,19.48,26.01,30.35
			c0.41,10.87-7.47,21.62-23.74,29.69C821.51,455.05,767.71,454.34,733.91,437.33z"/>
		<linearGradient id="SVGID_23_" gradientUnits="userSpaceOnUse" x1="876.6634" y1="509.0829" x2="974.8704" y2="509.0829">
			<stop  offset="0" style="stop-color:#8647E1"/>
			<stop  offset="1" style="stop-color:#B78FED"/>
		</linearGradient>
		<polygon class="st35" points="876.66,472.6 876.66,496.13 974.87,545.57 974.87,522.03 		"/>
		<linearGradient id="SVGID_24_" gradientUnits="userSpaceOnUse" x1="974.8704" y1="522.5534" x2="1020.0839" y2="522.5534">
			<stop  offset="0" style="stop-color:#8647E1"/>
			<stop  offset="1" style="stop-color:#B78FED"/>
		</linearGradient>
		<polygon class="st36" points="1020.08,499.54 1020.08,523.19 974.87,545.57 974.87,521.85 		"/>
		<linearGradient id="SVGID_25_" gradientUnits="userSpaceOnUse" x1="876.1994" y1="486.1526" x2="1020.0839" y2="486.1526">
			<stop  offset="0" style="stop-color:#8647E1"/>
			<stop  offset="1" style="stop-color:#B78FED"/>
		</linearGradient>
		<polygon class="st37" points="876.2,472.8 921.88,450.07 1020.08,499.54 974.41,522.23 		"/>
	</g>
	<g>
		<linearGradient id="SVGID_26_" gradientUnits="userSpaceOnUse" x1="196.8685" y1="369.4596" x2="332.3679" y2="369.4596">
			<stop  offset="0" style="stop-color:#8647E1"/>
			<stop  offset="1" style="stop-color:#B78FED"/>
		</linearGradient>
		<polygon class="st38" points="332.37,395.56 196.87,462.85 196.87,343.36 332.37,276.07 		"/>
		<g>
			<polygon class="st1" points="57.02,401.56 50.79,397.91 50.79,278.42 186.29,211.13 186.29,235.84 			"/>
			<polygon class="st1" points="478.07,186.24 349.07,257.11 342.57,253.53 342.57,134.05 478.07,66.75 			"/>
			<polygon class="st1" points="331.41,258.35 202.41,329.22 195.91,325.64 195.91,206.15 331.41,138.86 			"/>
			<polygon class="st1" points="58.26,538.7 51.74,535.12 51.74,415.63 187.24,348.34 			"/>
			<polygon class="st1" points="479.03,323.45 350.03,394.33 343.53,390.74 343.53,271.26 479.03,203.96 			"/>
		</g>
		<g>
			<polygon class="st12" points="192.78,334.2 57.29,401.49 57.29,282 192.78,214.71 			"/>
			<polygon class="st12" points="484.57,189.82 349.07,257.11 349.07,137.63 484.57,70.33 			"/>
			<polygon class="st12" points="337.91,261.93 202.41,329.22 202.41,209.73 337.91,142.44 			"/>
			<polygon class="st12" points="193.74,471.41 58.24,538.7 58.24,419.21 193.74,351.92 			"/>
			<polygon class="st12" points="485.52,327.03 350.03,394.33 350.03,274.84 485.52,207.55 			"/>
		</g>
		<g>
			<polygon class="st20" points="192.78,214.84 186.29,211.13 50.79,278.42 57.29,282 			"/>
			<polygon class="st20" points="202.41,209.73 195.91,206.15 331.41,138.86 337.91,142.44 			"/>
			<polygon class="st20" points="478.07,66.75 484.57,70.33 349.07,137.63 342.57,134.05 			"/>
			<polygon class="st20" points="343.53,271.26 350.03,274.84 485.52,207.55 479.03,203.96 			"/>
			<polygon class="st20" points="187.24,348.34 193.74,351.92 58.24,419.21 51.74,415.63 			"/>
		</g>
		<g>
			<path class="st1" d="M133.87,445.02c0,4.52-3.67,10.03-8.19,12.29c-4.52,2.26-8.19,0.43-8.19-4.1c0-4.52,3.67-10.03,8.19-12.29
				C130.21,438.66,133.87,440.5,133.87,445.02z"/>
			<linearGradient id="SVGID_27_" gradientUnits="userSpaceOnUse" x1="119.4768" y1="442.358" x2="133.9024" y2="448.4218">
				<stop  offset="0" style="stop-color:#8647E1"/>
				<stop  offset="1" style="stop-color:#B78FED"/>
			</linearGradient>
			<polygon class="st39" points="121.73,449.28 137.57,457.2 144.76,447.01 128.92,439.09 			"/>
			<path class="st1" d="M143.22,444.65c0,4.52-3.67,10.03-8.19,12.29c-1.25,0.62-4.28,1.42-4.28,1.42l-1.95-1.17
				c-1.23-0.82-1.97-2.31-1.97-4.34c0-4.52,3.67-10.03,8.19-12.29c2.16-1.08,4.12-1.23,5.58-0.6l2.61,1.55
				C143.22,441.51,143.22,443.76,143.22,444.65z"/>
			<path class="st1" d="M145.18,445.84c0,4.52-3.67,10.03-8.19,12.29c-4.52,2.26-8.19,0.43-8.19-4.1c0-4.52,3.67-10.03,8.19-12.29
				S145.18,441.32,145.18,445.84z"/>
			
				<ellipse transform="matrix(0.6154 -0.7882 0.7882 0.6154 -301.7477 281.4673)" class="st12" cx="137.55" cy="449.94" rx="8.7" ry="5.31"/>
			<linearGradient id="SVGID_28_" gradientUnits="userSpaceOnUse" x1="131.7757" y1="450.6812" x2="145.3672" y2="450.6812">
				<stop  offset="0" style="stop-color:#8647E1"/>
				<stop  offset="1" style="stop-color:#B78FED"/>
			</linearGradient>
			<path class="st40" d="M145.37,447.28c0,3.75-3.04,8.32-6.8,10.19c-3.75,1.88-6.8,0.36-6.8-3.4c0-3.75,3.04-8.32,6.8-10.19
				C142.32,442.01,145.37,443.53,145.37,447.28z"/>
			<linearGradient id="SVGID_29_" gradientUnits="userSpaceOnUse" x1="119.7063" y1="441.812" x2="134.1318" y2="447.8759">
				<stop  offset="0" style="stop-color:#8647E1"/>
				<stop  offset="1" style="stop-color:#B78FED"/>
			</linearGradient>
			<path class="st41" d="M130.23,441.72c0,2.71-2.2,6.01-4.91,7.36s-4.91,0.26-4.91-2.45s2.2-6.01,4.91-7.36
				C128.03,437.91,130.23,439.01,130.23,441.72z"/>
		</g>
		<g>
			<path class="st1" d="M133.87,307.99c0,4.52-3.67,10.03-8.19,12.29c-4.52,2.26-8.19,0.43-8.19-4.1c0-4.52,3.67-10.03,8.19-12.29
				C130.21,301.63,133.87,303.47,133.87,307.99z"/>
			<linearGradient id="SVGID_30_" gradientUnits="userSpaceOnUse" x1="126.8125" y1="308.0863" x2="148.5147" y2="318.299">
				<stop  offset="0" style="stop-color:#8647E1"/>
				<stop  offset="1" style="stop-color:#B78FED"/>
			</linearGradient>
			<polygon class="st42" points="121.73,312.25 137.57,320.17 144.76,309.98 128.92,302.06 			"/>
			<path class="st1" d="M143.22,307.62c0,4.52-3.67,10.03-8.19,12.29c-1.25,0.62-4.28,1.42-4.28,1.42l-1.95-1.17
				c-1.23-0.82-1.97-2.31-1.97-4.34c0-4.52,3.67-10.03,8.19-12.29c2.16-1.08,4.12-1.23,5.58-0.6l2.61,1.55
				C143.22,304.47,143.22,306.73,143.22,307.62z"/>
			<path class="st1" d="M145.18,308.81c0,4.52-3.67,10.03-8.19,12.29s-8.19,0.43-8.19-4.1c0-4.52,3.67-10.03,8.19-12.29
				C141.51,302.45,145.18,304.28,145.18,308.81z"/>
			<path class="st43" d="M144.34,309.51c0,3.75-3.04,8.32-6.8,10.19c-3.75,1.88-6.8,0.36-6.8-3.4s3.04-8.32,6.8-10.19
				C141.3,304.23,144.34,305.75,144.34,309.51z"/>
			<linearGradient id="SVGID_31_" gradientUnits="userSpaceOnUse" x1="131.7757" y1="313.6492" x2="145.3672" y2="313.6492">
				<stop  offset="0" style="stop-color:#8647E1"/>
				<stop  offset="1" style="stop-color:#B78FED"/>
			</linearGradient>
			<path class="st44" d="M145.37,310.25c0,3.75-3.04,8.32-6.8,10.19c-3.75,1.88-6.8,0.36-6.8-3.4s3.04-8.32,6.8-10.19
				C142.32,304.98,145.37,306.5,145.37,310.25z"/>
			<linearGradient id="SVGID_32_" gradientUnits="userSpaceOnUse" x1="126.9067" y1="307.8863" x2="148.6088" y2="318.099">
				<stop  offset="0" style="stop-color:#8647E1"/>
				<stop  offset="1" style="stop-color:#B78FED"/>
			</linearGradient>
			<path class="st45" d="M130.23,304.69c0,2.71-2.2,6.01-4.91,7.36c-2.71,1.36-4.91,0.26-4.91-2.45s2.2-6.01,4.91-7.36
				C128.03,300.88,130.23,301.98,130.23,304.69z"/>
		</g>
		<g>
			<path class="st1" d="M282.82,233.5c0,4.52-3.67,10.03-8.19,12.29c-4.52,2.26-8.19,0.43-8.19-4.1s3.67-10.03,8.19-12.29
				C279.15,227.14,282.82,228.98,282.82,233.5z"/>
			<linearGradient id="SVGID_33_" gradientUnits="userSpaceOnUse" x1="274.4545" y1="234.2053" x2="292.3592" y2="239.8005">
				<stop  offset="0" style="stop-color:#8647E1"/>
				<stop  offset="1" style="stop-color:#B78FED"/>
			</linearGradient>
			<polygon class="st46" points="270.68,237.76 286.52,245.68 293.71,235.49 277.87,227.57 			"/>
			<path class="st1" d="M292.17,233.13c0,4.52-3.67,10.03-8.19,12.29c-1.25,0.62-4.28,1.42-4.28,1.42l-1.95-1.17
				c-1.23-0.82-1.97-2.31-1.97-4.34c0-4.52,3.67-10.03,8.19-12.29c2.16-1.08,4.12-1.23,5.58-0.6l2.61,1.55
				C292.17,229.98,292.17,232.24,292.17,233.13z"/>
			<path class="st1" d="M294.13,234.32c0,4.52-3.67,10.03-8.19,12.29c-4.52,2.26-8.19,0.43-8.19-4.1s3.67-10.03,8.19-12.29
				C290.46,227.96,294.13,229.79,294.13,234.32z"/>
			<path class="st12" d="M293.29,235.02c0,3.75-3.04,8.32-6.8,10.19c-3.75,1.88-6.8,0.36-6.8-3.4s3.04-8.32,6.8-10.19
				C290.25,229.74,293.29,231.26,293.29,235.02z"/>
			<linearGradient id="SVGID_34_" gradientUnits="userSpaceOnUse" x1="280.7236" y1="239.1592" x2="294.3151" y2="239.1592">
				<stop  offset="0" style="stop-color:#8647E1"/>
				<stop  offset="1" style="stop-color:#B78FED"/>
			</linearGradient>
			<path class="st47" d="M294.32,235.76c0,3.75-3.04,8.32-6.8,10.19c-3.75,1.88-6.8,0.36-6.8-3.4c0-3.75,3.04-8.32,6.8-10.19
				S294.32,232.01,294.32,235.76z"/>
			<linearGradient id="SVGID_35_" gradientUnits="userSpaceOnUse" x1="274.8807" y1="232.8415" x2="292.7853" y2="238.4367">
				<stop  offset="0" style="stop-color:#8647E1"/>
				<stop  offset="1" style="stop-color:#B78FED"/>
			</linearGradient>
			<path class="st48" d="M279.18,230.2c0,2.71-2.2,6.01-4.91,7.36c-2.71,1.36-4.91,0.26-4.91-2.45c0-2.71,2.2-6.01,4.91-7.36
				C276.98,226.39,279.18,227.49,279.18,230.2z"/>
		</g>
		<g>
			<path class="st49" d="M431.03,162.69c0,4.52-3.67,10.03-8.19,12.29c-4.52,2.26-8.19,0.43-8.19-4.1s3.67-10.03,8.19-12.29
				C427.36,156.33,431.03,158.17,431.03,162.69z"/>
			<polygon class="st50" points="418.89,166.94 434.73,174.87 441.92,164.68 426.08,156.76 			"/>
			<path class="st1" d="M440.38,162.32c0,4.52-3.67,10.03-8.19,12.29c-1.25,0.62-4.28,1.42-4.28,1.42l-1.95-1.17
				c-1.23-0.82-1.97-2.31-1.97-4.34c0-4.52,3.67-10.03,8.19-12.29c2.16-1.08,4.12-1.23,5.58-0.6l2.61,1.55
				C440.38,159.17,440.38,161.43,440.38,162.32z"/>
			<path class="st1" d="M442.34,163.51c0,4.52-3.67,10.03-8.19,12.29c-4.52,2.26-8.19,0.43-8.19-4.1s3.67-10.03,8.19-12.29
				C438.67,157.15,442.34,158.98,442.34,163.51z"/>
			
				<ellipse transform="matrix(0.6154 -0.7882 0.7882 0.6154 35.0824 407.1056)" class="st12" cx="434.71" cy="167.6" rx="8.7" ry="5.31"/>
			<linearGradient id="SVGID_36_" gradientUnits="userSpaceOnUse" x1="428.9335" y1="168.3484" x2="442.525" y2="168.3484">
				<stop  offset="0" style="stop-color:#8647E1"/>
				<stop  offset="1" style="stop-color:#B78FED"/>
			</linearGradient>
			<path class="st51" d="M442.52,164.95c0,3.75-3.04,8.32-6.8,10.19s-6.8,0.36-6.8-3.4c0-3.75,3.04-8.32,6.8-10.19
				S442.52,161.2,442.52,164.95z"/>
			<path class="st50" d="M427.39,159.39c0,2.71-2.2,6.01-4.91,7.36c-2.71,1.36-4.91,0.26-4.91-2.45c0-2.71,2.2-6.01,4.91-7.36
				C425.19,155.58,427.39,156.68,427.39,159.39z"/>
		</g>
		<g>
			<g class="st52">
				<polygon class="st53" points="339.97,459.01 475.47,391.39 475.47,348.26 339.97,415.55 				"/>
			</g>
			<g>
				<path class="st1" d="M51.74,552.76v49.93c0.45-0.18,0.9-0.31,1.36-0.54l102.17-50.98l31.97-40.98v-24.71L51.74,552.76z"/>
				<path class="st53" d="M343.53,457.23l132.72-66.22c0.96-0.48,1.88-1.05,2.78-1.7V341.1l-135.5,67.29V457.23z"/>
				<polygon class="st1" points="332.37,462.8 332.37,413.2 196.87,480.49 196.87,530.41 				"/>
			</g>
			<g>
				<polygon class="st12" points="193.74,531.97 193.74,489.05 58.24,556.35 58.24,599.59 				"/>
				<path class="st12" d="M485.53,344.68l-135.5,67.29v42.02l126.22-62.98c3.64-1.81,6.92-4.94,9.28-8.52V344.68z"/>
				<polygon class="st12" points="338.87,459.56 338.87,416.78 203.37,484.08 203.37,527.17 				"/>
			</g>
			<g>
				<polygon class="st20" points="193.74,489.18 187.24,485.47 51.74,552.76 58.24,556.34 				"/>
				<polygon class="st20" points="203.37,484.08 196.87,480.49 332.37,413.2 338.87,416.78 				"/>
				<polygon class="st20" points="479.03,341.1 485.52,344.68 350.03,411.97 343.53,408.39 				"/>
			</g>
		</g>
	</g>
	<g>
		<polygon class="st54" points="196.59,555.58 196.54,408.86 296.95,500.71 289.86,509.04 		"/>
		<polygon class="st55" points="333.03,487.49 196.54,555.6 213.86,564.29 220.77,560.89 248.54,574.67 248.42,580.96 
			254.79,577.77 282.31,591.72 282.31,597.96 288.85,594.68 316.7,608.5 316.68,614.7 322.94,611.6 350.77,625.41 350.74,631.75 
			352.64,630.81 356.09,632.56 356.09,629.09 357.13,628.57 369.12,634.51 504.62,567.22 		"/>
	</g>
	<g>
		<polygon class="st56" points="196.82,462.48 251.54,354.99 511.52,485.39 376.02,552.68 		"/>
		<polyline class="st20" points="297.03,304.63 297.03,376.46 506.21,479.99 506.21,408.17 		"/>
		<linearGradient id="SVGID_37_" gradientUnits="userSpaceOnUse" x1="284.6756" y1="392.4537" x2="487.8653" y2="392.4537">
			<stop  offset="0" style="stop-color:#8647E1"/>
			<stop  offset="1" style="stop-color:#B78FED"/>
		</linearGradient>
		<polygon class="st57" points="284.68,375.2 487.87,476.55 487.87,404.73 294.65,308.35 		"/>
		<g>
			<g>
				<polygon class="st53" points="196.87,453.38 295.12,399.4 295.12,300.03 196.87,348.82 				"/>
				<polygon class="st12" points="196.87,453.86 300.53,402.38 300.53,303.01 196.87,354.49 				"/>
				<polygon class="st1" points="196.87,354.49 300.53,303.01 295.12,300.03 196.87,348.82 				"/>
			</g>
			<g>
				<polygon class="st1" points="310.74,403.99 203.45,462.94 198.05,459.96 198.05,360.58 310.74,304.62 				"/>
				<polygon class="st12" points="316.15,406.97 203.45,462.94 203.45,363.56 316.15,307.59 				"/>
				<polygon class="st1" points="310.74,304.62 316.15,307.59 203.45,363.56 198.05,360.58 				"/>
			</g>
			<g>
				<polygon class="st1" points="319.52,411.04 212.23,469.98 206.82,467.01 206.82,367.63 319.52,311.66 				"/>
				<polygon class="st12" points="324.92,414.02 212.23,469.98 212.23,370.61 324.92,314.64 				"/>
				<polygon class="st1" points="319.52,311.66 324.92,314.64 212.23,370.61 206.82,367.63 				"/>
			</g>
		</g>
		<g>
			<polygon class="st1" points="334.37,414.54 227.08,473.49 221.67,470.51 221.67,371.13 334.37,315.17 			"/>
			<polygon class="st12" points="339.77,417.52 227.08,473.49 227.08,374.11 339.77,318.14 			"/>
			<polygon class="st1" points="334.37,315.17 339.77,318.14 227.08,374.11 221.67,371.13 			"/>
		</g>
		<g>
			<polygon class="st1" points="342.57,419.62 235.28,478.57 229.88,475.59 229.88,376.21 342.57,320.24 			"/>
			<polygon class="st12" points="347.98,422.6 235.28,478.57 235.28,379.19 347.98,323.22 			"/>
			<polygon class="st1" points="342.57,320.24 347.98,323.22 235.28,379.19 229.88,376.21 			"/>
		</g>
		<g>
			<polygon class="st1" points="353.58,427.74 246.29,486.69 240.88,483.71 240.88,384.33 353.58,328.37 			"/>
			<polygon class="st12" points="358.98,430.72 246.29,486.69 246.29,387.31 358.98,331.34 			"/>
			<polygon class="st1" points="353.58,328.37 358.98,331.34 246.29,387.31 240.88,384.33 			"/>
		</g>
		<g>
			<polygon class="st1" points="366.05,429.23 258.76,488.18 253.35,485.2 253.35,385.82 366.05,329.85 			"/>
			<polygon class="st12" points="371.45,432.21 258.76,488.18 258.76,388.8 371.45,332.83 			"/>
			<polygon class="st1" points="366.05,329.85 371.45,332.83 258.76,388.8 253.35,385.82 			"/>
		</g>
		<g>
			<polygon class="st1" points="377.75,435.27 270.46,494.22 265.06,491.24 265.06,391.86 377.75,335.9 			"/>
			<polygon class="st12" points="383.16,438.25 270.46,494.22 270.46,394.84 383.16,338.88 			"/>
			<polygon class="st1" points="377.75,335.9 383.16,338.88 270.46,394.84 265.06,391.86 			"/>
		</g>
		<g>
			<polygon class="st1" points="387.45,444.05 280.16,503 274.76,500.02 274.76,400.64 387.45,344.68 			"/>
			<polygon class="st12" points="392.86,447.03 280.16,503 280.16,403.62 392.86,347.66 			"/>
			<polygon class="st1" points="387.45,344.68 392.86,347.66 280.16,403.62 274.76,400.64 			"/>
		</g>
		<g>
			<polygon class="st1" points="396.22,448.31 288.93,507.26 283.52,504.28 283.52,404.9 396.22,348.94 			"/>
			<polygon class="st12" points="401.62,451.29 288.93,507.26 288.93,407.88 401.62,351.92 			"/>
			<polygon class="st20" points="396.22,348.94 401.62,351.92 288.93,407.88 283.52,404.9 			"/>
		</g>
		<g>
			<polygon class="st1" points="407.81,445.54 300.53,504.49 295.12,501.51 295.12,402.13 407.81,346.17 			"/>
			<polygon class="st12" points="413.22,448.52 300.53,504.49 300.53,405.11 413.22,349.15 			"/>
			<polygon class="st1" points="407.81,346.17 413.22,349.15 300.53,405.11 295.12,402.13 			"/>
		</g>
		<g>
			<path class="st58" d="M478.03,308.07l-1.12-4.34l-4.5-4.44c0,0-3.75,6.46-5.09,8.18c0,0-5.52,1.39-5.53,1.42
				c-1.28,4.21,1.17,9.88,1.17,9.88l14.11,10.62l8.84-2.7l1.04-0.8l1.66-2.61l-5.39-6.45l1.19-2.49L478.03,308.07z"/>
			<polygon class="st20" points="465.33,308.63 459.79,315.13 456.58,310.01 470.67,293.51 472.55,296.42 476.39,300.78 			"/>
			<linearGradient id="SVGID_38_" gradientUnits="userSpaceOnUse" x1="429.7587" y1="255.1816" x2="474.15" y2="255.1816">
				<stop  offset="0" style="stop-color:#5C5E60"/>
				<stop  offset="1" style="stop-color:#9FA1A4"/>
			</linearGradient>
			<path class="st59" d="M458.21,315.47l-27.37-34.9c0,0-0.43-5.73-1.08-10.55c2.75-9.64,15.05-75.14,15.05-75.14l2.56,9.92
				c0,0,1.06,6.98,1.27,10.14c0.58,5.93,0.5,12.26,0.75,18.41c0.04,4.56,0.81,27.62,0.81,27.62l23.95,36.16L460.1,308.4
				C460.1,308.4,457.94,314.94,458.21,315.47z"/>
			<path class="st60" d="M444.12,464.66l-11.49-8.95l-6.75-7.67l-0.06,0.04c0,0-18.19-1.79-23.71,3.37
				c0.35,2.4-0.83,9.09-0.62,10.46c0.62,0.43,17.83,8.18,19.12,8.91c1.02,0.64,14.19,7.01,14.19,7.01l10.21-8.05L444.12,464.66z"/>
			<path class="st60" d="M384.08,484.25l-10.44-8.09c0,0-4.16-6.35-4.83-7.47c-0.04-0.03-0.05-0.1-0.08-0.14
				c-1.19-1.86-25.15-4.16-29.16,0.78c-0.02,0.11-0.26,7.29-0.2,8.75c1.25,1.06,3.37,2.67,6.01,4.57c0.46-1.16,1.81-0.34,2.81,0.31
				c1.58,1.01,2.23,3.73,2.7,5.28c7.87,5.36,21.48,8.89,21.48,8.89l0-0.03c2.43-0.07,11.98-7.24,11.98-7.24L384.08,484.25z"/>
			<linearGradient id="SVGID_39_" gradientUnits="userSpaceOnUse" x1="339.7872" y1="388.3932" x2="434.8627" y2="388.3932">
				<stop  offset="0" style="stop-color:#5C5E60"/>
				<stop  offset="1" style="stop-color:#9FA1A4"/>
			</linearGradient>
			<path class="st61" d="M420.26,310.2c-0.05-3.14-0.14-6.12-0.17-8.95c-0.02-0.28-69.56,16.53-70.15,16.15
				c-0.28,2.2-0.56,4.4-0.76,6.54c-0.05,3.03,0.38,17.24,0.38,17.24s1.56,46.36,1.53,56.68l-11.29,70.19l10.89,7.49l23.55-0.78
				l9.77-70.84l4.03-51.84L404,400.34c0,0-2.71,46.79-2.17,49.94c0.22,0.3,16.44,4.97,16.44,4.97l10.26-0.45l6.33-68.26
				C434.86,386.54,420.34,312.75,420.26,310.2z"/>
			<linearGradient id="SVGID_40_" gradientUnits="userSpaceOnUse" x1="395.3298" y1="204.936" x2="401.9681" y2="364.7658">
				<stop  offset="0" style="stop-color:#5C5E60"/>
				<stop  offset="1" style="stop-color:#9FA1A4"/>
			</linearGradient>
			<path class="st62" d="M424.25,292.66c0,0,3.07-14.28,5.51-22.63c2.75-9.64,17.51-50.37,17.51-50.37l-2.46-24.77l-18.67-8.28
				l-37.89,3.79l-18.26,13.23l-10,61.75l-11.33,51.52l16.28,8.25l56.32-7.3L424.25,292.66z"/>
			<linearGradient id="SVGID_41_" gradientUnits="userSpaceOnUse" x1="415.3015" y1="227.7728" x2="434.5076" y2="227.7728">
				<stop  offset="0" style="stop-color:#5C5E60"/>
				<stop  offset="1" style="stop-color:#9FA1A4"/>
			</linearGradient>
			<path class="st63" d="M418.36,247.22c1.77-5.51,6.28-10.13,7.04-15.96c0.09-0.52,0.16-1.08,0.22-1.6
				c0.8-6.84,1.12-13.57,0.44-20.54c-0.14-1.86-0.61-4.26-1.41-6.55c-0.16-0.49-0.34-0.91-0.51-1.36c-1.21-2.92-2.88-5.56-5.07-6.65
				c1.71-0.12,4.04-0.58,5.76-1.31c1.32,1.21,6.35,9.01,6.35,9.01l-2.7,5l6.03,4.48l-0.61,10.2c0,0-16.95,37.93-18.6,40.35
				c1.34-2.16,0.04-7.09,1.29-9.46C417.45,251.18,417.88,248.92,418.36,247.22z"/>
			<linearGradient id="SVGID_42_" gradientUnits="userSpaceOnUse" x1="387.3769" y1="222.2038" x2="416.2828" y2="222.2038">
				<stop  offset="0" style="stop-color:#5C5E60"/>
				<stop  offset="1" style="stop-color:#9FA1A4"/>
			</linearGradient>
			<path class="st64" d="M395.03,200.52c0.97,2.34,2.36,4.56,3.53,6.2c0.8,1.02,1.57,2.06,2.35,3.03c3.33,4.17,6.42,7.87,8.9,12.94
				c3.3,6.6,5.47,14.33,6.32,21.61c0.04,0.27,0.07,0.57,0.1,0.87c0.22,3.12-0.32,6.48-1,9.79c-0.46,2.15-0.66,6.52-0.66,6.52
				l-0.35-6.14c-0.8-8.61-7.89-21.05-7.89-21.05l-12.48-11.41l1.91-7.04l-5.87-0.83l-1.46-8.06c0,0-2.25-12.7-0.19-16.56
				c0.29-0.17,5.79-5.74,8.39-7.46c-0.15,1.04-0.27,2.1-0.4,3.18c-0.23,2.07-0.49,4.13-0.72,6.21c-0.1-0.32-0.2-0.61-0.24-0.88
				l-0.07,0.01C393.27,193.97,393.77,197.37,395.03,200.52z"/>
			<g>
				<path class="st12" d="M425.4,231.26c0.09-0.52,0.16-1.08,0.22-1.6c0.8-6.84,0.44-20.54,0.44-20.54s-0.61-4.26-1.41-6.55
					c-1.9-1.69-28.03-0.06-29.61-2.05c0.97,2.34,3.53,6.2,3.53,6.2l2.35,3.03l8.9,12.94c0,0,5.47,14.33,6.32,21.61
					c0.04,0.27,2.51,5.58,2.54,5.88C419.65,245.19,422.94,239.3,425.4,231.26z"/>
				<linearGradient id="SVGID_43_" gradientUnits="userSpaceOnUse" x1="413.9103" y1="233.0577" x2="425.4005" y2="233.0577">
					<stop  offset="0" style="stop-color:#8647E1"/>
					<stop  offset="1" style="stop-color:#B78FED"/>
				</linearGradient>
				<path class="st65" d="M425.4,227.74l-2.99-15.92l-0.17-0.6l0.36-6.17c0,0-1.26-1.59-1.94-2.28c-0.88-0.97-3.71-2.04-3.71-2.04
					c-0.89,1.35-1.88,2.93-2.77,4.58c-0.08,0.16-0.19,0.34-0.27,0.53c1.24,2.24,2.99,4.68,4.9,6.37c0.38,5.61,0.34,17.51,0.34,17.51
					l-3.14,14.76l-1.75,20.9c0.25-0.87,10.59-30.72,10.59-30.72L425.4,227.74z"/>
				<path class="st20" d="M395.53,192.32c3.08,8.78,20.36,11.16,21.93,5.63l0.5-6.31c0.37,1.49,4.96,6.64,6.17,9.56
					c0.17,0.45,0.35,0.87,0.51,1.36c-0.14,1.15-1.24,3.35-1.24,3.35l-0.8-0.87l-1.93-2.28l-3.71-2.04c-0.89,1.35-4.7,8.99-4.7,8.99
					l-0.07-0.02l-11.13-4.15c0,0-4.45-3.03-6.03-5.02c-1.26-3.16-1.76-6.55,0.19-9.06l0.07-0.01
					C395.33,191.72,395.44,192,395.53,192.32z"/>
			</g>
			<g>
				<path class="st58" d="M418.42,193.24c0.2,0.06-1.42,7.14-1.47,7.49c-0.58,2.35-18.48,2.62-21.85-8.07
					c0.23-2.07,1.83-12.33,1.94-13.35c0.51,0.2,1.11,0.2,1.81-0.09C400.12,180.79,417.07,193.03,418.42,193.24z"/>
				<path class="st58" d="M430.35,156.75c-2.08,1.86-7.8,1.88-10.7,2.45c-4.06,0.72-14.88,3.31-14.88,3.31
					c-0.21,2.27-0.93,4.09-1.59,6.57c-0.73,2.89-2.54,4.81-1.93,11.23c-1.23-1.07-2.44-2.14-3.53-3.25
					c-0.23-2.51-0.39-5.08-0.63-6.52c-1.15-1.38-5-1.11-4.12,2.3c0.69,2.69,1.01,8.57,3.46,9.4c0.53,0.16,1.12,0.12,1.8-0.22
					c0.39,1.77,3.76,5.2,3.76,5.2s14.31,8.57,15.68,8.68c0.2,0.05,7.49-1.79,7.49-1.79l5.02-22.85
					C430.17,171.25,430.49,157.79,430.35,156.75z"/>
				<path class="st66" d="M404.77,162.51c-0.21,2.27-0.93,4.09-1.59,6.57c-0.73,2.89-2.54,4.81-1.93,11.23
					c-1.24-1.07-2.44-2.14-3.53-3.25c-0.23-2.51-0.39-5.08-0.63-6.52c-1.15-1.38-5-1.11-4.12,2.3c0.69,2.69,1.01,8.57,3.46,9.4
					c-0.03,1.02-0.14,3.06-0.14,3.06l-2.59-1.64l-1.44-4.15c-3.4-7.5-7.65-21.99-7.65-21.99l1.06-12.93
					C385.67,144.58,397.43,158.89,404.77,162.51z"/>
				<path class="st66" d="M407.67,163.55c0,0-2.59-0.86-2.9-1.04c-7.34-3.62-13.61-11.51-19.1-17.93c1.9-2.86,7.67-7.13,7.67-7.13
					c2.7-1.68,17.53-2.88,21.55-1.51l0.03,0.01c1.74,0.73,7.71,3.49,8.92,3.92c-0.63-0.2,10.49,3.3,10.73,3.38
					c0,0,1.19,7.72-1.23,10.97c-0.71,0.94-3.98,4.51-3.98,4.51S412.17,164.51,407.67,163.55z"/>
			</g>
			<linearGradient id="SVGID_44_" gradientUnits="userSpaceOnUse" x1="365.1583" y1="206.1891" x2="371.7966" y2="366.0189">
				<stop  offset="0" style="stop-color:#5C5E60"/>
				<stop  offset="1" style="stop-color:#9FA1A4"/>
			</linearGradient>
			<polygon class="st67" points="360.71,202.06 354.42,227.77 343.53,281.92 387.45,314.24 392.53,268.79 379.09,228.83 
				384.15,193.25 			"/>
		</g>
		<polygon class="st20" points="196.82,460.24 374.27,548.36 374.27,476.54 196.82,388.41 		"/>
		<polygon class="st1" points="196.87,462.85 374.27,551.75 374.27,479.93 196.82,391.94 		"/>
		<g>
			<polygon class="st1" points="505.03,481.97 376.02,552.84 369.53,549.26 369.53,429.77 505.03,362.48 			"/>
			<polygon class="st12" points="511.52,485.55 376.02,552.84 376.02,433.35 511.52,366.06 			"/>
			<polygon class="st20" points="505.03,362.48 511.52,366.06 376.02,433.35 369.53,429.77 			"/>
		</g>
	</g>
	<g>
		<path class="st1" d="M454.58,477.92c0,4.52-3.67,10.03-8.19,12.29c-4.52,2.26-8.19,0.43-8.19-4.1c0-4.52,3.67-10.03,8.19-12.29
			C450.92,471.57,454.58,473.4,454.58,477.92z"/>
		<linearGradient id="SVGID_45_" gradientUnits="userSpaceOnUse" x1="442.6503" y1="476.0411" x2="458.4262" y2="483.0276">
			<stop  offset="0" style="stop-color:#8647E1"/>
			<stop  offset="1" style="stop-color:#B78FED"/>
		</linearGradient>
		<polygon class="st68" points="442.44,482.18 458.28,490.1 465.47,479.92 449.63,471.99 		"/>
		<path class="st1" d="M463.93,477.55c0,4.52-3.67,10.03-8.19,12.29c-1.25,0.62-4.28,1.42-4.28,1.42l-1.95-1.17
			c-1.23-0.82-1.97-2.31-1.97-4.34c0-4.52,3.67-10.03,8.19-12.29c2.16-1.08,4.12-1.23,5.58-0.6l2.61,1.55
			C463.93,474.41,463.93,476.67,463.93,477.55z"/>
		<path class="st1" d="M465.89,478.74c0,4.52-3.67,10.03-8.19,12.29c-4.52,2.26-8.19,0.43-8.19-4.1c0-4.52,3.67-10.03,8.19-12.29
			C462.22,472.38,465.89,474.22,465.89,478.74z"/>
		<path class="st43" d="M465.05,479.44c0,3.75-3.04,8.32-6.8,10.19c-3.75,1.88-6.8,0.36-6.8-3.4c0-3.75,3.04-8.32,6.8-10.19
			C462.01,474.17,465.05,475.69,465.05,479.44z"/>
		<linearGradient id="SVGID_46_" gradientUnits="userSpaceOnUse" x1="452.4848" y1="483.5828" x2="466.0763" y2="483.5828">
			<stop  offset="0" style="stop-color:#8647E1"/>
			<stop  offset="1" style="stop-color:#B78FED"/>
		</linearGradient>
		<path class="st69" d="M466.08,480.18c0,3.75-3.04,8.32-6.8,10.19c-3.75,1.88-6.8,0.36-6.8-3.4s3.04-8.32,6.8-10.19
			S466.08,476.43,466.08,480.18z"/>
		<linearGradient id="SVGID_47_" gradientUnits="userSpaceOnUse" x1="442.8221" y1="475.6531" x2="458.5981" y2="482.6396">
			<stop  offset="0" style="stop-color:#8647E1"/>
			<stop  offset="1" style="stop-color:#B78FED"/>
		</linearGradient>
		<path class="st70" d="M450.94,474.62c0,2.71-2.2,6.01-4.91,7.36c-2.71,1.36-4.91,0.26-4.91-2.45s2.2-6.01,4.91-7.36
			C448.74,470.81,450.94,471.91,450.94,474.62z"/>
	</g>
	<g>
		<linearGradient id="SVGID_48_" gradientUnits="userSpaceOnUse" x1="512.012" y1="269.5176" x2="452.012" y2="286.2411">
			<stop  offset="0" style="stop-color:#8647E1"/>
			<stop  offset="1" style="stop-color:#B78FED"/>
		</linearGradient>
		<polygon class="st71" points="543.26,183.3 541.6,181.92 494.83,194.06 486.11,207.11 387.58,234.67 398,379.71 399.66,381.08 
			558.43,321.95 		"/>
		<linearGradient id="SVGID_49_" gradientUnits="userSpaceOnUse" x1="389.2333" y1="282.188" x2="560.0892" y2="282.188">
			<stop  offset="0" style="stop-color:#8647E1"/>
			<stop  offset="1" style="stop-color:#B78FED"/>
		</linearGradient>
		<polygon class="st72" points="551.9,232.21 543.26,183.3 496.48,195.43 487.77,208.48 389.23,236.04 399.66,381.08 560.09,323.32 
					"/>
		<path class="st1" d="M550.58,240c0.3-1.81-3.58-31.66-3.58-31.66l-146.75,36.99l1.96,109.32L550.58,240z"/>
		<path class="st12" d="M556.66,228.94c0.3-1.81-3.58-31.66-3.58-31.66l-146.75,36.99l1.96,109.32L556.66,228.94z"/>
		<path class="st12" d="M566.79,239.63c0-1.79,0-27.11,0-27.11l-146.14,11.36v60.33L566.79,239.63z"/>
		<path class="st20" d="M558.59,254.88c0-1.79,0-27.11,0-27.11l-146.14,11.36v60.33L558.59,254.88z"/>
		<linearGradient id="SVGID_50_" gradientUnits="userSpaceOnUse" x1="491.6253" y1="245.0821" x2="487.0295" y2="298.1885">
			<stop  offset="0" style="stop-color:#8647E1"/>
			<stop  offset="1" style="stop-color:#B78FED"/>
		</linearGradient>
		<polygon class="st73" points="571.26,218.5 573.94,220.57 557.41,321.25 402.34,383.15 399.66,381.08 413.51,256.88 
			514.95,227.36 523,232.67 		"/>
		<linearGradient id="SVGID_51_" gradientUnits="userSpaceOnUse" x1="402.3417" y1="301.8591" x2="573.9424" y2="301.8591">
			<stop  offset="0" style="stop-color:#8647E1"/>
			<stop  offset="1" style="stop-color:#B78FED"/>
		</linearGradient>
		<polygon class="st74" points="573.94,220.57 560.09,323.32 402.34,383.15 416.19,258.95 517.64,229.42 525.68,234.73 		"/>
		<linearGradient id="SVGID_52_" gradientUnits="userSpaceOnUse" x1="517.4221" y1="226.1333" x2="416.6986" y2="259.1971">
			<stop  offset="0" style="stop-color:#8647E1"/>
			<stop  offset="1" style="stop-color:#B78FED"/>
		</linearGradient>
		<polygon class="st75" points="517.64,229.42 514.95,227.36 413.51,256.88 416.19,258.95 		"/>
		<linearGradient id="SVGID_53_" gradientUnits="userSpaceOnUse" x1="392.9205" y1="294.8986" x2="390.6226" y2="252.1326">
			<stop  offset="0" style="stop-color:#8647E1"/>
			<stop  offset="1" style="stop-color:#B78FED"/>
		</linearGradient>
		<polygon class="st76" points="389.23,236.04 387.58,234.67 398,379.71 399.66,381.08 		"/>
		<linearGradient id="SVGID_54_" gradientUnits="userSpaceOnUse" x1="485.5249" y1="201.2722" x2="496.4838" y2="201.2722">
			<stop  offset="0" style="stop-color:#8647E1"/>
			<stop  offset="1" style="stop-color:#B78FED"/>
		</linearGradient>
		<polygon class="st77" points="496.48,195.43 494.83,194.06 485.52,207.55 487.77,208.48 		"/>
		<linearGradient id="SVGID_55_" gradientUnits="userSpaceOnUse" x1="522.9985" y1="226.6177" x2="573.9424" y2="226.6177">
			<stop  offset="0" style="stop-color:#8647E1"/>
			<stop  offset="1" style="stop-color:#B78FED"/>
		</linearGradient>
		<polygon class="st78" points="523,232.67 525.68,234.73 573.94,220.57 571.26,218.5 		"/>
	</g>
	<g>
		<polygon class="st58" points="425.43,347.84 427.9,340.28 427.33,337.18 423.57,337.78 415.58,333.53 407.8,335.8 402.45,343.55 
			399.43,346.93 412.34,352.7 		"/>
		<path class="st20" d="M409.33,334.54l-9.57,14.68l-4.07-2.85l9.64-15.82C409.33,334.54,409.33,334.54,409.33,334.54z"/>
		<linearGradient id="SVGID_56_" gradientUnits="userSpaceOnUse" x1="371.2804" y1="205.9349" x2="377.9187" y2="365.7646">
			<stop  offset="0" style="stop-color:#5C5E60"/>
			<stop  offset="1" style="stop-color:#9FA1A4"/>
		</linearGradient>
		<path class="st79" d="M343.53,281.92c0,0,52.79,67.21,53.73,66.44c0.94-0.77,10.15-16.88,10.15-16.88l-34.46-42.31L343.53,281.92z
			"/>
	</g>
</g>
</svg>
