<?xml version="1.0" encoding="utf-8"?>
<!-- Generator: Adobe Illustrator 25.2.1, SVG Export Plug-In . SVG Version: 6.00 Build 0)  -->
<svg version="1.1" id="background" xmlns="http://www.w3.org/2000/svg" width="300" xmlns:xlink="http://www.w3.org/1999/xlink" x="0px" y="0px"
	 viewBox="0 0 385.27 501.35" style="enable-background:new 0 0 385.27 501.35;" xml:space="preserve">
<style type="text/css">
	.st0{opacity:0.7;}
	.st1{opacity:0;fill:#3C5185;}
	.st2{opacity:0.0244;fill:#3C5185;}
	.st3{opacity:0.0488;fill:#3C5185;}
	.st4{opacity:0.0732;fill:#3C5185;}
	.st5{opacity:0.0976;fill:#3C5185;}
	.st6{opacity:0.122;fill:#3C5185;}
	.st7{opacity:0.1463;fill:#3C5185;}
	.st8{opacity:0.1707;fill:#3C5185;}
	.st9{opacity:0.1951;fill:#3C5185;}
	.st10{opacity:0.2195;fill:#3C5185;}
	.st11{opacity:0.2439;fill:#3C5185;}
	.st12{opacity:0.2683;fill:#3C5185;}
	.st13{opacity:0.2927;fill:#3C5185;}
	.st14{opacity:0.3171;fill:#3C5185;}
	.st15{opacity:0.3415;fill:#3C5185;}
	.st16{opacity:0.3659;fill:#3C5185;}
	.st17{opacity:0.3902;fill:#3C5185;}
	.st18{opacity:0.4146;fill:#3C5185;}
	.st19{opacity:0.439;fill:#3C5185;}
	.st20{opacity:0.4634;fill:#3C5185;}
	.st21{opacity:0.4878;fill:#3C5185;}
	.st22{opacity:0.5122;fill:#3C5185;}
	.st23{opacity:0.5366;fill:#3C5185;}
	.st24{opacity:0.561;fill:#3C5185;}
	.st25{opacity:0.5854;fill:#3C5185;}
	.st26{opacity:0.6098;fill:#3C5185;}
	.st27{opacity:0.6341;fill:#3C5185;}
	.st28{opacity:0.6585;fill:#3C5185;}
	.st29{opacity:0.6829;fill:#3C5185;}
	.st30{opacity:0.7073;fill:#3C5185;}
	.st31{opacity:0.7317;fill:#3C5185;}
	.st32{opacity:0.7561;fill:#3C5185;}
	.st33{opacity:0.7805;fill:#3C5185;}
	.st34{opacity:0.8049;fill:#3C5185;}
	.st35{opacity:0.8293;fill:#3C5185;}
	.st36{opacity:0.8537;fill:#3C5185;}
	.st37{opacity:0.878;fill:#3C5185;}
	.st38{opacity:0.9024;fill:#3C5185;}
	.st39{opacity:0.9268;fill:#3C5185;}
	.st40{opacity:0.9512;fill:#3C5185;}
	.st41{opacity:0.9756;fill:#3C5185;}
	.st42{fill:#3C5185;}
	.st43{fill:#D9D9FC;}
	.st44{fill:#FFFFFF;}
	.st45{fill:url(#SVGID_1_);}
	.st46{fill:#EDF3FA;}
	.st47{fill:url(#XMLID_2_);}
	.st48{opacity:0.5;fill:#D9D9FC;}
	.st49{opacity:0.5;}
	.st50{fill:#CECEF4;}
	.st51{fill:#F6F9FC;}
	.st52{fill:url(#XMLID_4_);}
	.st53{opacity:0.5;fill:url(#XMLID_5_);}
	.st54{opacity:0.5;fill:url(#XMLID_6_);}
	.st55{opacity:0.5;fill:url(#XMLID_7_);}
	.st56{opacity:0.25;fill:#CECEF4;}
	.st57{fill:url(#XMLID_8_);}
	.st58{fill:url(#XMLID_10_);}
	.st59{fill:url(#XMLID_11_);}
	.st60{fill:url(#XMLID_12_);}
	.st61{fill:url(#XMLID_13_);}
	.st62{fill:url(#XMLID_14_);}
	.st63{fill:url(#XMLID_15_);}
	.st64{fill:url(#XMLID_16_);}
	.st65{fill:url(#XMLID_17_);}
	.st66{fill:#814D4D;}
	.st67{fill:url(#XMLID_18_);}
	.st68{fill:#FFE1CC;}
	.st69{fill:url(#XMLID_19_);}
	.st70{fill:url(#SVGID_2_);}
	.st71{fill:url(#XMLID_20_);}
	.st72{fill:#450606;}
	.st73{fill:url(#XMLID_21_);}
	.st74{fill:url(#XMLID_22_);}
	.st75{fill:url(#XMLID_23_);}
	.st76{fill:url(#XMLID_24_);}
	.st77{fill:url(#XMLID_25_);}
	.st78{fill:url(#XMLID_26_);}
	.st79{fill:url(#XMLID_27_);}
	.st80{fill:url(#XMLID_28_);}
	.st81{fill:url(#XMLID_29_);}
	.st82{fill:url(#XMLID_30_);}
	.st83{fill:url(#XMLID_31_);}
	.st84{opacity:0.3;}
	.st85{opacity:0.0196;fill:#3C5185;}
	.st86{opacity:0.0392;fill:#3C5185;}
	.st87{opacity:0.0588;fill:#3C5185;}
	.st88{opacity:0.0784;fill:#3C5185;}
	.st89{opacity:0.098;fill:#3C5185;}
	.st90{opacity:0.1176;fill:#3C5185;}
	.st91{opacity:0.1373;fill:#3C5185;}
	.st92{opacity:0.1569;fill:#3C5185;}
	.st93{opacity:0.1765;fill:#3C5185;}
	.st94{opacity:0.1961;fill:#3C5185;}
	.st95{opacity:0.2157;fill:#3C5185;}
	.st96{opacity:0.2353;fill:#3C5185;}
	.st97{opacity:0.2549;fill:#3C5185;}
	.st98{opacity:0.2745;fill:#3C5185;}
	.st99{opacity:0.2941;fill:#3C5185;}
	.st100{opacity:0.3137;fill:#3C5185;}
	.st101{opacity:0.3333;fill:#3C5185;}
	.st102{opacity:0.3529;fill:#3C5185;}
	.st103{opacity:0.3725;fill:#3C5185;}
	.st104{opacity:0.3922;fill:#3C5185;}
	.st105{opacity:0.4118;fill:#3C5185;}
	.st106{opacity:0.4314;fill:#3C5185;}
	.st107{opacity:0.451;fill:#3C5185;}
	.st108{opacity:0.4706;fill:#3C5185;}
	.st109{opacity:0.4902;fill:#3C5185;}
	.st110{opacity:0.5098;fill:#3C5185;}
	.st111{opacity:0.5294;fill:#3C5185;}
	.st112{opacity:0.549;fill:#3C5185;}
	.st113{opacity:0.5686;fill:#3C5185;}
	.st114{opacity:0.5882;fill:#3C5185;}
	.st115{opacity:0.6078;fill:#3C5185;}
	.st116{opacity:0.6275;fill:#3C5185;}
	.st117{opacity:0.6471;fill:#3C5185;}
	.st118{opacity:0.6667;fill:#3C5185;}
	.st119{opacity:0.6863;fill:#3C5185;}
	.st120{opacity:0.7059;fill:#3C5185;}
	.st121{opacity:0.7255;fill:#3C5185;}
	.st122{opacity:0.7451;fill:#3C5185;}
	.st123{opacity:0.7647;fill:#3C5185;}
	.st124{opacity:0.7843;fill:#3C5185;}
	.st125{opacity:0.8039;fill:#3C5185;}
	.st126{opacity:0.8235;fill:#3C5185;}
	.st127{opacity:0.8431;fill:#3C5185;}
	.st128{opacity:0.8627;fill:#3C5185;}
	.st129{opacity:0.8824;fill:#3C5185;}
	.st130{opacity:0.902;fill:#3C5185;}
	.st131{opacity:0.9216;fill:#3C5185;}
	.st132{opacity:0.9412;fill:#3C5185;}
	.st133{opacity:0.9608;fill:#3C5185;}
	.st134{opacity:0.9804;fill:#3C5185;}
	.st135{fill:url(#XMLID_32_);}
	.st136{fill:url(#XMLID_33_);}
	.st137{fill:url(#XMLID_34_);}
	.st138{fill:url(#XMLID_35_);}
	.st139{fill:url(#XMLID_36_);}
	.st140{fill:url(#XMLID_37_);}
	.st141{fill:url(#XMLID_38_);}
	.st142{fill:url(#XMLID_39_);}
	.st143{fill:url(#XMLID_40_);}
	.st144{fill:url(#XMLID_41_);}
	.st145{fill:url(#XMLID_42_);}
	.st146{fill:url(#XMLID_43_);}
</style>
<g>
	<g id="XMLID_1673_">
		<g id="XMLID_1753_" class="st0">
			<path id="XMLID_1795_" class="st1" d="M136.89,227.1L15.72,296.36c-2.63,1.51-2.64,5.3-0.01,6.82L204.36,412.1
				c4.82,2.78,10.75,2.79,15.57,0.03l121.17-69.27c2.63-1.51,2.64-5.3,0.02-6.82L152.46,227.13
				C147.65,224.35,141.72,224.34,136.89,227.1z"/>
			<path id="XMLID_1794_" class="st2" d="M137.02,227.21l-120.8,69.05c-2.63,1.5-2.63,5.29-0.01,6.8l188.08,108.59
				c4.8,2.77,10.71,2.78,15.53,0.03l120.8-69.05c2.63-1.5,2.63-5.29,0.01-6.8L152.54,227.24
				C147.74,224.47,141.83,224.46,137.02,227.21z"/>
			<path id="XMLID_1793_" class="st3" d="M137.14,227.32L16.71,296.17c-2.62,1.5-2.63,5.27-0.01,6.78L204.2,411.2
				c4.79,2.76,10.68,2.78,15.48,0.03l120.43-68.84c2.62-1.5,2.63-5.27,0.01-6.78L152.62,227.36
				C147.83,224.59,141.94,224.58,137.14,227.32z"/>
			<path id="XMLID_1792_" class="st4" d="M137.27,227.44L17.21,296.07c-2.61,1.49-2.62,5.25-0.01,6.76l186.93,107.93
				c4.77,2.76,10.65,2.77,15.43,0.03l120.06-68.63c2.61-1.49,2.62-5.25,0.02-6.76L152.7,227.47
				C147.93,224.71,142.05,224.7,137.27,227.44z"/>
			<path id="XMLID_1791_" class="st5" d="M137.39,227.55L17.7,295.97c-2.6,1.49-2.61,5.24-0.01,6.74l186.36,107.6
				c4.76,2.75,10.62,2.76,15.39,0.03l119.69-68.42c2.6-1.49,2.61-5.24,0.01-6.74l-186.36-107.6
				C148.02,224.83,142.16,224.82,137.39,227.55z"/>
			<path id="XMLID_1790_" class="st6" d="M137.52,227.66L18.2,295.87c-2.59,1.48-2.6,5.22-0.01,6.72l185.79,107.26
				c4.74,2.74,10.58,2.75,15.34,0.03l119.33-68.21c2.59-1.48,2.6-5.22,0.01-6.72L152.86,227.69
				C148.12,224.96,142.28,224.94,137.52,227.66z"/>
			<path id="XMLID_1789_" class="st7" d="M137.65,227.77l-118.96,68c-2.59,1.48-2.59,5.2-0.01,6.69L203.89,409.4
				c4.73,2.73,10.55,2.74,15.29,0.03l118.96-68c2.59-1.48,2.59-5.2,0.01-6.69L152.94,227.81
				C148.21,225.08,142.39,225.06,137.65,227.77z"/>
			<path id="XMLID_1788_" class="st8" d="M137.77,227.89L19.19,295.68c-2.58,1.47-2.59,5.19-0.01,6.67l184.64,106.6
				c4.71,2.72,10.52,2.73,15.24,0.03l118.59-67.79c2.58-1.47,2.59-5.19,0.01-6.67l-184.64-106.6
				C148.3,225.2,142.5,225.18,137.77,227.89z"/>
			<path id="XMLID_1787_" class="st9" d="M137.9,228L19.68,295.58c-2.57,1.47-2.58,5.17-0.01,6.65L203.73,408.5
				c4.7,2.71,10.49,2.73,15.2,0.03l118.22-67.58c2.57-1.47,2.58-5.17,0.01-6.65L153.1,228.03C148.4,225.32,142.61,225.31,137.9,228z
				"/>
			<path id="XMLID_1786_" class="st10" d="M138.03,228.11L20.17,295.48c-2.56,1.47-2.57,5.16-0.01,6.63l183.49,105.94
				c4.68,2.7,10.45,2.72,15.15,0.03l117.85-67.37c2.56-1.46,2.57-5.16,0.02-6.63L153.17,228.14
				C148.49,225.44,142.72,225.43,138.03,228.11z"/>
			<path id="XMLID_1785_" class="st11" d="M138.15,228.22L20.67,295.38c-2.55,1.46-2.56,5.14-0.01,6.61L203.57,407.6
				c4.67,2.7,10.42,2.71,15.1,0.03l117.48-67.16c2.55-1.46,2.56-5.14,0.01-6.61L153.25,228.25
				C148.58,225.56,142.83,225.55,138.15,228.22z"/>
			<path id="XMLID_1784_" class="st12" d="M138.28,228.33L21.16,295.28c-2.55,1.46-2.55,5.12-0.01,6.59l182.34,105.28
				c4.65,2.69,10.39,2.7,15.05,0.03l117.11-66.95c2.55-1.46,2.55-5.12,0.01-6.59L153.33,228.37
				C148.68,225.68,142.95,225.67,138.28,228.33z"/>
			<path id="XMLID_1783_" class="st13" d="M138.41,228.45L21.66,295.18c-2.54,1.45-2.55,5.11-0.01,6.57L203.41,406.7
				c4.64,2.68,10.35,2.69,15.01,0.03l116.75-66.74c2.54-1.45,2.55-5.11,0.01-6.57L153.41,228.48
				C148.77,225.8,143.06,225.79,138.41,228.45z"/>
			<path id="XMLID_1782_" class="st14" d="M138.53,228.56L22.15,295.09c-2.53,1.45-2.54,5.09-0.01,6.55l181.2,104.61
				c4.63,2.67,10.32,2.68,14.96,0.03l116.38-66.53c2.53-1.45,2.54-5.09,0.01-6.55l-181.2-104.61
				C148.86,225.92,143.17,225.91,138.53,228.56z"/>
			<path id="XMLID_1781_" class="st15" d="M138.66,228.67L22.65,294.99c-2.52,1.44-2.53,5.08-0.01,6.53L203.26,405.8
				c4.61,2.66,10.29,2.67,14.91,0.03l116.01-66.32c2.52-1.44,2.53-5.08,0.01-6.53L153.57,228.7
				C148.96,226.04,143.28,226.03,138.66,228.67z"/>
			<path id="XMLID_1780_" class="st16" d="M138.78,228.78l-115.64,66.1c-2.51,1.44-2.52,5.06-0.01,6.51l180.05,103.95
				c4.6,2.65,10.26,2.67,14.86,0.03l115.64-66.1c2.51-1.44,2.52-5.06,0.01-6.51L153.65,228.82
				C149.05,226.16,143.39,226.15,138.78,228.78z"/>
			<path id="XMLID_1779_" class="st17" d="M138.91,228.9L23.64,294.79c-2.51,1.43-2.51,5.04-0.01,6.49L203.1,404.9
				c4.58,2.64,10.22,2.66,14.82,0.03l115.27-65.89c2.51-1.43,2.51-5.04,0.01-6.49L153.73,228.93
				C149.14,226.28,143.5,226.27,138.91,228.9z"/>
			<path id="XMLID_1778_" class="st18" d="M139.04,229.01l-114.9,65.68c-2.5,1.43-2.51,5.03-0.01,6.47l178.9,103.29
				c4.57,2.64,10.19,2.65,14.77,0.03l114.9-65.68c2.5-1.43,2.51-5.03,0.01-6.47l-178.9-103.29
				C149.24,226.4,143.61,226.39,139.04,229.01z"/>
			<path id="XMLID_1777_" class="st19" d="M139.16,229.12L24.63,294.59c-2.49,1.42-2.5,5.01-0.01,6.45L202.94,404
				c4.55,2.63,10.16,2.64,14.72,0.03l114.53-65.47c2.49-1.42,2.5-5.01,0.01-6.45L153.88,229.15
				C149.33,226.52,143.73,226.51,139.16,229.12z"/>
			<path id="XMLID_1776_" class="st20" d="M139.29,229.23L25.12,294.49c-2.48,1.42-2.49,5-0.01,6.42l177.75,102.63
				c4.54,2.62,10.13,2.63,14.67,0.03l114.17-65.26c2.48-1.42,2.49-4.99,0.01-6.43L153.96,229.26
				C149.43,226.64,143.84,226.63,139.29,229.23z"/>
			<path id="XMLID_1775_" class="st21" d="M139.42,229.35L25.62,294.4c-2.47,1.41-2.48,4.98-0.01,6.4l177.18,102.29
				c4.52,2.61,10.09,2.62,14.63,0.03l113.8-65.05c2.47-1.41,2.48-4.98,0.01-6.4L154.04,229.38
				C149.52,226.77,143.95,226.75,139.42,229.35z"/>
			<path id="XMLID_1774_" class="st22" d="M139.54,229.46L26.11,294.3c-2.47,1.41-2.47,4.96-0.01,6.38l176.6,101.96
				c4.51,2.6,10.06,2.61,14.58,0.03l113.43-64.84c2.47-1.41,2.47-4.96,0.01-6.38l-176.6-101.96
				C149.61,226.89,144.06,226.87,139.54,229.46z"/>
			<path id="XMLID_1773_" class="st23" d="M139.67,229.57L26.61,294.2c-2.46,1.41-2.47,4.95-0.01,6.36l176.03,101.63
				c4.49,2.59,10.03,2.61,14.53,0.03l113.06-64.63c2.46-1.41,2.47-4.95,0.01-6.36L154.2,229.6
				C149.71,227.01,144.17,226.99,139.67,229.57z"/>
			<path id="XMLID_1772_" class="st24" d="M139.79,229.68L27.1,294.1c-2.45,1.4-2.46,4.93-0.01,6.34l175.46,101.3
				c4.48,2.59,9.99,2.6,14.49,0.03l112.69-64.42c2.45-1.4,2.46-4.93,0.01-6.34l-175.46-101.3
				C149.8,227.13,144.28,227.12,139.79,229.68z"/>
			<path id="XMLID_1771_" class="st25" d="M139.92,229.79L27.6,294c-2.44,1.4-2.45,4.92-0.01,6.32l174.88,100.97
				c4.46,2.58,9.96,2.59,14.44,0.03l112.32-64.21c2.44-1.4,2.45-4.91,0.01-6.32L154.36,229.83
				C149.89,227.25,144.4,227.24,139.92,229.79z"/>
			<path id="XMLID_1770_" class="st26" d="M140.05,229.91l-111.95,64c-2.43,1.39-2.44,4.9-0.01,6.3l174.31,100.64
				c4.45,2.57,9.93,2.58,14.39,0.03l111.95-64c2.43-1.39,2.44-4.9,0.01-6.3L154.44,229.94
				C149.99,227.37,144.51,227.36,140.05,229.91z"/>
			<path id="XMLID_1769_" class="st27" d="M140.17,230.02L28.59,293.81c-2.43,1.39-2.43,4.88-0.01,6.28l173.74,100.31
				c4.44,2.56,9.9,2.57,14.34,0.03l111.59-63.79c2.43-1.39,2.43-4.88,0.01-6.28L154.52,230.05
				C150.08,227.49,144.62,227.48,140.17,230.02z"/>
			<path id="XMLID_1768_" class="st28" d="M140.3,230.13L29.08,293.71c-2.42,1.38-2.43,4.87-0.01,6.26l173.16,99.97
				c4.42,2.55,9.86,2.56,14.3,0.03l111.22-63.58c2.42-1.38,2.43-4.87,0.01-6.26L154.6,230.16
				C150.17,227.61,144.73,227.6,140.3,230.13z"/>
			<path id="XMLID_1767_" class="st29" d="M140.43,230.24L29.58,293.61c-2.41,1.38-2.42,4.85-0.01,6.24l172.59,99.64
				c4.41,2.54,9.83,2.56,14.25,0.03l110.85-63.37c2.41-1.38,2.42-4.85,0.01-6.24l-172.59-99.64
				C150.27,227.73,144.84,227.72,140.43,230.24z"/>
			<path id="XMLID_1766_" class="st30" d="M140.55,230.36L30.07,293.51c-2.4,1.37-2.41,4.83-0.01,6.22l172.01,99.31
				c4.39,2.54,9.8,2.55,14.2,0.03l110.48-63.15c2.4-1.37,2.41-4.83,0.01-6.22l-172.01-99.31
				C150.36,227.85,144.95,227.84,140.55,230.36z"/>
			<path id="XMLID_1765_" class="st31" d="M140.68,230.47L30.57,293.41c-2.39,1.37-2.4,4.82-0.01,6.2l171.44,98.98
				c4.38,2.53,9.77,2.54,14.15,0.03l110.11-62.94c2.39-1.37,2.4-4.82,0.01-6.2L154.83,230.5
				C150.46,227.97,145.07,227.96,140.68,230.47z"/>
			<path id="XMLID_1764_" class="st32" d="M140.8,230.58L31.06,293.31c-2.39,1.36-2.39,4.8-0.01,6.18l170.87,98.65
				c4.36,2.52,9.73,2.53,14.11,0.03l109.74-62.73c2.39-1.36,2.39-4.8,0.01-6.18l-170.87-98.65
				C150.55,228.09,145.18,228.08,140.8,230.58z"/>
			<path id="XMLID_1763_" class="st33" d="M140.93,230.69L31.56,293.22c-2.38,1.36-2.39,4.79-0.01,6.15l170.29,98.32
				c4.35,2.51,9.7,2.52,14.06,0.03l109.37-62.52c2.38-1.36,2.39-4.79,0.01-6.16l-170.29-98.32
				C150.64,228.21,145.29,228.2,140.93,230.69z"/>
			<path id="XMLID_1762_" class="st34" d="M141.06,230.81L32.05,293.12c-2.37,1.36-2.38,4.77-0.01,6.13l169.72,97.99
				c4.33,2.5,9.67,2.51,14.01,0.03l109.01-62.31c2.37-1.36,2.38-4.77,0.01-6.13l-169.72-97.99
				C150.74,228.33,145.4,228.32,141.06,230.81z"/>
			<path id="XMLID_1761_" class="st35" d="M141.18,230.92l-108.64,62.1c-2.36,1.35-2.37,4.75-0.01,6.11l169.14,97.66
				c4.32,2.49,9.64,2.5,13.96,0.03l108.64-62.1c2.36-1.35,2.37-4.75,0.01-6.11l-169.14-97.66
				C150.83,228.45,145.51,228.44,141.18,230.92z"/>
			<path id="XMLID_1760_" class="st36" d="M141.31,231.03L33.04,292.92c-2.35,1.35-2.36,4.74-0.01,6.09l168.57,97.32
				c4.3,2.48,9.6,2.5,13.92,0.03l108.27-61.89c2.35-1.34,2.36-4.74,0.01-6.09l-168.57-97.32
				C150.92,228.58,145.62,228.56,141.31,231.03z"/>
			<path id="XMLID_1759_" class="st37" d="M141.44,231.14l-107.9,61.68c-2.35,1.34-2.35,4.72-0.01,6.07l168,96.99
				c4.29,2.48,9.57,2.49,13.87,0.03l107.9-61.68c2.35-1.34,2.35-4.72,0.01-6.07l-168-96.99
				C151.02,228.7,145.74,228.69,141.44,231.14z"/>
			<path id="XMLID_1758_" class="st38" d="M141.56,231.26L34.03,292.72c-2.34,1.34-2.35,4.71-0.01,6.05l167.42,96.66
				c4.27,2.47,9.54,2.48,13.82,0.03L322.79,334c2.34-1.34,2.34-4.71,0.01-6.05l-167.42-96.66
				C151.11,228.82,145.85,228.81,141.56,231.26z"/>
			<path id="XMLID_1757_" class="st39" d="M141.69,231.37L34.53,292.63c-2.33,1.33-2.34,4.69-0.01,6.03l166.85,96.33
				c4.26,2.46,9.5,2.47,13.77,0.03l107.16-61.26c2.33-1.33,2.34-4.69,0.01-6.03L155.46,231.4
				C151.2,228.94,145.96,228.93,141.69,231.37z"/>
			<path id="XMLID_1756_" class="st40" d="M141.82,231.48L35.02,292.53c-2.32,1.33-2.33,4.67-0.01,6.01l166.27,96
				c4.24,2.45,9.47,2.46,13.73,0.03l106.79-61.05c2.32-1.33,2.33-4.67,0.01-6.01l-166.27-96
				C151.3,229.06,146.07,229.05,141.82,231.48z"/>
			<path id="XMLID_1755_" class="st41" d="M141.94,231.59L35.52,292.43c-2.31,1.32-2.32,4.66-0.01,5.99l165.7,95.67
				c4.23,2.44,9.44,2.45,13.68,0.03l106.42-60.84c2.31-1.32,2.32-4.66,0.01-5.99l-165.7-95.67
				C151.39,229.18,146.18,229.17,141.94,231.59z"/>
			<path id="XMLID_1754_" class="st42" d="M142.07,231.7L36.01,292.33c-2.31,1.32-2.31,4.64-0.01,5.97l165.13,95.34
				c4.22,2.43,9.41,2.45,13.63,0.03l106.06-60.63c2.31-1.32,2.31-4.64,0.01-5.97L155.7,231.73
				C151.48,229.3,146.29,229.29,142.07,231.7z"/>
		</g>
		<g id="XMLID_1674_">
			<path id="XMLID_1752_" class="st43" d="M338.22,176.45l-183-105.66c-2.47-1.43-5.56,0.36-5.56,3.21v137.92
				c0,2.88,1.54,5.54,4.03,6.98l183,105.66c2.47,1.43,5.56-0.36,5.56-3.21V183.43C342.25,180.55,340.71,177.89,338.22,176.45z"/>
			<g id="XMLID_1751_">
				<path class="st44" d="M335.85,178.03l-183-105.66c-2.47-1.43-5.56,0.36-5.56,3.21V213.5c0,2.88,1.54,5.54,4.03,6.98l183,105.66
					c2.47,1.43,5.56-0.36,5.56-3.21V185.01C339.88,182.13,338.35,179.47,335.85,178.03z"/>
				<linearGradient id="SVGID_1_" gradientUnits="userSpaceOnUse" x1="147.2883" y1="199.2546" x2="339.8844" y2="199.2546">
					<stop  offset="0" style="stop-color:#DCDFFB"/>
					<stop  offset="1" style="stop-color:#F3F3FA"/>
				</linearGradient>
				<path class="st45" d="M151,72.12c0.6,0,1.18,0.16,1.72,0.47l183,105.66c2.41,1.39,3.91,3.98,3.91,6.76v137.92
					c0,1.91-1.55,3.46-3.46,3.46c-0.6,0-1.18-0.16-1.72-0.47l-183-105.66c-2.41-1.39-3.91-3.98-3.91-6.76V75.58
					C147.54,73.67,149.09,72.12,151,72.12 M151,71.87c-1.94,0-3.71,1.55-3.71,3.71V213.5c0,2.88,1.54,5.54,4.03,6.98l183,105.66
					c0.6,0.35,1.23,0.5,1.85,0.5c1.94,0,3.71-1.55,3.71-3.71V185.01c0-2.88-1.54-5.54-4.03-6.98l-183-105.66
					C152.25,72.03,151.62,71.87,151,71.87L151,71.87z"/>
			</g>
			<polygon id="XMLID_1750_" class="st46" points="329.04,186.74 156.83,86.74 156.83,212.9 329.04,312.9 			"/>
			<linearGradient id="XMLID_2_" gradientUnits="userSpaceOnUse" x1="82.9689" y1="306.9012" x2="301.708" y2="325.6838">
				<stop  offset="0" style="stop-color:#DCDFFB"/>
				<stop  offset="1" style="stop-color:#F3F3FA"/>
			</linearGradient>
			<path id="XMLID_1749_" class="st47" d="M139.87,227.13L22.68,288.94c0,0-0.65,9.15,1.86,10.59L204.08,403.2
				c4.58,2.65,10.23,2.66,14.82,0.03l115.32-65.92c4.77-2.96,1.89-10.62,1.89-10.62l-181.42-99.54
				C150.11,224.51,144.46,224.5,139.87,227.13z"/>
			<path id="XMLID_1748_" class="st44" d="M139.87,220.03L24.55,285.95c-2.51,1.43-2.51,5.05-0.01,6.49l179.55,103.66
				c4.58,2.65,10.23,2.66,14.82,0.03l115.32-65.92c2.51-1.43,2.52-5.05,0.01-6.49L154.69,220.06
				C150.11,217.42,144.46,217.4,139.87,220.03z"/>
			<g>
				<path id="XMLID_1747_" class="st48" d="M129.64,305.39l-30.4,17.38c-0.66,0.38-0.66,1.33,0,1.71l47.33,27.32
					c1.21,0.7,2.7,0.7,3.91,0.01l30.4-17.38c0.66-0.38,0.66-1.33,0-1.71l-47.33-27.32C132.34,304.7,130.86,304.7,129.64,305.39z"/>
				<path id="XMLID_1746_" class="st48" d="M152.58,230.1l9.94,5.74c0.4,0.23,0.39,0.8,0,1.03l-4.94,2.84
					c-0.4,0.23-0.88,0.23-1.28,0l-9.94-5.74c-0.4-0.23-0.4-0.8,0-1.03l4.94-2.84C151.7,229.87,152.19,229.87,152.58,230.1z"/>
				<path id="XMLID_1745_" class="st48" d="M167.14,238.77l9.94,5.74c0.39,0.23,0.39,0.8,0,1.03l-4.94,2.84
					c-0.4,0.23-0.88,0.23-1.28,0l-9.94-5.74c-0.4-0.23-0.39-0.8,0-1.03l4.94-2.84C166.26,238.55,166.75,238.55,167.14,238.77z"/>
				<path id="XMLID_1744_" class="st48" d="M181.75,246.99l9.94,5.74c0.4,0.23,0.4,0.8,0,1.03l-4.94,2.84
					c-0.4,0.23-0.88,0.23-1.28,0l-9.94-5.74c-0.4-0.23-0.4-0.8,0-1.03l4.94-2.84C180.87,246.76,181.36,246.76,181.75,246.99z"/>
				<path id="XMLID_1743_" class="st48" d="M196.81,255.47l9.94,5.74c0.4,0.23,0.4,0.8,0,1.03l-4.94,2.84
					c-0.4,0.23-0.88,0.23-1.28,0l-9.94-5.74c-0.4-0.23-0.4-0.8,0-1.03l4.94-2.84C195.92,255.24,196.41,255.24,196.81,255.47z"/>
				<path id="XMLID_1742_" class="st48" d="M211.27,263.52l9.94,5.74c0.4,0.23,0.39,0.8,0,1.03l-4.94,2.84
					c-0.4,0.23-0.88,0.23-1.28,0l-9.94-5.74c-0.4-0.23-0.39-0.8,0-1.03l4.94-2.84C210.38,263.3,210.87,263.3,211.27,263.52z"/>
				<path id="XMLID_1741_" class="st48" d="M225.33,272.2l9.94,5.74c0.4,0.23,0.39,0.8,0,1.03l-4.94,2.84
					c-0.4,0.23-0.88,0.23-1.28,0l-9.94-5.74c-0.4-0.23-0.4-0.8,0-1.03l4.94-2.84C224.44,271.97,224.93,271.97,225.33,272.2z"/>
				<path id="XMLID_1740_" class="st48" d="M240.05,280.31l9.94,5.74c0.4,0.23,0.39,0.8,0,1.03l-4.94,2.84
					c-0.4,0.23-0.88,0.23-1.28,0l-9.94-5.74c-0.4-0.23-0.4-0.8,0-1.03l4.94-2.84C239.16,280.08,239.65,280.08,240.05,280.31z"/>
				<path id="XMLID_1739_" class="st48" d="M254.55,288.95l9.94,5.74c0.39,0.23,0.39,0.8,0,1.03l-4.94,2.84
					c-0.4,0.23-0.88,0.23-1.28,0l-9.94-5.74c-0.4-0.23-0.39-0.8,0-1.03l4.94-2.84C253.66,288.72,254.15,288.72,254.55,288.95z"/>
				<path id="XMLID_1738_" class="st48" d="M268.8,297.36l9.94,5.74c0.4,0.23,0.39,0.8,0,1.03l-4.94,2.84
					c-0.4,0.23-0.88,0.23-1.28,0l-9.94-5.74c-0.4-0.23-0.4-0.8,0-1.03l4.94-2.84C267.92,297.13,268.41,297.13,268.8,297.36z"/>
				<path id="XMLID_1737_" class="st48" d="M283.84,306.02l9.94,5.74c0.4,0.23,0.4,0.8,0,1.03l-4.94,2.84
					c-0.4,0.23-0.88,0.23-1.28,0l-9.94-5.74c-0.4-0.23-0.4-0.8,0-1.03l4.94-2.84C282.95,305.79,283.44,305.79,283.84,306.02z"/>
				<path id="XMLID_1736_" class="st48" d="M298.43,314.21l9.94,5.74c0.4,0.23,0.4,0.8,0,1.03l-4.94,2.84
					c-0.4,0.23-0.88,0.23-1.28,0l-9.94-5.74c-0.4-0.23-0.39-0.8,0-1.03l4.94-2.84C297.55,313.98,298.04,313.98,298.43,314.21z"/>
				<g id="XMLID_1724_" class="st49">
					<path id="XMLID_1735_" class="st43" d="M132.37,240.91l6.73-3.94c0.87-0.51,1.95-0.51,2.83-0.01l6.58,3.8
						c0.92,0.53,0.94,1.85,0.03,2.41l-6.54,4.01c-0.88,0.54-1.98,0.56-2.88,0.04l-6.74-3.88
						C131.45,242.8,131.45,241.45,132.37,240.91z"/>
					<path id="XMLID_1734_" class="st43" d="M147.45,249.58l6.73-3.94c0.87-0.51,1.95-0.51,2.83-0.01l6.57,3.8
						c0.92,0.53,0.94,1.85,0.03,2.41l-6.54,4.01c-0.88,0.54-1.98,0.56-2.88,0.04l-6.74-3.88
						C146.52,251.47,146.52,250.13,147.45,249.58z"/>
					<path id="XMLID_1733_" class="st43" d="M162.08,257.79l6.73-3.94c0.87-0.51,1.95-0.51,2.83-0.01l6.57,3.8
						c0.92,0.53,0.94,1.85,0.03,2.41l-6.54,4.01c-0.88,0.54-1.98,0.56-2.88,0.04l-6.74-3.88
						C161.16,259.68,161.15,258.34,162.08,257.79z"/>
					<path id="XMLID_1732_" class="st43" d="M177.65,266.27l6.73-3.94c0.87-0.51,1.95-0.52,2.83-0.01l6.57,3.8
						c0.92,0.53,0.94,1.85,0.03,2.41l-6.54,4.01c-0.88,0.54-1.98,0.56-2.88,0.04l-6.74-3.88
						C176.72,268.16,176.72,266.82,177.65,266.27z"/>
					<path id="XMLID_1731_" class="st43" d="M191.36,274.33l6.73-3.94c0.87-0.51,1.95-0.51,2.83-0.01l6.57,3.8
						c0.92,0.53,0.94,1.85,0.03,2.41l-6.54,4.01c-0.88,0.54-1.98,0.56-2.88,0.04l-6.74-3.88
						C190.44,276.22,190.43,274.88,191.36,274.33z"/>
					<path id="XMLID_1730_" class="st43" d="M205.3,282.96l6.73-3.94c0.87-0.51,1.95-0.51,2.83-0.01l6.57,3.8
						c0.92,0.53,0.94,1.85,0.03,2.41l-6.54,4.01c-0.88,0.54-1.98,0.56-2.88,0.04l-6.74-3.88
						C204.37,284.85,204.37,283.5,205.3,282.96z"/>
					<path id="XMLID_1729_" class="st43" d="M220.19,291.12l6.73-3.94c0.87-0.51,1.95-0.52,2.83-0.01l6.57,3.8
						c0.92,0.53,0.94,1.85,0.03,2.41l-6.54,4.01c-0.88,0.54-1.98,0.56-2.88,0.04l-6.74-3.88
						C219.26,293.01,219.26,291.67,220.19,291.12z"/>
					<path id="XMLID_1728_" class="st43" d="M234.76,299.38l6.73-3.94c0.87-0.51,1.95-0.51,2.83-0.01l6.57,3.8
						c0.92,0.53,0.94,1.85,0.03,2.41l-6.54,4.01c-0.88,0.54-1.98,0.56-2.88,0.04l-6.74-3.88
						C233.84,301.27,233.83,299.93,234.76,299.38z"/>
					<path id="XMLID_1727_" class="st43" d="M249.09,308.17l6.73-3.94c0.87-0.51,1.95-0.52,2.83-0.01l6.58,3.8
						c0.92,0.53,0.94,1.85,0.03,2.41l-6.54,4.01c-0.88,0.54-1.98,0.56-2.88,0.04l-6.74-3.88
						C248.16,310.06,248.16,308.71,249.09,308.17z"/>
					<path id="XMLID_1726_" class="st43" d="M264.7,317.36l6.73-3.94c0.87-0.51,1.95-0.52,2.83-0.01l6.57,3.8
						c0.92,0.53,0.94,1.85,0.03,2.41l-6.54,4.01c-0.88,0.54-1.98,0.56-2.88,0.04l-6.74-3.88
						C263.77,319.25,263.77,317.91,264.7,317.36z"/>
					<path id="XMLID_1725_" class="st43" d="M278.81,325.02l6.73-3.94c0.87-0.51,1.95-0.52,2.83-0.01l6.57,3.8
						c0.92,0.53,0.94,1.85,0.03,2.41l-6.54,4.01c-0.88,0.54-1.98,0.56-2.88,0.04l-6.74-3.88
						C277.89,326.91,277.88,325.57,278.81,325.02z"/>
				</g>
				<g id="XMLID_1712_" class="st49">
					<path id="XMLID_1723_" class="st43" d="M117.38,249.07l6.73-3.94c0.87-0.51,1.95-0.52,2.83-0.01l6.57,3.8
						c0.92,0.53,0.94,1.85,0.03,2.41l-6.54,4.01c-0.88,0.54-1.98,0.56-2.88,0.04l-6.74-3.88
						C116.45,250.95,116.45,249.61,117.38,249.07z"/>
					<path id="XMLID_1722_" class="st43" d="M132.45,257.74l6.73-3.94c0.87-0.51,1.95-0.51,2.83-0.01l6.57,3.8
						c0.92,0.53,0.94,1.85,0.03,2.41l-6.54,4.01c-0.88,0.54-1.98,0.56-2.88,0.04l-6.74-3.88
						C131.53,259.63,131.52,258.28,132.45,257.74z"/>
					<path id="XMLID_1721_" class="st43" d="M147.08,265.95l6.73-3.94c0.87-0.51,1.95-0.51,2.83-0.01l6.58,3.8
						c0.92,0.53,0.94,1.85,0.03,2.41l-6.54,4.01c-0.88,0.54-1.98,0.56-2.88,0.04l-6.74-3.88
						C146.16,267.84,146.15,266.49,147.08,265.95z"/>
					<path id="XMLID_1720_" class="st43" d="M162.65,274.43l6.73-3.94c0.87-0.51,1.95-0.51,2.83-0.01l6.57,3.8
						c0.92,0.53,0.94,1.85,0.03,2.41l-6.54,4.01c-0.88,0.54-1.98,0.56-2.88,0.04l-6.74-3.88
						C161.73,276.32,161.72,274.97,162.65,274.43z"/>
					<path id="XMLID_1719_" class="st43" d="M176.36,282.49l6.73-3.94c0.87-0.51,1.95-0.51,2.83-0.01l6.57,3.8
						c0.92,0.53,0.94,1.85,0.03,2.41l-6.54,4.01c-0.88,0.54-1.98,0.56-2.88,0.04l-6.74-3.88
						C175.44,284.38,175.44,283.03,176.36,282.49z"/>
					<path id="XMLID_1718_" class="st43" d="M190.3,291.12l6.73-3.94c0.87-0.51,1.95-0.51,2.83-0.01l6.57,3.8
						c0.92,0.53,0.94,1.85,0.03,2.41l-6.54,4.01c-0.88,0.54-1.98,0.56-2.88,0.04l-6.74-3.88C189.37,293,189.37,291.66,190.3,291.12z
						"/>
					<path id="XMLID_1717_" class="st43" d="M205.19,299.28l6.73-3.94c0.87-0.51,1.95-0.51,2.83-0.01l6.57,3.8
						c0.92,0.53,0.94,1.85,0.03,2.41l-6.54,4.01c-0.88,0.54-1.98,0.56-2.88,0.04l-6.74-3.88
						C204.27,301.16,204.26,299.82,205.19,299.28z"/>
					<path id="XMLID_1716_" class="st43" d="M219.76,307.54l6.73-3.94c0.87-0.51,1.95-0.51,2.83-0.01l6.57,3.8
						c0.92,0.53,0.94,1.85,0.03,2.41l-6.54,4.01c-0.88,0.54-1.99,0.56-2.88,0.04l-6.74-3.88
						C218.84,309.43,218.83,308.08,219.76,307.54z"/>
					<path id="XMLID_1715_" class="st43" d="M234.09,316.33l6.73-3.94c0.87-0.51,1.95-0.51,2.83-0.01l6.58,3.8
						c0.92,0.53,0.94,1.85,0.03,2.41l-6.54,4.01c-0.88,0.54-1.98,0.56-2.88,0.04l-6.74-3.88
						C233.17,318.21,233.16,316.87,234.09,316.33z"/>
					<path id="XMLID_1714_" class="st43" d="M249.7,325.52l6.73-3.94c0.87-0.51,1.95-0.51,2.83-0.01l6.57,3.8
						c0.92,0.53,0.94,1.85,0.03,2.41l-6.54,4.01c-0.88,0.54-1.98,0.56-2.88,0.04l-6.74-3.88
						C248.78,327.41,248.77,326.06,249.7,325.52z"/>
					<path id="XMLID_1713_" class="st43" d="M263.81,333.18l6.73-3.94c0.87-0.51,1.95-0.52,2.83-0.01l6.57,3.8
						c0.92,0.53,0.94,1.85,0.03,2.41l-6.54,4.01c-0.88,0.54-1.98,0.56-2.88,0.04l-6.74-3.88
						C262.89,335.06,262.89,333.72,263.81,333.18z"/>
				</g>
				<g id="XMLID_1700_" class="st49">
					<path id="XMLID_1711_" class="st43" d="M102.38,257.22l6.73-3.94c0.87-0.51,1.95-0.51,2.83-0.01l6.57,3.8
						c0.92,0.53,0.94,1.85,0.03,2.41l-6.54,4.01c-0.88,0.54-1.98,0.56-2.88,0.04l-6.74-3.88
						C101.45,259.11,101.45,257.77,102.38,257.22z"/>
					<path id="XMLID_1710_" class="st43" d="M117.45,265.9l6.73-3.94c0.87-0.51,1.95-0.51,2.83-0.01l6.57,3.8
						c0.92,0.53,0.94,1.85,0.03,2.41l-6.54,4.01c-0.88,0.54-1.98,0.56-2.88,0.04l-6.74-3.88
						C116.53,267.78,116.52,266.44,117.45,265.9z"/>
					<path id="XMLID_1709_" class="st43" d="M132.08,274.11l6.73-3.94c0.87-0.51,1.95-0.51,2.83-0.01l6.57,3.8
						c0.92,0.53,0.94,1.85,0.03,2.41l-6.54,4.01c-0.88,0.54-1.98,0.56-2.88,0.04l-6.74-3.88
						C131.16,275.99,131.15,274.65,132.08,274.11z"/>
					<path id="XMLID_1708_" class="st43" d="M147.65,282.59l6.73-3.94c0.87-0.51,1.95-0.52,2.83-0.01l6.57,3.8
						c0.92,0.53,0.94,1.85,0.03,2.41l-6.54,4.01c-0.88,0.54-1.98,0.56-2.88,0.04l-6.74-3.88
						C146.73,284.47,146.72,283.13,147.65,282.59z"/>
					<path id="XMLID_1707_" class="st43" d="M161.36,290.65l6.73-3.94c0.87-0.51,1.95-0.51,2.83-0.01l6.58,3.8
						c0.92,0.53,0.94,1.85,0.03,2.41l-6.54,4.01c-0.88,0.54-1.98,0.56-2.88,0.04l-6.74-3.88
						C160.44,292.53,160.44,291.19,161.36,290.65z"/>
					<path id="XMLID_1706_" class="st43" d="M175.3,299.27l6.73-3.94c0.87-0.51,1.95-0.51,2.83-0.01l6.57,3.8
						c0.92,0.53,0.94,1.85,0.03,2.41l-6.54,4.01c-0.88,0.54-1.98,0.56-2.88,0.04l-6.74-3.88
						C174.38,301.16,174.37,299.82,175.3,299.27z"/>
					<path id="XMLID_1705_" class="st43" d="M190.19,307.43l6.73-3.94c0.87-0.51,1.95-0.51,2.83-0.01l6.57,3.8
						c0.92,0.53,0.94,1.85,0.03,2.41l-6.54,4.01c-0.88,0.54-1.98,0.56-2.88,0.04l-6.74-3.88
						C189.27,309.32,189.26,307.98,190.19,307.43z"/>
					<path id="XMLID_1704_" class="st43" d="M204.76,315.7l6.73-3.94c0.87-0.51,1.95-0.51,2.83-0.01l6.58,3.8
						c0.92,0.53,0.94,1.85,0.03,2.41l-6.54,4.01c-0.88,0.54-1.98,0.56-2.88,0.04l-6.74-3.88
						C203.84,317.58,203.83,316.24,204.76,315.7z"/>
					<path id="XMLID_1703_" class="st43" d="M219.09,324.48l6.73-3.94c0.87-0.51,1.95-0.52,2.83-0.01l6.57,3.8
						c0.92,0.53,0.94,1.85,0.03,2.41l-6.54,4.01c-0.88,0.54-1.98,0.55-2.88,0.04l-6.74-3.88
						C218.17,326.37,218.16,325.03,219.09,324.48z"/>
					<path id="XMLID_1702_" class="st43" d="M234.7,333.68l6.73-3.94c0.87-0.51,1.95-0.51,2.83-0.01l6.58,3.8
						c0.92,0.53,0.94,1.85,0.03,2.41l-6.54,4.01c-0.88,0.54-1.98,0.56-2.88,0.04l-6.74-3.88
						C233.78,335.56,233.77,334.22,234.7,333.68z"/>
					<path id="XMLID_1701_" class="st43" d="M248.82,341.33l6.73-3.94c0.87-0.51,1.95-0.52,2.83-0.01l6.57,3.8
						c0.92,0.53,0.94,1.85,0.03,2.41l-6.54,4.01c-0.88,0.54-1.98,0.56-2.88,0.04l-6.74-3.88
						C247.89,343.22,247.89,341.88,248.82,341.33z"/>
				</g>
				<g id="XMLID_1675_" class="st49">
					<path id="XMLID_1699_" class="st43" d="M87.38,265.38l6.73-3.94c0.87-0.51,1.95-0.52,2.83-0.01l6.58,3.8
						c0.92,0.53,0.94,1.85,0.03,2.41l-6.54,4.01c-0.88,0.54-1.98,0.56-2.88,0.04l-6.74-3.88C86.46,267.26,86.45,265.92,87.38,265.38
						z"/>
					<path id="XMLID_1698_" class="st43" d="M102.45,274.05l6.73-3.94c0.87-0.51,1.95-0.52,2.83-0.01l6.57,3.8
						c0.92,0.53,0.94,1.85,0.03,2.41l-6.54,4.01c-0.88,0.54-1.98,0.56-2.88,0.04l-6.74-3.88
						C101.53,275.94,101.52,274.59,102.45,274.05z"/>
					<path id="XMLID_1697_" class="st43" d="M117.08,282.26l6.73-3.94c0.87-0.51,1.95-0.52,2.83-0.01l6.57,3.8
						c0.92,0.53,0.94,1.85,0.03,2.41l-6.54,4.01c-0.88,0.54-1.98,0.56-2.88,0.04l-6.74-3.88
						C116.16,284.15,116.16,282.81,117.08,282.26z"/>
					<path id="XMLID_1681_" class="st43" d="M132.65,290.74l6.73-3.94c0.87-0.51,1.95-0.51,2.83-0.01l6.57,3.8
						c0.92,0.53,0.94,1.85,0.03,2.41l-6.54,4.01c-0.88,0.54-1.98,0.56-2.88,0.04l-6.74-3.88
						C131.73,292.63,131.72,291.29,132.65,290.74z"/>
					<path id="XMLID_1680_" class="st43" d="M147.65,299.7l6.73-3.94c0.87-0.51,1.95-0.51,2.83-0.01l34.22,19.77
						c0.92,0.53,0.94,1.85,0.03,2.41l-6.54,4.01c-0.88,0.54-1.98,0.56-2.88,0.04l-34.39-19.86
						C146.73,301.58,146.72,300.24,147.65,299.7z"/>
					<path id="XMLID_1679_" class="st43" d="M189.76,323.85l6.73-3.94c0.87-0.51,1.95-0.51,2.83-0.01l6.57,3.8
						c0.92,0.53,0.94,1.85,0.03,2.41l-6.54,4.01c-0.88,0.54-1.98,0.56-2.88,0.04l-6.74-3.88
						C188.84,325.74,188.84,324.39,189.76,323.85z"/>
					<path id="XMLID_1678_" class="st43" d="M204.09,332.64l6.73-3.94c0.87-0.51,1.95-0.51,2.83-0.01l6.57,3.8
						c0.92,0.53,0.94,1.85,0.03,2.41l-6.54,4.01c-0.88,0.54-1.98,0.56-2.88,0.04l-6.74-3.88
						C203.17,334.52,203.16,333.18,204.09,332.64z"/>
					<path id="XMLID_1677_" class="st43" d="M219.7,341.83l6.73-3.94c0.87-0.51,1.95-0.51,2.83-0.01l6.57,3.8
						c0.92,0.53,0.94,1.85,0.03,2.41l-6.54,4.01c-0.88,0.54-1.98,0.56-2.88,0.04l-6.74-3.88
						C218.78,343.72,218.77,342.37,219.7,341.83z"/>
					<path id="XMLID_1676_" class="st43" d="M233.82,349.49l6.73-3.94c0.87-0.51,1.95-0.52,2.83-0.01l6.58,3.8
						c0.92,0.53,0.94,1.85,0.03,2.41l-6.54,4.01c-0.88,0.54-1.98,0.56-2.88,0.04l-6.74-3.88
						C232.89,351.38,232.89,350.03,233.82,349.49z"/>
				</g>
			</g>
		</g>
	</g>
	<g id="XMLID_1643_">
		<path id="XMLID_1672_" class="st50" d="M325.34,96.14c0-2.44-1.73-5.45-3.84-6.68L168.02,0.4c-0.88-0.51-1.96-0.54-2.87-0.07
			l-2.39,1.23l1.09,208.91c0,2.45,1.73,5.45,3.84,6.68l155.26,92.31l2.38,1.38V96.14z"/>
		<path id="XMLID_1671_" class="st51" d="M322.96,97.89c0-2.45-1.73-5.45-3.84-6.68L165.32,1.91c-2.11-1.23-3.84-0.23-3.84,2.21
			v211.57l161.48,93.77V97.89z"/>
		<linearGradient id="XMLID_4_" gradientUnits="userSpaceOnUse" x1="161.4745" y1="54.6563" x2="322.9554" y2="54.6563">
			<stop  offset="0" style="stop-color:#8647E1"/>
			<stop  offset="1" style="stop-color:#B78FED"/>
		</linearGradient>
		<path id="XMLID_1670_" class="st52" d="M319.11,91.21L165.32,1.91c-2.11-1.23-3.84-0.23-3.84,2.21v10.04l161.48,93.77V97.89
			C322.96,95.45,321.23,92.44,319.11,91.21z"/>
		<path id="XMLID_1669_" class="st44" d="M170.01,10.34c-0.69-0.4-1.25-0.07-1.25,0.73c0,0.8,0.56,1.77,1.25,2.17
			c0.69,0.4,1.25,0.07,1.25-0.73C171.26,11.72,170.7,10.74,170.01,10.34z"/>
		<path id="XMLID_1668_" class="st44" d="M175.47,13.58c-0.69-0.4-1.25-0.07-1.25,0.73s0.56,1.77,1.25,2.17
			c0.69,0.4,1.25,0.07,1.25-0.73C176.73,14.96,176.16,13.98,175.47,13.58z"/>
		<path id="XMLID_1667_" class="st44" d="M180.94,16.82c-0.69-0.4-1.25-0.07-1.25,0.73c0,0.8,0.56,1.77,1.25,2.17
			c0.69,0.4,1.25,0.07,1.25-0.73C182.19,18.2,181.62,17.22,180.94,16.82z"/>
		<polygon id="XMLID_1666_" class="st48" points="205.04,75.36 205.04,80.05 314.83,144.25 314.83,139.6 		"/>
		<polygon id="XMLID_1665_" class="st48" points="205.04,88.06 205.04,92.74 314.83,156.95 314.83,152.29 		"/>
		<polygon id="XMLID_1664_" class="st48" points="205.04,100.75 205.04,105.44 271.03,144.25 271.03,139.6 		"/>
		<polygon id="XMLID_1663_" class="st48" points="205.04,135.99 205.04,140.68 314.83,204.89 314.83,200.23 		"/>
		<polygon id="XMLID_1662_" class="st48" points="205.04,148.69 205.04,153.38 314.83,217.58 314.83,212.93 		"/>
		<polygon id="XMLID_1659_" class="st48" points="205.04,161.39 205.04,166.07 271.03,204.89 271.03,200.23 		"/>
		<polygon id="XMLID_1658_" class="st48" points="205.04,196.63 205.04,201.31 314.83,265.52 314.83,260.86 		"/>
		<polygon id="XMLID_1657_" class="st48" points="205.04,209.33 205.04,214.01 314.83,278.22 314.83,273.56 		"/>
		<polygon id="XMLID_1656_" class="st48" points="205.04,222.02 205.04,226.71 271.03,265.52 271.03,260.86 		"/>
		<g id="XMLID_1652_">
			<linearGradient id="XMLID_5_" gradientUnits="userSpaceOnUse" x1="174.2206" y1="80.9947" x2="198.4508" y2="80.9947">
				<stop  offset="0" style="stop-color:#8647E1"/>
				<stop  offset="1" style="stop-color:#B78FED"/>
			</linearGradient>
			<path id="XMLID_1655_" class="st53" d="M186.34,67.01c-6.66-3.85-12.11-0.7-12.11,6.99s5.45,17.14,12.11,20.98
				c6.66,3.85,12.12,0.7,12.12-6.99C198.45,80.3,193,70.85,186.34,67.01z"/>
			<g id="XMLID_1653_">
				<path id="XMLID_1654_" class="st44" d="M184.56,87.64l-4.32-5.24c-0.59-0.72-0.49-1.78,0.23-2.37c0.72-0.59,1.78-0.49,2.37,0.23
					l2.22,2.69l5.44-4.29c0.73-0.57,1.79-0.45,2.37,0.28c0.58,0.73,0.45,1.79-0.28,2.37L184.56,87.64z"/>
			</g>
		</g>
		<g id="XMLID_1648_">
			<linearGradient id="XMLID_6_" gradientUnits="userSpaceOnUse" x1="174.2206" y1="141.6292" x2="198.4508" y2="141.6292">
				<stop  offset="0" style="stop-color:#8647E1"/>
				<stop  offset="1" style="stop-color:#B78FED"/>
			</linearGradient>
			<path id="XMLID_1651_" class="st54" d="M186.34,127.64c-6.66-3.85-12.11-0.7-12.11,6.99s5.45,17.14,12.11,20.98
				c6.66,3.85,12.12,0.7,12.12-6.99C198.45,140.93,193,131.49,186.34,127.64z"/>
			<g id="XMLID_1649_">
				<path id="XMLID_1650_" class="st44" d="M184.56,148.27l-4.32-5.24c-0.59-0.72-0.49-1.78,0.23-2.37
					c0.72-0.59,1.78-0.49,2.37,0.23l2.22,2.69l5.44-4.29c0.73-0.57,1.79-0.45,2.37,0.28c0.58,0.73,0.45,1.79-0.28,2.37
					L184.56,148.27z"/>
			</g>
		</g>
		<g id="XMLID_1644_">
			<linearGradient id="XMLID_7_" gradientUnits="userSpaceOnUse" x1="174.2206" y1="202.2637" x2="198.4508" y2="202.2637">
				<stop  offset="0" style="stop-color:#8647E1"/>
				<stop  offset="1" style="stop-color:#B78FED"/>
			</linearGradient>
			<path id="XMLID_1647_" class="st55" d="M186.34,188.27c-6.66-3.85-12.11-0.7-12.11,7c0,7.69,5.45,17.14,12.11,20.98
				c6.66,3.85,12.12,0.7,12.12-6.99C198.45,201.56,193,192.12,186.34,188.27z"/>
			<g id="XMLID_1645_">
				<path id="XMLID_1646_" class="st44" d="M184.56,208.91l-4.32-5.24c-0.59-0.72-0.49-1.78,0.23-2.37
					c0.72-0.59,1.78-0.49,2.37,0.23l2.22,2.69l5.44-4.29c0.73-0.57,1.79-0.45,2.37,0.28c0.58,0.73,0.45,1.79-0.28,2.37
					L184.56,208.91z"/>
			</g>
		</g>
	</g>
	<path class="st56" d="M325.45,136.6L247.7,91.83c-3.14-1.81-7.09-1.38-9.77,1.06c-0.19,0.17-0.29,0.41-0.44,0.61
		c-0.03,0.03-0.04,0.07-0.07,0.1c-0.23,0.33-0.42,0.66-0.54,1.04c-0.09,0.27-0.15,0.57-0.19,0.89c-0.01,0.1-0.06,0.19-0.06,0.28
		v0.36v13.57v108.57v0c0,3.11,2.2,6.92,4.9,8.48l18.03,10.38l65.88,37.95V136.6z"/>
	<g id="XMLID_1614_">
		<path id="XMLID_1642_" class="st50" d="M244.43,88.02L244.43,88.02c2.68-2.44,6.63-2.87,9.77-1.06l126.19,72.66
			c2.69,1.55,4.89,5.37,4.89,8.48v122.21c0,2.96-1.98,5.56-4.84,6.35l0,0c-1.15,0.32-2.38,0.16-3.42-0.44l-128.99-74.28
			c-2.69-1.55-4.9-5.37-4.9-8.48V90.95C243.13,89.84,243.6,88.77,244.43,88.02z"/>
		<path id="XMLID_1641_" class="st51" d="M243.13,91.31c0-3.11,2.2-4.38,4.9-2.83l128.4,73.96c2.69,1.55,4.9,5.37,4.9,8.48v122.14
			c0,3.11-2.2,4.38-4.9,2.83l-128.4-73.96c-2.69-1.55-4.9-5.37-4.9-8.48V91.31z"/>
		<linearGradient id="XMLID_8_" gradientUnits="userSpaceOnUse" x1="243.1312" y1="136.1714" x2="381.3182" y2="136.1714">
			<stop  offset="0" style="stop-color:#8647E1"/>
			<stop  offset="1" style="stop-color:#B78FED"/>
		</linearGradient>
		<path id="XMLID_1640_" class="st57" d="M376.42,162.45l-128.4-73.96c-2.69-1.55-4.9-0.28-4.9,2.83v13.57l138.19,79.63v-13.59
			C381.32,167.82,379.12,164.01,376.42,162.45z"/>
		<polygon id="XMLID_1639_" class="st48" points="250.06,117.16 250.06,145.33 274.9,159.51 274.9,131.34 		"/>
		<polygon id="XMLID_1638_" class="st48" points="250.06,154.15 250.06,182.32 274.9,196.49 274.9,168.32 		"/>
		<polygon id="XMLID_1637_" class="st48" points="250.06,191.13 250.06,219.3 274.9,233.48 274.9,205.31 		"/>
		<g id="XMLID_1633_">
			<path id="XMLID_1636_" class="st44" d="M256.43,100.74c-1.29-0.75-2.35-0.14-2.35,1.36c0,1.49,1.06,3.33,2.35,4.08
				s2.35,0.14,2.35-1.36C258.79,103.32,257.73,101.49,256.43,100.74z"/>
			<path id="XMLID_1635_" class="st44" d="M264.49,105.48c-1.29-0.75-2.35-0.14-2.35,1.36c0,1.49,1.06,3.33,2.35,4.08
				c1.29,0.75,2.35,0.14,2.35-1.36C266.84,108.07,265.78,106.23,264.49,105.48z"/>
			<path id="XMLID_1634_" class="st44" d="M272.54,110.23c-1.29-0.75-2.35-0.14-2.35,1.36c0,1.49,1.06,3.33,2.35,4.08
				c1.29,0.75,2.35,0.14,2.35-1.36S273.84,110.98,272.54,110.23z"/>
		</g>
		<g id="XMLID_1629_" class="st49">
			<linearGradient id="XMLID_10_" gradientUnits="userSpaceOnUse" x1="281.1692" y1="154.1486" x2="298.4684" y2="154.1486">
				<stop  offset="0" style="stop-color:#8647E1"/>
				<stop  offset="1" style="stop-color:#B78FED"/>
			</linearGradient>
			<path id="XMLID_1630_" class="st58" d="M294.66,165.89l-1.66-5.55l-6.71-3.61l-1.32,3.95l-3.8-2.04l6.15-18.26l3.46,1.86
				l7.69,25.7L294.66,165.89z M289.29,147.84l-1.79,5.3l4.01,2.16L289.29,147.84z"/>
		</g>
		<g id="XMLID_1624_" class="st49">
			<linearGradient id="XMLID_11_" gradientUnits="userSpaceOnUse" x1="282.8242" y1="184.5181" x2="296.1755" y2="184.5181">
				<stop  offset="0" style="stop-color:#8647E1"/>
				<stop  offset="1" style="stop-color:#B78FED"/>
			</linearGradient>
			<path id="XMLID_1625_" class="st59" d="M290.61,196.89l-7.01-3.77l-0.77-21.98l6.23,3.35c1.09,0.58,2.03,1.27,2.83,2.05
				c0.8,0.78,1.41,1.58,1.82,2.4c0.76,1.52,1.16,2.99,1.21,4.42c0.06,1.72-0.3,2.78-1.08,3.18c-0.27,0.15-0.45,0.23-0.55,0.24
				c-0.11,0.02-0.29,0.03-0.56,0.05c1,0.83,1.81,1.87,2.44,3.12c0.62,1.25,0.95,2.57,1,3.95c0.05,1.53-0.28,2.67-1,3.44
				C294.33,198.22,292.81,198.07,290.61,196.89z M286.71,181.96l1.7,0.91c0.99,0.54,1.72,0.79,2.19,0.75
				c0.47-0.03,0.69-0.54,0.66-1.51c-0.03-0.97-0.28-1.74-0.74-2.29c-0.45-0.55-1.21-1.11-2.26-1.68l-1.72-0.92L286.71,181.96z
				 M287.03,190.89l2.45,1.32c1.02,0.55,1.79,0.79,2.28,0.72c0.5-0.07,0.73-0.61,0.7-1.63c-0.03-1.02-0.33-1.84-0.88-2.45
				c-0.55-0.62-1.43-1.24-2.62-1.89l-2.11-1.13L287.03,190.89z"/>
		</g>
		<g id="XMLID_1621_" class="st49">
			<linearGradient id="XMLID_12_" gradientUnits="userSpaceOnUse" x1="282.2299" y1="224.5812" x2="297.4072" y2="224.5812">
				<stop  offset="0" style="stop-color:#8647E1"/>
				<stop  offset="1" style="stop-color:#B78FED"/>
			</linearGradient>
			<path id="XMLID_1622_" class="st60" d="M290.8,231.34c1.76,0.95,3.16,0.76,4.21-0.54l2.4,4.47c-1.72,1.83-3.81,2.08-6.28,0.76
				c-2.47-1.32-4.54-3.49-6.21-6.49c-1.67-3-2.57-6.12-2.68-9.39c-0.12-3.26,0.6-5.54,2.15-6.85c1.55-1.31,3.5-1.33,5.85-0.06
				c2.63,1.41,4.88,3.97,6.75,7.67l-2.1,2.26c-1.2-2.54-2.64-4.26-4.32-5.16c-1.35-0.72-2.47-0.74-3.39-0.05
				c-0.91,0.69-1.33,2.06-1.26,4.1c0.07,2.04,0.58,3.93,1.52,5.65C288.4,229.44,289.51,230.65,290.8,231.34z"/>
		</g>
		<polygon id="XMLID_1620_" class="st48" points="302.12,146.73 302.12,152.44 374.45,195.06 374.45,189.38 		"/>
		<polygon id="XMLID_1619_" class="st48" points="302.12,162.21 302.12,167.93 347.98,195.03 347.98,189.36 		"/>
		<polygon id="XMLID_1618_" class="st48" points="302.12,183.71 302.12,189.43 374.45,232.05 374.45,226.37 		"/>
		<polygon id="XMLID_1617_" class="st48" points="302.12,199.2 302.12,204.92 347.98,232.02 347.98,226.34 		"/>
		<polygon id="XMLID_1616_" class="st48" points="302.12,220.7 302.12,226.41 374.45,269.03 374.45,263.35 		"/>
		<polygon id="XMLID_1615_" class="st48" points="302.12,236.19 302.12,241.9 347.98,269.01 347.98,263.33 		"/>
	</g>
	<g id="XMLID_909_">
		<g id="XMLID_1605_">
			<g id="XMLID_1612_">
				<linearGradient id="XMLID_13_" gradientUnits="userSpaceOnUse" x1="140.8877" y1="391.0571" x2="154.7374" y2="391.0571">
					<stop  offset="0" style="stop-color:#5C5E60"/>
					<stop  offset="1" style="stop-color:#9FA1A4"/>
				</linearGradient>
				<path id="XMLID_1613_" class="st61" d="M147.76,485.93C147.75,485.93,147.75,485.93,147.76,485.93c-3.8,0-6.87-3.08-6.87-6.87
					L141,296.18l13.74,0.01l-0.11,182.87C154.62,482.86,151.55,485.93,147.76,485.93z"/>
			</g>
			<linearGradient id="XMLID_14_" gradientUnits="userSpaceOnUse" x1="140.8877" y1="476.9518" x2="154.6344" y2="476.9518">
				<stop  offset="0" style="stop-color:#8647E1"/>
				<stop  offset="1" style="stop-color:#B78FED"/>
			</linearGradient>
			<path id="XMLID_1611_" class="st62" d="M154.63,467.99l-13.74-0.01l-0.01,11.09c0,3.79,3.07,6.87,6.86,6.87c0,0,0,0,0.01,0
				c3.79,0,6.86-3.07,6.87-6.86L154.63,467.99z"/>
			<linearGradient id="XMLID_15_" gradientUnits="userSpaceOnUse" x1="141.0073" y1="287.9141" x2="154.7374" y2="287.9141">
				<stop  offset="0" style="stop-color:#A8D9FB"/>
				<stop  offset="0.0934" style="stop-color:#B3DEFB"/>
				<stop  offset="0.4944" style="stop-color:#DCF0FD"/>
				<stop  offset="0.8103" style="stop-color:#F6FBFF"/>
				<stop  offset="1" style="stop-color:#FFFFFF"/>
			</linearGradient>
			<polygon id="XMLID_1610_" class="st63" points="141.01,296.18 147.93,279.63 154.74,296.2 			"/>
			<polygon id="XMLID_1609_" class="st42" points="146.23,283.6 147.89,279.63 149.52,283.6 			"/>
			<g id="XMLID_1606_">
				<linearGradient id="XMLID_16_" gradientUnits="userSpaceOnUse" x1="140.8977" y1="467.8805" x2="154.6352" y2="467.8805">
					<stop  offset="0" style="stop-color:#B78FED"/>
					<stop  offset="1" style="stop-color:#8647E1"/>
				</linearGradient>
				<path id="XMLID_1608_" class="st64" d="M154.63,468.42l0-1.75c-4.39,1.06-9.37,1.04-13.74-0.06l0,1.76
					c2.23,0.52,4.61,0.78,6.98,0.78C150.18,469.15,152.47,468.9,154.63,468.42z"/>
				<linearGradient id="XMLID_17_" gradientUnits="userSpaceOnUse" x1="140.9021" y1="463.5886" x2="154.6396" y2="463.5886">
					<stop  offset="0" style="stop-color:#B78FED"/>
					<stop  offset="1" style="stop-color:#8647E1"/>
				</linearGradient>
				<path id="XMLID_1607_" class="st65" d="M140.9,462.32l0,1.76c2.23,0.52,4.61,0.78,6.98,0.78c2.29,0,4.59-0.25,6.76-0.74l0-1.75
					C150.25,463.44,145.27,463.42,140.9,462.32z"/>
			</g>
		</g>
		<g id="XMLID_924_">
			<path id="XMLID_1604_" class="st66" d="M94.44,478.64l-1.85,6.4c0,1.58,0.84,3.03,2.2,3.82l0.86,0.62
				c3.74,2.17,8.34,2.25,12.14,0.18l11.25-6.1c1.32-0.72,1.35-2.61,0.04-3.36l0,0c-2.14-1.23-4.68-3.08-6.98-2.78
				c-1.08,0.14-2.15,0.34-3.24,0.34l-5.21,0.71L94.44,478.64z"/>
			<g id="XMLID_1216_">
				<linearGradient id="XMLID_18_" gradientUnits="userSpaceOnUse" x1="102.4064" y1="431.6957" x2="102.4064" y2="478.4565">
					<stop  offset="0" style="stop-color:#DCDFFB"/>
					<stop  offset="1" style="stop-color:#F3F3FA"/>
				</linearGradient>
				<path id="XMLID_1497_" class="st67" d="M99.56,484.98c3.42,0,6.27-2.7,6.42-6.15l1.84-42.34l3.04-44.31
					c-0.15-3.55-8-6.66-11.57-6.47c-3.55,0.15-5.47,6.63-5.32,10.18l0.97,40.58l-0.49,41.46c-0.15,3.55,1.27,6.88,4.82,7.04
					C99.37,484.98,99.46,484.98,99.56,484.98z"/>
			</g>
			<g id="XMLID_1214_">
				<path id="XMLID_1215_" class="st68" d="M103,400.97c0.57-0.07,1.14-0.27,1.65-0.61c1.72-1.15,2.18-3.48,1.03-5.2l-11.58-17.29
					c-4.09-6.11-3.64-14.3,1.09-19.93l10.82-12.86c1.33-1.58,1.13-3.95-0.46-5.29c-1.59-1.33-3.95-1.13-5.29,0.46l-10.82,12.86
					c-6.87,8.17-7.52,20.07-1.58,28.93l11.58,17.28C100.26,400.54,101.65,401.12,103,400.97z"/>
			</g>
			<g id="XMLID_1117_">
				<linearGradient id="XMLID_19_" gradientUnits="userSpaceOnUse" x1="98.0498" y1="346.19" x2="92.3107" y2="399.4073">
					<stop  offset="0" style="stop-color:#8647E1"/>
					<stop  offset="1" style="stop-color:#B78FED"/>
				</linearGradient>
				<path id="XMLID_1118_" class="st69" d="M92.82,359.79c1.05-0.12,2.06-0.63,2.79-1.5l10.82-12.86c1.52-1.81,1.29-4.52-0.52-6.04
					c-1.81-1.53-4.52-1.29-6.04,0.52l-10.82,12.86c-1.52,1.81-1.29,4.52,0.52,6.04C90.51,359.6,91.69,359.92,92.82,359.79z"/>
			</g>
			<path id="XMLID_1072_" class="st66" d="M112.7,488.82l-1.85,6.4c0,1.58,0.84,3.03,2.2,3.83l0.86,0.62
				c3.74,2.18,8.34,2.25,12.14,0.18l11.25-6.1c1.32-0.72,1.34-2.61,0.04-3.36l0,0c-2.14-1.23-4.68-3.08-6.98-2.78
				c-1.08,0.14-2.15,0.34-3.24,0.34l-5.21,0.71L112.7,488.82z"/>
			<linearGradient id="SVGID_2_" gradientUnits="userSpaceOnUse" x1="110.2923" y1="408.6814" x2="111.6619" y2="538.9857">
				<stop  offset="0" style="stop-color:#DCDFFB"/>
				<stop  offset="1" style="stop-color:#F3F3FA"/>
			</linearGradient>
			<path class="st70" d="M122.68,398.15v-25.48c0-2.43,5.07-0.76,2.96-1.98l-22.17-12.8c-4.23-2.44-6.92,20.45-6.92,25.33
				l-2.6,19.26c0,2.43,1.3,4.68,3.41,5.9l10.87,6.11l4.95,32.16l-0.49,41.46c-0.15,3.55,1.28,6.88,4.82,7.04
				c0.09,0,0.19,0.01,0.28,0.01c3.42,0,6.27-2.7,6.42-6.15l1.84-42.34l-1.84-44.62C124.17,400.56,123.59,399.22,122.68,398.15z"/>
			<g id="XMLID_1069_">
				<linearGradient id="XMLID_20_" gradientUnits="userSpaceOnUse" x1="113.0342" y1="347.8059" x2="107.295" y2="401.0233">
					<stop  offset="0" style="stop-color:#8647E1"/>
					<stop  offset="1" style="stop-color:#B78FED"/>
				</linearGradient>
				<path id="XMLID_1070_" class="st71" d="M94.45,349.08l1.2,18.66c-0.4,3.97-0.27,7.94-0.67,11.92
					c-0.23,2.29-1.5,16.95-1.03,19.18c0.3,1.43,12.14,5.81,12.62,6.03c6.66,2.98,13.4,4.03,18.78,1.44l0.29-19.29l1.11-14.22
					c0.69-9.74,2.56-22.75-7.02-28.72c-0.41-0.25-0.82-0.49-1.24-0.73l-10.2-5.57c-2.41-1.39-5.37-1.39-7.78,0l0,0
					C96.5,340.09,94.15,344.47,94.45,349.08z"/>
			</g>
			<g id="XMLID_1019_">
				<g id="XMLID_1020_">
					<path id="XMLID_1021_" class="st68" d="M110.03,344.11c-1.91,0-3.46-1.55-3.46-3.46v-13.61c0-1.91,1.55-3.46,3.46-3.46
						c1.91,0,3.46,1.55,3.46,3.46v13.61C113.49,342.56,111.94,344.11,110.03,344.11z"/>
				</g>
			</g>
			<g id="XMLID_1015_">
				<path id="XMLID_1018_" class="st68" d="M106.57,337.76L106.57,337.76l2.48-22.92l16.97,1.84l-0.64,5.95
					C124.36,332,115.94,338.78,106.57,337.76z"/>
			</g>
			<path id="XMLID_1014_" class="st72" d="M120.82,320.92c-0.92,0.58-1.34,1.43-0.56,2.85c0.31,0.56,0.95,1.94,0.41,2.54
				c-0.62,0.68-1.35-0.12-2-0.23c-1.46-0.25-1.02,1.46-1.18,2.41c-0.66,3.77-4.41,8.34-8.56,8.11c-2.54-0.14-3.97-3-4.4-5.5
				c-0.65-3.77-0.27-7.62,0.12-11.42c0.24-2.39,0.53-4.89,1.93-6.84c1.39-1.92,3.69-3,6.02-3.39c2.33-0.39,4.72-0.18,7.07,0.03
				c2.33,0.21,4.87,0.19,7.09,1.02c1.47,0.55,3.47,2.08,3.41,3.79c-0.08,2.53-2.1,4.09-4.25,5.02
				C124.67,319.83,122.19,320.07,120.82,320.92z"/>
			<g id="XMLID_943_">
				<path id="XMLID_944_" class="st68" d="M130.53,382.55c3.55,0,6.74-1.89,8.45-5.09l8.39-15.67c0.98-1.83,0.29-4.1-1.54-5.08
					c-1.83-0.98-4.1-0.29-5.08,1.54l-8.39,15.67c-0.59,1.11-1.64,1.16-2.05,1.11c-0.42-0.04-1.44-0.25-1.84-1.44l-7.1-21.28
					c-0.66-1.96-2.78-3.03-4.75-2.37c-1.97,0.66-3.03,2.78-2.37,4.75l7.1,21.28c1.24,3.71,4.43,6.22,8.32,6.55
					C129.96,382.54,130.25,382.55,130.53,382.55z"/>
			</g>
			<g id="XMLID_941_">
				<linearGradient id="XMLID_21_" gradientUnits="userSpaceOnUse" x1="120.9577" y1="348.6604" x2="115.2185" y2="401.8778">
					<stop  offset="0" style="stop-color:#8647E1"/>
					<stop  offset="1" style="stop-color:#B78FED"/>
				</linearGradient>
				<path id="XMLID_942_" class="st73" d="M121.78,369.69c0.45,0,0.91-0.07,1.36-0.22c2.25-0.75,3.46-3.18,2.71-5.43l-3.97-11.89
					c-0.75-2.24-3.18-3.45-5.42-2.71c-2.25,0.75-3.46,3.18-2.71,5.43l3.97,11.89C118.31,368.55,119.98,369.69,121.78,369.69z"/>
			</g>
			<g id="XMLID_939_">
				<path id="XMLID_940_" class="st68" d="M138.57,367.79c0.4-0.03,0.76-0.28,0.92-0.67l5.93-14.92c0.22-0.55-0.05-1.17-0.6-1.39
					c-0.56-0.21-1.17,0.05-1.39,0.6l-5.93,14.92c-0.22,0.55,0.05,1.17,0.6,1.39C138.25,367.77,138.41,367.8,138.57,367.79z"/>
			</g>
			<g id="XMLID_937_">
				<path id="XMLID_938_" class="st68" d="M140.29,366.92c0.4,0,0.78-0.22,0.96-0.6l7.04-14.43c0.26-0.53,0.04-1.17-0.49-1.43
					c-0.54-0.25-1.18-0.04-1.43,0.49l-7.04,14.43c-0.26,0.53-0.04,1.17,0.49,1.43C139.98,366.88,140.14,366.92,140.29,366.92z"/>
			</g>
			<g id="XMLID_935_">
				<path id="XMLID_936_" class="st68" d="M140.93,368.9c0.4,0.02,0.79-0.18,1-0.55l7.81-14.02c0.29-0.52,0.1-1.17-0.41-1.46
					c-0.52-0.28-1.17-0.1-1.46,0.42l-7.81,14.02c-0.29,0.52-0.1,1.17,0.41,1.46C140.61,368.85,140.77,368.9,140.93,368.9z"/>
			</g>
			<g id="XMLID_933_">
				<path id="XMLID_934_" class="st68" d="M139.73,370.83c0.39,0.08,0.81-0.05,1.07-0.39l9.88-12.65c0.36-0.47,0.28-1.14-0.19-1.5
					c-0.47-0.36-1.14-0.28-1.5,0.19l-9.88,12.65c-0.36,0.47-0.28,1.14,0.18,1.5C139.43,370.73,139.58,370.79,139.73,370.83z"/>
			</g>
			<g id="XMLID_931_">
				<path id="XMLID_932_" class="st68" d="M140.99,363.7c0.33-0.23,0.51-0.63,0.45-1.05l-1.07-6.75c-0.09-0.58-0.64-0.98-1.22-0.89
					c-0.59,0.1-0.99,0.64-0.89,1.22l1.07,6.75c0.09,0.58,0.64,0.98,1.22,0.89C140.71,363.86,140.86,363.79,140.99,363.7z"/>
			</g>
		</g>
	</g>
	<g id="XMLID_728_">
		<path id="XMLID_907_" class="st66" d="M15.91,447.37l3.85-2.25l4-2.31l9.04-5.24c2.26-1.31,1.96-4.65-0.49-5.55l0,0
			c-1.73-0.63-3.64-0.53-5.29,0.27l-6.95,3.38l-8.44,3.1c-0.71,0.26-1.16,0.95-1.12,1.7l0.13,2.25c0.15,2.6,2.3,4.63,4.91,4.63
			H15.91z"/>
		<path id="XMLID_906_" class="st68" d="M14.55,437.04l5.51-1.35l4.11-2c2.03,1.12,2.17,4.09,0.06,5.32l-6.11,3.48l-0.3,0.17
			c-1.69,0.97-3.82,0.71-5.21-0.66c-1.04-1.02-1.91-2.07-1.57-2.51l2.39-0.76C13.39,437.99,13.84,437.3,14.55,437.04z"/>
		<g id="XMLID_904_">
			<path id="XMLID_905_" class="st68" d="M15.7,443.25c2.63,0,3.81-2.13,3.81-4.76l3.45-84.11c0-2.63-5.58-8.22-8.21-8.22
				c-2.63,0-6.36,30.41-6.36,33.04l1.64,17.76l0.9,41.52C10.94,441.12,13.07,443.25,15.7,443.25z"/>
		</g>
		<g id="XMLID_902_">
			<path id="XMLID_903_" class="st68" d="M17.5,358.2c0.62,0,1.24-0.15,1.82-0.46c1.85-1.01,2.53-3.32,1.52-5.17L8.32,329.62
				c-1.4-2.56-0.64-5.73,1.77-7.37l16.38-11.19c1.73-1.19,2.18-3.56,0.99-5.29c-1.19-1.74-3.55-2.18-5.29-0.99L5.79,315.96
				c-5.65,3.86-7.44,11.3-4.16,17.31l12.52,22.95C14.85,357.48,16.16,358.2,17.5,358.2z"/>
		</g>
		<path id="XMLID_901_" class="st66" d="M32.94,457.15l3.85-2.26l4-2.31l9.04-5.24c2.26-1.31,1.96-4.65-0.49-5.55l0,0
			c-1.73-0.63-3.64-0.53-5.29,0.27l-6.95,3.38l-8.44,3.1c-0.71,0.26-1.16,0.95-1.12,1.7l0.13,2.25c0.15,2.6,2.3,4.63,4.91,4.63
			H32.94z"/>
		<path id="XMLID_900_" class="st68" d="M31.57,446.81l5.51-1.35l4.11-2c2.03,1.12,2.17,4.09,0.06,5.32l-6.11,3.48l-0.3,0.17
			c-1.69,0.97-3.82,0.71-5.21-0.66c-1.04-1.02-1.91-2.07-1.57-2.51l2.39-0.76C30.41,447.76,30.87,447.07,31.57,446.81z"/>
		<g id="XMLID_740_">
			<path id="XMLID_741_" class="st68" d="M32.72,453.03c2.63,0,3.81-2.13,3.81-4.76V360.7c0-2.63-2.13-4.76-4.76-4.76
				s-12.65,3.76-12.65,6.39l6.62,44.8l2.22,41.14C27.96,450.9,30.09,453.03,32.72,453.03z"/>
		</g>
		<linearGradient id="XMLID_22_" gradientUnits="userSpaceOnUse" x1="23.2046" y1="300.0218" x2="23.2046" y2="407.7328">
			<stop  offset="0" style="stop-color:#5C5E60"/>
			<stop  offset="1" style="stop-color:#9FA1A4"/>
		</linearGradient>
		<path id="XMLID_739_" class="st74" d="M8.38,297.16c0-5.51,5.89-9.02,10.74-6.4l0.08,0.05c0.76,0.41,1.72,1.36,2.16,2.09
			c7.18,11.8,16.37,14.51,16.37,26.59l-2.82,21.71l3.34,21.18l1.14,36.9c-2.18,1.45-4.95,2-7.95,1.88c-0.28-0.01-3.52-0.2-4.23-0.32
			c-8.14-1.41-15.76-1.95-18.84-8.04l-1.2-15.44c-0.66-10.56,0.52-21.15,3.48-31.31l0,0L8.38,297.16z"/>
		<g id="XMLID_737_">
			<path id="XMLID_738_" class="st68" d="M20.58,317.54c0.2,0.04,0.42,0.07,0.63,0.08l3.9,0.14c16.94,0.62,33.02-7.18,43.02-20.86
				l4.51-6.17c1.24-1.7,0.87-4.08-0.83-5.32c-1.7-1.24-4.08-0.87-5.32,0.83l-4.51,6.17c-8.51,11.64-22.19,18.27-36.59,17.74
				l-3.9-0.14c-2.1-0.08-3.87,1.56-3.94,3.67C17.47,315.56,18.79,317.17,20.58,317.54z"/>
		</g>
		<path id="XMLID_736_" class="st68" d="M20.12,298.37L20.12,298.37c1.55,0,2.82-1.26,2.82-2.82v-13.02H17.3v13.02
			C17.3,297.11,18.56,298.37,20.12,298.37z"/>
		<path id="XMLID_735_" class="st68" d="M14.39,291.37l5.65,0.75c4.16,0.55,8-2.85,7.53-7.02c-0.03-0.23-0.06-0.45-0.11-0.68
			l-2.89-13.31l-13.92,3.02L14.39,291.37z"/>
		
			<linearGradient id="XMLID_23_" gradientUnits="userSpaceOnUse" x1="1530.7523" y1="349.5356" x2="1558.3308" y2="349.5356" gradientTransform="matrix(-1 0 0 1 1567.4325 0)">
			<stop  offset="0" style="stop-color:#8647E1"/>
			<stop  offset="1" style="stop-color:#B78FED"/>
		</linearGradient>
		<path id="XMLID_734_" class="st75" d="M22.95,354.39c-4.76,0-9.53-0.71-13.85-2.1c0.45-2.09,0.96-4.18,1.56-6.24l-0.06-1.3
			c7.56,2.66,17.38,2.63,24.87-0.07l1.2,7.64C32.4,353.69,27.68,354.39,22.95,354.39z"/>
		<path id="XMLID_733_" class="st68" d="M66.02,289.89l0.04,0.02c0.46,0.31,1.09,0.19,1.4-0.27l5.08-7.57
			c0.31-0.46,0.19-1.09-0.27-1.4l-0.04-0.02c-0.46-0.31-1.09-0.19-1.4,0.27l-5.09,7.57C65.43,288.95,65.56,289.58,66.02,289.89z"/>
		<path id="XMLID_732_" class="st68" d="M65.88,290L65.88,290c0.62,0.02,1.13-0.47,1.15-1.09l0.1-3.18
			c0.02-0.62-0.47-1.13-1.08-1.15h0c-0.62-0.02-1.13,0.47-1.15,1.08l-0.1,3.19C64.78,289.47,65.26,289.98,65.88,290z"/>
		<g id="XMLID_730_">
			
				<linearGradient id="XMLID_24_" gradientUnits="userSpaceOnUse" x1="1529.2946" y1="313.7641" x2="1550.8456" y2="313.7641" gradientTransform="matrix(-1 0 0 1 1567.4325 0)">
				<stop  offset="0" style="stop-color:#5C5E60"/>
				<stop  offset="1" style="stop-color:#9FA1A4"/>
			</linearGradient>
			<path id="XMLID_731_" class="st76" d="M20.38,318.47c0.26,0.05,0.52,0.09,0.79,0.1l3.9,0.14c2.99,0.11,6-0.04,8.95-0.45
				c2.61-0.36,4.43-2.76,4.07-5.36c-0.36-2.61-2.76-4.43-5.36-4.07c-2.41,0.33-4.87,0.45-7.31,0.36l-3.9-0.14
				c-2.63-0.1-4.83,1.96-4.93,4.58C16.5,315.99,18.15,318.01,20.38,318.47z"/>
		</g>
		<path id="XMLID_729_" class="st72" d="M3.25,306.47c0.51-0.95,1.09-1.91,1.19-2.99c0.22-2.25-1.62-4.16-2.07-6.38
			c-0.66-3.28,1.61-6.28,1.48-9.54c-0.15-3.61-1.11-6.62-0.03-10.28c0.16-0.55,0.35-1.08,0.57-1.61c1.95-4.67,6.5-7.02,11.29-7.8
			c2.05-0.33,4.14-0.45,6.2-0.17c1.19,0.16,2.46,0.33,3.53,0.93c0.44,0.25,0.96,0.56,1.21,1.01c0.39,0.68,0.63,1.54,0.55,2.32
			c-0.19,1.83-2.51,2.46-2.71,4.19c-0.1,0.87,0.48,1.84,0.55,2.72c0.1,1.15-0.09,2.32-0.56,3.37c-0.9,1.98-2.79,3.67-2.7,5.85
			c0.04,0.97,0.49,1.87,0.63,2.83c0.5,3.41-3.08,6.01-2.15,9.45c0.6,2.22,3.12,3.83,2.89,6.12c-0.09,0.92-0.65,1.74-0.8,2.66
			c-0.32,1.88,1.05,3.9,0.22,5.62c-2.85,5.89-12.71,4.87-17.28,2.31c-1.14-0.64-2.25-1.43-2.92-2.55
			C0.91,312.1,1.91,308.96,3.25,306.47z"/>
	</g>
	<g id="XMLID_689_">
		<g id="XMLID_722_">
			<linearGradient id="XMLID_25_" gradientUnits="userSpaceOnUse" x1="55.2113" y1="127.7104" x2="72.0654" y2="127.7104">
				<stop  offset="0" style="stop-color:#8647E1"/>
				<stop  offset="1" style="stop-color:#B78FED"/>
			</linearGradient>
			<path id="XMLID_723_" class="st77" d="M66.47,150.55c-1.41,0-2.74-0.84-3.31-2.22l-6.52-15.83c-2.78-6.74-1.43-14.6,3.44-20.03
				l5.74-6.4c1.32-1.47,3.58-1.6,5.06-0.28c1.47,1.32,1.6,3.58,0.28,5.06l-5.74,6.4c-3.04,3.39-3.89,8.31-2.15,12.53l6.52,15.83
				c0.75,1.83-0.12,3.92-1.95,4.67C67.39,150.46,66.92,150.55,66.47,150.55z"/>
		</g>
		<path id="XMLID_721_" class="st66" d="M66.1,211.77l-3.27,2.39l-9.65,3.89c-0.73,0.29-1.21,1-1.21,1.79l-0.21,2.22
			c-0.14,1.47,1.14,2.68,2.6,2.46l14.12-2.1l1.39-1.11l1.19-0.2l1.19,1.3h1.34c1.24,0,2.24-1,2.24-2.24v-3.08l-2.19-5.33H66.1z"/>
		<g id="XMLID_719_">
			<linearGradient id="XMLID_26_" gradientUnits="userSpaceOnUse" x1="70.348" y1="161.6106" x2="69.0437" y2="215.0889">
				<stop  offset="0" style="stop-color:#5C5E60"/>
				<stop  offset="1" style="stop-color:#9FA1A4"/>
			</linearGradient>
			<path id="XMLID_720_" class="st78" d="M69.88,218.46c-3.08,0-4.38-2.49-4.38-5.57l-1.19-28.06l-0.13-40.54
				c-0.21-3.07,2.55-6.17,5.62-6.38c3.08-0.2,7.39,2.94,7.6,6.01l-1.95,40.72l-0.8,28.25C74.65,215.96,72.95,218.46,69.88,218.46z"
				/>
		</g>
		<path id="XMLID_711_" class="st68" d="M115.63,123.36l-0.05,0c-0.57,0.04-1.06-0.39-1.1-0.96l-0.45-6.72
			c-0.04-0.57,0.39-1.06,0.96-1.1l0.05,0c0.57-0.04,1.06,0.39,1.1,0.96l0.45,6.72C116.63,122.83,116.2,123.33,115.63,123.36z"/>
		<g id="XMLID_709_">
			<path id="XMLID_710_" class="st68" d="M106.84,131.26c-4.2,0-8.12-1.65-11.05-4.66l-9.22-9.46c-1.3-1.34-1.28-3.48,0.06-4.78
				c1.34-1.3,3.48-1.28,4.78,0.06l9.22,9.46c1.65,1.69,3.85,2.62,6.21,2.62c0.01,0,0.01,0,0.02,0c2.37,0,4.57-0.94,6.22-2.64
				l3.88-3.9c1.32-1.32,3.46-1.33,4.78-0.01c1.32,1.32,1.33,3.46,0.01,4.78l-3.85,3.87c-2.89,2.99-6.82,4.66-11.03,4.67
				C106.86,131.26,106.85,131.26,106.84,131.26z"/>
		</g>
		<path id="XMLID_708_" class="st68" d="M116.35,120.77l-0.12-0.07c-0.47-0.28-0.61-0.89-0.33-1.36l3.58-5.82
			c0.29-0.47,0.9-0.61,1.36-0.32l0.12,0.08c0.47,0.29,0.61,0.89,0.32,1.36l-3.57,5.81C117.42,120.91,116.81,121.06,116.35,120.77z"
			/>
		<path id="XMLID_707_" class="st68" d="M118.73,120.13L118.73,120.13c-0.47-0.35-0.55-1.02-0.2-1.48l4.06-5.31
			c0.36-0.47,1.02-0.55,1.49-0.2l0,0c0.47,0.36,0.55,1.02,0.2,1.49l-4.06,5.3C119.86,120.4,119.19,120.49,118.73,120.13z"/>
		<path id="XMLID_706_" class="st68" d="M119.48,121.38L119.48,121.38c-0.39-0.43-0.36-1.11,0.07-1.5l4.95-4.49
			c0.43-0.39,1.1-0.36,1.5,0.07l0,0c0.39,0.43,0.36,1.11-0.07,1.5l-4.95,4.49C120.54,121.85,119.87,121.82,119.48,121.38z"/>
		<path id="XMLID_703_" class="st68" d="M118.9,123.28l-0.02-0.04c-0.28-0.5-0.1-1.13,0.4-1.41l5.88-3.28
			c0.5-0.28,1.13-0.1,1.41,0.4l0.02,0.04c0.28,0.5,0.1,1.13-0.4,1.41l-5.88,3.28C119.81,123.96,119.18,123.78,118.9,123.28z"/>
		<path id="XMLID_702_" class="st66" d="M85.31,229.73l-4.04,13.25l0,0c0.11,1.54,1.2,2.83,2.69,3.19l1.03,0.25
			c0.97,0.24,1.99,0.05,2.82-0.5l0,0c2.52-1.7,4.18-4.41,4.55-7.43l1.1-9.03l-1.56-3.2L85.31,229.73z"/>
		<linearGradient id="XMLID_27_" gradientUnits="userSpaceOnUse" x1="78.2767" y1="140.2174" x2="80.8854" y2="233.3479">
			<stop  offset="0" style="stop-color:#5C5E60"/>
			<stop  offset="1" style="stop-color:#9FA1A4"/>
		</linearGradient>
		<path id="XMLID_700_" class="st79" d="M89.17,232.18c-2.84,0-4.47-2.16-4.74-5.04l-4.19-35.73l-7.04-34.53l-8.1-13.94
			c-0.22-3.07,13.84-3.42,16.91-3.64c3.06-0.23,8.78,8.18,9.01,11.25l0.33,39.99l2.58,35.55c0.29,3.06-1.16,5.78-4.22,6.07
			C89.52,232.17,89.34,232.18,89.17,232.18z"/>
		<linearGradient id="XMLID_28_" gradientUnits="userSpaceOnUse" x1="91.9275" y1="109.7453" x2="89.8406" y2="158.6584">
			<stop  offset="0" style="stop-color:#8647E1"/>
			<stop  offset="1" style="stop-color:#B78FED"/>
		</linearGradient>
		<path id="XMLID_698_" class="st80" d="M118,121.63c-1.42-1.38-3.69-1.34-5.06,0.08c-1.61,1.66-3.76,2.58-6.07,2.58
			c-0.01,0-0.01,0-0.02,0c-2.31,0-4.46-0.91-6.07-2.56l-8.05-8.25c-0.96-2.07-2.45-3.89-4.44-5.2c-0.23-0.15-0.46-0.29-0.69-0.43
			l-10.66-5.97c-5.67-3.27-12.75,0.82-12.75,7.36l0,36.49c4.03,5.85,13.21,10.16,27.09,7.3l0.89-13.74l1.05-15.04l2.42,2.49
			c2.97,3.05,6.94,4.72,11.2,4.72c0.01,0,0.02,0,0.03,0c4.26-0.01,8.24-1.7,11.21-4.76C119.46,125.27,119.42,123,118,121.63z"/>
		<linearGradient id="XMLID_29_" gradientUnits="userSpaceOnUse" x1="76.3104" y1="101.6967" x2="73.7669" y2="113.3706">
			<stop  offset="0" style="stop-color:#8647E1"/>
			<stop  offset="1" style="stop-color:#B78FED"/>
		</linearGradient>
		<path id="XMLID_697_" class="st81" d="M77,110.23l-4.99,3.68l-0.04-2.84c-0.02-1.33,0.24-2.66,0.76-3.88l1.86-4.37l1.4,0.2
			L77,110.23z"/>
		<polygon id="XMLID_696_" class="st44" points="77.04,110.27 79.91,114.15 77.41,118.03 74.69,117.06 73.61,112.72 		"/>
		<path id="XMLID_695_" class="st68" d="M78.79,110.83L78.79,110.83c-1.63,0-2.95-1.32-2.95-2.95v-10.2h5.9v10.2
			C81.74,109.52,80.42,110.83,78.79,110.83z"/>
		<path id="XMLID_694_" class="st68" d="M80.07,105.06H77.5c-6.66,0-9.49-5.4-9.49-12.07V90.3c0-2.06,1.67-3.72,3.72-3.72h6.31
			c2.64,0,4.77,2.14,4.77,4.77l2.8,10.27C85.61,103.13,81.58,105.06,80.07,105.06z"/>
		<g id="XMLID_693_">
			<path class="st72" d="M89.56,92.74c-0.61-3.75-3.19-7.1-6.62-8.73c-1.61-0.76-3.36-1.16-5.12-1.41c-2.8-0.41-5.77-0.44-8.36,0.72
				c-2.98,1.34-4.38,3.96-1.16,6.14c1.31,0.89,2.93,1.2,4.51,1.29c1.75,0.09,3.73,0.01,4.98,1.23c1.67,1.63,1,4.49,2.03,6.58
				c0.26,0,0.51-0.01,0.77-0.01c0.3-0.58,0.11-1.27,0.17-1.92c0.06-0.65,0.68-1.37,1.25-1.07c0.33,0.17,0.43,0.58,0.49,0.95
				c0.19,1.32,0.12,2.68-0.22,3.97c-0.3,1.18-0.7,2.72,0.31,3.41c1.75,1.17,4.63-2.09,5.4-3.36C89.42,98.23,90,95.41,89.56,92.74z"
				/>
		</g>
		<linearGradient id="XMLID_30_" gradientUnits="userSpaceOnUse" x1="81.6027" y1="102.8497" x2="79.0592" y2="114.5236">
			<stop  offset="0" style="stop-color:#8647E1"/>
			<stop  offset="1" style="stop-color:#B78FED"/>
		</linearGradient>
		<path id="XMLID_692_" class="st82" d="M77,110.23l4.03,5.58l0.36-3.4c0.23-2.12,1.02-4.13,2.31-5.83l0,0
			c0.33-0.44,0.18-1.08-0.32-1.32l-1.27-0.61L77,110.23z"/>
		<linearGradient id="XMLID_31_" gradientUnits="userSpaceOnUse" x1="64.18" y1="148.4395" x2="91.2748" y2="148.4395">
			<stop  offset="0" style="stop-color:#8647E1"/>
			<stop  offset="1" style="stop-color:#B78FED"/>
		</linearGradient>
		<path id="XMLID_691_" class="st83" d="M91.27,150.24c-13.88,2.86-23.06-1.45-27.09-7.3v2.79c4.03,5.85,13.21,10.16,27.09,7.3
			V150.24z"/>
		<polygon id="XMLID_690_" class="st44" points="77.5,118.01 76.71,148 73.88,150.35 72.3,147.24 74.78,117.05 		"/>
	</g>
	<g id="XMLID_626_">
		<g id="XMLID_636_" class="st84">
			<path id="XMLID_688_" class="st1" d="M226.73,424.2l-46.32,26.75c-3.04,1.76-3.02,6.16,0.04,7.89l46.37,26.11
				c2.9,1.63,6.44,1.63,9.34,0l46.37-26.11c3.06-1.72,3.09-6.13,0.04-7.89l-46.33-26.75C233.3,422.5,229.67,422.5,226.73,424.2z"/>
			<path id="XMLID_687_" class="st85" d="M226.75,424.35l-46.1,26.62c-3.03,1.75-3.01,6.13,0.04,7.85l46.15,25.98
				c2.88,1.62,6.41,1.62,9.29,0l46.15-25.98c3.05-1.72,3.07-6.1,0.04-7.85l-46.1-26.62C233.29,422.66,229.68,422.66,226.75,424.35z"
				/>
			<path id="XMLID_686_" class="st86" d="M226.77,424.5l-45.88,26.49c-3.01,1.74-2.99,6.1,0.04,7.81l45.92,25.85
				c2.87,1.62,6.38,1.62,9.25,0l45.92-25.85c3.03-1.71,3.06-6.07,0.04-7.81L236.2,424.5C233.28,422.81,229.69,422.81,226.77,424.5z"
				/>
			<path id="XMLID_685_" class="st87" d="M226.8,424.64L181.14,451c-3,1.73-2.98,6.07,0.04,7.77l45.7,25.73
				c2.86,1.61,6.34,1.61,9.2,0l45.7-25.73c3.02-1.7,3.04-6.04,0.04-7.77l-45.65-26.36C233.27,422.97,229.7,422.97,226.8,424.64z"/>
			<path id="XMLID_684_" class="st88" d="M226.82,424.79l-45.43,26.23c-2.99,1.72-2.96,6.04,0.04,7.73l45.47,25.6
				c2.84,1.6,6.31,1.6,9.16,0l45.47-25.6c3-1.69,3.03-6.01,0.04-7.73l-45.43-26.23C233.26,423.12,229.71,423.12,226.82,424.79z"/>
			<path id="XMLID_683_" class="st89" d="M226.84,424.94l-45.2,26.1c-2.97,1.72-2.95,6.01,0.04,7.69l45.25,25.47
				c2.83,1.59,6.28,1.59,9.11,0l45.25-25.47c2.99-1.68,3.01-5.98,0.04-7.69l-45.2-26.1C233.25,423.28,229.72,423.28,226.84,424.94z"
				/>
			<path id="XMLID_682_" class="st90" d="M226.87,425.08l-44.98,25.97c-2.96,1.71-2.93,5.98,0.04,7.66l45.02,25.35
				c2.81,1.58,6.25,1.58,9.06,0l45.02-25.35c2.97-1.67,3-5.95,0.04-7.66l-44.98-25.97C233.25,423.43,229.72,423.43,226.87,425.08z"
				/>
			<path id="XMLID_681_" class="st91" d="M226.89,425.23l-44.75,25.84c-2.94,1.7-2.92,5.95,0.04,7.62l44.8,25.22
				c2.8,1.58,6.22,1.58,9.02,0l44.8-25.22c2.96-1.67,2.98-5.92,0.04-7.62l-44.75-25.84C233.24,423.59,229.73,423.59,226.89,425.23z"
				/>
			<path id="XMLID_680_" class="st92" d="M226.91,425.38l-44.53,25.71c-2.93,1.69-2.9,5.92,0.04,7.58L227,483.76
				c2.79,1.57,6.19,1.57,8.97,0l44.57-25.09c2.94-1.66,2.97-5.89,0.04-7.58l-44.53-25.71C233.23,423.75,229.74,423.75,226.91,425.38
				z"/>
			<path id="XMLID_679_" class="st93" d="M226.93,425.53l-44.3,25.58c-2.91,1.68-2.89,5.89,0.04,7.54l44.35,24.97
				c2.77,1.56,6.16,1.56,8.93,0l44.35-24.97c2.93-1.65,2.95-5.86,0.04-7.54l-44.3-25.58C233.22,423.9,229.75,423.9,226.93,425.53z"
				/>
			<path id="XMLID_678_" class="st94" d="M226.96,425.67l-44.08,25.45c-2.9,1.67-2.87,5.86,0.04,7.5l44.12,24.84
				c2.76,1.55,6.13,1.55,8.88,0l44.12-24.84c2.91-1.64,2.94-5.83,0.04-7.5l-44.08-25.45C233.21,424.06,229.76,424.06,226.96,425.67z
				"/>
			<path id="XMLID_677_" class="st95" d="M226.98,425.82l-43.85,25.32c-2.88,1.66-2.86,5.83,0.04,7.46l43.9,24.71
				c2.74,1.54,6.09,1.54,8.84,0l43.9-24.71c2.9-1.63,2.92-5.8,0.04-7.46l-43.85-25.32C233.2,424.21,229.77,424.21,226.98,425.82z"/>
			<path id="XMLID_676_" class="st96" d="M227,425.97l-43.63,25.19c-2.87,1.66-2.84,5.8,0.04,7.43l43.67,24.59
				c2.73,1.54,6.06,1.54,8.79,0l43.67-24.59c2.89-1.62,2.91-5.77,0.04-7.43l-43.63-25.19C233.19,424.37,229.78,424.37,227,425.97z"
				/>
			<path id="XMLID_675_" class="st97" d="M227.03,426.11l-43.4,25.06c-2.85,1.65-2.83,5.77,0.04,7.39l43.45,24.46
				c2.72,1.53,6.03,1.53,8.75,0l43.45-24.46c2.87-1.62,2.89-5.74,0.04-7.39l-43.41-25.06C233.18,424.52,229.79,424.52,227.03,426.11
				z"/>
			<path id="XMLID_674_" class="st98" d="M227.05,426.26l-43.18,24.93c-2.84,1.64-2.82,5.74,0.04,7.35l43.22,24.33
				c2.7,1.52,6,1.52,8.7,0l43.22-24.33c2.86-1.61,2.88-5.71,0.04-7.35l-43.18-24.93C233.18,424.68,229.79,424.68,227.05,426.26z"/>
			<path id="XMLID_673_" class="st99" d="M227.07,426.41l-42.96,24.8c-2.82,1.63-2.8,5.71,0.04,7.31l43,24.21
				c2.69,1.51,5.97,1.51,8.66,0l43-24.21c2.84-1.6,2.86-5.68,0.04-7.31l-42.96-24.8C233.17,424.83,229.8,424.83,227.07,426.41z"/>
			<path id="XMLID_672_" class="st100" d="M227.1,426.56l-42.73,24.67c-2.81,1.62-2.79,5.68,0.04,7.27l42.77,24.08
				c2.67,1.51,5.94,1.51,8.61,0l42.77-24.08c2.83-1.59,2.85-5.65,0.04-7.27l-42.73-24.67C233.16,424.99,229.81,424.99,227.1,426.56z
				"/>
			<path id="XMLID_671_" class="st101" d="M227.12,426.7l-42.51,24.54c-2.79,1.61-2.77,5.65,0.04,7.24l42.55,23.96
				c2.66,1.5,5.91,1.5,8.57,0l42.55-23.96c2.81-1.58,2.83-5.62,0.04-7.24l-42.51-24.54C233.15,425.14,229.82,425.14,227.12,426.7z"
				/>
			<path id="XMLID_670_" class="st102" d="M227.14,426.85l-42.28,24.41c-2.78,1.6-2.76,5.62,0.04,7.2l42.33,23.83
				c2.65,1.49,5.88,1.49,8.52,0l42.32-23.83c2.8-1.57,2.82-5.59,0.04-7.2l-42.28-24.41C233.14,425.3,229.83,425.3,227.14,426.85z"/>
			<path id="XMLID_669_" class="st103" d="M227.17,427l-42.06,24.28c-2.76,1.6-2.74,5.59,0.04,7.16l42.1,23.7
				c2.63,1.48,5.85,1.48,8.48,0l42.1-23.7c2.78-1.57,2.8-5.56,0.04-7.16L235.8,427C233.13,425.45,229.84,425.45,227.17,427z"/>
			<path id="XMLID_668_" class="st104" d="M227.19,427.14l-41.83,24.15c-2.75,1.59-2.73,5.56,0.04,7.12l41.87,23.58
				c2.62,1.47,5.81,1.47,8.43,0l41.88-23.58c2.77-1.56,2.79-5.53,0.04-7.12l-41.83-24.15C233.12,425.61,229.85,425.61,227.19,427.14
				z"/>
			<path id="XMLID_667_" class="st105" d="M227.21,427.29l-41.61,24.02c-2.73,1.58-2.71,5.53,0.04,7.08l41.65,23.45
				c2.6,1.47,5.78,1.47,8.39,0l41.65-23.45c2.75-1.55,2.77-5.5,0.04-7.08l-41.61-24.02C233.11,425.76,229.86,425.76,227.21,427.29z"
				/>
			<path id="XMLID_666_" class="st106" d="M227.23,427.44l-41.38,23.89c-2.72,1.57-2.7,5.5,0.04,7.04l41.43,23.32
				c2.59,1.46,5.75,1.46,8.34,0l41.43-23.32c2.74-1.54,2.76-5.47,0.04-7.04l-41.38-23.89C233.1,425.92,229.86,425.92,227.23,427.44z
				"/>
			<path id="XMLID_665_" class="st107" d="M227.26,427.59l-41.16,23.76c-2.7,1.56-2.68,5.47,0.04,7.01l41.2,23.2
				c2.58,1.45,5.72,1.45,8.3,0l41.2-23.2c2.72-1.53,2.74-5.44,0.04-7.01l-41.16-23.76C233.1,426.08,229.87,426.08,227.26,427.59z"/>
			<path id="XMLID_664_" class="st108" d="M227.28,427.73l-40.93,23.63c-2.69,1.55-2.67,5.44,0.04,6.97l40.98,23.07
				c2.56,1.44,5.69,1.44,8.25,0l40.98-23.07c2.71-1.52,2.73-5.41,0.04-6.97l-40.93-23.63C233.09,426.23,229.88,426.23,227.28,427.73
				z"/>
			<path id="XMLID_663_" class="st109" d="M227.3,427.88l-40.71,23.5c-2.68,1.54-2.65,5.41,0.04,6.93l40.75,22.94
				c2.55,1.43,5.66,1.43,8.2,0l40.75-22.94c2.69-1.52,2.71-5.38,0.04-6.93l-40.71-23.5C233.08,426.39,229.89,426.39,227.3,427.88z"
				/>
			<path id="XMLID_662_" class="st110" d="M227.33,428.03l-40.49,23.37c-2.66,1.54-2.64,5.38,0.04,6.89l40.53,22.82
				c2.53,1.43,5.63,1.43,8.16,0l40.53-22.82c2.68-1.51,2.7-5.36,0.04-6.89l-40.49-23.37C233.07,426.54,229.9,426.54,227.33,428.03z"
				/>
			<path id="XMLID_661_" class="st111" d="M227.35,428.17l-40.26,23.24c-2.65,1.53-2.63,5.35,0.04,6.85l40.3,22.69
				c2.52,1.42,5.6,1.42,8.11,0l40.3-22.69c2.66-1.5,2.68-5.33,0.04-6.85l-40.26-23.24C233.06,426.7,229.91,426.7,227.35,428.17z"/>
			<path id="XMLID_660_" class="st112" d="M227.37,428.32l-40.04,23.11c-2.63,1.52-2.61,5.32,0.04,6.81l40.08,22.56
				c2.5,1.41,5.56,1.41,8.07,0l40.08-22.56c2.65-1.49,2.67-5.3,0.04-6.81l-40.04-23.11C233.05,426.85,229.92,426.85,227.37,428.32z"
				/>
			<path id="XMLID_659_" class="st113" d="M227.4,428.47l-39.81,22.98c-2.62,1.51-2.6,5.29,0.04,6.78l39.85,22.44
				c2.49,1.4,5.53,1.4,8.02,0l39.85-22.44c2.63-1.48,2.65-5.27,0.04-6.78l-39.81-22.98C233.04,427.01,229.93,427.01,227.4,428.47z"
				/>
			<path id="XMLID_658_" class="st114" d="M227.42,428.62l-39.59,22.86c-2.6,1.5-2.58,5.26,0.04,6.74l39.63,22.31
				c2.48,1.39,5.5,1.39,7.98,0l39.63-22.31c2.62-1.47,2.64-5.24,0.04-6.74l-39.59-22.86C233.03,427.16,229.94,427.16,227.42,428.62z
				"/>
			<path id="XMLID_657_" class="st115" d="M227.44,428.76l-39.36,22.73c-2.59,1.49-2.57,5.23,0.04,6.7l39.4,22.18
				c2.46,1.39,5.47,1.39,7.93,0l39.4-22.18c2.6-1.47,2.62-5.21,0.04-6.7l-39.36-22.73C233.03,427.32,229.94,427.32,227.44,428.76z"
				/>
			<path id="XMLID_656_" class="st116" d="M227.47,428.91l-39.14,22.6c-2.57,1.49-2.55,5.2,0.04,6.66l39.18,22.06
				c2.45,1.38,5.44,1.38,7.89,0l39.18-22.06c2.59-1.46,2.61-5.18,0.04-6.66l-39.14-22.6C233.02,427.47,229.95,427.47,227.47,428.91z
				"/>
			<path id="XMLID_655_" class="st117" d="M227.49,429.06l-38.91,22.47c-2.56,1.48-2.54,5.17,0.04,6.62l38.95,21.93
				c2.43,1.37,5.41,1.37,7.84,0l38.95-21.93c2.57-1.45,2.59-5.15,0.04-6.62l-38.91-22.47C233.01,427.63,229.96,427.63,227.49,429.06
				z"/>
			<path id="XMLID_654_" class="st118" d="M227.51,429.2l-38.69,22.34c-2.54,1.47-2.52,5.15,0.04,6.59l38.73,21.8
				c2.42,1.36,5.38,1.36,7.8,0l38.73-21.8c2.56-1.44,2.58-5.12,0.04-6.59l-38.69-22.34C233,427.78,229.97,427.78,227.51,429.2z"/>
			<path id="XMLID_653_" class="st119" d="M227.53,429.35l-38.46,22.21c-2.53,1.46-2.51,5.11,0.04,6.55l38.5,21.68
				c2.41,1.36,5.35,1.36,7.75,0l38.5-21.68c2.54-1.43,2.56-5.09,0.04-6.55l-38.46-22.21C232.99,427.94,229.98,427.94,227.53,429.35z
				"/>
			<path id="XMLID_652_" class="st120" d="M227.56,429.5l-38.24,22.08c-2.51,1.45-2.49,5.09,0.04,6.51l38.28,21.55
				c2.39,1.35,5.31,1.35,7.71,0l38.28-21.55c2.53-1.42,2.55-5.06,0.03-6.51l-38.24-22.08C232.98,428.1,229.99,428.1,227.56,429.5z"
				/>
			<path id="XMLID_651_" class="st121" d="M227.58,429.65l-38.01,21.95c-2.5,1.44-2.48,5.06,0.03,6.47l38.05,21.42
				c2.38,1.34,5.28,1.34,7.66,0l38.05-21.42c2.51-1.42,2.53-5.03,0.03-6.47l-38.01-21.95C232.97,428.25,230,428.25,227.58,429.65z"
				/>
			<path id="XMLID_650_" class="st122" d="M227.6,429.79l-37.79,21.82c-2.48,1.43-2.46,5.03,0.04,6.43l37.83,21.3
				c2.36,1.33,5.25,1.33,7.62,0l37.83-21.3c2.5-1.41,2.52-5,0.03-6.43l-37.79-21.82C232.96,428.41,230.01,428.41,227.6,429.79z"/>
			<path id="XMLID_649_" class="st123" d="M227.63,429.94l-37.57,21.69c-2.47,1.43-2.45,5,0.03,6.39l37.6,21.17
				c2.35,1.32,5.22,1.32,7.57,0l37.6-21.17c2.48-1.4,2.5-4.97,0.03-6.39l-37.57-21.69C232.96,428.56,230.01,428.56,227.63,429.94z"
				/>
			<path id="XMLID_648_" class="st124" d="M227.65,430.09l-37.34,21.56c-2.45,1.42-2.43,4.97,0.03,6.36l37.38,21.04
				c2.34,1.32,5.19,1.32,7.53,0L272.63,458c2.47-1.39,2.49-4.94,0.03-6.36l-37.34-21.56C232.95,428.72,230.02,428.72,227.65,430.09z
				"/>
			<path id="XMLID_647_" class="st125" d="M227.67,430.23l-37.12,21.43c-2.44,1.41-2.42,4.94,0.03,6.32l37.15,20.92
				c2.32,1.31,5.16,1.31,7.48,0l37.15-20.92c2.45-1.38,2.47-4.91,0.03-6.32l-37.12-21.43C232.94,428.87,230.03,428.87,227.67,430.23
				z"/>
			<path id="XMLID_646_" class="st126" d="M227.7,430.38l-36.89,21.3c-2.42,1.4-2.41,4.91,0.03,6.28l36.93,20.79
				c2.31,1.3,5.13,1.3,7.44,0l36.93-20.79c2.44-1.37,2.46-4.88,0.03-6.28l-36.89-21.3C232.93,429.03,230.04,429.03,227.7,430.38z"/>
			<path id="XMLID_645_" class="st127" d="M227.72,430.53l-36.67,21.17c-2.41,1.39-2.39,4.88,0.03,6.24l36.7,20.66
				c2.29,1.29,5.1,1.29,7.39,0l36.7-20.66c2.42-1.37,2.44-4.85,0.03-6.24l-36.67-21.17C232.92,429.18,230.05,429.18,227.72,430.53z"
				/>
			<path id="XMLID_644_" class="st128" d="M227.74,430.68l-36.44,21.04c-2.4,1.38-2.38,4.85,0.03,6.2l36.48,20.54
				c2.28,1.28,5.06,1.28,7.34,0l36.48-20.54c2.41-1.36,2.43-4.82,0.03-6.2l-36.44-21.04C232.91,429.34,230.06,429.34,227.74,430.68z
				"/>
			<path id="XMLID_643_" class="st129" d="M227.76,430.82l-36.22,20.91c-2.38,1.37-2.36,4.82,0.03,6.16l36.25,20.41
				c2.27,1.28,5.03,1.28,7.3,0l36.25-20.41c2.39-1.35,2.41-4.79,0.03-6.16l-36.22-20.91C232.9,429.49,230.07,429.49,227.76,430.82z"
				/>
			<path id="XMLID_642_" class="st130" d="M227.79,430.97l-35.99,20.78c-2.37,1.37-2.35,4.79,0.03,6.13l36.03,20.28
				c2.25,1.27,5,1.27,7.25,0l36.03-20.28c2.38-1.34,2.4-4.76,0.03-6.13l-35.99-20.78C232.89,429.65,230.08,429.65,227.79,430.97z"/>
			<path id="XMLID_641_" class="st131" d="M227.81,431.12l-35.77,20.65c-2.35,1.36-2.33,4.76,0.03,6.09l35.8,20.16
				c2.24,1.26,4.97,1.26,7.21,0l35.8-20.16c2.37-1.33,2.38-4.73,0.03-6.09l-35.77-20.65C232.89,429.8,230.08,429.8,227.81,431.12z"
				/>
			<path id="XMLID_640_" class="st132" d="M227.83,431.26l-35.54,20.52c-2.34,1.35-2.32,4.73,0.03,6.05l35.58,20.03
				c2.22,1.25,4.94,1.25,7.16,0l35.58-20.03c2.35-1.32,2.37-4.7,0.03-6.05l-35.54-20.52C232.88,429.96,230.09,429.96,227.83,431.26z
				"/>
			<path id="XMLID_639_" class="st133" d="M227.86,431.41l-35.32,20.39c-2.32,1.34-2.3,4.7,0.03,6.01l35.35,19.9
				c2.21,1.24,4.91,1.24,7.12,0l35.36-19.9c2.34-1.31,2.35-4.67,0.03-6.01l-35.32-20.39C232.87,430.12,230.1,430.12,227.86,431.41z"
				/>
			<path id="XMLID_638_" class="st134" d="M227.88,431.56l-35.09,20.26c-2.31,1.33-2.29,4.67,0.03,5.97l35.13,19.78
				c2.2,1.24,4.88,1.24,7.07,0l35.13-19.78c2.32-1.31,2.34-4.64,0.03-5.97l-35.09-20.26C232.86,430.27,230.11,430.27,227.88,431.56z
				"/>
			<path id="XMLID_637_" class="st42" d="M227.9,431.71l-34.87,20.13c-2.29,1.32-2.27,4.64,0.03,5.94l34.91,19.65
				c2.18,1.23,4.85,1.23,7.03,0l34.9-19.65c2.31-1.3,2.32-4.61,0.03-5.94l-34.87-20.13C232.85,430.43,230.12,430.43,227.9,431.71z"
				/>
		</g>
		<linearGradient id="XMLID_32_" gradientUnits="userSpaceOnUse" x1="185.885" y1="453.7487" x2="276.9858" y2="453.7487">
			<stop  offset="0" style="stop-color:#8F56E2"/>
			<stop  offset="1" style="stop-color:#FFFFFF"/>
		</linearGradient>
		<path id="XMLID_635_" class="st135" d="M227.42,427.81l-41.53,18.74v6.88c0,1.62,0.87,3.12,2.28,3.92l39.33,22.37
			c2.48,1.39,5.5,1.39,7.98,0l39.22-22.1c1.42-0.8,2.29-2.3,2.29-3.93v-6.34l-41.43-19.55
			C233.03,426.36,229.93,426.36,227.42,427.81z"/>
		<path id="XMLID_634_" class="st44" d="M227.42,420.29l-39.59,22.86c-2.6,1.5-2.58,5.27,0.04,6.74l39.63,22.31
			c2.48,1.39,5.5,1.39,7.98,0l39.63-22.31c2.62-1.47,2.64-5.24,0.04-6.74l-39.59-22.86C233.03,418.84,229.93,418.84,227.42,420.29z"
			/>
		<linearGradient id="XMLID_33_" gradientUnits="userSpaceOnUse" x1="218.9608" y1="436.3842" x2="277.0847" y2="436.3842">
			<stop  offset="0" style="stop-color:#8647E1"/>
			<stop  offset="1" style="stop-color:#B78FED"/>
		</linearGradient>
		<path id="XMLID_633_" class="st136" d="M275.15,443.15l-39.59-22.86c-2.52-1.45-5.62-1.45-8.13,0l-8.46,4.78l49.35,28.49l6.8-3.68
			C277.73,448.42,277.75,444.65,275.15,443.15z"/>
		<polygon id="XMLID_632_" class="st43" points="217.95,443.41 227.22,438.06 217.95,432.7 208.68,438.06 		"/>
		<polygon id="XMLID_631_" class="st43" points="231.48,451.4 240.76,446.05 231.48,440.69 222.21,446.05 		"/>
		<polygon id="XMLID_630_" class="st43" points="245.02,459.39 254.29,454.04 245.02,448.68 235.75,454.04 		"/>
		<polygon id="XMLID_629_" class="st43" points="205.43,451.4 214.7,446.05 205.43,440.69 196.15,446.05 		"/>
		<polygon id="XMLID_628_" class="st43" points="218.96,459.39 228.23,454.04 218.96,448.68 209.69,454.04 		"/>
		<polygon id="XMLID_627_" class="st43" points="232.5,467.38 241.77,462.03 232.5,456.67 223.22,462.03 		"/>
	</g>
	<g id="XMLID_612_">
		
			<radialGradient id="XMLID_34_" cx="309.157" cy="8012.291" r="40.0888" gradientTransform="matrix(1 0 0 0.5172 0 -3735.4131)" gradientUnits="userSpaceOnUse">
			<stop  offset="0.5285" style="stop-color:#3C5185"/>
			<stop  offset="0.5686" style="stop-color:#66769F"/>
			<stop  offset="0.6148" style="stop-color:#8E9AB8"/>
			<stop  offset="0.664" style="stop-color:#B1BACE"/>
			<stop  offset="0.7158" style="stop-color:#CED3E0"/>
			<stop  offset="0.771" style="stop-color:#E3E6EE"/>
			<stop  offset="0.8315" style="stop-color:#F3F4F7"/>
			<stop  offset="0.901" style="stop-color:#FCFCFD"/>
			<stop  offset="1" style="stop-color:#FFFFFF"/>
		</radialGradient>
		<path id="XMLID_625_" class="st137" d="M281.08,392.33c15.44-8.92,40.71-8.92,56.15,0c15.44,8.92,15.44,23.5,0,32.42
			c-15.44,8.91-40.71,8.91-56.15,0C265.64,415.84,265.64,401.25,281.08,392.33z"/>
		<linearGradient id="XMLID_35_" gradientUnits="userSpaceOnUse" x1="280.2555" y1="404.2607" x2="337.0146" y2="404.2607">
			<stop  offset="0" style="stop-color:#8F56E2"/>
			<stop  offset="1" style="stop-color:#FFFFFF"/>
		</linearGradient>
		<path id="XMLID_624_" class="st138" d="M337.01,396.69h-3.18c-1.3-1.45-3-2.82-5.11-4.03c-11.05-6.38-29.13-6.38-40.18,0
			c-2.11,1.22-3.81,2.58-5.11,4.03h-3.18v7.51h0c-0.03,4.22,2.73,8.45,8.29,11.66c11.05,6.38,29.13,6.38,40.18,0
			c5.55-3.21,8.31-7.44,8.29-11.66h0V396.69z"/>
		<linearGradient id="XMLID_36_" gradientUnits="userSpaceOnUse" x1="280.2558" y1="396.6944" x2="337.0148" y2="396.6944">
			<stop  offset="0" style="stop-color:#DCDFFB"/>
			<stop  offset="1" style="stop-color:#F3F3FA"/>
		</linearGradient>
		<ellipse id="XMLID_623_" class="st139" cx="308.64" cy="396.69" rx="28.41" ry="16.4"/>
		<path id="XMLID_622_" class="st44" d="M290.62,386.29c9.91-5.72,26.13-5.72,36.04,0c9.91,5.72,9.91,15.08,0,20.81
			c-9.91,5.72-26.13,5.72-36.04,0C280.71,401.38,280.71,392.01,290.62,386.29z"/>
		<g id="XMLID_620_">
			<linearGradient id="XMLID_37_" gradientUnits="userSpaceOnUse" x1="307.857" y1="393.5506" x2="321.7345" y2="393.5506">
				<stop  offset="0" style="stop-color:#8647E1"/>
				<stop  offset="1" style="stop-color:#B78FED"/>
			</linearGradient>
			<path id="XMLID_621_" class="st140" d="M309.26,398.15c-0.48,0-0.95-0.25-1.21-0.7c-0.39-0.67-0.16-1.52,0.51-1.91l11.08-6.4
				c0.67-0.39,1.52-0.16,1.91,0.51c0.39,0.67,0.16,1.53-0.51,1.91l-11.08,6.4C309.74,398.09,309.5,398.15,309.26,398.15z"/>
		</g>
		<g id="XMLID_618_">
			<linearGradient id="XMLID_38_" gradientUnits="userSpaceOnUse" x1="308.6722" y1="400.576" x2="324.0259" y2="400.576">
				<stop  offset="0" style="stop-color:#8647E1"/>
				<stop  offset="1" style="stop-color:#B78FED"/>
			</linearGradient>
			<path id="XMLID_619_" class="st141" d="M322.98,405.45c-0.18,0-0.36-0.04-0.52-0.14l-13.25-7.65c-0.5-0.29-0.67-0.93-0.38-1.43
				c0.29-0.5,0.93-0.67,1.43-0.38l13.25,7.65c0.5,0.29,0.67,0.93,0.38,1.43C323.69,405.26,323.34,405.45,322.98,405.45z"/>
		</g>
		<linearGradient id="XMLID_39_" gradientUnits="userSpaceOnUse" x1="304.6822" y1="396.7498" x2="313.8309" y2="396.7498">
			<stop  offset="0" style="stop-color:#8647E1"/>
			<stop  offset="1" style="stop-color:#B78FED"/>
		</linearGradient>
		<path id="XMLID_617_" class="st142" d="M306.02,394.88c1.78-1.03,4.7-1.03,6.48,0c1.78,1.03,1.78,2.71,0,3.74
			c-1.78,1.03-4.7,1.03-6.48,0C304.24,397.59,304.24,395.91,306.02,394.88z"/>
		<linearGradient id="XMLID_40_" gradientUnits="userSpaceOnUse" x1="322.4066" y1="387.8758" x2="325.6449" y2="387.8758">
			<stop  offset="0" style="stop-color:#8647E1"/>
			<stop  offset="1" style="stop-color:#B78FED"/>
		</linearGradient>
		<path id="XMLID_616_" class="st143" d="M322.88,387.21c0.63-0.36,1.66-0.36,2.29,0c0.63,0.36,0.63,0.96,0,1.32
			c-0.63,0.36-1.66,0.36-2.29,0S322.25,387.58,322.88,387.21z"/>
		<linearGradient id="XMLID_41_" gradientUnits="userSpaceOnUse" x1="292.607" y1="387.8758" x2="295.8453" y2="387.8758">
			<stop  offset="0" style="stop-color:#8647E1"/>
			<stop  offset="1" style="stop-color:#B78FED"/>
		</linearGradient>
		<path id="XMLID_615_" class="st144" d="M293.08,387.21c0.63-0.36,1.66-0.36,2.29,0c0.63,0.36,0.63,0.96,0,1.32
			c-0.63,0.36-1.66,0.36-2.29,0S292.45,387.58,293.08,387.21z"/>
		<linearGradient id="XMLID_42_" gradientUnits="userSpaceOnUse" x1="290.9876" y1="405.4518" x2="294.226" y2="405.4518">
			<stop  offset="0" style="stop-color:#8647E1"/>
			<stop  offset="1" style="stop-color:#B78FED"/>
		</linearGradient>
		<ellipse id="XMLID_614_" class="st145" cx="292.61" cy="405.45" rx="1.62" ry="0.94"/>
		<linearGradient id="XMLID_43_" gradientUnits="userSpaceOnUse" x1="323.3391" y1="406.3867" x2="326.5773" y2="406.3867">
			<stop  offset="0" style="stop-color:#8647E1"/>
			<stop  offset="1" style="stop-color:#B78FED"/>
		</linearGradient>
		<path id="XMLID_613_" class="st146" d="M323.81,405.73c0.63-0.36,1.66-0.36,2.29,0c0.63,0.36,0.63,0.96,0,1.32
			c-0.63,0.36-1.66,0.36-2.29,0C323.18,406.68,323.18,406.09,323.81,405.73z"/>
	</g>
</g>
</svg>
