<?xml version="1.0" encoding="utf-8"?>
<!-- Generator: Adobe Illustrator 25.2.1, SVG Export Plug-In . SVG Version: 6.00 Build 0)  -->
<svg version="1.1" id="Layer_1" xmlns="http://www.w3.org/2000/svg" width="450" xmlns:xlink="http://www.w3.org/1999/xlink" x="0px" y="0px"
	 viewBox="0 0 373.34 291.11" style="enable-background:new 0 0 373.34 291.11;" xml:space="preserve">
<style type="text/css">
	.st0{fill:#D1D4FC;}
	.st1{opacity:0.5;}
	.st2{fill:#FFFFFF;}
	.st3{opacity:0.1;fill:#FFFFFF;}
	.st4{opacity:0.6;fill:#FFFFFF;}
	.st5{opacity:0.7;fill:#FFFFFF;}
	.st6{opacity:0.3;fill:#FFFFFF;}
	.st7{opacity:0.2;fill:#FFFFFF;}
	.st8{opacity:0.4;fill:#FFFFFF;}
	.st9{opacity:0.5;fill:#FFFFFF;}
	.st10{opacity:0.8;fill:#FFFFFF;}
	.st11{opacity:0.9;fill:#FFFFFF;}
	.st12{fill-rule:evenodd;clip-rule:evenodd;fill:#DBCFD9;}
	.st13{fill-rule:evenodd;clip-rule:evenodd;fill:#D1D4FC;}
	.st14{opacity:0.05;fill:url(#SVGID_1_);}
	.st15{opacity:0.1;fill:url(#SVGID_2_);}
	.st16{opacity:0.15;fill:url(#SVGID_3_);}
	.st17{opacity:0.2;fill:url(#SVGID_4_);}
	.st18{opacity:0.25;fill:url(#SVGID_5_);}
	.st19{opacity:0.3;fill:url(#SVGID_6_);}
	.st20{opacity:0.35;fill:url(#SVGID_7_);}
	.st21{opacity:0.4;fill:url(#SVGID_8_);}
	.st22{opacity:0.45;fill:url(#SVGID_9_);}
	.st23{opacity:0.5;fill:url(#SVGID_10_);}
	.st24{opacity:0.55;fill:url(#SVGID_11_);}
	.st25{opacity:0.6;fill:url(#SVGID_12_);}
	.st26{opacity:0.65;fill:url(#SVGID_13_);}
	.st27{opacity:0.7;fill:url(#SVGID_14_);}
	.st28{opacity:0.75;fill:url(#SVGID_15_);}
	.st29{opacity:0.8;fill:url(#SVGID_16_);}
	.st30{opacity:0.85;fill:url(#SVGID_17_);}
	.st31{fill:url(#SVGID_18_);}
	.st32{fill:url(#SVGID_19_);}
	.st33{fill:url(#SVGID_20_);}
	.st34{fill:url(#SVGID_21_);}
	.st35{fill:url(#SVGID_22_);}
	.st36{fill:url(#SVGID_23_);}
	.st37{opacity:0.05;fill:url(#SVGID_24_);}
	.st38{opacity:0.1;fill:url(#SVGID_25_);}
	.st39{opacity:0.15;fill:url(#SVGID_26_);}
	.st40{opacity:0.2;fill:url(#SVGID_27_);}
	.st41{opacity:0.25;fill:url(#SVGID_28_);}
	.st42{opacity:0.3;fill:url(#SVGID_29_);}
	.st43{opacity:0.35;fill:url(#SVGID_30_);}
	.st44{opacity:0.4;fill:url(#SVGID_31_);}
	.st45{opacity:0.45;fill:url(#SVGID_32_);}
	.st46{opacity:0.5;fill:url(#SVGID_33_);}
	.st47{opacity:0.55;fill:url(#SVGID_34_);}
	.st48{opacity:0.6;fill:url(#SVGID_35_);}
	.st49{opacity:0.65;fill:url(#SVGID_36_);}
	.st50{opacity:0.7;fill:url(#SVGID_37_);}
	.st51{opacity:0.75;fill:url(#SVGID_38_);}
	.st52{opacity:0.8;fill:url(#SVGID_39_);}
	.st53{opacity:0.85;fill:url(#SVGID_40_);}
	.st54{opacity:0.9;fill:url(#SVGID_41_);}
	.st55{opacity:0.95;fill:url(#SVGID_42_);}
	.st56{fill:url(#SVGID_43_);}
	.st57{fill:url(#SVGID_44_);}
	.st58{fill:url(#SVGID_45_);}
	.st59{fill:url(#SVGID_46_);}
	.st60{fill:url(#SVGID_47_);}
	.st61{fill:url(#SVGID_48_);}
	.st62{fill:url(#SVGID_49_);}
	.st63{fill:url(#SVGID_50_);}
	.st64{fill:url(#SVGID_51_);}
	.st65{fill:url(#SVGID_52_);}
	.st66{fill:url(#SVGID_53_);}
	.st67{fill:url(#SVGID_54_);}
	.st68{fill:#FFD6D6;}
	.st69{fill:#450606;}
	.st70{fill:url(#SVGID_55_);}
	.st71{opacity:0.05;fill:url(#SVGID_56_);}
	.st72{opacity:0.1;fill:url(#SVGID_57_);}
	.st73{opacity:0.15;fill:url(#SVGID_58_);}
	.st74{opacity:0.2;fill:url(#SVGID_59_);}
	.st75{opacity:0.25;fill:url(#SVGID_60_);}
	.st76{opacity:0.3;fill:url(#SVGID_61_);}
	.st77{opacity:0.35;fill:url(#SVGID_62_);}
	.st78{opacity:0.4;fill:url(#SVGID_63_);}
	.st79{opacity:0.45;fill:url(#SVGID_64_);}
	.st80{opacity:0.5;fill:url(#SVGID_65_);}
	.st81{opacity:0.55;fill:url(#SVGID_66_);}
	.st82{opacity:0.6;fill:url(#SVGID_67_);}
	.st83{opacity:0.65;fill:url(#SVGID_68_);}
	.st84{opacity:0.7;fill:url(#SVGID_69_);}
	.st85{opacity:0.75;fill:url(#SVGID_70_);}
	.st86{opacity:0.8;fill:url(#SVGID_71_);}
	.st87{opacity:0.85;fill:url(#SVGID_72_);}
	.st88{opacity:0.9;fill:url(#SVGID_73_);}
	.st89{opacity:0.95;fill:url(#SVGID_74_);}
	.st90{fill:url(#SVGID_75_);}
	.st91{fill:url(#SVGID_76_);}
	.st92{fill:url(#SVGID_77_);}
	.st93{opacity:0.05;fill:url(#SVGID_78_);}
	.st94{opacity:0.1;fill:url(#SVGID_79_);}
	.st95{opacity:0.15;fill:url(#SVGID_80_);}
	.st96{opacity:0.2;fill:url(#SVGID_81_);}
	.st97{opacity:0.25;fill:url(#SVGID_82_);}
	.st98{opacity:0.3;fill:url(#SVGID_83_);}
	.st99{opacity:0.35;fill:url(#SVGID_84_);}
	.st100{opacity:0.4;fill:url(#SVGID_85_);}
	.st101{opacity:0.45;fill:url(#SVGID_86_);}
	.st102{opacity:0.5;fill:url(#SVGID_87_);}
	.st103{opacity:0.55;fill:url(#SVGID_88_);}
	.st104{opacity:0.6;fill:url(#SVGID_89_);}
	.st105{opacity:0.65;fill:url(#SVGID_90_);}
	.st106{opacity:0.7;fill:url(#SVGID_91_);}
	.st107{opacity:0.75;fill:url(#SVGID_92_);}
	.st108{opacity:0.8;fill:url(#SVGID_93_);}
	.st109{opacity:0.85;fill:url(#SVGID_94_);}
	.st110{opacity:0.9;fill:url(#SVGID_95_);}
	.st111{opacity:0.95;fill:url(#SVGID_96_);}
	.st112{fill:url(#SVGID_97_);}
	.st113{fill:url(#SVGID_98_);}
	.st114{fill:url(#SVGID_99_);}
	.st115{opacity:0.05;fill:url(#SVGID_100_);}
	.st116{opacity:0.1;fill:url(#SVGID_101_);}
	.st117{opacity:0.15;fill:url(#SVGID_102_);}
	.st118{opacity:0.2;fill:url(#SVGID_103_);}
	.st119{opacity:0.25;fill:url(#SVGID_104_);}
	.st120{opacity:0.3;fill:url(#SVGID_105_);}
	.st121{opacity:0.35;fill:url(#SVGID_106_);}
	.st122{opacity:0.4;fill:url(#SVGID_107_);}
	.st123{opacity:0.45;fill:url(#SVGID_108_);}
	.st124{opacity:0.5;fill:url(#SVGID_109_);}
	.st125{opacity:0.55;fill:url(#SVGID_110_);}
	.st126{opacity:0.6;fill:url(#SVGID_111_);}
	.st127{opacity:0.65;fill:url(#SVGID_112_);}
	.st128{opacity:0.7;fill:url(#SVGID_113_);}
	.st129{opacity:0.75;fill:url(#SVGID_114_);}
	.st130{opacity:0.8;fill:url(#SVGID_115_);}
	.st131{opacity:0.85;fill:url(#SVGID_116_);}
	.st132{opacity:0.9;fill:url(#SVGID_117_);}
	.st133{opacity:0.95;fill:url(#SVGID_118_);}
	.st134{fill:url(#SVGID_119_);}
	.st135{fill:url(#SVGID_120_);}
	.st136{fill:url(#SVGID_121_);}
	.st137{fill:url(#SVGID_122_);}
	.st138{opacity:0.5;fill:url(#SVGID_123_);}
	.st139{opacity:0.5;fill:url(#SVGID_124_);}
	.st140{fill:url(#SVGID_125_);}
	.st141{fill:url(#SVGID_126_);}
	.st142{fill:url(#SVGID_127_);}
	.st143{fill:url(#SVGID_128_);}
	.st144{fill:url(#SVGID_129_);}
	.st145{fill:url(#SVGID_130_);}
	.st146{fill:url(#SVGID_131_);}
	.st147{fill:url(#SVGID_132_);}
	.st148{fill:url(#SVGID_133_);}
	.st149{fill:url(#SVGID_134_);}
	.st150{fill:url(#SVGID_135_);}
	.st151{fill:url(#SVGID_136_);}
	.st152{fill:url(#SVGID_137_);}
	.st153{fill:#814D4D;}
	.st154{fill:url(#SVGID_138_);}
	.st155{fill:url(#SVGID_139_);}
	.st156{fill:url(#SVGID_140_);}
	.st157{fill:url(#SVGID_141_);}
</style>
<g>
	<rect x="13.88" y="14.04" class="st0" width="319.99" height="215.61"/>
	<g class="st1">
		<path class="st2" d="M32.71,210.72h-1.44c-0.75,0-1.36-0.61-1.36-1.36v-2.22c0-0.75,0.61-1.36,1.36-1.36h1.44
			c0.75,0,1.36,0.61,1.36,1.36v2.22C34.07,210.11,33.46,210.72,32.71,210.72z M31.27,206.37c-0.42,0-0.77,0.35-0.77,0.77v2.22
			c0,0.42,0.35,0.77,0.77,0.77h1.44c0.43,0,0.77-0.35,0.77-0.77v-2.22c0-0.43-0.35-0.77-0.77-0.77H31.27z"/>
		<path class="st2" d="M22.46,210.72h-1.44c-0.75,0-1.36-0.61-1.36-1.36v-2.22c0-0.75,0.61-1.36,1.36-1.36h1.44
			c0.75,0,1.36,0.61,1.36,1.36v2.22C23.81,210.11,23.2,210.72,22.46,210.72z M21.02,206.37c-0.43,0-0.77,0.35-0.77,0.77v2.22
			c0,0.42,0.35,0.77,0.77,0.77h1.44c0.42,0,0.77-0.35,0.77-0.77v-2.22c0-0.43-0.35-0.77-0.77-0.77H21.02z"/>
		<path class="st3" d="M89.55,210.72h-1.44c-0.75,0-1.36-0.61-1.36-1.36v-2.22c0-0.75,0.61-1.36,1.36-1.36h1.44
			c0.75,0,1.36,0.61,1.36,1.36v2.22C90.9,210.11,90.29,210.72,89.55,210.72z M88.11,206.37c-0.42,0-0.77,0.35-0.77,0.77v2.22
			c0,0.42,0.35,0.77,0.77,0.77h1.44c0.43,0,0.77-0.35,0.77-0.77v-2.22c0-0.43-0.35-0.77-0.77-0.77H88.11z"/>
		<path class="st4" d="M65.13,210.72h-1.44c-0.75,0-1.36-0.61-1.36-1.36v-2.22c0-0.75,0.61-1.36,1.36-1.36h1.44
			c0.75,0,1.36,0.61,1.36,1.36v2.22C66.49,210.11,65.88,210.72,65.13,210.72z M63.69,206.37c-0.43,0-0.77,0.35-0.77,0.77v2.22
			c0,0.42,0.35,0.77,0.77,0.77h1.44c0.43,0,0.77-0.35,0.77-0.77v-2.22c0-0.43-0.35-0.77-0.77-0.77H63.69z"/>
		<path class="st5" d="M58.88,210.72h-1.44c-0.75,0-1.36-0.61-1.36-1.36v-2.22c0-0.75,0.61-1.36,1.36-1.36h1.44
			c0.75,0,1.36,0.61,1.36,1.36v2.22C60.24,210.11,59.63,210.72,58.88,210.72z M57.44,206.37c-0.43,0-0.77,0.35-0.77,0.77v2.22
			c0,0.42,0.35,0.77,0.77,0.77h1.44c0.43,0,0.77-0.35,0.77-0.77v-2.22c0-0.43-0.35-0.77-0.77-0.77H57.44z"/>
		<path class="st6" d="M79.29,210.72h-1.44c-0.75,0-1.36-0.61-1.36-1.36v-2.22c0-0.75,0.61-1.36,1.36-1.36h1.44
			c0.75,0,1.36,0.61,1.36,1.36v2.22C80.65,210.11,80.04,210.72,79.29,210.72z M77.85,206.37c-0.43,0-0.77,0.35-0.77,0.77v2.22
			c0,0.42,0.35,0.77,0.77,0.77h1.44c0.43,0,0.77-0.35,0.77-0.77v-2.22c0-0.43-0.35-0.77-0.77-0.77H77.85z"/>
		<polygon class="st7" points="84.5,205.8 83.69,205.8 82.37,207.17 83.19,207.17 83.9,206.43 83.9,210.71 84.48,210.71 
			84.48,205.82 		"/>
		<polygon class="st8" points="74.5,205.8 73.69,205.8 72.37,207.17 73.19,207.17 73.9,206.43 73.9,210.71 74.48,210.71 
			74.48,205.82 		"/>
		<polygon class="st9" points="70.44,205.8 69.63,205.8 68.31,207.17 69.12,207.17 69.83,206.43 69.83,210.71 70.42,210.71 
			70.42,205.82 		"/>
		<polygon class="st10" points="54.14,205.8 53.33,205.8 52.01,207.17 52.83,207.17 53.54,206.43 53.54,210.71 54.12,210.71 
			54.12,205.82 		"/>
		<polygon class="st2" points="43.89,205.8 43.08,205.8 41.76,207.17 42.57,207.17 43.28,206.43 43.28,210.71 43.87,210.71 
			43.87,205.82 		"/>
		<polygon class="st2" points="27.74,205.8 26.93,205.8 25.61,207.17 26.42,207.17 27.13,206.43 27.13,210.71 27.72,210.71 
			27.72,205.82 		"/>
		<path class="st11" d="M48.91,210.72h-1.44c-0.75,0-1.36-0.61-1.36-1.36v-2.22c0-0.75,0.61-1.36,1.36-1.36h1.44
			c0.75,0,1.36,0.61,1.36,1.36v2.22C50.26,210.11,49.66,210.72,48.91,210.72z M47.47,206.37c-0.42,0-0.77,0.35-0.77,0.77v2.22
			c0,0.42,0.35,0.77,0.77,0.77h1.44c0.43,0,0.77-0.35,0.77-0.77v-2.22c0-0.43-0.35-0.77-0.77-0.77H47.47z"/>
		<path class="st2" d="M38.65,210.72h-1.44c-0.75,0-1.36-0.61-1.36-1.36v-2.22c0-0.75,0.61-1.36,1.36-1.36h1.44
			c0.75,0,1.36,0.61,1.36,1.36v2.22C40.01,210.11,39.4,210.72,38.65,210.72z M37.22,206.37c-0.43,0-0.77,0.35-0.77,0.77v2.22
			c0,0.42,0.35,0.77,0.77,0.77h1.44c0.42,0,0.77-0.35,0.77-0.77v-2.22c0-0.43-0.35-0.77-0.77-0.77H37.22z"/>
	</g>
	<g class="st1">
		<path class="st2" d="M101.52,40.91h-1.44c-0.75,0-1.36-0.61-1.36-1.36v-2.22c0-0.75,0.61-1.36,1.36-1.36h1.44
			c0.75,0,1.36,0.61,1.36,1.36v2.22C102.87,40.3,102.26,40.91,101.52,40.91z M100.08,36.57c-0.43,0-0.77,0.35-0.77,0.77v2.22
			c0,0.43,0.35,0.77,0.77,0.77h1.44c0.43,0,0.77-0.35,0.77-0.77v-2.22c0-0.43-0.35-0.77-0.77-0.77H100.08z"/>
		<path class="st2" d="M77.1,40.91h-1.44c-0.75,0-1.36-0.61-1.36-1.36v-2.22c0-0.75,0.61-1.36,1.36-1.36h1.44
			c0.75,0,1.36,0.61,1.36,1.36v2.22C78.46,40.3,77.85,40.91,77.1,40.91z M75.67,36.57c-0.43,0-0.77,0.35-0.77,0.77v2.22
			c0,0.43,0.35,0.77,0.77,0.77h1.44c0.42,0,0.77-0.35,0.77-0.77v-2.22c0-0.43-0.35-0.77-0.77-0.77H75.67z"/>
		<path class="st2" d="M70.85,40.91h-1.44c-0.75,0-1.36-0.61-1.36-1.36v-2.22c0-0.75,0.61-1.36,1.36-1.36h1.44
			c0.75,0,1.36,0.61,1.36,1.36v2.22C72.21,40.3,71.6,40.91,70.85,40.91z M69.42,36.57c-0.43,0-0.77,0.35-0.77,0.77v2.22
			c0,0.43,0.35,0.77,0.77,0.77h1.44c0.42,0,0.77-0.35,0.77-0.77v-2.22c0-0.43-0.35-0.77-0.77-0.77H69.42z"/>
		<path class="st2" d="M91.26,40.91h-1.44c-0.75,0-1.36-0.61-1.36-1.36v-2.22c0-0.75,0.61-1.36,1.36-1.36h1.44
			c0.75,0,1.36,0.61,1.36,1.36v2.22C92.62,40.3,92.01,40.91,91.26,40.91z M89.83,36.57c-0.43,0-0.77,0.35-0.77,0.77v2.22
			c0,0.43,0.35,0.77,0.77,0.77h1.44c0.42,0,0.77-0.35,0.77-0.77v-2.22c0-0.43-0.35-0.77-0.77-0.77H89.83z"/>
		<path class="st2" d="M60.88,40.91h-1.44c-0.75,0-1.36-0.61-1.36-1.36v-2.22c0-0.75,0.61-1.36,1.36-1.36h1.44
			c0.75,0,1.36,0.61,1.36,1.36v2.22C62.24,40.3,61.63,40.91,60.88,40.91z M59.44,36.57c-0.42,0-0.77,0.35-0.77,0.77v2.22
			c0,0.43,0.35,0.77,0.77,0.77h1.44c0.43,0,0.77-0.35,0.77-0.77v-2.22c0-0.43-0.35-0.77-0.77-0.77H59.44z"/>
		<path class="st2" d="M36.46,40.91h-1.44c-0.75,0-1.36-0.61-1.36-1.36v-2.22c0-0.75,0.61-1.36,1.36-1.36h1.44
			c0.75,0,1.36,0.61,1.36,1.36v2.22C37.82,40.3,37.21,40.91,36.46,40.91z M35.03,36.57c-0.43,0-0.77,0.35-0.77,0.77v2.22
			c0,0.43,0.35,0.77,0.77,0.77h1.44c0.43,0,0.77-0.35,0.77-0.77v-2.22c0-0.43-0.35-0.77-0.77-0.77H35.03z"/>
		<path class="st2" d="M30.21,40.91h-1.44c-0.75,0-1.36-0.61-1.36-1.36v-2.22c0-0.75,0.61-1.36,1.36-1.36h1.44
			c0.75,0,1.36,0.61,1.36,1.36v2.22C31.57,40.3,30.96,40.91,30.21,40.91z M28.78,36.57c-0.43,0-0.77,0.35-0.77,0.77v2.22
			c0,0.43,0.35,0.77,0.77,0.77h1.44c0.43,0,0.77-0.35,0.77-0.77v-2.22c0-0.43-0.35-0.77-0.77-0.77H28.78z"/>
		<path class="st2" d="M50.62,40.91h-1.44c-0.75,0-1.36-0.61-1.36-1.36v-2.22c0-0.75,0.61-1.36,1.36-1.36h1.44
			c0.75,0,1.36,0.61,1.36,1.36v2.22C51.98,40.3,51.37,40.91,50.62,40.91z M49.19,36.57c-0.43,0-0.77,0.35-0.77,0.77v2.22
			c0,0.43,0.35,0.77,0.77,0.77h1.44c0.43,0,0.77-0.35,0.77-0.77v-2.22c0-0.43-0.35-0.77-0.77-0.77H49.19z"/>
		<path class="st3" d="M158.35,40.91h-1.44c-0.75,0-1.36-0.61-1.36-1.36v-2.22c0-0.75,0.61-1.36,1.36-1.36h1.44
			c0.75,0,1.36,0.61,1.36,1.36v2.22C159.71,40.3,159.1,40.91,158.35,40.91z M156.91,36.57c-0.42,0-0.77,0.35-0.77,0.77v2.22
			c0,0.43,0.35,0.77,0.77,0.77h1.44c0.43,0,0.77-0.35,0.77-0.77v-2.22c0-0.43-0.35-0.77-0.77-0.77H156.91z"/>
		<path class="st4" d="M133.94,40.91h-1.44c-0.75,0-1.36-0.61-1.36-1.36v-2.22c0-0.75,0.61-1.36,1.36-1.36h1.44
			c0.75,0,1.36,0.61,1.36,1.36v2.22C135.29,40.3,134.69,40.91,133.94,40.91z M132.5,36.57c-0.43,0-0.77,0.35-0.77,0.77v2.22
			c0,0.43,0.35,0.77,0.77,0.77h1.44c0.43,0,0.77-0.35,0.77-0.77v-2.22c0-0.43-0.35-0.77-0.77-0.77H132.5z"/>
		<path class="st5" d="M127.69,40.91h-1.44c-0.75,0-1.36-0.61-1.36-1.36v-2.22c0-0.75,0.61-1.36,1.36-1.36h1.44
			c0.75,0,1.36,0.61,1.36,1.36v2.22C129.04,40.3,128.44,40.91,127.69,40.91z M126.25,36.57c-0.43,0-0.77,0.35-0.77,0.77v2.22
			c0,0.43,0.35,0.77,0.77,0.77h1.44c0.43,0,0.77-0.35,0.77-0.77v-2.22c0-0.43-0.35-0.77-0.77-0.77H126.25z"/>
		<path class="st6" d="M148.1,40.91h-1.44c-0.75,0-1.36-0.61-1.36-1.36v-2.22c0-0.75,0.61-1.36,1.36-1.36h1.44
			c0.75,0,1.36,0.61,1.36,1.36v2.22C149.45,40.3,148.85,40.91,148.1,40.91z M146.66,36.57c-0.43,0-0.77,0.35-0.77,0.77v2.22
			c0,0.43,0.35,0.77,0.77,0.77h1.44c0.43,0,0.77-0.35,0.77-0.77v-2.22c0-0.43-0.35-0.77-0.77-0.77H146.66z"/>
		<polygon class="st7" points="153.31,35.99 152.5,35.99 151.18,37.37 151.99,37.37 152.7,36.62 152.7,40.91 153.29,40.91 
			153.29,36.01 		"/>
		<polygon class="st8" points="143.31,35.99 142.5,35.99 141.18,37.37 141.99,37.37 142.7,36.62 142.7,40.91 143.29,40.91 
			143.29,36.01 		"/>
		<polygon class="st9" points="139.24,35.99 138.43,35.99 137.11,37.37 137.93,37.37 138.64,36.62 138.64,40.91 139.23,40.91 
			139.23,36.01 		"/>
		<polygon class="st10" points="122.95,35.99 122.14,35.99 120.82,37.37 121.63,37.37 122.34,36.62 122.34,40.91 122.93,40.91 
			122.93,36.01 		"/>
		<polygon class="st2" points="112.69,35.99 111.88,35.99 110.56,37.37 111.38,37.37 112.09,36.62 112.09,40.91 112.68,40.91 
			112.68,36.01 		"/>
		<polygon class="st2" points="96.54,35.99 95.73,35.99 94.41,37.37 95.23,37.37 95.94,36.62 95.94,40.91 96.53,40.91 96.53,36.01 
					"/>
		<polygon class="st2" points="86.55,35.99 85.74,35.99 84.42,37.37 85.23,37.37 85.94,36.62 85.94,40.91 86.53,40.91 86.53,36.01 
					"/>
		<polygon class="st2" points="82.48,35.99 81.67,35.99 80.35,37.37 81.17,37.37 81.88,36.62 81.88,40.91 82.46,40.91 82.46,36.01 
					"/>
		<polygon class="st2" points="66.15,35.99 65.34,35.99 64.02,37.37 64.83,37.37 65.54,36.62 65.54,40.91 66.13,40.91 66.13,36.01 
					"/>
		<polygon class="st2" points="55.86,35.99 55.05,35.99 53.73,37.37 54.54,37.37 55.25,36.62 55.25,40.91 55.84,40.91 55.84,36.01 
					"/>
		<polygon class="st2" points="45.9,35.99 45.09,35.99 43.77,37.37 44.58,37.37 45.29,36.62 45.29,40.91 45.88,40.91 45.88,36.01 		
			"/>
		<polygon class="st2" points="41.83,35.99 41.02,35.99 39.7,37.37 40.52,37.37 41.23,36.62 41.23,40.91 41.81,40.91 41.81,36.01 		
			"/>
		<polygon class="st2" points="25.5,35.99 24.69,35.99 23.37,37.37 24.19,37.37 24.9,36.62 24.9,40.91 25.48,40.91 25.48,36.01 		
			"/>
		<path class="st11" d="M117.71,40.91h-1.44c-0.75,0-1.36-0.61-1.36-1.36v-2.22c0-0.75,0.61-1.36,1.36-1.36h1.44
			c0.75,0,1.36,0.61,1.36,1.36v2.22C119.07,40.3,118.46,40.91,117.71,40.91z M116.28,36.57c-0.42,0-0.77,0.35-0.77,0.77v2.22
			c0,0.43,0.35,0.77,0.77,0.77h1.44c0.43,0,0.77-0.35,0.77-0.77v-2.22c0-0.43-0.35-0.77-0.77-0.77H116.28z"/>
		<path class="st2" d="M107.46,40.91h-1.44c-0.75,0-1.36-0.61-1.36-1.36v-2.22c0-0.75,0.61-1.36,1.36-1.36h1.44
			c0.75,0,1.36,0.61,1.36,1.36v2.22C108.82,40.3,108.21,40.91,107.46,40.91z M106.02,36.57c-0.42,0-0.77,0.35-0.77,0.77v2.22
			c0,0.43,0.35,0.77,0.77,0.77h1.44c0.43,0,0.77-0.35,0.77-0.77v-2.22c0-0.43-0.35-0.77-0.77-0.77H106.02z"/>
	</g>
	<g class="st1">
		<path class="st3" d="M193.98,89.71h-1.44c-0.75,0-1.36-0.61-1.36-1.36v-2.22c0-0.75,0.61-1.36,1.36-1.36h1.44
			c0.75,0,1.36,0.61,1.36,1.36v2.22C195.33,89.11,194.72,89.71,193.98,89.71z M192.54,85.37c-0.42,0-0.77,0.35-0.77,0.77v2.22
			c0,0.43,0.35,0.77,0.77,0.77h1.44c0.43,0,0.77-0.35,0.77-0.77v-2.22c0-0.42-0.35-0.77-0.77-0.77H192.54z"/>
		<path class="st2" d="M306.96,89.71h-1.44c-0.75,0-1.36-0.61-1.36-1.36v-2.22c0-0.75,0.61-1.36,1.36-1.36h1.44
			c0.75,0,1.36,0.61,1.36,1.36v2.22C308.31,89.11,307.7,89.71,306.96,89.71z M305.52,85.37c-0.42,0-0.77,0.35-0.77,0.77v2.22
			c0,0.43,0.35,0.77,0.77,0.77h1.44c0.42,0,0.77-0.35,0.77-0.77v-2.22c0-0.42-0.35-0.77-0.77-0.77H305.52z"/>
		<path class="st2" d="M300.71,89.71h-1.44c-0.75,0-1.36-0.61-1.36-1.36v-2.22c0-0.75,0.61-1.36,1.36-1.36h1.44
			c0.75,0,1.36,0.61,1.36,1.36v2.22C302.06,89.11,301.45,89.71,300.71,89.71z M299.27,85.37c-0.43,0-0.77,0.35-0.77,0.77v2.22
			c0,0.43,0.35,0.77,0.77,0.77h1.44c0.42,0,0.77-0.35,0.77-0.77v-2.22c0-0.42-0.35-0.77-0.77-0.77H299.27z"/>
		<path class="st2" d="M321.12,89.71h-1.44c-0.75,0-1.36-0.61-1.36-1.36v-2.22c0-0.75,0.61-1.36,1.36-1.36h1.44
			c0.75,0,1.36,0.61,1.36,1.36v2.22C322.47,89.11,321.86,89.71,321.12,89.71z M319.68,85.37c-0.43,0-0.77,0.35-0.77,0.77v2.22
			c0,0.43,0.35,0.77,0.77,0.77h1.44c0.42,0,0.77-0.35,0.77-0.77v-2.22c0-0.42-0.35-0.77-0.77-0.77H319.68z"/>
		<path class="st2" d="M290.73,89.71h-1.44c-0.75,0-1.36-0.61-1.36-1.36v-2.22c0-0.75,0.61-1.36,1.36-1.36h1.44
			c0.75,0,1.36,0.61,1.36,1.36v2.22C292.09,89.11,291.48,89.71,290.73,89.71z M289.29,85.37c-0.43,0-0.77,0.35-0.77,0.77v2.22
			c0,0.43,0.35,0.77,0.77,0.77h1.44c0.42,0,0.77-0.35,0.77-0.77v-2.22c0-0.42-0.35-0.77-0.77-0.77H289.29z"/>
		<path class="st2" d="M266.32,89.71h-1.44c-0.75,0-1.36-0.61-1.36-1.36v-2.22c0-0.75,0.61-1.36,1.36-1.36h1.44
			c0.75,0,1.36,0.61,1.36,1.36v2.22C267.67,89.11,267.07,89.71,266.32,89.71z M264.88,85.37c-0.43,0-0.77,0.35-0.77,0.77v2.22
			c0,0.43,0.35,0.77,0.77,0.77h1.44c0.43,0,0.77-0.35,0.77-0.77v-2.22c0-0.42-0.35-0.77-0.77-0.77H264.88z"/>
		<path class="st2" d="M260.07,89.71h-1.44c-0.75,0-1.36-0.61-1.36-1.36v-2.22c0-0.75,0.61-1.36,1.36-1.36h1.44
			c0.75,0,1.36,0.61,1.36,1.36v2.22C261.42,89.11,260.82,89.71,260.07,89.71z M258.63,85.37c-0.43,0-0.77,0.35-0.77,0.77v2.22
			c0,0.43,0.35,0.77,0.77,0.77h1.44c0.43,0,0.77-0.35,0.77-0.77v-2.22c0-0.42-0.35-0.77-0.77-0.77H258.63z"/>
		<path class="st2" d="M280.48,89.71h-1.44c-0.75,0-1.36-0.61-1.36-1.36v-2.22c0-0.75,0.61-1.36,1.36-1.36h1.44
			c0.75,0,1.36,0.61,1.36,1.36v2.22C281.83,89.11,281.22,89.71,280.48,89.71z M279.04,85.37c-0.43,0-0.77,0.35-0.77,0.77v2.22
			c0,0.43,0.35,0.77,0.77,0.77h1.44c0.42,0,0.77-0.35,0.77-0.77v-2.22c0-0.42-0.35-0.77-0.77-0.77H279.04z"/>
		<path class="st2" d="M250.81,89.71h-1.44c-0.75,0-1.36-0.61-1.36-1.36v-2.22c0-0.75,0.61-1.36,1.36-1.36h1.44
			c0.75,0,1.36,0.61,1.36,1.36v2.22C252.17,89.11,251.56,89.71,250.81,89.71z M249.37,85.37c-0.42,0-0.77,0.35-0.77,0.77v2.22
			c0,0.43,0.35,0.77,0.77,0.77h1.44c0.43,0,0.77-0.35,0.77-0.77v-2.22c0-0.42-0.35-0.77-0.77-0.77H249.37z"/>
		<path class="st5" d="M226.4,89.71h-1.44c-0.75,0-1.36-0.61-1.36-1.36v-2.22c0-0.75,0.61-1.36,1.36-1.36h1.44
			c0.75,0,1.36,0.61,1.36,1.36v2.22C227.75,89.11,227.14,89.71,226.4,89.71z M224.96,85.37c-0.43,0-0.77,0.35-0.77,0.77v2.22
			c0,0.43,0.35,0.77,0.77,0.77h1.44c0.43,0,0.77-0.35,0.77-0.77v-2.22c0-0.42-0.35-0.77-0.77-0.77H224.96z"/>
		<path class="st4" d="M220.15,89.71h-1.44c-0.75,0-1.36-0.61-1.36-1.36v-2.22c0-0.75,0.61-1.36,1.36-1.36h1.44
			c0.75,0,1.36,0.61,1.36,1.36v2.22C221.5,89.11,220.89,89.71,220.15,89.71z M218.71,85.37c-0.43,0-0.77,0.35-0.77,0.77v2.22
			c0,0.43,0.35,0.77,0.77,0.77h1.44c0.43,0,0.77-0.35,0.77-0.77v-2.22c0-0.42-0.35-0.77-0.77-0.77H218.71z"/>
		<path class="st2" d="M240.56,89.71h-1.44c-0.75,0-1.36-0.61-1.36-1.36v-2.22c0-0.75,0.61-1.36,1.36-1.36h1.44
			c0.75,0,1.36,0.61,1.36,1.36v2.22C241.91,89.11,241.31,89.71,240.56,89.71z M239.12,85.37c-0.43,0-0.77,0.35-0.77,0.77v2.22
			c0,0.43,0.35,0.77,0.77,0.77h1.44c0.43,0,0.77-0.35,0.77-0.77v-2.22c0-0.42-0.35-0.77-0.77-0.77H239.12z"/>
		<polygon class="st2" points="245.77,84.8 244.95,84.8 243.63,86.17 244.45,86.17 245.16,85.43 245.16,89.71 245.75,89.71 
			245.75,84.82 		"/>
		<polygon class="st11" points="235.77,84.8 234.96,84.8 233.64,86.17 234.45,86.17 235.16,85.43 235.16,89.71 235.75,89.71 
			235.75,84.82 		"/>
		<polygon class="st10" points="231.7,84.8 230.89,84.8 229.57,86.17 230.39,86.17 231.1,85.43 231.1,89.71 231.68,89.71 
			231.68,84.82 		"/>
		<polygon class="st9" points="215.41,84.8 214.59,84.8 213.28,86.17 214.09,86.17 214.8,85.43 214.8,89.71 215.39,89.71 
			215.39,84.82 		"/>
		<polygon class="st6" points="205.15,84.8 204.34,84.8 203.02,86.17 203.84,86.17 204.55,85.43 204.55,89.71 205.13,89.71 
			205.13,84.82 		"/>
		<polygon class="st2" points="326.4,84.8 325.59,84.8 324.27,86.17 325.08,86.17 325.79,85.43 325.79,89.71 326.38,89.71 
			326.38,84.82 		"/>
		<polygon class="st2" points="316.4,84.8 315.59,84.8 314.27,86.17 315.08,86.17 315.79,85.43 315.79,89.71 316.38,89.71 
			316.38,84.82 		"/>
		<polygon class="st2" points="312.34,84.8 311.52,84.8 310.2,86.17 311.02,86.17 311.73,85.43 311.73,89.71 312.32,89.71 
			312.32,84.82 		"/>
		<polygon class="st2" points="296,84.8 295.19,84.8 293.87,86.17 294.69,86.17 295.4,85.43 295.4,89.71 295.98,89.71 295.98,84.82 
					"/>
		<polygon class="st2" points="285.71,84.8 284.9,84.8 283.58,86.17 284.4,86.17 285.11,85.43 285.11,89.71 285.69,89.71 
			285.69,84.82 		"/>
		<polygon class="st2" points="275.75,84.8 274.94,84.8 273.62,86.17 274.44,86.17 275.15,85.43 275.15,89.71 275.73,89.71 
			275.73,84.82 		"/>
		<polygon class="st2" points="271.69,84.8 270.87,84.8 269.56,86.17 270.37,86.17 271.08,85.43 271.08,89.71 271.67,89.71 
			271.67,84.82 		"/>
		<polygon class="st2" points="255.35,84.8 254.54,84.8 253.22,86.17 254.04,86.17 254.75,85.43 254.75,89.71 255.33,89.71 
			255.33,84.82 		"/>
		<path class="st8" d="M210.17,89.71h-1.44c-0.75,0-1.36-0.61-1.36-1.36v-2.22c0-0.75,0.61-1.36,1.36-1.36h1.44
			c0.75,0,1.36,0.61,1.36,1.36v2.22C211.53,89.11,210.92,89.71,210.17,89.71z M208.74,85.37c-0.42,0-0.77,0.35-0.77,0.77v2.22
			c0,0.43,0.35,0.77,0.77,0.77h1.44c0.43,0,0.77-0.35,0.77-0.77v-2.22c0-0.42-0.35-0.77-0.77-0.77H208.74z"/>
		<path class="st7" d="M199.92,89.71h-1.44c-0.75,0-1.36-0.61-1.36-1.36v-2.22c0-0.75,0.61-1.36,1.36-1.36h1.44
			c0.75,0,1.36,0.61,1.36,1.36v2.22C201.28,89.11,200.67,89.71,199.92,89.71z M198.48,85.37c-0.42,0-0.77,0.35-0.77,0.77v2.22
			c0,0.43,0.35,0.77,0.77,0.77h1.44c0.43,0,0.77-0.35,0.77-0.77v-2.22c0-0.42-0.35-0.77-0.77-0.77H198.48z"/>
	</g>
	<g class="st1">
		<path class="st12" d="M187.65,30.55c-0.11,0.7-1.14,1.13-1.69,0.57C186.31,30.64,187.23,29.73,187.65,30.55z"/>
		<path class="st12" d="M136.46,34.1c-1.44,0.96-2.83,1.97-4.36,2.84C133.06,35.52,134.57,34.09,136.46,34.1z"/>
		<path class="st12" d="M246.56,57.94c0.63,0.12,1.23,0.28,1.27,0.99C247.18,58.82,246.73,58.52,246.56,57.94z"/>
		<path class="st12" d="M247.82,57.94c0.5-0.03,0.73,0.2,0.7,0.71C248.12,58.58,247.88,58.34,247.82,57.94z"/>
		<path class="st12" d="M249.93,59.49c0.63-0.02,1.1,0.12,0.99,0.85C250.52,60.14,249.9,60.14,249.93,59.49z"/>
		<path class="st12" d="M260.76,64.04c4.19-1.23,11.54,19.32,12.83,23.03c3.43,9.87,8.08,24.39,5.31,34.86
			c-0.54-1.03-0.92-2.12-1.13-3.26c-0.11,0.42-0.2,0.85-0.28,1.27c-0.64-4.72-2.57-8.1-4.22-12.34c-1.65-4.28-1.15-8.97-2.39-13.48
			c-1.42-5.22-1.64-10.94-3.23-16.18c-1.28-4.2-7.8-10.1-7.73-14.33C260.2,63.75,260.48,63.89,260.76,64.04
			C260.97,63.98,260.46,63.65,260.76,64.04z"/>
		<path class="st12" d="M265.82,78.37c-0.37-0.25-0.94-0.85-0.56-1.42C265.81,77.01,266,78.01,265.82,78.37z"/>
		<path class="st12" d="M266.11,77.52c0.37,0.25,0.76,1.04,0.56,1.42C266.24,78.74,265.85,77.95,266.11,77.52z"/>
		<path class="st13" d="M172.52,79.47c-0.03,0.94-1.26,1.26-2.17,1.45c-0.15-0.57-0.93-0.58-0.78-1.15
			c-0.96,0.34-1.16-0.11-2.17-0.27C167.4,77.79,171.46,77.9,172.52,79.47z"/>
		<path class="st13" d="M170.91,81.63c0.58-0.7,1.19-0.7,1.83,0C172.74,82.11,172.45,83.95,170.91,81.63z"/>
		<path class="st13" d="M167.39,85.43c-7.52,0,7.32-6.62,2.02-0.36C169.18,85.34,167.54,85.48,167.39,85.43z"/>
		<path class="st13" d="M174.15,84.05c-1.56,1.02-1.76-0.54-1.12-1.28C173.9,82.68,174.02,83.4,174.15,84.05z"/>
		<path class="st13" d="M173.44,84.89c0.76,0.22,1.48,1.54,0.85,2.27C173.08,87.02,172.83,85.47,173.44,84.89z"/>
		<path class="st13" d="M166.2,87.14c0.81,0.45,8.13,3.68,8.79,5.13c-0.57,1.39-7.56,1.62-8.44,0.86c0.19-0.56,0.57-0.94,1.13-1.14
			c-1.67-2.22-8.51-4.97-10.55-3.98c0.49,0.27,0.86,0.65,1.13,1.14c0.06,1.03-1.82,0.86-2.25,0.42c0.11-0.42,0.3-0.8,0.56-1.13
			c-1.08,0.12-3.23,1.84-3.94,0c3.61-0.99,7.9-6.1,11.98-2.03C164.87,86.67,165.43,86.59,166.2,87.14z"/>
		<path class="st13" d="M177.52,89.72c0.89,1.43-1.67,1.88-2.25,1C175.64,89.99,176.64,89.92,177.52,89.72z"/>
		<path class="st13" d="M172.88,95.68c1.31-0.33,2.62-0.33,3.94,0c0.75-2.51-2.86-3.04,1.97-2.7c2.21,0.16,3.6,0.38,5.49,0.99
			c0.86,0.27,6.18,2.23,1.4,2.98C183.87,97.24,172.43,99.67,172.88,95.68z"/>
		<path class="st13" d="M170.9,96.51c0,2.19-5.38,1.63-6.32,0.02c0.88-1.8,2.76-0.75,4.09-0.5C169.1,96.11,169.72,95.98,170.9,96.51
			z"/>
		<path class="st13" d="M230.11,34.8c-0.15,0.69,11.07,7.14,12.37,7.95c-3.16-3.14-6.77-5.88-10.54-8.23
			c12.03,5.94,22.89,18.09,30.09,29.52c-3.65-3.14-5.37-6.56-8.44-10.08c-0.05,0.25-0.01,0.49,0.14,0.71
			c-3.44-0.49-7.17-6.22-9.56-8.37c-4.18-3.76-9.13-6.75-12.23-10.22c0.36,0.57,0.83,1.05,1.4,1.42
			c-6.38-3.94-12.89-7.8-19.97-10.36c0.41,0.61,0.88,1.18,1.41,1.7c-4.16-0.18-9.2-3.28-11.39-6.1c0.12,0.32-6.35-1.06-6.61-1.14
			c1.05-0.3,2.08-0.25,3.09,0.14c-2.4-1.72-5.82-1.53-8.58-2.13c0.12,0.16,0.12,0.3,0,0.43c2.74,1.03,7.68,1.75,9.56,3.97
			c-1.44,0.26-0.92,0.45-2.67-0.14c0.61,0.53,1.22,1.05,1.83,1.56c0,0.91-0.97,0.3-1.4,0.28c0.53,0.31,1,0.68,1.4,1.14
			c-2.4-0.91-6.79-1.23-8.72-2.56c0.32-0.7,5.58-0.67,2.39-1.99c0.01,0,0.12,1.08-1.26,0.57c0.16-0.3,0.34-0.58,0.56-0.85
			c-1.05-1.25-3.52,1.41-5.06,1.28c0.85,0.38,1.59,0.9,2.25,1.56c-4.87,0.52-9.78-0.94-14.06,2.98c-0.01,0.16,0.28,0.47,0,1.56
			c2.81-0.18,4.5,2.62,7.45,2.27c-0.1,2.2-0.38,1.05,0.14,2.7c-0.3,0.51-0.72,0.6-1.27,0.28c0.11,0.55,0.3,1.07,0.56,1.56
			c3.75-1.14,0.89-3.16,4.24-4.38c1.2-0.29,2-1.01,2.39-2.14c-0.29-0.48-0.57-0.95-0.86-1.43c1.07-0.66,1.72-1.61,1.97-2.84
			c1.44-0.13,2.83,0.08,4.16,0.63c2.95,1.03,0.7,1.85,3.01,2.77c0.79-0.31,1.4-0.83,1.83-1.56c1.54,0.59,2.13,2.17,3.37,3.12
			c-0.36-0.37,7.79,5.45,6.47,6.1c0.09,2.6,6.87,4.23,4.92,7.52c-1.25,0.17-1.56-1.2-1.97-1.28c-2.18,0.6-2.55-0.31-5.31-0.48
			c-2.82-0.17,0.06-3.69,0.96-4.91c0.02,0.04-6.24,1.1-7.17,0.99c1.07,0.17,1.91,0.69,2.53,1.56c-2.74,0.77-3.63-2.03-6.61-0.57
			c0.99,0.04,3.73,0.13,4.11,1.71c-0.01-0.45-1.72,2.03-0.99,1.45c0.91-0.73,2.71,0.95,2.65,1.53c0.98,0.34,1.16-1.38,1.97-1.56
			c2.44,0.46,0.41,2.52-0.28,3.12c-1.91,0.16-3.42,1.11-5.13,1.84c-2.94,1.26-2.88-1.54-1.06-1.99c-2.25,0.73-4.82,0.91-6.72,2.5
			c-3.17,2.64,0.2,0.74,0.11,2.47c0.05,0.8-3.55,1.36-4.37,1.68c-2.67,1.07-2.92,1.67-4.91,3.78c-2.39,2.53-2.9,4.9-4.78,7.31
			c-2.23-0.26-5.19,2.37-6.94,3.51c-2.32,1.51-5.66,3.32-5.07,6.64c0.42,2.33,1.57,7.44-1.56,8.84c-4.05,1.81-2.51-7.31-3.23-8.42
			c-1.25-1.94-1.44-0.24-3.31-0.35c-1.95-2.27-3.73-0.99-6.47-1.28c-2.46,1.53,1.45,2.15-2.37,2.35c-1.82,0.09-2.65-0.63-4.4-0.84
			c-2.8-0.35-7.67,1.35-9.79,3.82c-1.87,2.18-3.38,6.77-4.81,9.43c-1.27,2.36,0.81,4.8,0.73,7.11c-0.11,3.16,6.26,0.77,7.56,1.12
			c3.5-1.9,2.94-5.26,7.2-6.05c8.73-1.61-0.78,8.31-1.86,12.01c2.25-0.65,6.98-0.49,8.99,0.68c2.97,1.71,0.84,3.19,0.36,5.55
			c-0.36,1.8-1.64,3.83-0.64,5.12c-1.84,3.32,5.01,4.1,6.73,3.04c2.93-1.82,3.93,1.55,6.21,1.78c2.53,0.27,3.92-4.2,5.48-5.53
			c1.35,0.67,4.21-0.67,5.3-1.56c4.66-3.82,2.96,2.33,2.04,1.74c2.76,1.75,2.73-3.87,4.26-1.74c2.01,2.81,4.95,2.15,7.67,2.69
			c0.81,0.58,1.7,1.01,2.67,1.28c1.78-0.23,1.28-1.62,3.72-1.57c1.06,0.02,6.52-0.8,6.54-0.7c-0.02,0.1-1.45,2.94-1.83,2.98
			c1.35,0.62,1.48,1.38,0.42,2.27c3.86,0.83,4.57,2.97,7.47,4.92c3.16,2.13,6.95,0.34,10.43,2.1c1.7,0.86,3.16,2.1,4.6,3.34
			c-0.2,1.39,0.15,3.72,1.55,4.39c2.81,1.35-2.8,4.95-3.38,6.39c0.28,0.11,3.43-2.19,4.46-2.24c2.27-0.12,5.23,0.83,7.69,1.76
			c0.58,0.22,3.83,2.58,3.72,2.64c1.06-0.59,4.65,0.15,6.06,0.12c2.25-0.05,3.43,2.06,4.9,3.37c2.68,2.4,4.85,0.52,3.52,6.22
			c-0.61,2.65-9.11,11.34-8.28,12.97c-0.92,0.79-1.16,3.84-1.69,5.11c-1.28,3.14-2.45,5.15-4.39,8.01
			c-3.04,4.46-7.89,4.05-12.03,7.1c-2.8,2.06-2.51,3.53-3.82,6.61c-2.29,0.57-3.71,3.79-5.71,5.08c-2.06,1.32-2.86,3.55-5.16,4.78
			c-2.38,1.28-3.35,0.08-5.72,0.35c1.77,2.06-1.78,5.63-4.33,6.09c-3.21,0.57-1.98,3.6-6.08,2.71c0.04,0.38,0.09,0.76,0.14,1.14
			c0.62-0.29,1.22-0.29,1.83,0c0.11,1.51-4.06,2.94-4.5,4.11c0.58,0.55,1.29,0.79,2.11,0.71c-0.03,1.08-5.98,5.77,0.14,5.11
			c-1.59,1.25-3.82,0.8-5.62,0.57c0.19-0.31-0.66-0.28-1.41-0.29c-0.39-1.04-1.09-1.8-2.11-2.27c0.9-2.21-2.07-2.21-2.53-2.84
			c1.72-2.4,2.34-0.73,1.69-3.55c-1.35,2.54-2.32-5.13-2.53-5.54c-0.22-0.43,0.72-12.27-0.07-11.85c0.3-0.16,0.15-7.03,0.13-7.99
			c-0.07-3.84-0.85-7.36-1.04-11.38c-2.97-2.91-7.22-3.88-10.66-6.06c-1.55-0.98-5.23-5.34-5.23-7.14
			c-3.06-2.54-4.28-7.1-6.85-10.02c-0.43-0.49-4.63-2.11-2.57-3.18c-2.35-1.88-0.02-4.38,1.69-5.53c-6.37-3.54,1.81-7.93,1.97-10.36
			c3.41-2.3,4.93-5.62,3.77-9.52c-0.41-1.36-1.16-4.33-2.14-5.6c-1.68-2.17-3.38,3.28-3.44,3.29c-1.56,0.51-5.92-2.2-7.61-2.93
			c0-0.84-5.04-4.84-3.8-4.82c-1.17-1.74-1.76-3.95-3.93-5.39c-1.53-0.02-5.66-1.35-7.03-2.13c-2.66-1.5-1.63-4.54-5.34-4.54
			c-2.2,0.69-1.98,0.91-4.22,0.28c-1.01-0.29-2.96-1.86-4.08-1.56c-2.19-2.13-4.96-3.3-6.76-5.42c-1.84-2.17,0.99-4.77,0.66-7.13
			c-0.19-1.52-0.61-2.97-1.26-4.36c-1.16-2.36-0.27-2.01-0.8-4.24c-0.38-1.57,0.63-8.08-0.42-8.5c-2.45,2.67,0.07,16.85-3.09,16.6
			c0.08-2.87-1-3.24-0.28-6.24c-0.52-1.92-3.11-2.46-0.59-3.93c0.4-0.24,2.33-8.95,2.56-10.4c0.22-1.45-1.18-0.8-1.83-0.28
			c-1.97-2.32,7.95-14.23,9.84-15.89c6.66-5.87,12.03-11.61,18.84-16.89c-0.63,0.59-1.38,0.88-2.25,0.85
			c2.1-1.84,4.62-3.14,6.61-5.11c-0.43-2.05-19.92,6.51-21.83,7.56c1.71-1.53,3.99-2.36,6.07-3.23c1.3-0.54,4.02-2.64,3.8-1.92
			c0.53-0.58,1.18-0.96,1.97-1.14c-0.23-0.17-0.46-0.17-0.71,0c3.42-1.89,7.22-3.1,10.97-4.12c-0.18-0.1-0.36-0.1-0.56,0
			c3.92-3.05,13.44-4.54,18.29-4.62c2.82-0.04,12.4,1.51,14.05-0.49c-0.66-0.08-1.32-0.03-1.97,0.14c-0.28-1.4,8.85-1.38,9.98-0.99
			c-0.48,0.26-0.95,0.54-1.4,0.85c0.05,1.04,1.99,0.42,2.67,0.99c-0.24-0.41-0.15-0.74,0.28-0.99c-0.74,0.23-1.26-0.01-1.55-0.71
			c1.17-0.17,2.34-0.21,3.52-0.14c-0.71-0.1-1.41-0.24-2.11-0.42c0.75-0.39,1.5-0.39,2.25,0c-0.19-0.74-1.68-0.38-2.11-0.57
			c3.63-3.25,22.32,3.63,27.56,5.53c-1.63,1.24,4.36,3.37,4.81,3.56c5.12,2.12,10.78,3.61,15.02,7.37
			C231.27,35.37,230.66,35.18,230.11,34.8C230.04,35.12,230.69,34.93,230.11,34.8z M164.58,33.81c0.01,0.52-0.23,0.9-0.7,1.14
			c0.95,1.02,1.67-0.87,1.68-1.42C165.23,33.58,164.9,33.67,164.58,33.81C164.99,34.49,165.03,33.83,164.58,33.81z M168.74,40.54
			c-1.07-0.02-1.89,0.81-2.89,1.21c-0.18,1.52,3.38,0.86,4.27,1.36c-0.08,1.29,3.03,0.35,3.6-1.5
			C172.32,38.41,169.96,40.29,168.74,40.54z M172.84,44.64c1.43,0.81,0.13,2.7,1.31,3.07c2.55-1.86,1.96-5.56-0.96-4.06
			C172.89,43.81,172.4,44.14,172.84,44.64z M167.84,45.72c-1.46,1.99-2.21,1.75-2.69,4.41c2.34-0.5,5.13-3.89,7.46-5.41
			c-0.61,0.1-2.1-0.76-3.09-0.26C169.1,44.66,168.56,44.84,167.84,45.72z M176.66,45.19c0.32,0.39,0.86,0.12,1.28,0.4
			c0.97-1.93-0.86-1.83-1.42-1.37S176.46,45.07,176.66,45.19z M178.5,47.72c1.27-0.65,3.53,0.68,4.22-0.85
			C181.55,47.42,175.65,44.9,178.5,47.72z M171.89,50.55c1.62-0.26,3.24-0.52,4.36-1.28C174.37,48.74,171,47.9,171.89,50.55z
			 M198.19,114.13c0.54,0.02,1.12,0.08,1.13-0.43C198.96,113.41,198.16,113.58,198.19,114.13z M178.08,116.11
			c0.04-0.85,0.03-1.64-0.56-1.84C176.83,114.7,177.02,116.24,178.08,116.11z"/>
		<path class="st12" d="M215.48,26.01c1.88,0.19,3.88,1.48,5.63,2.27C219.29,28.03,217.28,26.75,215.48,26.01z"/>
		<path class="st12" d="M252.75,55.1c2.02,1.22,3.75,3.97,5.2,6.25C256.12,59.36,254.68,56.97,252.75,55.1z"/>
	</g>
	<g class="st1">
		<linearGradient id="SVGID_1_" gradientUnits="userSpaceOnUse" x1="331.074" y1="114.9414" x2="333.8773" y2="114.9414">
			<stop  offset="0" style="stop-color:#8647E1"/>
			<stop  offset="1" style="stop-color:#B78FED"/>
		</linearGradient>
		<polygon class="st14" points="331.09,113.54 333.88,113.55 333.86,116.34 331.07,116.33 		"/>
		<linearGradient id="SVGID_2_" gradientUnits="userSpaceOnUse" x1="324.1028" y1="114.9035" x2="326.9048" y2="114.9035">
			<stop  offset="0" style="stop-color:#8647E1"/>
			<stop  offset="1" style="stop-color:#B78FED"/>
		</linearGradient>
		<polygon class="st15" points="324.12,113.5 326.9,113.52 326.89,116.31 324.1,116.29 		"/>
		<linearGradient id="SVGID_3_" gradientUnits="userSpaceOnUse" x1="317.1292" y1="114.8656" x2="319.9324" y2="114.8656">
			<stop  offset="0" style="stop-color:#8647E1"/>
			<stop  offset="1" style="stop-color:#B78FED"/>
		</linearGradient>
		<polygon class="st16" points="317.14,113.46 319.93,113.48 319.92,116.27 317.13,116.25 		"/>
		<linearGradient id="SVGID_4_" gradientUnits="userSpaceOnUse" x1="310.1567" y1="114.8277" x2="312.9612" y2="114.8277">
			<stop  offset="0" style="stop-color:#8647E1"/>
			<stop  offset="1" style="stop-color:#B78FED"/>
		</linearGradient>
		<polygon class="st17" points="310.17,113.43 312.96,113.44 312.95,116.23 310.16,116.21 		"/>
		<linearGradient id="SVGID_5_" gradientUnits="userSpaceOnUse" x1="303.1868" y1="114.7895" x2="305.9888" y2="114.7895">
			<stop  offset="0" style="stop-color:#8647E1"/>
			<stop  offset="1" style="stop-color:#B78FED"/>
		</linearGradient>
		<polygon class="st18" points="303.2,113.39 305.99,113.4 305.97,116.19 303.19,116.18 		"/>
		<linearGradient id="SVGID_6_" gradientUnits="userSpaceOnUse" x1="296.2131" y1="114.7516" x2="299.0176" y2="114.7516">
			<stop  offset="0" style="stop-color:#8647E1"/>
			<stop  offset="1" style="stop-color:#B78FED"/>
		</linearGradient>
		<polygon class="st19" points="296.23,113.35 299.02,113.36 299,116.15 296.21,116.14 		"/>
		<linearGradient id="SVGID_7_" gradientUnits="userSpaceOnUse" x1="289.2419" y1="114.7125" x2="292.0452" y2="114.7125">
			<stop  offset="0" style="stop-color:#8647E1"/>
			<stop  offset="1" style="stop-color:#B78FED"/>
		</linearGradient>
		<polygon class="st20" points="289.26,113.31 292.05,113.33 292.03,116.11 289.24,116.1 		"/>
		<linearGradient id="SVGID_8_" gradientUnits="userSpaceOnUse" x1="282.2695" y1="114.6756" x2="285.074" y2="114.6756">
			<stop  offset="0" style="stop-color:#8647E1"/>
			<stop  offset="1" style="stop-color:#B78FED"/>
		</linearGradient>
		<polygon class="st21" points="282.28,113.27 285.07,113.29 285.06,116.08 282.27,116.06 		"/>
		<linearGradient id="SVGID_9_" gradientUnits="userSpaceOnUse" x1="275.297" y1="114.6389" x2="278.1003" y2="114.6389">
			<stop  offset="0" style="stop-color:#8647E1"/>
			<stop  offset="1" style="stop-color:#B78FED"/>
		</linearGradient>
		<polygon class="st22" points="275.31,113.24 278.1,113.25 278.09,116.04 275.3,116.02 		"/>
		<linearGradient id="SVGID_10_" gradientUnits="userSpaceOnUse" x1="268.3258" y1="114.5995" x2="271.1291" y2="114.5995">
			<stop  offset="0" style="stop-color:#8647E1"/>
			<stop  offset="1" style="stop-color:#B78FED"/>
		</linearGradient>
		<polygon class="st23" points="268.34,113.2 271.13,113.21 271.12,116 268.33,115.99 		"/>
		<linearGradient id="SVGID_11_" gradientUnits="userSpaceOnUse" x1="261.3547" y1="114.561" x2="264.158" y2="114.561">
			<stop  offset="0" style="stop-color:#8647E1"/>
			<stop  offset="1" style="stop-color:#B78FED"/>
		</linearGradient>
		<polygon class="st24" points="261.37,113.16 264.16,113.18 264.14,115.96 261.35,115.95 		"/>
		<linearGradient id="SVGID_12_" gradientUnits="userSpaceOnUse" x1="254.3797" y1="114.5244" x2="257.1855" y2="114.5244">
			<stop  offset="0" style="stop-color:#8647E1"/>
			<stop  offset="1" style="stop-color:#B78FED"/>
		</linearGradient>
		<polygon class="st25" points="254.4,113.12 257.19,113.14 257.17,115.93 254.38,115.91 		"/>
		<linearGradient id="SVGID_13_" gradientUnits="userSpaceOnUse" x1="247.4073" y1="114.4853" x2="250.213" y2="114.4853">
			<stop  offset="0" style="stop-color:#8647E1"/>
			<stop  offset="1" style="stop-color:#B78FED"/>
		</linearGradient>
		<polygon class="st26" points="247.42,113.08 250.21,113.1 250.2,115.89 247.41,115.87 		"/>
		<linearGradient id="SVGID_14_" gradientUnits="userSpaceOnUse" x1="240.4361" y1="114.4477" x2="243.2406" y2="114.4477">
			<stop  offset="0" style="stop-color:#8647E1"/>
			<stop  offset="1" style="stop-color:#B78FED"/>
		</linearGradient>
		<polygon class="st27" points="240.45,113.04 243.24,113.06 243.23,115.85 240.44,115.84 		"/>
		<linearGradient id="SVGID_15_" gradientUnits="userSpaceOnUse" x1="233.4637" y1="114.4105" x2="236.2694" y2="114.4105">
			<stop  offset="0" style="stop-color:#8647E1"/>
			<stop  offset="1" style="stop-color:#B78FED"/>
		</linearGradient>
		<polygon class="st28" points="233.48,113.01 236.27,113.02 236.26,115.81 233.46,115.8 		"/>
		<linearGradient id="SVGID_16_" gradientUnits="userSpaceOnUse" x1="226.4925" y1="114.3723" x2="229.2982" y2="114.3723">
			<stop  offset="0" style="stop-color:#8647E1"/>
			<stop  offset="1" style="stop-color:#B78FED"/>
		</linearGradient>
		<polygon class="st29" points="226.51,112.97 229.3,112.99 229.28,115.77 226.49,115.76 		"/>
		<linearGradient id="SVGID_17_" gradientUnits="userSpaceOnUse" x1="219.5188" y1="114.3335" x2="222.3246" y2="114.3335">
			<stop  offset="0" style="stop-color:#8647E1"/>
			<stop  offset="1" style="stop-color:#B78FED"/>
		</linearGradient>
		<polygon class="st30" points="219.53,112.93 222.32,112.95 222.31,115.74 219.52,115.72 		"/>
		<linearGradient id="SVGID_18_" gradientUnits="userSpaceOnUse" x1="212.5501" y1="114.2969" x2="215.3534" y2="114.2969">
			<stop  offset="0" style="stop-color:#8647E1"/>
			<stop  offset="1" style="stop-color:#B78FED"/>
		</linearGradient>
		<polygon class="st31" points="212.57,112.9 215.35,112.91 215.34,115.7 212.55,115.68 		"/>
		<linearGradient id="SVGID_19_" gradientUnits="userSpaceOnUse" x1="205.5764" y1="114.2574" x2="208.3809" y2="114.2574">
			<stop  offset="0" style="stop-color:#8647E1"/>
			<stop  offset="1" style="stop-color:#B78FED"/>
		</linearGradient>
		<polygon class="st32" points="205.59,112.86 208.38,112.87 208.37,115.66 205.58,115.64 		"/>
		<linearGradient id="SVGID_20_" gradientUnits="userSpaceOnUse" x1="198.604" y1="114.2196" x2="201.4085" y2="114.2196">
			<stop  offset="0" style="stop-color:#8647E1"/>
			<stop  offset="1" style="stop-color:#B78FED"/>
		</linearGradient>
		<polygon class="st33" points="198.62,112.82 201.41,112.83 201.39,115.62 198.6,115.61 		"/>
		<linearGradient id="SVGID_21_" gradientUnits="userSpaceOnUse" x1="191.6328" y1="114.1814" x2="194.4373" y2="114.1814">
			<stop  offset="0" style="stop-color:#8647E1"/>
			<stop  offset="1" style="stop-color:#B78FED"/>
		</linearGradient>
		<polygon class="st34" points="191.65,112.78 194.44,112.8 194.42,115.58 191.63,115.57 		"/>
		<linearGradient id="SVGID_22_" gradientUnits="userSpaceOnUse" x1="184.6591" y1="114.1441" x2="187.4648" y2="114.1441">
			<stop  offset="0" style="stop-color:#8647E1"/>
			<stop  offset="1" style="stop-color:#B78FED"/>
		</linearGradient>
		<polygon class="st35" points="184.68,112.74 187.46,112.76 187.45,115.55 184.66,115.53 		"/>
		<linearGradient id="SVGID_23_" gradientUnits="userSpaceOnUse" x1="176.0102" y1="114.1435" x2="180.9556" y2="114.1435">
			<stop  offset="0" style="stop-color:#8647E1"/>
			<stop  offset="1" style="stop-color:#B78FED"/>
		</linearGradient>
		<polygon class="st36" points="176.01,114.14 180.96,110.61 180.95,117.68 		"/>
	</g>
	<g class="st1">
		<linearGradient id="SVGID_24_" gradientUnits="userSpaceOnUse" x1="56.0916" y1="101.548" x2="58.8948" y2="101.548">
			<stop  offset="0" style="stop-color:#8647E1"/>
			<stop  offset="1" style="stop-color:#B78FED"/>
		</linearGradient>
		<polygon class="st37" points="58.88,102.95 56.09,102.93 56.11,100.14 58.89,100.16 		"/>
		<linearGradient id="SVGID_25_" gradientUnits="userSpaceOnUse" x1="63.064" y1="101.5858" x2="65.866" y2="101.5858">
			<stop  offset="0" style="stop-color:#8647E1"/>
			<stop  offset="1" style="stop-color:#B78FED"/>
		</linearGradient>
		<polygon class="st38" points="65.85,102.99 63.06,102.97 63.08,100.18 65.87,100.2 		"/>
		<linearGradient id="SVGID_26_" gradientUnits="userSpaceOnUse" x1="70.0364" y1="101.6237" x2="72.8397" y2="101.6237">
			<stop  offset="0" style="stop-color:#8647E1"/>
			<stop  offset="1" style="stop-color:#B78FED"/>
		</linearGradient>
		<polygon class="st39" points="72.82,103.03 70.04,103.01 70.05,100.22 72.84,100.24 		"/>
		<linearGradient id="SVGID_27_" gradientUnits="userSpaceOnUse" x1="77.0076" y1="101.6616" x2="79.8121" y2="101.6616">
			<stop  offset="0" style="stop-color:#8647E1"/>
			<stop  offset="1" style="stop-color:#B78FED"/>
		</linearGradient>
		<polygon class="st40" points="79.8,103.06 77.01,103.05 77.02,100.26 79.81,100.27 		"/>
		<linearGradient id="SVGID_28_" gradientUnits="userSpaceOnUse" x1="83.9801" y1="101.6998" x2="86.7821" y2="101.6998">
			<stop  offset="0" style="stop-color:#8647E1"/>
			<stop  offset="1" style="stop-color:#B78FED"/>
		</linearGradient>
		<polygon class="st41" points="86.77,103.1 83.98,103.09 84,100.3 86.78,100.31 		"/>
		<linearGradient id="SVGID_29_" gradientUnits="userSpaceOnUse" x1="90.9513" y1="101.7376" x2="93.7558" y2="101.7376">
			<stop  offset="0" style="stop-color:#8647E1"/>
			<stop  offset="1" style="stop-color:#B78FED"/>
		</linearGradient>
		<polygon class="st42" points="93.74,103.14 90.95,103.13 90.97,100.34 93.76,100.35 		"/>
		<linearGradient id="SVGID_30_" gradientUnits="userSpaceOnUse" x1="97.9237" y1="101.7768" x2="100.727" y2="101.7768">
			<stop  offset="0" style="stop-color:#8647E1"/>
			<stop  offset="1" style="stop-color:#B78FED"/>
		</linearGradient>
		<polygon class="st43" points="100.71,103.18 97.92,103.16 97.94,100.38 100.73,100.39 		"/>
		<linearGradient id="SVGID_31_" gradientUnits="userSpaceOnUse" x1="104.8949" y1="101.8137" x2="107.6994" y2="101.8137">
			<stop  offset="0" style="stop-color:#8647E1"/>
			<stop  offset="1" style="stop-color:#B78FED"/>
		</linearGradient>
		<polygon class="st44" points="107.68,103.22 104.89,103.2 104.91,100.41 107.7,100.43 		"/>
		<linearGradient id="SVGID_32_" gradientUnits="userSpaceOnUse" x1="111.8685" y1="101.8503" x2="114.6718" y2="101.8503">
			<stop  offset="0" style="stop-color:#8647E1"/>
			<stop  offset="1" style="stop-color:#B78FED"/>
		</linearGradient>
		<polygon class="st45" points="114.66,103.25 111.87,103.24 111.88,100.45 114.67,100.47 		"/>
		<linearGradient id="SVGID_33_" gradientUnits="userSpaceOnUse" x1="118.8397" y1="101.8898" x2="121.643" y2="101.8898">
			<stop  offset="0" style="stop-color:#8647E1"/>
			<stop  offset="1" style="stop-color:#B78FED"/>
		</linearGradient>
		<polygon class="st46" points="121.63,103.29 118.84,103.27 118.85,100.49 121.64,100.5 		"/>
		<linearGradient id="SVGID_34_" gradientUnits="userSpaceOnUse" x1="125.8109" y1="101.9283" x2="128.6142" y2="101.9283">
			<stop  offset="0" style="stop-color:#8647E1"/>
			<stop  offset="1" style="stop-color:#B78FED"/>
		</linearGradient>
		<polygon class="st47" points="128.6,103.33 125.81,103.31 125.83,100.53 128.61,100.54 		"/>
		<linearGradient id="SVGID_35_" gradientUnits="userSpaceOnUse" x1="132.7834" y1="101.9649" x2="135.5891" y2="101.9649">
			<stop  offset="0" style="stop-color:#8647E1"/>
			<stop  offset="1" style="stop-color:#B78FED"/>
		</linearGradient>
		<polygon class="st48" points="135.57,103.37 132.78,103.35 132.8,100.56 135.59,100.58 		"/>
		<linearGradient id="SVGID_36_" gradientUnits="userSpaceOnUse" x1="139.7558" y1="102.004" x2="142.5616" y2="102.004">
			<stop  offset="0" style="stop-color:#8647E1"/>
			<stop  offset="1" style="stop-color:#B78FED"/>
		</linearGradient>
		<polygon class="st49" points="142.55,103.41 139.76,103.39 139.77,100.6 142.56,100.62 		"/>
		<linearGradient id="SVGID_37_" gradientUnits="userSpaceOnUse" x1="146.7283" y1="102.0415" x2="149.5327" y2="102.0415">
			<stop  offset="0" style="stop-color:#8647E1"/>
			<stop  offset="1" style="stop-color:#B78FED"/>
		</linearGradient>
		<polygon class="st50" points="149.52,103.45 146.73,103.43 146.74,100.64 149.53,100.65 		"/>
		<linearGradient id="SVGID_38_" gradientUnits="userSpaceOnUse" x1="153.6994" y1="102.0788" x2="156.5052" y2="102.0788">
			<stop  offset="0" style="stop-color:#8647E1"/>
			<stop  offset="1" style="stop-color:#B78FED"/>
		</linearGradient>
		<polygon class="st51" points="156.49,103.48 153.7,103.47 153.71,100.68 156.51,100.69 		"/>
		<linearGradient id="SVGID_39_" gradientUnits="userSpaceOnUse" x1="160.6706" y1="102.117" x2="163.4764" y2="102.117">
			<stop  offset="0" style="stop-color:#8647E1"/>
			<stop  offset="1" style="stop-color:#B78FED"/>
		</linearGradient>
		<polygon class="st52" points="163.46,103.52 160.67,103.5 160.69,100.71 163.48,100.73 		"/>
		<linearGradient id="SVGID_40_" gradientUnits="userSpaceOnUse" x1="167.6443" y1="102.1558" x2="170.4501" y2="102.1558">
			<stop  offset="0" style="stop-color:#8647E1"/>
			<stop  offset="1" style="stop-color:#B78FED"/>
		</linearGradient>
		<polygon class="st53" points="170.44,103.56 167.64,103.54 167.66,100.75 170.45,100.77 		"/>
		<linearGradient id="SVGID_41_" gradientUnits="userSpaceOnUse" x1="174.6155" y1="102.1925" x2="177.4188" y2="102.1925">
			<stop  offset="0" style="stop-color:#8647E1"/>
			<stop  offset="1" style="stop-color:#B78FED"/>
		</linearGradient>
		<polygon class="st54" points="177.4,103.59 174.62,103.58 174.63,100.79 177.42,100.81 		"/>
		<linearGradient id="SVGID_42_" gradientUnits="userSpaceOnUse" x1="181.588" y1="102.2319" x2="184.3925" y2="102.2319">
			<stop  offset="0" style="stop-color:#8647E1"/>
			<stop  offset="1" style="stop-color:#B78FED"/>
		</linearGradient>
		<polygon class="st55" points="184.38,103.63 181.59,103.62 181.6,100.83 184.39,100.85 		"/>
		<linearGradient id="SVGID_43_" gradientUnits="userSpaceOnUse" x1="188.5604" y1="102.2698" x2="191.3649" y2="102.2698">
			<stop  offset="0" style="stop-color:#8647E1"/>
			<stop  offset="1" style="stop-color:#B78FED"/>
		</linearGradient>
		<polygon class="st56" points="191.35,103.67 188.56,103.66 188.58,100.87 191.36,100.88 		"/>
		<linearGradient id="SVGID_44_" gradientUnits="userSpaceOnUse" x1="195.5315" y1="102.3079" x2="198.336" y2="102.3079">
			<stop  offset="0" style="stop-color:#8647E1"/>
			<stop  offset="1" style="stop-color:#B78FED"/>
		</linearGradient>
		<polygon class="st57" points="198.32,103.71 195.53,103.69 195.55,100.91 198.34,100.92 		"/>
		<linearGradient id="SVGID_45_" gradientUnits="userSpaceOnUse" x1="202.504" y1="102.3452" x2="205.3097" y2="102.3452">
			<stop  offset="0" style="stop-color:#8647E1"/>
			<stop  offset="1" style="stop-color:#B78FED"/>
		</linearGradient>
		<polygon class="st58" points="205.29,103.75 202.5,103.73 202.52,100.94 205.31,100.96 		"/>
		<linearGradient id="SVGID_46_" gradientUnits="userSpaceOnUse" x1="209.0132" y1="102.3458" x2="213.9586" y2="102.3458">
			<stop  offset="0" style="stop-color:#8647E1"/>
			<stop  offset="1" style="stop-color:#B78FED"/>
		</linearGradient>
		<polygon class="st59" points="213.96,102.34 209.01,105.88 209.02,98.81 		"/>
	</g>
	<g>
		<linearGradient id="SVGID_47_" gradientUnits="userSpaceOnUse" x1="73.9861" y1="160.9091" x2="80.2361" y2="149.1591">
			<stop  offset="0" style="stop-color:#5C5E60"/>
			<stop  offset="1" style="stop-color:#9FA1A4"/>
		</linearGradient>
		<path class="st60" d="M47.79,172.5c0,0,9.11-5.28,30.04-4.34c22.1,1,33.55-45.76,33.55-45.76s-44.27,26.04-58.41,40.24
			C49.16,166.47,47.79,172.5,47.79,172.5z"/>
		<linearGradient id="SVGID_48_" gradientUnits="userSpaceOnUse" x1="126.285" y1="113.0445" x2="94.035" y2="190.2945">
			<stop  offset="0" style="stop-color:#5C5E60"/>
			<stop  offset="1" style="stop-color:#9FA1A4"/>
		</linearGradient>
		<path class="st61" d="M113.93,151.18c0,0,21.72-12.17,25.43-38.72c2.85-20.38-12.88-35.14-12.88-35.14L113.93,151.18z"/>
		<linearGradient id="SVGID_49_" gradientUnits="userSpaceOnUse" x1="105.7074" y1="164.7952" x2="105.7074" y2="88.9397">
			<stop  offset="0" style="stop-color:#DCDFFB"/>
			<stop  offset="1" style="stop-color:#F3F3FA"/>
		</linearGradient>
		<path class="st62" d="M117.32,162.84c0,0,6.81-17.19,14.65-42.18c6.44-20.56-4.93-45.99-4.93-45.99l-11.18,0.53
			c0,0-22.03,14.41-29.08,34.09c-4.31,12.06-9.31,31.44-9.31,31.44l0.19,21.42L117.32,162.84z"/>
		<path class="st2" d="M110.59,165.73c0,0-0.3-12.78,5.53-19.89c6.34-7.73,8.38-24.55,8.38-24.55s-3.49,13.78-8.84,23.44
			c-5.36,9.67-6.76,20.82-6.76,20.82L110.59,165.73z"/>
		<linearGradient id="SVGID_50_" gradientUnits="userSpaceOnUse" x1="121.2511" y1="82.0452" x2="121.2511" y2="69.7037">
			<stop  offset="0" style="stop-color:#DCDFFB"/>
			<stop  offset="1" style="stop-color:#F3F3FA"/>
		</linearGradient>
		<path class="st63" d="M115.81,75.2l-1.18,0.66l6.71,10.55c0,0,4.33-1.11,6.53-4.75C120.08,80.59,115.81,75.2,115.81,75.2z"/>
		<linearGradient id="SVGID_51_" gradientUnits="userSpaceOnUse" x1="98.5102" y1="101.4492" x2="66.2602" y2="178.6992">
			<stop  offset="0" style="stop-color:#5C5E60"/>
			<stop  offset="1" style="stop-color:#9FA1A4"/>
		</linearGradient>
		<path class="st64" d="M114.63,75.85c0,0,20.22,38.6-11.34,58.93c-50.86,32.77-59.73,44.98-59.73,44.98s-1.96-21.99,17.27-33.6
			C111.06,115.84,114.63,75.85,114.63,75.85z"/>
		<linearGradient id="SVGID_52_" gradientUnits="userSpaceOnUse" x1="96.7921" y1="100.732" x2="64.5421" y2="177.982">
			<stop  offset="0" style="stop-color:#5C5E60"/>
			<stop  offset="1" style="stop-color:#9FA1A4"/>
		</linearGradient>
		<path class="st65" d="M76.15,141.34c0,0,1.9-37.07,6.79-53.87c1.43-1.7,3.09-2.83,4.97-3.4c16.4-4.97,26.72-8.22,26.72-8.22
			s9.71,20.32-7.72,41.61C89.49,138.74,76.15,141.34,76.15,141.34z"/>
		<linearGradient id="SVGID_53_" gradientUnits="userSpaceOnUse" x1="117.3751" y1="109.9685" x2="102.6251" y2="168.9685">
			<stop  offset="0" style="stop-color:#8647E1"/>
			<stop  offset="1" style="stop-color:#B78FED"/>
		</linearGradient>
		<path class="st66" d="M128.43,81.88c0,0,1.1,0.88,1.59,3.72c-0.07,1.63-1.19,2.76-1.19,2.76s3.86,10.34,1.76,23.72
			c-3.23,20.53-27.46,42.47-27.46,42.47l-10.81,0.52l2.69-11.13c0,0,24.5-14.21,30.01-33.81c3.81-13.54,1.71-21.56,1.71-21.56
			s-0.7-0.47-2.48-2.63C127.01,84.56,128.43,81.88,128.43,81.88z"/>
		<linearGradient id="SVGID_54_" gradientUnits="userSpaceOnUse" x1="114.8325" y1="116.2952" x2="114.8325" y2="70.262">
			<stop  offset="0" style="stop-color:#5C5E60"/>
			<stop  offset="1" style="stop-color:#9FA1A4"/>
		</linearGradient>
		<path class="st67" d="M111.85,80.37c0,0,5.25,9.55,1.2,14.17c2.31,1.98,4.45,3.56,4.45,3.56s-1.4,1.79-4.77,4.34
			c1.55,4.17,1.27,15.68-2.5,24.01c11.63-13.08,9.48-28.69,8.09-35.45c-1.38-6.76-4.33-13.48-4.33-13.48L111.85,80.37z"/>
		<g>
			<path class="st68" d="M115.84,75.16c0,0,1.91-2.74,2.06-8.35c0.15-5.6,6.19-4.48,6.19-4.48s2.05,4.89,2.46,7.86
				c0.37,2.73,2.98,4.76,4.24,4.99c2.66,0.48,7.65,0.85,7.65,0.85s-8.02,1.1-10.51,5.11C121.66,81.03,115.84,75.16,115.84,75.16z"/>
			<path class="st68" d="M138,76.07c-2.36-0.15-6.12-0.49-8.15-0.86c-2.9-0.53-3.18-3.44-3.18-3.44l-1.29-5.02
				c0,0-1.09-0.63-1.86-1.78c-0.32-0.46-0.93-2.82,1.36-3.51c3.4-1.03,1.22-8.94,1.22-8.94l4.65-0.93l3.91,2.41l6.32,11.66
				c0,0,0,0.61-0.83,0.7c-0.99,0.11-1.92,0.25-1.92,0.25s0.5,8.12,0.5,8.61C138.72,75.62,138.85,76.13,138,76.07z"/>
			<path class="st69" d="M119.03,53.85c11.62-5.74,15.32-5.57,16.29-2.44c0.17,0.59,0.08,1.91-0.66,2.58
				c-3.69-0.6-7.24-0.82-6.36,1.68c0.13,0.79,3.25,9.51,0.22,9.6c-0.55-1.16-2.27-4.31-4.58-3.22c-1.36,0.63-0.03,4.72-6.14,5.52
				C117.77,62.61,118.04,55.64,119.03,53.85z"/>
		</g>
		<linearGradient id="SVGID_55_" gradientUnits="userSpaceOnUse" x1="79.6043" y1="111.3601" x2="92.08" y2="111.3601">
			<stop  offset="0" style="stop-color:#5C5E60"/>
			<stop  offset="1" style="stop-color:#9FA1A4"/>
		</linearGradient>
		<path class="st70" d="M80.48,98.6l-0.87,5.72c0,0,4.43,15.69,11.76,19.66C95.48,126.22,80.48,98.6,80.48,98.6z"/>
	</g>
	<g>
		<g>
			<linearGradient id="SVGID_56_" gradientUnits="userSpaceOnUse" x1="74.0729" y1="202.0417" x2="76.3378" y2="202.0417">
				<stop  offset="0" style="stop-color:#8647E1"/>
				<stop  offset="1" style="stop-color:#B78FED"/>
			</linearGradient>
			<polygon class="st71" points="76.33,203.18 74.07,203.16 74.09,200.91 76.34,200.92 			"/>
			<linearGradient id="SVGID_57_" gradientUnits="userSpaceOnUse" x1="79.7082" y1="202.0727" x2="81.9724" y2="202.0727">
				<stop  offset="0" style="stop-color:#8647E1"/>
				<stop  offset="1" style="stop-color:#B78FED"/>
			</linearGradient>
			<polygon class="st72" points="81.96,203.21 79.71,203.19 79.72,200.94 81.97,200.95 			"/>
			<linearGradient id="SVGID_58_" gradientUnits="userSpaceOnUse" x1="85.3429" y1="202.1037" x2="87.6096" y2="202.1037">
				<stop  offset="0" style="stop-color:#8647E1"/>
				<stop  offset="1" style="stop-color:#B78FED"/>
			</linearGradient>
			<polygon class="st73" points="87.6,203.24 85.34,203.22 85.35,200.97 87.61,200.98 			"/>
			<linearGradient id="SVGID_59_" gradientUnits="userSpaceOnUse" x1="90.9775" y1="202.134" x2="93.2443" y2="202.134">
				<stop  offset="0" style="stop-color:#8647E1"/>
				<stop  offset="1" style="stop-color:#B78FED"/>
			</linearGradient>
			<polygon class="st74" points="93.23,203.27 90.98,203.26 90.99,201 93.24,201.01 			"/>
			<linearGradient id="SVGID_60_" gradientUnits="userSpaceOnUse" x1="96.6135" y1="202.1644" x2="98.879" y2="202.1644">
				<stop  offset="0" style="stop-color:#8647E1"/>
				<stop  offset="1" style="stop-color:#B78FED"/>
			</linearGradient>
			<polygon class="st75" points="98.87,203.3 96.61,203.29 96.63,201.03 98.88,201.04 			"/>
			<linearGradient id="SVGID_61_" gradientUnits="userSpaceOnUse" x1="102.2475" y1="202.1951" x2="104.5149" y2="202.1951">
				<stop  offset="0" style="stop-color:#8647E1"/>
				<stop  offset="1" style="stop-color:#B78FED"/>
			</linearGradient>
			<polygon class="st76" points="104.5,203.33 102.25,203.32 102.26,201.06 104.51,201.07 			"/>
			<linearGradient id="SVGID_62_" gradientUnits="userSpaceOnUse" x1="107.8847" y1="202.2267" x2="110.1496" y2="202.2267">
				<stop  offset="0" style="stop-color:#8647E1"/>
				<stop  offset="1" style="stop-color:#B78FED"/>
			</linearGradient>
			<polygon class="st77" points="110.14,203.36 107.88,203.35 107.9,201.09 110.15,201.11 			"/>
			<linearGradient id="SVGID_63_" gradientUnits="userSpaceOnUse" x1="113.5193" y1="202.2571" x2="115.7848" y2="202.2571">
				<stop  offset="0" style="stop-color:#8647E1"/>
				<stop  offset="1" style="stop-color:#B78FED"/>
			</linearGradient>
			<polygon class="st78" points="115.77,203.39 113.52,203.38 113.53,201.12 115.78,201.14 			"/>
			<linearGradient id="SVGID_64_" gradientUnits="userSpaceOnUse" x1="119.154" y1="202.2877" x2="121.4201" y2="202.2877">
				<stop  offset="0" style="stop-color:#8647E1"/>
				<stop  offset="1" style="stop-color:#B78FED"/>
			</linearGradient>
			<polygon class="st79" points="121.41,203.42 119.15,203.41 119.17,201.15 121.42,201.17 			"/>
			<linearGradient id="SVGID_65_" gradientUnits="userSpaceOnUse" x1="124.7893" y1="202.3184" x2="127.0567" y2="202.3184">
				<stop  offset="0" style="stop-color:#8647E1"/>
				<stop  offset="1" style="stop-color:#B78FED"/>
			</linearGradient>
			<polygon class="st80" points="127.05,203.45 124.79,203.44 124.8,201.19 127.06,201.2 			"/>
			<linearGradient id="SVGID_66_" gradientUnits="userSpaceOnUse" x1="130.4246" y1="202.3494" x2="132.692" y2="202.3494">
				<stop  offset="0" style="stop-color:#8647E1"/>
				<stop  offset="1" style="stop-color:#B78FED"/>
			</linearGradient>
			<polygon class="st81" points="132.68,203.48 130.42,203.47 130.44,201.22 132.69,201.23 			"/>
			<linearGradient id="SVGID_67_" gradientUnits="userSpaceOnUse" x1="136.0592" y1="202.3794" x2="138.3273" y2="202.3794">
				<stop  offset="0" style="stop-color:#8647E1"/>
				<stop  offset="1" style="stop-color:#B78FED"/>
			</linearGradient>
			<polygon class="st82" points="138.31,203.51 136.06,203.5 136.07,201.25 138.33,201.26 			"/>
			<linearGradient id="SVGID_68_" gradientUnits="userSpaceOnUse" x1="141.6964" y1="202.4108" x2="143.9613" y2="202.4108">
				<stop  offset="0" style="stop-color:#8647E1"/>
				<stop  offset="1" style="stop-color:#B78FED"/>
			</linearGradient>
			<polygon class="st83" points="143.95,203.54 141.7,203.53 141.71,201.28 143.96,201.29 			"/>
			<linearGradient id="SVGID_69_" gradientUnits="userSpaceOnUse" x1="147.3311" y1="202.4414" x2="149.5979" y2="202.4414">
				<stop  offset="0" style="stop-color:#8647E1"/>
				<stop  offset="1" style="stop-color:#B78FED"/>
			</linearGradient>
			<polygon class="st84" points="149.59,203.57 147.33,203.56 147.34,201.31 149.6,201.32 			"/>
			<linearGradient id="SVGID_70_" gradientUnits="userSpaceOnUse" x1="152.9664" y1="202.4711" x2="155.2338" y2="202.4711">
				<stop  offset="0" style="stop-color:#8647E1"/>
				<stop  offset="1" style="stop-color:#B78FED"/>
			</linearGradient>
			<polygon class="st85" points="155.22,203.6 152.97,203.59 152.98,201.34 155.23,201.35 			"/>
			<linearGradient id="SVGID_71_" gradientUnits="userSpaceOnUse" x1="158.6029" y1="202.5018" x2="160.8685" y2="202.5018">
				<stop  offset="0" style="stop-color:#8647E1"/>
				<stop  offset="1" style="stop-color:#B78FED"/>
			</linearGradient>
			<polygon class="st86" points="160.86,203.64 158.6,203.62 158.61,201.37 160.87,201.38 			"/>
			<linearGradient id="SVGID_72_" gradientUnits="userSpaceOnUse" x1="164.2363" y1="202.5325" x2="166.5037" y2="202.5325">
				<stop  offset="0" style="stop-color:#8647E1"/>
				<stop  offset="1" style="stop-color:#B78FED"/>
			</linearGradient>
			<polygon class="st87" points="166.49,203.67 164.24,203.65 164.25,201.4 166.5,201.41 			"/>
			<linearGradient id="SVGID_73_" gradientUnits="userSpaceOnUse" x1="169.8729" y1="202.5644" x2="172.139" y2="202.5644">
				<stop  offset="0" style="stop-color:#8647E1"/>
				<stop  offset="1" style="stop-color:#B78FED"/>
			</linearGradient>
			<polygon class="st88" points="172.13,203.7 169.87,203.68 169.89,201.43 172.14,201.44 			"/>
			<linearGradient id="SVGID_74_" gradientUnits="userSpaceOnUse" x1="175.5069" y1="202.5938" x2="177.7731" y2="202.5938">
				<stop  offset="0" style="stop-color:#8647E1"/>
				<stop  offset="1" style="stop-color:#B78FED"/>
			</linearGradient>
			<polygon class="st89" points="177.76,203.73 175.51,203.72 175.52,201.46 177.77,201.47 			"/>
			<linearGradient id="SVGID_75_" gradientUnits="userSpaceOnUse" x1="181.1422" y1="202.6251" x2="183.4084" y2="202.6251">
				<stop  offset="0" style="stop-color:#8647E1"/>
				<stop  offset="1" style="stop-color:#B78FED"/>
			</linearGradient>
			<polygon class="st90" points="183.4,203.76 181.14,203.75 181.15,201.49 183.41,201.5 			"/>
			<linearGradient id="SVGID_76_" gradientUnits="userSpaceOnUse" x1="186.7787" y1="202.6561" x2="189.0436" y2="202.6561">
				<stop  offset="0" style="stop-color:#8647E1"/>
				<stop  offset="1" style="stop-color:#B78FED"/>
			</linearGradient>
			<polygon class="st91" points="189.03,203.79 186.78,203.78 186.79,201.52 189.04,201.53 			"/>
			<linearGradient id="SVGID_77_" gradientUnits="userSpaceOnUse" x1="192.414" y1="202.6871" x2="194.6814" y2="202.6871">
				<stop  offset="0" style="stop-color:#8647E1"/>
				<stop  offset="1" style="stop-color:#B78FED"/>
			</linearGradient>
			<polygon class="st92" points="194.67,203.82 192.41,203.81 192.43,201.55 194.68,201.56 			"/>
		</g>
		<g>
			<linearGradient id="SVGID_78_" gradientUnits="userSpaceOnUse" x1="74.0729" y1="189.0074" x2="76.3384" y2="189.0074">
				<stop  offset="0" style="stop-color:#8647E1"/>
				<stop  offset="1" style="stop-color:#B78FED"/>
			</linearGradient>
			<polygon class="st93" points="76.33,190.14 74.07,190.13 74.09,187.87 76.34,187.89 			"/>
			<linearGradient id="SVGID_79_" gradientUnits="userSpaceOnUse" x1="79.707" y1="189.0378" x2="81.9724" y2="189.0378">
				<stop  offset="0" style="stop-color:#8647E1"/>
				<stop  offset="1" style="stop-color:#B78FED"/>
			</linearGradient>
			<polygon class="st94" points="81.96,190.17 79.71,190.16 79.72,187.9 81.97,187.92 			"/>
			<linearGradient id="SVGID_80_" gradientUnits="userSpaceOnUse" x1="85.3423" y1="189.0697" x2="87.6096" y2="189.0697">
				<stop  offset="0" style="stop-color:#8647E1"/>
				<stop  offset="1" style="stop-color:#B78FED"/>
			</linearGradient>
			<polygon class="st95" points="87.6,190.2 85.34,190.19 85.35,187.94 87.61,187.95 			"/>
			<linearGradient id="SVGID_81_" gradientUnits="userSpaceOnUse" x1="90.9775" y1="189.1" x2="93.2443" y2="189.1">
				<stop  offset="0" style="stop-color:#8647E1"/>
				<stop  offset="1" style="stop-color:#B78FED"/>
			</linearGradient>
			<polygon class="st96" points="93.23,190.23 90.98,190.22 90.99,187.97 93.24,187.98 			"/>
			<linearGradient id="SVGID_82_" gradientUnits="userSpaceOnUse" x1="96.6135" y1="189.1294" x2="98.879" y2="189.1294">
				<stop  offset="0" style="stop-color:#8647E1"/>
				<stop  offset="1" style="stop-color:#B78FED"/>
			</linearGradient>
			<polygon class="st97" points="98.87,190.26 96.61,190.25 96.63,188 98.88,188.01 			"/>
			<linearGradient id="SVGID_83_" gradientUnits="userSpaceOnUse" x1="102.2481" y1="189.1607" x2="104.5149" y2="189.1607">
				<stop  offset="0" style="stop-color:#8647E1"/>
				<stop  offset="1" style="stop-color:#B78FED"/>
			</linearGradient>
			<polygon class="st98" points="104.5,190.29 102.25,190.28 102.26,188.03 104.51,188.04 			"/>
			<linearGradient id="SVGID_84_" gradientUnits="userSpaceOnUse" x1="107.8847" y1="189.1917" x2="110.1508" y2="189.1917">
				<stop  offset="0" style="stop-color:#8647E1"/>
				<stop  offset="1" style="stop-color:#B78FED"/>
			</linearGradient>
			<polygon class="st99" points="110.14,190.32 107.88,190.31 107.9,188.06 110.15,188.07 			"/>
			<linearGradient id="SVGID_85_" gradientUnits="userSpaceOnUse" x1="113.5193" y1="189.2218" x2="115.7848" y2="189.2218">
				<stop  offset="0" style="stop-color:#8647E1"/>
				<stop  offset="1" style="stop-color:#B78FED"/>
			</linearGradient>
			<polygon class="st100" points="115.77,190.35 113.52,190.34 113.53,188.09 115.78,188.1 			"/>
			<linearGradient id="SVGID_86_" gradientUnits="userSpaceOnUse" x1="119.154" y1="189.2527" x2="121.4201" y2="189.2527">
				<stop  offset="0" style="stop-color:#8647E1"/>
				<stop  offset="1" style="stop-color:#B78FED"/>
			</linearGradient>
			<polygon class="st101" points="121.41,190.39 119.15,190.38 119.17,188.12 121.42,188.13 			"/>
			<linearGradient id="SVGID_87_" gradientUnits="userSpaceOnUse" x1="124.7893" y1="189.284" x2="127.0554" y2="189.284">
				<stop  offset="0" style="stop-color:#8647E1"/>
				<stop  offset="1" style="stop-color:#B78FED"/>
			</linearGradient>
			<polygon class="st102" points="127.05,190.42 124.79,190.4 124.8,188.15 127.06,188.16 			"/>
			<linearGradient id="SVGID_88_" gradientUnits="userSpaceOnUse" x1="130.4246" y1="189.3147" x2="132.692" y2="189.3147">
				<stop  offset="0" style="stop-color:#8647E1"/>
				<stop  offset="1" style="stop-color:#B78FED"/>
			</linearGradient>
			<polygon class="st103" points="132.68,190.45 130.42,190.43 130.44,188.18 132.69,188.19 			"/>
			<linearGradient id="SVGID_89_" gradientUnits="userSpaceOnUse" x1="136.0592" y1="189.3448" x2="138.3285" y2="189.3448">
				<stop  offset="0" style="stop-color:#8647E1"/>
				<stop  offset="1" style="stop-color:#B78FED"/>
			</linearGradient>
			<polygon class="st104" points="138.31,190.48 136.06,190.47 136.07,188.21 138.33,188.22 			"/>
			<linearGradient id="SVGID_90_" gradientUnits="userSpaceOnUse" x1="141.6951" y1="189.3758" x2="143.9625" y2="189.3758">
				<stop  offset="0" style="stop-color:#8647E1"/>
				<stop  offset="1" style="stop-color:#B78FED"/>
			</linearGradient>
			<polygon class="st105" points="143.95,190.51 141.7,190.5 141.71,188.24 143.96,188.26 			"/>
			<linearGradient id="SVGID_91_" gradientUnits="userSpaceOnUse" x1="147.3305" y1="189.4058" x2="149.5979" y2="189.4058">
				<stop  offset="0" style="stop-color:#8647E1"/>
				<stop  offset="1" style="stop-color:#B78FED"/>
			</linearGradient>
			<polygon class="st106" points="149.58,190.54 147.33,190.53 147.34,188.27 149.6,188.29 			"/>
			<linearGradient id="SVGID_92_" gradientUnits="userSpaceOnUse" x1="152.9664" y1="189.4371" x2="155.2319" y2="189.4371">
				<stop  offset="0" style="stop-color:#8647E1"/>
				<stop  offset="1" style="stop-color:#B78FED"/>
			</linearGradient>
			<polygon class="st107" points="155.22,190.57 152.97,190.56 152.98,188.3 155.23,188.32 			"/>
			<linearGradient id="SVGID_93_" gradientUnits="userSpaceOnUse" x1="158.6017" y1="189.4678" x2="160.8685" y2="189.4678">
				<stop  offset="0" style="stop-color:#8647E1"/>
				<stop  offset="1" style="stop-color:#B78FED"/>
			</linearGradient>
			<polygon class="st108" points="160.86,190.6 158.6,190.59 158.61,188.33 160.87,188.35 			"/>
			<linearGradient id="SVGID_94_" gradientUnits="userSpaceOnUse" x1="164.2363" y1="189.4978" x2="166.5037" y2="189.4978">
				<stop  offset="0" style="stop-color:#8647E1"/>
				<stop  offset="1" style="stop-color:#B78FED"/>
			</linearGradient>
			<polygon class="st109" points="166.49,190.63 164.24,190.62 164.25,188.36 166.5,188.38 			"/>
			<linearGradient id="SVGID_95_" gradientUnits="userSpaceOnUse" x1="169.8729" y1="189.5285" x2="172.139" y2="189.5285">
				<stop  offset="0" style="stop-color:#8647E1"/>
				<stop  offset="1" style="stop-color:#B78FED"/>
			</linearGradient>
			<polygon class="st110" points="172.13,190.66 169.87,190.65 169.89,188.4 172.14,188.41 			"/>
			<linearGradient id="SVGID_96_" gradientUnits="userSpaceOnUse" x1="175.5069" y1="189.5608" x2="177.7731" y2="189.5608">
				<stop  offset="0" style="stop-color:#8647E1"/>
				<stop  offset="1" style="stop-color:#B78FED"/>
			</linearGradient>
			<polygon class="st111" points="177.76,190.69 175.51,190.68 175.52,188.43 177.77,188.44 			"/>
			<linearGradient id="SVGID_97_" gradientUnits="userSpaceOnUse" x1="181.1422" y1="189.5908" x2="183.4084" y2="189.5908">
				<stop  offset="0" style="stop-color:#8647E1"/>
				<stop  offset="1" style="stop-color:#B78FED"/>
			</linearGradient>
			<polygon class="st112" points="183.4,190.72 181.14,190.71 181.16,188.46 183.41,188.47 			"/>
			<linearGradient id="SVGID_98_" gradientUnits="userSpaceOnUse" x1="186.7787" y1="189.6208" x2="189.0436" y2="189.6208">
				<stop  offset="0" style="stop-color:#8647E1"/>
				<stop  offset="1" style="stop-color:#B78FED"/>
			</linearGradient>
			<polygon class="st113" points="189.03,190.75 186.78,190.74 186.79,188.49 189.04,188.5 			"/>
			<linearGradient id="SVGID_99_" gradientUnits="userSpaceOnUse" x1="192.4128" y1="189.6522" x2="194.6814" y2="189.6522">
				<stop  offset="0" style="stop-color:#8647E1"/>
				<stop  offset="1" style="stop-color:#B78FED"/>
			</linearGradient>
			<polygon class="st114" points="194.67,190.78 192.41,190.77 192.43,188.52 194.68,188.53 			"/>
		</g>
		<g>
			<linearGradient id="SVGID_100_" gradientUnits="userSpaceOnUse" x1="79.7295" y1="195.648" x2="81.9957" y2="195.648">
				<stop  offset="0" style="stop-color:#8647E1"/>
				<stop  offset="1" style="stop-color:#B78FED"/>
			</linearGradient>
			<polygon class="st115" points="81.98,196.78 79.73,196.77 79.74,194.51 82,194.53 			"/>
			<linearGradient id="SVGID_101_" gradientUnits="userSpaceOnUse" x1="85.3635" y1="195.678" x2="87.6309" y2="195.678">
				<stop  offset="0" style="stop-color:#8647E1"/>
				<stop  offset="1" style="stop-color:#B78FED"/>
			</linearGradient>
			<polygon class="st116" points="87.62,196.81 85.36,196.8 85.38,194.55 87.63,194.56 			"/>
			<linearGradient id="SVGID_102_" gradientUnits="userSpaceOnUse" x1="90.9988" y1="195.71" x2="93.2662" y2="195.71">
				<stop  offset="0" style="stop-color:#8647E1"/>
				<stop  offset="1" style="stop-color:#B78FED"/>
			</linearGradient>
			<polygon class="st117" points="93.25,196.84 91,196.83 91.01,194.58 93.27,194.59 			"/>
			<linearGradient id="SVGID_103_" gradientUnits="userSpaceOnUse" x1="96.6354" y1="195.7397" x2="98.9015" y2="195.7397">
				<stop  offset="0" style="stop-color:#8647E1"/>
				<stop  offset="1" style="stop-color:#B78FED"/>
			</linearGradient>
			<polygon class="st118" points="98.89,196.87 96.64,196.86 96.65,194.61 98.9,194.62 			"/>
			<linearGradient id="SVGID_104_" gradientUnits="userSpaceOnUse" x1="102.2707" y1="195.7701" x2="104.5356" y2="195.7701">
				<stop  offset="0" style="stop-color:#8647E1"/>
				<stop  offset="1" style="stop-color:#B78FED"/>
			</linearGradient>
			<polygon class="st119" points="104.53,196.9 102.27,196.89 102.28,194.64 104.54,194.65 			"/>
			<linearGradient id="SVGID_105_" gradientUnits="userSpaceOnUse" x1="107.9053" y1="195.8014" x2="110.1727" y2="195.8014">
				<stop  offset="0" style="stop-color:#8647E1"/>
				<stop  offset="1" style="stop-color:#B78FED"/>
			</linearGradient>
			<polygon class="st120" points="110.16,196.94 107.91,196.92 107.92,194.67 110.17,194.68 			"/>
			<linearGradient id="SVGID_106_" gradientUnits="userSpaceOnUse" x1="113.54" y1="195.832" x2="115.8074" y2="195.832">
				<stop  offset="0" style="stop-color:#8647E1"/>
				<stop  offset="1" style="stop-color:#B78FED"/>
			</linearGradient>
			<polygon class="st121" points="115.79,196.97 113.54,196.95 113.55,194.7 115.81,194.71 			"/>
			<linearGradient id="SVGID_107_" gradientUnits="userSpaceOnUse" x1="119.1753" y1="195.8627" x2="121.4427" y2="195.8627">
				<stop  offset="0" style="stop-color:#8647E1"/>
				<stop  offset="1" style="stop-color:#B78FED"/>
			</linearGradient>
			<polygon class="st122" points="121.43,197 119.18,196.98 119.19,194.73 121.44,194.74 			"/>
			<linearGradient id="SVGID_108_" gradientUnits="userSpaceOnUse" x1="124.8112" y1="195.8934" x2="127.0773" y2="195.8934">
				<stop  offset="0" style="stop-color:#8647E1"/>
				<stop  offset="1" style="stop-color:#B78FED"/>
			</linearGradient>
			<polygon class="st123" points="127.07,197.03 124.81,197.01 124.82,194.76 127.08,194.77 			"/>
			<linearGradient id="SVGID_109_" gradientUnits="userSpaceOnUse" x1="130.4472" y1="195.9241" x2="132.7133" y2="195.9241">
				<stop  offset="0" style="stop-color:#8647E1"/>
				<stop  offset="1" style="stop-color:#B78FED"/>
			</linearGradient>
			<polygon class="st124" points="132.7,197.06 130.45,197.04 130.46,194.79 132.71,194.8 			"/>
			<linearGradient id="SVGID_110_" gradientUnits="userSpaceOnUse" x1="136.0818" y1="195.9548" x2="138.3473" y2="195.9548">
				<stop  offset="0" style="stop-color:#8647E1"/>
				<stop  offset="1" style="stop-color:#B78FED"/>
			</linearGradient>
			<polygon class="st125" points="138.33,197.09 136.08,197.08 136.09,194.82 138.35,194.83 			"/>
			<linearGradient id="SVGID_111_" gradientUnits="userSpaceOnUse" x1="141.7177" y1="195.9861" x2="143.9838" y2="195.9861">
				<stop  offset="0" style="stop-color:#8647E1"/>
				<stop  offset="1" style="stop-color:#B78FED"/>
			</linearGradient>
			<polygon class="st126" points="143.97,197.12 141.72,197.11 141.73,194.85 143.98,194.86 			"/>
			<linearGradient id="SVGID_112_" gradientUnits="userSpaceOnUse" x1="147.3536" y1="196.0164" x2="149.6192" y2="196.0164">
				<stop  offset="0" style="stop-color:#8647E1"/>
				<stop  offset="1" style="stop-color:#B78FED"/>
			</linearGradient>
			<polygon class="st127" points="149.61,197.15 147.35,197.14 147.36,194.88 149.62,194.9 			"/>
			<linearGradient id="SVGID_113_" gradientUnits="userSpaceOnUse" x1="152.9889" y1="196.0468" x2="155.2544" y2="196.0468">
				<stop  offset="0" style="stop-color:#8647E1"/>
				<stop  offset="1" style="stop-color:#B78FED"/>
			</linearGradient>
			<polygon class="st128" points="155.24,197.18 152.99,197.17 153,194.91 155.25,194.93 			"/>
			<linearGradient id="SVGID_114_" gradientUnits="userSpaceOnUse" x1="158.6255" y1="196.0768" x2="160.8897" y2="196.0768">
				<stop  offset="0" style="stop-color:#8647E1"/>
				<stop  offset="1" style="stop-color:#B78FED"/>
			</linearGradient>
			<polygon class="st129" points="160.88,197.21 158.63,197.2 158.64,194.95 160.89,194.96 			"/>
			<linearGradient id="SVGID_115_" gradientUnits="userSpaceOnUse" x1="164.2589" y1="196.1075" x2="166.5263" y2="196.1075">
				<stop  offset="0" style="stop-color:#8647E1"/>
				<stop  offset="1" style="stop-color:#B78FED"/>
			</linearGradient>
			<polygon class="st130" points="166.51,197.24 164.26,197.23 164.27,194.97 166.53,194.99 			"/>
			<linearGradient id="SVGID_116_" gradientUnits="userSpaceOnUse" x1="169.8942" y1="196.1391" x2="172.1616" y2="196.1391">
				<stop  offset="0" style="stop-color:#8647E1"/>
				<stop  offset="1" style="stop-color:#B78FED"/>
			</linearGradient>
			<polygon class="st131" points="172.15,197.27 169.89,197.26 169.91,195.01 172.16,195.02 			"/>
			<linearGradient id="SVGID_117_" gradientUnits="userSpaceOnUse" x1="175.5295" y1="196.1695" x2="177.7956" y2="196.1695">
				<stop  offset="0" style="stop-color:#8647E1"/>
				<stop  offset="1" style="stop-color:#B78FED"/>
			</linearGradient>
			<polygon class="st132" points="177.78,197.3 175.53,197.29 175.54,195.04 177.8,195.05 			"/>
			<linearGradient id="SVGID_118_" gradientUnits="userSpaceOnUse" x1="181.1635" y1="196.2008" x2="183.4309" y2="196.2008">
				<stop  offset="0" style="stop-color:#8647E1"/>
				<stop  offset="1" style="stop-color:#B78FED"/>
			</linearGradient>
			<polygon class="st133" points="183.42,197.33 181.16,197.32 181.18,195.07 183.43,195.08 			"/>
			<linearGradient id="SVGID_119_" gradientUnits="userSpaceOnUse" x1="186.7988" y1="196.2308" x2="189.0649" y2="196.2308">
				<stop  offset="0" style="stop-color:#8647E1"/>
				<stop  offset="1" style="stop-color:#B78FED"/>
			</linearGradient>
			<polygon class="st134" points="189.05,197.36 186.8,197.35 186.81,195.1 189.06,195.11 			"/>
			<linearGradient id="SVGID_120_" gradientUnits="userSpaceOnUse" x1="192.4366" y1="196.2618" x2="194.7027" y2="196.2618">
				<stop  offset="0" style="stop-color:#8647E1"/>
				<stop  offset="1" style="stop-color:#B78FED"/>
			</linearGradient>
			<polygon class="st135" points="194.69,197.39 192.44,197.38 192.45,195.13 194.7,195.14 			"/>
			<linearGradient id="SVGID_121_" gradientUnits="userSpaceOnUse" x1="198.0706" y1="196.2922" x2="200.338" y2="196.2922">
				<stop  offset="0" style="stop-color:#8647E1"/>
				<stop  offset="1" style="stop-color:#B78FED"/>
			</linearGradient>
			<polygon class="st136" points="200.32,197.43 198.07,197.41 198.08,195.16 200.34,195.17 			"/>
		</g>
	</g>
	<linearGradient id="SVGID_122_" gradientUnits="userSpaceOnUse" x1="97.7877" y1="182.1642" x2="97.7877" y2="223.316">
		<stop  offset="0" style="stop-color:#5C5E60"/>
		<stop  offset="1" style="stop-color:#9FA1A4"/>
	</linearGradient>
	<path class="st137" d="M79.35,227.39l30.02,0.04l8.63-66.4c0,0-24.91-0.26-40.42-0.7c0.32,7.47,2.13,30.02,3.88,56.53
		C80.23,219.12,79.6,222.78,79.35,227.39z"/>
	<linearGradient id="SVGID_123_" gradientUnits="userSpaceOnUse" x1="52.9865" y1="64.0184" x2="15.0866" y2="64.0184">
		<stop  offset="0" style="stop-color:#8647E1"/>
		<stop  offset="1" style="stop-color:#B78FED"/>
	</linearGradient>
	<polygon class="st138" points="43.27,95.24 74.49,64.02 43.27,32.79 43.27,53.16 13.88,53.16 24.12,74.88 43.27,74.88 	"/>
	<linearGradient id="SVGID_124_" gradientUnits="userSpaceOnUse" x1="314.1657" y1="52.2246" x2="261.6147" y2="52.2246">
		<stop  offset="0" style="stop-color:#8647E1"/>
		<stop  offset="1" style="stop-color:#B78FED"/>
	</linearGradient>
	<polygon class="st139" points="299.34,70.49 317.61,52.22 299.34,33.96 299.34,45.87 249.43,45.87 249.43,58.58 299.34,58.58 	"/>
	<g>
		<path class="st2" d="M337.62,242.64H13.9c-7.67,0-13.9-6.22-13.9-13.87V13.87C0,6.22,6.24,0,13.9,0h323.72
			c7.67,0,13.9,6.22,13.9,13.87v214.9C351.52,236.42,345.29,242.64,337.62,242.64z M25.26,217.38h300.99V25.26H25.26V217.38z"/>
	</g>
	<g>
		<rect x="102.96" y="280.18" class="st2" width="145.6" height="8.96"/>
		<polygon class="st2" points="213.84,277.41 137.68,277.41 146.34,245.86 205.19,245.86 		"/>
	</g>
	<g>
		<g>
			<g>
				<path class="st68" d="M182.8,145.19c-0.81,0.18-0.54,0.2-1.43,0.16c-0.9-0.04-9.47-2.98-9.47-2.98s-0.35,1.79,1.74,2.43
					c1.68,0.51,1.73,1.08,1.73,1.08s0.06,0.17-2.89,1.43c-1.68,0.12-3.86,1.53-4.76,2.22c-0.22,0.15-0.43,1.06,0.12,1.22
					c-0.33,0.46-0.22,1.07-0.07,1.25c0.28,0.31,2.51-0.19,4.28-0.14c-0.97,0.5-3.38,0.68-2.82,1.6c0.56,0.06,3.8-0.56,4.04-0.62
					c0.58-0.14,3.1-0.33,5.01-1c1.91-0.68,4.26-2.26,4.26-2.26l1.63-0.8C184.18,148.76,183.64,147.28,182.8,145.19z"/>
				<linearGradient id="SVGID_125_" gradientUnits="userSpaceOnUse" x1="217.3471" y1="102.4809" x2="253.3471" y2="198.8143">
					<stop  offset="0" style="stop-color:#5C5E60"/>
					<stop  offset="1" style="stop-color:#9FA1A4"/>
				</linearGradient>
				<path class="st140" d="M238.67,83.91c-6.14,10.36-14.89,24.82-24.71,35.61c-9.81,10.79-31.55,25.51-31.55,25.51l2.19,5.18
					c0,0,24.73-8.68,38.19-20.03c7.22-6.1,17.66-18.36,17.66-18.36s24.52-39.98,15.3-38.37C251.51,74.17,245.29,72.72,238.67,83.91z
					"/>
			</g>
			<g>
				<linearGradient id="SVGID_126_" gradientUnits="userSpaceOnUse" x1="338.0459" y1="169.3716" x2="364.4236" y2="191.981">
					<stop  offset="0" style="stop-color:#5C5E60"/>
					<stop  offset="1" style="stop-color:#9FA1A4"/>
				</linearGradient>
				<polygon class="st141" points="343.67,204.14 373.34,169.93 348.11,148.05 318.45,182.28 				"/>
				<linearGradient id="SVGID_127_" gradientUnits="userSpaceOnUse" x1="336.557" y1="168.3961" x2="357.9606" y2="185.8808">
					<stop  offset="0" style="stop-color:#5C5E60"/>
					<stop  offset="1" style="stop-color:#9FA1A4"/>
				</linearGradient>
				<path class="st142" d="M329.54,172.03l-2.85-2.47c-1.57-1.36-1.73-3.74-0.38-5.3l4.52-5.21c1.36-1.56,3.74-1.73,5.3-0.38
					l2.85,2.48c1.57,1.36,1.74,3.73,0.39,5.3l-4.53,5.21C333.48,173.22,331.1,173.39,329.54,172.03z M327.61,165.4
					c-0.72,0.85-0.64,2.12,0.21,2.86l2.85,2.47c0.84,0.73,2.12,0.64,2.85-0.2l4.52-5.21c0.73-0.84,0.64-2.12-0.21-2.86l-2.85-2.47
					c-0.84-0.73-2.12-0.64-2.86,0.2L327.61,165.4z"/>
				<path class="st68" d="M324.23,155.45c0,0,0.26,0.37,0.72,1.49c-0.42,1.24,0.61,5.32,0.18,8.74c-0.04,0.29,1.21-0.17,1.21-1.18
					c-0.01-1.31,0.95-2.47,0.95-2.47l1.67,1.81l-0.58,0.67c0,0,0.6,0.36,1.44,0.67c0.64,0.24,1.04-0.16,1.14-0.46
					c0.08-0.25,0.14-0.41,0.43-0.56c0.52-0.27,0.66-0.67,0.73-1.06c0.04-0.23,0.27-0.51,0.48-0.77c0.42-0.49,0.28-0.82,0.28-0.82
					s-0.85-1.59-1.69-2.59c-1.1-1.31-3.04-3.17-3.04-3.17l-1.15-1.36L324.23,155.45z"/>
				<linearGradient id="SVGID_128_" gradientUnits="userSpaceOnUse" x1="330.0643" y1="175.6957" x2="360.8086" y2="175.6957">
					<stop  offset="0" style="stop-color:#5C5E60"/>
					<stop  offset="1" style="stop-color:#9FA1A4"/>
				</linearGradient>
				<path class="st143" d="M348.11,177.62c9.72-11.71,12.69-18.6,12.69-18.6l-1.07-0.9c0,0-4.01,8.46-12.64,18.62
					c-8.63,10.17-17.03,15.61-17.03,15.61l1.05,0.92C331.12,193.27,338.39,189.33,348.11,177.62z"/>
				<path class="st2" d="M344.98,179.07l1.49,1.31c1.16,1.02,2.91,0.87,3.94-0.33l0,0c1.02-1.19,0.91-2.98-0.25-3.99l-1.49-1.31
					L344.98,179.07z"/>
			</g>
			<linearGradient id="SVGID_129_" gradientUnits="userSpaceOnUse" x1="297.4056" y1="175.7057" x2="284.739" y2="139.7057">
				<stop  offset="0" style="stop-color:#5C5E60"/>
				<stop  offset="1" style="stop-color:#9FA1A4"/>
			</linearGradient>
			<path class="st144" d="M315.03,173.06c0,0-4.05-4.95-24.98-5.93c-22.1-1.03-29.2-48.65-29.2-48.65s30.96,20.69,43.73,36.13
				C308.02,158.77,315.03,173.06,315.03,173.06z"/>
			<linearGradient id="SVGID_130_" gradientUnits="userSpaceOnUse" x1="242.1109" y1="93.2266" x2="278.1109" y2="189.56">
				<stop  offset="0" style="stop-color:#5C5E60"/>
				<stop  offset="1" style="stop-color:#9FA1A4"/>
			</linearGradient>
			<path class="st145" d="M255.67,146.9c0,0-20.52-14.12-21.77-40.89c-0.96-20.55,16.06-33.81,16.06-33.81L255.67,146.9z"/>
			<linearGradient id="SVGID_131_" gradientUnits="userSpaceOnUse" x1="265.8885" y1="162.1286" x2="265.8885" y2="104.0386">
				<stop  offset="0" style="stop-color:#DCDFFB"/>
				<stop  offset="1" style="stop-color:#F3F3FA"/>
			</linearGradient>
			<path class="st146" d="M249.96,161.83c0,0-3.95-21.38-9.46-46.98c-4.52-21.06,9.14-45.34,9.14-45.34l11.08,1.55
				c0,0,20.61,16.37,25.82,36.62c3.19,12.4,5.64,34.88,5.64,34.88l-0.31,18.76L249.96,161.83z"/>
			<path class="st2" d="M258.13,165.56c0,0,1.42-13.25-3.73-20.88c-5.6-8.28-6.08-25.22-6.08-25.22s2.21,14.04,6.65,24.16
				c4.44,10.12,4.81,21.75,4.81,21.75L258.13,165.56z"/>
			<linearGradient id="SVGID_132_" gradientUnits="userSpaceOnUse" x1="255.0292" y1="74.7952" x2="255.0292" y2="61.1286">
				<stop  offset="0" style="stop-color:#DCDFFB"/>
				<stop  offset="1" style="stop-color:#F3F3FA"/>
			</linearGradient>
			<path class="st147" d="M260.77,71.07l1.12,0.76l-7.65,9.89c0,0-4.22-1.5-6.07-5.32C256.03,76.04,260.77,71.07,260.77,71.07z"/>
			<linearGradient id="SVGID_133_" gradientUnits="userSpaceOnUse" x1="265.0139" y1="84.6677" x2="301.0139" y2="181.0011">
				<stop  offset="0" style="stop-color:#5C5E60"/>
				<stop  offset="1" style="stop-color:#9FA1A4"/>
			</linearGradient>
			<path class="st148" d="M261.89,71.83c0,0-23.45,36.27,5.88,59.72c39.01,31.19,48.17,44.6,48.17,44.6s2.11-19.26-11.65-32.25
				C271.96,113.41,261.89,71.83,261.89,71.83z"/>
			<linearGradient id="SVGID_134_" gradientUnits="userSpaceOnUse" x1="271.9702" y1="82.0682" x2="307.9702" y2="178.4015">
				<stop  offset="0" style="stop-color:#5C5E60"/>
				<stop  offset="1" style="stop-color:#9FA1A4"/>
			</linearGradient>
			<path class="st149" d="M293.96,141.67c0,0,2.19-39.21-1.13-56.38c-1.27-1.83-2.8-3.15-4.63-3.84
				c-16.14-6.01-26.31-9.62-26.31-9.62s-11.54,19.34,3.86,42.15C281.15,136.76,293.96,141.67,293.96,141.67z"/>
			<linearGradient id="SVGID_135_" gradientUnits="userSpaceOnUse" x1="252.3416" y1="109.7474" x2="267.0083" y2="147.0807">
				<stop  offset="0" style="stop-color:#8647E1"/>
				<stop  offset="1" style="stop-color:#B78FED"/>
			</linearGradient>
			<path class="st150" d="M247.6,76.56c0,0-1.18,0.77-1.93,3.56c-0.08,1.63,0.93,2.86,0.93,2.86s-4.79,9.94-3.92,23.45
				c1.33,20.74,23.44,44.81,23.44,44.81l10.72,1.51l-1.66-11.33c0,0-23.09-16.4-26.77-36.42c-2.55-13.83,0.28-21.63,0.28-21.63
				s0.74-0.4,2.71-2.39C248.77,79.35,247.6,76.56,247.6,76.56z"/>
			<linearGradient id="SVGID_136_" gradientUnits="userSpaceOnUse" x1="258.5808" y1="128.1178" x2="259.2475" y2="96.1178">
				<stop  offset="0" style="stop-color:#5C5E60"/>
				<stop  offset="1" style="stop-color:#9FA1A4"/>
			</linearGradient>
			<path class="st151" d="M264.25,76.58c0,0-6.11,9.03-2.49,14c-2.48,1.76-4.76,3.14-4.76,3.14s1.23,1.91,4.35,4.76
				c-1.93,4-2.7,15.5,0.28,24.14c-10.38-14.09-6.8-29.44-4.8-36.05c2-6.61,5.55-13.02,5.55-13.02L264.25,76.58z"/>
			<g>
				<path class="st68" d="M260.75,71.02c0,0-1.65-2.91-1.29-8.5c0.36-5.59-5.75-5.04-5.75-5.04s-2.49,4.68-3.17,7.6
					c-0.62,2.68-3.41,4.47-4.68,4.57c-2.7,0.23-7.69,0.15-7.69,0.15s7.88,1.83,9.99,6.06C254.41,76.33,260.75,71.02,260.75,71.02z"
					/>
				<path class="st68" d="M238.6,69.89c2.36,0.07,6.13,0.08,8.2-0.11c2.94-0.26,3.49-3.14,3.49-3.14l1.74-4.88
					c0,0,1.14-0.53,2.01-1.6c0.35-0.43,1.19-2.73-1.04-3.63c-3.29-1.34-0.4-9.02-0.4-9.02l-4.54-1.35l-4.11,2.04l-7.36,11.03
					c0,0-0.06,0.61,0.76,0.77c0.98,0.2,1.89,0.43,1.89,0.43s-1.25,8.05-1.29,8.53C237.92,69.38,237.74,69.87,238.6,69.89z"/>
				<path class="st69" d="M259.53,49.51c-11.04-6.78-14.74-6.95-16-3.93c-0.22,0.57-0.25,1.9,0.42,2.63
					c3.73-0.26,7.28-0.15,6.18,2.26c-0.21,0.78-4.11,9.17-1.11,9.54c0.65-1.11,2.65-4.08,4.86-2.79c1.29,0.76-0.41,4.71,5.6,6.06
					C259.97,58.35,260.35,51.38,259.53,49.51z"/>
			</g>
			<linearGradient id="SVGID_137_" gradientUnits="userSpaceOnUse" x1="285.998" y1="76.8259" x2="321.998" y2="173.1593">
				<stop  offset="0" style="stop-color:#5C5E60"/>
				<stop  offset="1" style="stop-color:#9FA1A4"/>
			</linearGradient>
			<polygon class="st152" points="328.25,155.52 324.51,157.77 282.2,101.03 292.76,85.2 			"/>
		</g>
		<g>
			<path class="st153" d="M307.17,286.8l0.23,4.07l-3.46,0.09l-0.06-1.43l-4.83,1.57l-4.47,0.02c0,0-0.54-0.87,0.26-1.04
				c0.23-0.05,4.51-1.28,4.51-1.28l3.86-2.54L307.17,286.8z"/>
			<path class="st153" d="M269.15,286.8l0.24,4.07l-3.46,0.09l-0.06-1.43l-4.83,1.57l-4.47,0.02c0,0-0.54-0.87,0.25-1.04
				c0.23-0.05,4.5-1.28,4.5-1.28l4.06-2.54L269.15,286.8z"/>
			<linearGradient id="SVGID_138_" gradientUnits="userSpaceOnUse" x1="269.5944" y1="193.5359" x2="276.9277" y2="288.5359">
				<stop  offset="0" style="stop-color:#5C5E60"/>
				<stop  offset="1" style="stop-color:#9FA1A4"/>
			</linearGradient>
			<path class="st154" d="M262.99,286.79c0,0,4.44,1.29,9.43,1.28c0.66-24.57,8.36-50.45,4.13-62.13
				c0.99-31.12,7.74-64.59,7.74-64.59l-34.32,0.39L262.99,286.79z"/>
			<linearGradient id="SVGID_139_" gradientUnits="userSpaceOnUse" x1="270.2318" y1="191.0802" x2="279.5651" y2="216.7468">
				<stop  offset="0" style="stop-color:#5C5E60"/>
				<stop  offset="1" style="stop-color:#9FA1A4"/>
			</linearGradient>
			<path class="st155" d="M277.86,208.11l-0.92,9.38c0,0-7.67-24.12-7.73-32.04C269.11,174.26,277.86,208.11,277.86,208.11z"/>
			<linearGradient id="SVGID_140_" gradientUnits="userSpaceOnUse" x1="282.4719" y1="192.5419" x2="289.8052" y2="287.5419">
				<stop  offset="0" style="stop-color:#5C5E60"/>
				<stop  offset="1" style="stop-color:#9FA1A4"/>
			</linearGradient>
			<path class="st156" d="M261.65,161.64l38.59,125.94c0,0,5.66-0.26,7.69-0.41c-1.33-23.02-2.73-51.45-10.07-62.52
				c-3.6-34.6-2.82-44.99-5.91-63.32C276.15,161.49,261.65,161.64,261.65,161.64z"/>
		</g>
	</g>
	<g>
		<path class="st68" d="M156.48,143.24c0,0,1.73,0.62,2.62,0.48c0.89-0.14,9.14-3.23,9.14-3.23s0.5,1.39-1.52,2.24
			c-1.94,0.81-1.76,1.71-1.76,1.71s4.59,1.65,5.8,2.05c1.22,0.41,2.88,1.19,3.04,1.61c0.1,0.29,0.27,1.25-0.22,1.94
			c-0.23,0.34-1.22,0.39-3.53,0.09c1.02,0.4,2.88,0.36,2.43,1.34c-0.55,0.11-4.39-0.36-4.65-0.39c-0.59-0.08-3.54-0.39-5.51-0.86
			c-1.97-0.46-3.81-1.85-3.81-1.85l-3.16-0.68L156.48,143.24z"/>
		<linearGradient id="SVGID_141_" gradientUnits="userSpaceOnUse" x1="121.7982" y1="111.1714" x2="89.5482" y2="188.4214">
			<stop  offset="0" style="stop-color:#5C5E60"/>
			<stop  offset="1" style="stop-color:#9FA1A4"/>
		</linearGradient>
		<path class="st157" d="M156.18,149.31l1.6-5.92c0,0-29.77-12.27-41.32-18.42c-13.76-7.33-19.65-32.99-22.5-42.66
			c-6.67,1.95-9.41,2.19-12.76,6.51c-2.51,3.22-2.79,7.87-1.37,11.88c2.53,7.18,4.91,22.76,26.37,34.27
			C119.84,142.29,156.18,149.31,156.18,149.31z"/>
	</g>
</g>
</svg>
