<?xml version="1.0" encoding="utf-8"?>
<!-- Generator: Adobe Illustrator 25.2.1, SVG Export Plug-In . SVG Version: 6.00 Build 0)  -->
<svg version="1.1" id="Layer_1" xmlns="http://www.w3.org/2000/svg" width="100" xmlns:xlink="http://www.w3.org/1999/xlink" x="0px" y="0px"
	 viewBox="0 0 770.79 953.71" style="enable-background:new 0 0 770.79 953.71;" xml:space="preserve">
<style type="text/css">
	.st0{opacity:0.15;fill:url(#SVGID_1_);}
	.st1{fill:none;stroke:#020202;stroke-width:15;stroke-miterlimit:10;}
</style>
<g>
	<linearGradient id="SVGID_1_" gradientUnits="userSpaceOnUse" x1="365.1144" y1="780.3645" x2="665.3698" y2="238.0667">
		<stop  offset="0" style="stop-color:#8647E1"/>
		<stop  offset="1" style="stop-color:#B78FED"/>
	</linearGradient>
	<polygon class="st0" points="0,563.04 770.79,0 754.58,953.71 	"/>
	<g>
		<path class="st1" d="M568.54,435.62c-24.43,0-42.67-20.47-42.67-45.72v-15.25c0-25.25,18.24-45.72,42.67-45.72
			c24.43,0,42.67,20.47,42.67,45.72v15.25C611.22,415.15,592.97,435.62,568.54,435.62z"/>
		<path class="st1" d="M515.21,776.99V542.3c0,0-34.67,21.34-42.67,21.34s-24.84-7.4-42.67-21.34
			c-7.74-6.05-16.88-13.79-25.39-22.04c-11.92-11.57,0.63-31.22,16.18-25.38c16.68,6.26,33.48,12.56,41.21,15.42
			c16-16.67,32.67-42.67,74.68-42.67c43.94,0,65.32,0,74.68,0c38.23,0,53.34,16.13,53.34,64.01v64.01c0,22.88-9.12,32-32,32h-10.67"
			/>
		<line class="st1" x1="568.54" y1="627.64" x2="568.54" y2="776.99"/>
		<line class="st1" x1="621.88" y1="531.63" x2="621.88" y2="776.99"/>
		<path class="st1" d="M483.2,670.31H240.22c-13.1,0-23.72-10.62-23.72-23.72V299.32c0-13.1,10.62-23.72,23.72-23.72h443.29
			c13.1,0,23.72,10.62,23.72,23.72V646.6c0,13.1-10.62,23.72-23.72,23.72h-29.62"/>
	</g>
</g>
</svg>
