<?xml version="1.0" encoding="utf-8"?>
<!-- Generator: Adobe Illustrator 25.2.1, SVG Export Plug-In . SVG Version: 6.00 Build 0)  -->
<svg version="1.1" id="Layer_1" xmlns="http://www.w3.org/2000/svg" width="100" xmlns:xlink="http://www.w3.org/1999/xlink" x="0px" y="0px"
	 viewBox="0 0 770.79 953.71" style="enable-background:new 0 0 770.79 953.71;" xml:space="preserve">
<style type="text/css">
	.st0{opacity:0.15;fill:url(#SVGID_1_);}
	.st1{fill:none;stroke:#020202;stroke-width:15;stroke-linecap:round;stroke-linejoin:round;stroke-miterlimit:10;}
</style>
<g>
	<linearGradient id="SVGID_1_" gradientUnits="userSpaceOnUse" x1="365.1144" y1="780.3645" x2="665.3698" y2="238.0667">
		<stop  offset="0" style="stop-color:#8647E1"/>
		<stop  offset="1" style="stop-color:#B78FED"/>
	</linearGradient>
	<polygon class="st0" points="0,563.04 770.79,0 754.58,953.71 	"/>
	<g>
		<g>
			<path d="M717.01,611.91V309.6c0-13.68-11.13-24.81-24.81-24.81H214.83c-13.68,0-24.81,11.13-24.81,24.81v302.31h-31.95v22.2
				l24.9,34.81h541.1l24.9-34.81v-22.2H717.01z M203.56,309.6c0-6.22,5.06-11.28,11.28-11.28H692.2c6.22,0,11.28,5.06,11.28,11.28
				v302.31H203.56V309.6z M735.43,629.76l-18.33,25.62H189.93l-18.32-25.62v-4.33h18.42h526.99h18.42V629.76z"/>
		</g>
		<g>
			<path class="st1" d="M454.02,506.75v-12.53c0-10.53,6.74-19.82,16.81-23.71c17.17-6.64,29.2-23.15,28.65-42.31
				c-0.66-23.05-20.44-42.27-44.18-42.9c-13.74-0.37-26.15,5.18-34.73,14.22c-4.42,4.65-7.82,10.23-9.86,16.4"/>
			<line class="st1" x1="454.02" y1="549.48" x2="454.02" y2="539.97"/>
		</g>
	</g>
</g>
</svg>
