<?xml version="1.0" encoding="utf-8"?>
<!-- Generator: Adobe Illustrator 25.2.1, SVG Export Plug-In . SVG Version: 6.00 Build 0)  -->
<svg version="1.1" id="_x2018_ëîé_x5F_1" xmlns="http://www.w3.org/2000/svg" width="400" xmlns:xlink="http://www.w3.org/1999/xlink"
	 x="0px" y="0px" viewBox="0 0 461.92 472.49" style="enable-background:new 0 0 461.92 472.49;" xml:space="preserve">
<style type="text/css">
	.st0{fill:url(#SVGID_1_);}
	.st1{fill:#CACAEA;}
	.st2{fill:url(#SVGID_2_);}
	.st3{fill:url(#SVGID_3_);}
	.st4{fill:url(#SVGID_4_);}
	.st5{fill:#F4D5D5;}
	.st6{fill:#3D0E0E;}
	.st7{fill:url(#SVGID_5_);}
	.st8{fill:url(#SVGID_6_);}
	.st9{fill:#FFFFFF;}
	.st10{fill:url(#SVGID_7_);}
	.st11{fill:url(#SVGID_8_);}
	.st12{fill:url(#SVGID_9_);}
	.st13{fill:url(#SVGID_10_);}
	.st14{fill:url(#SVGID_11_);}
	.st15{fill:url(#SVGID_12_);}
	.st16{fill:url(#SVGID_13_);}
	.st17{fill:url(#SVGID_14_);}
	.st18{fill:url(#SVGID_15_);}
	.st19{fill:url(#SVGID_16_);}
	.st20{fill:url(#SVGID_17_);}
	.st21{fill:url(#SVGID_18_);}
	.st22{fill:#744E4E;}
	.st23{fill:url(#SVGID_19_);}
	.st24{fill:url(#SVGID_20_);}
	.st25{fill:url(#SVGID_21_);}
	.st26{fill:url(#SVGID_22_);}
	.st27{fill:url(#SVGID_23_);}
	.st28{fill:url(#SVGID_24_);}
	.st29{fill:url(#SVGID_25_);}
	.st30{fill:url(#SVGID_26_);}
	.st31{fill:none;}
	.st32{fill:url(#SVGID_27_);}
	.st33{fill:url(#SVGID_28_);}
</style>
<g>
	<g>
		<g>
			<linearGradient id="SVGID_1_" gradientUnits="userSpaceOnUse" x1="70.4218" y1="38.8512" x2="242.2111" y2="38.8512">
				<stop  offset="0" style="stop-color:#DCDEFA"/>
				<stop  offset="1" style="stop-color:#F2F3FA"/>
			</linearGradient>
			<path class="st0" d="M242.21,42.58v22.85H70.42V47.08c25.43,0,33.69-34.81,56.45-34.81c22.76,0,32.13,43.68,57.34,43.68
				C209.42,55.95,214.99,42.58,242.21,42.58z"/>
			<g>
				<rect x="69.87" y="0.44" class="st1" width="1.1" height="65"/>
				<rect x="127.14" y="0.44" class="st1" width="1.1" height="65"/>
				<rect x="184.4" y="0.44" class="st1" width="1.1" height="65"/>
				<rect x="241.66" y="0.44" class="st1" width="1.1" height="65"/>
			</g>
			<g>
				<path class="st1" d="M184.21,56.77c-13.34,0-22.26-11.69-30.89-23c-8.11-10.63-15.78-20.68-26.46-20.68
					c-10.7,0-18.1,7.97-25.94,16.42c-8.39,9.04-17.07,18.39-30.5,18.39v-1.65c12.71,0,21.14-9.08,29.3-17.87
					c8.09-8.71,15.73-16.94,27.15-16.94c11.5,0,19.4,10.36,27.77,21.32c8.39,10.99,17.06,22.35,29.58,22.35
					c12.2,0,19.62-3.12,27.47-6.43c8.11-3.41,16.49-6.94,30.53-6.94v1.65c-13.7,0-21.93,3.46-29.89,6.81
					C204.66,53.44,196.74,56.77,184.21,56.77z"/>
			</g>
		</g>
		<g>
			<path class="st1" d="M24.07,64.07C10.8,64.07,0,53.27,0,40s10.8-24.07,24.07-24.07c13.27,0,24.07,10.8,24.07,24.07
				S37.34,64.07,24.07,64.07z M24.07,19.74C12.9,19.74,3.81,28.83,3.81,40s9.09,20.26,20.26,20.26S44.33,51.17,44.33,40
				S35.24,19.74,24.07,19.74z"/>
			<path class="st1" d="M24.1,65.42c-7.52,0-14.97-3.31-19.99-9.66l5.49-4.34c6.3,7.98,17.92,9.34,25.9,3.04
				c7.98-6.3,9.34-17.92,3.04-25.9l5.49-4.34c8.7,11.01,6.82,27.03-4.19,35.73C35.18,63.64,29.62,65.42,24.1,65.42z"/>
			<path class="st1" d="M24.07,65.43v-7c10.17,0,18.44-8.27,18.44-18.44c0-10.17-8.27-18.44-18.44-18.44v-7
				c14.03,0,25.44,11.41,25.44,25.44S38.1,65.43,24.07,65.43z"/>
		</g>
		<rect x="74.87" y="82.69" class="st1" width="39.04" height="5.03"/>
		<rect x="74.87" y="91.88" class="st1" width="39.04" height="5.03"/>
		<rect x="2.85" y="82.69" class="st1" width="39.04" height="5.03"/>
		<rect x="2.85" y="91.88" class="st1" width="39.04" height="5.03"/>
		<rect x="2.85" y="101.08" class="st1" width="28.62" height="5.03"/>
		<rect x="265.61" y="0.56" class="st1" width="39.04" height="5.03"/>
		<rect x="265.61" y="9.76" class="st1" width="39.04" height="5.03"/>
		<rect x="265.61" y="18.95" class="st1" width="28.62" height="5.03"/>
		<rect x="74.87" y="126.81" class="st1" width="12.66" height="5.03"/>
		<rect x="72.58" class="st1" width="20.23" height="4.87"/>
		<rect x="129.71" class="st1" width="20.23" height="4.87"/>
		<rect x="186.84" class="st1" width="8.22" height="4.87"/>
		<rect x="243.76" class="st1" width="8.22" height="4.87"/>
		<rect x="69.87" y="82.69" class="st1" width="1.5" height="49.15"/>
		<rect x="329.6" y="49.91" class="st1" width="39.04" height="5.03"/>
		<rect x="329.6" y="59.41" class="st1" width="39.04" height="5.03"/>
		<rect x="329.6" y="68.91" class="st1" width="39.04" height="5.03"/>
		<rect x="329.6" y="84.84" class="st1" width="30.59" height="5.03"/>
		<rect x="329.6" y="94.04" class="st1" width="22.43" height="5.03"/>
		<rect x="324.6" y="49.91" class="st1" width="1.5" height="49.15"/>
		<rect x="324.6" y="21.47" class="st1" width="11.43" height="14.33"/>
		<rect x="339.18" y="17.24" class="st1" width="11.43" height="18.56"/>
		<rect x="353.76" y="1.63" class="st1" width="11.43" height="34.17"/>
		<rect x="368.34" y="14.78" class="st1" width="11.43" height="21.02"/>
		<rect x="382.92" y="29.63" class="st1" width="11.43" height="6.17"/>
		<rect x="397.5" y="14.78" class="st1" width="11.43" height="21.02"/>
	</g>
	<linearGradient id="SVGID_2_" gradientUnits="userSpaceOnUse" x1="236.6945" y1="301.7823" x2="308.6945" y2="233.7822">
		<stop  offset="0" style="stop-color:#DCDEFA"/>
		<stop  offset="1" style="stop-color:#F2F3FA"/>
	</linearGradient>
	<path class="st2" d="M197.44,410.16V260.89c0-2.15,1.74-3.88,3.88-3.88h0c2.15,0,3.88,1.74,3.88,3.88v149.27
		C205.21,413.83,197.44,413.69,197.44,410.16z"/>
	<linearGradient id="SVGID_3_" gradientUnits="userSpaceOnUse" x1="151.1649" y1="211.2216" x2="223.1649" y2="143.2216">
		<stop  offset="0" style="stop-color:#DCDEFA"/>
		<stop  offset="1" style="stop-color:#F2F3FA"/>
	</linearGradient>
	<path class="st3" d="M145.62,260.66v-92.56h4.1v92.56C149.73,261.97,145.62,261.97,145.62,260.66z"/>
	<linearGradient id="SVGID_4_" gradientUnits="userSpaceOnUse" x1="280.3024" y1="194.0623" x2="371.6357" y2="316.7289">
		<stop  offset="0" style="stop-color:#DCDEFA"/>
		<stop  offset="1" style="stop-color:#F2F3FA"/>
	</linearGradient>
	<path class="st4" d="M141.11,160.65v5.81L184.59,254c3.78,5.2,9.3,6.3,16.15,6.3h249.42c2.29-1.45,5.03-5.7,8.14-8.15l-0.01-7.54
		L141.11,160.65z"/>
	<path class="st5" d="M253.7,103.93c-3.05,2.18-18.96,11.98-21.57,13.73c-2.61,1.74-4.14,1.74-6.97,0
		c-2.83-1.74-22.33-24.4-23.64-26.26c-1.31-1.85-5.01-1.96-6.43-3.81c-1.42-1.85-8.39-9.91-3.73-9.7c0.97,0.04,5.37,5.56,6.18,4.96
		c1.58-1.18-1.17-2.14-1.2-3.23c-0.08-3.33,1.73-0.23,5.07,2.15c0.62,0.44,1.09,1.1,1.23,1.86c0.2,1.07,1.3,3.12,5.52,6.69
		c3.26,2.76,16.01,14.82,18.08,16.45c2.07,1.63,3.53,1.42,4.9,0.33c1.39-1.11,21.57-15.84,22.01-15.03L253.7,103.93z"/>
	<path class="st6" d="M254.78,94.45c-1.09-1.53-3.86-2.68-2.83-9.37c0.87-5.67,4.25-5.34,4.36-8.93c0.11-3.6-2.8-5.85-2.29-10.42
		c0.51-4.58,5.29-10.82,12.92-10.89c7.63-0.07-2.1,38.71-2.1,38.71L254.78,94.45z"/>
	<path class="st5" d="M255.58,90.93c4.21-0.73,7.99-1.02,8.57-3.34c0.58-2.32-0.58-5.52-0.58-5.52l9.3,0.51c0,0-1.01,5.1,0,6.54
		c1.74,2.47,4.43,4.58,4.43,4.58l-8.64,12.2l-12.35-0.44L255.58,90.93z"/>
	<linearGradient id="SVGID_5_" gradientUnits="userSpaceOnUse" x1="247.5954" y1="153.3756" x2="284.9266" y2="153.3756">
		<stop  offset="0" style="stop-color:#7749DB"/>
		<stop  offset="1" style="stop-color:#AA8DE8"/>
	</linearGradient>
	<path class="st7" d="M249.05,145.69c0,0,32.14-5.47,33.12-1.45c1.31,5.37,2.76,18.45,2.76,18.45l-37.33,1.31L249.05,145.69z"/>
	<linearGradient id="SVGID_6_" gradientUnits="userSpaceOnUse" x1="248.7737" y1="121.2945" x2="283.8043" y2="121.2945">
		<stop  offset="0" style="stop-color:#5D5E60"/>
		<stop  offset="1" style="stop-color:#9D9FA1"/>
	</linearGradient>
	<path class="st8" d="M249.56,111.99c0,0-1.84-14.81,0.81-18.01c2.93-3.55,7.97-3.5,7.97-3.5s-4.31,13.44,2.99,13.34
		c8.79-0.11,10.48-9.51,14.23-11.68c3.75-2.16,7.67,1,8.22,4.59s-4.68,33.23-4.68,33.23l3.85,18.08c-8.09,6-34.42,4.5-34.15,1.07
		C249.05,145.69,249.56,111.99,249.56,111.99z"/>
	<path class="st5" d="M261.1,62.02c-1.74,3.34-2.91,4.07-2.76,10.89c0.15,6.83,1.88,10.6,3.92,12.06c2.04,1.46,3.97,2.47,11.87-1.13
		c3.17-1.44,0-17.32,0-17.32l-4.32-5.96L261.1,62.02z"/>
	<path class="st9" d="M231.99,106.05l26.8,3.49c0,0,6.9,14.82,8.13,20.48c1.24,5.66,2.76,12.75,2.76,12.75l-23.1-3.92
		c0,0-1.31-10.68-3.6-16.56C240.7,116.4,231.99,106.05,231.99,106.05z"/>
	<path class="st5" d="M240.03,116.83c-2.64,1.78-0.53,7.08,1.76,8.06c2.29,0.98,22.99,12.64,26.04,13.73
		c3.05,1.09,4.9,0.65,6.28-1.42c1.38-2.07,8.75-20.41,10.82-25.93c2.95-7.84,0.01-19.17-3.81-19.17c-6.65,0-7.41,10.35-8.76,16.23
		c-1.35,5.88-2.46,15.69-3.44,17.98s-1.42,2.83-4.14,1.96c-2.72-0.87-14.98-5.55-17.18-6.64c-2.2-1.09-4.11-3.94-4.85-5.74
		c-0.92-2.22-2.05-1.48-1.32,0.27c0.45,1.08,0.63,2.45,0.33,2.65C241.39,119.05,240.84,118.13,240.03,116.83z"/>
	<path class="st9" d="M293.04,164.52l161.07,74.2c7.01,3.23,4.71,13.73-3.01,13.73H200.92c-7.48,0-14.33-4.16-17.77-10.8l-42.04-81
		h134.25C281.46,160.65,287.49,161.97,293.04,164.52z"/>
	<linearGradient id="SVGID_7_" gradientUnits="userSpaceOnUse" x1="202.9014" y1="194.9046" x2="249.2764" y2="194.9046">
		<stop  offset="0" style="stop-color:#DCDEFA"/>
		<stop  offset="1" style="stop-color:#F2F3FA"/>
	</linearGradient>
	<polygon class="st10" points="202.9,188.88 211.4,201.26 249.28,201.26 236.61,188.55 	"/>
	<g>
		<linearGradient id="SVGID_8_" gradientUnits="userSpaceOnUse" x1="318.2472" y1="132.6373" x2="368.8665" y2="132.6373">
			<stop  offset="0" style="stop-color:#5D5E60"/>
			<stop  offset="1" style="stop-color:#9D9FA1"/>
		</linearGradient>
		<polygon class="st11" points="318.25,122.62 347.78,116.29 368.87,136.96 340.92,148.98 		"/>
		<linearGradient id="SVGID_9_" gradientUnits="userSpaceOnUse" x1="382.3071" y1="263.7806" x2="443.3731" y2="263.7806">
			<stop  offset="0" style="stop-color:#7749DB"/>
			<stop  offset="1" style="stop-color:#AA8DE8"/>
		</linearGradient>
		<path class="st12" d="M443.37,184.29c0.21,18.07-5.89,32.89-5.21,45.35c0.94,17.08-1.01,32.97-1.54,46.15
			c-0.53,13.18-15.96,47.28-15.96,47.28l-1.53,20.21l-5.87-129.61l-6.97,28.9l-23.98-9.49c0,0,0.08-20.65,4.59-48.53L443.37,184.29z
			"/>
		<path class="st5" d="M341.71,146.47c-3.43-1.32-9.14-0.6-14.51-7.39c-3.41-4.31-2.73-6.06-2.17-8.57
			c2.38,2.66,9.61,8.23,8.64,3.18c-0.92-4.81,1.25-4.94,3.63-0.92c2.37,4.01,4.33,5.09,6.11,5.42
			C345.18,138.51,341.71,146.47,341.71,146.47z"/>
		<path class="st5" d="M424.07,71.04c0,0-2.99,11.01,2.36,13.93l-8.2,5.31l-13.08-5.71c3.87-3.8,2.65-8.24,2.65-8.24
			c-2.09-3.48-6.81,2.36-8.2-3.2c-1.39-5.56-3.75-9.46-2.22-12.24c1.53-2.78-0.49-3.19-0.5-6.4c-0.02-8.34,5.71-14.78,14.71-14.32
			C427.97,41,433.79,52.27,424.07,71.04z"/>
		<linearGradient id="SVGID_10_" gradientUnits="userSpaceOnUse" x1="384.067" y1="135.046" x2="446.0547" y2="135.046">
			<stop  offset="0" style="stop-color:#DCDEFA"/>
			<stop  offset="1" style="stop-color:#F2F3FA"/>
		</linearGradient>
		<path class="st13" d="M443.42,97.15c-3.34-6.87-8.42-6.88-16.99-12.19c-6.52,1.84-12.87,2.1-21.28-0.4
			c-3.89,2.79-14.99,3.82-18.1,9.04c-4.48,7.51-2.62,31.61-2.5,39.81c0.12,8.2,6.5,25.62,2.35,51.13c0,0,56.47,2.38,56.47-0.26
			c0.01-16.24-8.43-24.67-2.68-47.46C448.02,107.78,446.71,103.92,443.42,97.15z"/>
		<path class="st5" d="M395.53,184.87c1.44-3.58,2.35-7.91,1.29-12.26c-2.57-10.52,11.04-17.84,6.2-27.93
			c-6.2-12.92-3.03-25.73-6.2-31.16c0,0-6.45,0.32-12.74,0.63c-0.04,7.69,0.42,15.33,0.48,19.27c0.12,8.2,6.5,25.62,2.35,51.13
			C386.9,184.55,390.34,184.69,395.53,184.87z"/>
		<linearGradient id="SVGID_11_" gradientUnits="userSpaceOnUse" x1="340.561" y1="124.0237" x2="398.8764" y2="124.0237">
			<stop  offset="0" style="stop-color:#DCDEFA"/>
			<stop  offset="1" style="stop-color:#F2F3FA"/>
		</linearGradient>
		<path class="st14" d="M343.4,138.18c-2.09-0.3-4.22,7.48-1.7,8.29c6.47,2.07,23.86,8.6,35.03,11.7c4.34,1.2,8.9-0.94,10.73-5.06
			c4.97-11.19,13.4-33.67,10.99-53.02c-1.2-9.59-2.85-11.39-6.64-10.21c-11.95,3.72-14.04,40.23-17.15,51.39
			c-0.92,3.3-5.74,2.41-8.37,1.71C363.65,142.27,343.4,138.18,343.4,138.18z"/>
		<path class="st6" d="M427.13,66.59c9.72-18.77,3.08-30.43-13.32-30.46c-7.08-0.01-16.1,5.45-16.94,9.89
			c-0.83,4.45,6,6.71,6.62,7.63c1.18,1.77,0.83,4.22,0.56,5.24c-0.28,1.02,1.79,1.93,2.83,0.79c3.24-3.57,6.9-2.61,4.22,5.15
			c-1.97,5.7,10.36,9.61,12.22,10.17C423.58,72.76,427.13,66.59,427.13,66.59z"/>
	</g>
	<path class="st9" d="M346.95,222.75H253.7v-49.3c0-1.65,1.34-3,3-3h87.26c1.65,0,3,1.34,3,3V222.75z"/>
	<linearGradient id="SVGID_12_" gradientUnits="userSpaceOnUse" x1="258.1286" y1="198.8448" x2="342.5192" y2="198.8448">
		<stop  offset="0" style="stop-color:#DCDEFA"/>
		<stop  offset="1" style="stop-color:#F2F3FA"/>
	</linearGradient>
	<path class="st15" d="M342.52,222.75h-84.39v-45.09c0-1.51,1.22-2.73,2.73-2.73h78.94c1.51,0,2.73,1.22,2.73,2.73V222.75z"/>
	<linearGradient id="SVGID_13_" gradientUnits="userSpaceOnUse" x1="253.6963" y1="235.6373" x2="364.3362" y2="235.6373">
		<stop  offset="0" style="stop-color:#DCDEFA"/>
		<stop  offset="1" style="stop-color:#F2F3FA"/>
	</linearGradient>
	<path class="st16" d="M363.16,248.52h-85.64c-3.22,0-6.28-1.42-8.36-3.89l-13.99-16.6c-0.95-1.13-1.47-2.55-1.47-4.02v-1.27
		l93.26,3.55l17.11,20.29C364.7,247.35,364.16,248.52,363.16,248.52z"/>
	<path class="st9" d="M363.16,244.98h-85.64c-3.22,0-6.28-1.42-8.36-3.89l-15.46-18.34h93.26l17.11,20.29
		C364.7,243.81,364.16,244.98,363.16,244.98z"/>
	<linearGradient id="SVGID_14_" gradientUnits="userSpaceOnUse" x1="270.6695" y1="231.5401" x2="343.374" y2="231.5401">
		<stop  offset="0" style="stop-color:#DCDEFA"/>
		<stop  offset="1" style="stop-color:#F2F3FA"/>
	</linearGradient>
	<path class="st17" d="M342.75,237.4h-60.77c-1.7,0-3.31-0.75-4.41-2.05l-6.65-7.88c-0.6-0.71-0.09-1.79,0.83-1.79h59.72
		c1.73,0,3.38,0.76,4.49,2.09l7.26,8.61C343.57,236.78,343.28,237.4,342.75,237.4z"/>
	<linearGradient id="SVGID_15_" gradientUnits="userSpaceOnUse" x1="335.2961" y1="401.1337" x2="335.2961" y2="524.1378">
		<stop  offset="0" style="stop-color:#DCDEFA"/>
		<stop  offset="1" style="stop-color:#F2F3FA"/>
	</linearGradient>
	<polygon class="st18" points="324.72,472.49 338.1,367.98 345.88,368.97 332.62,472.49 	"/>
	<linearGradient id="SVGID_16_" gradientUnits="userSpaceOnUse" x1="413.223" y1="401.1337" x2="413.223" y2="524.1378">
		<stop  offset="0" style="stop-color:#DCDEFA"/>
		<stop  offset="1" style="stop-color:#F2F3FA"/>
	</linearGradient>
	<path class="st19" d="M418.61,472.49l-18.13-107.9c-0.01-0.08,0.04-0.16,0.12-0.17l6.87-1.16c0.08-0.01,0.16,0.04,0.17,0.12
		l18.34,109.11H418.61z"/>
	<linearGradient id="SVGID_17_" gradientUnits="userSpaceOnUse" x1="369.6949" y1="401.1337" x2="369.6949" y2="524.1378">
		<stop  offset="0" style="stop-color:#DCDEFA"/>
		<stop  offset="1" style="stop-color:#F2F3FA"/>
	</linearGradient>
	<path class="st20" d="M366.86,439.74v-73.48h5.67v73.48C372.53,441.94,366.86,442.01,366.86,439.74z"/>
	<linearGradient id="SVGID_18_" gradientUnits="userSpaceOnUse" x1="303.4582" y1="401.1337" x2="303.4582" y2="524.1378">
		<stop  offset="0" style="stop-color:#DCDEFA"/>
		<stop  offset="1" style="stop-color:#F2F3FA"/>
	</linearGradient>
	<path class="st21" d="M292.43,439.27l16.06-89.15l6,1.08l-16.06,89.15C298.14,442.67,292.13,441.65,292.43,439.27z"/>
	<path class="st6" d="M265.07,54.97c5.36-0.84,10.85-0.04,12.99,6.17c2.4,6.97,5.57,9.47,5.74,12.29s-1.24,4.67-1.24,6.74
		c0,2.07,7.84,4.03,6.65,8.72c-1.2,4.68-5.99,7.08-13.66,5.56c-5.41-1.08-4.95-8.72-2.14-11.55c2.81-2.83-0.33-2.94-0.05-6.54
		c0.18-2.41-0.41-3.74-1.92-5.25c-1.4-1.39-3.58-2.93-6.66-5.61c-6.44-5.59-6.66,2.96-6.66,2.96l-1.74-3.76L265.07,54.97z"/>
	<g>
		<path class="st5" d="M378.72,148.16c-1.31,3.2-8.13,16.56-8.42,18.88c-0.29,2.32,1.53,3.34,1.74,4.36
			c0.22,1.02-1.82,1.96-2.18,3.41c-0.36,1.45,1,1.94,0.87,2.69c-0.58,3.34,0.15,13.07,1.16,14.96c1.02,1.89,8.06,3.34,8.93,5.37
			c0.87,2.03,2.03,7.63,0.51,11.84c-1.53,4.21-4.21,5.45-4.21,5.45l39.15-0.58c0,0-9.73-8.57-9.95-15.98
			c-0.22-7.41,2.83-10.46,2.83-10.46L378.72,148.16z"/>
		<path class="st6" d="M393.03,140.89c9.18,0,24.54,7.3,25.74,20.15s-10.13,33.28-15.14,33.34c-19.14,0.2-9.46-16.73-15.18-23.74
			c-0.89-1.09-2.46-1.32-3.66-0.59c-2.1,1.28-1.82,7.32-5.67,10.82c-0.88,0.8-4.02-1.01-4.25-2.18c-0.38-1.92,4.03-4.68,2.83-7.3
			c-1.2-2.61-4.29-4.02-0.76-9.7c5.01-8.06-0.87-6.54-1.85-11.11C374.11,146.01,376.39,140.89,393.03,140.89z"/>
		<path class="st9" d="M382.04,203.79c-1,4.21-5.36,9.88-5.36,9.88l37.62-2.6c0,0-5.62-3.72-6.78-7.81
			C398.62,209.31,382.04,203.79,382.04,203.79z"/>
		<path class="st22" d="M232.67,403.77c-4.01-3.88-6.26-22.86,6.85-15.67c13.22,7.24,35.76,10.93,33.29,24.78
			c-2.4,13.47-11.38,10.16-17.34,3.29C247.92,407.44,241.96,412.77,232.67,403.77z"/>
		<path class="st5" d="M256.25,386.99c0,0-1.01,7.14-1.03,12.98c-0.02,6.28,9.79,14.13,17.61,9.02l1.02-15.07L256.25,386.99z"/>
		<linearGradient id="SVGID_19_" gradientUnits="userSpaceOnUse" x1="255.757" y1="334.278" x2="331.1521" y2="334.278">
			<stop  offset="0" style="stop-color:#5D5E60"/>
			<stop  offset="1" style="stop-color:#9D9FA1"/>
		</linearGradient>
		<path class="st23" d="M331.15,305.21c-5.19-6.37-27.71-22.47-44.28-32.37c-10.87-6.5-25.17,1.58-25.92,13.59
			c-0.97,15.43-1.48,40.19-5.18,104.03c-0.4,6.97,18.02,11.16,18.08,3.46c0.21-24.76,15.69-37.18,13.14-74.95
			c-0.15-2.27,2.63-3.47,4.16-1.8c17.64,19.27,37.27,41.91,37.27,41.91L331.15,305.21z"/>
		<path class="st5" d="M304.27,244.03c0,0-12.64,8.06-14.38,3.49c-1.74-4.58-5.77-2.61-8.06-5.99c-2.29-3.38-2.23-7.79,3.13-9.51
			c5.21-1.67,10.41-1.51,13.54,2.32c1.61,1.97,1.69,1.2,2.34-0.11c0.59-1.19,2.18-1.88,3.1-1.63c0.93,0.25-2.4,7.14-1.25,9.21
			C303.84,243.86,304.27,244.03,304.27,244.03z"/>
		<polygon class="st5" points="315.71,386.31 315.51,400.98 331.77,401.51 332.58,386.31 		"/>
		<path class="st22" d="M315.61,394.72c0.03,4.64,15.91,7.45,16.49,1.34c-0.36,5.45-0.41,7-0.64,10.08
			c-0.29,3.81-15.84,2.91-15.91-1.09C315.45,400.24,315.61,394.72,315.61,394.72z"/>
		<linearGradient id="SVGID_20_" gradientUnits="userSpaceOnUse" x1="315.4969" y1="368.1636" x2="336.4288" y2="368.1636">
			<stop  offset="0" style="stop-color:#5D5E60"/>
			<stop  offset="1" style="stop-color:#9D9FA1"/>
		</linearGradient>
		<path class="st24" d="M315.51,344.94c0,0-0.03,31.98,0,39.82s16.34,9.17,17.07,1.54c0.97-10.14,3.85-37.52,3.85-37.52
			L315.51,344.94z"/>
		<linearGradient id="SVGID_21_" gradientUnits="userSpaceOnUse" x1="375.2039" y1="233.3383" x2="375.8706" y2="353.3383">
			<stop  offset="0" style="stop-color:#5D5E60"/>
			<stop  offset="1" style="stop-color:#9D9FA1"/>
		</linearGradient>
		<path class="st25" d="M435.28,221.15c5.57,5.34,3.65,24.09,3.65,24.09L335.65,359.07c-9.12-9.12-23.04-37.12-24.05-53.63
			c-0.28-4.53,2.37-8.73,6.56-10.49c21.05-8.85,27.52-23.53,27.52-38.07c0-11.77-3.49-34.21,1.53-39
			c5.01-4.79,27.62-5.23,30.18-7.19c2.55-1.96,3.1-2.97,3.1-2.97c8.85,5.37,23.67,4.39,29.99,0
			C420.41,217.8,428.14,214.31,435.28,221.15z"/>
		<linearGradient id="SVGID_22_" gradientUnits="userSpaceOnUse" x1="314.6521" y1="285.2433" x2="368.6285" y2="285.2433">
			<stop  offset="0" style="stop-color:#5D5E60"/>
			<stop  offset="1" style="stop-color:#9D9FA1"/>
		</linearGradient>
		<polygon class="st26" points="337.04,326.17 368.63,244.32 350.91,258.7 344.95,274.06 314.65,310.05 		"/>
		<path class="st9" d="M336.76,336.53c0,0-40.16-41.81-41.79-43.88c-1.63-2.07-0.64-7.54,1.43-5.47
			c2.07,2.07,44.84,35.15,44.84,35.15L336.76,336.53z"/>
		<linearGradient id="SVGID_23_" gradientUnits="userSpaceOnUse" x1="294.8173" y1="308.0753" x2="341.2369" y2="308.0753">
			<stop  offset="0" style="stop-color:#DCDEFA"/>
			<stop  offset="1" style="stop-color:#F2F3FA"/>
		</linearGradient>
		<path class="st27" d="M336.76,331.61c0,0-40.16-41.81-41.79-43.88c-1.63-2.07,10.13-4.47,12.2-2.4
			c2.07,2.07,34.06,34.2,34.06,34.2L336.76,331.61z"/>
		<linearGradient id="SVGID_24_" gradientUnits="userSpaceOnUse" x1="300.3784" y1="292.4704" x2="337.7118" y2="216.4704">
			<stop  offset="0" style="stop-color:#5D5E60"/>
			<stop  offset="1" style="stop-color:#9D9FA1"/>
		</linearGradient>
		<path class="st28" d="M294.03,271.04c-5.91-15.33-6.76-22.27-8.13-25.71c-1.45-3.63,15.98-8.27,17.58-5.37
			c1.6,2.9,14.53,31.08,14.53,31.08s22.59-50.26,29.2-53.16c6.61-2.91,20.33-1.75,17.29,11.91c-4.26,19.13-9.77,30.62-16.45,42.24
			c-4.29,7.46-8.51,14.33-18.5,27.33c-3.5,4.56-7.83,6.91-10.44,7.21C311.77,307.39,295.73,275.44,294.03,271.04z"/>
	</g>
	<g>
		<path class="st5" d="M171.31,77.2c0.87,6.97,1.74,11.33,0.87,14.82c-0.87,3.49-2.61,7.84-5.23,8.72c-2.61,0.87-5.23,0.87-6.1,2.61
			c-0.87,1.74-1.74,5.23,0.87,8.72c2.61,3.49-13.07,1.74-13.07,1.74l-7.84-7.84l5.23-13.07L171.31,77.2z"/>
		<path class="st6" d="M155.63,61.51c6.1-0.87,11.51,0.96,14.82,2.61c5.23,2.61,9.59,9.59,6.1,18.3c-1.74,4.36-5.23,7.84-6.97,9.59
			s-2.61,0.87-1.74-1.74c0.87-2.61,0.87-6.1-1.74-4.36c-2.61,1.74,0.87,6.97-1.74,9.59c-2.61,2.61-6.97,6.1-10.46,5.23
			c-3.49-0.87-7.84-3.49-8.72-5.23c-0.87-1.74,0.87-19.17,0.87-19.17L155.63,61.51z"/>
		<path class="st5" d="M109.82,246.72c3.05,7.41,10.86,13.43,15.3,25.71c3.56,9.84-1.13,11.48,1.05,28.92
			c1.27,10.18,8.13,32.67,8.97,42.76c0.59,7.03,0,10.46,0,10.46l15.03,3.49l9.59-4.14c0,0-12.18-1.03-14.65-13.94
			c-0.92-4.83-0.8-79.09-0.8-79.09L109.82,246.72z"/>
		<path class="st5" d="M156.68,150.41c4.61,4.55,30.71,26.49,37.68,32.83c4.1,3.73,4.82,8.72,5.77,9.42
			c3.95,2.96,8.08-3.59,9.83-1.99c1.43,1.31,3.01,2.98,3.98,3.77c1.09,0.89,2.3-0.1,1.2-1.52c-1.1-1.43-8.09-10.95-11.04-11.58
			c-2.95-0.63-23.26-30.88-29.85-33.94C167.64,144.33,156.68,150.41,156.68,150.41z"/>
		<path class="st22" d="M102.79,327.22c2.51-2.13,8.97-4.47,11.15-1.85c2.18,2.61,0.46,7.91-2.32,9.8c-2.72,1.85-4.47,4.9-5.67,7.84
			c-1.2,2.94-2.94,7.41-7.84,7.41c-4.9,0-4.36-1.09-4.9-4.47c-0.54-3.38-0.22-4.52,0.98-7.41
			C95.38,335.67,102.79,327.22,102.79,327.22z"/>
		<path class="st5" d="M81.83,244.1c1.02,4.65,5.37,11.04,5.37,18.74c0,7.7-2.21,9.67,0.12,29.13c1.28,10.74,6.71,31.87,6.71,38.12
			v7.24c0,2.58,2.09,4.67,4.67,4.67h0.67c2.58,0,4.67-2.09,4.67-4.67l2.13-64.9c0-6.39,0-22.08,0-22.08L81.83,244.1z"/>
		<linearGradient id="SVGID_25_" gradientUnits="userSpaceOnUse" x1="106.8682" y1="233.645" x2="109.5349" y2="270.9783">
			<stop  offset="0" style="stop-color:#5D5E60"/>
			<stop  offset="1" style="stop-color:#9D9FA1"/>
		</linearGradient>
		<path class="st29" d="M77.86,171.55c-4.85,11.21-4.56,16.63-3.92,34.5c0.81,22.57-3.7,25.68-2.18,32.1
			c1.53,6.43,7.89,9.33,14.09,14.09c7.06,5.42,48.24,12.47,58.47,8.64c-0.65-24.91-14.65-51.83-14.6-63.7L77.86,171.55z"/>
		<linearGradient id="SVGID_26_" gradientUnits="userSpaceOnUse" x1="126.7597" y1="148.6142" x2="100.7597" y2="196.6142">
			<stop  offset="0" style="stop-color:#7749DB"/>
			<stop  offset="1" style="stop-color:#AA8DE8"/>
		</linearGradient>
		<path class="st30" d="M163.71,148.1c-4.36,2.61-5.66,7.4-12.64,11.6c-12.78,7.7-20.98,19.67-21.35,37.48
			c-10.46,2.61-49.59-9.17-51.86-25.64c6.48-15.34,12.2-5.16,33.37-42.75c11.42-20.28,26.17-25.71,32.19-23.7
			c2.61,0.87,0,5.23,5.23,6.1c5.23,0.87,10.82-0.4,11.95-1.07c1.12-0.67,9.84,1.95,11.58,4.56
			C173.93,117.29,163.71,148.1,163.71,148.1z"/>
		<path class="st5" d="M172.57,114.68c5.3,2.61,5.23,36.6,4.36,47.06c-0.87,10.46,3.15,23.82,3.15,34.28
			c0,10.46,2.95,24.11,2.95,26.73c0,2.61,0.39,3.97,2.61,1.74c1.74-1.74,2.61-2.61,3.49-3.49c0.87-0.87,1.74-0.87,0.87,1.74
			c-0.87,2.61-2.61,4.36,0,3.49c2.61-0.87,5.45-1.58,6.45-1.91c1.01-0.33,1.66,0.79,0.84,1.25c-0.82,0.46-5.12,2.42-5.8,2.78
			c-0.68,0.35-0.35,0.46,0.19,0.49c0.54,0.03,7.3,0,7.98,0s1.04,1.25,0.68,1.77c-0.35,0.52-0.82,3-3.79,3.62
			c-2.97,0.63-12.17,0.63-13.89,0.41c-1.72-0.22-3.68-1.72-4.47-3.35c-0.79-1.63-12.4-37.63-13.34-50.1
			c-1.09-14.52-5.96-31.5-5.1-38.35C161.17,131.6,163.84,110.37,172.57,114.68z"/>
		<path class="st22" d="M135.42,352.88c-0.27,1.69-1.32,2.99-1.09,5.17c0.47,4.43,15.8,4.72,24.88,3.5
			c9.85-1.33,12.53-5.75,8.72-6.62c-3.81-0.87-9.23-1.06-10.73-1.55c-1.14,3.01-8.73,2.37-11.6,2.06
			C138.55,354.68,135.42,352.88,135.42,352.88z"/>
		<path class="st6" d="M156.09,61.46l-0.9,0.73l-9.15,14.14c0,0-1.74,17.43-0.87,19.17c0.33,0.67,1.19,1.47,2.3,2.25
			c0.31-4.69,0.28-11.87,2.12-13.66c2.4-2.34,6.98-1.09,10.79-4.04c3.81-2.94,3.62-8.67,3.84-11.64c0.1-1.34,0.17-4.16-1.04-6.72
			C161.01,61.3,158.62,61.15,156.09,61.46z"/>
		<path class="st6" d="M147.78,51.05c10.41,1.04,13.94,3.49,13.94,10.46c0,13.97-7.84,13.07-12.2,19.17s-4.36,22.61-4.36,30.5
			c0,13.94-24.25,23.67-39.22,17.43c-10.46-4.36,10.46-8.72,13.07-16.56c2.61-7.84-1.74-6.97,0.87-17.43
			c2.61-10.46,7.84-10.46,8.72-13.94c0.87-3.49-5.23-9.59-0.87-18.3C132.09,53.67,139.07,50.18,147.78,51.05z"/>
	</g>
	<path class="st31" d="M435.28,221.15c5.57,5.34,3.65,24.09,3.65,24.09L335.65,359.07c-9.12-9.12-23.04-37.12-24.05-53.63
		c-0.28-4.53,2.37-8.73,6.56-10.49c21.05-8.85,27.52-23.53,27.52-38.07c0-11.77-3.49-34.21,1.53-39c5.01-4.79,27.62-5.23,30.18-7.19
		c2.55-1.96,3.1-2.97,3.1-2.97c8.85,5.37,23.67,4.39,29.99,0C420.41,217.8,428.14,214.31,435.28,221.15z"/>
	<g>
		<linearGradient id="SVGID_27_" gradientUnits="userSpaceOnUse" x1="275.1961" y1="205.9162" x2="325.3597" y2="205.9162">
			<stop  offset="0" style="stop-color:#7749DB"/>
			<stop  offset="1" style="stop-color:#AA8DE8"/>
		</linearGradient>
		<rect x="275.2" y="191.71" class="st32" width="50.16" height="28.42"/>
		<rect x="279.9" y="196.42" class="st9" width="16.31" height="1.61"/>
		<rect x="279.9" y="199.37" class="st9" width="16.31" height="1.61"/>
		<rect x="279.9" y="202.31" class="st9" width="11.96" height="1.61"/>
		<rect x="279.9" y="207.6" class="st9" width="16.31" height="1.61"/>
		<rect x="279.9" y="210.54" class="st9" width="11.62" height="1.61"/>
		<rect x="299.25" y="208.76" class="st9" width="3.06" height="7.02"/>
		<rect x="303.62" y="199.7" class="st9" width="3.06" height="16.08"/>
		<rect x="308" y="202.45" class="st9" width="3.06" height="13.33"/>
		<rect x="312.37" y="200.65" class="st9" width="3.06" height="15.12"/>
		<rect x="316.75" y="208.21" class="st9" width="3.06" height="7.56"/>
	</g>
	<linearGradient id="SVGID_28_" gradientUnits="userSpaceOnUse" x1="325.1914" y1="305.2057" x2="461.9245" y2="305.2057">
		<stop  offset="0" style="stop-color:#DCDEFA"/>
		<stop  offset="1" style="stop-color:#F2F3FA"/>
	</linearGradient>
	<path class="st33" d="M404.74,238.57c13.48,0,45.94-1.18,52.33-0.38c3.42,0.43,6.09,6.03,4.27,8.96
		c-10.35,16.64-22.37,34.9-31.07,61.73c-6.75,20.83-10.97,43.52-11.33,53.45c-0.44,11.91-23.97,10.13-58.35,10.02
		c-16.64-0.05-33.58-0.87-35.4-1.37c0-0.51,18.14-65.52,18.14-65.52l19.61-52c0,0,6.32-11.81,8.77-12.06
		C373.34,241.23,398.49,238.57,404.74,238.57z"/>
	<path class="st9" d="M328.94,349.51c6.64-48.28,18.87-80.72,39.42-105.85c4.05-4.96,9.61-1.24,6.1,3.63
		c-15.69,21.79-20.19,29.78-27.74,53.6c-4.57,14.42-12.35,58.39-12.78,63.19c-0.44,4.79-8.14,9.88-12.71,4.79
		c-4.57-5.08-21.42-21.93-25.05-25.57c-3.63-3.63,3.92-15.83,9.15-11.04c5.23,4.79,15.08,16.97,17.41,19.98
		C325.88,356.3,328.03,356.14,328.94,349.51z"/>
</g>
</svg>
