<?xml version="1.0" encoding="utf-8"?>
<!-- Generator: Adobe Illustrator 25.2.1, SVG Export Plug-In . SVG Version: 6.00 Build 0)  -->
<svg version="1.1" id="image" xmlns="http://www.w3.org/2000/svg" width="400" xmlns:xlink="http://www.w3.org/1999/xlink" x="0px" y="0px"
	 viewBox="0 0 766.01 880.49" style="enable-background:new 0 0 766.01 880.49;" xml:space="preserve">
<style type="text/css">
	.st0{fill:#CECEF4;}
	.st1{fill:url(#SVGID_1_);}
	.st2{fill:#FDFDFD;}
	.st3{fill:url(#SVGID_2_);}
	.st4{fill:#FFFFFF;}
	.st5{fill:url(#SVGID_3_);}
	.st6{fill:url(#SVGID_4_);}
	.st7{fill:#E6F0FF;}
	.st8{opacity:0.5;fill:url(#SVGID_5_);}
	.st9{opacity:0.5;fill:url(#SVGID_6_);}
	.st10{fill:url(#SVGID_7_);}
	.st11{fill:url(#SVGID_8_);}
	.st12{opacity:0.3;fill:url(#SVGID_9_);}
	.st13{opacity:0.3;fill:url(#SVGID_10_);}
	.st14{opacity:0.3;fill:url(#SVGID_11_);}
	.st15{opacity:0.3;fill:url(#SVGID_12_);}
	.st16{opacity:0.19;fill:#88BDEB;}
	.st17{fill:url(#SVGID_13_);}
	.st18{fill:url(#SVGID_14_);}
	.st19{fill:#C1C1C1;}
	.st20{fill:#C7E1F8;}
	.st21{fill:url(#SVGID_15_);}
	.st22{fill:url(#SVGID_16_);}
	.st23{fill:url(#SVGID_17_);}
	.st24{fill:url(#SVGID_18_);}
	.st25{fill:#FFC2B0;}
	.st26{fill:#814D4D;}
	.st27{fill:#3D62C4;}
	.st28{fill:url(#SVGID_19_);}
	.st29{fill:url(#SVGID_20_);}
	.st30{fill:url(#SVGID_21_);}
	.st31{fill:url(#SVGID_22_);}
	.st32{fill:url(#SVGID_23_);}
	.st33{fill:url(#SVGID_24_);}
	.st34{fill:url(#SVGID_25_);}
	.st35{fill:url(#SVGID_26_);}
	.st36{opacity:0.5;fill:#D9D9FC;}
	.st37{fill:url(#SVGID_27_);}
	.st38{fill:#A8C4E5;}
	.st39{fill:#283D75;}
	.st40{fill:url(#SVGID_28_);}
	.st41{fill:url(#SVGID_29_);}
	.st42{fill:url(#SVGID_30_);}
	.st43{fill:url(#SVGID_31_);}
	.st44{fill:url(#SVGID_32_);}
	.st45{fill:url(#SVGID_33_);}
	.st46{fill:url(#SVGID_34_);}
	.st47{fill:url(#SVGID_35_);}
	.st48{fill:#450606;}
	.st49{fill:url(#SVGID_36_);}
	.st50{fill:#D18B77;}
	.st51{fill:url(#SVGID_37_);}
	.st52{fill:url(#SVGID_38_);}
	.st53{fill:url(#SVGID_39_);}
	.st54{fill:url(#SVGID_40_);}
	.st55{fill:url(#SVGID_41_);}
	.st56{fill:url(#SVGID_42_);}
	.st57{fill:url(#SVGID_43_);}
	.st58{fill:#D9D9FC;}
	.st59{fill:url(#SVGID_44_);}
	.st60{fill:none;stroke:#D9D9FC;stroke-width:3.1137;stroke-linecap:round;stroke-linejoin:round;stroke-miterlimit:10;}
	.st61{fill:url(#SVGID_45_);}
	.st62{fill:url(#SVGID_46_);}
	.st63{fill:none;stroke:#FFFFFF;stroke-width:8.5044;stroke-linecap:round;stroke-linejoin:round;stroke-miterlimit:10;}
	.st64{clip-path:url(#SVGID_50_);fill:#FFFFFF;}
</style>
<g>
	<path class="st0" d="M423.59,166.48c2.48-29.01-14.88-66.03-38.76-82.68c-10.99-7.66-21.44-9.66-29.77-6.78l0-0.01l-0.09,0.04
		c-1.12,0.39-2.21,0.88-3.25,1.45l-19.54,9.63l10.04,0.01c-2.71,4.75-4.51,10.81-5.13,18.04c-2.48,29.01,14.88,66.03,38.76,82.68
		c4.89,3.41,9.67,5.68,14.21,6.92l2.35,6.23l13.64-6.51c0.76-0.28,1.49-0.61,2.21-0.97l0.24-0.11l-0.01-0.02
		C416.73,190.16,422.39,180.56,423.59,166.48z"/>
	<linearGradient id="SVGID_1_" gradientUnits="userSpaceOnUse" x1="319.007" y1="144.9469" x2="405.9762" y2="144.9469">
		<stop  offset="0" style="stop-color:#8647E1"/>
		<stop  offset="1" style="stop-color:#B78FED"/>
	</linearGradient>
	<path class="st1" d="M405.74,175.1c-2.48,29.01-23.85,39.03-47.73,22.38c-23.89-16.65-41.24-53.67-38.76-82.68
		c2.48-29.01,23.85-39.03,47.73-22.38C390.86,109.07,408.22,146.09,405.74,175.1z"/>
	<g>
		<g>
			<g>
				<path class="st2" d="M363.55,173.84c-14.79-4.95-32.64-38.75-29.46-49.74c0.01-0.03,0.02-0.06,0.02-0.08
					c1.42-4.88,4.67-9.03,9.05-11.6l2.83-1.66c1.06-0.62,2.42-0.62,3.74-0.01c1.17,0.55,2.23,1.54,2.97,2.79l5.27,8.83
					c0.87,1.46,1.3,3.08,1.2,4.57c-0.1,1.64-0.85,2.99-2.04,3.69l-4.3,2.52c-0.04,0.04-0.15,0.36,0.04,0.89
					c1.27,3.6,2.78,6.99,4.48,10.07c1.89,2.97,4.16,5.91,6.73,8.74c0.38,0.42,0.71,0.48,0.77,0.46l4.3-2.52
					c2.35-1.38,5.81,0.07,7.7,3.24l5.27,8.83c1.64,2.74,1.29,5.96-0.77,7.18l-3.34,1.96c-4.22,2.47-9.26,3.21-13.99,1.98
					C363.82,173.92,363.66,173.88,363.55,173.84z"/>
			</g>
		</g>
	</g>
	<path class="st0" d="M423.59,330.89c2.48-29.01-14.88-66.03-38.76-82.68c-10.99-7.66-21.44-9.66-29.77-6.78l0-0.01l-0.09,0.04
		c-1.12,0.39-2.21,0.88-3.25,1.45l-19.54,9.63l10.04,0.01c-2.71,4.75-4.51,10.81-5.13,18.04c-2.48,29.01,14.88,66.03,38.76,82.68
		c4.89,3.41,9.67,5.68,14.21,6.92l2.35,6.23l13.64-6.51c0.76-0.28,1.49-0.61,2.21-0.97l0.24-0.11l-0.01-0.02
		C416.73,354.57,422.39,344.97,423.59,330.89z"/>
	<linearGradient id="SVGID_2_" gradientUnits="userSpaceOnUse" x1="319.007" y1="309.3572" x2="405.9762" y2="309.3572">
		<stop  offset="0" style="stop-color:#8647E1"/>
		<stop  offset="1" style="stop-color:#B78FED"/>
	</linearGradient>
	<path class="st3" d="M405.74,339.51c-2.48,29.01-23.85,39.03-47.73,22.38c-23.89-16.65-41.24-53.67-38.76-82.68
		c2.48-29.01,23.85-39.03,47.73-22.38C390.86,273.48,408.22,310.5,405.74,339.51z"/>
	<g>
		<path class="st0" d="M733.55,652.69L527.23,515.87c-12.9-7.45-23.36-27.44-23.36-44.64l0-450.32c0-17.21,10.46-25.11,23.36-17.66
			l215.41,124.37c12.9,7.45,23.36,27.44,23.36,44.64l0,448.19c0,11.32-4.24,16.04-11.36,20.15L733.55,652.69z"/>
		<path class="st0" d="M614.22,229.66c0,0-110.45,258.32-110.45,241.12L485.63,15.42l27.08-14.3c3.97-1.87,8.98-1.46,14.43,1.68
			l215.41,124.37c6.3,3.64,12.02,10.26,16.22,18.1L614.22,229.66z"/>
		<path class="st4" d="M720.95,651.23L506.06,526.86c-12.9-7.45-22.84-27.44-22.84-44.64V31.9c0-17.2,10.19-25.11,23.09-17.66
			l214.77,124.37c12.9,7.45,22.72,27.44,22.72,44.64v450.32C743.8,650.77,733.85,658.68,720.95,651.23z"/>
		<g>
			<g>
				<linearGradient id="SVGID_3_" gradientUnits="userSpaceOnUse" x1="478.9172" y1="334.3322" x2="739.4901" y2="334.3322">
					<stop  offset="0" style="stop-color:#8647E1"/>
					<stop  offset="1" style="stop-color:#B78FED"/>
				</linearGradient>
				<path class="st5" d="M716.64,652.83L501.75,528.46c-12.9-7.45-22.84-27.44-22.84-44.64V33.5c0-17.2,10.19-25.11,23.09-17.66
					l214.77,124.37c12.9,7.45,22.72,27.44,22.72,44.64v450.32C739.49,652.37,729.54,660.28,716.64,652.83z"/>
			</g>
		</g>
		<linearGradient id="SVGID_4_" gradientUnits="userSpaceOnUse" x1="497.6422" y1="319.1463" x2="721.2425" y2="319.1463">
			<stop  offset="0" style="stop-color:#DCDFFB"/>
			<stop  offset="1" style="stop-color:#F3F3FA"/>
		</linearGradient>
		<path class="st6" d="M710.68,575.87L501.16,454.91c-2.18-1.26-3.52-3.58-3.52-6.1V68.52c0-5.42,5.87-8.81,10.56-6.1l209.52,120.96
			c2.18,1.26,3.52,3.58,3.52,6.1v380.29C721.24,575.19,715.37,578.58,710.68,575.87z"/>
		<path class="st4" d="M645.84,128.55l-66.45-38.36c-2.33-1.35-4.24-4.99-4.24-8.1l0,0c0-3.11,1.91-4.55,4.24-3.2l66.45,38.36
			c2.33,1.35,4.24,4.99,4.24,8.1l0,0C650.08,128.46,648.17,129.9,645.84,128.55z"/>
		<path class="st7" d="M754.12,246.4L754.12,246.4c-3.53,1.5-6.41-0.38-6.41-4.19v-25.64c0-3.8,2.88-8.14,6.41-9.64l0,0
			c3.53-1.5,6.41,0.38,6.41,4.19v25.64C760.53,240.56,757.64,244.9,754.12,246.4z"/>
		<linearGradient id="SVGID_5_" gradientUnits="userSpaceOnUse" x1="750.4598" y1="227.0115" x2="763.2805" y2="227.0115">
			<stop  offset="0" style="stop-color:#8647E1"/>
			<stop  offset="1" style="stop-color:#B78FED"/>
		</linearGradient>
		<path class="st8" d="M756.87,246.75L756.87,246.75c-3.53,1.5-6.41-0.38-6.41-4.19v-25.64c0-3.8,2.88-8.14,6.41-9.64l0,0
			c3.53-1.5,6.41,0.38,6.41,4.19v25.64C763.28,240.91,760.4,245.25,756.87,246.75z"/>
		<path class="st7" d="M754.12,293.08L754.12,293.08c-3.53,1.5-6.41-0.38-6.41-4.19v-25.64c0-3.8,2.88-8.14,6.41-9.64l0,0
			c3.53-1.5,6.41,0.38,6.41,4.19v25.64C760.53,287.24,757.64,291.57,754.12,293.08z"/>
		<linearGradient id="SVGID_6_" gradientUnits="userSpaceOnUse" x1="750.4598" y1="273.6843" x2="763.2805" y2="273.6843">
			<stop  offset="0" style="stop-color:#8647E1"/>
			<stop  offset="1" style="stop-color:#B78FED"/>
		</linearGradient>
		<path class="st9" d="M756.87,293.42L756.87,293.42c-3.53,1.5-6.41-0.38-6.41-4.19v-25.64c0-3.8,2.88-8.14,6.41-9.64l0,0
			c3.53-1.5,6.41,0.38,6.41,4.19v25.64C763.28,287.58,760.4,291.92,756.87,293.42z"/>
		<g>
			<g>
				<path class="st4" d="M623.3,377.57l-96.3-55.6c-5.44-3.14-9.89-11.65-9.89-18.9V196.24c0-7.26,4.45-10.62,9.89-7.48l96.3,55.6
					c5.44,3.14,9.89,11.65,9.89,18.9v106.83C633.2,377.35,628.74,380.71,623.3,377.57z"/>
			</g>
		</g>
		<linearGradient id="SVGID_7_" gradientUnits="userSpaceOnUse" x1="592.0316" y1="206.5404" x2="708.1188" y2="206.5404">
			<stop  offset="0" style="stop-color:#8647E1"/>
			<stop  offset="1" style="stop-color:#B78FED"/>
		</linearGradient>
		<path class="st10" d="M697.97,251.36l-95.78-55.3c-5.58-3.22-10.15-11.95-10.15-19.4v-7.27c0-7.44,4.57-10.9,10.15-7.67
			l95.78,55.3c5.58,3.22,10.15,11.95,10.15,19.4v7.27C708.12,251.13,703.55,254.59,697.97,251.36z"/>
		<linearGradient id="SVGID_8_" gradientUnits="userSpaceOnUse" x1="592.0316" y1="489.2052" x2="708.1188" y2="489.2052">
			<stop  offset="0" style="stop-color:#8647E1"/>
			<stop  offset="1" style="stop-color:#B78FED"/>
		</linearGradient>
		<path class="st11" d="M697.97,534.03l-95.78-55.3c-5.58-3.22-10.15-11.95-10.15-19.4v-7.27c0-7.44,4.57-10.9,10.15-7.67
			l95.78,55.3c5.58,3.22,10.15,11.95,10.15,19.4v7.27C708.12,533.8,703.55,537.25,697.97,534.03z"/>
		<g>
			<g>
				<path class="st2" d="M623.04,431.36l-95.78-55.3c-5.58-3.22-10.15-11.95-10.15-19.4v-7.27c0-7.44,4.57-10.9,10.15-7.67
					l95.78,55.3c5.58,3.22,10.15,11.95,10.15,19.4v7.27C633.2,431.13,628.63,434.58,623.04,431.36z"/>
			</g>
		</g>
		<linearGradient id="SVGID_9_" gradientUnits="userSpaceOnUse" x1="528.8939" y1="255.8381" x2="621.4107" y2="255.8381">
			<stop  offset="0" style="stop-color:#8647E1"/>
			<stop  offset="1" style="stop-color:#B78FED"/>
		</linearGradient>
		<path class="st12" d="M618.15,285.01l-85.99-49.64c-1.8-1.04-3.27-3.84-3.27-6.24l0,0c0-2.39,1.47-3.51,3.27-2.47l85.99,49.64
			c1.8,1.04,3.27,3.84,3.27,6.24l0,0C621.41,284.94,619.94,286.05,618.15,285.01z"/>
		<linearGradient id="SVGID_10_" gradientUnits="userSpaceOnUse" x1="528.8939" y1="385.2669" x2="621.4106" y2="385.2669">
			<stop  offset="0" style="stop-color:#8647E1"/>
			<stop  offset="1" style="stop-color:#B78FED"/>
		</linearGradient>
		<path class="st13" d="M618.15,414.44l-85.99-49.64c-1.8-1.04-3.27-3.84-3.27-6.24l0,0c0-2.39,1.47-3.51,3.27-2.47l85.99,49.64
			c1.8,1.04,3.27,3.84,3.27,6.24l0,0C621.41,414.37,619.94,415.48,618.15,414.44z"/>
		<g>
			<g>
				<path class="st2" d="M693.07,234.83l-85.99-49.64c-1.8-1.04-3.27-3.84-3.27-6.24l0,0c0-2.39,1.47-3.51,3.27-2.47l85.99,49.64
					c1.8,1.04,3.27,3.84,3.27,6.24v0C696.33,234.76,694.86,235.87,693.07,234.83z"/>
			</g>
		</g>
		<linearGradient id="SVGID_11_" gradientUnits="userSpaceOnUse" x1="528.8939" y1="285.1984" x2="621.4107" y2="285.1984">
			<stop  offset="0" style="stop-color:#8647E1"/>
			<stop  offset="1" style="stop-color:#B78FED"/>
		</linearGradient>
		<path class="st14" d="M618.15,314.37l-85.99-49.64c-1.8-1.04-3.27-3.84-3.27-6.24l0,0c0-2.39,1.47-3.51,3.27-2.47l85.99,49.64
			c1.8,1.04,3.27,3.84,3.27,6.24l0,0C621.41,314.3,619.94,315.41,618.15,314.37z"/>
		<linearGradient id="SVGID_12_" gradientUnits="userSpaceOnUse" x1="528.8939" y1="305.0559" x2="588.4922" y2="305.0559">
			<stop  offset="0" style="stop-color:#8647E1"/>
			<stop  offset="1" style="stop-color:#B78FED"/>
		</linearGradient>
		<path class="st15" d="M585.23,324.73l-53.07-30.64c-1.8-1.04-3.27-3.84-3.27-6.24l0,0c0-2.39,1.47-3.51,3.27-2.47l53.07,30.64
			c1.8,1.04,3.27,3.84,3.27,6.24l0,0C588.49,324.65,587.02,325.77,585.23,324.73z"/>
		<g>
			<g>
				<path class="st2" d="M629.79,483.63l-25.31-14.61c-1.8-1.04-3.27-3.84-3.27-6.24l0,0c0-2.39,1.47-3.51,3.27-2.47l25.31,14.61
					c1.8,1.04,3.27,3.84,3.27,6.24l0,0C633.06,483.55,631.59,484.67,629.79,483.63z"/>
			</g>
		</g>
		<g>
			<g>
				<path class="st2" d="M695.66,521.66l-53.07-30.64c-1.8-1.04-3.27-3.84-3.27-6.24v0c0-2.39,1.47-3.51,3.27-2.47l53.07,30.64
					c1.8,1.04,3.27,3.84,3.27,6.24l0,0C698.93,521.59,697.46,522.7,695.66,521.66z"/>
			</g>
		</g>
	</g>
	<g>
		<ellipse class="st16" cx="677.76" cy="771.9" rx="39.99" ry="18.34"/>
		<g>
			<linearGradient id="SVGID_13_" gradientUnits="userSpaceOnUse" x1="625.718" y1="769.5504" x2="690.0184" y2="769.5504">
				<stop  offset="0" style="stop-color:#6D6E71"/>
				<stop  offset="1" style="stop-color:#9FA1A4"/>
			</linearGradient>
			<path class="st17" d="M680.67,782.72c-12.52,7.23-32.87,7.19-45.47-0.08c-12.59-7.27-12.66-19.02-0.14-26.25
				c12.52-7.23,32.87-7.19,45.47,0.08C693.13,763.74,693.19,775.49,680.67,782.72z"/>
			<linearGradient id="SVGID_14_" gradientUnits="userSpaceOnUse" x1="610.6917" y1="748.1873" x2="704.3879" y2="748.1873">
				<stop  offset="0" style="stop-color:#6D6E71"/>
				<stop  offset="1" style="stop-color:#9FA1A4"/>
			</linearGradient>
			<polygon class="st18" points="610.69,724.47 625.82,770.85 689.79,771.9 704.39,727.2 			"/>
			<path class="st19" d="M684.52,726.31l-14.6,44.53h-0.01c-2.02,6.81-3.86,8.33-9.1,11.36c-3.79,2.19-8.32,4.08-13.12,4.91
				c10.8,1.82,22.83-0.22,31.29-5.11c5.25-3.03,8.28-4.57,9.1-11.16h0.01l14.6-44.53H684.52z"/>
			
				<ellipse transform="matrix(5.422296e-03 -1 1 5.422296e-03 -68.7965 1377.0457)" class="st4" cx="657.87" cy="723.11" rx="27.42" ry="47.5"/>
			
				<ellipse transform="matrix(5.422322e-03 -1 1 5.422322e-03 -65.4738 1373.7408)" class="st20" cx="657.87" cy="719.79" rx="27.42" ry="47.5"/>
			<linearGradient id="SVGID_15_" gradientUnits="userSpaceOnUse" x1="616.7714" y1="720.6366" x2="698.3082" y2="720.6366">
				<stop  offset="0" style="stop-color:#8647E1"/>
				<stop  offset="1" style="stop-color:#B78FED"/>
			</linearGradient>
			<path class="st21" d="M686.46,737.33c-15.87,9.16-41.68,9.12-57.65-0.1c-15.97-9.22-16.05-24.12-0.18-33.29
				c15.87-9.16,41.68-9.12,57.65,0.1C702.25,713.27,702.33,728.17,686.46,737.33z"/>
		</g>
		<g>
			<linearGradient id="SVGID_16_" gradientUnits="userSpaceOnUse" x1="636.5541" y1="623.0212" x2="667.3104" y2="623.0212">
				<stop  offset="0" style="stop-color:#DCDFFB"/>
				<stop  offset="1" style="stop-color:#F3F3FA"/>
			</linearGradient>
			<path class="st22" d="M650.08,674.27c4.25-36.75-13.52-102.5-13.52-102.5c36.63,20.64,30.35,60.07,30.35,60.07L650.08,674.27z"/>
			<linearGradient id="SVGID_17_" gradientUnits="userSpaceOnUse" x1="651.5487" y1="658.1622" x2="694.5119" y2="658.1622">
				<stop  offset="0" style="stop-color:#DCDFFB"/>
				<stop  offset="1" style="stop-color:#F3F3FA"/>
			</linearGradient>
			<path class="st23" d="M659.2,706.77c4.04-36.77,35.32-97.22,35.32-97.22c-40.31,11.96-42.96,51.8-42.96,51.8L659.2,706.77z"/>
			<linearGradient id="SVGID_18_" gradientUnits="userSpaceOnUse" x1="609.2036" y1="665.4941" x2="711.839" y2="665.4941">
				<stop  offset="0" style="stop-color:#DCDFFB"/>
				<stop  offset="1" style="stop-color:#F3F3FA"/>
			</linearGradient>
			<path class="st24" d="M711.84,629.92c-33.65,7.6-53.98,66.48-53.98,66.48l-0.01,0.12c-1.24-75.04-48.65-94.94-48.65-94.94
				c14.16,20.6,27.49,90.78,31.52,113.46c1.51,8.52,9.07,14.76,17.71,14.34c0.48-0.02,0.96-0.06,1.45-0.11
				c7.4-0.81,13.23-6.59,14.67-13.89C680.77,683.97,711.84,629.92,711.84,629.92z"/>
		</g>
	</g>
	<g>
		<g>
			<g>
				<path class="st25" d="M158.52,657.98c10.24-7.7,20.99-15.33,32.84-20.36c-1.03,0.44-2.06,0.87-3.1,1.31
					c3.5-1.47,7.15-2.71,10.92-3.23c-1.15,0.15-2.3,0.31-3.45,0.46c1.83-0.24,3.68-0.31,5.51-0.08c-1.15-0.15-2.3-0.31-3.45-0.46
					c1.26,0.17,2.48,0.48,3.66,0.97c-1.03-0.44-2.06-0.87-3.1-1.31c0.98,0.42,1.89,0.95,2.73,1.6c-0.87-0.68-1.75-1.35-2.62-2.03
					c0.9,0.71,1.7,1.53,2.41,2.43c-0.68-0.87-1.35-1.75-2.03-2.62c0.96,1.26,1.73,2.66,2.35,4.12c-0.44-1.03-0.87-2.06-1.31-3.1
					c1.25,2.98,1.93,6.17,2.36,9.37c-0.15-1.15-0.31-2.3-0.46-3.45c1.26,9.56,0.57,19.35-0.22,28.91
					c-0.92,11.11-2.27,22.19-3.19,33.3c-0.49,5.9-0.86,11.82-0.89,17.75c-0.02,3.31,1.46,6.83,3.8,9.17
					c2.25,2.25,5.94,3.94,9.17,3.8c3.35-0.15,6.83-1.25,9.17-3.8c2.34-2.55,3.78-5.65,3.8-9.17c0.07-11.41,1.3-22.78,2.46-34.12
					c1.14-11.15,2.4-22.33,2.49-33.55c0.05-5.72-0.4-11.36-1.29-17.01c-0.73-4.65-2.22-9.29-4.55-13.39
					c-1.28-2.25-2.9-4.42-4.79-6.2c-1.85-1.74-3.95-3.36-6.28-4.41c-3.83-1.73-6.79-2.49-11.04-2.83c-3.03-0.24-6.18,0.28-9.14,0.79
					c-6.42,1.11-12.63,3.97-18.38,6.9c-7.46,3.8-14.49,8.45-21.29,13.31c-2.07,1.48-4.12,2.99-6.16,4.53
					c-1.51,0.81-2.72,1.93-3.64,3.34c-1.15,1.25-1.92,2.72-2.32,4.41c-0.85,3.1-0.47,7.24,1.31,9.99c1.78,2.77,4.44,5.2,7.75,5.96
					C151.7,660.01,155.79,660.03,158.52,657.98L158.52,657.98z"/>
			</g>
		</g>
		<g>
			<g>
				<g>
					<path class="st26" d="M205.48,737.02l4.48,13.74c1.54,2.31,6.64,6.22,9.16,5.07c10.47-4.75,38.52-14.88,33.77-27.23
						c-5.98-15.54-45.6,2.78-45.6,2.78L205.48,737.02z"/>
				</g>
			</g>
			<path class="st25" d="M215.71,723.27c0,0,15.79-2.13,23.1,3.19c2.87,2.09,0.22,5.32-4.97,7.77c-10.22,4.82-22.01,3.43-27.65-4.42
				l-3.64-2.18L215.71,723.27z"/>
			<g>
				<g>
					<path class="st26" d="M191.98,725.8l3.81,32.47c0.12,1.05,0.68,1.99,1.53,2.61l0,0c2.42,1.76,5.83,0.14,5.99-2.85l1.43-27.04
						c0.06-1.05-0.33-2.07-1.05-2.82l-5.25-5.43C195.93,720.14,191.56,722.22,191.98,725.8z"/>
				</g>
			</g>
			<g>
				<g>
					<path class="st26" d="M195.73,717.82c0,0-9.49,6.88-0.94,27.07c0.12,0.27,0.17,1.07,0.36,0.82c8.38-11.13,14.82,0,14.82,0
						l23.59-10.01c0,0-15.5,3.95-28.07-9.06C202.14,723.19,195.73,717.82,195.73,717.82z"/>
				</g>
			</g>
		</g>
		<g>
			<g>
				<path class="st26" d="M238.22,755.73l4.48,13.74c1.54,2.31,6.64,6.21,9.16,5.07c10.47-4.75,38.52-14.88,33.77-27.23
					c-5.98-15.54-45.6,2.78-45.6,2.78L238.22,755.73z"/>
			</g>
		</g>
		<path class="st25" d="M248.46,741.98c0,0,15.79-2.13,23.1,3.19c2.87,2.09,0.22,5.32-4.97,7.77c-10.22,4.82-22.01,3.43-27.65-4.42
			l-3.64-2.18L248.46,741.98z"/>
		<g>
			<g>
				<path class="st25" d="M162.82,664.65c11.86-0.82,23.67-2.73,35.25-5.45c8.38-1.97,16.63-4.43,24.95-6.62
					c3.48-0.91,6.98-1.78,10.54-2.28c-1.15,0.15-2.3,0.31-3.45,0.46c2-0.27,4.03-0.42,6.05-0.17c-1.15-0.15-2.3-0.31-3.45-0.46
					c0.9,0.12,1.78,0.33,2.62,0.67c-1.03-0.44-2.06-0.87-3.1-1.31c0.56,0.24,1.09,0.54,1.57,0.91c-0.87-0.68-1.75-1.35-2.62-2.03
					c0.44,0.35,0.84,0.75,1.18,1.19c-0.68-0.87-1.35-1.75-2.03-2.62c0.39,0.52,0.71,1.09,0.97,1.69c-0.44-1.03-0.87-2.06-1.31-3.1
					c0.43,1.02,0.67,2.1,0.83,3.2c-0.15-1.15-0.31-2.3-0.46-3.45c0.72,5.58,0.75,11.31,0.79,16.93c0.04,6.54-0.13,13.09-0.39,19.62
					c-0.53,13.57-1.43,27.13-1.95,40.71c-0.28,7.16-0.45,14.32-0.33,21.48c0.06,3.36,1.41,6.78,3.8,9.17
					c2.25,2.25,5.94,3.94,9.17,3.8c3.35-0.15,6.83-1.25,9.17-3.8c2.31-2.51,3.86-5.68,3.8-9.17c-0.24-14.43,0.63-28.86,1.38-43.26
					c0.75-14.4,1.58-28.84,1.22-43.26c-0.08-3.15-0.22-6.3-0.46-9.44c-0.23-2.94-0.34-6.05-1.33-8.86c-1.17-3.3-2.58-6.1-5.08-8.61
					c-2.44-2.45-5.2-3.87-8.43-4.99c-0.61-0.21-1.25-0.35-1.89-0.45c-1.79-0.29-3.62-0.59-5.44-0.62c-2.75-0.05-5.54,0.43-8.23,0.83
					c-4.41,0.65-8.74,1.84-13.03,3.01c-12.19,3.32-24.34,6.75-36.83,8.82c-1.86,0.31-3.73,0.59-5.6,0.84
					c1.15-0.15,2.3-0.31,3.45-0.46c-3.76,0.5-7.54,0.89-11.33,1.15c-3.46,0.24-6.65,1.28-9.17,3.8c-2.25,2.25-3.94,5.94-3.8,9.17
					c0.15,3.35,1.25,6.83,3.8,9.17C156.08,663.09,159.4,664.88,162.82,664.65L162.82,664.65z"/>
			</g>
		</g>
		<g>
			<g>
				<path class="st26" d="M224.73,744.52l3.81,32.47c0.12,1.05,0.68,1.99,1.53,2.61l0,0c2.42,1.76,5.83,0.13,5.99-2.85l1.43-27.04
					c0.06-1.05-0.33-2.07-1.05-2.82l-5.25-5.43C228.68,738.86,224.3,740.93,224.73,744.52z"/>
			</g>
		</g>
		<g>
			<g>
				<path class="st26" d="M228.48,736.53c0,0-9.49,6.88-0.94,27.07c0.12,0.27,0.17,1.07,0.36,0.82c8.38-11.13,14.82,0,14.82,0
					l23.59-10.01c0,0-15.5,3.95-28.07-9.06C234.89,741.9,228.48,736.53,228.48,736.53z"/>
			</g>
		</g>
	</g>
	<path class="st27" d="M149.48,718.74L42.72,657.1c-9.89-5.71-5.89-18.24,8.9-27.85l38.38-24.92c14.79-9.6,34.98-12.78,44.88-7.07
		l106.77,61.64c9.89,5.71,5.89,18.24-8.9,27.85l-38.38,24.92C179.57,721.27,159.38,724.45,149.48,718.74z"/>
	<g>
		<linearGradient id="SVGID_19_" gradientUnits="userSpaceOnUse" x1="107.6516" y1="655.6935" x2="239.7504" y2="655.6935">
			<stop  offset="0" style="stop-color:#5C5E60"/>
			<stop  offset="1" style="stop-color:#9FA1A4"/>
		</linearGradient>
		<path class="st28" d="M168.08,689.62L239.75,658c0,0-18.35-59.54-57.77-46.1c-44.51,15.17-74.33,29.18-74.33,29.18l0.39,18.05
			C103.16,717.08,145.55,702.94,168.08,689.62z"/>
	</g>
	<g>
		<g>
			<linearGradient id="SVGID_20_" gradientUnits="userSpaceOnUse" x1="539.382" y1="662.4065" x2="570.1632" y2="662.4065">
				<stop  offset="0" style="stop-color:#5C5E60"/>
				<stop  offset="1" style="stop-color:#9FA1A4"/>
			</linearGradient>
			<path class="st29" d="M564.85,744.45l0.92-0.12c2.76-0.35,4.71-2.88,4.35-5.64l-19.79-153.99c-0.35-2.76-2.88-4.71-5.64-4.35
				l-0.92,0.12c-2.76,0.35-4.71,2.88-4.35,5.64l19.79,153.99C559.57,742.86,562.09,744.81,564.85,744.45z"/>
		</g>
	</g>
	<g>
		<g>
			<linearGradient id="SVGID_21_" gradientUnits="userSpaceOnUse" x1="348.2082" y1="739.0984" x2="380.4978" y2="739.0984">
				<stop  offset="0" style="stop-color:#5C5E60"/>
				<stop  offset="1" style="stop-color:#9FA1A4"/>
			</linearGradient>
			<path class="st30" d="M353.19,868.74L353.19,868.74c-3-0.26-5.22-2.9-4.96-5.89l21.4-248.42c0.26-3,2.9-5.22,5.89-4.96l0,0
				c3,0.26,5.22,2.9,4.96,5.89l-21.4,248.42C358.82,866.77,356.18,868.99,353.19,868.74z"/>
		</g>
	</g>
	<g>
		<g>
			<linearGradient id="SVGID_22_" gradientUnits="userSpaceOnUse" x1="12.9648" y1="571.4338" x2="39.5855" y2="571.4338">
				<stop  offset="0" style="stop-color:#5C5E60"/>
				<stop  offset="1" style="stop-color:#9FA1A4"/>
			</linearGradient>
			<path class="st31" d="M18.76,667.51l-1.51-0.13c-2.58-0.22-4.49-2.49-4.27-5.08l15.73-182.67c0.22-2.58,2.49-4.49,5.08-4.27
				l1.51,0.13c2.58,0.22,4.49,2.49,4.27,5.08L23.83,663.23C23.61,665.82,21.34,667.73,18.76,667.51z"/>
		</g>
	</g>
	<g>
		<linearGradient id="SVGID_23_" gradientUnits="userSpaceOnUse" x1="16.3592" y1="485.032" x2="45.2416" y2="485.032">
			<stop  offset="0" style="stop-color:#DCDFFB"/>
			<stop  offset="1" style="stop-color:#F3F3FA"/>
		</linearGradient>
		<rect x="16.36" y="476.64" class="st32" width="28.88" height="16.77"/>
		<linearGradient id="SVGID_24_" gradientUnits="userSpaceOnUse" x1="541.4905" y1="592.2821" x2="570.3729" y2="592.2821">
			<stop  offset="0" style="stop-color:#DCDFFB"/>
			<stop  offset="1" style="stop-color:#F3F3FA"/>
		</linearGradient>
		<rect x="541.49" y="583.9" class="st33" width="28.88" height="16.77"/>
		<linearGradient id="SVGID_25_" gradientUnits="userSpaceOnUse" x1="16.2678" y1="547.2685" x2="570.3729" y2="547.2685">
			<stop  offset="0" style="stop-color:#DCDFFB"/>
			<stop  offset="1" style="stop-color:#F3F3FA"/>
		</linearGradient>
		<path class="st34" d="M376.76,705.05L20.04,499.09c-5.59-3.23-4.89-8.87,1.57-12.6l166.45-96.1c6.46-3.73,16.22-4.13,21.82-0.9
			L566.6,595.44c5.59,3.23,4.89,8.87-1.57,12.6l-166.45,96.1C392.12,707.87,382.35,708.27,376.76,705.05z"/>
		<path class="st4" d="M376.76,688.96L20.04,483c-5.59-3.23-4.89-8.87,1.57-12.6l166.45-96.1c6.46-3.73,16.22-4.13,21.82-0.9
			L566.6,579.35c5.59,3.23,4.89,8.87-1.57,12.6l-166.45,96.1C392.12,691.78,382.35,692.18,376.76,688.96z"/>
	</g>
	<linearGradient id="SVGID_26_" gradientUnits="userSpaceOnUse" x1="191.1165" y1="504.3807" x2="389.1312" y2="504.3807">
		<stop  offset="0" style="stop-color:#DCDFFB"/>
		<stop  offset="1" style="stop-color:#F3F3FA"/>
	</linearGradient>
	<path class="st35" d="M387.78,531.59l-147.75-85.3c-0.85-0.49-1.89-0.48-2.73,0.01l-44.85,26.47c-1.78,1.05-1.77,3.64,0.02,4.68
		l147.25,85.01c0.84,0.48,1.87,0.48,2.71,0l45.35-26.18C389.58,535.24,389.58,532.64,387.78,531.59z"/>
	<g>
		<path class="st4" d="M340.12,556.73l-147.25-85.01c-1.79-1.04-1.81-3.62-0.02-4.68l44.85-26.47c0.84-0.5,1.88-0.5,2.73-0.01
			l147.75,85.3c1.8,1.04,1.8,3.65,0,4.69l-45.35,26.18C341.99,557.22,340.96,557.22,340.12,556.73z"/>
		<path class="st36" d="M245.01,453.8c-0.24,0.14-0.72,0.08-1.08-0.13l-9.93-5.73c-0.36-0.21-0.46-0.49-0.22-0.62l6.58-3.8
			c0.24-0.14,0.72-0.08,1.08,0.13l9.93,5.73c0.36,0.21,0.46,0.49,0.22,0.62L245.01,453.8z"/>
		<path class="st36" d="M256.53,470.92c-0.24,0.14-0.72,0.08-1.08-0.13l-9.93-5.73c-0.36-0.21-0.45-0.48-0.21-0.62l6.58-3.8
			c0.23-0.13,0.72-0.08,1.07,0.13l9.93,5.73c0.36,0.21,0.46,0.49,0.22,0.62L256.53,470.92z"/>
		<path class="st36" d="M250.7,478.02c-0.24,0.14-0.72,0.08-1.08-0.13l-9.94-5.73c-0.35-0.2-0.46-0.48-0.22-0.62l6.58-3.8
			c0.23-0.13,0.72-0.08,1.08,0.13l9.94,5.73c0.36,0.21,0.45,0.49,0.22,0.62L250.7,478.02z"/>
		<path class="st36" d="M234.94,479.39c-0.24,0.14-0.72,0.08-1.08-0.12l-9.93-5.73c-0.35-0.2-0.45-0.49-0.22-0.62l6.58-3.8
			c0.24-0.14,0.72-0.08,1.08,0.12l9.93,5.73c0.36,0.21,0.45,0.49,0.21,0.62L234.94,479.39z"/>
		<path class="st36" d="M224.73,485.29c-0.24,0.14-0.81,0.03-1.28-0.24l-13.01-7.51c-0.47-0.27-0.66-0.6-0.42-0.74l7.73-4.46
			c0.23-0.13,0.81-0.03,1.28,0.24l13.01,7.51c0.47,0.27,0.66,0.61,0.42,0.74L224.73,485.29z"/>
		<path class="st36" d="M310.23,534.7c-0.2,0.11-0.65,0.04-1.01-0.17l-9.93-5.73c-0.36-0.21-0.5-0.47-0.3-0.59l2.86-1.65
			c0.2-0.11,0.65-0.04,1.01,0.17l9.93,5.73c0.36,0.21,0.49,0.47,0.29,0.58L310.23,534.7z"/>
		<path class="st36" d="M323.51,542.56c-0.2,0.11-0.65,0.04-1.01-0.17l-9.93-5.73c-0.36-0.21-0.5-0.47-0.3-0.59l2.86-1.65
			c0.2-0.11,0.65-0.04,1.01,0.17l9.93,5.73c0.36,0.21,0.49,0.47,0.29,0.58L323.51,542.56z"/>
		<path class="st36" d="M337.58,550.5c-0.19,0.11-0.64,0.03-1-0.18l-9.93-5.73c-0.36-0.21-0.5-0.47-0.31-0.58l2.75-1.59
			c0.19-0.11,0.64-0.03,1,0.18l9.93,5.73c0.36,0.21,0.49,0.47,0.31,0.57L337.58,550.5z"/>
		<path class="st36" d="M328.92,539.53c-0.19,0.11-0.64,0.03-1-0.18l-9.93-5.73c-0.36-0.21-0.5-0.47-0.31-0.58l2.75-1.59
			c0.19-0.11,0.64-0.03,1,0.18l9.93,5.73c0.36,0.21,0.49,0.47,0.31,0.57L328.92,539.53z"/>
		<path class="st36" d="M293.06,524.72c-0.24,0.14-0.73,0.08-1.08-0.13l-64.64-37.3c-0.35-0.2-0.46-0.49-0.22-0.62l7.73-4.46
			c0.23-0.13,0.73-0.08,1.08,0.13l64.64,37.3c0.36,0.21,0.46,0.49,0.22,0.63L293.06,524.72z"/>
		<path class="st36" d="M286.44,519.06c-0.01,0.01-0.26-0.12-0.55-0.29l-51.45-29.69c-0.28-0.16-0.51-0.31-0.49-0.31l0.48-0.28
			c0.01-0.01,0.26,0.12,0.54,0.28l51.45,29.69c0.29,0.16,0.51,0.31,0.49,0.32L286.44,519.06z"/>
		<path class="st36" d="M248.56,487.25c-0.24,0.14-0.72,0.08-1.08-0.13l-9.93-5.73c-0.35-0.2-0.46-0.49-0.22-0.62l6.58-3.8
			c0.24-0.14,0.73-0.08,1.08,0.13l9.93,5.73c0.36,0.21,0.46,0.49,0.22,0.62L248.56,487.25z"/>
		<path class="st36" d="M262.24,495.14c-0.24,0.14-0.72,0.08-1.08-0.12l-9.93-5.73c-0.36-0.21-0.46-0.49-0.22-0.62l6.58-3.8
			c0.24-0.14,0.73-0.08,1.08,0.13l9.93,5.73c0.35,0.2,0.45,0.49,0.21,0.62L262.24,495.14z"/>
		<path class="st36" d="M275.91,503.03c-0.24,0.14-0.72,0.08-1.08-0.12l-9.93-5.73c-0.35-0.2-0.45-0.49-0.22-0.62l6.58-3.8
			c0.24-0.14,0.72-0.08,1.08,0.12l9.93,5.73c0.35,0.2,0.45,0.49,0.21,0.62L275.91,503.03z"/>
		<path class="st36" d="M289.59,510.93c-0.24,0.14-0.72,0.08-1.08-0.13l-9.93-5.73c-0.36-0.21-0.46-0.49-0.22-0.62l6.58-3.8
			c0.24-0.14,0.72-0.08,1.08,0.13l9.93,5.73c0.36,0.21,0.45,0.49,0.22,0.62L289.59,510.93z"/>
		<path class="st36" d="M303.27,518.82c-0.24,0.14-0.72,0.08-1.08-0.13l-9.93-5.73c-0.35-0.2-0.45-0.49-0.22-0.62l6.58-3.8
			c0.24-0.14,0.72-0.08,1.08,0.12l9.93,5.73c0.36,0.21,0.46,0.49,0.22,0.63L303.27,518.82z"/>
		<path class="st36" d="M316.95,526.71c-0.24,0.14-0.72,0.08-1.08-0.13l-9.93-5.73c-0.36-0.21-0.46-0.49-0.22-0.62l6.58-3.8
			c0.24-0.14,0.72-0.08,1.08,0.13l9.93,5.73c0.36,0.21,0.45,0.49,0.22,0.62L316.95,526.71z"/>
		<path class="st36" d="M347.76,544.49c-0.24,0.14-0.72,0.08-1.08-0.13l-27.06-15.62c-0.36-0.21-0.45-0.49-0.22-0.62l6.58-3.8
			c0.24-0.14,0.72-0.08,1.08,0.13l27.06,15.62c0.36,0.21,0.45,0.49,0.22,0.62L347.76,544.49z"/>
		<path class="st36" d="M264.32,485.87c-0.24,0.14-0.71,0.08-1.07-0.12l-9.94-5.73c-0.36-0.21-0.46-0.48-0.22-0.62l6.58-3.8
			c0.23-0.13,0.72-0.08,1.07,0.13l9.94,5.73c0.36,0.21,0.45,0.48,0.22,0.62L264.32,485.87z"/>
		<path class="st36" d="M278,493.77c-0.24,0.14-0.72,0.08-1.08-0.13l-9.94-5.74c-0.35-0.2-0.45-0.48-0.22-0.62l6.58-3.8
			c0.23-0.13,0.72-0.08,1.07,0.12l9.94,5.74c0.35,0.2,0.45,0.49,0.22,0.62L278,493.77z"/>
		<path class="st36" d="M291.68,501.66c-0.24,0.14-0.72,0.08-1.08-0.13l-9.93-5.73c-0.35-0.2-0.46-0.49-0.22-0.62l6.58-3.8
			c0.23-0.13,0.73-0.07,1.08,0.13l9.93,5.73c0.35,0.2,0.46,0.49,0.22,0.62L291.68,501.66z"/>
		<path class="st36" d="M305.35,509.55c-0.24,0.14-0.72,0.08-1.08-0.13l-9.93-5.73c-0.36-0.21-0.46-0.48-0.22-0.62l6.58-3.8
			c0.23-0.13,0.72-0.08,1.08,0.13l9.93,5.73c0.36,0.21,0.45,0.49,0.22,0.62L305.35,509.55z"/>
		<path class="st36" d="M319.04,517.44c-0.24,0.14-0.72,0.08-1.08-0.13l-9.94-5.73c-0.36-0.21-0.46-0.48-0.22-0.62l6.58-3.8
			c0.23-0.13,0.72-0.08,1.07,0.13l9.94,5.73c0.35,0.2,0.45,0.49,0.22,0.62L319.04,517.44z"/>
		<path class="st36" d="M332.71,525.33c-0.24,0.14-0.72,0.08-1.07-0.13l-9.93-5.73c-0.36-0.21-0.46-0.49-0.22-0.62l6.58-3.8
			c0.23-0.13,0.72-0.08,1.08,0.13l9.93,5.73c0.36,0.21,0.45,0.48,0.22,0.62L332.71,525.33z"/>
		<path class="st36" d="M346.39,533.23c-0.24,0.14-0.72,0.08-1.07-0.13l-9.94-5.73c-0.35-0.2-0.45-0.48-0.21-0.62l6.58-3.8
			c0.23-0.13,0.72-0.08,1.07,0.12l9.94,5.73c0.35,0.2,0.45,0.49,0.22,0.62L346.39,533.23z"/>
		<path class="st36" d="M270.15,478.77c-0.24,0.14-0.72,0.08-1.08-0.12l-9.93-5.73c-0.35-0.2-0.45-0.48-0.21-0.62l6.58-3.8
			c0.23-0.13,0.72-0.08,1.07,0.12l9.93,5.73c0.36,0.21,0.45,0.49,0.22,0.62L270.15,478.77z"/>
		<path class="st36" d="M283.82,486.66c-0.24,0.14-0.73,0.08-1.08-0.12l-9.93-5.73c-0.36-0.21-0.46-0.49-0.22-0.62l6.58-3.8
			c0.23-0.13,0.72-0.08,1.08,0.13l9.93,5.73c0.35,0.2,0.45,0.48,0.22,0.62L283.82,486.66z"/>
		<path class="st36" d="M297.5,494.55c-0.24,0.14-0.72,0.08-1.08-0.13l-9.93-5.73c-0.35-0.2-0.45-0.48-0.21-0.62l6.58-3.8
			c0.23-0.13,0.72-0.08,1.07,0.13l9.93,5.73c0.36,0.21,0.46,0.49,0.22,0.62L297.5,494.55z"/>
		<path class="st36" d="M311.17,502.45c-0.24,0.14-0.72,0.08-1.08-0.12l-9.93-5.73c-0.36-0.21-0.46-0.49-0.22-0.62l6.58-3.8
			c0.23-0.13,0.72-0.08,1.08,0.13l9.93,5.73c0.36,0.21,0.45,0.48,0.22,0.62L311.17,502.45z"/>
		<path class="st36" d="M324.86,510.33c-0.24,0.14-0.72,0.08-1.08-0.12l-9.93-5.73c-0.36-0.21-0.45-0.49-0.21-0.62l6.58-3.8
			c0.23-0.13,0.72-0.08,1.08,0.13l9.93,5.73c0.35,0.2,0.45,0.48,0.22,0.62L324.86,510.33z"/>
		<path class="st36" d="M338.54,518.23c-0.24,0.14-0.72,0.08-1.09-0.13l-9.93-5.73c-0.35-0.2-0.45-0.48-0.21-0.62l6.58-3.8
			c0.23-0.13,0.72-0.08,1.07,0.13l9.93,5.73c0.36,0.21,0.46,0.49,0.22,0.62L338.54,518.23z"/>
		<path class="st36" d="M352.21,526.12c-0.24,0.14-0.72,0.08-1.08-0.12l-9.93-5.73c-0.36-0.21-0.45-0.49-0.21-0.62l6.58-3.8
			c0.23-0.14,0.72-0.08,1.08,0.13l9.93,5.73c0.35,0.2,0.45,0.48,0.22,0.62L352.21,526.12z"/>
		<path class="st36" d="M242.85,463.02c-0.24,0.14-0.72,0.08-1.08-0.12l-16.84-9.72c-0.36-0.21-0.46-0.49-0.22-0.63l6.58-3.8
			c0.23-0.13,0.72-0.08,1.08,0.13l16.84,9.72c0.36,0.21,0.46,0.49,0.22,0.62L242.85,463.02z"/>
		<path class="st36" d="M374.95,528.78c-0.24,0.14-0.72,0.08-1.08-0.13l-16.84-9.72c-0.35-0.2-0.45-0.49-0.22-0.62l6.58-3.8
			c0.24-0.14,0.73-0.08,1.08,0.12l16.84,9.72c0.36,0.21,0.46,0.49,0.22,0.62L374.95,528.78z"/>
		<path class="st36" d="M237.02,470.13c-0.24,0.14-0.72,0.08-1.08-0.13l-20.08-11.59c-0.36-0.21-0.46-0.48-0.22-0.62l6.58-3.8
			c0.23-0.13,0.72-0.08,1.08,0.13l20.08,11.59c0.36,0.21,0.46,0.49,0.22,0.62L237.02,470.13z"/>
		<path class="st36" d="M221.27,471.5c-0.24,0.14-0.72,0.08-1.08-0.13l-13.39-7.73c-0.36-0.21-0.46-0.49-0.22-0.62l6.58-3.8
			c0.24-0.14,0.72-0.08,1.08,0.13l13.39,7.73c0.36,0.21,0.45,0.49,0.22,0.62L221.27,471.5z"/>
		<path class="st36" d="M258.68,461.69c-0.24,0.14-0.72,0.08-1.08-0.13l-9.93-5.73c-0.36-0.21-0.46-0.49-0.22-0.62l6.58-3.8
			c0.24-0.14,0.72-0.08,1.08,0.13l9.93,5.73c0.36,0.21,0.46,0.49,0.22,0.62L258.68,461.69z"/>
		<path class="st36" d="M272.3,469.54c-0.24,0.14-0.72,0.08-1.08-0.13l-9.93-5.73c-0.36-0.21-0.46-0.49-0.22-0.62l6.58-3.8
			c0.24-0.14,0.72-0.08,1.08,0.13l9.93,5.73c0.36,0.21,0.46,0.49,0.22,0.62L272.3,469.54z"/>
		<path class="st36" d="M285.97,477.43c-0.24,0.14-0.72,0.08-1.08-0.12l-9.93-5.73c-0.36-0.21-0.45-0.49-0.22-0.62l6.58-3.8
			c0.24-0.14,0.72-0.08,1.08,0.12l9.93,5.73c0.36,0.21,0.45,0.48,0.21,0.62L285.97,477.43z"/>
		<path class="st36" d="M299.65,485.33c-0.24,0.14-0.72,0.08-1.08-0.13l-9.93-5.73c-0.36-0.21-0.46-0.49-0.22-0.62l6.58-3.8
			c0.24-0.14,0.72-0.08,1.08,0.13l9.93,5.73c0.36,0.21,0.46,0.49,0.22,0.62L299.65,485.33z"/>
		<path class="st36" d="M313.33,493.22c-0.24,0.14-0.72,0.08-1.08-0.12l-9.93-5.73c-0.36-0.21-0.46-0.49-0.22-0.62l6.58-3.8
			c0.24-0.14,0.72-0.08,1.08,0.13l9.93,5.73c0.36,0.21,0.45,0.48,0.21,0.62L313.33,493.22z"/>
		<path class="st36" d="M327.01,501.11c-0.24,0.14-0.72,0.08-1.08-0.12l-9.94-5.73c-0.35-0.2-0.45-0.48-0.21-0.62l6.58-3.8
			c0.24-0.14,0.72-0.08,1.08,0.12l9.94,5.73c0.35,0.2,0.45,0.48,0.21,0.62L327.01,501.11z"/>
		<path class="st36" d="M340.69,509.01c-0.24,0.14-0.72,0.08-1.08-0.13l-9.93-5.73c-0.36-0.21-0.46-0.49-0.22-0.63l6.58-3.8
			c0.24-0.14,0.72-0.08,1.08,0.13l9.93,5.73c0.36,0.21,0.46,0.49,0.22,0.62L340.69,509.01z"/>
		<path class="st36" d="M354.36,516.9c-0.24,0.14-0.72,0.08-1.07-0.12l-9.94-5.74c-0.35-0.2-0.45-0.48-0.21-0.62l6.58-3.8
			c0.24-0.14,0.72-0.08,1.07,0.12l9.94,5.74c0.35,0.2,0.45,0.48,0.21,0.62L354.36,516.9z"/>
		<path class="st36" d="M362.32,523.86c-0.16-0.1-0.37-0.17-0.58-0.19c-0.21-0.03-0.38,0-0.49,0.07l-6.58,3.8
			c-0.11,0.06-0.16,0.16-0.12,0.29c0.05,0.12,0.16,0.24,0.33,0.34l2.59,1.5l-8.63,4.99c-0.11,0.06-0.16,0.17-0.11,0.29
			c0.04,0.12,0.17,0.24,0.33,0.34l6.69,3.86c0.17,0.1,0.37,0.17,0.58,0.19c0.21,0.03,0.38,0,0.5-0.07l15.65-9.04
			c0.11-0.06,0.16-0.16,0.11-0.28c-0.04-0.12-0.17-0.24-0.33-0.34L362.32,523.86z"/>
	</g>
	<g>
		<path class="st0" d="M407.38,576.09l-15.27,10.47c-5.63,3.86-14.15,3.36-18.94-1.11l0,0c-4.79-4.47-4.1-11.28,1.54-15.14
			l15.27-10.47c5.63-3.86,14.15-3.36,18.94,1.11l0,0C413.7,565.41,413.01,572.23,407.38,576.09z"/>
		<linearGradient id="SVGID_27_" gradientUnits="userSpaceOnUse" x1="366.1642" y1="569.6744" x2="408.2763" y2="569.6744">
			<stop  offset="0" style="stop-color:#5C5E60"/>
			<stop  offset="1" style="stop-color:#9FA1A4"/>
		</linearGradient>
		<path class="st37" d="M403.56,572.57l-15.27,10.47c-5.63,3.86-14.15,3.36-18.94-1.11l0,0c-4.79-4.47-4.1-11.28,1.54-15.14
			l15.27-10.47c5.63-3.86,14.15-3.36,18.94,1.11l0,0C409.88,561.89,409.19,568.71,403.56,572.57z"/>
		<g>
			<g>
				<path class="st38" d="M399.99,556.36c-1.82,0.44-3.5,1.35-4.9,2.59c-0.59,0.52-0.57,1.59,0,2.11c0.63,0.57,1.48,0.55,2.11,0
					c0.16-0.14,0.32-0.28,0.49-0.41c-0.1,0.08-0.2,0.16-0.3,0.23c0.68-0.52,1.41-0.95,2.2-1.29c-0.12,0.05-0.24,0.1-0.36,0.15
					c0.5-0.21,1.02-0.38,1.55-0.51c0.76-0.18,1.28-1.08,1.04-1.83C401.57,556.61,400.81,556.16,399.99,556.36L399.99,556.36z"/>
			</g>
		</g>
	</g>
	<g>
		<path class="st25" d="M243.46,460.91c0,0-15.04-1.76-17.87,1.36C222.75,465.39,244.18,468.95,243.46,460.91z"/>
		<path class="st25" d="M234.13,458.91c0,0-13.76,1.2-23.88,17.04C210.25,475.95,236.82,463.23,234.13,458.91z"/>
		<path class="st25" d="M230.77,455.87c0,0-16.91,1.91-25.85,19.18c0,0,5.77,5.12,8.6,3.65
			C221.04,474.8,232.72,459.02,230.77,455.87z"/>
		<path class="st25" d="M249.49,457.62c0,0-15.14-0.61-17.73,2.71C229.17,463.65,250.81,465.57,249.49,457.62z"/>
		<path class="st25" d="M243.89,455.09c0,0-15.14-0.61-17.73,2.71C223.57,461.12,245.21,463.03,243.89,455.09z"/>
		<path class="st25" d="M205.63,476.32l19.97-11.72c0,0,28.67-6.16,30.88-1.52c2.88,6.07-16.08,5.42-16.08,5.42
			s-15.24,7.35-15.2,7.86c0.02,0.22-1.15,1.37-0.64,2.4c0.85,1.74,1.7,1.47,3.62,0.92l6.41-2.81c0,0,8.64-4.12,9.17-0.36
			c0.47,3.38-7.45,5.08-7.45,5.08l-12.8,7.43l-9.83,1.57c-4.57,0.73-9.02-1.84-10.68-6.16l-0.11-0.29
			C201.77,481.22,202.93,477.91,205.63,476.32z"/>
	</g>
	<path class="st25" d="M329.66,502.32c0.05,0.04,1.19,0.89,1.04,2.58c0,0.01,0,0.02,0,0.04c-0.29,3.02-4.4,6.54-12.24,10.46
		c-0.24,0.2-1.04,1.08-2.12,2.32c2.72-1.11,6.16-1.52,8.74-0.88c10.24,2.52,14.36,5.69,14.53,5.82l0.23,0.18l0.02,0.29
		c0.01,0.11,0.04,1.11-1,1.89c-2.03,1.53-6.59,1.04-13.57-1.46c-1.88-0.67-4.03-0.33-6.42,1.01c1.64-0.58,3.36-0.69,4.85-0.28
		c4.67,1.26,13.8,5.94,14.19,6.14l0.36,0.19l-0.01,0.41c0,0.1-0.05,1.02-1.06,1.69c-0.35,0.24-0.78,0.41-1.27,0.53
		c0.15,0.05,0.23,0.07,0.23,0.07l0.64,0.2l-0.21,0.63c-1.56,4.66-6.67,3.18-10.41,2.09c-0.48-0.14-0.95-0.28-1.4-0.4
		c-1.75-0.47-4.26-0.53-5.57,0.86c-3.64,3.83-6.05,6.9-6.77,8.65c-0.18,0.43-2.41,3.66-2.69,4.15c-5.32,9.32-16.82,2.72-16.9-8.16
		c6.5-10.01,13.63-25.97,19.8-29.37l0.07-0.08l16.61-9.81L329.66,502.32z"/>
	<path class="st39" d="M118.48,620.38l-74.62,57.64c-12.19,7.46-21.34,0.05-21.32-12.77l-1.42-20.87
		c0.01-12.82,9.99-29.42,22.18-36.88l75.24-46.07c12.19-7.46,22.15-3.08,22.13,9.75l-0.01,12.32
		C140.65,596.33,130.67,612.92,118.48,620.38z"/>
	<g>
		<g>
			<path class="st25" d="M235.72,589.35c13.61-5.03,27.09-10.45,39.55-17.96c9.91-5.98,19.52-12.2,29.86-17.45
				c9.91-5.04,2.56-20.67-7.37-15.63c-10.33,5.25-19.95,11.48-29.86,17.45c-12.45,7.51-25.94,12.93-39.55,17.96
				C217.91,577.59,225.37,593.18,235.72,589.35L235.72,589.35z"/>
		</g>
		<g>
			<g>
				<linearGradient id="SVGID_28_" gradientUnits="userSpaceOnUse" x1="295.0516" y1="542.0766" x2="286.0516" y2="565.9462">
					<stop  offset="0" style="stop-color:#8647E1"/>
					<stop  offset="1" style="stop-color:#B78FED"/>
				</linearGradient>
				<path class="st40" d="M290.71,567.78c0,0-15.47-10.29-10.17-24.68l10.02-5.82c6.95,0.76,13.91,19.55,11.51,23.53L290.71,567.78z
					"/>
			</g>
		</g>
		<linearGradient id="SVGID_29_" gradientUnits="userSpaceOnUse" x1="170.7055" y1="455.2062" x2="247.4012" y2="558.5106">
			<stop  offset="0" style="stop-color:#8647E1"/>
			<stop  offset="1" style="stop-color:#B78FED"/>
		</linearGradient>
		<path class="st41" d="M212.6,574.35l70.66-34.6c3.15,3.01,8.82,16.39,10.84,29.14l-43.23,19.09c-18.13,8.59-27.28,3.42-39.6-10.88
			C211.21,577.01,211.28,577.1,212.6,574.35z"/>
	</g>
	<g>
		<g>
			<path class="st25" d="M138.49,527.72c13.58-5.11,27.03-10.6,39.44-18.18c9.87-6.03,19.46-12.31,29.76-17.62
				c9.88-5.09,2.44-20.68-7.45-15.58c-10.3,5.31-19.89,11.59-29.76,17.62c-12.41,7.58-25.87,13.07-39.44,18.18
				C120.61,516.06,128.16,531.61,138.49,527.72L138.49,527.72z"/>
		</g>
		<g>
			<g>
				<linearGradient id="SVGID_30_" gradientUnits="userSpaceOnUse" x1="189.2901" y1="502.1993" x2="180.2901" y2="526.0689">
					<stop  offset="0" style="stop-color:#8647E1"/>
					<stop  offset="1" style="stop-color:#B78FED"/>
				</linearGradient>
				<path class="st42" d="M193.36,505.84c0,0-15.53-10.2-10.31-24.62l9.99-5.87c6.95,0.72,14.02,19.48,11.64,23.47L193.36,505.84z"
					/>
			</g>
		</g>
		<linearGradient id="SVGID_31_" gradientUnits="userSpaceOnUse" x1="136.067" y1="480.9227" x2="212.7627" y2="584.2271">
			<stop  offset="0" style="stop-color:#8647E1"/>
			<stop  offset="1" style="stop-color:#B78FED"/>
		</linearGradient>
		<path class="st43" d="M115.29,512.85l70.46-35c3.17,2.99,8.91,16.34,11.01,29.08l-65.96,31.91
			C120.17,533.3,115.63,524.28,115.29,512.85z"/>
	</g>
	<g>
		<linearGradient id="SVGID_32_" gradientUnits="userSpaceOnUse" x1="98.9104" y1="660.5218" x2="230.9821" y2="660.5218">
			<stop  offset="0" style="stop-color:#5C5E60"/>
			<stop  offset="1" style="stop-color:#9FA1A4"/>
		</linearGradient>
		<path class="st44" d="M162.82,705.92l68.16-43.85c0,0-7.85-56.55-49-50.18c-67.83,10.5-79.76-4.09-79.76-4.09l-2.95,53.85
			C94.39,719.59,140.29,719.24,162.82,705.92z"/>
	</g>
	<linearGradient id="SVGID_33_" gradientUnits="userSpaceOnUse" x1="92.3862" y1="513.3524" x2="169.0819" y2="616.6567">
		<stop  offset="0" style="stop-color:#8647E1"/>
		<stop  offset="1" style="stop-color:#B78FED"/>
	</linearGradient>
	<path class="st45" d="M90.52,526.63c0,0,8.79,97.87,10.2,104.95c0,0,52.6,47.5,80.87,0.73l0,0l0,0c-3.57-8.25-3.66-17.59-0.24-25.9
		l4.14-10.05c7.16-17.4,9.08-36.52,5.51-55l-0.57-2.95L90.52,526.63z"/>
	<linearGradient id="SVGID_34_" gradientUnits="userSpaceOnUse" x1="111.0406" y1="499.5029" x2="187.7362" y2="602.8073">
		<stop  offset="0" style="stop-color:#8647E1"/>
		<stop  offset="1" style="stop-color:#B78FED"/>
	</linearGradient>
	<path class="st46" d="M178.37,557.81c2.36-1.31,8.4-11.34,8.4-11.34c2.18-13.68,8.99-26.78-3.57-38.84
		c-3.24-3.11-34.24-22.24-58.65-27.74c-11.83-2.66-23.9,3.47-29.19,14.38c-1.88,3.88-3.83,10.12-5.07,14.41
		c-1.07,3.73-0.82,10.27-0.35,14.51c1.7,15.07,7.3-0.14,8.35,12.38c-0.05-0.34-3.97-1.74-4.01-2.07c0,0,8.13,9.11,9.66,27.44
		c0.94,11.44,1.61,19.71,1.65,20.87c0,0.05,0,0.13,0,0.14l41.22,35.45l24.18-39.58l0,0L178.37,557.81z"/>
	<path class="st25" d="M129.52,488.22l9.37-34.73l20.78,15.31l-7.3,27.1C151.51,501.05,127.46,500.07,129.52,488.22z"/>
	<g>
		<g>
			<g>
				<g>
					<linearGradient id="SVGID_35_" gradientUnits="userSpaceOnUse" x1="114.9004" y1="484.5731" x2="171.452" y2="484.5731">
						<stop  offset="0" style="stop-color:#8647E1"/>
						<stop  offset="1" style="stop-color:#B78FED"/>
					</linearGradient>
					<path class="st47" d="M116.73,482.15c-7.04,5.15,8.05,14.57,14.7,17.76c8.46,4.06,30.58,0.32,39.57-0.21
						c3.22-0.19-11.58-9.25-14.83-9.06c-13.82,0.81-23.17,1.39-28-9.8c-2.29-5.31-19.14-28.1-4.93,1.13L116.73,482.15z"/>
				</g>
			</g>
		</g>
	</g>
	<g>
		<path class="st25" d="M150.46,405.68c0,0-19.73-21.2-24.65,11.66c-3.42,22.86,8.94,44.91,28.17,56.83
			c11.98,7.43,28.62,2.58,30.95-8.71c5.42-16.17,7.69-31.7,3.64-45.95c2.81-13.61-8.22-10.24-25.94-13.73L150.46,405.68z"/>
		<path class="st48" d="M125.23,465.02c0,0-21.46-7.8-13.55-41.89c6.94-29.89,31.69-29.79,51.08-28.96
			c8.59,0.37,23.35,8.31,26.75,16.71c4,9.9-0.17,9.37-10.36,12.95c-4.29,1.51-3.76,14.02-5.24,18.04
			c-2.64,7.15-11.08,9.06-13.78,15.98c-2.55,6.54-7.53,13.47-14.11,13.32C134.28,470.9,125.23,465.02,125.23,465.02z"/>
		<path class="st25" d="M169.66,451.16c-0.3,5.66-3.83,10.07-7.88,9.86c-0.44-0.02-0.87-0.1-1.29-0.23
			c-3.39-1.04-5.78-5.36-5.51-10.41c0.3-5.66,3.83-10.07,7.88-9.86C166.92,440.74,169.96,445.5,169.66,451.16z"/>
		<g>
			<g>
				<linearGradient id="SVGID_36_" gradientUnits="userSpaceOnUse" x1="128.96" y1="405.4934" x2="144.3513" y2="423.2325">
					<stop  offset="0" style="stop-color:#8647E1"/>
					<stop  offset="1" style="stop-color:#B78FED"/>
				</linearGradient>
				<path class="st49" d="M148.2,415.01c-1.65,7.24-9.11,11.72-16.66,10c-7.55-1.72-12.34-8.98-10.69-16.22
					c1.65-7.24,9.11-11.72,16.66-10C145.06,400.51,149.85,407.77,148.2,415.01z"/>
			</g>
		</g>
		<path class="st48" d="M123.53,402.62c6.83-0.08,12.96,5.8,13.9,13c1.37,10.54,8.5,56.4-4.23,77.18
			c-11.15,0.14-21.34-3.6-29.3-16.48c0,0-5.33-13.66-1.15-37.53c4.15-23.7,14.01-34.04,14.01-34.04
			C118.59,403.4,120.16,402.66,123.53,402.62z"/>
		<path class="st50" d="M164.92,451.84c0.67-0.53,0.71-1.52,0.1-2.11c-0.88-0.84-2.22-1.6-3.22,0.2c-1.01,1.81,0.09,3.99,1.06,5.37
			c0.17,0.25,0.56,0.07,0.48-0.23c-0.22-0.9-0.22-1.97,0.67-2.56C164.38,452.26,164.68,452.04,164.92,451.84z"/>
	</g>
	<g>
		<g>
			<g>
				<g>
					<linearGradient id="SVGID_37_" gradientUnits="userSpaceOnUse" x1="226.77" y1="740.3028" x2="255.2469" y2="740.3028">
						<stop  offset="0" style="stop-color:#5C5E60"/>
						<stop  offset="1" style="stop-color:#9FA1A4"/>
					</linearGradient>
					<path class="st51" d="M250.79,807.59l0.39-0.06c2.6-0.39,4.4-2.81,4.02-5.41l-18.56-125.09c-0.39-2.6-2.81-4.4-5.41-4.02
						l-0.39,0.06c-2.6,0.39-4.4,2.81-4.02,5.42l18.56,125.09C245.76,806.18,248.19,807.98,250.79,807.59z"/>
				</g>
			</g>
			<g>
				<g>
					<linearGradient id="SVGID_38_" gradientUnits="userSpaceOnUse" x1="11.7456" y1="735.0116" x2="43.8771" y2="735.0116">
						<stop  offset="0" style="stop-color:#5C5E60"/>
						<stop  offset="1" style="stop-color:#9FA1A4"/>
					</linearGradient>
					<path class="st52" d="M15.83,815.77L15.83,815.77c-2.62-0.39-4.42-2.82-4.04-5.44l22.55-152.04c0.39-2.62,2.82-4.42,5.44-4.04
						l0,0c2.62,0.39,4.42,2.82,4.04,5.44L21.28,811.73C20.89,814.35,18.45,816.16,15.83,815.77z"/>
				</g>
			</g>
			<g>
				<g>
					<linearGradient id="SVGID_39_" gradientUnits="userSpaceOnUse" x1="122.0265" y1="786.562" x2="158.6325" y2="786.562">
						<stop  offset="0" style="stop-color:#5C5E60"/>
						<stop  offset="1" style="stop-color:#9FA1A4"/>
					</linearGradient>
					<path class="st53" d="M126.41,880.43L126.41,880.43c-2.8-0.42-4.74-3.03-4.33-5.83l26.34-177.58c0.42-2.8,3.03-4.74,5.83-4.33
						l0,0c2.8,0.42,4.74,3.03,4.33,5.83L132.24,876.1C131.82,878.91,129.21,880.84,126.41,880.43z"/>
				</g>
			</g>
			<g>
				<g>
					<linearGradient id="SVGID_40_" gradientUnits="userSpaceOnUse" x1="64.4245" y1="590.1066" x2="87.1201" y2="730.9761">
						<stop  offset="0" style="stop-color:#DCDFFB"/>
						<stop  offset="1" style="stop-color:#F3F3FA"/>
					</linearGradient>
					<path class="st54" d="M143.19,754.85L35.01,692.15c-10.15-5.86-15.75-17.53-15.75-17.53c-3.8-8.72,5.26-15.03,15.41-9.17
						l99.25,58.43c10.15,5.86,13.97,11.98,12.34,19.24C146.24,743.12,156.05,761.49,143.19,754.85z"/>
				</g>
			</g>
			<g>
				<g>
					<linearGradient id="SVGID_41_" gradientUnits="userSpaceOnUse" x1="76.6889" y1="588.1306" x2="99.3846" y2="729.0002">
						<stop  offset="0" style="stop-color:#DCDFFB"/>
						<stop  offset="1" style="stop-color:#F3F3FA"/>
					</linearGradient>
					<path class="st55" d="M19.31,673.04L0.48,555.23c-3.19-17.42,9.83-23.22,28.21-12.56l73.47,42.63
						c13.24,7.68,25.81,22.04,31.42,35.89l31.01,76.49c8.89,21.93-10.3,43.51-28.86,32.45L19.31,673.04z"/>
				</g>
			</g>
			<g>
				<g>
					<linearGradient id="SVGID_42_" gradientUnits="userSpaceOnUse" x1="141.2752" y1="704.4454" x2="261.5408" y2="704.4454">
						<stop  offset="0" style="stop-color:#DCDFFB"/>
						<stop  offset="1" style="stop-color:#F3F3FA"/>
					</linearGradient>
					<path class="st56" d="M237.48,708.4l-75.24,46.07c-12.19,7.46-21.6,3.96-20.93-7.78l0.65-11.28
						c0.67-11.74,11.19-27.45,23.38-34.91l75.24-46.07c12.19-7.46,21.6-3.96,20.93,7.78l-0.65,11.28
						C260.19,685.23,249.66,700.94,237.48,708.4z"/>
				</g>
			</g>
		</g>
	</g>
	<linearGradient id="SVGID_43_" gradientUnits="userSpaceOnUse" x1="145.4341" y1="473.9684" x2="222.1297" y2="577.2727">
		<stop  offset="0" style="stop-color:#8647E1"/>
		<stop  offset="1" style="stop-color:#B78FED"/>
	</linearGradient>
	<path class="st57" d="M220.53,585.48l-61.48-55.79c-6.59-5.98-7.44-16.04-1.94-23.04l0,0c6.29-8,18.86-3.12,28.12,4.26l52.85,49.91
		L220.53,585.48z"/>
	<g>
		<g>
			<path class="st58" d="M172.92,451c-1.53,7.49-7.51,12.59-13.37,11.39s-9.35-8.24-7.82-15.72c1.53-7.49,7.51-12.59,13.37-11.39
				S174.45,443.51,172.92,451z"/>
		</g>
	</g>
	<g>
		<g>
			<linearGradient id="SVGID_44_" gradientUnits="userSpaceOnUse" x1="155.7189" y1="450.6122" x2="168.197" y2="450.6122">
				<stop  offset="0" style="stop-color:#8647E1"/>
				<stop  offset="1" style="stop-color:#B78FED"/>
			</linearGradient>
			<path class="st59" d="M167.99,451.85c-0.87,4.26-4.28,7.17-7.61,6.49c-3.33-0.68-5.33-4.69-4.46-8.96
				c0.87-4.26,4.28-7.17,7.61-6.49C166.87,443.57,168.86,447.58,167.99,451.85z"/>
		</g>
	</g>
	<path class="st60" d="M161.62,453.68c0,0-2.67,29.85,29.39,16.68"/>
	<g>
		<g>
			<linearGradient id="SVGID_45_" gradientUnits="userSpaceOnUse" x1="187.3507" y1="467.3571" x2="196.1607" y2="467.3571">
				<stop  offset="0" style="stop-color:#8647E1"/>
				<stop  offset="1" style="stop-color:#B78FED"/>
			</linearGradient>
			<ellipse class="st61" cx="191.76" cy="467.36" rx="4.4" ry="4.92"/>
		</g>
	</g>
	<g>
		<path class="st0" d="M515.72,567.44c-16.77-10.06-44.23-10.51-61.32-1.02c-17.1,9.5-17.36,25.35-0.59,35.4
			c16.77,10.06,43.93,10.52,61.34,1.22C534.29,592.82,532.49,577.5,515.72,567.44z"/>
		<path class="st58" d="M501.88,565.23c-15.93-9.55-42-9.98-58.24-0.97c-16.24,9.02-16.49,24.07-0.56,33.62
			c15.93,9.55,41.72,9.99,58.26,1.16C519.52,589.33,517.81,574.78,501.88,565.23z"/>
		<linearGradient id="SVGID_46_" gradientUnits="userSpaceOnUse" x1="430.7427" y1="571.6664" x2="513.8474" y2="571.6664">
			<stop  offset="0" style="stop-color:#8647E1"/>
			<stop  offset="1" style="stop-color:#B78FED"/>
		</linearGradient>
		<path class="st62" d="M501.33,555.32c-15.93-9.55-42-9.98-58.24-0.97c-16.24,9.02-16.49,24.07-0.56,33.62
			c15.93,9.55,41.72,9.99,58.26,1.16C518.96,579.43,517.25,564.87,501.33,555.32z"/>
		<polyline class="st63" points="461.94,561.88 457.21,578.11 495.48,569.45 		"/>
	</g>
	<g>
		<path class="st58" d="M157.45,443.61c0,0,4.56-48.84-12.93-49.67c0,0,5.57-6.2,12.22-2.46c6.65,3.74,11.26,29.58,5.54,51.25
			L157.45,443.61z"/>
	</g>
	<g>
		<g>
			<g>
				<defs>
					<polygon id="SVGID_47_" points="338.1,275.35 381.15,289.24 380.72,344.92 338.1,329.9 					"/>
				</defs>
				<clipPath id="SVGID_48_">
					<use xlink:href="#SVGID_47_"  style="overflow:visible;"/>
				</clipPath>
			</g>
		</g>
		<g>
			<g>
				<defs>
					<polygon id="SVGID_49_" points="338.1,275.35 381.15,289.24 380.72,344.92 338.1,329.9 					"/>
				</defs>
				<clipPath id="SVGID_50_">
					<use xlink:href="#SVGID_49_"  style="overflow:visible;"/>
				</clipPath>
				<path class="st64" d="M381.14,291.2c0-0.1-0.01-0.2-0.01-0.28l-0.01-0.07c-0.01-0.11-0.03-0.22-0.06-0.36
					c-0.01-0.04-0.02-0.07-0.03-0.12c-0.02-0.08-0.04-0.16-0.07-0.24c-0.01-0.04-0.03-0.08-0.04-0.11c-0.03-0.08-0.06-0.16-0.1-0.25
					c-0.01-0.02-0.02-0.04-0.03-0.07c-0.05-0.1-0.1-0.19-0.16-0.28c-0.01-0.02-0.02-0.03-0.02-0.03c-0.05-0.07-0.09-0.13-0.14-0.18
					c-0.02-0.02-0.03-0.04-0.07-0.07c-0.04-0.04-0.09-0.08-0.14-0.12c-0.02-0.02-0.04-0.03-0.06-0.04c-0.07-0.05-0.14-0.08-0.21-0.1
					l-40.76-13.15c-0.07-0.02-0.13-0.03-0.2-0.03c-0.02,0-0.04,0-0.07,0c-0.05,0.01-0.09,0.01-0.15,0.03
					c-0.02,0.01-0.04,0.01-0.05,0.02c-0.05,0.02-0.1,0.05-0.14,0.08l-0.04,0.03c-0.05,0.04-0.1,0.1-0.16,0.18l-0.03,0.05
					c-0.03,0.05-0.07,0.11-0.09,0.16c-0.01,0.03-0.03,0.06-0.04,0.09c-0.02,0.06-0.05,0.12-0.07,0.2c-0.01,0.02-0.01,0.04-0.02,0.06
					l-0.01,0.05c-0.02,0.09-0.04,0.19-0.05,0.29l0,0.04c-0.01,0.09-0.02,0.19-0.02,0.29l0,0.03v50.6l0,0.07
					c0,0.06,0.01,0.12,0.01,0.17c0.07,1.03,0.55,1.95,1.12,2.15l40.35,14.22c0.57,0.2,1.06-0.4,1.13-1.39
					c0.01-0.06,0.01-0.11,0.01-0.17l0-0.03l0.4-51.64L381.14,291.2z M365.13,312.71l12.63-15.57l-0.29,39.57L365.13,312.71z
					 M343.19,282.25l32.83,10.69l-16.52,20.34L343.19,282.25z M355.7,311.1l3.08,5.91c0.2,0.38,0.45,0.64,0.71,0.73
					c0.26,0.09,0.52,0.01,0.72-0.24l3.11-3.82l12.4,24.1l-32.57-11.38L355.7,311.1z M341.4,324.14l0.02-38.89l12.47,23.67
					L341.4,324.14z"/>
			</g>
		</g>
		<g>
			<g>
				<defs>
					<polygon id="SVGID_51_" points="338.1,275.35 381.15,289.24 380.72,344.92 338.1,329.9 					"/>
				</defs>
				<clipPath id="SVGID_52_">
					<use xlink:href="#SVGID_51_"  style="overflow:visible;"/>
				</clipPath>
			</g>
		</g>
	</g>
</g>
</svg>
