<?xml version="1.0" encoding="utf-8"?>
<!-- Generator: Adobe Illustrator 25.2.1, SVG Export Plug-In . SVG Version: 6.00 Build 0)  -->
<svg version="1.1" id="Layer_1" xmlns="http://www.w3.org/2000/svg" width="400" xmlns:xlink="http://www.w3.org/1999/xlink" x="0px" y="0px"
	 viewBox="0 0 162.34 147.09" style="enable-background:new 0 0 162.34 147.09;" xml:space="preserve">
<style type="text/css">
	.st0{fill-rule:evenodd;clip-rule:evenodd;fill:url(#SVGID_1_);}
	.st1{fill-rule:evenodd;clip-rule:evenodd;fill:url(#SVGID_2_);}
	.st2{fill-rule:evenodd;clip-rule:evenodd;fill:url(#SVGID_3_);}
	.st3{fill-rule:evenodd;clip-rule:evenodd;fill:url(#SVGID_4_);}
	.st4{fill-rule:evenodd;clip-rule:evenodd;fill:url(#SVGID_5_);}
	.st5{fill-rule:evenodd;clip-rule:evenodd;fill:url(#SVGID_6_);}
	.st6{fill:#FFFFFF;}
	.st7{fill:#CBCBCB;}
	.st8{fill:url(#SVGID_7_);}
	.st9{fill:url(#SVGID_8_);}
	.st10{fill:url(#SVGID_9_);}
	.st11{fill-rule:evenodd;clip-rule:evenodd;fill:url(#SVGID_10_);}
	.st12{fill-rule:evenodd;clip-rule:evenodd;fill:#CBCBCB;}
	.st13{fill-rule:evenodd;clip-rule:evenodd;fill:#FFD6D6;}
	.st14{fill-rule:evenodd;clip-rule:evenodd;fill:#814D4D;}
	.st15{fill-rule:evenodd;clip-rule:evenodd;fill:#9E9E9E;}
	.st16{fill-rule:evenodd;clip-rule:evenodd;fill:url(#SVGID_11_);}
	.st17{fill-rule:evenodd;clip-rule:evenodd;fill:url(#SVGID_12_);}
	.st18{fill-rule:evenodd;clip-rule:evenodd;fill:url(#SVGID_13_);}
	.st19{fill-rule:evenodd;clip-rule:evenodd;fill:#DFE4E8;}
	.st20{fill-rule:evenodd;clip-rule:evenodd;fill:url(#SVGID_14_);}
	.st21{fill-rule:evenodd;clip-rule:evenodd;fill:#450606;}
	.st22{fill-rule:evenodd;clip-rule:evenodd;fill:url(#SVGID_15_);}
	.st23{fill-rule:evenodd;clip-rule:evenodd;fill:#FFF9F0;}
	.st24{fill-rule:evenodd;clip-rule:evenodd;fill:url(#SVGID_16_);}
	.st25{fill-rule:evenodd;clip-rule:evenodd;fill:url(#SVGID_17_);}
	.st26{fill-rule:evenodd;clip-rule:evenodd;fill:url(#SVGID_18_);}
	.st27{fill-rule:evenodd;clip-rule:evenodd;fill:url(#SVGID_19_);}
	.st28{fill-rule:evenodd;clip-rule:evenodd;fill:url(#SVGID_20_);}
	.st29{fill-rule:evenodd;clip-rule:evenodd;fill:url(#SVGID_21_);}
	.st30{fill-rule:evenodd;clip-rule:evenodd;fill:#E3EFFA;}
	.st31{fill-rule:evenodd;clip-rule:evenodd;fill:url(#SVGID_22_);}
	.st32{fill-rule:evenodd;clip-rule:evenodd;fill:url(#SVGID_23_);}
	.st33{fill-rule:evenodd;clip-rule:evenodd;fill:#F0C17D;}
	.st34{fill-rule:evenodd;clip-rule:evenodd;fill:url(#SVGID_24_);}
	.st35{fill-rule:evenodd;clip-rule:evenodd;fill:url(#SVGID_25_);}
	.st36{fill-rule:evenodd;clip-rule:evenodd;fill:#EEBE69;}
	.st37{fill-rule:evenodd;clip-rule:evenodd;fill:#BFD8DB;}
	.st38{fill-rule:evenodd;clip-rule:evenodd;fill:#8C6C4A;}
	.st39{fill-rule:evenodd;clip-rule:evenodd;fill:url(#SVGID_26_);}
	.st40{fill-rule:evenodd;clip-rule:evenodd;fill:url(#SVGID_27_);}
	.st41{fill-rule:evenodd;clip-rule:evenodd;fill:url(#SVGID_28_);}
	.st42{fill-rule:evenodd;clip-rule:evenodd;fill:url(#SVGID_29_);}
	.st43{fill-rule:evenodd;clip-rule:evenodd;fill:url(#SVGID_30_);}
	.st44{fill-rule:evenodd;clip-rule:evenodd;fill:url(#SVGID_31_);}
	.st45{fill-rule:evenodd;clip-rule:evenodd;fill:url(#SVGID_32_);}
	.st46{fill-rule:evenodd;clip-rule:evenodd;fill:url(#SVGID_33_);}
	.st47{fill-rule:evenodd;clip-rule:evenodd;fill:url(#SVGID_34_);}
	.st48{fill-rule:evenodd;clip-rule:evenodd;fill:url(#SVGID_35_);}
	.st49{fill-rule:evenodd;clip-rule:evenodd;fill:url(#SVGID_36_);}
	.st50{fill-rule:evenodd;clip-rule:evenodd;fill:url(#SVGID_37_);}
	.st51{fill-rule:evenodd;clip-rule:evenodd;fill:#632404;}
	.st52{fill-rule:evenodd;clip-rule:evenodd;fill:#451903;}
	.st53{fill-rule:evenodd;clip-rule:evenodd;fill:url(#SVGID_38_);}
</style>
<g>
	<g>
		<g>
			<g>
				<g>
					<linearGradient id="SVGID_1_" gradientUnits="userSpaceOnUse" x1="92.0358" y1="95.1528" x2="147.0358" y2="95.1528">
						<stop  offset="0" style="stop-color:#DCDFFB"/>
						<stop  offset="1" style="stop-color:#F3F3FA"/>
					</linearGradient>
					<polygon class="st0" points="93.35,55.4 95.87,55.4 71.03,134.91 68.52,134.91 					"/>
					<linearGradient id="SVGID_2_" gradientUnits="userSpaceOnUse" x1="92.0358" y1="95.1528" x2="147.0358" y2="95.1528">
						<stop  offset="0" style="stop-color:#DCDFFB"/>
						<stop  offset="1" style="stop-color:#F3F3FA"/>
					</linearGradient>
					<polygon class="st1" points="99.56,55.4 95.95,55.4 120.79,134.91 124.39,134.91 					"/>
				</g>
				<linearGradient id="SVGID_3_" gradientUnits="userSpaceOnUse" x1="92.0358" y1="89.5034" x2="147.0358" y2="89.5034">
					<stop  offset="0" style="stop-color:#DCDFFB"/>
					<stop  offset="1" style="stop-color:#F3F3FA"/>
				</linearGradient>
				<polygon class="st2" points="96.02,49.44 97,48.37 96.89,130.63 95.91,130.63 				"/>
			</g>
			<g>
				<linearGradient id="SVGID_4_" gradientUnits="userSpaceOnUse" x1="95.9088" y1="15.1709" x2="95.9088" y2="101.1742">
					<stop  offset="0" style="stop-color:#DCDFFB"/>
					<stop  offset="1" style="stop-color:#F3F3FA"/>
				</linearGradient>
				<rect x="67.95" y="0.78" class="st3" width="55.92" height="78"/>
				<linearGradient id="SVGID_5_" gradientUnits="userSpaceOnUse" x1="14.2858" y1="2.6001" x2="115.479" y2="2.6001">
					<stop  offset="0" style="stop-color:#DCDFFB"/>
					<stop  offset="1" style="stop-color:#F3F3FA"/>
				</linearGradient>
				<rect x="67.78" class="st4" width="58.45" height="5.2"/>
				<linearGradient id="SVGID_6_" gradientUnits="userSpaceOnUse" x1="92.0358" y1="80.8484" x2="147.0358" y2="80.8484">
					<stop  offset="0" style="stop-color:#DCDFFB"/>
					<stop  offset="1" style="stop-color:#F3F3FA"/>
				</linearGradient>
				<rect x="67.78" y="78.25" class="st5" width="58.45" height="5.2"/>
			</g>
		</g>
		<g>
			
				<rect x="89.2" y="67.27" transform="matrix(-1 -1.224647e-16 1.224647e-16 -1 181.4109 136.0595)" class="st6" width="3.02" height="1.53"/>
			
				<rect x="80.06" y="67.27" transform="matrix(-1 -1.224647e-16 1.224647e-16 -1 168.527 136.0595)" class="st6" width="8.4" height="1.53"/>
			
				<rect x="74.44" y="67.27" transform="matrix(-1 -1.224647e-16 1.224647e-16 -1 153.6394 136.0595)" class="st6" width="4.76" height="1.53"/>
			
				<rect x="86.18" y="64.4" transform="matrix(-1 -1.224647e-16 1.224647e-16 -1 178.3947 130.3167)" class="st6" width="6.03" height="1.53"/>
			
				<rect x="77.81" y="64.4" transform="matrix(-1 -1.224647e-16 1.224647e-16 -1 163.3133 130.3167)" class="st6" width="7.69" height="1.53"/>
			
				<rect x="74.3" y="64.4" transform="matrix(-1 -1.224647e-16 1.224647e-16 -1 151.5266 130.3167)" class="st6" width="2.93" height="1.53"/>
			
				<rect x="86.83" y="61.52" transform="matrix(-1 -1.224647e-16 1.224647e-16 -1 179.041 124.574)" class="st6" width="5.39" height="1.53"/>
			
				<rect x="80.91" y="61.52" transform="matrix(-1 -1.224647e-16 1.224647e-16 -1 167.0943 124.574)" class="st6" width="5.27" height="1.53"/>
			
				<rect x="75.22" y="61.52" transform="matrix(-1 -1.224647e-16 1.224647e-16 -1 155.491 124.574)" class="st6" width="5.04" height="1.53"/>
			
				<rect x="86.18" y="58.65" transform="matrix(-1 -1.224647e-16 1.224647e-16 -1 178.3947 118.8314)" class="st6" width="6.03" height="1.53"/>
			
				<rect x="78.81" y="58.65" transform="matrix(-1 -1.224647e-16 1.224647e-16 -1 164.315 118.8314)" class="st6" width="6.69" height="1.53"/>
			
				<rect x="74.44" y="58.65" transform="matrix(-1 -1.224647e-16 1.224647e-16 -1 152.6376 118.8314)" class="st6" width="3.76" height="1.53"/>
			
				<rect x="88.46" y="55.78" transform="matrix(-1 -1.224647e-16 1.224647e-16 -1 180.6783 113.0887)" class="st6" width="3.75" height="1.53"/>
			
				<rect x="77.11" y="55.78" transform="matrix(-1 -1.224647e-16 1.224647e-16 -1 164.7781 113.0887)" class="st6" width="10.56" height="1.53"/>
		</g>
		<g>
			
				<rect x="103.95" y="61.52" transform="matrix(-1 -1.224647e-16 1.224647e-16 -1 216.7561 124.574)" class="st7" width="8.85" height="1.53"/>
			
				<rect x="101.59" y="61.52" transform="matrix(-1 -1.224647e-16 1.224647e-16 -1 204.7846 124.574)" class="st7" width="1.61" height="1.53"/>
			
				<rect x="109.96" y="58.65" transform="matrix(-1 -1.224647e-16 1.224647e-16 -1 223.83 118.8314)" class="st7" width="3.9" height="1.53"/>
			
				<rect x="101.59" y="58.65" transform="matrix(-1 -1.224647e-16 1.224647e-16 -1 210.6545 118.8314)" class="st7" width="7.48" height="1.53"/>
			
				<rect x="106.46" y="55.78" transform="matrix(-1 -1.224647e-16 1.224647e-16 -1 219.0293 113.0887)" class="st7" width="6.1" height="1.53"/>
			
				<rect x="101.59" y="55.78" transform="matrix(-1 -1.224647e-16 1.224647e-16 -1 207.4094 113.0887)" class="st7" width="4.23" height="1.53"/>
		</g>
		<g>
			
				<rect x="101.75" y="13.73" transform="matrix(-1 -1.224647e-16 1.224647e-16 -1 215.168 28.9822)" class="st6" width="11.66" height="1.53"/>
			
				<rect x="93.95" y="13.73" transform="matrix(-1 -1.224647e-16 1.224647e-16 -1 194.5003 28.9822)" class="st6" width="6.61" height="1.53"/>
			
				<rect x="85.75" y="13.73" transform="matrix(-1 -1.224647e-16 1.224647e-16 -1 178.9026 28.9822)" class="st6" width="7.4" height="1.53"/>
			
				<rect x="80.87" y="13.73" transform="matrix(-1 -1.224647e-16 1.224647e-16 -1 165.9815 28.9822)" class="st6" width="4.23" height="1.53"/>
			
				<rect x="98.63" y="10.86" transform="matrix(-1 -1.224647e-16 1.224647e-16 -1 207.9301 23.2396)" class="st6" width="10.68" height="1.53"/>
			
				<rect x="91.45" y="10.86" transform="matrix(-1 -1.224647e-16 1.224647e-16 -1 189.2661 23.2396)" class="st6" width="6.37" height="1.53"/>
			
				<rect x="85.11" y="10.86" transform="matrix(-1 -1.224647e-16 1.224647e-16 -1 175.6125 23.2396)" class="st6" width="5.4" height="1.53"/>
			
				<rect x="80.87" y="10.86" transform="matrix(-1 -1.224647e-16 1.224647e-16 -1 164.9644 23.2396)" class="st6" width="3.22" height="1.53"/>
		</g>
		<g>
			<g>
				<linearGradient id="SVGID_7_" gradientUnits="userSpaceOnUse" x1="98.6191" y1="34.0936" x2="129.4772" y2="34.0936">
					<stop  offset="0" style="stop-color:#9FA1A4"/>
					<stop  offset="1" style="stop-color:#5C5E60"/>
				</linearGradient>
				<circle class="st8" cx="100.02" cy="34.09" r="9.78"/>
				<linearGradient id="SVGID_8_" gradientUnits="userSpaceOnUse" x1="75.2858" y1="34.0936" x2="88.0616" y2="34.0936">
					<stop  offset="0" style="stop-color:#8647E1"/>
					<stop  offset="1" style="stop-color:#B78FED"/>
				</linearGradient>
				<circle class="st9" cx="88.73" cy="34.09" r="9.78"/>
				<linearGradient id="SVGID_9_" gradientUnits="userSpaceOnUse" x1="94.3788" y1="36.5876" x2="94.3788" y2="55.5876">
					<stop  offset="0" style="stop-color:#DCDFFB"/>
					<stop  offset="1" style="stop-color:#F3F3FA"/>
				</linearGradient>
				<path class="st10" d="M98.51,34.09c0-3.3-1.63-6.21-4.13-7.98c-2.5,1.77-4.13,4.68-4.13,7.98c0,3.3,1.63,6.21,4.13,7.98
					C96.88,40.3,98.51,37.39,98.51,34.09z"/>
			</g>
			<g>
				<polygon class="st6" points="102.05,40.99 102.41,40.99 102.41,50.49 104.81,52.89 104.56,53.14 102.05,50.64 				"/>
				<path class="st6" d="M101.59,40.99c0-0.36,0.29-0.64,0.64-0.64c0.36,0,0.64,0.29,0.64,0.64s-0.29,0.64-0.64,0.64
					C101.88,41.63,101.59,41.35,101.59,40.99z"/>
				<path class="st6" d="M104.04,53.02c0-0.36,0.29-0.64,0.64-0.64c0.36,0,0.64,0.29,0.64,0.64c0,0.36-0.29,0.64-0.64,0.64
					C104.33,53.66,104.04,53.37,104.04,53.02z"/>
			</g>
			<g>
				<rect x="85.66" y="17.57" class="st6" width="0.36" height="9.57"/>
				<path class="st6" d="M85.2,17.57c0-0.36,0.29-0.64,0.64-0.64c0.36,0,0.64,0.29,0.64,0.64c0,0.36-0.29,0.64-0.64,0.64
					C85.49,18.21,85.2,17.93,85.2,17.57z"/>
				<path class="st6" d="M85.2,27.14c0-0.36,0.29-0.64,0.64-0.64c0.36,0,0.64,0.29,0.64,0.64s-0.29,0.64-0.64,0.64
					C85.49,27.79,85.2,27.5,85.2,27.14z"/>
			</g>
			<g>
				<rect x="94.2" y="39.08" class="st6" width="0.36" height="29.47"/>
				<path class="st6" d="M93.74,39.08c0-0.36,0.29-0.64,0.64-0.64s0.64,0.29,0.64,0.64c0,0.36-0.29,0.64-0.64,0.64
					S93.74,39.44,93.74,39.08z"/>
				<path class="st6" d="M93.74,68.79c0-0.36,0.29-0.64,0.64-0.64c0.36,0,0.64,0.29,0.64,0.64c0,0.36-0.29,0.64-0.64,0.64
					C94.02,69.44,93.74,69.15,93.74,68.79z"/>
			</g>
		</g>
	</g>
	<g>
		<linearGradient id="SVGID_10_" gradientUnits="userSpaceOnUse" x1="54.7857" y1="77.6785" x2="61.4524" y2="92.3452">
			<stop  offset="0" style="stop-color:#DCDFFB"/>
			<stop  offset="1" style="stop-color:#F3F3FA"/>
		</linearGradient>
		<path class="st11" d="M56.26,68.57c0.3,2.39,0.82,4.5,0.7,6.94l-0.6,12.94l-3.1-1.16c-0.22-0.26-0.27-0.3-0.32-0.54
			c-0.32-1.58-1.7-7.22-2.6-11.49c-1.01-4.78-1.68-7.66,0.72-9.75C52.5,64.26,55.68,64,56.26,68.57z"/>
		<polygon class="st12" points="30.06,70.16 36.68,70.16 42.38,113.99 33.71,114.46 		"/>
		<g>
			<path class="st13" d="M70.26,112.98c-2.22,7.79-6.29,19.86-6.2,23.15c0.09,3.37,7.94,4.73,7.66,7.38
				c-0.74,0.32-4.57,0.45-6.04,0.18c-1.93-0.35-2.89-1.16-4.55-1.24l-0.11,0.94l-2.87-0.13l0.11-1.91c-0.01-3.62,1.5-4.52,1.77-6.25
				c0.75-4.99,0.99-12.4,0.97-17.71l5.43-9.5l5.78-4.65C72.57,105.23,71.2,109.69,70.26,112.98z"/>
			<path class="st14" d="M69.44,140.92c1.49,0.72,2.39,1.64,2.28,2.59c-0.74,0.32-4.57,0.45-6.04,0.18
				c-1.93-0.35-2.89-1.16-4.55-1.24l-0.11,0.94l-2.87-0.13l0.04-1.91c-0.07-1.26-0.12-2.05,0.48-3.26
				C59.84,139.95,66.61,141.67,69.44,140.92z"/>
		</g>
		<rect x="47.55" y="113.32" class="st12" width="3.94" height="29.13"/>
		<path class="st15" d="M36.55,107.48H62.5c1.67,0,3.04,1.37,3.04,3.04v0.9c0,1.67-1.37,3.04-3.04,3.04H36.55
			c-1.67,0-3.04-1.37-3.04-3.04v-0.9C33.51,108.84,34.87,107.48,36.55,107.48z"/>
		<path class="st15" d="M42.72,140.18h13.6c0.88,0,1.59,0.72,1.59,1.59v0.47c0,0.88-0.72,1.59-1.59,1.59h-13.6
			c-0.88,0-1.59-0.72-1.59-1.59v-0.47C41.13,140.9,41.85,140.18,42.72,140.18z"/>
		<g>
			<path class="st13" d="M71.72,112.98c-2.22,7.79-6.29,19.86-6.2,23.15c0.09,3.37,7.94,4.73,7.66,7.38
				c-0.74,0.32-4.57,0.45-6.04,0.18c-1.93-0.35-2.89-1.16-4.55-1.24l-0.11,0.94l-2.87-0.13l0.11-2.02c-0.01-3.62,1.5-4.42,1.77-6.15
				c0.75-4.99,0.99-12.4,0.97-17.71l5.43-9.5l5.78-4.65C74.03,105.23,72.66,109.69,71.72,112.98z"/>
			<path class="st14" d="M70.9,140.92c1.48,0.72,2.39,1.64,2.28,2.59c-0.74,0.32-4.57,0.45-6.04,0.18
				c-1.93-0.35-2.89-1.16-4.55-1.24l-0.11,0.94l-2.87-0.13l0.04-1.91c-0.07-1.26-0.12-2.05,0.48-3.26
				C61.3,139.95,68.07,141.67,70.9,140.92z"/>
		</g>
		<linearGradient id="SVGID_11_" gradientUnits="userSpaceOnUse" x1="53.3097" y1="78.5224" x2="56.5597" y2="110.3974">
			<stop  offset="0" style="stop-color:#8647E1"/>
			<stop  offset="1" style="stop-color:#B78FED"/>
		</linearGradient>
		<path class="st16" d="M51.74,92.46l-13.07,0.19c-2.7,8.36-1.72,12.38,1.36,14.65c2.88,2.12,19.46,4.62,24.99,6.38
			c3.27-5.21,5.54-7.27,9.33-10.73c-7.05-3.64-13.69-5.86-21.09-7.74L51.74,92.46z"/>
		<linearGradient id="SVGID_12_" gradientUnits="userSpaceOnUse" x1="50.3978" y1="78.8193" x2="53.6478" y2="110.6943">
			<stop  offset="0" style="stop-color:#8647E1"/>
			<stop  offset="1" style="stop-color:#B78FED"/>
		</linearGradient>
		<path class="st17" d="M42.43,92.74l-3.76-0.09c-2.7,8.36-1.72,12.38,1.36,14.65c2.88,2.12,19.46,4.62,24.99,6.38
			c1.45-2.32,2.71-4.01,3.98-5.48c-11.34-5.56-20.59-8.79-24.3-9.74L42.43,92.74z"/>
		<path class="st13" d="M52.21,60.02c-1,2.61-0.64,5.99-0.21,8.97l-5.52-0.75l-0.22-9.21l-0.85-4.2l5.14,3.6L52.21,60.02z"/>
		<linearGradient id="SVGID_13_" gradientUnits="userSpaceOnUse" x1="46.7495" y1="79.1913" x2="49.9995" y2="111.0663">
			<stop  offset="0" style="stop-color:#8647E1"/>
			<stop  offset="1" style="stop-color:#B78FED"/>
		</linearGradient>
		<path class="st18" d="M54.52,82.41l-2.68,6.9l1.08,4.58l-15.78,3.57c0.73-2.42,1.82-5.04,1.87-8.32
			c0.14-8.46-1.46-17.52,0.7-20.74c1.92-2.85,5.38-5.16,6.59-7.39c1.49,1.65,2.95,2.26,4.29,2.64c1.74,0.5,3.15,0.43,3.7,1.12
			c1.13,1.44,1.16,5.9,1.97,8.01c1.14,2.95,1.76,3.11,1.78,4.67C58.06,80.11,56.72,80.79,54.52,82.41z"/>
		<path class="st19" d="M46.26,60.98l-1.19,1.52c1.64,1.82,3.37,2.84,5.27,4.39l0.33-3.24C49,62.89,47.53,62.18,46.26,60.98z"/>
		<path class="st19" d="M51.66,62.61c-0.03,0.52-0.15,1.01-0.94,1.1l1.4,3.02C52.04,64.91,52.27,64.36,51.66,62.61z"/>
		<linearGradient id="SVGID_14_" gradientUnits="userSpaceOnUse" x1="44.796" y1="82.2193" x2="51.4627" y2="96.886">
			<stop  offset="0" style="stop-color:#DCDFFB"/>
			<stop  offset="1" style="stop-color:#F3F3FA"/>
		</linearGradient>
		<path class="st20" d="M46.22,71.03C46.2,73.43,45.96,75.55,46,78l0.13,7.59l-5.34,3.59c-0.18-0.29-0.23-0.33-0.24-0.58
			c-0.11-1.61-0.73-7.38-1.07-11.74c-0.37-4.88-0.66-7.82,2-9.57C43.06,66.26,46.25,66.42,46.22,71.03z"/>
		<path class="st13" d="M52.98,60.89c0.97,0.29,1.74,0.38,2.06-0.11c0.42-0.62,0.3-1.45,0.31-1.71c0.01-0.14,0.18-0.24,0.43-0.54
			c0.49-0.69-0.39-0.89-0.91-1.12c0.93,0.02,1.39,0.07,1.44-0.78l-0.29-0.22c-0.13-0.42-0.03-0.82,0.02-1
			c0.14-0.47,1.14-0.66,0.97-1.54c-0.65-0.51-1.39-1.38-1.69-2.38c-0.32-1.06,0.4-1.8-0.29-3.83c-0.54-1.6-1.75-2.92-3.53-3.52
			c-3.01-1.01-7.81-0.82-9.53,1.3c-4.76,5.84,3.75,12.82,3.88,12.91C47.73,59.61,50.43,60.14,52.98,60.89z"/>
		<path class="st21" d="M53.96,45.69c-1.04-2.03-9.04-4.68-12.66,0.68c-3.38,5.84-2.69,14.13-0.45,18.03
			c1.08,1.87,9.13,2.75,11.85,3.26c-1.08-0.82-2.03-1.5-2.79-2.55c0.25,0.18,0.51,0.34,0.77,0.48c-2.26-4.23-3.6-5.85-2.2-9.74
			C50.83,53.4,59.45,48.3,53.96,45.69z"/>
		<g>
			<path class="st13" d="M73.3,69.78c0.69-1.1,1.06-2.46,2.21-3.49c0.9-0.8,0.33-1.46-0.67-0.75c-1.14,0.8-1.66,1.53-2.55,2.48
				c-1.26,1.34-1.16,1.48-2.56,1.55c-4.04,0.09-3.23,0.33-6.4,3.36l2.25,1.53c2.28-1.37,5.64-2.14,6.38-2.85
				C72.52,71.08,72.78,70.6,73.3,69.78z"/>
			<linearGradient id="SVGID_15_" gradientUnits="userSpaceOnUse" x1="58.8365" y1="75.8372" x2="65.5032" y2="90.5039">
				<stop  offset="0" style="stop-color:#DCDFFB"/>
				<stop  offset="1" style="stop-color:#F3F3FA"/>
			</linearGradient>
			<path class="st22" d="M63.92,71.57c1.74,0.82,2.26,1.07,3.93,2.03c-3.02,5.01-5.68,9.83-9.56,14.59
				c-0.55,0.68-1.25,0.93-2.23,0.79c-0.34-0.05-0.67-0.14-0.97-0.31c-0.66-0.38-0.97-1.02-1.1-1.73c-0.09-0.5,0.57-1.28,0.96-2.09
				c0.71-1.48,1.49-3.11,2.08-3.66C59.86,78.58,62.27,74.43,63.92,71.57z"/>
		</g>
		<polygon class="st23" points="79.13,83.01 53.56,83.01 52.64,88.28 78.21,88.28 		"/>
		<path class="st13" d="M59.9,91.42c0.35,0.16,0.64,0.51,1.53,0.73l2.27-0.36l0.34-0.32c0.01-0.25,0.18-1.9,0.35-3.07
			c0.88-0.32,0.37-1.18,0.16-1.18c-1.26,0-2.9-0.21-3.83,0.26c-1.1,0.6-0.81,0.85-2.25,0.73l-0.21,2.86
			C58.93,91.13,59.49,91.24,59.9,91.42z"/>
		<linearGradient id="SVGID_16_" gradientUnits="userSpaceOnUse" x1="46.9603" y1="81.2355" x2="53.627" y2="95.9022">
			<stop  offset="0" style="stop-color:#DCDFFB"/>
			<stop  offset="1" style="stop-color:#F3F3FA"/>
		</linearGradient>
		<path class="st24" d="M59.75,87.58c0.14,1.92,0.18,2.49,0.15,4.42c-5.85-0.18-11.35-0.14-17.41-1.18
			c-0.86-0.15-1.42-0.63-1.78-1.56c-0.12-0.32-0.2-0.66-0.21-1c-0.03-1.75,1.97-2.52,3.23-3.08c0.49-0.22,0.84-0.24,1.49-0.18
			C48.85,87.44,55.53,87.53,59.75,87.58z"/>
	</g>
	<g>
		<linearGradient id="SVGID_17_" gradientUnits="userSpaceOnUse" x1="23.0463" y1="83.2854" x2="25.0463" y2="116.4521">
			<stop  offset="0" style="stop-color:#DCDFFB"/>
			<stop  offset="1" style="stop-color:#F3F3FA"/>
		</linearGradient>
		<path class="st25" d="M25.95,71.83c0.15,2.39,0.71,4.52,0.25,6.94l-3,15.78l-3.02-1.16c-0.2-0.26-0.25-0.3-0.28-0.55
			c-0.22-1.58,0.33-10.06-0.29-14.33c-0.7-4.78-1.18-7.67,1.36-9.75C22.47,67.52,25.67,67.26,25.95,71.83z"/>
		<polygon class="st12" points="0,73.41 6.62,73.41 12.32,117.25 3.65,117.71 		"/>
		<g>
			<path class="st13" d="M43.65,115.72c-2.22,7.79-6.29,19.86-6.2,23.15c0.09,3.37,7.94,4.73,7.66,7.38
				c-0.74,0.32-4.57,0.45-6.04,0.18c-1.93-0.34-2.89-1.16-4.55-1.24l-0.11,0.94L31.54,146l0.11-1.91c-0.01-3.62,1.5-4.52,1.77-6.25
				c0.76-4.99,0.99-12.4,0.97-17.71l5.43-9.5l5.75-4.44C45.92,108.17,44.58,112.42,43.65,115.72z"/>
			<path class="st14" d="M42.83,143.66c1.48,0.72,2.39,1.64,2.28,2.59c-0.74,0.32-4.57,0.45-6.04,0.18
				c-1.93-0.34-2.89-1.16-4.55-1.24l-0.11,0.94L31.54,146l0.04-1.91c-0.07-1.26-0.12-2.05,0.48-3.26
				C33.22,142.69,40,144.41,42.83,143.66z"/>
		</g>
		<linearGradient id="SVGID_18_" gradientUnits="userSpaceOnUse" x1="39.9229" y1="114.8672" x2="36.7562" y2="139.8672">
			<stop  offset="0" style="stop-color:#5C5E60"/>
			<stop  offset="1" style="stop-color:#9FA1A4"/>
		</linearGradient>
		<path class="st26" d="M43.64,115.72l-5.6,24.33l-4.68-1.03c0.76-4.99,1.03-13.59,1.02-18.89l5.21-10.6l5.93-3.51
			c0.25,0.35,0.23,1,0.22,1.15C45.62,109.42,44.43,112.97,43.64,115.72z"/>
		<rect x="17.49" y="116.58" class="st12" width="3.94" height="29.13"/>
		<path class="st15" d="M6.49,110.73h25.95c1.67,0,3.04,1.37,3.04,3.04v0.9c0,1.67-1.37,3.04-3.04,3.04H6.49
			c-1.67,0-3.04-1.37-3.04-3.04v-0.9C3.45,112.1,4.81,110.73,6.49,110.73z"/>
		<path class="st15" d="M12.66,143.44h13.6c0.88,0,1.59,0.72,1.59,1.59v0.47c0,0.88-0.72,1.59-1.59,1.59h-13.6
			c-0.88,0-1.59-0.72-1.59-1.59v-0.47C11.07,144.15,11.79,143.44,12.66,143.44z"/>
		<g>
			<path class="st13" d="M41.66,116.24c-2.22,7.79-6.29,19.86-6.2,23.15c0.09,3.37,7.94,4.73,7.66,7.38
				c-0.74,0.32-4.57,0.45-6.04,0.18c-1.93-0.35-2.89-1.16-4.55-1.24l-0.12,0.94l-2.87-0.13l0.11-2.01c-0.01-3.62,1.5-4.42,1.77-6.15
				c0.75-4.99,0.99-12.4,0.97-17.71l5.43-9.5l5.16-3.36C43.34,109.77,42.6,112.94,41.66,116.24z"/>
			<path class="st14" d="M40.84,144.18c1.48,0.72,2.39,1.64,2.28,2.59c-0.74,0.32-4.57,0.45-6.04,0.18
				c-1.93-0.35-2.89-1.16-4.55-1.24l-0.11,0.94l-2.87-0.13l0.04-1.91c-0.07-1.26-0.12-2.05,0.48-3.26
				C31.24,143.21,38.01,144.92,40.84,144.18z"/>
		</g>
		<linearGradient id="SVGID_19_" gradientUnits="userSpaceOnUse" x1="25.3908" y1="109.9439" x2="18.8908" y2="150.4439">
			<stop  offset="0" style="stop-color:#5C5E60"/>
			<stop  offset="1" style="stop-color:#9FA1A4"/>
		</linearGradient>
		<path class="st27" d="M21.68,95.72L8.61,95.91c-2.7,8.36-1.72,12.38,1.36,14.65c2.88,2.12,20.32,0.14,25.85,1.9
			c3.27-5.21,5.91-2.97,9.71-6.43c-7.05-3.64-14.92-5.69-22.33-7.57L21.68,95.72z"/>
		<linearGradient id="SVGID_20_" gradientUnits="userSpaceOnUse" x1="24.2737" y1="109.7646" x2="17.7737" y2="150.2646">
			<stop  offset="0" style="stop-color:#5C5E60"/>
			<stop  offset="1" style="stop-color:#9FA1A4"/>
		</linearGradient>
		<path class="st28" d="M15.9,95.39l-7.29,0.52c-2.7,8.36-1.72,12.38,1.36,14.65c2.88,2.12,21.09,1.09,26.63,2.85
			c0.83-0.54,7.71-5.61,6.18-6.23c-10.89-4.43-19.71-5.31-23.32-6.23L15.9,95.39z"/>
		<path class="st13" d="M22.15,63.27c-1,2.61-0.64,5.99-0.21,8.97l-5.52-0.75l-0.22-9.21l-0.84-4.2l5.14,3.6L22.15,63.27z"/>
		<linearGradient id="SVGID_21_" gradientUnits="userSpaceOnUse" x1="17.0985" y1="83.6441" x2="19.0985" y2="116.8108">
			<stop  offset="0" style="stop-color:#DCDFFB"/>
			<stop  offset="1" style="stop-color:#F3F3FA"/>
		</linearGradient>
		<path class="st29" d="M24.45,85.66l-2.68,6.9l1.08,4.58l-15.78,3.57c0.73-2.42,1.82-5.04,1.87-8.32
			c0.14-8.46-1.46-17.52,0.7-20.74c1.92-2.85,5.38-5.16,6.59-7.39l4.85,8.24l0.23-5.4c1.37,0.3,2.45,0.34,2.91,0.93
			c1.13,1.44,1.16,5.9,1.97,8.01c1.14,2.95,1.76,3.11,1.78,4.67C28,83.37,26.66,84.04,24.45,85.66z"/>
		<polygon class="st30" points="16.2,64.45 14.62,65.71 18,72.9 19.45,69.5 		"/>
		<polygon class="st19" points="21.34,65.88 21.15,70.1 22.76,70.38 		"/>
		<linearGradient id="SVGID_22_" gradientUnits="userSpaceOnUse" x1="16.4508" y1="110.1596" x2="12.1174" y2="73.8263">
			<stop  offset="0" style="stop-color:#DCDFFB"/>
			<stop  offset="1" style="stop-color:#F3F3FA"/>
		</linearGradient>
		<path class="st31" d="M15.94,74.75c-0.01,2.4-0.2,4.53-0.22,6.98l-0.05,8.71l-4.95,2c-0.18-0.29-0.23-0.33-0.24-0.58
			c-0.11-1.61-0.73-7.38-1.07-11.74c-0.37-4.88-0.74-7.73,1.91-9.48C12.91,69.6,15.97,70.15,15.94,74.75z"/>
		<path class="st13" d="M22.92,64.14c0.97,0.29,1.74,0.38,2.06-0.11c0.42-0.62,0.3-1.45,0.32-1.71c0.01-0.14,0.18-0.24,0.43-0.54
			c0.49-0.69-0.39-0.89-0.91-1.12c0.93,0.02,1.39,0.07,1.44-0.78l-0.29-0.22c-0.13-0.42-0.03-0.82,0.03-1
			c0.14-0.47,1.14-0.66,0.97-1.54c-0.65-0.51-1.39-1.38-1.69-2.38c-0.32-1.06,0.4-1.8-0.29-3.83c-0.54-1.6-1.75-2.92-3.53-3.52
			c-3.01-1.01-7.81-0.82-9.53,1.3c-4.76,5.84,3.75,12.82,3.88,12.91C17.67,62.87,20.37,63.39,22.92,64.14z"/>
		<path class="st21" d="M23.04,48.3c-0.74-1.17-8.53-4.16-12.15,1.2C8.1,54.31,9.6,60.8,15.57,61.1c1.75-0.53,1.62-3.88,3.49-7.35
			C20,52.01,20.61,49.77,23.04,48.3z"/>
		<path class="st21" d="M23.02,48.35c1.76,0.47,2.41,2.54,2.22,5.48c-1.66,0.7-4.58,0.46-6.52,0.2C19,50.94,22.14,48.51,23.02,48.35
			z"/>
		<g>
			<path class="st21" d="M9.57,55.59c0.51,7.8,5.9,9.83,7.41,12.06c0.3-0.8-0.35-7.98,2.15-14.51l-7.15,0.43L9.57,55.59z"/>
			<path class="st21" d="M23.63,81.25c3.09-10.75-7.32-12.51-8.9-22.32C14.96,73.24,21.82,71.19,23.63,81.25z"/>
		</g>
		<linearGradient id="SVGID_23_" gradientUnits="userSpaceOnUse" x1="38.7748" y1="112.092" x2="32.2748" y2="152.592">
			<stop  offset="0" style="stop-color:#5C5E60"/>
			<stop  offset="1" style="stop-color:#9FA1A4"/>
		</linearGradient>
		<path class="st32" d="M42.35,116.24l-6.29,24.35l-5.32-0.86l1.92-19l4.39-9.59l5.26-4.15C45.12,108.13,43.1,113.6,42.35,116.24z"
			/>
		<g>
			<path class="st33" d="M35.49,100.77c0.19,0.31,2.85,2.64,2.54,2.51c-3.28-1.38-3.33-1.26-4.6-0.92
				c-1.62,0.43-2.83-0.44-3.92-1.49c0,0,0.28-1.49,0.34-1.59c0.06-0.09,2-0.34,2.11-0.29C32.06,99.04,35.56,100.75,35.49,100.77z"/>
			<path class="st13" d="M33.03,98.95c0.71,0.1,1.68,0.38,2.14,0.6c0.37,0.18,0.58,0.48,0.93,0.8c0.37,0.33,0.88,0.68,1.54,1.29
				c1.29,1.18,2.15,1.79,1.98,2.13c-0.14,0.26-0.82,0.09-2.14-0.82l-2.23-1.53c-0.32-0.04-0.64-0.17-1.02-0.22
				c-0.38-0.04-0.87-0.1-1.31-0.16l-3.97-1.37l0.32-1.08C30.77,98.71,31.76,98.77,33.03,98.95z"/>
		</g>
		<linearGradient id="SVGID_24_" gradientUnits="userSpaceOnUse" x1="26.2835" y1="83.0902" x2="28.2835" y2="116.2569">
			<stop  offset="0" style="stop-color:#DCDFFB"/>
			<stop  offset="1" style="stop-color:#F3F3FA"/>
		</linearGradient>
		<path class="st34" d="M32.37,98.39l-1.81,3.38l-8.62-5.19l0.02-3.92l1.86-0.74C27.06,95.45,28.67,96.37,32.37,98.39z"/>
		<g>
			<path class="st13" d="M33.12,100.99c0.19,0.31,2.85,2.64,2.54,2.51c-3.28-1.38-3.33-1.26-4.6-0.92
				c-1.62,0.44-2.83-0.44-3.92-1.49c0,0,0.28-1.49,0.34-1.59c0.06-0.09,2-0.33,2.11-0.29C29.69,99.25,33.19,100.97,33.12,100.99z"/>
			<path class="st13" d="M30.67,99.17c0.71,0.1,1.68,0.38,2.14,0.6c0.37,0.18,0.58,0.48,0.93,0.8c0.37,0.33,0.88,0.68,1.54,1.29
				c1.29,1.18,2.15,1.79,1.98,2.13c-0.14,0.26-0.82,0.09-2.14-0.82l-2.23-1.53c-0.32-0.04-0.64-0.17-1.02-0.22
				c-0.38-0.04-0.87-0.1-1.31-0.16l-3.97-1.36l0.32-1.08C28.4,98.93,29.4,98.99,30.67,99.17z"/>
		</g>
		<linearGradient id="SVGID_25_" gradientUnits="userSpaceOnUse" x1="21.5218" y1="109.5548" x2="17.1885" y2="73.2215">
			<stop  offset="0" style="stop-color:#DCDFFB"/>
			<stop  offset="1" style="stop-color:#F3F3FA"/>
		</linearGradient>
		<path class="st35" d="M28.96,98.61c-0.66,1.81-0.78,1.74-1.59,3.49c-5.26-2.56-10.29-4.78-15.39-8.22
			c-0.73-0.49-1.21-0.99-1.28-1.81c-0.03-0.34,0.38-1.03,0.52-1.34c0.69-1.61,2.03-1.47,3.39-1.31l1.21,0.15
			C19.29,92.9,25.14,96.85,28.96,98.61z"/>
	</g>
	<g>
		<g>
			<path class="st13" d="M107.93,43.16c0.35,0.3,0.32-0.63,0.68-0.35c0.93,0.75,1.53,0.96,1.92,1.5c0.4,0.55,0.4,1.49,0.67,2.44
				c0.18,0.63,1.3,1.63,1.59,2.24l-2.62,1.8c-0.33-0.61-0.57-0.92-0.84-0.92c-1.62,0.02-2.37-1.38-3.83-2.68
				c-0.16-0.14,0.38,0.03,0.38-0.33c-0.68-0.7-0.6-0.55-0.82-1.49c-0.85-0.76-0.58-0.64-0.63-1.76L107.93,43.16z"/>
			<path class="st13" d="M108.16,47.8c-0.3-0.08-2.2-0.29-2.36-0.43c-0.56-0.5-0.37-1.66-0.46-2.05c-0.85-0.76-0.81-0.78-0.87-1.9
				l3.29-0.69c0.59,1.14,0.86,1.01,1.41,1.61c0.44,0.49,1.4,1.98,1.22,2.63c-0.06,0.2-0.08,0.12-0.27,0.26
				C109.36,47.79,109.43,48.13,108.16,47.8z"/>
			<path class="st36" d="M110.04,45.16l-0.37-0.05c-0.22-0.47-0.44-0.72-0.78-1.02c-0.53-0.45-1.17-1.02-1.24-1.6
				c0.58,1,1.32,1.29,1.83,1.87C109.73,44.63,109.89,44.9,110.04,45.16z"/>
			<path class="st37" d="M112.19,47.65c-1.05,0.9-2.06,1.74-3.16,2.58l1.35,1.16l3.46-1.79L112.19,47.65z"/>
			<path class="st13" d="M107.56,41.93c0.35,0.3,0.69,0.6,1.04,0.88c0.94,0.75,1.53,0.96,1.92,1.5c0.21,0.29,0.31,0.71,0.4,1.17
				l-0.07,2.15l-0.88-0.41l-0.66-1.82c-0.22-0.48-0.48-0.85-0.83-1.15C107.74,43.61,106.74,42.71,107.56,41.93z"/>
			<path class="st38" d="M109.41,46.31c0.32,0.4,0.3,1.29-0.21,1.29l0,0c-0.51,0-1,0.21-1.29-0.21L88.54,20.14L109.41,46.31z"/>
			<path class="st13" d="M106.27,47.62c-0.27-0.07-0.51-0.17-0.74-0.39c-0.24-0.22-0.45-0.59-0.32-0.88
				c0.61-0.16,1.27-0.31,1.88-0.46c0.24-0.06,0.45,0.27,0.4,0.55c-0.05,0.24-0.6,0.45-1,0.61c-0.24,0.1-0.3,0.13-0.26,0.25
				C106.25,47.43,106.27,47.52,106.27,47.62L106.27,47.62z M105.16,46.32l0.11-0.04l0.2-0.06l1.3-0.33
				c0.43-0.09,1.04-0.19,1.21-0.44c0.1-0.15,0.16-0.3,0-0.55c-0.12-0.19-0.27-0.29-0.48-0.22c-0.93,0.3-1.78,0.47-2.73,0.65
				c-0.2,0.15-0.12,0.34-0.05,0.53C104.78,46.04,104.86,46.33,105.16,46.32L105.16,46.32z M104.79,45.29
				c-0.23-0.03-0.34-0.12-0.41-0.31c-0.07-0.17-0.14-0.47-0.05-0.63c0.05-0.08,0.12-0.13,0.23-0.2c0.22-0.06,0.52-0.1,0.89-0.17
				c0.66-0.12,1.46-0.26,1.78-0.23c0.51,0.04,0.76,0.69,0.27,0.91C106.5,44.92,105.7,45.11,104.79,45.29L104.79,45.29z M104.09,43.9
				c0.19,0.19,1.66-0.05,2.14-0.17c0.38-0.1,0.42-0.39,0.36-0.6c-0.14-0.47-0.7-0.46-1.31-0.4c-0.4,0.04-0.83,0.07-1.14,0.11
				C103.7,42.9,103.84,43.66,104.09,43.9z"/>
		</g>
		<g>
			<linearGradient id="SVGID_26_" gradientUnits="userSpaceOnUse" x1="125.882" y1="44.5876" x2="125.882" y2="99.2705">
				<stop  offset="0" style="stop-color:#8647E1"/>
				<stop  offset="1" style="stop-color:#B78FED"/>
			</linearGradient>
			<path class="st39" d="M127.64,40.89c-0.82-0.04-1.47,1.9-2.19,4.36c-1.11,3.79-2.62,8.94-4.32,12.65l0.01,6.8
				c0.26,0.88,0.16,1.47,0.39,1.83c0.47,0.75,4.25-4.15,4.79-5.04c1.73-2.85,2.83-6.04,4.32-9.19
				C129.31,46.61,130.98,45.69,127.64,40.89z"/>
			<linearGradient id="SVGID_27_" gradientUnits="userSpaceOnUse" x1="115.5852" y1="44.5876" x2="115.5852" y2="99.2705">
				<stop  offset="0" style="stop-color:#8647E1"/>
				<stop  offset="1" style="stop-color:#B78FED"/>
			</linearGradient>
			<path class="st40" d="M121.28,58.08c-2.06-2.71-6.13-7.71-8.38-10.27c-0.94,0.96-2.4,2.73-4.2,3.72
				c3.76,5.69,6.93,10.69,11.99,14.7c0.87,0.69,1.42,0.22,1.59-0.01C123,65.27,121.6,59.74,121.28,58.08z"/>
		</g>
		<g>
			<path class="st14" d="M134.89,137.75l-2.01,2.62l-3.02,2.93c-0.31,0.24-0.4,1.81,0.15,1.72l3.11,0.26
				c0.99,0.08,2.06-0.33,2.95-0.82c0.65-0.36,1.29-0.95,2.1-1.51l0.35,0.71l2.93-1.11l0.07-2.18c0.37-2.35-0.48-2.73-0.78-4.37
				l-5.13,0.12L134.89,137.75z"/>
			<polygon class="st14" points="148.46,136.27 148.58,142.43 151.52,145.84 156.32,145.17 156.52,140.56 153.94,135.52 			"/>
			<linearGradient id="SVGID_28_" gradientUnits="userSpaceOnUse" x1="148.1271" y1="137.5876" x2="148.1271" y2="94.7909">
				<stop  offset="0" style="stop-color:#9FA1A4"/>
				<stop  offset="1" style="stop-color:#5C5E60"/>
			</linearGradient>
			<polygon class="st41" points="150.65,72.32 153.5,87.4 155.2,136.8 151.61,137.83 147.52,137.35 143.35,90.42 142.44,89.94 
				141.05,72.4 			"/>
			<linearGradient id="SVGID_29_" gradientUnits="userSpaceOnUse" x1="136.3703" y1="137.5876" x2="136.3703" y2="94.7909">
				<stop  offset="0" style="stop-color:#9FA1A4"/>
				<stop  offset="1" style="stop-color:#5C5E60"/>
			</linearGradient>
			<path class="st42" d="M132.84,72.32l-2.54,13.5c2.65,16.95,2.99,34.61,3.93,51.77l3.73,0.35l4.13-0.19l-0.22-47.01l0.58-0.79
				l0-17.55L132.84,72.32z"/>
			<linearGradient id="SVGID_30_" gradientUnits="userSpaceOnUse" x1="139.2286" y1="137.5876" x2="139.2286" y2="94.7909">
				<stop  offset="0" style="stop-color:#9FA1A4"/>
				<stop  offset="1" style="stop-color:#5C5E60"/>
			</linearGradient>
			<polygon class="st43" points="136.01,89.94 137.92,137.91 142.09,137.75 141.87,90.74 142.44,89.94 142.44,72.4 138.23,72.83 			
				"/>
			<linearGradient id="SVGID_31_" gradientUnits="userSpaceOnUse" x1="150.5494" y1="137.5876" x2="150.5494" y2="94.7909">
				<stop  offset="0" style="stop-color:#9FA1A4"/>
				<stop  offset="1" style="stop-color:#5C5E60"/>
			</linearGradient>
			<polygon class="st44" points="150.65,72.32 153.5,87.4 155.2,136.8 151.73,137.78 148.59,88.67 145.89,72.36 			"/>
			<g>
				<g>
					<rect x="138.06" y="31.42" class="st13" width="7.66" height="6.19"/>
					<path class="st13" d="M141.82,34.36c-0.02,0-0.04,0-0.06,0c-0.77,0-1.15-0.01-1.57-0.18c-0.4-0.17-0.6-0.57-1.15-1.1
						c-0.47-0.45-1.32-0.92-1.53-1.41c-0.25-0.6-0.19-1.26-0.3-2.14c-0.44,0.24-0.91-1.01-1-1.42c-0.14-0.61-0.57-1.64-0.71-2.33
						c-0.08-0.4-0.03-0.71,0.1-0.81c0.29-0.21,0.58-0.1,1,0.48c0.03-0.49,0.06-0.99,0.04-1.53c-0.03-1-0.06-1.83,0.07-2.54
						c0.12-0.71,0.4-1.3,0.98-1.82l0,0c0,0,0,0,0,0c0.32-0.28,0.68-0.53,1.08-0.73c0,0,0.01,0,0.01,0c0.03-0.01,0.05-0.02,0.08-0.04
						c0.01-0.01,0.03-0.01,0.04-0.02c0.02-0.01,0.04-0.02,0.06-0.03c0.02-0.01,0.04-0.02,0.06-0.03c0.02-0.01,0.04-0.02,0.07-0.03
						c0.02-0.01,0.04-0.02,0.06-0.03c0.03-0.01,0.06-0.02,0.08-0.03c0.01-0.01,0.03-0.01,0.04-0.02c0.04-0.02,0.08-0.03,0.13-0.05
						c0,0,0,0,0,0c1.05-0.38,2.25-0.49,3.38-0.32c1.13,0.17,2.19,0.61,2.98,1.31c0.58,0.52,0.85,1.1,0.98,1.81
						c0.12,0.7,0.1,1.53,0.07,2.53c-0.02,0.54,0.02,1.04,0.05,1.54c0.42-0.56,0.71-0.67,0.99-0.46c0.13,0.1,0.18,0.41,0.1,0.81
						c-0.14,0.69-0.57,1.72-0.71,2.33c-0.09,0.41-0.55,1.64-0.98,1.43c-0.1,0.85-0.04,1.49-0.29,2.08c-0.21,0.5-1.05,0.97-1.52,1.43
						c-0.55,0.54-0.75,0.94-1.15,1.12C142.9,34.34,142.53,34.36,141.82,34.36z"/>
				</g>
				<path class="st21" d="M138.19,20.62c-0.36,0.43-1.27,3.38-1.15,6.2c-1.21-4.41-1.87-7.55,0.77-9.54
					c3.46-2.6,7.64-0.93,7.98,0.07c2.77,0.97,1.66,5.36,0.9,8.85c-0.02-1.75-0.39-3.92-1.27-5.45c-0.21-0.2-1.11,0.96-1.31,0.95
					C142.05,21.57,141.33,21.12,138.19,20.62z"/>
			</g>
			<linearGradient id="SVGID_32_" gradientUnits="userSpaceOnUse" x1="140.8839" y1="47.9209" x2="140.8839" y2="74.1721">
				<stop  offset="0" style="stop-color:#F3F3FA"/>
				<stop  offset="1" style="stop-color:#DCDFFB"/>
			</linearGradient>
			<polygon class="st45" points="136.87,36.44 141.75,37.04 146.69,36.4 146.23,75.16 137.37,75.16 135.08,43.24 			"/>
			<g>
				<linearGradient id="SVGID_33_" gradientUnits="userSpaceOnUse" x1="144.1818" y1="42.7959" x2="144.1818" y2="33.2828">
					<stop  offset="0" style="stop-color:#F3F3FA"/>
					<stop  offset="1" style="stop-color:#DCDFFB"/>
				</linearGradient>
				<path class="st46" d="M145.74,34.66c0.12,0.86,0.38,1.25,0.95,1.68l-2.44,4.17l-2.58-3.61
					C142.95,36.19,145.24,35.3,145.74,34.66z"/>
				<linearGradient id="SVGID_34_" gradientUnits="userSpaceOnUse" x1="139.2706" y1="42.7959" x2="139.2706" y2="33.2828">
					<stop  offset="0" style="stop-color:#F3F3FA"/>
					<stop  offset="1" style="stop-color:#DCDFFB"/>
				</linearGradient>
				<path class="st47" d="M137.71,34.66c-0.12,0.86-0.38,1.25-0.95,1.68l2.44,4.17l2.58-3.61C140.5,36.19,138.21,35.3,137.71,34.66z
					"/>
			</g>
			<linearGradient id="SVGID_35_" gradientUnits="userSpaceOnUse" x1="141.7262" y1="55.9209" x2="141.7262" y2="42.1346">
				<stop  offset="0" style="stop-color:#9FA1A4"/>
				<stop  offset="1" style="stop-color:#5C5E60"/>
			</linearGradient>
			<polygon class="st48" points="141.88,37.17 143.53,39.61 143.49,40.23 142.12,41.62 143.65,44.07 141.74,63.86 141.73,63.59 
				141.71,63.86 139.8,44.07 141.33,41.62 139.97,40.23 139.92,39.61 141.58,37.17 141.73,37.17 			"/>
			<linearGradient id="SVGID_36_" gradientUnits="userSpaceOnUse" x1="133.7423" y1="44.5876" x2="133.7423" y2="99.2705">
				<stop  offset="0" style="stop-color:#8647E1"/>
				<stop  offset="1" style="stop-color:#B78FED"/>
			</linearGradient>
			<path class="st49" d="M127.56,40.84c-1.02,0.4-0.33,1.25-0.08,2.3c2.24,9.34,3.22,15.16,3.65,20.85
				c0.4,5.3-0.31,10.61-1.25,19.82l9.97,0.08l0.61-18.22c0.03-0.94-0.02-1.88-0.14-2.85l-3.45-26.35
				C134.78,38.37,133.18,38.61,127.56,40.84z"/>
			<linearGradient id="SVGID_37_" gradientUnits="userSpaceOnUse" x1="150.0706" y1="44.5876" x2="150.0706" y2="99.2705">
				<stop  offset="0" style="stop-color:#8647E1"/>
				<stop  offset="1" style="stop-color:#B78FED"/>
			</linearGradient>
			<path class="st50" d="M156.6,41.01c1.02,0.4,0.29,1.24,0.08,2.3c-1.12,5.5-3.46,14.01-3.77,20.24
				c-0.29,5.72,0.53,14.15,0.84,20.01h-10.37l-0.37-17.9c-0.02-0.94,0.02-1.88,0.14-2.85l3.45-26.35
				C148.69,38.37,150.98,38.78,156.6,41.01z"/>
			<g>
				<g>
					<polygon class="st51" points="156.99,63.46 151.54,60.83 151.87,69.27 153.74,78.61 158.11,79.38 					"/>
					<polygon class="st52" points="150.19,61.1 151.54,60.83 153.74,78.61 152.47,78.45 					"/>
				</g>
				<g>
					<path class="st13" d="M157.97,79.69c-0.18,0.67-0.23,1.08-0.93,0.96c-0.59-0.1-0.97-0.15-1.35-0.16
						c-0.5-0.01-0.98,0.07-1.92,0.22l-0.88-0.92l-0.36-1.63l1.17,0.36l0.16,0.7l1.87-0.26c0.14-1.95-0.53-2.53-0.39-3.59
						c0.08-0.62,0.13-1.18,1.12-2.57l1.69-0.2l0.93,0.88C159.07,76.07,158.63,77.21,157.97,79.69z"/>
					<path class="st13" d="M156.25,73.41c-0.64,0.43-1.05,0.58-1.33,1.08c-0.25,0.45-0.21,0.8-0.28,1.21
						c-0.08,0.44-0.44,0.93-0.54,1.65c-0.07,0.51,0.3,0.77,0.65,0.66c0.29-0.09,0.54-0.44,0.79-0.99l0.32-0.69l0.63-1.3
						L156.25,73.41z"/>
				</g>
				<linearGradient id="SVGID_38_" gradientUnits="userSpaceOnUse" x1="157.4784" y1="44.5876" x2="157.4784" y2="99.2705">
					<stop  offset="0" style="stop-color:#8647E1"/>
					<stop  offset="1" style="stop-color:#B78FED"/>
				</linearGradient>
				<path class="st53" d="M156.54,41.23c0.77-0.03,1.49,2.51,1.77,3.69l3.67,15.73c0.49,1.94,0.48,2.13-0.02,4.48l-2.76,10.74
					c-0.17-2.23-2.37-2.71-4.12-2.18l1.13-9.09c0.19-1.87,0.24-1.73-0.39-3.5l-3.2-8.56C153.08,50.26,153.9,41.28,156.54,41.23z"/>
			</g>
		</g>
	</g>
</g>
</svg>
