<?xml version="1.0" encoding="utf-8"?>
<!-- Generator: Adobe Illustrator 25.2.1, SVG Export Plug-In . SVG Version: 6.00 Build 0)  -->
<svg version="1.1" id="Layer_1" xmlns="http://www.w3.org/2000/svg" width="400" xmlns:xlink="http://www.w3.org/1999/xlink" x="0px" y="0px"
	 viewBox="0 0 110.76 115.97" style="enable-background:new 0 0 110.76 115.97;" xml:space="preserve">
<style type="text/css">
	.st0{opacity:0.4;fill:#FFFFFF;}
	.st1{opacity:0.702;fill:#FFFFFF;}
	.st2{fill:#FFFFFF;}
	.st3{fill:url(#SVGID_1_);}
	.st4{fill:url(#SVGID_2_);}
	.st5{fill:url(#SVGID_3_);}
	.st6{fill:url(#SVGID_4_);}
	.st7{fill:#5B5B5B;}
	.st8{fill:url(#SVGID_5_);}
	.st9{fill:#969696;}
	.st10{enable-background:new    ;}
	.st11{fill:#F3F5FD;}
	.st12{fill:url(#SVGID_6_);}
	.st13{fill:#BABABA;}
	.st14{fill:#1A1A1A;}
	.st15{fill:#FFD6D6;}
	.st16{fill:#C5D5E7;}
	.st17{fill:url(#SVGID_7_);}
	.st18{fill:#814D4D;}
	.st19{fill:url(#SVGID_8_);}
	.st20{fill:url(#SVGID_9_);}
	.st21{fill:url(#SVGID_10_);}
	.st22{fill:#DF9877;}
	.st23{fill:url(#SVGID_11_);}
	.st24{fill:url(#SVGID_12_);}
	.st25{fill:url(#SVGID_13_);}
	.st26{fill:#450606;}
	.st27{fill:url(#SVGID_14_);}
	.st28{fill:url(#SVGID_15_);}
	.st29{fill:url(#SVGID_16_);}
	.st30{fill:url(#SVGID_17_);}
	.st31{fill:url(#SVGID_18_);}
	.st32{fill:url(#SVGID_19_);}
	.st33{fill:url(#SVGID_20_);}
	.st34{fill:url(#SVGID_21_);}
	.st35{fill:url(#SVGID_22_);}
	.st36{fill:url(#SVGID_23_);}
	.st37{fill:url(#SVGID_24_);}
	.st38{fill:url(#SVGID_25_);}
	.st39{fill:url(#SVGID_26_);}
	.st40{fill:url(#SVGID_27_);}
	.st41{fill:url(#SVGID_28_);}
</style>
<g>
	<g>
		<g>
			<g>
				<path class="st0" d="M12.45,30.15c0.94-0.54,2.47-0.54,3.41,0c0.94,0.54,0.94,1.43-0.01,1.97c-0.95,0.55-2.48,0.54-3.41,0
					C11.51,31.58,11.51,30.69,12.45,30.15z"/>
			</g>
			<g>
				<path class="st1" d="M6.58,33.54c0.94-0.54,2.47-0.54,3.41,0c0.94,0.54,0.94,1.43-0.01,1.97c-0.95,0.55-2.48,0.54-3.41,0
					C5.64,34.97,5.64,34.08,6.58,33.54z"/>
			</g>
			<g>
				<path class="st2" d="M0.71,36.93c0.94-0.54,2.47-0.54,3.41,0c0.94,0.54,0.94,1.43-0.01,1.97c-0.95,0.55-2.48,0.54-3.41,0
					S-0.24,37.47,0.71,36.93z"/>
			</g>
		</g>
		
			<linearGradient id="SVGID_1_" gradientUnits="userSpaceOnUse" x1="-181.657" y1="20.5257" x2="-183.4897" y2="18.3264" gradientTransform="matrix(-1 0 0 1 -133.5059 0)">
			<stop  offset="0" style="stop-color:#F3F3FA"/>
			<stop  offset="1" style="stop-color:#DCDFFB"/>
		</linearGradient>
		<path class="st3" d="M49.7,17.4c1.16,0.23,1.95,1.16,1.77,2.08c-0.18,0.92-1.27,1.47-2.43,1.24c-1.16-0.23-1.95-1.16-1.77-2.08
			C47.45,17.72,48.54,17.17,49.7,17.4z"/>
		<g>
			
				<linearGradient id="SVGID_2_" gradientUnits="userSpaceOnUse" x1="-168.1394" y1="116.7719" x2="-168.1394" y2="71.3372" gradientTransform="matrix(-1 0 0 1 -133.5059 0)">
				<stop  offset="0" style="stop-color:#F3F3FA"/>
				<stop  offset="1" style="stop-color:#DCDFFB"/>
			</linearGradient>
			<path class="st4" d="M21.1,33.17l26.89-15.52c0.9-0.52,1.63-0.1,1.63,0.93l0.16,60.68c0,1.03-0.72,2.29-1.62,2.81L21.28,97.58
				c-0.9,0.52-1.79,0.1-1.8-0.93V35.98C19.48,34.94,20.2,33.68,21.1,33.17z"/>
		</g>
		<g>
			<path class="st2" d="M22.97,34.15l26.89-15.52c0.9-0.52,1.63-0.1,1.63,0.93l0.16,60.68c0,1.03-0.72,2.29-1.62,2.81L23.15,98.57
				c-0.9,0.52-1.63,0.1-1.63-0.93l-0.16-60.68C21.35,35.93,22.08,34.67,22.97,34.15z"/>
		</g>
		<g>
			
				<linearGradient id="SVGID_3_" gradientUnits="userSpaceOnUse" x1="-169.9952" y1="54.7816" x2="-169.9952" y2="87.4762" gradientTransform="matrix(-1 0 0 1 -133.5059 0)">
				<stop  offset="0" style="stop-color:#F3F3FA"/>
				<stop  offset="1" style="stop-color:#DCDFFB"/>
			</linearGradient>
			<polygon class="st5" points="49.37,76.65 23.73,91.45 23.61,43.42 49.25,28.61 			"/>
		</g>
		<g>
			
				<linearGradient id="SVGID_4_" gradientUnits="userSpaceOnUse" x1="-182.7556" y1="34.9206" x2="-157.0904" y2="34.9206" gradientTransform="matrix(-1 0 0 1 -133.5059 0)">
				<stop  offset="0" style="stop-color:#F3F3FA"/>
				<stop  offset="1" style="stop-color:#DCDFFB"/>
			</linearGradient>
			<polygon class="st6" points="49.25,29.35 23.61,44.16 23.58,40.49 49.23,25.68 			"/>
		</g>
		<g>
			<path class="st7" d="M35.61,29.61l1.79-1.03c0.43-0.25,0.78-0.05,0.78,0.45c0,0.49-0.35,1.1-0.78,1.34l-1.79,1.03
				c-0.43,0.25-0.78,0.05-0.78-0.45C34.83,30.46,35.18,29.86,35.61,29.61z"/>
		</g>
		<g>
			
				<linearGradient id="SVGID_5_" gradientUnits="userSpaceOnUse" x1="-166.5281" y1="47.0955" x2="-147.4309" y2="47.0955" gradientTransform="matrix(-1 0 0 1 -133.5059 0)">
				<stop  offset="0" style="stop-color:#8647E1"/>
				<stop  offset="1" style="stop-color:#B78FED"/>
			</linearGradient>
			<path class="st8" d="M18.24,42.06l10.44-5.93c2.39-1.38,4.33-0.27,4.34,2.47v8.77v6.97l-2.71-3.16l-12.03,6.86
				c-2.39,1.38-4.33,0.27-4.34-2.47l-0.02-6.04C13.92,46.79,15.85,43.44,18.24,42.06z"/>
		</g>
		<g>
			<path class="st2" d="M22.98,44c0.07-0.14,0.1-0.28,0.1-0.41l0-1.51c0-0.09,0.06-0.19,0.13-0.23c0.64-0.27,1.18-0.29,1.19,0.99
				l-0.07,1.63l0.06-0.04l1.87-1.08c0.38-0.22,0.71-0.08,0.74,0.34c0.03,0.4-0.23,0.91-0.56,1.19c0.32-0.11,0.57,0.08,0.57,0.48
				c0,0.41-0.27,0.92-0.62,1.17c0.19,0.05,0.31,0.25,0.27,0.56c-0.05,0.4-0.34,0.83-0.66,1.01l-0.04,0.02
				c0.18,0.03,0.3,0.2,0.3,0.47c0,0.41-0.27,0.9-0.6,1.09l-1.13,0.65l-0.17,0.1l-1.11,0.64c-0.46,0.27-1.1,0.36-1.5,0.16l-2.02,1.17
				l-0.01-4.3l1.74-0.94L22.98,44z"/>
		</g>
		<g>
			<g>
				<path class="st9" d="M38.43,39.52l7.05-4.07c0.87-0.5,1.58-0.1,1.58,0.9l0.02,8.1c0,1-0.7,2.22-1.57,2.73l-7.05,4.07
					c-0.87,0.5-1.58,0.1-1.58-0.9l-0.02-8.1C36.85,41.25,37.56,40.02,38.43,39.52z"/>
			</g>
			<g>
				<path class="st2" d="M38.94,46.09c0.05-0.03,0.1-0.05,0.15-0.07l1.31-3.08c-0.09-0.08-0.14-0.22-0.14-0.4
					c0-0.45,0.31-0.99,0.7-1.22c0.39-0.23,0.71-0.04,0.71,0.4c0,0.18-0.05,0.38-0.14,0.56l1.31,1.57c0.05-0.04,0.1-0.08,0.15-0.11
					c0.05-0.03,0.1-0.05,0.15-0.07l1.31-3.08c-0.09-0.08-0.14-0.22-0.14-0.4c0-0.45,0.31-0.99,0.7-1.22
					c0.39-0.22,0.71-0.04,0.71,0.4c0,0.45-0.31,0.99-0.7,1.22c-0.05,0.03-0.1,0.05-0.15,0.07l-1.31,3.08
					c0.09,0.08,0.14,0.22,0.14,0.4c0,0.45-0.31,0.99-0.7,1.22c-0.39,0.22-0.7,0.04-0.71-0.4c0-0.18,0.05-0.38,0.14-0.56l-1.31-1.57
					c-0.05,0.04-0.1,0.07-0.15,0.1c-0.05,0.03-0.1,0.05-0.15,0.07L39.5,46.1c0.09,0.09,0.14,0.22,0.14,0.4
					c0,0.45-0.31,0.99-0.7,1.22c-0.39,0.23-0.71,0.04-0.71-0.4C38.23,46.86,38.55,46.32,38.94,46.09z"/>
			</g>
		</g>
		<g>
			<path class="st2" d="M29.09,60.04l14.61-8.56c1.89-1.09,3.43-0.21,3.43,1.96l0.03,9.61l-3.57-0.77l-14.47,8.48
				c-1.89,1.09-3.43,0.21-3.43-1.96l-0.01-2.86C25.67,63.78,27.2,61.13,29.09,60.04z"/>
		</g>
		<g>
			<g>
				<path class="st2" d="M31.01,65.85c-0.47,0.09-0.82-0.23-0.82-0.83c0-0.76,0.53-1.69,1.2-2.07c0.66-0.38,1.2-0.08,1.2,0.69
					c0,0.61-0.34,1.32-0.81,1.78c0.74-0.27,1.34-0.03,1.6,0.61c-0.53,0.83-1.22,1.54-1.98,1.98c-0.76,0.44-1.45,0.52-1.99,0.31
					C29.68,67.37,30.28,66.43,31.01,65.85z"/>
			</g>
			<g>
				<path class="st9" d="M31.39,60.92c1.7-0.98,3.08-0.19,3.09,1.76c0,1.08-0.42,2.3-1.09,3.34c-0.26-0.64-0.87-0.88-1.6-0.61
					c0.47-0.46,0.81-1.17,0.81-1.78c0-0.76-0.54-1.07-1.2-0.69c-0.66,0.38-1.2,1.31-1.2,2.07c0,0.61,0.35,0.92,0.82,0.83
					c-0.74,0.58-1.34,1.52-1.59,2.46c-0.67-0.26-1.1-0.99-1.1-2.07C28.31,64.28,29.69,61.9,31.39,60.92z"/>
			</g>
		</g>
		<g>
			<g class="st10">
				<g>
					<path class="st9" d="M41.1,59.3c0.09-0.05,0.18-0.14,0.25-0.26l2.55-4.03l0.01,4.01c0,0.24-0.17,0.54-0.39,0.67l-4.84,2.79
						c-0.21,0.12-0.39,0.02-0.39-0.22l-0.01-4.01l2.56,1.08C40.92,59.36,41.01,59.35,41.1,59.3z"/>
				</g>
				<g>
					<path class="st9" d="M41.35,58.51c-0.07,0.11-0.16,0.19-0.25,0.24c-0.09,0.05-0.17,0.07-0.25,0.04l-2.43-0.9l5.34-3.09
						L41.35,58.51z"/>
				</g>
			</g>
		</g>
		<g>
			<g>
				<path class="st11" d="M46.88,23l10.42-6.02c1.29-0.74,2.34-0.15,2.34,1.33l0.03,11.98c0,1.48-1.04,3.29-2.33,4.03l-10.42,6.02
					c-1.29,0.74-2.34,0.15-2.34-1.33l-0.03-11.98C44.55,25.55,45.6,23.74,46.88,23z"/>
			</g>
		</g>
		<g>
			
				<linearGradient id="SVGID_6_" gradientUnits="userSpaceOnUse" x1="-189.7103" y1="29.0548" x2="-181.5607" y2="29.0548" gradientTransform="matrix(-1 0 0 1 -133.5059 0)">
				<stop  offset="0" style="stop-color:#8647E1"/>
				<stop  offset="1" style="stop-color:#B78FED"/>
			</linearGradient>
			<path class="st12" d="M49.39,28.41c0.9-0.21,1.67-0.54,2.34-0.92c0.22-0.12,0.42-0.25,0.61-0.39l0.04-0.07
				c-0.21-0.22-0.33-0.56-0.33-1.01c0-1.16,0.81-2.58,1.82-3.16c0.78-0.45,1.44-0.27,1.71,0.35l0.59-0.48l-0.39,1.05l0.43-0.12
				l-0.59,0.96c-0.06,0.27-0.16,0.53-0.29,0.79c0.04,0.24,0.07,0.49,0.07,0.77c0.01,2.39-1.68,5.31-3.76,6.51
				c-0.49,0.28-0.95,0.44-1.38,0.49l-0.5,1.33c-0.33,0.42-0.61,0.67-0.85,0.81c-0.55,0.32-0.84,0.07-0.86,0.06l2.52-4.88
				C49.8,30.35,49.33,29.57,49.39,28.41z"/>
		</g>
		<g>
			<polygon class="st2" points="75.55,31.45 59.06,40.97 59.02,28.89 75.52,19.37 			"/>
		</g>
		<g>
			<polygon class="st13" points="68.04,31.86 59.03,28.87 75.52,19.35 			"/>
		</g>
		<g>
			<polygon class="st2" points="68.02,31.38 59.03,28.87 75.52,19.35 			"/>
		</g>
		<g>
			<path class="st0" d="M51.5,0.21c0.86-0.5,1.56-0.1,1.56,0.89c0,0.99-0.69,2.19-1.55,2.68c-0.86,0.5-1.56,0.1-1.56-0.89
				C49.94,1.91,50.64,0.71,51.5,0.21z"/>
		</g>
		<g>
			<path class="st1" d="M46.16,3.3c0.86-0.5,1.56-0.1,1.56,0.89c0,0.99-0.69,2.19-1.55,2.68c-0.86,0.5-1.56,0.1-1.56-0.89
				C44.6,4.99,45.3,3.79,46.16,3.3z"/>
		</g>
		<g>
			<path class="st2" d="M40.82,6.38c0.86-0.5,1.56-0.1,1.56,0.89c0,0.99-0.69,2.19-1.55,2.68c-0.86,0.5-1.56,0.1-1.56-0.89
				C39.26,8.08,39.96,6.88,40.82,6.38z"/>
		</g>
		<path class="st2" d="M7.97,24.25c0.1-0.06,0.2-0.1,0.3-0.13l2.61-5.96c-0.17-0.17-0.27-0.43-0.26-0.78
			c0.01-0.87,0.63-1.92,1.39-2.35c0.76-0.43,1.37-0.07,1.36,0.8c0,0.35-0.11,0.73-0.28,1.09l2.5,3.08c0.1-0.08,0.19-0.15,0.29-0.2
			c0.1-0.06,0.2-0.1,0.3-0.13l2.61-5.96c-0.17-0.17-0.26-0.43-0.26-0.78c0.01-0.87,0.63-1.92,1.39-2.35
			c0.76-0.43,1.37-0.07,1.36,0.8c-0.01,0.87-0.63,1.92-1.39,2.35c-0.1,0.06-0.2,0.1-0.3,0.13l-2.61,5.96
			c0.17,0.17,0.26,0.43,0.26,0.78c-0.01,0.87-0.63,1.92-1.39,2.35c-0.76,0.43-1.37,0.07-1.36-0.8c0-0.35,0.11-0.73,0.28-1.09
			l-2.5-3.08c-0.1,0.08-0.19,0.15-0.29,0.2c-0.1,0.06-0.2,0.1-0.3,0.13l-2.61,5.96c0.17,0.17,0.27,0.43,0.26,0.78
			c-0.01,0.87-0.63,1.92-1.39,2.35c-0.76,0.43-1.37,0.07-1.37-0.8C6.58,25.73,7.21,24.68,7.97,24.25z"/>
	</g>
	<path class="st14" d="M81.58,59.57c-0.68-0.51-0.85-0.85-1.7-0.7c0,0-0.19,0.3,0.47,1.09c0.66,0.78,0.9,0.97,1.23,0.89
		C81.92,60.76,82.26,60.08,81.58,59.57z"/>
	<path class="st15" d="M80.31,59.22c0,0-0.64-0.35-1.45,0.08c-0.81,0.43-2.55,0.64-2.55,0.64s-0.09,0.44,0.43,0.5h0.72
		c0,0-1.41,0.89-2.21,1.12c-0.21,0.06-0.08,0.66,0.51,0.62c0,0,0.68,0.54,1.87,0.4c1.47-0.18,2.9-1.24,2.9-1.24s0.47-0.64,1.2-1.31
		C81.72,60.02,82.43,58.88,80.31,59.22z"/>
	<path class="st16" d="M81.03,58.65l-1.15,0.44c0,0,1.28,0.33,1.13,1.64l1.07-0.53C82.07,60.21,81.58,58.65,81.03,58.65z"/>
	<linearGradient id="SVGID_7_" gradientUnits="userSpaceOnUse" x1="85.933" y1="48.5322" x2="85.933" y2="69.1849">
		<stop  offset="0" style="stop-color:#5C5E60"/>
		<stop  offset="1" style="stop-color:#9FA1A4"/>
	</linearGradient>
	<path class="st17" d="M90.99,48.86c-1.13-0.07,0.53-5.34,0.53-5.34s-1.98-0.08-3.17,1.84c-0.95,1.53-2.6,9.93-2.6,9.93l-5.88,3.58
		c0.78-0.11,1.5,0.7,1.75,1.32c0.15,0.37-0.04,0.65-0.04,0.65l7.15-1.76l0.72-6.54l2.54-3.73C91.66,48.86,91.33,48.88,90.99,48.86z"
		/>
	<path class="st18" d="M92.71,96.67c-0.48,0.49-1.55,1.19-1.67,1.87l-0.02,0.1c0.72,1.52,2.72,0.96,2.72,0.96l4.44-2.47
		c0.37-0.21,0.59-0.59,0.59-1.01v-1.46l-3.53-0.53L92.71,96.67z"/>
	<path class="st18" d="M86.01,93.37c-2.4,1.27-1.57,2.3-0.58,2.63c1.12,0.38,3.67-1.36,3.67-1.36l2.38-0.81
		c0.37-0.21,0.59-0.59,0.59-1.01v-1.46l-3.53-0.53L86.01,93.37z"/>
	<linearGradient id="SVGID_8_" gradientUnits="userSpaceOnUse" x1="94.5034" y1="73.5322" x2="94.5034" y2="93.5338">
		<stop  offset="0" style="stop-color:#8647E1"/>
		<stop  offset="1" style="stop-color:#B78FED"/>
	</linearGradient>
	<path class="st19" d="M91.03,63.93c-1.09-0.54-1.57,0.13-2.71-0.52c0,0,0.06,5.16,0,6.55c-0.25,5.49-0.24,20.94-0.24,20.94
		s0.72,2.03,4.3,0.93l1.22-20.25l0.85,22.64c0,0,0.98,2.52,4.8,0.48l1.67-30.08C100.86,64.61,93.96,65.37,91.03,63.93z"/>
	<path class="st16" d="M99.78,45.8l-3.15-2.06l-1.95-0.34h-1.67c-0.07,0.23-0.22,0.45-0.47,0.63c-0.81,0.57-1.72,0.91-2.66,1.21
		c-0.67,3.5-0.45,6.84-0.33,10.44c0.09,2.86-0.03,5.72-0.43,8.55c0.82,0.63,2.4,1.44,5.28,1.83c5.25,0.71,5.53-1.67,5.53-1.67
		l2.03-14.8C102.05,47.87,101.28,46.62,99.78,45.8z"/>
	<linearGradient id="SVGID_9_" gradientUnits="userSpaceOnUse" x1="90.3459" y1="48.5322" x2="90.3459" y2="69.1849">
		<stop  offset="0" style="stop-color:#5C5E60"/>
		<stop  offset="1" style="stop-color:#9FA1A4"/>
	</linearGradient>
	<path class="st20" d="M89.25,46.33c-0.51,1.6-0.42,9.98-0.42,9.98l-0.75,8.92c0,0,1.04,2.33,2.34,0.96
		c0.69-0.73,0.95-2.73,1.65-3.08c-0.03-2.66-0.04-5.31-0.02-7.97c0.01-1.99-0.72,1-0.82-0.99c-0.1-1.98-0.34-7.71,1.38-10.75
		C90.32,43.39,89.78,44.68,89.25,46.33z"/>
	<linearGradient id="SVGID_10_" gradientUnits="userSpaceOnUse" x1="96.1961" y1="48.5322" x2="96.1961" y2="69.1849">
		<stop  offset="0" style="stop-color:#5C5E60"/>
		<stop  offset="1" style="stop-color:#9FA1A4"/>
	</linearGradient>
	<path class="st21" d="M99.78,45.8l-2.7-1.77c-0.58,0.93-1.17,1.87-1.78,2.78c-0.5,0.76-3.84,6.82-3.84,6.82s0-0.06,0-0.17
		c-0.01,0.03-0.03,0.06-0.05,0.09c-0.23,3.81-0.45,8.86-0.99,12.63c0.1,1.25,3.33,2.92,5.32,2.72c4.27-0.42,4.8-1.77,4.8-1.77
		l1.42-17.55C102.05,47.87,101.28,46.62,99.78,45.8z"/>
	<path class="st22" d="M99.6,67.39l0.06,3.66l0,0.01c0.28-0.05,0.56-0.08,0.85-0.05c0.12,0,0.23-0.01,0.34-0.01
		c0.49-0.1,0.62-0.14,1.12-0.2l-0.06-2.73L99.6,67.39z"/>
	<path class="st22" d="M99.69,67.14l-0.76,2.7l0.13,2.92c0,0,0.62,0.06,0.62-0.82l-0.04-1.01l0.59-0.43L99.69,67.14z"/>
	<path class="st16" d="M101.85,66.92c-0.78,0.32-1.74,0.26-2.42-0.22l0.04,1.24c1.71,1.3,2.5-0.05,2.5-0.05l0.1-0.99c0,0,0,0,0,0
		C102,66.9,101.92,66.91,101.85,66.92z"/>
	<linearGradient id="SVGID_11_" gradientUnits="userSpaceOnUse" x1="100.5397" y1="48.5322" x2="100.5397" y2="69.1849">
		<stop  offset="0" style="stop-color:#5C5E60"/>
		<stop  offset="1" style="stop-color:#9FA1A4"/>
	</linearGradient>
	<path class="st23" d="M99.84,46.33c-1.89,0-1.68,4.79-1.68,4.79l0.77,7.27l0.34,8.74c1.71,1.3,3.11,0.25,3.11,0.25l0.54-8.67
		l-0.43-8.41C102.49,50.31,102.32,46.33,99.84,46.33z"/>
	<path class="st15" d="M92.44,40.55v3.43c0,1.16,0.94,2.1,2.09,2.1c1.16,0,2.09-0.94,2.09-2.1l-0.31-3.43H92.44z"/>
	<path class="st22" d="M99.64,70.93l0.31,1.31l-0.07,1.09l-0.07,0.35c-0.06,0.33,0.38,0.53,0.57,0.25c0.06-0.08,0.54-0.81,0.54-0.81
		l0.86-0.62l0.41-1.16l-0.22-2.42L99.64,70.93z"/>
	<path class="st2" d="M93.44,45.76l0.52,1.62c0,0,2.39-0.39,3.49-3.11l-0.92-1.42C96.53,42.85,95.87,45.21,93.44,45.76z"/>
	<path class="st2" d="M92.44,43.52c-0.82,0.82-0.27,3.38-0.27,3.38c0.25-0.43,1.27-1.14,1.27-1.14
		C92.23,44.83,92.44,43.52,92.44,43.52z"/>
	<linearGradient id="SVGID_12_" gradientUnits="userSpaceOnUse" x1="92.262" y1="53.8425" x2="100.512" y2="40.4988">
		<stop  offset="0" style="stop-color:#5C5E60"/>
		<stop  offset="1" style="stop-color:#9FA1A4"/>
	</linearGradient>
	<path class="st24" d="M98.16,44.74l-1.33-1.43c-1.77,2.85-4.71,7.86-5.63,10.56c-0.16,0.46,0.09,1.6,0.09,1.6
		c0.49-1.32,1.29-2.08,2.59-3.58c1.63-1.86,3.65-3.42,3.65-3.42l-0.9-0.38h0.74L98.16,44.74z"/>
	<linearGradient id="SVGID_13_" gradientUnits="userSpaceOnUse" x1="89.7999" y1="52.3202" x2="98.0499" y2="38.9765">
		<stop  offset="0" style="stop-color:#5C5E60"/>
		<stop  offset="1" style="stop-color:#9FA1A4"/>
	</linearGradient>
	<path class="st25" d="M90.55,46.07l0.6,0.26h-0.8c0,0-0.03,7.19,0.94,9.15c0,0-0.46-6.56,1.25-10.84v-1.5
		C92.54,43.14,90.86,44.25,90.55,46.07z"/>
	<path class="st15" d="M91.37,41.28c0,1.79,0.89,2.56,2.59,2.56c0,0,3.13-0.97,3.13-2.73l0.35-3.25l-6.07-1.08V41.28z"/>
	<path class="st26" d="M92.14,34.98c-2.63,1.65-0.76,2.52-0.76,2.52s4.27,0.1,4.3,0.82c0.01,0.21-0.21,1.48-0.21,1.48l0.5,0.37
		l0.35-0.59l0.18,2.99c0,0,1.1-1.03,1.57-2.92c0.21-0.83,0.69-2.61-0.01-3.49C96.62,34.34,94.54,33.46,92.14,34.98z"/>
	<path class="st15" d="M96.32,39.57v1.49c0.62,0.28,1.13-0.56,1.03-1.33C97.22,38.68,96.32,39.57,96.32,39.57z"/>
	<linearGradient id="SVGID_14_" gradientUnits="userSpaceOnUse" x1="92.1665" y1="46.9709" x2="93.8736" y2="46.9709">
		<stop  offset="0" style="stop-color:#8647E1"/>
		<stop  offset="1" style="stop-color:#B78FED"/>
	</linearGradient>
	<polygon class="st27" points="93.14,45.98 92.61,46.42 92.17,46.9 92.32,47.82 93.19,47.96 93.87,47.12 93.56,46.12 	"/>
	<linearGradient id="SVGID_15_" gradientUnits="userSpaceOnUse" x1="91.2224" y1="50.7964" x2="93.1876" y2="50.7964">
		<stop  offset="0" style="stop-color:#8647E1"/>
		<stop  offset="1" style="stop-color:#B78FED"/>
	</linearGradient>
	<path class="st28" d="M91.37,50.4c-0.2,1.65-0.14,3.37-0.14,3.37l1.66-3.63l0.3-2.18l-0.87-0.14
		C92.32,47.82,91.44,49.81,91.37,50.4z"/>
	<path class="st2" d="M94.47,61.22c-0.09-0.22-0.31-0.33-0.5-0.26l-5.75,2.19c-0.22,0.08-0.31,0.33-0.21,0.56l1.89,4.26
		c0.1,0.22,0.34,0.32,0.54,0.23l5.45-2.42c0.18-0.08,0.26-0.31,0.18-0.52L94.47,61.22z"/>
	<linearGradient id="SVGID_16_" gradientUnits="userSpaceOnUse" x1="88.6776" y1="64.5684" x2="95.5136" y2="64.5684">
		<stop  offset="0" style="stop-color:#8647E1"/>
		<stop  offset="1" style="stop-color:#B78FED"/>
	</linearGradient>
	<polygon class="st29" points="88.68,63.26 90.68,67.82 95.51,65.69 93.75,61.31 	"/>
	<g>
		<linearGradient id="SVGID_17_" gradientUnits="userSpaceOnUse" x1="91.2648" y1="66.1531" x2="92.034" y2="66.1531">
			<stop  offset="0" style="stop-color:#DCDFFB"/>
			<stop  offset="1" style="stop-color:#F3F3FA"/>
		</linearGradient>
		<polygon class="st30" points="91.26,65.98 91.51,66.55 92.03,66.32 91.79,65.76 		"/>
		<linearGradient id="SVGID_18_" gradientUnits="userSpaceOnUse" x1="91.5599" y1="65.3432" x2="92.7458" y2="65.3432">
			<stop  offset="0" style="stop-color:#DCDFFB"/>
			<stop  offset="1" style="stop-color:#F3F3FA"/>
		</linearGradient>
		<polygon class="st31" points="91.56,64.66 92.23,66.24 92.75,66.02 92.09,64.45 		"/>
		<linearGradient id="SVGID_19_" gradientUnits="userSpaceOnUse" x1="92.0162" y1="64.73" x2="93.4469" y2="64.73">
			<stop  offset="0" style="stop-color:#DCDFFB"/>
			<stop  offset="1" style="stop-color:#F3F3FA"/>
		</linearGradient>
		<polygon class="st32" points="92.02,63.74 92.94,65.93 93.45,65.71 92.54,63.53 		"/>
		<linearGradient id="SVGID_20_" gradientUnits="userSpaceOnUse" x1="92.4325" y1="64.0789" x2="94.1373" y2="64.0789">
			<stop  offset="0" style="stop-color:#DCDFFB"/>
			<stop  offset="1" style="stop-color:#F3F3FA"/>
		</linearGradient>
		<polygon class="st33" points="92.43,62.73 93.64,65.63 94.14,65.42 92.95,62.53 		"/>
	</g>
	<path class="st15" d="M90.8,65.49c0,0-0.56,0.03-0.36,0.85c0.23,0.94-0.16,0.94-0.16,0.94l-1.28-1.32l-0.47-1.05
		c0,0-0.46,0.16-0.32,1.05c0.05,0.33-0.14,1.08,0.05,1.95c0.04,0.17,0.04,0.33,0.17,0.44l2.23,1.32l1.47-0.04l-0.7-2.13L90.8,65.49z
		"/>
	<path class="st15" d="M98.7,110.72c0,0-2.93,3.61-3.17,3.6c0,0,0,0,0,0c0.11,0.42,0.23,0.83,0.29,1.26
		c0.87-0.36,3.03-1.43,3.28-1.41c0.33,0.01,1.67,0.14,1.92-0.85l-0.26-1.46L98.7,110.72z"/>
	<path class="st15" d="M105.37,106.93c0,0-2.45,2.84-2.7,2.92c-0.39,0.12-1.04,1.42,0.06,1.38c0,0,1,0.09,1.64-0.67
		c0.55-0.64,1.36-0.54,1.67-0.53c0.44,0.01,1.51-0.41,1.49-1.16c-0.02-0.76-0.38-1.36-0.38-1.36L105.37,106.93z"/>
	<path class="st15" d="M105.96,78.02c-1.11,0.7-6.11,2.3-6.9,1.43l-1.92,17.68c-0.04,0.28-0.03,0.56,0.01,0.83l1.59,14.26
		c0.53,1.15,2.02-0.2,2.02-0.2s-0.24-1.27-0.14-2.94c0.16-2.73,0.67-6.5,0.54-7.32l-0.25-4.14l2.65-8.61l-0.12,6.64
		c-0.02,0.29-0.13,0.82,0.2,1.68l1.77,11.69c0.28,0.6,1.87-1.25,1.87-1.25l-0.35-1.06l0.35-7.52l-0.4-3.24c0,0,0.71-2.99,1.18-6.35
		c0.58-4.16-0.29-4.34-0.48-6.02C107.42,82.22,105.96,78.02,105.96,78.02z"/>
	<path class="st15" d="M105.96,78.02c-1.11,0.7-6.11,2.3-6.9,1.43l-1.92,17.68c-0.04,0.28-0.03,0.56,0.01,0.83l1.44,12.93
		c-0.18-3.19-0.17-6.39-0.08-9.61c0.09-3.1-0.26-7.07,3.18-8.44c0.28-0.11,0.5-0.03,0.65,0.13l1.22-3.97l-0.12,6.64
		c-0.02,0.29-0.13,0.82,0.2,1.68l0.77,5.07c0.03-0.67,0.07-1.34,0.09-1.99c0.12-3.04,0.04-7.63,3.28-9.13c0.01,0,0.01,0,0.02-0.01
		c0.09-0.54,0.18-1.1,0.26-1.67c0.58-4.16-0.29-4.34-0.48-6.02C107.42,82.22,105.96,78.02,105.96,78.02z"/>
	<path class="st18" d="M106.26,108.04c-0.42,0.12-1.6,0.75-2.27,1.16c-0.65,0.4-0.91,0.65-1.2,0.69c-0.07,0.01-0.13-0.01-0.18-0.03
		c-0.43-0.12-1.15,0.38-1.22,0.62c-0.09,0.3,0.23,0.78,1.34,0.75c0,0,1,0.09,1.64-0.67c0.55-0.64,1.36-0.54,1.67-0.53
		c0.44,0.01,1.43-0.06,1.62-0.74c0.11-0.39,0-0.92-0.3-1.44C107.01,107.85,106.42,108.01,106.26,108.04z"/>
	<path class="st18" d="M102.37,111.22c0.11,0.01,0.23,0.01,0.36,0.01c0,0,1,0.09,1.64-0.67c0.2-0.24,0.44-0.37,0.67-0.45
		c-0.62,0.08-1.29,0.61-1.86,0.9C102.83,111.19,102.38,111.21,102.37,111.22z"/>
	<linearGradient id="SVGID_21_" gradientUnits="userSpaceOnUse" x1="108.3012" y1="64.7334" x2="107.8012" y2="79.6709">
		<stop  offset="0" style="stop-color:#DCDFFB"/>
		<stop  offset="1" style="stop-color:#F3F3FA"/>
	</linearGradient>
	<path class="st34" d="M108.53,63.32c-0.57-1.37-1.99,5.14-1.99,5.14l1.67,4.55l-3.01,2.65l1.41,1.21c1.68-0.94,2.68-1.55,3.39-2.08
		c1.07-0.79,0.69-2.34,0.69-2.34S110.26,67.46,108.53,63.32z"/>
	<linearGradient id="SVGID_22_" gradientUnits="userSpaceOnUse" x1="102.9374" y1="82.7822" x2="102.9374" y2="90.7861">
		<stop  offset="0" style="stop-color:#5C5E60"/>
		<stop  offset="1" style="stop-color:#9FA1A4"/>
	</linearGradient>
	<path class="st35" d="M107.5,79.17l-8.7-0.44l-1.73,11.7c0,0,3.21,1.92,6.22,1.34c3.02-0.58,5.51-1.55,5.51-1.55
		s-0.02-5.66-0.27-7.57C108.43,81.8,107.5,79.17,107.5,79.17z"/>
	<linearGradient id="SVGID_23_" gradientUnits="userSpaceOnUse" x1="103.4133" y1="64.5698" x2="102.9133" y2="79.5073">
		<stop  offset="0" style="stop-color:#DCDFFB"/>
		<stop  offset="1" style="stop-color:#F3F3FA"/>
	</linearGradient>
	<path class="st36" d="M107.22,61.92c-0.32-0.2-1.02-0.22-1.49-0.38c-1.98-0.69-1.24-0.38-3.43,0.22c0,0-0.21,0.26-1.28,0.9
		c-0.61,0.36-1.31,0.62-1.46,0.73c-1.65,1.2-0.82,2.44-1.26,3.02c-1.01,1.35,0.8,4.94,0.8,4.94s-0.17,3.9-0.26,5.19
		c-0.08,1.05-0.42,4.21-0.42,4.21s2.2,0.57,6.04-0.28c3.84-0.84,3.03-1.3,3.03-1.3l-0.77-3.7c0,0,1.83-9.51,1.89-10.05
		C108.71,64.62,109.19,63.18,107.22,61.92z"/>
	<g>
		<path class="st15" d="M101.37,57.23c0,0,0.4,2.11,0.77,3.36c0.05,0.17,0.16,1.16,0.16,1.16c0.63,0.49,3.1,0.76,3.11-0.39
			l-0.19-4.09L101.37,57.23z"/>
		<path class="st15" d="M99.96,57.69c-0.02,1.77,1.2,2.56,2.88,2.58c0,0,3.13-0.93,3.15-2.67l0.39-3.22l-6.36-1.16L99.96,57.69z"/>
		<path class="st26" d="M101.51,51.05c-1.39,0.59-3.59,1.96-1.51,3.45c0,0,0.86,0.22,0.84,1.58c-0.02,1.36,1.85,2.31,2.95,3.09
			c0.88,0.62,1.93,0,1.93,0s2.53-1.17,0.78-6.18C105.68,50.63,102.49,50.63,101.51,51.05z"/>
		<path class="st15" d="M100.65,56.15l-0.02,1.48c0.61,0.29,1.13-0.54,1.04-1.31C101.56,55.28,100.65,56.15,100.65,56.15z"/>
		<path class="st26" d="M104.74,50.83c-1.23,0.39-1.87,1.83-1.43,3.21c0.44,1.38,1.79,2.19,3.02,1.79c1.23-0.39,1.87-1.83,1.43-3.21
			C107.32,51.24,105.96,50.44,104.74,50.83z"/>
	</g>
	<polygon class="st18" points="99.99,115.57 100.43,115.56 100.59,115.43 101.02,113.31 99.8,114.14 	"/>
	<path class="st18" d="M99.52,112.62c-1.14,0.44-3.66,3-4,1.7c-0.6-0.02-2.17,0.01-1.55,1.02c0.16,0.25,0.81,0.59,1.38,0.64
		c0.85,0.07,2.66-1.31,3.66-1.68c0.31-0.11,1.78,0.13,2.01-0.98c0.12-0.57-0.26-1.46-0.26-1.46
		C100.69,112.05,100.41,112.28,99.52,112.62z"/>
	<polygon class="st18" points="106.55,111.4 106.96,111.55 107.29,111.33 107.54,109.53 106.28,109.7 	"/>
	<path class="st15" d="M91.93,69.25l-1.77-0.06c0,0,3.08,5.84,3.86,6.33c2.02,1.28,2.49-0.11,2.99-0.95l-1.45-1.76L91.93,69.25z"/>
	<linearGradient id="SVGID_24_" gradientUnits="userSpaceOnUse" x1="96.6967" y1="64.345" x2="96.1967" y2="79.2825">
		<stop  offset="0" style="stop-color:#DCDFFB"/>
		<stop  offset="1" style="stop-color:#F3F3FA"/>
	</linearGradient>
	<path class="st37" d="M98.91,63.81c-1.28,1.1-1.24,3.37-2.12,5.37c-0.67,1.52-1.45,2.62-1.79,3.06l-1.76-1.72
		c-0.56,0.43-1.1,0.9-1.54,1.46c0.89,1.57,1.91,3.27,2.32,3.52c1.39,0.87,2.04,0.5,2.48-0.09c0,0,3.01-3.29,4.53-7.52
		C101.79,65.77,101.4,61.67,98.91,63.81z"/>
	<linearGradient id="SVGID_25_" gradientUnits="userSpaceOnUse" x1="58.3432" y1="57.634" x2="58.3432" y2="75.8174">
		<stop  offset="0" style="stop-color:#8647E1"/>
		<stop  offset="1" style="stop-color:#B78FED"/>
	</linearGradient>
	<path class="st38" d="M56.62,58.42c-0.35,2.07-1.12,7.16-1.12,7.5c0,0.35,0.26,2.5,1.47,2.67c1.21,0.17,3.62-0.43,3.62-0.43
		l0.6-4.4l-3.08-9.78C58.11,53.99,56.96,56.35,56.62,58.42z"/>
	<path class="st18" d="M71.13,104.3l-2.85,0.69l0.03,2.31c0.43,1.47,2.67,0.26,2.67,0.26s1.67-1.32,1.95-2.05
		C73.38,104.39,71.13,104.3,71.13,104.3z"/>
	<path class="st18" d="M62.46,103.7l-2.46,0.52l-0.34,2.54c0.78,1.29,2.37,0.43,2.37,0.43s0.71-0.78,1.34-1.12
		c0.86-0.47,1.26-0.82,1.38-1.12C65.18,103.83,62.46,103.7,62.46,103.7z"/>
	<linearGradient id="SVGID_26_" gradientUnits="userSpaceOnUse" x1="65.528" y1="83.2635" x2="65.528" y2="103.7714">
		<stop  offset="0" style="stop-color:#5C5E60"/>
		<stop  offset="1" style="stop-color:#9FA1A4"/>
	</linearGradient>
	<path class="st39" d="M71.22,72.82c-0.13,0.03-8.13,0.18-11.61-0.83c-0.09,0.8-0.18,1.56-0.21,2.04
		c-0.13,1.76,0.36,16.61,0.36,16.61l0.12,13.9c0,0,0.36,0.8,1.82,0.61c0.67-0.09,1.39-0.54,1.43-1.22l1.19-12.2l0.78-11.23
		c0,0,1.32,6.05,1.76,11.67c0.24,3.07,1.24,13.05,1.24,13.05s0.78,0.82,2.35,0.4c0.97-0.26,1.22-0.76,1.24-1.27l-0.04-13.58
		L71.22,72.82z"/>
	<linearGradient id="SVGID_27_" gradientUnits="userSpaceOnUse" x1="64.6218" y1="57.634" x2="64.6218" y2="75.8174">
		<stop  offset="0" style="stop-color:#8647E1"/>
		<stop  offset="1" style="stop-color:#B78FED"/>
	</linearGradient>
	<path class="st40" d="M70.01,58.41l-0.52-4.83c0,0-1.43-1.22-4.74-1.47c-2.5-0.19-4.68,0.63-5.68,1.09
		c-0.45,0.21-0.8,0.32-0.95,0.79c-0.19,0.58-0.34,1.77-0.2,3.05c0.21,1.95,1.72,8.06,1.81,9.75c0.09,1.69-0.32,6.81-0.32,6.81
		s0.95,1.87,7.07,1.78c2.5-0.04,4.91-1.75,4.91-1.75l-1.23-7.28L70.01,58.41z"/>
	<path class="st15" d="M62.72,48.49c-0.11,1.71,1.93,2.74,1.93,2.74c1.65,0.1,2.78-0.46,2.89-2.21l0.27-4.39l-6.34,0.67L62.72,48.49
		z"/>
	<path class="st15" d="M72.63,70.81l-0.42,3.55l-0.24,0.36c-0.19,0.27-0.28,0.6-0.27,0.93c0.01,0.46,0.07,1.13,0.27,1.74v1.39
		l-0.33,0.66c0,0-0.02,0.31,0.33,0.38c0.35,0.07,0.23,0,0.23,0l1.34-1.03l0.41-2.02l-0.4-2.2L72.63,70.81z"/>
	<path class="st15" d="M62.94,50.04l-0.6,2.42c2.42,1.04,4.14-0.09,4.14-0.09l-0.52-2.24L62.94,50.04z"/>
	<path class="st2" d="M62.64,51.24l-0.56,1.04c1.9,1.55,4.83,0.17,4.83,0.17l-0.58-0.94C65.94,51.65,63.98,51.93,62.64,51.24z"/>
	<linearGradient id="SVGID_28_" gradientUnits="userSpaceOnUse" x1="71.2513" y1="57.634" x2="71.2513" y2="75.8174">
		<stop  offset="0" style="stop-color:#8647E1"/>
		<stop  offset="1" style="stop-color:#B78FED"/>
	</linearGradient>
	<path class="st41" d="M71.82,56.51c-0.29-3.11-3.05-3.39-3.05-3.39l-0.06,4.69l0.52,7.42l2.56,9.53l1.98-0.29
		c0,0-0.84-7.77-1.01-9.15C72.6,63.93,72.21,60.66,71.82,56.51z"/>
	<path class="st26" d="M65.45,42.06c-4.49,0.09-4.43,1.85-4.41,3.75c0.04,3.41,1.68,4.87,1.68,4.87s1.08,0.22,2.33,0.13
		c1.34-0.09,3.12-5.48,2.8-6.47C67.34,42.71,65.45,42.06,65.45,42.06z"/>
	<path class="st15" d="M66.82,47.02c-0.03,0.76,0.28,1.56,0.61,1.24l0.17-1.23C67.6,47.02,66.85,45.99,66.82,47.02z"/>
</g>
</svg>
