<?xml version="1.0" encoding="utf-8"?>
<!-- Generator: Adobe Illustrator 25.2.1, SVG Export Plug-In . SVG Version: 6.00 Build 0)  -->
<svg version="1.1" id="Layer_1" xmlns="http://www.w3.org/2000/svg" width="100" xmlns:xlink="http://www.w3.org/1999/xlink" x="0px" y="0px"
	 viewBox="0 0 770.79 953.71" style="enable-background:new 0 0 770.79 953.71;" xml:space="preserve">
<style type="text/css">
	.st0{opacity:0.15;fill:url(#SVGID_1_);}
	.st1{fill:none;stroke:#020202;stroke-width:15;stroke-linecap:round;stroke-linejoin:round;stroke-miterlimit:10;}
</style>
<g>
	<linearGradient id="SVGID_1_" gradientUnits="userSpaceOnUse" x1="382.7249" y1="743.6566" x2="581.8738" y2="204.4225">
		<stop  offset="0" style="stop-color:#8647E1"/>
		<stop  offset="1" style="stop-color:#B78FED"/>
	</linearGradient>
	<polygon class="st0" points="0,563.04 770.79,0 754.58,953.71 	"/>
	<g>
		<path class="st1" d="M712.11,598.89H528.33l-20.42,20.42h-51.05l-30.63-20.42H242.46v20.42c0,22.55,18.28,40.84,40.84,40.84
			h387.97c22.55,0,40.84-18.28,40.84-40.84V598.89z"/>
		<path class="st1" d="M681.48,598.89V333.44c0-11.28-9.14-20.42-20.42-20.42H293.51c-11.28,0-20.42,9.14-20.42,20.42v265.45"/>
		<polyline class="st1" points="354.77,384.49 375.19,404.91 416.03,364.07 		"/>
		<polyline class="st1" points="354.77,455.96 375.19,476.38 416.03,435.54 		"/>
		<polyline class="st1" points="354.77,527.43 375.19,547.85 416.03,507.01 		"/>
		<line class="st1" x1="446.65" y1="384.49" x2="589.59" y2="384.49"/>
		<line class="st1" x1="446.65" y1="455.96" x2="589.59" y2="455.96"/>
		<line class="st1" x1="446.65" y1="527.43" x2="589.59" y2="527.43"/>
	</g>
</g>
</svg>
