<?xml version="1.0" encoding="utf-8"?>
<!-- Generator: Adobe Illustrator 25.2.1, SVG Export Plug-In . SVG Version: 6.00 Build 0)  -->
<svg version="1.1" id="Layer_1" xmlns="http://www.w3.org/2000/svg" width="390" xmlns:xlink="http://www.w3.org/1999/xlink" x="0px" y="0px"
	 viewBox="0 0 3134.16 2567.04" style="enable-background:new 0 0 3134.16 2567.04;" xml:space="preserve">
<style type="text/css">
	.st0{fill:url(#SVGID_1_);}
	.st1{fill:url(#SVGID_2_);}
	.st2{fill:#814D4D;}
	.st3{fill:url(#SVGID_3_);}
	.st4{fill:url(#SVGID_4_);}
	.st5{fill:#FFD6D6;}
	.st6{fill:url(#SVGID_5_);}
	.st7{fill:url(#SVGID_6_);}
	.st8{fill:url(#SVGID_7_);}
	.st9{fill:#A5A0FA;}
	.st10{fill:#D2D2FF;}
	.st11{fill:#450606;}
	.st12{fill:url(#SVGID_8_);}
	.st13{fill:url(#SVGID_9_);}
	.st14{fill:url(#SVGID_10_);}
	.st15{fill:#D1D4FC;}
	.st16{fill:#F0F1FE;}
	.st17{opacity:0.2;fill:url(#SVGID_11_);}
	.st18{fill:#FFFFFF;}
	.st19{fill:url(#SVGID_12_);}
	.st20{fill:url(#SVGID_13_);}
	.st21{fill:url(#SVGID_14_);}
	.st22{fill:url(#SVGID_15_);}
	.st23{fill:url(#SVGID_16_);}
	.st24{fill:url(#SVGID_17_);}
	.st25{fill:#BFBFF7;}
	.st26{fill:url(#SVGID_18_);}
	.st27{fill:url(#SVGID_19_);}
	.st28{fill:url(#SVGID_20_);}
	.st29{fill:url(#SVGID_21_);}
	.st30{fill:url(#SVGID_22_);}
	.st31{fill:url(#SVGID_23_);}
	.st32{fill:url(#SVGID_24_);}
</style>
<g>
	<linearGradient id="SVGID_1_" gradientUnits="userSpaceOnUse" x1="2293.4001" y1="2330.6094" x2="2744.1523" y2="2330.6094">
		<stop  offset="0" style="stop-color:#5C5E60"/>
		<stop  offset="1" style="stop-color:#9FA1A4"/>
	</linearGradient>
	<path class="st0" d="M2744.15,2387.68l-49.4,29.92l-80.72,48.84c0,0-193.87-49.1-249.21-81.43
		c-55.35-32.33-81.94-72.72-67.59-131.03c2.92-11.73,9.62-21.2,18.49-28.69c0.16-0.16,0.3-0.3,0.5-0.41
		c35.24-29.56,103.58-30.11,103.58-30.11L2744.15,2387.68z"/>
	<linearGradient id="SVGID_2_" gradientUnits="userSpaceOnUse" x1="2293.4001" y1="2340.4639" x2="2694.7559" y2="2340.4639">
		<stop  offset="0" style="stop-color:#5C5E60"/>
		<stop  offset="1" style="stop-color:#9FA1A4"/>
	</linearGradient>
	<path class="st1" d="M2694.76,2417.6l-80.72,48.84c0,0-193.87-49.1-249.21-81.43c-55.35-32.33-81.94-72.72-67.59-131.03
		c2.92-11.73,9.62-21.2,18.49-28.69c0.16-0.16,0.3-0.3,0.5-0.41c9.72-7.25,50.96-29.75,136.57,28.2
		C2549.12,2318.4,2686.95,2412.31,2694.76,2417.6z"/>
	<path class="st2" d="M2687.91,2411.94c0,0-13.16,4.2-56.84,38.88c-43.68,34.71-86.75,49.66-79.56,86.15
		c7.18,36.51,77.77,40.1,114.87,8.98c37.09-31.12,96.32-86.75,82.56-106.49C2735.18,2419.72,2719.97,2400.45,2687.91,2411.94z"/>
	<path class="st2" d="M2684.28,2414.58c0,0-11.87,3.78-51.26,35.08c-39.41,31.29-78.26,44.8-71.79,77.71
		c6.48,32.92,70.16,36.16,103.62,8.1c33.45-28.07,86.88-78.25,74.47-96.07C2726.91,2421.61,2713.2,2404.23,2684.28,2414.58z"/>
	<linearGradient id="SVGID_3_" gradientUnits="userSpaceOnUse" x1="2339.9971" y1="2262.6448" x2="2538.8574" y2="2262.6448">
		<stop  offset="0" style="stop-color:#5C5E60"/>
		<stop  offset="1" style="stop-color:#9FA1A4"/>
	</linearGradient>
	<path class="st3" d="M2402.48,2214.49c0,0-21.27-12.19-28.34-5.59c-7.05,6.61,23.8,20.87,23.8,20.87s-54.9-9.51-57.83,4.76
		c-2.93,14.28,54.54,10.62,54.54,10.62s-6.95,45.75,53.07,50.14c60.03,4.39,81.99,23.07,81.99,23.07l9.15-12.82L2402.48,2214.49z"/>
	<linearGradient id="SVGID_4_" gradientUnits="userSpaceOnUse" x1="2681.3635" y1="1964.4326" x2="2824.5586" y2="1964.4326">
		<stop  offset="0" style="stop-color:#8647E1"/>
		<stop  offset="1" style="stop-color:#B78FED"/>
	</linearGradient>
	<path class="st4" d="M2824.56,1766.08c0,0-37.33,21.25-62.46,84.07c-25.12,62.81-63.71,224.35-72.7,246.79
		c-8.96,22.43-22.43,52.04,35.9,62.82c58.34,10.77,99.25-10.78,99.25-10.78V1766.08z"/>
	<path class="st5" d="M2457.42,2423.16l-24.98,18.4c-6.48,35.08,5.69,57.8,36.48,68.15l55.65-21.78L2457.42,2423.16z"/>
	<linearGradient id="SVGID_5_" gradientUnits="userSpaceOnUse" x1="2452.7852" y1="2361.7908" x2="2695.0996" y2="2361.7908">
		<stop  offset="0" style="stop-color:#5C5E60"/>
		<stop  offset="1" style="stop-color:#9FA1A4"/>
	</linearGradient>
	<path class="st6" d="M2673.75,2219.8c0,0-36.1-11.28-86.36,24.02c-50.25,35.29-134.61,177.1-134.61,177.1s6.28,66.03,53.54,84.57
		c0,0,85.81-41.42,129.54-68.42c43.71-27.01,59.23-53.25,59.23-53.25L2673.75,2219.8z"/>
	<linearGradient id="SVGID_6_" gradientUnits="userSpaceOnUse" x1="2720.8418" y1="2048.0088" x2="3118.7573" y2="2048.0088">
		<stop  offset="0" style="stop-color:#8647E1"/>
		<stop  offset="1" style="stop-color:#B78FED"/>
	</linearGradient>
	<path class="st7" d="M3113.66,1986.3c-14.55,149.6-55.39,351.12-55.39,351.12s-8.71-2.86-66.77-7.25
		c-20.95-1.61-48.29-3.37-83.99-5.29c-134.65-7.2-186.66-82.59-186.66-82.59s95.12-174.07,52.92-229.71
		c-42.19-55.64-15.26-111.29,0.9-147.19c16.16-35.9,53.84-106.8,53.84-106.8l26.04,7.51l163.35,1.29c0,0,70.9-13.29,96.03,79.17
		C3121.16,1873.25,3119.6,1925.52,3113.66,1986.3z"/>
	<linearGradient id="SVGID_7_" gradientUnits="userSpaceOnUse" x1="2787.0066" y1="2146.2769" x2="3113.6602" y2="2146.2769">
		<stop  offset="0" style="stop-color:#8647E1"/>
		<stop  offset="1" style="stop-color:#B78FED"/>
	</linearGradient>
	<path class="st8" d="M3113.66,1986.3c-14.55,149.6-55.39,351.12-55.39,351.12s-8.71-2.86-66.77-7.25
		c-6.05-33.54-33.79-68.58-130.67-91.45c-98.75-23.31-75.68-93.57-58.6-106.45c17.12-12.9,125.77,97.14,130.61,41.84
		c4.83-55.29-93.56-81.67-84.6-89.73c9.02-8.1,35.01,8.06,100.52,3.58c65.51-4.48,75.38-132.84,75.38-132.84L3113.66,1986.3z"/>
	<path class="st9" d="M2400.16,2205.91l4.59,17c2.02,7.44,6.84,13.81,13.47,17.75l133.75,79.64c12.85,7.66,28.24,9.77,42.69,5.86
		l178.82-48.36c7.65-2.07,13.26-8.59,14.16-16.46l1.5-13.12L2400.16,2205.91z"/>
	<path class="st10" d="M2499.13,2204.04c2.68-0.23,112.15-17.98,138.52-22.25c3.71-0.61,7.49-0.09,10.91,1.5l140.58,64.93
		l-222.54,55.11L2499.13,2204.04z"/>
	<path class="st9" d="M2579.69,2300.1l-19.38,7.4l-160.13-101.61l-98.18-223.91l-1.74-3.9c-2.22-5.33,3.11-10.7,8.41-8.46
		l123.79,52.45c15.8,6.74,28.33,19.37,34.86,35.33L2579.69,2300.1z"/>
	<path class="st10" d="M2560.31,2307.5l-160.13-101.61l-98.18-223.91l118.26,50.13c15.86,6.7,28.39,19.38,34.87,35.28
		L2560.31,2307.5z"/>
	<path class="st11" d="M2857.68,1473.71c0,0,1.95-55.52,65.36-65.69c63.41-10.17,128.04,56.23,122.05,117.86
		c-5.98,61.62-38.29,103.4-28.12,134.56c10.16,31.18,37.08,26.39,39.47,55.09c2.4,28.72-74.18,83.79-110.67,20.05
		C2909.28,1671.86,2857.68,1473.71,2857.68,1473.71z"/>
	<linearGradient id="SVGID_8_" gradientUnits="userSpaceOnUse" x1="2857.6758" y1="1497.9365" x2="2964.1233" y2="1497.9365">
		<stop  offset="0" style="stop-color:#8647E1"/>
		<stop  offset="1" style="stop-color:#B78FED"/>
	</linearGradient>
	<path class="st12" d="M2857.68,1473.71c0,0,9.42-17.98,46.22-9.45c36.79,8.53,70.35,55.57,57.39,68.17
		S2857.68,1473.71,2857.68,1473.71z"/>
	<path class="st11" d="M2769.95,1640.7c0,0-37.02-40.48-26.25-75.47c10.77-35.01,28.72-37.7,28.72-37.7s32.29-63.72,96.92-52.5
		c64.61,11.22,104.55,52.05,111.73,118.46c7.18,66.41-39.04,109.49-39.94,137.75C2940.24,1759.5,2769.95,1640.7,2769.95,1640.7z"/>
	<path class="st5" d="M3024.13,1768.21c0,0-55.04,77.15-114.87,90.33c-6.24,1.37-12.03,2.02-17.22,2.07H2892
		c-45.02,0.25-54.79-45.22-49-79.66c4.44-26.49,38.58-68.33,59.42-91.85c9.42-10.63,16.12-17.52,16.12-17.52s1.72,4.08,4.58,10.42
		c0.96,2.17,2.07,4.59,3.28,7.21c10.63,22.86,29.56,60.67,41.54,66.42C2985.25,1763.99,3024.13,1768.21,3024.13,1768.21z"/>
	<path class="st5" d="M2857.65,1783.72c0,0-28.55,61.23,34.35,76.89c-45.02,0.25-54.79-45.22-49-79.66
		c4.44-26.49,38.58-68.33,59.42-91.85c9.47-3.22,16.93-5.79,20.7-7.1c0.96,2.17,2.07,4.59,3.28,7.21
		C2927.2,1713.17,2923.62,1781.91,2857.65,1783.72z"/>
	<path class="st5" d="M2780.11,1555.02c0,0-20.13,48.97-7.23,101.26c12.91,52.31,33.86,87.24,43.53,102.02
		c11.34,17.37,97.11,11.23,109.44-77.23c0,0,29.43-11.21,27.07-34.93c-2.36-23.73-30.49-27.19-35.89,7.86
		c0,0-35.98-5.38-22.29-42.78c0,0-59.44,31.04-80.52-15.43C2793.13,1549.33,2780.11,1555.02,2780.11,1555.02z"/>
	<linearGradient id="SVGID_9_" gradientUnits="userSpaceOnUse" x1="2578.636" y1="2374.489" x2="3076.8413" y2="2374.489">
		<stop  offset="0" style="stop-color:#5C5E60"/>
		<stop  offset="1" style="stop-color:#9FA1A4"/>
	</linearGradient>
	<path class="st13" d="M3015.43,2311.93l-327.32-89.49c-42.66-11.66-87.25,10.68-103.44,51.84l0,0
		c-16.41,41.7,1.71,89.04,41.77,109.13l261.07,130.95c43.15,21.64,94.96,20.58,135.74-5.24c34-21.52,61.88-60.41,51.34-130.69
		C3069.8,2346.53,3046.56,2320.44,3015.43,2311.93z"/>
	<path class="st2" d="M2432.45,2441.55c0,0-36.05-5.83-59.83-6.73s-84.36,8.08-100.95,24.23c-16.61,16.15-13.92,54.53,5.82,70.56
		c19.75,16.03,92.43,10.66,127.44,5.72c35-4.93,64-25.63,64-25.63C2436.72,2500.34,2427.41,2475.72,2432.45,2441.55z"/>
	<path class="st5" d="M2765.09,2155.87c0,0,10.77-37.09-26.92-53.24c-37.7-16.16-82.83,45.88-109.75,55.13
		c-26.93,9.25-53.58,32.8-54.49,38.79c-0.89,5.99,21.24,16.76,56.54,6.59c35.3-10.18,54.45-21.54,56.25-30.52
		C2686.72,2172.62,2725,2172.62,2765.09,2155.87z"/>
	<linearGradient id="SVGID_10_" gradientUnits="userSpaceOnUse" x1="2972.9016" y1="1859.5895" x2="2784.4761" y2="2424.8662">
		<stop  offset="0" style="stop-color:#8647E1"/>
		<stop  offset="1" style="stop-color:#B78FED"/>
	</linearGradient>
	<path class="st14" d="M3133.66,1980.26c-4.48,68.23-28.76,212.7-35,244.11c-5.18,26-75.38,29.87-162.95,7.11
		c-18.33-4.79-37.46-10.72-56.95-17.88c-112.15-41.29-127.06-36.41-127.06-36.41s-11.13,17.12-35.35,14.86
		c-24.27-2.22-59.26,20.65-75.43,17.54c0,0-11.42,3.22-16.81-3.68c0,0-8.51-3.08-8.97-10.02c0,0-5.38-1.86,7.77-11.68
		c13.08-9.88,47.88-36.11,62.49-43.06c14.54-6.95,79.41-10.52,81.88-11.23c2.11-0.55,125.84,9.82,180.52,12.84
		c9.41,0.56,16.82,0.86,21.15,0.86c29.61,0,39.07,1.8,39.07,1.8c0-2.71,6.25-56.55,10.73-155.3c4.53-98.69,40.58-199.9,66.98-197.78
		C3112.1,1794.5,3138.13,1912.08,3133.66,1980.26z"/>
	<path class="st5" d="M2955.34,2170.86c-2.37,25.67-8.15,55.74-19.63,60.63c-18.33-4.79-37.2-11.51-56.95-17.88
		c-102.23-32.92-125.8-32.06-125.8-32.06s-12.39,12.77-36.61,10.5c-24.27-2.22-59.26,20.65-75.43,17.54c0,0-11.42,3.22-16.81-3.68
		c0,0-8.51-3.08-8.97-10.02c0,0-5.38-1.86,7.77-11.68c13.08-9.88,47.88-36.11,62.49-43.06c14.54-6.95,79.41-10.52,81.88-11.23
		c2.11-0.55,125.84,9.82,180.52,12.84C2947.79,2142.75,2957.76,2145.12,2955.34,2170.86z"/>
	<path class="st15" d="M2152.29,2370.42h-992.5l198.67-83.53c89.21-37.44,148.82-123.12,152.96-219.8l6.36-147.57l5.31-124.59
		h289.53l5.39,124.59l6.5,152.07c3.98,94.31,60.85,178.37,146.98,217.22L2152.29,2370.42z"/>
	<path class="st16" d="M2149.31,2399.36h-979.99c-13.2,0-23.89-10.69-23.89-23.88v-0.01c0-13.19,10.69-23.88,23.89-23.88h979.99
		c13.19,0,23.89,10.69,23.89,23.88v0.01C2173.21,2388.67,2162.51,2399.36,2149.31,2399.36z"/>
	<linearGradient id="SVGID_11_" gradientUnits="userSpaceOnUse" x1="1517.7715" y1="1857.2139" x2="1818.0039" y2="1857.2139">
		<stop  offset="0" style="stop-color:#8647E1"/>
		<stop  offset="1" style="stop-color:#B78FED"/>
	</linearGradient>
	<polygon class="st17" points="1818,1919.51 1517.77,1919.51 1523.09,1794.92 1812.61,1794.92 	"/>
	<path class="st18" d="M2658.06,519.53v1111.21H677.72V519.53c0-43.95,37.54-79.6,83.83-79.6h1812.77
		C2620.61,439.93,2658.06,475.57,2658.06,519.53z"/>
	<path class="st16" d="M2602.86,519.53v1058.76H732.95V519.53c0-14.99,12.84-27.18,28.62-27.18H2574.3
		C2590.01,492.34,2602.86,504.53,2602.86,519.53z"/>
	<path class="st15" d="M2658.06,1630.73v159.91c0,18.88-16.1,34.25-36.07,34.25H713.79c-19.88,0-36.07-15.37-36.07-34.25v-159.91
		H2658.06z"/>
	<linearGradient id="SVGID_12_" gradientUnits="userSpaceOnUse" x1="1623.0371" y1="1727.814" x2="1709.1016" y2="1727.814">
		<stop  offset="0" style="stop-color:#8647E1"/>
		<stop  offset="1" style="stop-color:#B78FED"/>
	</linearGradient>
	<path class="st19" d="M1709.1,1727.82c0,23.76-19.27,43.03-43.03,43.03s-43.03-19.27-43.03-43.03c0-23.77,19.27-43.04,43.03-43.04
		S1709.1,1704.05,1709.1,1727.82z"/>
	<linearGradient id="SVGID_13_" gradientUnits="userSpaceOnUse" x1="732.9492" y1="540.6479" x2="2602.8574" y2="540.6479">
		<stop  offset="0" style="stop-color:#8647E1"/>
		<stop  offset="1" style="stop-color:#B78FED"/>
	</linearGradient>
	<path class="st20" d="M2602.86,519.53v69.43H732.95v-69.43c0-14.99,12.84-27.18,28.62-27.18H2574.3
		C2590.01,492.34,2602.86,504.53,2602.86,519.53z"/>
	<path class="st11" d="M2059.95,565.95c0,0-74.96,28.38-108.23-12.66c-33.26-41.03,9.98-56.42-13.46-104.79
		c-23.46-48.37-16-144.48,9.52-167.82c25.64-23.46,35.19-15.4,35.19-15.4s18.63-36.64,83.7-39.57
		c65.06-2.93,131.75,56.43,129.56,118.72c-2.21,62.29,49.83,54.24,60.09,96.01s-60.09,54.96-28.58,78.41
		c31.5,23.45-6.26,51.3-97.67,35.91C2038.65,539.37,2059.95,565.95,2059.95,565.95"/>
	<path class="st5" d="M1914.8,667.13l-117.98,64.54c0,0-95.27-82.86-153.17-131.22c-57.89-48.37-66.53-62.04-66.53-62.04
		s-6.83-43.97-12.71-54.24c-5.86-10.25-27.35-28.83-32.23-39.57c-4.89-10.76-13.69-9.29-9.78,12.2c3.91,21.5,12.7,30.3,11.24,39.09
		c-1.46,8.79-3.42,12.7-3.42,12.7s-41.04-22.48-47.88-44.95c-6.85-22.47-15.64-53.74-23.46-53.25
		c-7.81,0.49-11.23,24.91-11.23,24.91s-10.27,8.8-9.29,21.5c0,0-9.77,13.19,2.93,32.74c0,0-2.1,12.58,7.33,35.68
		c10.5,25.69,7.99,29.99,56.76,40.16c0,0,102.12,141.32,142.18,191.15c40.06,49.83,56.68,94.78,137.77,84.04
		c81.11-10.75,168.07-44.95,168.07-44.95L1914.8,667.13z"/>
	<linearGradient id="SVGID_14_" gradientUnits="userSpaceOnUse" x1="1864.9688" y1="704.9937" x2="2066.6646" y2="704.9937">
		<stop  offset="0" style="stop-color:#8647E1"/>
		<stop  offset="1" style="stop-color:#B78FED"/>
	</linearGradient>
	<path class="st21" d="M2065.04,584.8c0,0-54.96,0.51-103.33,31.4c-48.37,30.89-96.73,69.98-96.73,69.98s0,43.72,18.32,83.3
		c18.32,39.57,34.33,55.7,34.33,55.7s71.93-32.25,115.91-59.36C2077.49,738.71,2065.04,584.8,2065.04,584.8z"/>
	<linearGradient id="SVGID_15_" gradientUnits="userSpaceOnUse" x1="2129.196" y1="1128.1055" x2="2129.196" y2="1804.6797">
		<stop  offset="0" style="stop-color:#5C5E60"/>
		<stop  offset="1" style="stop-color:#9FA1A4"/>
	</linearGradient>
	<path class="st22" d="M2337.42,1354.54c-20.52,94.78-47.9,223.74-47.9,223.74h-343.94c0,0-29.31-111.39-27.96-253.05
		c1.36-141.71,27.96-246.24,27.96-246.24h333.2C2278.78,1079,2357.94,1259.76,2337.42,1354.54z"/>
	<linearGradient id="SVGID_16_" gradientUnits="userSpaceOnUse" x1="1945.5801" y1="1071.5968" x2="2278.7832" y2="1071.5968">
		<stop  offset="0" style="stop-color:#8647E1"/>
		<stop  offset="1" style="stop-color:#B78FED"/>
	</linearGradient>
	<path class="st23" d="M2278.78,1079c-44.65,15.17-83.93,25-118.35,30.84c-160.53,27.47-214.86-30.84-214.86-30.84l13.28-53h306.23
		L2278.78,1079z"/>
	<linearGradient id="SVGID_17_" gradientUnits="userSpaceOnUse" x1="1983.8979" y1="811.0427" x2="2340.5735" y2="811.0427">
		<stop  offset="0" style="stop-color:#8647E1"/>
		<stop  offset="1" style="stop-color:#B78FED"/>
	</linearGradient>
	<path class="st24" d="M2296.22,817.55c-12.79,99.51-31.13,208.45-31.13,208.45c-58.76,15.33-108.39,22.24-149.47,24.13
		c-107.94,5.09-156.76-24.13-156.76-24.13s10.9-68.93,15.3-155.4c2.59-51.2-17.31-86.84-21.99-124.56
		c-3.22-25.94,11.68-51.06,26.39-70.34c24.88-32.62,72.54-84.1,72.54-84.1l134.84-20.24c0,0,105.55,23.69,120.93,91.86
		C2311.44,683.34,2305.18,748.19,2296.22,817.55z"/>
	<path class="st5" d="M2185.94,571.36c0,0-57.16,78.17-114.82,73.78c-57.65-4.4-22.45-43.46-22.45-43.46s4.32-10.16,3.82-34.25
		c-0.08-2.88-0.21-5.97-0.4-9.25c-1.98-30.77-23.19-27.6-23.19-27.6l118.96-95.52c-0.37,6.82-0.53,13.28-0.53,19.44v0.17
		C2147.32,547.76,2185.94,571.36,2185.94,571.36z"/>
	<path class="st5" d="M2147.32,454.49v0.17c-3,33.63-18.63,99.96-94.83,112.76c-0.08-2.88-0.21-5.97-0.4-9.25
		c-1.98-30.77-23.19-27.6-23.19-27.6l118.96-95.52C2147.85,435.05,2148.35,442.77,2147.32,454.49z"/>
	<path class="st5" d="M1978.64,290.44c0,0-18.34,56.07-8.42,118.11c10.17,63.77,24.71,96.17,49.31,120.08
		c11.83,11.49,117.33-0.62,129.08-91.18c0,0,23.62-4.88,20.87-32.55c-2.77-27.66-24.87-39.88-31.16,0.98c0,0-25.27,4.98-26-49.87
		C2028.35,366.45,1994.1,336.14,1978.64,290.44z"/>
	<path class="st9" d="M2109.18,780.78l24.79,216.43c0.8,7.05-2.9,13.08-8.86,15.38c-1.7,0.7-3.55,1.05-5.57,1.05l-145.71,0.02
		c-9,0-17.15-7.36-18.18-16.43l-24.79-216.43c-0.24-1.99-0.11-3.89,0.35-5.64c1.56-6.3,7.03-10.78,14.05-10.78l145.73-0.02
		C2099.99,764.35,2108.14,771.71,2109.18,780.78z"/>
	<path class="st25" d="M2099.85,783.34l25.62,223.55c0.24,2.03,0.11,3.94-0.35,5.69c-1.7,0.7-3.55,1.05-5.57,1.05l-145.71,0.02
		c-9,0-17.15-7.36-18.18-16.43l-24.79-216.43c-0.24-1.99-0.11-3.89,0.35-5.64c1.66-0.71,3.54-1.05,5.56-1.05l152.83-0.01
		C2094.66,774.08,2099.27,778.21,2099.85,783.34z"/>
	<path class="st18" d="M2038.75,887.15c1.25,10.87-5.15,19.66-14.27,19.66c-9.13,0-17.54-8.8-18.77-19.65
		c-1.24-10.85,5.14-19.66,14.26-19.66C2029.09,867.5,2037.51,876.3,2038.75,887.15z"/>
	<path class="st5" d="M2338.37,1001.81c-43.22,17.56-133.35,9.5-209.59-5.13c-76.2-14.69-104.04-18.34-104.04-18.34
		s-53.74,5.88-63.53,4.9c-9.79-0.99-41.04-52.27-41.04-65.96c0-13.7,18.09-34.21,18.09-34.21s-19.07-6.83-20.52-16.62
		c-1.48-9.74,11.93-0.94,41.11-1.43c29.24-0.5,50.71,5.83,58.53,11.72c7.86,5.87,36.19,33.21,36.19,33.21s87.92,14.64,148.97,10.74
		c61.11-3.91,72.82-4.66,72.82-4.66l-4.11-14.14l-47.95-164.65c0,0,21.51-136.02,55.47-119.66c33.96,16.32,77.19,198.83,88.9,265.48
		C2379.41,949.75,2381.63,984.21,2338.37,1001.81z"/>
	<linearGradient id="SVGID_18_" gradientUnits="userSpaceOnUse" x1="2223.3262" y1="755.0583" x2="2386.2195" y2="755.0583">
		<stop  offset="0" style="stop-color:#8647E1"/>
		<stop  offset="1" style="stop-color:#B78FED"/>
	</linearGradient>
	<path class="st26" d="M2223.33,737.24l27.12,138.51c0,0-1.71,4.94,15.45,7.78c0,0-12.52-18.05,33.65-19.14
		c46.17-1.1,73.2,16.67,75.44,19.14c2.23,2.48-5.83,8.04-5.83,8.04l0.85,5.05c0,0,20.77-4.75,15.28-31.87
		c-5.5-27.11-59.62-197.4-76.9-219.44c-17.28-22.04-23.87-34.85-39.62-31.19C2253.01,617.79,2223.7,688.14,2223.33,737.24z"/>
	<path class="st5" d="M2335.46,938.77c-23.94-22.99-60.09-22.74-60.09-22.74l-4.11-14.14
		C2315.76,906.37,2335.46,938.77,2335.46,938.77z"/>
	<path class="st15" d="M1347.45,1236.49H851.83c-25.25,0-45.73-20.48-45.73-45.72V434.51c0-25.24,20.48-45.72,45.73-45.72h495.61
		c25.25,0,45.73,20.48,45.73,45.72v756.25C1393.18,1216.01,1372.7,1236.49,1347.45,1236.49z"/>
	<rect x="870.6" y="501.08" class="st18" width="234.3" height="35.55"/>
	<rect x="870.6" y="583.73" class="st18" width="443.6" height="35.55"/>
	<rect x="870.6" y="671.92" class="st18" width="443.6" height="35.54"/>
	<rect x="870.6" y="760.11" class="st18" width="443.6" height="35.54"/>
	<rect x="870.6" y="848.3" class="st18" width="443.6" height="35.54"/>
	<rect x="870.6" y="936.5" class="st18" width="365.93" height="35.53"/>
	<linearGradient id="SVGID_19_" gradientUnits="userSpaceOnUse" x1="962.7481" y1="1101.668" x2="1261.5488" y2="1101.668">
		<stop  offset="0" style="stop-color:#8647E1"/>
		<stop  offset="1" style="stop-color:#B78FED"/>
	</linearGradient>
	<path class="st27" d="M1214.15,1149.05h-204.03c-26.16,0-47.38-21.21-47.38-47.38l0,0c0-26.17,21.21-47.39,47.38-47.39h204.03
		c26.18,0,47.4,21.22,47.4,47.39l0,0C1261.55,1127.84,1240.33,1149.05,1214.15,1149.05z"/>
	<path class="st15" d="M2709.09,342.36h-350.51c-41.6,0-75.32-33.72-75.32-75.32V75.34c0-41.61,33.72-75.34,75.32-75.34h350.51
		c41.6,0,75.32,33.73,75.32,75.34v191.7C2784.42,308.64,2750.69,342.36,2709.09,342.36z"/>
	<path class="st18" d="M2461.12,234.21V108.15c0-14.7,15.97-23.85,28.65-16.4l107.38,63.02c12.52,7.35,12.52,25.47,0,32.82
		l-107.38,63.03C2477.1,258.07,2461.12,248.91,2461.12,234.21z"/>
	<linearGradient id="SVGID_20_" gradientUnits="userSpaceOnUse" x1="428.8613" y1="2369.3809" x2="864.0665" y2="2369.3809">
		<stop  offset="0" style="stop-color:#8647E1"/>
		<stop  offset="1" style="stop-color:#B78FED"/>
	</linearGradient>
	<path class="st28" d="M835.04,2280.18c0,0,41.99,49.93,24.97,110.08c-17.03,60.14-231.51,69.45-231.51,69.45l-199.63-14.53
		l5.29-19.89c7.51-25.46,127.27-92.15,212.78-146.26L835.04,2280.18z"/>
	<linearGradient id="SVGID_21_" gradientUnits="userSpaceOnUse" x1="631.2422" y1="2335.0566" x2="789.9162" y2="2335.0566">
		<stop  offset="0" style="stop-color:#8647E1"/>
		<stop  offset="1" style="stop-color:#B78FED"/>
	</linearGradient>
	<path class="st29" d="M756.19,2307.26c0,0-59.62-0.41-64.71,2.42c-5.11,2.83,93.23,2.83,98.25,23.27
		c5.01,20.42-92.01-8.48-92.01-8.48l42.88,63.63l-109.36-106.08l108.6,11.26L756.19,2307.26z"/>
	<path class="st5" d="M723.98,2252.22c0,0-26.9-25.77-64.72-34.78c0,0-117.63-66.14-155.97-90.74
		c-38.35-24.61-57.95-29.68-57.95-29.68s-9.48-63.82-11.32-130.2c-1.85-66.39-26.45-134.6-64.93-164.66
		c-38.46-30.05-40.35,301.06-40.35,301.06l164.43,121.38l160.18,38.62L723.98,2252.22z"/>
	<path class="st16" d="M369.09,1802.17c0,0,34.84,22.98,53.7,91.26c18.87,68.26,27.14,123.75,27.14,123.75
		s-16.61,59.62-106.87,41.08C252.81,2039.72,324.87,1760.9,369.09,1802.17z"/>
	<path class="st16" d="M468.18,2193.91l-5.97,3.39L94.18,2406.11c0,0-20.92,6.54-34.52-14.71c-2.26-3.54-2.64-10.8-2.68-21.02
		c0.04-0.05,0-0.09,0-0.09c-0.06-14.67,0.62-35.39-2.44-59.75c-7.83-62.14-24.88-147.82-18.72-216.21
		c10.22-114.04,9.37-234.07,57.02-285.97c47.67-51.92,140.71-62.75,140.71-62.75l136.02,56.3c0,0,54.34,58.36,32.23,115.38
		c-3.73,9.71-6.97,21.54-9.79,34.59c0,0,0,0.05-0.05,0.14c-0.05,0.15-0.05,0.25-0.11,0.38c-13.5,63.71-16.43,154.7-16.43,154.7
		c43.62,34,81.44,74.45,90.61,84.48C467.46,2193.1,468.18,2193.91,468.18,2193.91z"/>
	<path class="st16" d="M466.03,2191.58l-3.82,5.73L94.18,2406.11c0,0-20.92,6.54-34.52-14.71c-2.26-3.54-2.64-10.8-2.68-21.02
		c0.04-0.05,0-0.09,0-0.09c4.81-24.99,10.7-74.98,0.52-142.33c-14.96-98.72,10.74-232.63,10.74-232.63s21.16,131.62,87.03,137.3
		c65.8,5.69,207.65-194.05,207.65-194.05s-21.53,81.71-34.19,113.91c-12.6,32.19-106.5,152.79-106.5,152.79s51.05-17.05,87.11-47.44
		c34.85-29.42,79.81-195.23,82.51-205.46c-13.5,63.71-16.43,154.7-16.43,154.7C419.04,2141.09,456.86,2181.55,466.03,2191.58z"/>
	<path class="st10" d="M619.67,2257.77l170.06-33.21c0,0-32.14,75.27-35.56,72.11c-3.4-3.17-107.25-17.63-107.25-17.63
		L619.67,2257.77z"/>
	<path class="st10" d="M1079.31,2067.88l-167.88,233.3c-12.42,17.19-33.43,25.93-54.4,22.59l-165.56-27.1l198.03-275.03
		l182.11,27.98C1080.21,2050.92,1084.37,2060.86,1079.31,2067.88z"/>
	<path class="st9" d="M889.5,2021.65l-167.85,258.6c-7.76,11.96-21.85,18.22-35.93,15.96l-85.58-13.75l19.54-24.69l75.66,13.08
		c7.83,1.33,15.71-2.05,20.09-8.7l153.99-234.18c3.4-5.19,9.52-7.92,15.66-7L889.5,2021.65z"/>
	<path class="st10" d="M69.42,2107.96c0,0,4.89,9.58,51.29,7.45c46.38-2.13,88.31-20.64,90.01-37.02
		c1.71-16.39-32.56-22.56-62.14-21.5C119,2057.95,59.21,2072.21,69.42,2107.96z"/>
	<path class="st5" d="M199.29,2070.42c0,0-2.9,54.57,0,61.8c2.9,7.24,293.48,60.86,293.48,60.86s68.19-14.56,86.92-13.25
		c18.72,1.32,80.86,66.02,79.15,73.67c-1.71,7.67-12.76,5.97-12.76,5.97s-10.88,10.23-25.96,4.68c0,0-17.89,5.95-31.92-0.85
		c-14.04-6.81-33.63-26.39-48.95-25.11c-15.32,1.27-30.22,18.72-62.56,4.26c0,0-211.94,8.5-284.29,1.7
		c-72.34-6.81-91.07-18.72-99.59-45.96c-8.51-27.23-14.18-104.3-14.18-104.3S108.3,2019.26,199.29,2070.42z"/>
	<path class="st16" d="M79.2,2113.36c0,0-21.56-7.38,5.11-23.27c26.67-15.9,104.41-24.98,118.03-18.73c13.62,6.25,0,20,0,20
		s13.04-5.24,13.04-26.24c0-20.99-2.83-132.77-12.48-182.14c-9.64-49.37-23.83-90.22-84.54-72.06
		c-60.71,18.15-64.69,266.13-59.01,285.98C65.02,2116.75,79.2,2113.36,79.2,2113.36z"/>
	<path class="st2" d="M760.05,2449.49c0,0,24.37,0.93,63.03-3.55c38.64-4.48,93.21,11.15,97.64,48.59
		c4.44,37.46-31.16,52.86-54.1,55.51c-22.94,2.65-97.16-9.49-126.77-21.92L760.05,2449.49z"/>
	<linearGradient id="SVGID_22_" gradientUnits="userSpaceOnUse" x1="92.834" y1="2357.1106" x2="789.7335" y2="2357.1106">
		<stop  offset="0" style="stop-color:#8647E1"/>
		<stop  offset="1" style="stop-color:#B78FED"/>
	</linearGradient>
	<path class="st30" d="M736.3,2534.38c0,0-56.74-19.29-141.85-55.58c-85.11-36.34-145.29-78.33-145.29-78.33
		s-9.65,10.17-25.21,24.83c-35.63,33.58-102.3,90.74-155.22,103.4c-76.04,18.14-169.12-12.46-175.9-138.45
		c0.29-0.34,0.58-0.67,0.92-1.01c2.68-2.81,10.8-11.36,22.72-22.44c29.42-27.17,81.87-69.59,131.82-78.67
		c0,0,172.3-123.73,244.47-106.69c72.16,17,296.88,257.61,296.88,257.61S794.18,2506.02,736.3,2534.38z"/>
	<linearGradient id="SVGID_23_" gradientUnits="userSpaceOnUse" x1="116.4785" y1="2377.3003" x2="248.3008" y2="2377.3003">
		<stop  offset="0" style="stop-color:#8647E1"/>
		<stop  offset="1" style="stop-color:#B78FED"/>
	</linearGradient>
	<path class="st31" d="M248.3,2288.14c0,0-24.99,74.32-32.91,122.56c-7.92,48.23-18.71,63.56-28.95,52.19
		c-10.07-11.22,29.8-123.46,30.9-126.6c-2.04,1.67-53.92,44.42-70.63,78.93c-17,35.21-6.79-57.31,50.81-85.67
		c0,0-41.36,4.68-81.04,37.26C145.9,2339.63,198.34,2297.22,248.3,2288.14z"/>
	<linearGradient id="SVGID_24_" gradientUnits="userSpaceOnUse" x1="419.1172" y1="2345.9814" x2="449.1719" y2="2345.9814">
		<stop  offset="0" style="stop-color:#8647E1"/>
		<stop  offset="1" style="stop-color:#B78FED"/>
	</linearGradient>
	<path class="st32" d="M449.17,2400.47c0,0-9.65,10.17-25.21,24.83c-0.77-13.75-2.11-35.53-4.29-64
		c-3.88-50.14,14.22-92.31,15.28-94.64C416.55,2350.57,449.17,2400.47,449.17,2400.47z"/>
	<path class="st2" d="M597.15,2556.8c0,0,25.5-5.24,16.35-53.66c-9.15-48.43-54.93-60.13-73.06-63.18
		c-18.12-3.04-44.97-17.01-63.62-22.35c-18.65-5.32-60.93,3.34-71.3,28.7c-10.37,25.36,11.51,58.99,11.51,58.99L597.15,2556.8z"/>
	<path class="st2" d="M409.87,2452.27c-20.29,24.31,9.77,73.59,54.71,82.67c44.95,9.07,137.46,47.8,137.94,10.17
		c0.49-37.61-8.88-80.23-73.35-88.12C464.71,2449.08,419.41,2440.85,409.87,2452.27z"/>
	<path class="st11" d="M275.46,1699.07c0,0-20.81-76.03-0.92-132.01c25.03-70.43,63.85-65.62,63.85-65.62s8.71-28.17,40.6-32.51
		c31.88-4.33,73.06,0.55,104.95,39.02c31.88,38.46,66.1,26.54,66.1,26.54s-6.92,12.46-20.27,14.63c0,0,13.32,15.17,29.55,9.22
		c0,0-9.28,12.46-13.92,29.79c-4.64,17.34-32.51,20.53-32.51,20.53s8.16,64.83-52.73,73.35
		C399.28,1690.53,275.46,1699.07,275.46,1699.07z"/>
	<path class="st5" d="M369.56,1801.91c0,0,0.05,1.72-0.05,4.58c-0.29,16.15-3.58,68.78-33.86,62.23
		c-35.77-7.64-102.11-123.11-102.11-123.11l64.67-81.1c0.05-0.05,0.05-0.05,0.05-0.05s0.04,0,0.1,0.05l110.7,105.7L369.56,1801.91z"
		/>
	<path class="st5" d="M369.56,1801.91c0,0,0.05,1.72-0.05,4.58c-112.67-25.07-72.4-138.93-71.3-141.98
		c0.05-0.05,0.05-0.05,0.05-0.05s0.04,0,0.1,0.05l110.7,105.7L369.56,1801.91z"/>
	<path class="st5" d="M481.81,1597.26c0,0,5.58,66.49-21.51,121.45c-27.09,54.96-24.99,75.18-68.88,71.21
		c-43.89-3.98-109.35-62.77-94.3-129.01c0,0-16.86-27.07,2.56-55.52c19.42-28.46,37.76-2.3,31.12,22.69c0,0,17.66,3.04,26.69-3.78
		c9.04-6.82,6.12-35.54,22.55-36.28c16.43-0.74,29.04-28.06,29.04-28.06S440.66,1603.12,481.81,1597.26z"/>
	<path class="st10" d="M496.82,1287.3h-75.38v71.08l-95.01-71.08H21.71c-11.99,0-21.71-9.72-21.71-21.72v-264.57
		c0-11.99,9.72-21.73,21.71-21.73h475.11c11.99,0,21.72,9.74,21.72,21.73v264.57C518.54,1277.58,508.81,1287.3,496.82,1287.3z"/>
	<rect x="50.01" y="1026.68" class="st18" width="209.26" height="27.12"/>
	<rect x="50.01" y="1086.34" class="st18" width="419.46" height="27.13"/>
	<rect x="50.01" y="1146.9" class="st18" width="419.46" height="27.12"/>
	<rect x="50.01" y="1207.45" class="st18" width="349.26" height="27.12"/>
</g>
</svg>
