<?xml version="1.0" encoding="utf-8"?>
<!-- Generator: Adobe Illustrator 25.2.1, SVG Export Plug-In . SVG Version: 6.00 Build 0)  -->
<svg version="1.1" id="Layer_1" xmlns="http://www.w3.org/2000/svg" width="100" xmlns:xlink="http://www.w3.org/1999/xlink" x="0px" y="0px"
	 viewBox="0 0 770.79 953.71" style="enable-background:new 0 0 770.79 953.71;" xml:space="preserve">
<style type="text/css">
	.st0{opacity:0.15;fill:url(#SVGID_1_);}
	.st1{fill:none;stroke:#020202;stroke-width:15;stroke-linecap:round;stroke-linejoin:round;stroke-miterlimit:10;}
</style>
<g>
	<linearGradient id="SVGID_1_" gradientUnits="userSpaceOnUse" x1="382.7249" y1="743.6566" x2="581.8738" y2="204.4225">
		<stop  offset="0" style="stop-color:#8647E1"/>
		<stop  offset="1" style="stop-color:#B78FED"/>
	</linearGradient>
	<polygon class="st0" points="0,563.04 770.79,0 754.58,953.71 	"/>
	<g>
		<line class="st1" x1="402.16" y1="512.06" x2="695.4" y2="512.06"/>
		<line class="st1" x1="361.71" y1="663.74" x2="361.71" y2="714.3"/>
		<path class="st1" d="M503.27,734.52L442.6,623.29h-70.78c-33.51,0-60.67-27.16-60.67-60.67V451.39
			c0-22.34,18.11-40.45,40.45-40.45h40.45l50.56,60.67h70.78c0,0,5.81,40.45-40.45,40.45c-26.96,0-60.67,0-60.67,0l-40.45-40.45"/>
		<path class="st1" d="M402.16,491.84v60.67h50.56c21.48,0,40.62,13.58,47.72,33.86l48.82,148.15"/>
		<path class="st1" d="M270.71,431.17v151.67c0,44.68,36.22,80.89,80.89,80.89h70.78"/>
		<polyline class="st1" points="422.38,734.52 402.16,734.52 381.93,734.52 361.71,714.3 341.49,734.52 321.27,734.52 
			301.04,734.52 		"/>
		<path class="st1" d="M366.77,380.61c25.41,0,45.5-19.4,45.5-43.33v-14.45c0-23.93-20.09-43.33-45.5-43.33
			c-25.41,0-45.5,19.4-45.5,43.33v14.45C321.27,361.21,341.36,380.61,366.77,380.61z"/>
		<polyline class="st1" points="491.14,441.28 523.5,360.39 705.51,360.39 656.97,481.73 543.72,481.73 		"/>
	</g>
</g>
</svg>
