<?xml version="1.0" encoding="utf-8"?>
<!-- Generator: Adobe Illustrator 25.2.1, SVG Export Plug-In . SVG Version: 6.00 Build 0)  -->
<svg version="1.1" id="Layer_1" xmlns="http://www.w3.org/2000/svg" width="380" xmlns:xlink="http://www.w3.org/1999/xlink" x="0px" y="0px"
	 viewBox="0 0 779.75 884.35" style="enable-background:new 0 0 779.75 884.35;" xml:space="preserve">
<style type="text/css">
	.st0{fill:#E2DEFC;}
	.st1{fill:url(#SVGID_1_);}
	.st2{fill:url(#SVGID_2_);}
	.st3{fill:url(#SVGID_3_);}
	.st4{fill:url(#SVGID_4_);}
	.st5{fill:url(#SVGID_5_);}
	.st6{fill:url(#SVGID_6_);}
	.st7{fill:url(#SVGID_7_);}
	.st8{fill:url(#SVGID_8_);}
	.st9{fill:url(#SVGID_9_);}
	.st10{fill:url(#SVGID_10_);}
	.st11{fill:url(#SVGID_11_);}
	.st12{fill:url(#SVGID_12_);}
	.st13{fill:url(#SVGID_13_);}
	.st14{fill:#CBCBCB;}
	.st15{fill:url(#SVGID_14_);}
	.st16{fill:url(#SVGID_15_);}
	.st17{fill:url(#SVGID_16_);}
	.st18{fill:#FFFFFF;}
	.st19{fill:url(#SVGID_17_);}
	.st20{fill:url(#SVGID_18_);}
	.st21{fill:url(#SVGID_19_);}
	.st22{fill:url(#SVGID_20_);}
	.st23{fill:#814D4D;}
	.st24{fill:#333333;}
	.st25{fill:#F89AB5;}
	.st26{clip-path:url(#SVGID_22_);}
	.st27{fill:url(#SVGID_23_);}
	.st28{fill:url(#SVGID_24_);}
	.st29{fill:#FFD6D6;}
	.st30{fill:url(#SVGID_25_);}
	.st31{fill:url(#SVGID_26_);}
	.st32{fill:url(#SVGID_27_);}
	.st33{fill:url(#SVGID_28_);}
	.st34{fill:url(#SVGID_29_);}
	.st35{fill:#450606;}
	.st36{fill:#603131;}
	.st37{fill:url(#SVGID_30_);}
	.st38{fill:url(#SVGID_31_);}
	.st39{fill:url(#SVGID_32_);}
	.st40{fill:url(#SVGID_33_);}
	.st41{fill:url(#SVGID_34_);}
	.st42{fill:url(#SVGID_35_);}
	.st43{fill:url(#SVGID_36_);}
	.st44{fill:url(#SVGID_37_);}
	.st45{fill:url(#SVGID_38_);}
	.st46{fill:url(#SVGID_39_);}
	.st47{fill:url(#SVGID_40_);}
	.st48{fill:url(#SVGID_41_);}
	.st49{fill:url(#SVGID_42_);}
	.st50{fill:url(#SVGID_43_);}
	.st51{fill:#A0A0A0;}
	.st52{fill:#E5E5E5;}
	.st53{fill:url(#SVGID_44_);}
	.st54{fill:url(#SVGID_45_);}
	.st55{fill:url(#SVGID_46_);}
	.st56{fill:url(#SVGID_47_);}
	.st57{fill:url(#SVGID_48_);}
	.st58{fill:url(#SVGID_49_);}
	.st59{fill:url(#SVGID_50_);}
	.st60{fill:url(#SVGID_51_);}
	.st61{fill:url(#SVGID_52_);}
</style>
<g>
	<g>
		<g>
			<polygon class="st0" points="281.55,694.2 244.69,715.49 244.69,485.46 281.55,464.18 			"/>
			<linearGradient id="SVGID_1_" gradientUnits="userSpaceOnUse" x1="207.8314" y1="589.8332" x2="244.6931" y2="589.8332">
				<stop  offset="0" style="stop-color:#8647E1"/>
				<stop  offset="1" style="stop-color:#B78FED"/>
			</linearGradient>
			<polygon class="st1" points="207.83,694.2 244.69,715.49 244.69,485.46 207.83,464.18 			"/>
			<linearGradient id="SVGID_2_" gradientUnits="userSpaceOnUse" x1="207.8315" y1="464.18" x2="281.5548" y2="464.18">
				<stop  offset="0" style="stop-color:#8647E1"/>
				<stop  offset="1" style="stop-color:#B78FED"/>
			</linearGradient>
			<polygon class="st2" points="281.55,464.18 244.69,485.46 207.83,464.18 244.69,442.9 			"/>
		</g>
		<g>
			<polygon class="st0" points="362.69,642.91 325.83,664.2 325.83,400.09 362.69,378.81 			"/>
			<linearGradient id="SVGID_3_" gradientUnits="userSpaceOnUse" x1="288.9647" y1="521.5012" x2="325.8264" y2="521.5012">
				<stop  offset="0" style="stop-color:#8647E1"/>
				<stop  offset="1" style="stop-color:#B78FED"/>
			</linearGradient>
			<polygon class="st3" points="288.96,642.91 325.83,664.2 325.83,400.09 288.96,378.81 			"/>
			<linearGradient id="SVGID_4_" gradientUnits="userSpaceOnUse" x1="288.9648" y1="378.8056" x2="362.688" y2="378.8056">
				<stop  offset="0" style="stop-color:#8647E1"/>
				<stop  offset="1" style="stop-color:#B78FED"/>
			</linearGradient>
			<polygon class="st4" points="362.69,378.81 325.83,400.09 288.96,378.81 325.83,357.52 			"/>
		</g>
		<g>
			<polygon class="st0" points="444.72,589.87 407.86,611.15 407.86,305.37 444.72,284.09 			"/>
			<linearGradient id="SVGID_5_" gradientUnits="userSpaceOnUse" x1="370.9991" y1="447.6194" x2="407.8608" y2="447.6194">
				<stop  offset="0" style="stop-color:#8647E1"/>
				<stop  offset="1" style="stop-color:#B78FED"/>
			</linearGradient>
			<polygon class="st5" points="371,589.87 407.86,611.15 407.86,305.37 371,284.09 			"/>
			<linearGradient id="SVGID_6_" gradientUnits="userSpaceOnUse" x1="370.9992" y1="284.0851" x2="444.7225" y2="284.0851">
				<stop  offset="0" style="stop-color:#8647E1"/>
				<stop  offset="1" style="stop-color:#B78FED"/>
			</linearGradient>
			<polygon class="st6" points="444.72,284.08 407.86,305.37 371,284.09 407.86,262.8 			"/>
		</g>
		<g>
			<polygon class="st0" points="526.58,544.17 489.71,565.46 489.71,218.88 526.58,197.6 			"/>
			<linearGradient id="SVGID_7_" gradientUnits="userSpaceOnUse" x1="452.8531" y1="381.5255" x2="489.7149" y2="381.5255">
				<stop  offset="0" style="stop-color:#8647E1"/>
				<stop  offset="1" style="stop-color:#B78FED"/>
			</linearGradient>
			<polygon class="st7" points="452.85,544.17 489.71,565.46 489.71,218.88 452.85,197.6 			"/>
			<linearGradient id="SVGID_8_" gradientUnits="userSpaceOnUse" x1="452.8533" y1="197.5957" x2="526.5765" y2="197.5957">
				<stop  offset="0" style="stop-color:#8647E1"/>
				<stop  offset="1" style="stop-color:#B78FED"/>
			</linearGradient>
			<polygon class="st8" points="526.58,197.6 489.71,218.88 452.85,197.6 489.71,176.31 			"/>
		</g>
		<g>
			<polygon class="st0" points="607.58,498.6 570.72,519.89 570.72,131.63 607.58,110.35 			"/>
			<linearGradient id="SVGID_9_" gradientUnits="userSpaceOnUse" x1="533.8584" y1="315.1179" x2="570.7202" y2="315.1179">
				<stop  offset="0" style="stop-color:#8647E1"/>
				<stop  offset="1" style="stop-color:#B78FED"/>
			</linearGradient>
			<polygon class="st9" points="533.86,498.6 570.72,519.89 570.72,131.63 533.86,110.35 			"/>
			<linearGradient id="SVGID_10_" gradientUnits="userSpaceOnUse" x1="533.8585" y1="110.3493" x2="607.5818" y2="110.3493">
				<stop  offset="0" style="stop-color:#8647E1"/>
				<stop  offset="1" style="stop-color:#B78FED"/>
			</linearGradient>
			<polygon class="st10" points="607.58,110.35 570.72,131.63 533.86,110.35 570.72,89.07 			"/>
		</g>
		<g>
			<polygon class="st0" points="690.25,450.33 653.39,471.61 653.39,42.56 690.25,21.28 			"/>
			<linearGradient id="SVGID_11_" gradientUnits="userSpaceOnUse" x1="616.5274" y1="246.446" x2="653.3891" y2="246.446">
				<stop  offset="0" style="stop-color:#8647E1"/>
				<stop  offset="1" style="stop-color:#B78FED"/>
			</linearGradient>
			<polygon class="st11" points="616.53,450.33 653.39,471.61 653.39,42.56 616.53,21.28 			"/>
			<linearGradient id="SVGID_12_" gradientUnits="userSpaceOnUse" x1="616.5275" y1="21.2821" x2="690.2508" y2="21.2821">
				<stop  offset="0" style="stop-color:#8647E1"/>
				<stop  offset="1" style="stop-color:#B78FED"/>
			</linearGradient>
			<polygon class="st12" points="690.25,21.28 653.39,42.56 616.53,21.28 653.39,0 			"/>
		</g>
	</g>
	<g>
		<linearGradient id="SVGID_13_" gradientUnits="userSpaceOnUse" x1="340.6457" y1="469.7404" x2="738.8053" y2="469.7404">
			<stop  offset="0" style="stop-color:#F3F3FA"/>
			<stop  offset="1" style="stop-color:#DCDFFB"/>
		</linearGradient>
		<polygon class="st13" points="340.65,766.69 738.81,537.84 738.81,172.79 340.65,402.67 		"/>
		<g>
			<polygon class="st14" points="359.8,640.24 359.8,476.71 360.81,476.13 360.81,639.66 			"/>
			<polygon class="st14" points="376.08,630.84 376.08,467.32 377.08,466.74 377.08,630.26 			"/>
			<polygon class="st14" points="392.36,621.44 392.36,457.92 393.36,457.34 393.36,620.86 			"/>
			<polygon class="st14" points="408.63,612.05 408.63,448.52 409.64,447.94 409.64,611.47 			"/>
			<polygon class="st14" points="424.91,602.65 424.91,439.12 425.91,438.54 425.91,602.07 			"/>
			<polygon class="st14" points="441.19,593.25 441.19,429.73 442.19,429.15 442.19,592.67 			"/>
			<polygon class="st14" points="457.46,583.85 457.46,420.33 458.47,419.75 458.47,583.27 			"/>
			<polygon class="st14" points="473.74,574.46 473.74,410.93 474.74,410.35 474.74,573.88 			"/>
			<polygon class="st14" points="490.02,565.06 490.02,401.53 491.02,400.95 491.02,564.48 			"/>
		</g>
		<g>
			<polygon class="st14" points="354.6,485.72 496.22,403.96 496.22,405.12 354.6,486.88 			"/>
			<polygon class="st14" points="354.6,504.51 496.22,422.75 496.22,423.91 354.6,505.67 			"/>
			<polygon class="st14" points="354.6,523.31 496.22,441.55 496.22,442.71 354.6,524.47 			"/>
			<polygon class="st14" points="354.6,542.1 496.22,460.34 496.22,461.5 354.6,543.26 			"/>
			<polygon class="st14" points="354.6,560.9 496.22,479.14 496.22,480.29 354.6,562.06 			"/>
			<polygon class="st14" points="354.6,579.69 496.22,497.93 496.22,499.09 354.6,580.85 			"/>
			<polygon class="st14" points="354.6,598.49 496.22,516.72 496.22,517.88 354.6,599.65 			"/>
			<polygon class="st14" points="354.6,617.28 496.22,535.52 496.22,536.68 354.6,618.44 			"/>
			<polygon class="st14" points="354.6,636.08 496.22,554.31 496.22,555.47 354.6,637.24 			"/>
		</g>
		<linearGradient id="SVGID_14_" gradientUnits="userSpaceOnUse" x1="698.3423" y1="210.8437" x2="373.1684" y2="457.3654">
			<stop  offset="0" style="stop-color:#8647E1"/>
			<stop  offset="1" style="stop-color:#B78FED"/>
		</linearGradient>
		<polygon class="st15" points="728.26,235.79 425.91,410.35 425.91,369.75 728.26,195.19 		"/>
		<linearGradient id="SVGID_15_" gradientUnits="userSpaceOnUse" x1="681.5571" y1="188.7031" x2="356.3831" y2="435.2249">
			<stop  offset="0" style="stop-color:#8647E1"/>
			<stop  offset="1" style="stop-color:#B78FED"/>
		</linearGradient>
		<polygon class="st16" points="408.63,420.33 359.8,448.52 359.8,407.92 408.63,379.73 		"/>
		<linearGradient id="SVGID_16_" gradientUnits="userSpaceOnUse" x1="359.8018" y1="500.7" x2="501.4187" y2="500.7">
			<stop  offset="0" style="stop-color:#5C5E60"/>
			<stop  offset="1" style="stop-color:#9FA1A4"/>
		</linearGradient>
		<polygon class="st17" points="501.42,469.97 359.8,551.73 359.8,531.43 501.42,449.67 		"/>
		<g>
			<polygon class="st18" points="501.42,585.93 359.8,667.69 359.8,661.16 501.42,579.39 			"/>
			<polygon class="st18" points="501.42,602.17 359.8,683.93 359.8,677.4 501.42,595.64 			"/>
			<polygon class="st18" points="501.42,618.41 359.8,700.18 359.8,693.65 501.42,611.88 			"/>
			<polygon class="st18" points="501.42,634.66 359.8,716.42 359.8,709.89 501.42,628.13 			"/>
		</g>
		<g>
			<polygon class="st18" points="711.65,464.55 570.03,546.31 570.03,539.78 711.65,458.02 			"/>
			<polygon class="st18" points="711.65,480.8 570.03,562.56 570.03,556.03 711.65,474.26 			"/>
			<polygon class="st18" points="711.65,497.04 570.03,578.8 570.03,572.27 711.65,490.51 			"/>
			<polygon class="st18" points="711.65,513.28 570.03,595.05 570.03,588.51 711.65,506.75 			"/>
		</g>
		<linearGradient id="SVGID_17_" gradientUnits="userSpaceOnUse" x1="359.8018" y1="547.6697" x2="443.7389" y2="547.6697">
			<stop  offset="0" style="stop-color:#5C5E60"/>
			<stop  offset="1" style="stop-color:#9FA1A4"/>
		</linearGradient>
		<polygon class="st19" points="443.74,533.59 359.8,582.05 359.8,561.75 443.74,513.29 		"/>
		<linearGradient id="SVGID_18_" gradientUnits="userSpaceOnUse" x1="359.8018" y1="571.0303" x2="467.8439" y2="571.0303">
			<stop  offset="0" style="stop-color:#5C5E60"/>
			<stop  offset="1" style="stop-color:#9FA1A4"/>
		</linearGradient>
		<polygon class="st20" points="467.84,549.99 359.8,612.37 359.8,592.07 467.84,529.69 		"/>
		<linearGradient id="SVGID_19_" gradientUnits="userSpaceOnUse" x1="359.8018" y1="500.5758" x2="396.8202" y2="500.5758">
			<stop  offset="0" style="stop-color:#5C5E60"/>
			<stop  offset="1" style="stop-color:#9FA1A4"/>
		</linearGradient>
		<polygon class="st21" points="396.82,500.04 359.8,521.41 359.8,501.11 396.82,479.74 		"/>
		<g>
			<path class="st18" d="M637.68,470.12c-5.15,2.85-10.32,5.01-15.42,6.37c-22.33,5.98-39.78-4.09-45.76-26.42
				c-5.98-22.33,0.4-53.53,16.75-81.85c16.35-28.32,40.18-49.45,62.51-55.43c22.33-5.98,39.78,4.09,45.76,26.42
				c5.98,22.33-0.4,53.53-16.75,81.85l-45.76-26.42L637.68,470.12z"/>
			<linearGradient id="SVGID_20_" gradientUnits="userSpaceOnUse" x1="649.6727" y1="438.6685" x2="659.6727" y2="447.5573">
				<stop  offset="0" style="stop-color:#8647E1"/>
				<stop  offset="1" style="stop-color:#B78FED"/>
			</linearGradient>
			<path class="st22" d="M687.6,426.94l-45.75-26.41l-1.33,75.46C658.15,466.23,675.16,448.49,687.6,426.94z"/>
		</g>
	</g>
	<g>
		<g>
			<path class="st23" d="M757.41,788.9c0.55,1.03,1.1,2.25,0.71,3.35c-0.39,1.1-1.23,1.99-2.31,2.43c-2.22,0.92-5.14,1.77-5.99,1.42
				c-3.49-1.42-17.71-11.57-17.9-11.88c-0.19-0.31-5.23-3.37-2.67-10L757.41,788.9z"/>
			<path class="st24" d="M729.25,774.22l0.31,0.15c-1.96,6.15,2.71,9.02,2.9,9.32c0.19,0.31,14.41,10.46,17.9,11.88
				c1.69,0.69,3.7-0.31,5.88-1.12c0.33-0.12,0.78-0.58,1.04-0.8c-0.38,0.46-0.96,1.16-1.51,1.43c-1.94,0.96-4.26,1.71-5.95,1.03
				c-3.49-1.42-17.71-11.57-17.9-11.88C731.73,783.91,726.7,780.85,729.25,774.22z"/>
			<path class="st23" d="M754.34,780.7l2.38,2.91l0.69,5.29c0,0-4.22,4.6-13.72-1.38c-5.69-3.58-9.5-6.08-11.56-7.62
				c-1.98-1.48-3.01-4.25-2.87-5.85c0.21-2.43,2.74-3.8,3.42-4.08c1.69-0.69,13.08,4.6,13.08,4.6L754.34,780.7z"/>
			<path class="st23" d="M729.28,773.9c0.3-2.33,2.73-3.66,3.4-3.93c1.51-0.62,10.84,3.57,12.74,4.44l5.51,8.16l-4.94,1.32
				C733.49,779.19,730.16,775.81,729.28,773.9z"/>
			<g>
				<g>
					<path class="st25" d="M730.16,608.71c1.12,3.12,4.96,3.01,9.55,1.37c4.59-1.64,6.34-5.4,5.23-8.52
						c-1.12-3.12-4.77-3.01-9.36-1.37c-1.58,0.56-4.36,2.04-5.58,2.8C727.67,604.44,729.43,606.66,730.16,608.71z"/>
					<path class="st25" d="M729.05,603.93l7.46-1.16l3.35-3.67l-5.29,0.43c-1.77,0.14-3.38,1.1-4.35,2.59L729.05,603.93z"/>
				</g>
				<g>
					<g>
						<g>
							<g>
								<g>
									<g>
										<g>
											<defs>
												<path id="SVGID_21_" d="M746.35,527.64c-0.08-0.1-0.03-0.04-0.03-0.04c0.01,0,0.04,0.04,0.05,0.06l0.14,0.16l0.32,0.39
													c0.22,0.28,0.45,0.58,0.67,0.9c0.45,0.63,0.9,1.3,1.33,1.99c0.87,1.38,1.67,2.87,2.42,4.39c1.5,3.05,2.76,6.3,3.78,9.66
													c2.05,6.71,3.14,13.86,3.45,21.08c0.17,3.43-0.01,6.77-0.66,9.94c-0.65,3.17-1.78,6.16-3.43,8.96
													c-3.3,5.62-8.78,10.42-14.8,14.82l-0.02,0.01c-2.12,1.55-2.58,4.53-1.03,6.65c1.47,2.01,4.25,2.52,6.34,1.24
													c3.4-2.1,6.79-4.37,10.05-7.04c3.24-2.67,6.36-5.77,8.95-9.43c2.6-3.65,4.6-7.84,5.85-12.17
													c1.26-4.33,1.82-8.74,1.96-13.03c0.21-8.22-0.45-16.56-2.34-24.8c-0.95-4.12-2.2-8.2-3.83-12.22
													c-0.82-2.01-1.72-3.99-2.77-5.97c-0.52-0.99-1.08-1.97-1.68-2.96c-0.3-0.49-0.62-0.99-0.96-1.5l-0.54-0.78l-0.3-0.42
													l-0.17-0.23l-0.26-0.32c-2.94-3.45-8.12-3.86-11.57-0.92C743.82,519.01,743.41,524.19,746.35,527.64z"/>
											</defs>
											<clipPath id="SVGID_22_">
												<use xlink:href="#SVGID_21_"  style="overflow:visible;"/>
											</clipPath>
											<g class="st26">
												
													<linearGradient id="SVGID_23_" gradientUnits="userSpaceOnUse" x1="-112.0939" y1="380.2534" x2="-110.1374" y2="372.036" gradientTransform="matrix(-1 0 0 1 390.7667 -862.3662)">
													<stop  offset="0" style="stop-color:#8647E1"/>
													<stop  offset="1" style="stop-color:#B78FED"/>
												</linearGradient>
												<rect x="694.93" y="505.53" class="st27" width="113.09" height="113.09"/>
											</g>
										</g>
									</g>
								</g>
							</g>
						</g>
					</g>
				</g>
			</g>
			<linearGradient id="SVGID_24_" gradientUnits="userSpaceOnUse" x1="719.497" y1="550.319" x2="719.497" y2="625.4861">
				<stop  offset="0" style="stop-color:#8647E1"/>
				<stop  offset="1" style="stop-color:#B78FED"/>
			</linearGradient>
			<path class="st28" d="M705.38,535.4l4,17.95c0,0-6.92,4.91-4.18,9.16c2.74,4.25,7.66,10.86,7.66,10.86s1.08,11.95-0.49,18.89
				c-1.56,6.94-6.69,27.49-6.69,27.49l6.7,4.37l22.05-45.07l-8.71-41.7l-8-0.73L705.38,535.4z"/>
			<path class="st23" d="M727.4,803.33c0.55,1.03,1.1,2.25,0.71,3.35c-0.39,1.1-1.23,1.99-2.31,2.43c-2.22,0.92-5.14,1.77-5.99,1.42
				c-3.49-1.42-17.71-11.57-17.9-11.88c-0.19-0.31-5.23-3.37-2.67-10L727.4,803.33z"/>
			<path class="st24" d="M699.25,788.65l0.31,0.15c-1.96,6.15,2.71,9.02,2.9,9.32c0.19,0.31,14.41,10.46,17.9,11.88
				c1.69,0.69,3.7-0.31,5.88-1.12c0.33-0.12,0.78-0.58,1.04-0.8c-0.38,0.46-0.96,1.16-1.51,1.43c-1.94,0.96-4.26,1.71-5.95,1.03
				c-3.49-1.42-17.71-11.57-17.9-11.88C701.73,798.35,696.69,795.28,699.25,788.65z"/>
			<path class="st23" d="M724.34,795.13l2.38,2.91l0.69,5.29c0,0-4.22,4.6-13.72-1.38c-5.69-3.58-9.5-6.08-11.56-7.62
				c-1.98-1.48-3.01-4.25-2.87-5.85c0.21-2.43,2.74-3.8,3.42-4.08c1.69-0.69,13.08,4.6,13.08,4.6L724.34,795.13z"/>
			<path class="st23" d="M699.28,788.33c0.3-2.33,2.73-3.66,3.4-3.93c1.51-0.62,10.84,3.57,12.74,4.44l5.51,8.16l-4.94,1.32
				C703.48,793.62,700.15,790.25,699.28,788.33z"/>
			<path class="st29" d="M765.62,633.95l-5.32,74.91c-0.49,6.25-0.76,12.49-1.12,18.74l-1.03,18.75l-2.06,37.51
				c-0.17,3.14-2.86,5.54-5.99,5.37c-2.93-0.16-5.22-2.54-5.37-5.4l-1.86-37.62l-0.93-18.82c-0.27-6.27-0.72-12.55-0.75-18.82
				l-1.42-75.29c-0.14-7.15,5.55-13.06,12.7-13.19c7.15-0.14,13.06,5.55,13.19,12.7C765.66,633.17,765.65,633.58,765.62,633.95z"/>
			<path class="st29" d="M734.66,641.1l-2.99,38.66l-1.5,19.35l-0.75,9.68l-0.37,4.84c-0.05,0.81-0.14,1.61-0.17,2.42l-0.07,2.42
				l-2.09,77.62c-0.08,3.14-2.7,5.62-5.84,5.54c-2.94-0.08-5.3-2.4-5.52-5.27l-5.74-77.97l-0.18-2.44
				c-0.05-0.81-0.03-1.63-0.04-2.44l-0.04-4.88l-0.08-9.76l-0.16-19.54l-0.32-39.11c-0.06-7.15,5.69-13,12.84-13.06
				c7.15-0.06,13,5.69,13.06,12.84C734.7,640.36,734.69,640.75,734.66,641.1z"/>
			<linearGradient id="SVGID_25_" gradientUnits="userSpaceOnUse" x1="737.6691" y1="550.319" x2="737.6691" y2="625.4861">
				<stop  offset="0" style="stop-color:#8647E1"/>
				<stop  offset="1" style="stop-color:#B78FED"/>
			</linearGradient>
			<path class="st30" d="M762.97,609.6l-0.58-2.14c-0.85-2.05-7.34-17.3-7.34-17.3l4.41-33c4.67-12.01-0.49-14.21-0.91-19.69
				l-3.65-17.78l-37.17,16.9l0.31,0.91c0.26,0.79,0.18,1.65-0.22,2.37c-1.67,3-2.41,6.88-2.79,10.13
				c-1.26,10.69,2.46,7.24,2.37,19.4c-0.03,3.98,0.15,18.01,0.2,22.53l-5.17,27.07c-0.37,2.7,1.08,5.4,3.71,6.89
				c5.58,3.16,20.24,1.94,39.69-6.99c1.31-0.6,3.77-3.53,4.89-4.31c1.12-0.78,1.79-1.96,1.82-3.24L762.97,609.6z"/>
			<linearGradient id="SVGID_26_" gradientUnits="userSpaceOnUse" x1="736.1208" y1="642.2756" x2="736.1208" y2="683.0013">
				<stop  offset="0" style="stop-color:#5C5E60"/>
				<stop  offset="1" style="stop-color:#9FA1A4"/>
			</linearGradient>
			<path class="st31" d="M705.68,619.74c0,0,5.53,9.39,5.27,28.95c-0.07,5.32-0.77,11.5-1.14,18.6c-2.25,42.7,54.02,1.91,54.02,1.91
				s7.47-48.84-2.27-60.82C758.85,624.07,718.73,627.08,705.68,619.74z"/>
			<linearGradient id="SVGID_27_" gradientUnits="userSpaceOnUse" x1="706.124" y1="618.6105" x2="731.9501" y2="695.3062">
				<stop  offset="0" style="stop-color:#5C5E60"/>
				<stop  offset="1" style="stop-color:#9FA1A4"/>
			</linearGradient>
			<path class="st32" d="M728.37,627.08l0-3.61c-5.9,0.13-18.97-0.98-22.69-3.72c0,0-0.7,9.43-1.94,26.83
				c-0.38,5.31,0.36,13.36-0.02,20.47c-1.01,19.15,15.84,21.76,28.02,18.54L728.37,627.08z"/>
			<linearGradient id="SVGID_28_" gradientUnits="userSpaceOnUse" x1="733.3019" y1="550.319" x2="733.3019" y2="625.4861">
				<stop  offset="0" style="stop-color:#8647E1"/>
				<stop  offset="1" style="stop-color:#B78FED"/>
			</linearGradient>
			<polygon class="st33" points="719.84,538.73 709.56,531.65 748.34,515.52 757.04,521.07 			"/>
			<g>
				<g>
					<path class="st29" d="M625.89,561.44c-2.19,2.48-0.24,5.8,3.41,9.02c3.65,3.23,7.79,2.95,9.99,0.46
						c2.2-2.48,0.34-5.63-3.31-8.86c-1.25-1.11-3.89-2.84-5.15-3.53C628.42,557.2,627.33,559.81,625.89,561.44z"/>
					<path class="st29" d="M629.54,558.16l4.61,5.98l4.83,1.17l-2.93-4.42c-0.98-1.48-2.6-2.43-4.37-2.56L629.54,558.16z"/>
				</g>
				<linearGradient id="SVGID_29_" gradientUnits="userSpaceOnUse" x1="652.6673" y1="584.4194" x2="704.7108" y2="521.4194">
					<stop  offset="0" style="stop-color:#8647E1"/>
					<stop  offset="1" style="stop-color:#B78FED"/>
				</linearGradient>
				<path class="st34" d="M704.71,536.49c0.05-0.12,0.02-0.04,0.02-0.04c0,0.01-0.02,0.05-0.03,0.07l-0.07,0.2l-0.19,0.47
					c-0.14,0.33-0.29,0.67-0.46,1.02c-0.34,0.7-0.7,1.41-1.11,2.13c-0.79,1.43-1.7,2.85-2.68,4.24c-1.95,2.79-4.19,5.46-6.64,7.97
					c-4.89,5.03-10.62,9.44-16.8,13.2c-2.92,1.8-5.94,3.26-9.02,4.22c-3.09,0.96-6.25,1.41-9.5,1.32
					c-6.51-0.18-13.37-2.66-20.12-5.81l-0.02-0.01c-2.38-1.11-5.21-0.08-6.32,2.31c-1.05,2.26-0.16,4.94,1.97,6.15
					c3.48,1.97,7.11,3.84,11.02,5.4c3.9,1.55,8.12,2.79,12.58,3.28c4.45,0.51,9.09,0.24,13.48-0.75c4.4-0.98,8.53-2.62,12.36-4.57
					c7.31-3.78,14.29-8.38,20.59-14.02c3.15-2.82,6.13-5.88,8.85-9.25c1.36-1.69,2.67-3.44,3.89-5.31c0.61-0.93,1.2-1.89,1.78-2.9
					c0.29-0.5,0.57-1.02,0.85-1.56l0.42-0.85l0.22-0.47l0.12-0.26l0.16-0.38c1.6-4.24-0.54-8.97-4.78-10.57
					C711.04,530.11,706.31,532.25,704.71,536.49z"/>
			</g>
			<g>
				<path class="st29" d="M744.52,507.82l-0.57,18.3c-6.85,3.93-10.61,4.2-18.81,3.78l2.31-18.42L744.52,507.82z"/>
				<g>
					<path class="st29" d="M712.1,489.95c1.31,11.72,11.06,24.05,22.55,23.65c8.38-1.52,16.62-11.93,19.97-24.23
						c-0.5-14.46-10.13-23.18-21.61-22.78c-9.33-3.79-15.41,4.99-18.38,17.84C714.2,486.27,712.33,487.95,712.1,489.95z"/>
					<path class="st35" d="M715.73,477.52c0,0,11.64,10.39,38.89,13.06c0,0-0.27-33.73-31.49-24.54c-3.46,1.02-6.17,3.74-7.17,7.21
						C715.58,474.58,715.43,476.03,715.73,477.52z"/>
				</g>
				<path class="st35" d="M756.16,484.66c0,0,25.95,40.31,23.41,52.43c-2.53,12.12-18.2,32.36-34.14,32.81
					c-15.94,0.46-20.89-0.93-20.85-8.28c0.04-7.36,10.29-39.51,8.48-50.36c-1.81-10.85-14.38-30.78-15.3-36.3
					c-0.92-5.52,10.05-10.73,12.69-10.73S750.05,463.15,756.16,484.66z"/>
			</g>
			<path class="st36" d="M715.32,787.68c-1.32-0.25-2.69,0.15-3.67,1.08c0,0-2.83,3.86-1.12,5.81c1.71,1.96,5.27,3.51,5.27,3.51
				l-0.13-10.34L715.32,787.68z"/>
			<path class="st36" d="M745.33,773.25c-1.32-0.25-2.69,0.15-3.67,1.08c0,0-2.83,3.86-1.12,5.81c1.71,1.96,5.27,3.51,5.27,3.51
				l-0.13-10.34L745.33,773.25z"/>
		</g>
	</g>
	<g>
		<g>
			<g>
				<path class="st29" d="M535.12,610.91c-2.96,2.95-0.77,7.27,3.56,11.63c4.33,4.35,9.56,4.34,12.52,1.39
					c2.96-2.95,0.88-7.06-3.45-11.41c-1.49-1.5-4.66-3.88-6.19-4.86C538.65,605.79,537.06,608.98,535.12,610.91z"/>
				<path class="st29" d="M539.97,607.08l5.32,7.89l5.98,1.86l-3.32-5.8c-1.12-1.95-3.07-3.27-5.29-3.58L539.97,607.08z"/>
			</g>
			<linearGradient id="SVGID_30_" gradientUnits="userSpaceOnUse" x1="584.2089" y1="599.6234" x2="584.2089" y2="705.739">
				<stop  offset="0" style="stop-color:#8647E1"/>
				<stop  offset="1" style="stop-color:#B78FED"/>
			</linearGradient>
			<path class="st37" d="M623.83,595.02l-0.05,1.1l-0.07,0.96l-0.16,1.87c-0.12,1.23-0.27,2.45-0.43,3.66
				c-0.33,2.42-0.74,4.82-1.23,7.2c-0.99,4.77-2.31,9.51-4.08,14.18c-1.78,4.66-4.01,9.27-6.96,13.61
				c-2.93,4.32-6.63,8.39-11.14,11.58c-0.56,0.4-1.14,0.78-1.72,1.15l-0.22,0.14l-0.3,0.18l-0.61,0.36
				c-0.41,0.22-0.83,0.44-1.25,0.63c-1.69,0.77-3.44,1.25-5.11,1.51c-3.36,0.5-6.41,0.2-9.16-0.37c-5.5-1.19-10.08-3.39-14.35-5.86
				c-4.25-2.5-8.14-5.37-11.78-8.58c-1.82-1.61-3.56-3.32-5.23-5.17c-1.67-1.88-3.27-3.84-4.71-6.37c-1.5-2.61-0.59-5.94,2.02-7.44
				c2.48-1.42,5.6-0.68,7.19,1.63l0.13,0.18c0.88,1.28,2.2,2.73,3.61,4.07c1.42,1.35,2.98,2.65,4.6,3.88
				c3.25,2.45,6.76,4.63,10.35,6.37c3.57,1.74,7.31,3.06,10.61,3.47c1.63,0.21,3.11,0.14,4.15-0.14c0.52-0.14,0.92-0.33,1.24-0.52
				c0.08-0.05,0.15-0.11,0.22-0.15l0.1-0.08l0.17-0.13c0.34-0.26,0.68-0.51,1-0.79c5.27-4.34,8.9-11.16,11.15-18.67
				c1.13-3.76,1.94-7.71,2.48-11.72c0.27-2,0.47-4.03,0.6-6.04c0.07-1.01,0.11-2.01,0.14-3.01l0.02-1.47l0-0.71
				c0-0.21-0.01-0.51-0.02-0.57c-0.75-5.18,2.85-9.99,8.03-10.73c5.18-0.75,9.99,2.85,10.74,8.03c0.09,0.59,0.11,1.18,0.09,1.75
				L623.83,595.02z"/>
		</g>
		<g>
			<polygon class="st18" points="567.12,634.28 521.29,650.71 466.67,604.43 512.5,588 			"/>
			<g>
				<linearGradient id="SVGID_31_" gradientUnits="userSpaceOnUse" x1="492.459" y1="613.4532" x2="524.0028" y2="613.4532">
					<stop  offset="0" style="stop-color:#5C5E60"/>
					<stop  offset="1" style="stop-color:#9FA1A4"/>
				</linearGradient>
				<path class="st38" d="M520.75,622.84c-1.09,0.38-2.29,0.67-3.59,0.86c-5.68,0.84-12.31-0.33-17.39-3.07
					c-5.08-2.75-7.84-6.65-7.23-10.25c0.6-3.59,4.48-6.33,10.16-7.17c5.68-0.84,12.31,0.33,17.39,3.07
					c1.52,0.82,2.84,1.75,3.92,2.75l-14.07,4.42L520.75,622.84z"/>
				<linearGradient id="SVGID_32_" gradientUnits="userSpaceOnUse" x1="482.1628" y1="599.7098" x2="505.2567" y2="599.7098">
					<stop  offset="0" style="stop-color:#5C5E60"/>
					<stop  offset="1" style="stop-color:#9FA1A4"/>
				</linearGradient>
				<polygon class="st39" points="505.26,597.03 484.59,604.44 482.16,602.39 502.83,594.98 				"/>
				<linearGradient id="SVGID_33_" gradientUnits="userSpaceOnUse" x1="504.6144" y1="626.3464" x2="545.6789" y2="626.3464">
					<stop  offset="0" style="stop-color:#5C5E60"/>
					<stop  offset="1" style="stop-color:#9FA1A4"/>
				</linearGradient>
				<polygon class="st40" points="545.68,620.45 507.04,634.3 504.61,632.24 543.25,618.39 				"/>
				<linearGradient id="SVGID_34_" gradientUnits="userSpaceOnUse" x1="508.4985" y1="629.6375" x2="549.563" y2="629.6375">
					<stop  offset="0" style="stop-color:#5C5E60"/>
					<stop  offset="1" style="stop-color:#9FA1A4"/>
				</linearGradient>
				<polygon class="st41" points="549.56,623.74 510.93,637.59 508.5,635.54 547.14,621.68 				"/>
				<linearGradient id="SVGID_35_" gradientUnits="userSpaceOnUse" x1="512.3827" y1="632.9285" x2="553.4471" y2="632.9285">
					<stop  offset="0" style="stop-color:#5C5E60"/>
					<stop  offset="1" style="stop-color:#9FA1A4"/>
				</linearGradient>
				<polygon class="st42" points="553.45,627.03 514.81,640.88 512.38,638.83 551.02,624.97 				"/>
				<linearGradient id="SVGID_36_" gradientUnits="userSpaceOnUse" x1="516.2668" y1="636.2195" x2="557.3312" y2="636.2195">
					<stop  offset="0" style="stop-color:#5C5E60"/>
					<stop  offset="1" style="stop-color:#9FA1A4"/>
				</linearGradient>
				<polygon class="st43" points="557.33,630.32 518.69,644.17 516.27,642.12 554.9,628.26 				"/>
			</g>
		</g>
		<linearGradient id="SVGID_37_" gradientUnits="userSpaceOnUse" x1="588.1384" y1="727.1154" x2="585.7905" y2="771.7241">
			<stop  offset="0" style="stop-color:#5C5E60"/>
			<stop  offset="1" style="stop-color:#9FA1A4"/>
		</linearGradient>
		<circle class="st44" cx="589.01" cy="710.63" r="21.01"/>
		<g>
			<path class="st23" d="M616.25,863.72c0.55,1.02,1.1,2.23,0.71,3.32c-0.39,1.09-1.22,1.97-2.3,2.42c-2.21,0.92-5.1,1.76-5.95,1.42
				c-3.46-1.41-17.58-11.49-17.78-11.8c-0.19-0.3-5.19-3.35-2.65-9.93L616.25,863.72z"/>
			<path class="st24" d="M588.29,849.14l0.3,0.15c-1.94,6.11,2.69,8.96,2.88,9.25c0.19,0.3,14.31,10.39,17.78,11.8
				c1.67,0.68,3.67-0.31,5.84-1.11c0.33-0.12,0.77-0.58,1.03-0.8c-0.37,0.46-0.96,1.15-1.49,1.42c-1.93,0.95-4.23,1.7-5.91,1.02
				c-3.46-1.41-17.58-11.49-17.78-11.8C590.75,858.77,585.75,855.73,588.29,849.14z"/>
			<path class="st23" d="M613.21,855.58l2.36,2.89l0.69,5.25c0,0-4.19,4.57-13.63-1.37c-5.65-3.55-9.44-6.04-11.48-7.57
				c-1.96-1.47-2.99-4.22-2.85-5.81c0.21-2.41,2.72-3.78,3.4-4.05c1.67-0.69,12.99,4.57,12.99,4.57L613.21,855.58z"/>
			<path class="st23" d="M588.32,848.83c0.3-2.32,2.71-3.64,3.38-3.91c1.5-0.61,10.76,3.55,12.65,4.41l5.47,8.11l-4.91,1.31
				C592.49,854.08,589.19,850.73,588.32,848.83z"/>
			<path class="st36" d="M603.32,847.82l-1.67,1.32c0,0-3.15,3.55-1.64,5.65c1.52,2.09,4.89,3.96,4.89,3.96l0.82-10.24
				L603.32,847.82z"/>
		</g>
		<linearGradient id="SVGID_38_" gradientUnits="userSpaceOnUse" x1="607.4407" y1="748.319" x2="607.4407" y2="877.4501">
			<stop  offset="0" style="stop-color:#5C5E60"/>
			<stop  offset="1" style="stop-color:#9FA1A4"/>
		</linearGradient>
		<path class="st45" d="M622.47,707.6l-9.48,70.35l-0.01-1.79l3.31,80.51c0.14,3.44-2.53,6.34-5.97,6.48
			c-3.21,0.13-5.96-2.22-6.42-5.33l-11.56-79.75l-0.05-0.34l0.04-1.45l1.91-70.96c0.21-7.83,6.73-14,14.56-13.79
			c7.83,0.21,14,6.73,13.79,14.56C622.57,706.59,622.53,707.11,622.47,707.6z"/>
		<g>
			<path class="st23" d="M579.66,876.93c0.55,1.02,1.1,2.23,0.71,3.32c-0.39,1.09-1.22,1.97-2.3,2.42c-2.21,0.92-5.1,1.76-5.95,1.42
				c-3.46-1.41-17.58-11.49-17.78-11.8c-0.19-0.3-5.19-3.35-2.65-9.93L579.66,876.93z"/>
			<path class="st24" d="M551.7,862.35l0.3,0.15c-1.94,6.11,2.69,8.96,2.88,9.25c0.19,0.3,14.31,10.39,17.78,11.8
				c1.67,0.68,3.67-0.31,5.84-1.11c0.33-0.12,0.77-0.58,1.03-0.8c-0.37,0.46-0.96,1.15-1.49,1.42c-1.93,0.95-4.23,1.7-5.91,1.02
				c-3.46-1.41-17.58-11.49-17.78-11.8C554.16,871.98,549.16,868.94,551.7,862.35z"/>
			<path class="st23" d="M576.62,868.79l2.36,2.89l0.69,5.25c0,0-4.19,4.57-13.63-1.37c-5.65-3.55-9.44-6.04-11.48-7.57
				c-1.96-1.47-2.99-4.22-2.85-5.81c0.21-2.41,2.72-3.78,3.4-4.05c1.67-0.69,12.99,4.57,12.99,4.57L576.62,868.79z"/>
			<path class="st23" d="M551.73,862.04c0.3-2.32,2.71-3.64,3.38-3.91c1.5-0.61,10.76,3.55,12.65,4.41l5.47,8.11l-4.91,1.31
				C555.9,867.29,552.6,863.94,551.73,862.04z"/>
			<path class="st36" d="M566.73,861.04l-1.67,1.32c0,0-3.15,3.55-1.64,5.65c1.52,2.09,4.89,3.96,4.89,3.96l0.82-10.24
				L566.73,861.04z"/>
		</g>
		<linearGradient id="SVGID_39_" gradientUnits="userSpaceOnUse" x1="578.4787" y1="748.319" x2="578.4787" y2="877.4501">
			<stop  offset="0" style="stop-color:#5C5E60"/>
			<stop  offset="1" style="stop-color:#9FA1A4"/>
		</linearGradient>
		<path class="st46" d="M593.66,718.81l-10.42,72.34l0.04-0.92l-4.19,80.99c-0.17,3.33-3.01,5.88-6.33,5.71
			c-3.11-0.16-5.55-2.68-5.71-5.73l-3.89-81l0.04-0.92l3.16-73.02c0.33-7.57,6.73-13.44,14.3-13.11c7.57,0.33,13.44,6.73,13.11,14.3
			C593.76,717.9,593.72,718.37,593.66,718.81z"/>
		<linearGradient id="SVGID_40_" gradientUnits="userSpaceOnUse" x1="591.8228" y1="599.6234" x2="591.8228" y2="705.739">
			<stop  offset="0" style="stop-color:#8647E1"/>
			<stop  offset="1" style="stop-color:#B78FED"/>
		</linearGradient>
		<path class="st47" d="M565.32,702.99l-0.17-3.35l1.18-56.32l-0.73-11.89l-6.92-24.78l22.72-14.49l31.83-7.44l5.97,13.12
			c1.91,4.19,3.15,8.59,3.73,13.16c1.89,14.96,2.68,32.48,1.41,46.45c-0.49,5.48-1.93,8.44-1.51,13.84l-0.88,24.22
			c-0.07,2-0.86,3.9-2.23,5.37c-5.21,5.59-20.29,19.02-48.1,23.41c-1.48,0.23-2.99-0.19-4.14-1.15c-1.15-0.96-1.83-2.38-1.86-3.88
			L565.32,702.99z"/>
		<linearGradient id="SVGID_41_" gradientUnits="userSpaceOnUse" x1="588.5292" y1="599.6234" x2="588.5292" y2="705.739">
			<stop  offset="0" style="stop-color:#8647E1"/>
			<stop  offset="1" style="stop-color:#B78FED"/>
		</linearGradient>
		<path class="st48" d="M565.32,702.99l-0.17-3.35l-0.21-53.49L561.68,634l-3-27.34l22.72-14.49l31.83-7.44l5.14,1.76l-3.18,3.13
			c-8.54,8.42-19.52,13.92-31.37,15.72l-10.19,1.55l6.92,24.78l0.73,11.89l-1.18,56.32l-4.03,23.62c-0.74,0.15-2.47,0.46-4.47,0.77
			c-1.48,0.23-2.99-0.19-4.14-1.15c-1.15-0.97-1.82-2.38-1.85-3.88L565.32,702.99z"/>
		<path class="st29" d="M602.08,569.75l3.23,16.49c-6.54,4.34-11.63,6.9-19.79,7.01l-0.13-18.78L602.08,569.75z"/>
		<g>
			<path class="st29" d="M567.03,559.33c4.15,10.95,16.56,20.42,27.51,17.21c7.69-3.53,13.06-15.57,13.26-28.23
				c-4.04-13.79-15.45-19.81-26.4-16.6c-9.91-1.35-13.6,8.59-13.3,21.69C568.14,555.28,566.75,557.35,567.03,559.33z"/>
			<path class="st35" d="M565.24,542.96c0,0,15.69,9.49,42.56,5.35c0,0-12.34-35.7-42.68-14.64
				C565.12,533.67,562.86,538.04,565.24,542.96z"/>
			<path class="st35" d="M585.87,568.04c0,0,1.89-3.74,0.88-7.19c-1.01-3.45-5.57-3.05-5.57-3.05l-2.13-10.52l5.64-16.26
				c9.87-1.24,19.47,4.87,23.11,17.28c-0.17,10.77-4.08,21.09-9.98,26.11L585.87,568.04z"/>
		</g>
		
			<linearGradient id="SVGID_42_" gradientUnits="userSpaceOnUse" x1="-288.5432" y1="588.3703" x2="-268.3539" y2="588.3703" gradientTransform="matrix(-1 0 0 1 317.1612 0)">
			<stop  offset="0" style="stop-color:#8647E1"/>
			<stop  offset="1" style="stop-color:#B78FED"/>
		</linearGradient>
		<path class="st49" d="M604.74,583.33c0,0-4.39,8.33-19.23,8.29l0.01,1.62c0,0,10.55,1.77,20.18-6.15L604.74,583.33z"/>
		<g>
			<g>
				<path class="st29" d="M486.5,628.66c-2.96,2.95-0.77,7.27,3.56,11.63c4.33,4.35,9.56,4.34,12.52,1.39
					c2.96-2.95,0.88-7.06-3.45-11.41c-1.49-1.5-4.66-3.88-6.19-4.86C490.03,623.53,488.44,626.72,486.5,628.66z"/>
				<path class="st29" d="M491.35,624.83l5.32,7.89l5.98,1.86l-3.32-5.8c-1.12-1.95-3.07-3.27-5.29-3.58L491.35,624.83z"/>
			</g>
			<linearGradient id="SVGID_43_" gradientUnits="userSpaceOnUse" x1="514.0776" y1="668.0057" x2="573.9472" y2="587.0057">
				<stop  offset="0" style="stop-color:#8647E1"/>
				<stop  offset="1" style="stop-color:#B78FED"/>
			</linearGradient>
			<path class="st50" d="M575.21,612.76l-0.05,1.1l-0.07,0.96l-0.16,1.87c-0.12,1.23-0.27,2.45-0.43,3.66
				c-0.33,2.42-0.74,4.82-1.23,7.21c-0.99,4.77-2.31,9.51-4.08,14.18c-1.78,4.66-4.01,9.27-6.96,13.61
				c-2.93,4.32-6.63,8.39-11.14,11.58c-0.56,0.4-1.14,0.78-1.72,1.15l-0.22,0.14l-0.3,0.18l-0.61,0.36
				c-0.41,0.22-0.83,0.44-1.25,0.63c-1.69,0.77-3.44,1.25-5.11,1.51c-3.36,0.5-6.41,0.2-9.16-0.37c-5.5-1.19-10.08-3.39-14.35-5.86
				c-4.25-2.5-8.14-5.37-11.78-8.58c-1.82-1.61-3.56-3.32-5.23-5.17c-1.67-1.88-3.27-3.84-4.71-6.37c-1.5-2.61-0.59-5.94,2.02-7.43
				c2.48-1.42,5.6-0.68,7.19,1.63l0.13,0.18c0.88,1.28,2.2,2.73,3.61,4.07c1.42,1.35,2.98,2.65,4.6,3.88
				c3.25,2.45,6.76,4.63,10.35,6.37c3.57,1.74,7.31,3.06,10.61,3.47c1.63,0.21,3.11,0.14,4.15-0.14c0.52-0.14,0.92-0.33,1.24-0.52
				c0.08-0.05,0.15-0.11,0.22-0.15l0.1-0.08l0.17-0.13c0.34-0.26,0.68-0.51,1-0.79c5.27-4.34,8.9-11.16,11.15-18.67
				c1.13-3.76,1.94-7.71,2.48-11.72c0.27-2,0.47-4.03,0.6-6.04c0.07-1.01,0.11-2.01,0.14-3.01l0.02-1.47l0-0.71
				c0-0.21-0.01-0.51-0.02-0.57c-0.75-5.18,2.85-9.99,8.03-10.74c5.18-0.75,9.99,2.85,10.74,8.03c0.09,0.59,0.11,1.18,0.09,1.75
				L575.21,612.76z"/>
		</g>
	</g>
	<g>
		<g>
			<path class="st51" d="M182.22,220.34c-1.7,1.62-2.64,4.27-2.08,5.92c2.83,8.41,2.25,7.51,3.64,8.34c0,0,8.07,4.63,8.13,4.68
				c-0.76,1.92-0.55,3.67,0.51,4.26l14.83,8.52c1.89,1.39,3.27,1.49,8.37,2.83c1.45,0.38,3.48-1.16,4.53-3.44l1.95-4.22
				c8.1,4.34,8.07,5.5,10.15,4.3l7.66-4.42c1.79-1.03,3.24-3.55,3.24-5.62c0-3.5-0.44-6.22,2.3-8.76c0.97-0.9,1.52-1.56,2.52-1.94
				c7.09,3.57,4.64,6.04,14.77-8.3c1.45-2.05,1.77-4.58,0.72-5.64l-1.97-1.99c-0.84-0.85-0.83-2.65,0.03-4.46
				c2.32-4.91,3.04-4.52,7.42-5.4c1.7-0.34,3.53-2.48,4.09-4.76c2.99-12.36,3.66-12.16,0.02-14.02c-0.05-0.03-5.02-2.89-5.07-2.91
				c0.45-2.92,2.37-4.3,5.33-7.12c1.7-1.62,2.64-4.27,2.08-5.92c-2.82-8.38-2.25-7.51-3.64-8.34c0,0-8.07-4.64-8.13-4.68
				c0.6-1.52,0.81-3.52-0.67-4.36c-0.04-0.03-15.44-8.88-15.48-8.9c-1.14-0.84-1.8-0.85-7.55-2.35c-1.45-0.38-3.48,1.16-4.53,3.44
				l-1.95,4.22c-0.29-0.16-5.64-3.24-5.64-3.24c-0.06-0.04-1.27-0.73-1.32-0.76c-2.16-1.43-1.62-1.21-10.85,4.12
				c-1.79,1.03-3.24,3.55-3.24,5.62c0,3.51,0.44,6.22-2.3,8.76c-0.97,0.89-1.52,1.56-2.52,1.94c-7.07-3.59-4.65-6.02-14.77,8.3
				c-1.45,2.05-1.77,4.58-0.72,5.65l1.97,1.99c0.84,0.85,0.83,2.65-0.03,4.46c-2.32,4.91-3.04,4.52-7.41,5.4
				c-1.7,0.34-3.53,2.48-4.09,4.76c-2.83,11.71-3.53,12.19-0.68,13.64c0.01,0,5.7,3.28,5.73,3.29
				C187.1,216.16,185.15,217.55,182.22,220.34z M217.41,216.21c-1.31-13.03,8.73-30.48,20.7-35.9
				C239.42,193.38,229.35,210.8,217.41,216.21z"/>
			<path class="st52" d="M196.77,235.83l2.37,7.05c0.55,1.65,2.38,1.67,4.09,0.04l3.19-3.04c1.36-1.29,2.84-1.58,3.66-0.7
				c0.19,0.2,0.38,0.39,0.57,0.58c0.85,0.82,0.86,2.62,0.03,4.43l-1.97,4.27c-1.05,2.28-0.73,4.44,0.72,4.82l6.2,1.62
				c1.45,0.38,3.48-1.16,4.53-3.44l1.95-4.23c0.83-1.81,2.31-3.21,3.66-3.46c0.31-0.06,0.62-0.12,0.94-0.2
				c1.37-0.31,2.3,0.61,2.3,2.26v3.84c0,2.07,1.45,2.91,3.24,1.87l7.66-4.42c1.79-1.03,3.24-3.55,3.24-5.62v-3.84
				c0-1.65,0.93-3.65,2.3-4.91c0.32-0.29,0.63-0.59,0.94-0.89c1.34-1.3,2.83-1.61,3.66-0.76l1.95,1.98
				c1.05,1.07,3.08,0.27,4.53-1.79l6.2-8.78c1.45-2.05,1.77-4.58,0.72-5.64l-1.97-1.99c-0.84-0.85-0.83-2.65,0.03-4.46
				c0.19-0.41,0.39-0.83,0.57-1.24c0.82-1.82,2.3-3.24,3.66-3.52l3.19-0.64c1.7-0.34,3.53-2.48,4.09-4.76l2.37-9.78
				c0.55-2.29-0.38-3.86-2.08-3.52l-3.16,0.64c-1.36,0.27-2.27-0.67-2.24-2.34c0-0.19,0-0.37,0-0.56c0-0.19,0-0.37,0-0.55
				c-0.03-1.63,0.88-3.64,2.24-4.93l3.16-3.01c1.7-1.62,2.64-4.27,2.08-5.92l-2.37-7.05c-0.55-1.65-2.38-1.67-4.09-0.04l-3.19,3.04
				c-1.36,1.29-2.84,1.58-3.66,0.7c-0.19-0.2-0.38-0.39-0.57-0.58c-0.85-0.82-0.86-2.62-0.03-4.43l1.97-4.27
				c1.05-2.28,0.73-4.44-0.72-4.82l-6.2-1.62c-1.45-0.38-3.48,1.16-4.53,3.44l-1.95,4.23c-0.83,1.81-2.31,3.21-3.66,3.46
				c-0.31,0.06-0.62,0.12-0.94,0.2c-1.37,0.31-2.3-0.61-2.3-2.26v-3.84c0-2.07-1.45-2.91-3.24-1.87l-7.66,4.42
				c-1.79,1.03-3.24,3.55-3.24,5.62v3.84c0,1.65-0.93,3.65-2.3,4.91c-0.32,0.29-0.63,0.59-0.94,0.89c-1.34,1.3-2.83,1.61-3.66,0.76
				l-1.95-1.98c-1.05-1.07-3.08-0.27-4.53,1.79l-6.2,8.78c-1.45,2.05-1.77,4.58-0.72,5.65l1.97,1.99c0.84,0.85,0.83,2.65-0.03,4.46
				c-0.19,0.41-0.39,0.83-0.57,1.24c-0.82,1.82-2.3,3.24-3.66,3.52l-3.19,0.64c-1.7,0.34-3.53,2.48-4.09,4.76l-2.37,9.78
				c-0.55,2.29,0.38,3.86,2.08,3.52l3.16-0.64c1.36-0.28,2.27,0.67,2.24,2.34c0,0.19,0,0.37,0,0.56c0,0.19,0,0.37,0,0.55
				c0.03,1.63-0.88,3.64-2.24,4.93l-3.16,3.01C197.15,231.53,196.22,234.18,196.77,235.83z M217.29,213.89
				c0-11.98,8.41-26.54,18.78-32.53c10.37-5.99,18.78-1.13,18.78,10.84c0,11.98-8.41,26.54-18.78,32.53
				C225.7,230.72,217.29,225.87,217.29,213.89z"/>
		</g>
		<g>
			<path class="st51" d="M129.07,313.09c-1.26,1.2-1.96,3.17-1.55,4.4c2.1,6.24,1.67,5.58,2.7,6.19c0,0,5.99,3.44,6.04,3.48
				c-0.57,1.43-0.41,2.73,0.38,3.16l11.01,6.33c1.4,1.03,2.43,1.11,6.22,2.1c1.08,0.28,2.58-0.86,3.36-2.56l1.45-3.13
				c6.01,3.22,5.99,4.08,7.54,3.19l5.69-3.28c1.33-0.77,2.41-2.63,2.41-4.17c0-2.6-0.33-4.62,1.71-6.5
				c0.72-0.67,1.13-1.16,1.87-1.44c5.26,2.65,3.44,4.48,10.96-6.16c1.08-1.52,1.31-3.4,0.53-4.19l-1.46-1.48
				c-0.62-0.63-0.61-1.97,0.02-3.31c1.72-3.64,2.26-3.35,5.51-4.01c1.26-0.26,2.62-1.84,3.03-3.54c2.22-9.17,2.72-9.03,0.02-10.41
				c-0.04-0.02-3.73-2.14-3.76-2.16c0.33-2.17,1.76-3.19,3.96-5.28c1.26-1.2,1.96-3.17,1.55-4.4c-2.09-6.22-1.67-5.58-2.7-6.19
				c0,0-5.99-3.44-6.04-3.48c0.45-1.13,0.6-2.62-0.5-3.24c-0.03-0.02-11.46-6.59-11.5-6.61c-0.84-0.62-1.34-0.63-5.61-1.75
				c-1.08-0.28-2.58,0.86-3.36,2.56l-1.44,3.13c-0.22-0.12-4.19-2.4-4.19-2.4c-0.04-0.03-0.94-0.54-0.98-0.56
				c-1.6-1.06-1.2-0.9-8.06,3.06c-1.33,0.77-2.41,2.63-2.41,4.17c0,2.6,0.33,4.62-1.71,6.5c-0.72,0.66-1.13,1.16-1.87,1.44
				c-5.25-2.66-3.46-4.47-10.96,6.16c-1.08,1.52-1.31,3.4-0.53,4.19l1.46,1.48c0.62,0.63,0.61,1.97-0.02,3.31
				c-1.72,3.64-2.26,3.36-5.5,4.01c-1.26,0.26-2.62,1.84-3.03,3.54c-2.1,8.69-2.62,9.05-0.5,10.12c0,0,4.23,2.43,4.25,2.44
				C132.7,309.98,131.25,311.02,129.07,313.09z M155.2,310.02c-0.97-9.67,6.48-22.62,15.36-26.65
				C171.54,293.08,164.06,306,155.2,310.02z"/>
			<path class="st52" d="M139.88,324.59l1.76,5.23c0.41,1.22,1.77,1.24,3.03,0.03l2.37-2.25c1.01-0.96,2.11-1.17,2.71-0.52
				c0.14,0.15,0.28,0.29,0.42,0.43c0.63,0.61,0.64,1.95,0.02,3.29l-1.46,3.17c-0.78,1.69-0.54,3.29,0.53,3.58l4.6,1.2
				c1.08,0.28,2.58-0.86,3.36-2.56l1.45-3.14c0.62-1.34,1.72-2.38,2.72-2.57c0.23-0.04,0.46-0.09,0.7-0.15
				c1.02-0.23,1.71,0.45,1.71,1.67v2.85c0,1.54,1.08,2.16,2.41,1.39l5.69-3.28c1.33-0.77,2.41-2.63,2.41-4.17v-2.85
				c0-1.23,0.69-2.71,1.71-3.65c0.23-0.22,0.47-0.44,0.7-0.66c1-0.96,2.1-1.19,2.72-0.57l1.45,1.47c0.78,0.79,2.29,0.2,3.36-1.33
				l4.6-6.52c1.08-1.52,1.31-3.4,0.53-4.19l-1.46-1.48c-0.62-0.63-0.61-1.97,0.02-3.31c0.14-0.31,0.29-0.61,0.42-0.92
				c0.61-1.35,1.71-2.41,2.71-2.61l2.37-0.48c1.26-0.26,2.62-1.84,3.03-3.54l1.76-7.26c0.41-1.7-0.28-2.87-1.55-2.61l-2.34,0.47
				c-1.01,0.2-1.68-0.5-1.66-1.74c0-0.14,0-0.28,0-0.42c0-0.14,0-0.28,0-0.41c-0.02-1.21,0.66-2.7,1.66-3.66l2.34-2.23
				c1.26-1.2,1.96-3.17,1.55-4.4l-1.76-5.23c-0.41-1.22-1.77-1.24-3.03-0.03l-2.37,2.25c-1.01,0.96-2.11,1.17-2.71,0.52
				c-0.14-0.15-0.28-0.29-0.42-0.43c-0.63-0.61-0.64-1.94-0.02-3.29l1.46-3.17c0.78-1.69,0.54-3.29-0.53-3.58l-4.6-1.2
				c-1.08-0.28-2.58,0.86-3.36,2.56l-1.45,3.14c-0.62,1.34-1.72,2.38-2.72,2.57c-0.23,0.04-0.46,0.09-0.7,0.15
				c-1.02,0.23-1.71-0.45-1.71-1.67v-2.85c0-1.54-1.08-2.16-2.41-1.39l-5.69,3.28c-1.33,0.77-2.41,2.63-2.41,4.17v2.85
				c0,1.23-0.69,2.71-1.71,3.65c-0.23,0.22-0.47,0.44-0.7,0.66c-1,0.96-2.1,1.19-2.72,0.57l-1.45-1.47
				c-0.78-0.79-2.29-0.2-3.36,1.33l-4.6,6.52c-1.08,1.52-1.31,3.4-0.53,4.19l1.46,1.48c0.62,0.63,0.61,1.97-0.02,3.31
				c-0.14,0.31-0.29,0.61-0.42,0.92c-0.61,1.35-1.71,2.41-2.71,2.61l-2.37,0.48c-1.26,0.26-2.62,1.84-3.03,3.54l-1.76,7.26
				c-0.41,1.7,0.28,2.87,1.55,2.61l2.34-0.47c1.01-0.2,1.68,0.5,1.66,1.74c0,0.14,0,0.28,0,0.42c0,0.14,0,0.28,0,0.41
				c0.02,1.21-0.66,2.7-1.66,3.66l-2.34,2.23C140.16,321.4,139.46,323.36,139.88,324.59z M155.11,308.3
				c0-8.89,6.24-19.71,13.94-24.15c7.7-4.45,13.94-0.84,13.94,8.05c0,8.89-6.24,19.71-13.94,24.15
				C161.35,320.79,155.11,317.19,155.11,308.3z"/>
		</g>
	</g>
	<g>
		<path class="st51" d="M273.07,227.68c-1.26,1.2-1.96,3.17-1.55,4.4c2.1,6.24,1.67,5.58,2.7,6.19c0,0,5.99,3.44,6.04,3.48
			c-0.57,1.43-0.41,2.73,0.38,3.16l11.01,6.33c1.4,1.03,2.43,1.11,6.22,2.1c1.08,0.28,2.58-0.86,3.36-2.56l1.45-3.13
			c6.01,3.22,5.99,4.08,7.54,3.19l5.69-3.28c1.33-0.77,2.41-2.63,2.41-4.17c0-2.6-0.33-4.62,1.71-6.5c0.72-0.67,1.13-1.16,1.87-1.44
			c5.26,2.65,3.44,4.48,10.96-6.16c1.08-1.52,1.31-3.4,0.53-4.19l-1.46-1.48c-0.62-0.63-0.61-1.97,0.02-3.31
			c1.72-3.64,2.26-3.35,5.51-4.01c1.26-0.26,2.62-1.84,3.03-3.54c2.22-9.17,2.72-9.03,0.02-10.41c-0.04-0.02-3.73-2.14-3.76-2.16
			c0.33-2.17,1.76-3.19,3.96-5.28c1.26-1.2,1.96-3.17,1.55-4.4c-2.09-6.22-1.67-5.58-2.7-6.19c0,0-5.99-3.44-6.04-3.48
			c0.45-1.13,0.6-2.62-0.5-3.24c-0.03-0.02-11.46-6.59-11.5-6.61c-0.84-0.62-1.34-0.63-5.61-1.75c-1.08-0.28-2.58,0.86-3.36,2.56
			l-1.45,3.13c-0.22-0.12-4.19-2.4-4.19-2.4c-0.04-0.03-0.94-0.54-0.98-0.56c-1.6-1.06-1.2-0.9-8.06,3.06
			c-1.33,0.77-2.41,2.63-2.41,4.17c0,2.6,0.33,4.62-1.71,6.5c-0.72,0.66-1.13,1.16-1.87,1.44c-5.25-2.66-3.46-4.47-10.96,6.16
			c-1.08,1.52-1.31,3.4-0.53,4.19l1.46,1.48c0.62,0.63,0.61,1.97-0.02,3.31c-1.72,3.64-2.26,3.36-5.5,4.01
			c-1.26,0.26-2.62,1.84-3.03,3.54c-2.1,8.69-2.62,9.05-0.5,10.12c0,0,4.23,2.43,4.25,2.44C276.7,224.57,275.24,225.6,273.07,227.68
			z M299.19,224.61c-0.97-9.67,6.48-22.62,15.36-26.65C315.53,207.66,308.06,220.59,299.19,224.61z"/>
		<path class="st52" d="M283.87,239.17l1.76,5.23c0.41,1.22,1.77,1.24,3.03,0.03l2.37-2.25c1.01-0.96,2.11-1.17,2.71-0.52
			c0.14,0.15,0.28,0.29,0.42,0.43c0.63,0.61,0.64,1.94,0.02,3.29l-1.46,3.17c-0.78,1.69-0.54,3.29,0.53,3.58l4.6,1.2
			c1.08,0.28,2.58-0.86,3.36-2.56l1.45-3.14c0.62-1.34,1.72-2.38,2.72-2.57c0.23-0.04,0.46-0.09,0.7-0.15
			c1.02-0.23,1.71,0.45,1.71,1.67v2.85c0,1.54,1.08,2.16,2.41,1.39l5.69-3.28c1.33-0.77,2.41-2.63,2.41-4.17v-2.85
			c0-1.23,0.69-2.71,1.71-3.65c0.23-0.22,0.47-0.44,0.7-0.66c1-0.96,2.1-1.19,2.72-0.57l1.45,1.47c0.78,0.79,2.29,0.2,3.36-1.33
			l4.6-6.52c1.08-1.52,1.31-3.4,0.53-4.19l-1.46-1.48c-0.62-0.63-0.61-1.97,0.02-3.31c0.14-0.31,0.29-0.61,0.42-0.92
			c0.61-1.35,1.71-2.41,2.71-2.61l2.37-0.48c1.26-0.26,2.62-1.84,3.03-3.54l1.76-7.26c0.41-1.7-0.28-2.87-1.55-2.61l-2.34,0.47
			c-1.01,0.2-1.68-0.5-1.66-1.74c0-0.14,0-0.28,0-0.42c0-0.14,0-0.28,0-0.41c-0.02-1.21,0.66-2.7,1.66-3.66l2.34-2.23
			c1.26-1.2,1.96-3.17,1.55-4.4l-1.76-5.23c-0.41-1.22-1.77-1.24-3.03-0.03l-2.37,2.25c-1.01,0.96-2.11,1.17-2.71,0.52
			c-0.14-0.15-0.28-0.29-0.42-0.43c-0.63-0.61-0.64-1.94-0.02-3.29l1.46-3.17c0.78-1.69,0.54-3.29-0.53-3.58l-4.6-1.2
			c-1.08-0.28-2.58,0.86-3.36,2.56l-1.45,3.14c-0.62,1.34-1.72,2.38-2.72,2.57c-0.23,0.04-0.46,0.09-0.7,0.15
			c-1.02,0.23-1.71-0.45-1.71-1.67v-2.85c0-1.54-1.08-2.16-2.41-1.39l-5.69,3.28c-1.33,0.77-2.41,2.63-2.41,4.17v2.85
			c0,1.23-0.69,2.71-1.71,3.65c-0.23,0.22-0.47,0.44-0.7,0.66c-1,0.96-2.1,1.19-2.72,0.57l-1.45-1.47c-0.78-0.79-2.29-0.2-3.36,1.33
			l-4.6,6.52c-1.08,1.52-1.31,3.4-0.53,4.19l1.46,1.48c0.62,0.63,0.61,1.97-0.02,3.31c-0.14,0.31-0.29,0.61-0.42,0.92
			c-0.61,1.35-1.71,2.41-2.71,2.61l-2.37,0.48c-1.26,0.26-2.62,1.84-3.03,3.54l-1.76,7.26c-0.41,1.7,0.28,2.87,1.55,2.61l2.34-0.47
			c1.01-0.2,1.69,0.5,1.66,1.74c0,0.14,0,0.28,0,0.42c0,0.14,0,0.28,0,0.41c0.02,1.21-0.66,2.7-1.66,3.66l-2.34,2.23
			C284.16,235.98,283.46,237.95,283.87,239.17z M299.11,222.88c0-8.89,6.24-19.71,13.94-24.15c7.7-4.45,13.94-0.84,13.94,8.05
			c0,8.89-6.24,19.71-13.94,24.15C305.35,235.38,299.11,231.78,299.11,222.88z"/>
	</g>
	<linearGradient id="SVGID_44_" gradientUnits="userSpaceOnUse" x1="51.0686" y1="318.985" x2="67.6822" y2="318.985">
		<stop  offset="0" style="stop-color:#8647E1"/>
		<stop  offset="1" style="stop-color:#B78FED"/>
	</linearGradient>
	<path class="st53" d="M53.5,315.59c-3.24,1.87-3.24,4.91,0,6.78c3.24,1.87,8.5,1.87,11.75,0c3.24-1.87,3.24-4.91,0-6.78
		C62.01,313.72,56.75,313.72,53.5,315.59z"/>
	<linearGradient id="SVGID_45_" gradientUnits="userSpaceOnUse" x1="33.6194" y1="266.5244" x2="85.1315" y2="266.5244">
		<stop  offset="0" style="stop-color:#8647E1"/>
		<stop  offset="1" style="stop-color:#B78FED"/>
	</linearGradient>
	<path class="st54" d="M41.16,256.01c-10.06,5.81-10.06,15.22,0,21.03c10.06,5.81,26.37,5.81,36.42,0
		c10.06-5.81,10.06-15.22,0-21.03C67.53,250.2,51.22,250.2,41.16,256.01z"/>
	<linearGradient id="SVGID_46_" gradientUnits="userSpaceOnUse" x1="33.6194" y1="294.4297" x2="85.1315" y2="294.4297">
		<stop  offset="0" style="stop-color:#8647E1"/>
		<stop  offset="1" style="stop-color:#B78FED"/>
	</linearGradient>
	<path class="st55" d="M41.16,283.91c-10.06,5.81-10.06,15.22,0,21.03c10.06,5.81,26.37,5.81,36.42,0
		c10.06-5.81,10.06-15.22,0-21.03C67.53,278.11,51.22,278.11,41.16,283.91z"/>
	<linearGradient id="SVGID_47_" gradientUnits="userSpaceOnUse" x1="41.3172" y1="308.5591" x2="77.4336" y2="308.5591">
		<stop  offset="0" style="stop-color:#8647E1"/>
		<stop  offset="1" style="stop-color:#B78FED"/>
	</linearGradient>
	<ellipse class="st56" cx="59.38" cy="308.56" rx="18.06" ry="10.43"/>
	<linearGradient id="SVGID_48_" gradientUnits="userSpaceOnUse" x1="33.6522" y1="280.482" x2="85.1314" y2="280.482">
		<stop  offset="0" style="stop-color:#8647E1"/>
		<stop  offset="1" style="stop-color:#B78FED"/>
	</linearGradient>
	<rect x="33.65" y="267.28" class="st57" width="51.48" height="26.41"/>
	<linearGradient id="SVGID_49_" gradientUnits="userSpaceOnUse" x1="38.485" y1="307.0874" x2="80.2668" y2="307.0874">
		<stop  offset="0" style="stop-color:#8647E1"/>
		<stop  offset="1" style="stop-color:#B78FED"/>
	</linearGradient>
	<polygon class="st58" points="38.49,303.13 41.84,311.05 76.76,311.05 80.27,303.13 	"/>
	<linearGradient id="SVGID_50_" gradientUnits="userSpaceOnUse" x1="33.4415" y1="283.9198" x2="85.3384" y2="283.9198">
		<stop  offset="0" style="stop-color:#8647E1"/>
		<stop  offset="1" style="stop-color:#B78FED"/>
	</linearGradient>
	<path class="st59" d="M40.99,284.22c10.14,6.77,26.59,6.77,36.73,0c4.24-2.83,6.71-6.39,7.41-10.07c0.98,5.14-1.5,10.51-7.41,14.46
		c-10.14,6.77-26.59,6.77-36.73,0c-5.91-3.95-8.31-9.32-7.34-14.46C34.35,277.83,36.76,281.4,40.99,284.22z"/>
	<linearGradient id="SVGID_51_" gradientUnits="userSpaceOnUse" x1="100.5297" y1="292.2619" x2="23.0515" y2="292.2619">
		<stop  offset="0" style="stop-color:#8647E1"/>
		<stop  offset="1" style="stop-color:#B78FED"/>
	</linearGradient>
	<path class="st60" d="M40.99,292.57c10.14,6.77,26.59,6.77,36.73,0c4.24-2.83,6.71-6.39,7.41-10.07c0.98,5.14-1.5,10.51-7.41,14.46
		c-10.14,6.77-26.59,6.77-36.73,0c-5.91-3.95-8.31-9.32-7.34-14.46C34.35,286.18,36.76,289.74,40.99,292.57z"/>
	<linearGradient id="SVGID_52_" gradientUnits="userSpaceOnUse" x1="49.2034" y1="317.8779" x2="69.5479" y2="317.8779">
		<stop  offset="0" style="stop-color:#8647E1"/>
		<stop  offset="1" style="stop-color:#B78FED"/>
	</linearGradient>
	<polygon class="st61" points="51.1,318.58 49.2,317.18 69.55,317.18 67.65,318.58 	"/>
	<path class="st18" d="M59.38,125.44c32.79,0,59.38,26.59,59.38,59.38c0,18.77-8.71,35.51-22.32,46.39
		c-0.73,4.86-2.29,9.41-4.49,13.52l-6.84,22.55h0c-0.31,3.55-2.81,7.05-7.51,9.76c-10.06,5.81-26.37,5.81-36.42,0
		c-4.7-2.71-7.2-6.21-7.51-9.76h0l-6.85-22.55h0.01c-2.21-4.11-3.77-8.66-4.5-13.52C8.71,220.32,0,203.59,0,184.82
		C0,152.02,26.58,125.44,59.38,125.44z"/>
</g>
</svg>
