<?xml version="1.0" encoding="utf-8"?>
<!-- Generator: Adobe Illustrator 25.2.1, SVG Export Plug-In . SVG Version: 6.00 Build 0)  -->
<svg version="1.1" id="Vrstva_1" xmlns="http://www.w3.org/2000/svg" width="400" xmlns:xlink="http://www.w3.org/1999/xlink" x="0px" y="0px"
	 viewBox="0 0 771.93 551.4" style="enable-background:new 0 0 771.93 551.4;" xml:space="preserve">
<style type="text/css">
	.st0{opacity:0.3;}
	.st1{fill:#C2E7FF;}
	.st2{fill:#92BADF;}
	.st3{fill:#92BADE;}
	.st4{fill:#A5CDF1;}
	.st5{fill:#A0C9ED;}
	.st6{fill:#B5DDFF;}
	.st7{fill:#B3DBFF;}
	.st8{fill:#BFE5FF;}
	.st9{fill:#BAE0FF;}
	.st10{opacity:0.3;enable-background:new    ;}
	.st11{clip-path:url(#SVGID_2_);fill:url(#SVGID_3_);}
	.st12{clip-path:url(#SVGID_5_);enable-background:new    ;}
	.st13{fill:#96BEE2;}
	.st14{clip-path:url(#SVGID_7_);enable-background:new    ;}
	.st15{fill:#91B9DE;}
	.st16{fill:#C1E6FF;}
	.st17{clip-path:url(#SVGID_9_);enable-background:new    ;}
	.st18{fill:#BEE4FF;}
	.st19{fill:#9FC7EB;}
	.st20{clip-path:url(#SVGID_11_);enable-background:new    ;}
	.st21{fill:#A0C8EC;}
	.st22{fill:#A4CDF1;}
	.st23{fill:#9AC3E8;}
	.st24{clip-path:url(#SVGID_13_);enable-background:new    ;}
	.st25{fill:#9AC3E7;}
	.st26{fill:#B5DCFF;}
	.st27{fill:#B3DCFF;}
	.st28{clip-path:url(#SVGID_15_);enable-background:new    ;}
	.st29{fill:#AED7FB;}
	.st30{fill:#AFD7FB;}
	.st31{clip-path:url(#SVGID_17_);enable-background:new    ;}
	.st32{fill:#A9D2F6;}
	.st33{clip-path:url(#SVGID_19_);enable-background:new    ;}
	.st34{fill:#B4DCFF;}
	.st35{fill:#B6DDFF;}
	.st36{fill:#BDE3FF;}
	.st37{clip-path:url(#SVGID_21_);enable-background:new    ;}
	.st38{clip-path:url(#SVGID_23_);enable-background:new    ;}
	.st39{fill:#B7DDFF;}
	.st40{fill:#B0D8FC;}
	.st41{fill:#96BFE3;}
	.st42{fill:#FFFFFF;}
	.st43{fill:#99C1E6;}
	.st44{fill:#97C1E4;}
	.st45{fill:#A6D0F3;}
	.st46{fill:#BCE2FF;}
	.st47{clip-path:url(#SVGID_25_);enable-background:new    ;}
	.st48{fill:#9AC3E6;}
	.st49{fill:#9FC8EB;}
	.st50{fill:#A4CDF0;}
	.st51{fill:#A8D2F5;}
	.st52{fill:#AED7FA;}
	.st53{fill:#B2DCFF;}
	.st54{fill:#B4DBFF;}
	.st55{fill:#B5DEFF;}
	.st56{fill:#B9E0FF;}
	.st57{fill:#C4E9FF;}
	.st58{fill:#9CC3E8;}
	.st59{clip-path:url(#SVGID_27_);enable-background:new    ;}
	.st60{clip-path:url(#SVGID_29_);enable-background:new    ;}
	.st61{fill:#C1E8FF;}
	.st62{fill:#ACD5F8;}
	.st63{clip-path:url(#SVGID_31_);enable-background:new    ;}
	.st64{clip-path:url(#SVGID_33_);enable-background:new    ;}
	.st65{fill:#B0D8FD;}
	.st66{fill:#C2E9FF;}
	.st67{fill:#9AC1E2;}
	.st68{fill:#9FC4E5;}
	.st69{fill:#C7EAFF;}
	.st70{clip-path:url(#SVGID_35_);enable-background:new    ;}
	.st71{fill:#97BEDF;}
	.st72{fill:#9DC3E4;}
	.st73{fill:#A2C8E9;}
	.st74{fill:#A7CEEE;}
	.st75{fill:#ADD3F3;}
	.st76{fill:#B2D8F8;}
	.st77{fill:#B7DDFD;}
	.st78{fill:#BBE0FF;}
	.st79{fill:#BCE1FF;}
	.st80{clip-path:url(#SVGID_37_);enable-background:new    ;}
	.st81{fill:#92B9DA;}
	.st82{fill:#C5E8FF;}
	.st83{clip-path:url(#SVGID_39_);enable-background:new    ;}
	.st84{fill:#A9D0F0;}
	.st85{fill:#C3E6FF;}
	.st86{clip-path:url(#SVGID_41_);enable-background:new    ;}
	.st87{fill:#ACD2F2;}
	.st88{clip-path:url(#SVGID_43_);enable-background:new    ;}
	.st89{clip-path:url(#SVGID_45_);enable-background:new    ;}
	.st90{fill:#B8DEFE;}
	.st91{fill:#C0E4FF;}
	.st92{clip-path:url(#SVGID_47_);enable-background:new    ;}
	.st93{fill:#95BCDD;}
	.st94{fill:#BEE2FF;}
	.st95{fill:#98BFE0;}
	.st96{fill:#450606;}
	.st97{fill:#FFD6D6;}
	.st98{fill:#E9D6B8;}
	.st99{fill:url(#SVGID_48_);}
	.st100{fill:#814D4D;}
	.st101{fill:url(#SVGID_49_);}
	.st102{fill:url(#SVGID_50_);}
	.st103{fill:url(#SVGID_51_);}
	.st104{fill:#89D5DA;}
	.st105{fill:#E2C59C;}
	.st106{fill:url(#SVGID_52_);}
	.st107{fill:url(#SVGID_53_);}
	.st108{fill:#CCCCED;}
	.st109{fill:url(#SVGID_54_);}
	.st110{fill:url(#SVGID_55_);}
	.st111{fill:url(#SVGID_56_);}
	.st112{fill:url(#SVGID_57_);}
	.st113{fill:url(#SVGID_58_);}
	.st114{fill:url(#SVGID_59_);}
	.st115{fill:url(#SVGID_60_);}
	.st116{fill:url(#SVGID_61_);}
	.st117{fill:url(#SVGID_62_);}
	.st118{fill:url(#SVGID_63_);}
	.st119{fill:url(#SVGID_64_);}
	.st120{fill:url(#SVGID_65_);}
	.st121{fill:url(#SVGID_66_);}
	.st122{fill:url(#SVGID_67_);}
	.st123{fill:url(#SVGID_68_);}
	.st124{fill:#E5E8EC;}
	.st125{fill:url(#SVGID_69_);}
	.st126{fill:url(#SVGID_70_);}
	.st127{fill:url(#SVGID_71_);}
	.st128{fill:url(#SVGID_72_);}
	.st129{fill:url(#SVGID_73_);}
	.st130{fill:url(#SVGID_74_);}
	.st131{fill:url(#SVGID_75_);}
	.st132{fill:url(#SVGID_76_);}
	.st133{fill:url(#SVGID_77_);}
	.st134{fill:url(#SVGID_78_);}
	.st135{fill:url(#SVGID_79_);}
	.st136{fill:url(#SVGID_80_);}
	.st137{fill:url(#SVGID_81_);}
	.st138{fill:url(#SVGID_82_);}
	.st139{fill:url(#SVGID_83_);}
	.st140{fill:url(#SVGID_84_);}
	.st141{fill:url(#SVGID_85_);}
	.st142{fill:url(#SVGID_86_);}
	.st143{fill:url(#SVGID_87_);}
	.st144{fill:url(#SVGID_88_);}
	.st145{fill:url(#SVGID_89_);}
	.st146{fill:url(#SVGID_90_);}
	.st147{fill:url(#SVGID_91_);}
	.st148{fill:url(#SVGID_92_);}
	.st149{fill:url(#SVGID_93_);}
</style>
<g>
	<g class="st0">
		<polygon class="st1" points="373.79,133.81 392.05,170.03 390.86,170.8 372.61,134.57 		"/>
	</g>
	<g class="st0">
		<polygon class="st2" points="430.82,93.94 449.08,130.18 453.56,139.55 435.31,103.31 		"/>
	</g>
	<g class="st0">
		<polygon class="st3" points="342.74,153.76 360.99,189.99 352.35,182.92 334.09,146.68 		"/>
	</g>
	<g class="st0">
		<polygon class="st4" points="500.73,70.39 518.98,106.63 515.23,119.43 496.97,83.19 		"/>
	</g>
	<g class="st0">
		<polygon class="st5" points="295.88,192.73 314.14,228.97 298.48,226.8 280.21,190.57 		"/>
	</g>
	<g class="st0">
		<polygon class="st6" points="562.9,61.2 581.16,97.43 569.63,112.1 551.37,75.87 		"/>
	</g>
	<g class="st0">
		<polygon class="st7" points="265.98,231.29 284.24,267.52 263.43,270.53 245.17,234.3 		"/>
	</g>
	<g class="st0">
		<polygon class="st8" points="609.85,67.44 628.12,103.68 610.15,118.47 591.89,82.24 		"/>
	</g>
	<g class="st0">
		<polygon class="st9" points="256.62,264.79 274.89,301.03 251.48,308.85 233.22,272.62 		"/>
	</g>
	<g class="st10">
		<defs>
			<path id="SVGID_1_" class="st10" d="M322.05,292.38l-18.26-36.22c-8.39-16.65,3.58-41.63,29.71-67.05
				c16.61-16.15,38.94-32.47,65.41-46.95c71.84-39.26,146.93-49.99,167.75-23.96l18.25,36.22c-20.8-26.02-95.9-15.28-167.73,23.97
				c-26.48,14.47-48.81,30.79-65.42,46.95C325.62,250.76,313.66,275.75,322.05,292.38z"/>
		</defs>
		<clipPath id="SVGID_2_">
			<use xlink:href="#SVGID_1_"  style="overflow:visible;"/>
		</clipPath>
		<linearGradient id="SVGID_3_" gradientUnits="userSpaceOnUse" x1="301.1399" y1="198.1873" x2="584.9116" y2="198.1873">
			<stop  offset="0" style="stop-color:#DCDFFB"/>
			<stop  offset="1" style="stop-color:#F3F3FA"/>
		</linearGradient>
		<path class="st11" d="M539.51,105.07c-4.54-0.7-9.46-1.06-14.7-1.08c-4.39-0.02-9.01,0.2-13.83,0.64
			c-4.42,0.41-9.01,1.01-13.74,1.79c-4.63,0.77-9.39,1.73-14.26,2.85c-5.01,1.16-10.15,2.52-15.37,4.05
			c-5.68,1.67-11.49,3.56-17.36,5.67c-7.3,2.62-14.69,5.56-22.14,8.82c-9.69,4.25-19.47,9.04-29.19,14.35
			c-17.4,9.51-33.02,19.83-46.39,30.37c-5.81,4.58-11.19,9.2-16.12,13.82c-0.99,0.92-1.95,1.84-2.9,2.76
			c-2.88,2.81-5.6,5.6-8.11,8.38c-3.06,3.35-5.85,6.68-8.35,9.98c-2.44,3.19-4.61,6.34-6.51,9.43c-1.93,3.14-3.57,6.23-4.92,9.23
			c-1.45,3.22-2.55,6.37-3.31,9.41c-0.89,3.61-1.28,7.07-1.13,10.33c0.18,3.69,1.03,7.13,2.62,10.29l18.26,36.22
			c-1.59-3.13-2.45-6.58-2.62-10.27c-0.15-3.27,0.23-6.73,1.13-10.34c0.75-3.04,1.86-6.17,3.31-9.41c1.36-3,3-6.09,4.92-9.23
			c1.9-3.09,4.07-6.25,6.5-9.44c2.51-3.29,5.3-6.62,8.36-9.98c2.53-2.78,5.23-5.58,8.11-8.38c0.95-0.92,1.92-1.84,2.9-2.76
			c4.93-4.62,10.33-9.24,16.14-13.82c13.37-10.54,28.99-20.85,46.39-30.36c9.72-5.31,19.49-10.1,29.18-14.34
			c7.45-3.28,14.85-6.21,22.15-8.83c5.87-2.1,11.66-4,17.35-5.67c5.23-1.54,10.36-2.89,15.38-4.04c4.87-1.14,9.63-2.09,14.26-2.86
			c4.72-0.79,9.31-1.39,13.73-1.79c4.82-0.45,9.44-0.67,13.83-0.64c5.25,0.02,10.17,0.37,14.7,1.07c12.19,1.87,21.6,6.2,27.14,13.13
			l-18.25-36.22C561.1,111.26,551.69,106.93,539.51,105.07z"/>
	</g>
	<g class="st10">
		<defs>
			<path id="SVGID_4_" class="st10" d="M569.38,122.44c6.09,12.08,12.18,24.16,18.26,36.23c-0.74-1.48-1.65-2.89-2.73-4.25
				l-18.25-36.22C567.73,119.55,568.64,120.97,569.38,122.44z"/>
		</defs>
		<clipPath id="SVGID_5_">
			<use xlink:href="#SVGID_4_"  style="overflow:visible;"/>
		</clipPath>
		<g class="st12">
			<path class="st13" d="M569.38,122.44l18.26,36.23c-0.74-1.48-1.65-2.89-2.73-4.25l-18.25-36.22
				C567.73,119.55,568.64,120.97,569.38,122.44"/>
		</g>
	</g>
	<g class="st0">
		<polygon class="st1" points="635.87,88.39 654.13,124.63 631.96,137.73 613.7,101.49 		"/>
	</g>
	<g class="st10">
		<defs>
			<path id="SVGID_6_" class="st10" d="M613.7,101.49l18.26,36.24c1.56,3.56,2.6,7.78,2.84,12.31l-18.26-36.22
				C616.31,109.28,615.26,105.06,613.7,101.49z"/>
		</defs>
		<clipPath id="SVGID_7_">
			<use xlink:href="#SVGID_6_"  style="overflow:visible;"/>
		</clipPath>
		<g class="st14">
			<path class="st13" d="M613.7,101.49l18.26,36.24c1.56,3.56,2.6,7.78,2.84,12.31l-18.26-36.22
				C616.31,109.28,615.26,105.06,613.7,101.49"/>
		</g>
	</g>
	<g class="st0">
		<polygon class="st15" points="245.82,300.88 264.08,337.11 255.55,326.44 237.28,290.22 		"/>
	</g>
	<g class="st0">
		
			<rect x="253.55" y="292.85" transform="matrix(0.893 -0.4501 0.4501 0.893 -112.4062 153.4739)" class="st16" width="26.03" height="40.57"/>
	</g>
	<g class="st10">
		<defs>
			<path id="SVGID_8_" class="st10" d="M281.28,296.38l18.27,36.23c-4.53-1.9-8.71-4.34-12.24-7.22l-18.26-36.23
				C272.58,292.05,276.75,294.49,281.28,296.38z"/>
		</defs>
		<clipPath id="SVGID_9_">
			<use xlink:href="#SVGID_8_"  style="overflow:visible;"/>
		</clipPath>
		<g class="st17">
			<path class="st13" d="M281.28,296.38l18.27,36.23c-4.53-1.9-8.71-4.34-12.24-7.22l-18.26-36.23
				C272.58,292.05,276.75,294.49,281.28,296.38"/>
		</g>
	</g>
	<g class="st0">
		<polygon class="st18" points="637.89,121.51 656.15,157.74 632.41,167.6 614.15,131.36 		"/>
	</g>
	<g class="st0">
		<polygon class="st19" points="639.95,105.99 658.21,142.22 656.15,157.74 637.89,121.51 		"/>
	</g>
	<g class="st10">
		<defs>
			<path id="SVGID_10_" class="st10" d="M614.15,131.36l18.27,36.24c-1.55,4.95-3.92,10.36-6.96,15.94l-18.25-36.23
				C610.24,141.74,612.6,136.32,614.15,131.36z"/>
		</defs>
		<clipPath id="SVGID_11_">
			<use xlink:href="#SVGID_10_"  style="overflow:visible;"/>
		</clipPath>
		<g class="st20">
			<path class="st21" d="M614.15,131.36l18.27,36.24c-0.86,2.76-1.98,5.67-3.33,8.67l-18.26-36.23
				C612.17,137.04,613.28,134.12,614.15,131.36"/>
			<path class="st22" d="M610.82,140.03l18.26,36.23c-1.07,2.38-2.27,4.81-3.63,7.28l-18.25-36.23
				C608.54,144.85,609.75,142.41,610.82,140.03"/>
		</g>
	</g>
	<g class="st0">
		<polygon class="st16" points="301.62,301.52 319.89,337.75 299.67,351.9 281.41,315.68 		"/>
	</g>
	<g class="st0">
		<polygon class="st23" points="281.41,315.68 299.67,351.9 281.59,347.39 263.33,311.15 		"/>
	</g>
	<g class="st10">
		<defs>
			<path id="SVGID_12_" class="st10" d="M321.82,302.73l18.26,36.23c-6.67,0.06-13.71-0.32-20.18-1.21l-18.27-36.23
				C308.1,302.41,315.14,302.78,321.82,302.73z"/>
		</defs>
		<clipPath id="SVGID_13_">
			<use xlink:href="#SVGID_12_"  style="overflow:visible;"/>
		</clipPath>
		<g class="st24">
			<path class="st21" d="M321.82,302.73l18.26,36.23c-0.58,0.01-1.15,0.01-1.74,0.02l-18.26-36.24
				C320.66,302.73,321.24,302.73,321.82,302.73"/>
			<path class="st25" d="M320.08,302.73l18.26,36.24c-6.15-0.03-12.53-0.41-18.44-1.22l-18.27-36.23
				C307.54,302.33,313.92,302.71,320.08,302.73"/>
		</g>
	</g>
	<g class="st0">
		<polygon class="st26" points="615.62,162.8 633.88,199.04 611.43,204.45 593.17,168.21 		"/>
	</g>
	<g class="st0">
		<polygon class="st27" points="628,144.29 646.26,180.52 633.88,199.04 615.62,162.8 		"/>
	</g>
	<g class="st10">
		<defs>
			<path id="SVGID_14_" class="st10" d="M593.17,168.21l18.26,36.24c-4.31,5.35-9.79,11.48-15.89,17.64l-18.27-36.24
				C583.39,179.71,588.87,173.57,593.17,168.21z"/>
		</defs>
		<clipPath id="SVGID_15_">
			<use xlink:href="#SVGID_14_"  style="overflow:visible;"/>
		</clipPath>
		<g class="st28">
			<path class="st29" d="M593.17,168.21l18.26,36.24c-2.41,2.99-5.18,6.23-8.23,9.57l-18.25-36.22
				C587.99,174.45,590.76,171.2,593.17,168.21"/>
			<path class="st7" d="M584.95,177.8l18.25,36.22c-2.4,2.64-4.97,5.35-7.65,8.07l-18.27-36.24
				C579.98,183.15,582.55,180.44,584.95,177.8"/>
		</g>
	</g>
	<g class="st0">
		<polygon class="st9" points="350.52,300.31 368.78,336.54 353.99,351.46 335.74,315.22 		"/>
	</g>
	<g class="st0">
		<polygon class="st30" points="335.74,315.22 353.99,351.46 328.53,353.63 310.27,317.4 		"/>
	</g>
	<g class="st10">
		<defs>
			<path id="SVGID_16_" class="st10" d="M376.21,295.41l18.26,36.24c-8.09,1.87-17.07,3.64-25.69,4.9l-18.26-36.23
				C359.13,299.05,368.12,297.28,376.21,295.41z"/>
		</defs>
		<clipPath id="SVGID_17_">
			<use xlink:href="#SVGID_16_"  style="overflow:visible;"/>
		</clipPath>
		<g class="st31">
			<path class="st29" d="M376.21,295.41l18.26,36.24c-0.04,0-0.09,0.02-0.13,0.03l-18.26-36.24
				C376.11,295.43,376.16,295.42,376.21,295.41"/>
			<path class="st32" d="M376.07,295.44l18.26,36.24c-6.37,1.48-13.28,2.87-20.13,4.01l-18.25-36.23
				C362.79,298.32,369.71,296.92,376.07,295.44"/>
			<path class="st22" d="M355.95,299.46l18.25,36.23c-1.82,0.31-3.63,0.59-5.43,0.86l-18.26-36.23
				C352.31,300.04,354.13,299.77,355.95,299.46"/>
		</g>
	</g>
	<g class="st10">
		<defs>
			<path id="SVGID_18_" class="st10" d="M553.33,207.6l18.25,36.23c-6.69,5.42-14.52,11.37-22.88,17.22l-18.26-36.22
				C538.81,218.97,546.64,213.03,553.33,207.6z"/>
		</defs>
		<clipPath id="SVGID_19_">
			<use xlink:href="#SVGID_18_"  style="overflow:visible;"/>
		</clipPath>
		<g class="st33">
			<path class="st34" d="M553.33,207.6l18.25,36.23c-1.34,1.09-2.72,2.19-4.14,3.31l-18.26-36.23
				C550.61,209.79,551.99,208.69,553.33,207.6"/>
			<path class="st35" d="M549.19,210.91l18.26,36.23c-5.69,4.49-12.05,9.24-18.74,13.92l-18.26-36.22
				C537.13,220.15,543.49,215.4,549.19,210.91"/>
		</g>
	</g>
	<g class="st0">
		<polygon class="st36" points="592.97,188.02 611.23,224.25 590.01,243.52 571.75,207.3 		"/>
	</g>
	<g class="st0">
		<polygon class="st32" points="571.75,207.3 590.01,243.52 571.59,243.83 553.33,207.6 		"/>
	</g>
	<g class="st10">
		<defs>
			<path id="SVGID_20_" class="st10" d="M437.87,275.27l18.26,36.24c-8.91,3.66-18.6,7.27-28.12,10.46l-18.26-36.24
				C419.28,282.55,428.96,278.92,437.87,275.27z"/>
		</defs>
		<clipPath id="SVGID_21_">
			<use xlink:href="#SVGID_20_"  style="overflow:visible;"/>
		</clipPath>
		<g class="st37">
			<path class="st34" d="M437.87,275.27l18.26,36.24c-6.17,2.52-12.7,5.04-19.29,7.4l-18.26-36.23
				C425.18,280.31,431.71,277.8,437.87,275.27"/>
			<path class="st7" d="M418.58,282.68l18.26,36.23c-2.94,1.06-5.89,2.07-8.83,3.07l-18.26-36.24
				C412.68,284.75,415.64,283.73,418.58,282.68"/>
		</g>
	</g>
	<g class="st10">
		<defs>
			<path id="SVGID_22_" class="st10" d="M500.55,244.03l18.26,36.23c-4.54,2.69-9.16,5.33-13.9,7.93c-4.79,2.61-9.6,5.12-14.4,7.54
				l-18.26-36.24c4.79-2.42,9.6-4.93,14.4-7.53C491.39,249.37,496,246.72,500.55,244.03z"/>
		</defs>
		<clipPath id="SVGID_23_">
			<use xlink:href="#SVGID_22_"  style="overflow:visible;"/>
		</clipPath>
		<g class="st38">
			<path class="st35" d="M500.55,244.03l18.26,36.23c-4.54,2.69-9.16,5.33-13.9,7.93c-4.79,2.61-9.6,5.12-14.4,7.54l-18.26-36.24
				c4.79-2.42,9.6-4.93,14.4-7.53C491.39,249.37,496,246.72,500.55,244.03"/>
		</g>
	</g>
	<g class="st0">
		<polygon class="st39" points="402.21,299.6 420.47,335.82 390.7,344.43 372.44,308.2 		"/>
	</g>
	<g class="st0">
		<polygon class="st40" points="409.76,285.73 428.02,321.97 420.47,335.82 402.21,299.6 		"/>
	</g>
	<g class="st0">
		<polygon class="st41" points="511.58,249.61 529.84,285.84 517.64,281.02 499.38,244.79 		"/>
	</g>
	<g class="st0">
		<polygon class="st1" points="539.09,231.91 557.35,268.14 529.84,285.84 511.58,249.61 		"/>
	</g>
	<g>
		<path class="st42" d="M551.37,75.87c6.65-0.04,13.7,0.33,20.18,1.21l20.22-14.15l18.08,4.52l-17.96,14.8
			c4.53,1.88,8.69,4.32,12.22,7.21l23.25-11.73l8.51,10.68l-22.18,13.1c1.56,3.57,2.61,7.79,2.84,12.33l23.41-7.83l-2.06,15.52
			l-23.75,9.85c-1.55,4.96-3.9,10.38-6.94,15.95l20.8-3.02l-12.38,18.51l-22.45,5.42c-4.31,5.36-9.78,11.49-15.89,17.64l15.69,2.17
			l-21.22,19.28l-18.42,0.31c-6.69,5.43-14.52,11.37-22.88,17.23l8.64,7.07l-27.51,17.7l-12.2-4.82l1.17-0.76
			c-4.55,2.69-9.16,5.33-13.89,7.93c-4.8,2.61-9.61,5.11-14.4,7.53l0.57,11.16l-30.48,13.99l-4.47-9.38
			c-8.91,3.65-18.6,7.28-28.11,10.46l-7.55,13.87l-29.77,8.61l3.77-12.8c-8.08,1.88-17.08,3.64-25.69,4.91l-14.78,14.91l-25.47,2.18
			l11.54-14.67c-6.67,0.06-13.71-0.32-20.19-1.21l-20.21,14.16l-18.08-4.52l17.95-14.78c-4.52-1.89-8.69-4.32-12.22-7.22
			l-23.24,11.73l-8.53-10.67l22.19-13.12c-1.57-3.56-2.59-7.79-2.85-12.31l-23.4,7.82l2.06-15.52l23.74-9.85
			c1.57-4.98,3.92-10.38,6.96-15.96l-20.81,3.02l12.39-18.51l22.44-5.4c4.33-5.37,9.8-11.5,15.88-17.66l-15.66-2.16l21.21-19.26
			l18.43-0.32c6.66-5.41,14.52-11.38,22.88-17.23l-8.64-7.08l27.5-17.69l12.19,4.82l-1.18,0.76c4.55-2.68,9.17-5.32,13.91-7.92
			c4.8-2.62,9.6-5.12,14.39-7.54l-0.55-11.17l30.47-13.99l4.48,9.37c8.93-3.65,18.6-7.26,28.1-10.44l7.57-13.88l29.75-8.6
			l-3.76,12.8c8.1-1.89,17.08-3.65,25.68-4.89l14.8-14.93l25.44-2.17L551.37,75.87z M566.66,118.2
			c-20.82-26.03-95.91-15.3-167.75,23.96c-26.47,14.47-48.8,30.8-65.41,46.95c-28.46,27.69-40.12,54.85-26.98,71.29
			c20.81,26.03,95.9,15.3,167.74-23.96c26.47-14.48,48.8-30.8,65.41-46.96C568.13,161.8,579.79,134.64,566.66,118.2"/>
	</g>
	<g class="st0">
		<polygon class="st8" points="472.83,270.66 491.08,306.89 460.61,320.89 442.34,284.65 		"/>
	</g>
	<g class="st0">
		<polygon class="st43" points="472.26,259.5 490.52,295.73 491.08,306.89 472.83,270.66 		"/>
	</g>
	<g class="st0">
		<polygon class="st44" points="657.21,170.73 667.51,197.55 670.84,210.37 660.54,183.55 		"/>
	</g>
	<g class="st0">
		<polygon class="st45" points="564.15,231.92 574.46,258.74 554.53,254.91 544.22,228.09 		"/>
	</g>
	<g class="st0">
		<polygon class="st46" points="737.64,166.38 747.95,193.19 728.57,210.15 718.26,183.34 		"/>
	</g>
	<g class="st10">
		<defs>
			<path id="SVGID_24_" class="st10" d="M678.14,215.78l10.31,26.82c-2.83-7.35-18.84-8.51-37.81-2.31
				c-10.32,3.37-19.56,8.25-26.14,13.45c-6.59,5.19-10.53,10.68-10.28,15.24c0.05,0.73,0.19,1.4,0.43,2.03l-10.3-26.81
				c-0.25-0.63-0.39-1.31-0.43-2.04c-0.24-4.56,3.7-10.06,10.28-15.25c6.59-5.19,15.82-10.09,26.14-13.45
				C659.3,207.27,675.32,208.43,678.14,215.78z"/>
		</defs>
		<clipPath id="SVGID_25_">
			<use xlink:href="#SVGID_24_"  style="overflow:visible;"/>
		</clipPath>
		<g class="st47">
			<path class="st48" d="M678.14,215.78l10.31,26.82c-1.01-2.64-3.74-4.48-7.68-5.46l-10.3-26.83
				C674.41,211.3,677.13,213.14,678.14,215.78"/>
			<path class="st49" d="M670.47,210.31l10.3,26.83c-1.2-0.31-2.52-0.53-3.94-0.67l-10.31-26.82
				C667.95,209.78,669.26,210.01,670.47,210.31"/>
			<path class="st50" d="M666.52,209.64l10.31,26.82c-1.17-0.12-2.42-0.18-3.72-0.18l-10.3-26.82
				C664.11,209.46,665.35,209.53,666.52,209.64"/>
			<path class="st51" d="M662.81,209.46l10.3,26.82c-1.18-0.01-2.42,0.04-3.7,0.13l-10.32-26.82
				C660.38,209.5,661.62,209.45,662.81,209.46"/>
			<path class="st52" d="M659.09,209.59l10.32,26.82c-1.25,0.09-2.53,0.21-3.86,0.39l-10.32-26.82
				C656.57,209.81,657.85,209.67,659.09,209.59"/>
			<path class="st53" d="M655.24,209.98l10.32,26.82c-1.36,0.17-2.76,0.4-4.2,0.68l-10.3-26.81
				C652.49,210.39,653.88,210.16,655.24,209.98"/>
			<path class="st54" d="M651.06,210.67l10.3,26.81c-1.55,0.3-3.15,0.66-4.77,1.08l-10.3-26.82
				C647.89,211.32,649.5,210.96,651.06,210.67"/>
			<path class="st55" d="M646.28,211.74l10.3,26.82c-1.94,0.5-3.92,1.06-5.94,1.73c-0.13,0.04-0.26,0.08-0.39,0.13l-10.31-26.82
				c0.14-0.05,0.26-0.09,0.4-0.14C642.35,212.8,644.34,212.23,646.28,211.74"/>
			<path class="st56" d="M639.94,213.59l10.31,26.82c-7.63,2.52-14.66,5.88-20.44,9.56l-10.3-26.81
				C625.29,219.47,632.31,216.12,639.94,213.59"/>
			<path class="st55" d="M619.51,223.16l10.3,26.81c-1.7,1.09-3.3,2.21-4.78,3.35l-10.31-26.82
				C616.2,225.36,617.8,224.24,619.51,223.16"/>
			<path class="st54" d="M614.72,226.5l10.31,26.82c-0.18,0.13-0.35,0.27-0.53,0.41c-0.97,0.76-1.87,1.53-2.72,2.3l-10.31-26.82
				c0.85-0.77,1.75-1.55,2.73-2.3C614.36,226.78,614.54,226.64,614.72,226.5"/>
			<path class="st53" d="M611.47,229.22l10.31,26.82c-0.89,0.82-1.73,1.63-2.47,2.44l-10.31-26.81
				C609.74,230.85,610.58,230.03,611.47,229.22"/>
			<path class="st52" d="M608.99,231.67l10.31,26.81c-0.72,0.78-1.36,1.56-1.94,2.33l-10.31-26.82
				C607.62,233.22,608.28,232.44,608.99,231.67"/>
			<path class="st51" d="M607.05,233.99l10.31,26.82c-0.58,0.78-1.09,1.55-1.52,2.31l-10.31-26.82
				C605.96,235.54,606.46,234.77,607.05,233.99"/>
			<path class="st50" d="M605.53,236.3l10.31,26.82c-0.46,0.82-0.82,1.62-1.09,2.42l-10.31-26.82
				C604.71,237.93,605.07,237.11,605.53,236.3"/>
			<path class="st49" d="M604.44,238.72l10.31,26.82c-0.33,0.94-0.51,1.86-0.54,2.75l-10.31-26.82
				C603.94,240.58,604.11,239.66,604.44,238.72"/>
			<path class="st48" d="M603.9,241.47l10.31,26.82c-0.02,0.24-0.01,0.45,0.01,0.69c0.05,0.73,0.19,1.4,0.43,2.03l-10.3-26.81
				c-0.25-0.63-0.39-1.31-0.43-2.04C603.9,241.93,603.89,241.7,603.9,241.47"/>
		</g>
	</g>
	<g class="st0">
		<polygon class="st16" points="551.7,266.95 562,293.76 532.02,302.41 521.71,275.59 		"/>
	</g>
	<g class="st0">
		<polygon class="st57" points="761.62,199.27 771.93,226.1 741.15,237.29 730.84,210.47 		"/>
	</g>
	<g class="st0">
		<polygon class="st58" points="760.78,184.39 771.1,211.2 771.93,226.1 761.62,199.27 		"/>
	</g>
	<g class="st10">
		<defs>
			<path id="SVGID_26_" class="st10" d="M564.26,276.62l10.32,26.82c-5.89-2.25-10.2-5.49-12.57-9.68l-10.31-26.81
				C554.06,271.13,558.37,274.38,564.26,276.62z"/>
		</defs>
		<clipPath id="SVGID_27_">
			<use xlink:href="#SVGID_26_"  style="overflow:visible;"/>
		</clipPath>
		<g class="st59">
			<path class="st48" d="M564.26,276.62l10.32,26.82c-5.89-2.25-10.2-5.49-12.57-9.68l-10.31-26.81
				C554.06,271.13,558.37,274.38,564.26,276.62"/>
		</g>
	</g>
	<g class="st10">
		<defs>
			<path id="SVGID_28_" class="st10" d="M730.84,210.47l10.31,26.82c-2.33,5.67-6.62,11.62-12.49,17.58l-10.3-26.81
				C724.21,222.09,728.51,216.14,730.84,210.47z"/>
		</defs>
		<clipPath id="SVGID_29_">
			<use xlink:href="#SVGID_28_"  style="overflow:visible;"/>
		</clipPath>
		<g class="st60">
			<path class="st50" d="M730.84,210.47l10.31,26.82c-0.55,1.36-1.22,2.73-1.99,4.11l-10.31-26.83
				C729.61,213.19,730.28,211.82,730.84,210.47"/>
			<path class="st51" d="M728.84,214.57l10.31,26.83c-1.05,1.85-2.28,3.75-3.7,5.65l-10.31-26.82
				C726.56,218.32,727.8,216.44,728.84,214.57"/>
			<path class="st52" d="M725.14,220.23l10.31,26.82c-1.42,1.9-3.03,3.82-4.8,5.74l-10.31-26.82
				C722.11,224.05,723.71,222.13,725.14,220.23"/>
			<path class="st53" d="M720.34,225.96l10.31,26.82c-0.64,0.7-1.3,1.39-1.99,2.08l-10.3-26.81
				C719.03,227.35,719.69,226.66,720.34,225.96"/>
		</g>
	</g>
	<g class="st0">
		<polygon class="st61" points="591.67,280.33 601.98,307.14 579.57,323.19 569.27,296.37 		"/>
	</g>
	<g class="st0">
		<polygon class="st62" points="569.27,296.37 579.57,323.19 555.15,320.42 544.84,293.61 		"/>
	</g>
	<g class="st10">
		<defs>
			<path id="SVGID_30_" class="st10" d="M621.96,276.43l10.31,26.82c-10.95,2.38-21.16,3.68-30.29,3.89l-10.31-26.81
				C600.8,280.1,611.01,278.82,621.96,276.43z"/>
		</defs>
		<clipPath id="SVGID_31_">
			<use xlink:href="#SVGID_30_"  style="overflow:visible;"/>
		</clipPath>
		<g class="st63">
			<path class="st54" d="M621.96,276.43l10.31,26.82c-1.62,0.35-3.22,0.68-4.8,0.98l-10.31-26.82
				C618.75,277.11,620.34,276.78,621.96,276.43"/>
			<path class="st53" d="M617.16,277.41l10.31,26.82c-3.52,0.68-6.96,1.23-10.29,1.68l-10.31-26.82
				C610.21,278.66,613.65,278.09,617.16,277.41"/>
			<path class="st52" d="M606.88,279.09l10.31,26.82c-3.24,0.44-6.38,0.75-9.42,0.96l-10.31-26.81
				C600.49,279.85,603.64,279.53,606.88,279.09"/>
			<path class="st51" d="M597.45,280.06l10.31,26.81c-1.98,0.14-3.9,0.23-5.78,0.27l-10.31-26.81
				C593.55,280.29,595.48,280.19,597.45,280.06"/>
		</g>
	</g>
	<g class="st10">
		<defs>
			<path id="SVGID_32_" class="st10" d="M690.98,249.03l10.31,26.81c-9.09,5.52-19.31,10.68-30.27,15.19l-10.31-26.81
				C671.66,259.7,681.88,254.54,690.98,249.03z"/>
		</defs>
		<clipPath id="SVGID_33_">
			<use xlink:href="#SVGID_32_"  style="overflow:visible;"/>
		</clipPath>
		<g class="st64">
			<path class="st56" d="M690.98,249.03l10.31,26.81c-9.09,5.52-19.31,10.68-30.27,15.19l-10.31-26.81
				C671.66,259.7,681.88,254.54,690.98,249.03"/>
		</g>
	</g>
	<g class="st0">
		<polygon class="st8" points="738.28,231.89 748.59,258.7 725.39,277 715.08,250.18 		"/>
	</g>
	<g class="st0">
		<polygon class="st65" points="715.08,250.18 725.39,277 701.28,275.84 690.98,249.03 		"/>
	</g>
	<g class="st0">
		<polygon class="st66" points="658.96,278.27 669.28,305.09 635.62,316.06 625.3,289.23 		"/>
	</g>
	<g class="st0">
		<polygon class="st21" points="660.71,264.21 671.01,291.02 669.28,305.09 658.96,278.27 		"/>
	</g>
	<g>
		<path class="st42" d="M737.64,166.38l-19.38,16.97c5.88,2.24,10.17,5.51,12.53,9.69l29.99-8.64l0.83,14.89l-30.78,11.2
			c-2.32,5.68-6.63,11.62-12.48,17.59l19.93,3.83l-23.2,18.29l-24.1-1.15c-9.1,5.52-19.32,10.67-30.27,15.18l-1.75,14.06
			l-33.66,10.96l-3.35-12.8c-10.94,2.39-21.16,3.67-30.29,3.9l-22.4,16.05l-24.42-2.76l19.41-16.99c-5.89-2.24-10.2-5.49-12.56-9.67
			l-29.99,8.64l-0.82-14.91l30.77-11.17c2.33-5.68,6.65-11.63,12.49-17.59l-19.94-3.83l23.2-18.29l24.12,1.13
			c9.08-5.49,19.3-10.65,30.27-15.17l1.73-14.05l33.67-10.98l3.33,12.82c10.93-2.39,21.17-3.68,30.29-3.91l22.42-16.05
			L737.64,166.38z M678.57,217.82c-0.51-9.13-17.62-11.07-38.23-4.36c-10.32,3.37-19.55,8.26-26.14,13.45
			c-6.59,5.19-10.52,10.69-10.28,15.25c0.51,9.14,17.66,11.07,38.26,4.36c10.31-3.36,19.55-8.25,26.12-13.45
			C674.89,227.88,678.83,222.39,678.57,217.82"/>
	</g>
	<g class="st0">
		<polygon class="st67" points="289.07,362.06 298.77,389.2 308.86,400.12 299.16,372.98 		"/>
	</g>
	<g class="st0">
		<polygon class="st68" points="526.57,308.01 536.27,335.16 547.1,317.33 537.4,290.18 		"/>
	</g>
	<g class="st0">
		<polygon class="st42" points="224.59,417.42 234.29,444.57 256.68,446.93 246.99,419.78 		"/>
	</g>
	<g class="st0">
		<polygon class="st9" points="575.54,325.78 585.24,352.93 609.53,336.17 599.83,309.02 		"/>
	</g>
	<g class="st0">
		<polygon class="st69" points="210.02,467.41 219.72,494.56 246.02,489.33 236.32,462.18 		"/>
	</g>
	<g class="st10">
		<defs>
			<path id="SVGID_34_" class="st10" d="M342.92,424.15c3.23,9.05,6.47,18.1,9.7,27.14c-2.07-5.8,0.55-13.32,8.51-21.7
				c18.81-19.8,60.3-36.87,92.66-38.11c18.69-0.72,30.26,3.98,33.08,11.89l-9.7-27.14c-2.83-7.91-14.39-12.62-33.08-11.89
				c-32.36,1.25-73.85,18.31-92.66,38.11C343.47,410.83,340.85,418.36,342.92,424.15z"/>
		</defs>
		<clipPath id="SVGID_35_">
			<use xlink:href="#SVGID_34_"  style="overflow:visible;"/>
		</clipPath>
		<g class="st70">
			<path class="st71" d="M342.92,424.15l9.7,27.14c-1.6-4.47-0.41-9.96,3.87-16.09l-9.7-27.14
				C342.52,414.19,341.32,419.68,342.92,424.15"/>
			<path class="st72" d="M346.79,408.07l9.7,27.14c1.25-1.78,2.75-3.62,4.53-5.49l-9.7-27.15
				C349.54,404.45,348.04,406.29,346.79,408.07"/>
			<path class="st73" d="M351.32,402.57l9.7,27.15c0.04-0.04,0.07-0.08,0.11-0.12c1.43-1.51,2.99-3,4.68-4.47l-9.7-27.15
				c-1.68,1.47-3.24,2.96-4.67,4.47C351.39,402.5,351.35,402.53,351.32,402.57"/>
			<path class="st74" d="M356.1,397.99l9.7,27.15c1.61-1.41,3.32-2.79,5.13-4.16l-9.7-27.15
				C359.43,395.2,357.71,396.58,356.1,397.99"/>
			<path class="st75" d="M361.24,393.83l9.7,27.15c1.79-1.35,3.68-2.67,5.64-3.96l-9.7-27.14
				C364.92,391.17,363.03,392.49,361.24,393.83"/>
			<path class="st76" d="M366.88,389.87l9.7,27.14c2.05-1.35,4.19-2.67,6.41-3.95l-9.7-27.14
				C371.07,387.2,368.93,388.52,366.88,389.87"/>
			<path class="st77" d="M373.29,385.92l9.7,27.14c2.5-1.45,5.1-2.84,7.77-4.19l-9.7-27.15
				C378.38,383.08,375.79,384.48,373.29,385.92"/>
			<path class="st78" d="M381.05,381.73l9.7,27.15c3.38-1.7,6.88-3.31,10.46-4.81l-9.7-27.14
				C387.93,378.43,384.43,380.04,381.05,381.73"/>
			<path class="st79" d="M391.51,376.93l9.7,27.14c12.97-5.44,27.03-9.51,40.3-11.43l-9.7-27.15
				C418.55,367.41,404.49,371.48,391.51,376.93"/>
			<path class="st78" d="M431.81,365.49l9.7,27.15c3.49-0.51,6.92-0.86,10.26-1.06l-9.7-27.14
				C438.73,364.63,435.3,364.99,431.81,365.49"/>
			<path class="st77" d="M442.08,364.44l9.7,27.14c0.67-0.03,1.35-0.07,2.01-0.1c1.96-0.07,3.83-0.09,5.63-0.05l-9.7-27.14
				c-1.8-0.04-3.68-0.03-5.63,0.05C443.42,364.37,442.75,364.4,442.08,364.44"/>
			<path class="st76" d="M449.72,364.29l9.7,27.14c2.19,0.05,4.25,0.18,6.2,0.39l-9.7-27.14
				C453.98,364.48,451.91,364.34,449.72,364.29"/>
			<path class="st75" d="M455.92,364.69l9.7,27.14c1.91,0.21,3.69,0.5,5.37,0.85l-9.7-27.15
				C459.62,365.18,457.83,364.9,455.92,364.69"/>
			<path class="st74" d="M461.29,365.54l9.7,27.15c1.73,0.37,3.33,0.82,4.8,1.33l-9.7-27.14
				C464.62,366.36,463.02,365.91,461.29,365.54"/>
			<path class="st73" d="M466.09,366.87l9.7,27.14c1.62,0.57,3.07,1.23,4.37,1.97l-9.7-27.14
				C469.16,368.1,467.7,367.45,466.09,366.87"/>
			<path class="st72" d="M470.46,368.85l9.7,27.14c1.58,0.91,2.92,1.93,4.01,3.07l-9.7-27.15
				C473.38,370.78,472.04,369.75,470.46,368.85"/>
			<path class="st71" d="M474.47,371.92l9.7,27.15c1.24,1.3,2.15,2.75,2.71,4.32l-9.7-27.14
				C476.61,374.66,475.7,373.22,474.47,371.92"/>
		</g>
	</g>
	<g class="st10">
		<defs>
			<path id="SVGID_36_" class="st10" d="M236.32,462.18l9.7,27.15c1.25,3.48,3.17,6.71,5.72,9.69l-9.7-27.14
				C239.49,468.89,237.57,465.66,236.32,462.18z"/>
		</defs>
		<clipPath id="SVGID_37_">
			<use xlink:href="#SVGID_36_"  style="overflow:visible;"/>
		</clipPath>
		<g class="st80">
			<path class="st71" d="M236.32,462.18l9.7,27.15c1.25,3.48,3.17,6.71,5.72,9.69l-9.7-27.14
				C239.49,468.89,237.57,465.66,236.32,462.18"/>
		</g>
	</g>
	<g class="st0">
		<polygon class="st81" points="611.64,351.54 621.34,378.69 621.49,354.47 611.79,327.32 		"/>
	</g>
	<g class="st0">
		<polygon class="st82" points="582.78,362.73 592.48,389.87 621.34,378.69 611.64,351.54 		"/>
	</g>
	<g class="st10">
		<defs>
			<path id="SVGID_38_" class="st10" d="M576.84,375.17l9.7,27.14c2.63-4.31,4.5-8.43,5.94-12.44l-9.7-27.15
				C581.34,366.74,579.48,370.86,576.84,375.17z"/>
		</defs>
		<clipPath id="SVGID_39_">
			<use xlink:href="#SVGID_38_"  style="overflow:visible;"/>
		</clipPath>
		<g class="st83">
			<path class="st71" d="M576.84,375.17l9.7,27.14c2.63-4.31,4.5-8.43,5.94-12.44l-9.7-27.15
				C581.34,366.74,579.48,370.86,576.84,375.17"/>
		</g>
	</g>
	<g class="st0">
		<polygon class="st84" points="221.96,485.73 231.66,512.87 259,525.78 249.3,498.63 		"/>
	</g>
	<g class="st0">
		<polygon class="st85" points="249.3,498.63 259,525.78 281.92,515.79 272.22,488.65 		"/>
	</g>
	<g class="st10">
		<defs>
			<path id="SVGID_40_" class="st10" d="M272.22,488.65l9.7,27.15c5.94,1.56,12.48,2.78,19.69,3.55l-9.7-27.14
				C284.69,491.43,278.16,490.21,272.22,488.65z"/>
		</defs>
		<clipPath id="SVGID_41_">
			<use xlink:href="#SVGID_40_"  style="overflow:visible;"/>
		</clipPath>
		<g class="st86">
			<path class="st74" d="M272.22,488.65l9.7,27.15c1.79,0.47,3.64,0.91,5.54,1.32l-9.7-27.15
				C275.86,489.56,274.01,489.12,272.22,488.65"/>
			<path class="st75" d="M277.76,489.97l9.7,27.15c4.28,0.91,8.85,1.65,13.73,2.19l-9.7-27.15
				C286.61,491.62,282.04,490.88,277.76,489.97"/>
			<path class="st76" d="M291.48,492.15l9.7,27.15c0.14,0.01,0.28,0.03,0.42,0.04l-9.7-27.14
				C291.76,492.18,291.63,492.17,291.48,492.15"/>
		</g>
	</g>
	<g class="st0">
		<polygon class="st87" points="569.65,406.33 579.35,433.48 606.9,404.47 597.2,377.32 		"/>
	</g>
	<g class="st0">
		<polygon class="st82" points="544.6,410.12 554.31,437.26 579.35,433.48 569.65,406.33 		"/>
	</g>
	<g class="st10">
		<defs>
			<path id="SVGID_42_" class="st10" d="M525.22,424.57l9.7,27.15c6.92-4.7,13.39-9.52,19.39-14.45l-9.7-27.15
				C538.61,415.05,532.13,419.87,525.22,424.57z"/>
		</defs>
		<clipPath id="SVGID_43_">
			<use xlink:href="#SVGID_42_"  style="overflow:visible;"/>
		</clipPath>
		<g class="st88">
			<path class="st75" d="M525.22,424.57l9.7,27.15c3.79-2.57,7.43-5.18,10.95-7.82l-9.7-27.14C532.66,419.39,529,422,525.22,424.57"
				/>
			<path class="st74" d="M536.17,416.75l9.7,27.14c2.91-2.19,5.72-4.4,8.44-6.63l-9.7-27.15
				C541.89,412.35,539.08,414.56,536.17,416.75"/>
		</g>
	</g>
	<g class="st10">
		<defs>
			<path id="SVGID_44_" class="st10" d="M347.07,490.85l9.7,27.14c9.49-1.18,19.09-2.77,28.83-4.78l-9.7-27.14
				C366.17,488.08,356.56,489.67,347.07,490.85z"/>
		</defs>
		<clipPath id="SVGID_45_">
			<use xlink:href="#SVGID_44_"  style="overflow:visible;"/>
		</clipPath>
		<g class="st89">
			<path class="st78" d="M347.07,490.85l9.7,27.14c2.17-0.27,4.35-0.56,6.54-0.88l-9.7-27.14
				C351.43,490.29,349.24,490.58,347.07,490.85"/>
			<path class="st79" d="M353.61,489.98l9.7,27.14c7.36-1.05,14.78-2.35,22.3-3.9l-9.7-27.14
				C368.4,487.62,360.97,488.92,353.61,489.98"/>
		</g>
	</g>
	<g class="st0">
		<polygon class="st90" points="331.84,502.74 341.54,529.88 356.77,518 347.07,490.85 		"/>
	</g>
	<g class="st0">
		<polygon class="st91" points="284.4,504.57 294.11,531.71 341.54,529.88 331.84,502.74 		"/>
	</g>
	<g class="st10">
		<defs>
			<path id="SVGID_46_" class="st10" d="M440.41,467.39l9.7,27.14c9.76-3.63,19.37-7.57,28.69-11.8l-9.7-27.14
				C459.77,459.82,450.17,463.76,440.41,467.39z"/>
		</defs>
		<clipPath id="SVGID_47_">
			<use xlink:href="#SVGID_46_"  style="overflow:visible;"/>
		</clipPath>
		<g class="st92">
			<path class="st79" d="M440.41,467.39l9.7,27.14c6.01-2.23,11.95-4.58,17.81-7.04l-9.7-27.15
				C452.36,462.81,446.41,465.16,440.41,467.39"/>
			<path class="st78" d="M458.21,460.34l9.7,27.15c3.66-1.54,7.29-3.13,10.88-4.75l-9.7-27.14
				C465.51,457.22,461.88,458.8,458.21,460.34"/>
		</g>
	</g>
	<g class="st0">
		<polygon class="st93" points="375.91,486.07 385.61,513.22 390.42,521.83 380.72,494.68 		"/>
	</g>
	<g class="st0">
		<polygon class="st94" points="485.11,458.73 494.81,485.88 542.41,459.83 532.71,432.69 		"/>
	</g>
	<g class="st0">
		<polygon class="st90" points="469.1,455.59 478.8,482.74 494.81,485.88 485.11,458.73 		"/>
	</g>
	<g>
		<path class="st42" d="M224.59,417.42l22.4,2.36c-2.91,4.1-5.39,8.1-7.28,11.97l-29.54,11.46l-0.15,24.21l26.3-5.23
			c1.25,3.48,3.17,6.71,5.72,9.69l-20.09,13.85l27.34,12.91l22.92-9.99c5.94,1.57,12.47,2.79,19.69,3.55l-7.5,12.37l47.44-1.83
			l15.23-11.88c9.49-1.18,19.09-2.77,28.83-4.78l4.82,8.61l54.86-16.09l4.83-11.2c9.76-3.63,19.36-7.57,28.69-11.8l16.01,3.14
			l47.6-26.04l-7.49-8.12c6.91-4.7,13.39-9.51,19.38-14.45l25.04-3.78l27.55-29.02l-20.36-2.15c2.64-4.31,4.5-8.43,5.94-12.44
			l28.86-11.19l0.16-24.21l-30.37,6.04c-1.54-2.7-3.45-5.25-5.89-7.58l24.29-16.76l-27.3-12.92l-32.02,13.94
			c-4.35-0.85-8.99-1.55-13.95-2.02l10.83-17.83l-47.46,1.83l-23.49,18.32c-5.94,0.86-11.9,1.88-17.92,3.06l-7.46-13.34l-54.87,16.1
			l-7.39,17.19c-6.19,2.31-12.3,4.78-18.35,7.34l-23.8-4.66l-47.6,26.05l10.09,10.92c-5.3,3.46-10.37,7.01-15.19,10.62l-31.82,4.8
			L224.59,417.42z M375.98,436.04c-32.36,1.25-43.36-13.78-24.55-33.58c18.81-19.8,60.3-36.86,92.66-38.11
			c32.39-1.25,43.39,13.79,24.58,33.59C449.86,417.74,408.37,434.79,375.98,436.04"/>
	</g>
	<g class="st0">
		<polygon class="st95" points="435.58,478.59 445.28,505.74 450.11,494.54 440.41,467.39 		"/>
	</g>
	<g class="st0">
		<polygon class="st69" points="380.72,494.68 390.42,521.83 445.28,505.74 435.58,478.59 		"/>
	</g>
	<g>
		<path class="st96" d="M288.34,341.85c15.34-0.47,14.17,6.99,14.77,16.71c0.6,9.71-3.82,29.67-13.36,34.3
			c-9.54,4.63-13.46,16.6-16.85,8.51c-3.95-9.43-8.87-3.45-13.49-7.97c-8.14-7.95-5.65-18.38,3.37-24.93
			c9.02-6.56,8.77-8.73,9.79-15.2C273.58,346.77,283.55,341.99,288.34,341.85z"/>
		<g>
			<path class="st97" d="M287.43,380.75c-3.18-0.48-19.96,14.38-24.36,18.43c-4.4,4.05-8.92,9.64-4.27,9.63
				c4.65-0.02,9.51-3.96,13.21-6.62c3.7-2.66,8.67-6.58,11.42-8.33C286.17,392.09,290.62,381.23,287.43,380.75z"/>
			<path class="st97" d="M263.95,412.54c0,0-2.03-12.12-8.69-21.13c-6.66-9.01-9.29-15.42-9.29-15.42l-3.58,0.6
				c0,0,10,23.99,12.35,27.9C257.09,408.4,257.23,407.87,263.95,412.54z"/>
			<g>
				<path class="st97" d="M233.53,369.63l-0.42-3.83c0,0,1.34,1.07,1.49,2.45c0.13,1.19,0.29,2.64,0.29,2.64L233.53,369.63z"/>
				<path class="st97" d="M236.55,372.16l-0.88-2.41l1.3-2.03c0,0,0.7,0.23,0.25,2.25c-0.1,0.45,0.95,3.08,0.95,3.08L236.55,372.16z
					"/>
				<path class="st97" d="M245.2,378.7c0,0-4.75-1.58-9.39-5c-4.64-3.42-3.86-4.55-4.64-6.17c-0.79-1.62-2.1-3.8-0.43-2.52
					c1.67,1.28,3.09,4.51,3.93,5.22c0.84,0.7,2.4,1.05,3.84,1.66c1.44,0.61,2.42,1.19,1.37-0.05c-1.05-1.24-1.4-1.66-1.61-2.19
					c-0.21-0.54-0.61-1.35-0.04-1.71c0.57-0.36,1.01,0.84,1.36,1.26c0.35,0.41,2.8,1.87,3.3,2.29c0.5,0.42,1.49,2.45,2.23,3.67
					c0.75,1.23,2.72,6.38,1.75,7.1C246.86,382.25,246.64,379.3,245.2,378.7z"/>
			</g>
		</g>
		<g>
			<path class="st98" d="M176.39,510.21c0,0-3.04,7.57-5.12,11.03c-2.07,3.47-3.85,5.79-4.71,8.89c-0.86,3.1,11.52-0.72,12.93-2.75
				c1.41-2.03,1.68-8.9,6.64-14.06C191.09,508.17,176.39,510.21,176.39,510.21z"/>
			<linearGradient id="SVGID_48_" gradientUnits="userSpaceOnUse" x1="191.8883" y1="534.7206" x2="219.8013" y2="466.8946">
				<stop  offset="0" style="stop-color:#8647E1"/>
				<stop  offset="1" style="stop-color:#B78FED"/>
			</linearGradient>
			<path class="st99" d="M229.42,442.26c0,0-37.21,15.14-40.92,19.6c-3.7,4.46-10.06,39.08-12.71,48.37
				c-0.56,1.95,8.39,4.65,10.9,3.25c2.51-1.4,13.53-21.76,15.34-27.03c2.01-5.83,1.28-12.81,2.87-13.47
				c3.33-1.39,36.43-9.68,41.16-12.84c4.73-3.17,18.46-14.4,17.02-18.1C261.67,438.34,229.42,442.26,229.42,442.26z"/>
			<path class="st100" d="M182.4,518.8c0,0,2.43,3.05,3.04,4.38c0.61,1.33,2.1,2.64,0.94,4.02c-1.17,1.38-5.66,4.28-9.1,9.06
				c-3.44,4.79-9.49,10.28-13.48,12.1c-3.99,1.82-9.86,1.28-9.89-0.74c-0.02-2.02,3.2-4.81,4.83-5.89
				c1.64-1.08,8.17-14.22,9.03-16.27c0.86-2.05,2.11-3.04,3.77-2.1c1.66,0.94,3.74,1.56,6.48-0.4
				C180.76,521.01,182.4,518.8,182.4,518.8z"/>
			<path class="st100" d="M178.02,522.97c-2.74,1.96-4.82,1.35-6.48,0.4c-1.66-0.94-2.91,0.05-3.77,2.1
				c-0.86,2.05-7.4,15.19-9.03,16.27c-1.64,1.08-4.86,3.87-4.83,5.89c0,0.1,0.02,0.19,0.05,0.28c1.86,0.84,5.86,0.71,8.86-0.69
				c4.04-1.89,10.22-7.47,13.77-12.3c3.55-4.82,8.11-7.79,9.31-9.19c0.3-0.35,0.43-0.68,0.45-1.01c-0.29-0.51-0.66-1.02-0.9-1.54
				c-0.6-1.33-3.04-4.38-3.04-4.38S180.76,521.01,178.02,522.97z"/>
		</g>
		<linearGradient id="SVGID_49_" gradientUnits="userSpaceOnUse" x1="236.8402" y1="421.4782" x2="298.583" y2="421.4782">
			<stop  offset="0" style="stop-color:#5C5E60"/>
			<stop  offset="1" style="stop-color:#9FA1A4"/>
		</linearGradient>
		<path class="st101" d="M289.22,412.16c0,0-5.97,6.13-7.85,12c-1.88,5.87,2.5,21.64-8.04,33.06c-5.36,5.81-36.49,2.75-36.49,2.75
			c25.27-40.76,26.76-47.32,25.27-52.09c-1.49-4.76-0.11-7.04,4.76-10.72c4.87-3.68,8.42-7.02,9.48-11.3
			C277.43,381.58,315.81,373.8,289.22,412.16z"/>
		<path class="st97" d="M299.56,384.65c0,0-1.97-1.55-2.33-8.14c-0.36-6.59-0.5-10.02,0.87-12.36c1.36-2.33-12.66-2.81-12.97,2.02
			c-0.31,4.83-1.14,5.49,0.31,10.58c1.46,5.09-3.6,6.5-4.66,6.91C278.57,384.52,272.24,392,299.56,384.65z"/>
		<path class="st97" d="M288.5,357.33c2.53,0.56,5,0.77,7.31,0.23c-1.88,11.33-12.25,12.81-12.61,12.84
			c-0.38,0.03-0.75,0.06-1.24-0.42c-0.49-0.49-0.76-1.09-0.76-1.41c0-0.33,0.22-0.72,0.1-0.75c-0.12-0.03-0.89-0.21-1.08-0.26
			c-0.19-0.05-0.4-0.54-0.4-0.54s0.36-0.65,0.32-0.66c-1-0.24-1.23-0.66-1.34-0.89c-0.11-0.23,0.11-0.69,0.3-1.07
			c0.16-0.33-0.11-1.09-0.29-1.34c-0.18-0.25-1.17-0.4-1.4-0.62c-0.23-0.22-0.53-0.7-0.45-0.84c0.08-0.15,0.41-0.57,1.04-1.39
			c0.64-0.83,1.24-2.64,0.41-5.29c-0.83-2.65-0.25-3.33-0.01-4.06C278.67,350.04,280.14,355.49,288.5,357.33z"/>
		<path class="st96" d="M284.75,343.19c1.29-0.53,14.14-2.63,20.3,3.07c6.15,5.7,7.8,14.23,4.86,22.12
			c-2.94,7.89-8.06,14.11-1.32,18.25c21.64,13.3,10.31,18.7,6.35,23.23c-7.65,8.77-26,7.42-26.61,1.39
			c-0.75-7.5,13.84-20.86,5.56-25.77c-6.14-3.64-8.06-5.55-6.58-14.37c1.49-8.82,10.41-11.59,5.11-13.38
			C286.16,355.64,273.56,347.75,284.75,343.19z"/>
		<path class="st97" d="M293.99,387.93c-4.49,0.86-18.31,25.69-22.29,32.47c-3.98,6.78-7.41,15.44-1.2,13.32
			c6.21-2.11,10.86-8.97,14.56-13.79c3.7-4.82,8.52-11.69,11.36-15C299.26,401.61,298.47,387.06,293.99,387.93z"/>
		<g>
			<path class="st98" d="M223.48,499.52c0,0,4.73,7.27,4.99,9.93c0.26,2.66,0.6,4.48,2.9,3.92c2.3-0.56,5.82-6.69,5.3-8.66
				c-0.53-1.96-5.92-6.57-6.73-9.68c-0.8-3.12-6.51,5.67-6.51,5.67L223.48,499.52z"/>
			<path class="st100" d="M233,499.4c0,0,3.17,1.46,5.07,1.65c1.91,0.19,4.6,1.95,4.32,5.63c-0.28,3.68-1.08,11.06-1,15.72
				c0.07,4.65-4.29,12.32-5.47,13.88c-1.87,2.48-6.18,2.49-7.15,0.31c-0.97-2.18,0.2-8.33,0.28-11.49
				c0.07-3.16-1.3-13.48-1.42-14.73c-0.12-1.25,3.52-3.99,4.8-2.48c1.28,1.51,2.5-0.24,2.51-1.38C234.96,505.38,233,499.4,233,499.4
				z"/>
			<path class="st100" d="M240.74,506.3c0.22-2.93-1.44-4.64-3.09-5.31c-0.43-0.07-0.89-0.19-1.36-0.34
				c-0.95-0.12-2.18-0.52-3.17-0.9c0.42,1.3,1.84,5.8,1.83,6.76c-0.02,1.13-1.23,2.89-2.51,1.38c0-0.01-0.01-0.01-0.01-0.01
				c-0.45,0.33-1.03,0.34-1.63-0.35c-1.5,0.37-3.24,1.97-3.16,2.84c0.12,1.25,1.49,11.57,1.42,14.73
				c-0.07,3.16-1.24,9.32-0.28,11.49c0.24,0.54,0.68,0.94,1.24,1.21c1.52,0.06,3.24-0.56,4.25-1.9c1.18-1.56,5.53-9.22,5.46-13.88
				C239.66,517.37,240.46,509.98,240.74,506.3z"/>
			<linearGradient id="SVGID_50_" gradientUnits="userSpaceOnUse" x1="251.9876" y1="444.0458" x2="200.0746" y2="472.4806">
				<stop  offset="0" style="stop-color:#8647E1"/>
				<stop  offset="1" style="stop-color:#B78FED"/>
			</linearGradient>
			<path class="st102" d="M250.11,441.19c-7.88,0.08-44.09-2.64-49.22,1.72c-5.12,4.36,3.3,16.82,29.73,22.66
				c26.43,5.85,31.48,4.19,39.91-4.18C278.96,453.02,255.98,441.13,250.11,441.19z"/>
			<linearGradient id="SVGID_51_" gradientUnits="userSpaceOnUse" x1="254.6054" y1="448.8251" x2="202.6924" y2="477.2599">
				<stop  offset="0" style="stop-color:#8647E1"/>
				<stop  offset="1" style="stop-color:#B78FED"/>
			</linearGradient>
			<path class="st103" d="M212.12,453.08c0,0,14.05,11.58,15.12,24.41c1.07,12.83,3.83,18.78,3.83,18.78l-7.64,4.43
				c0,0-23.45-35.87-25.15-43.1c-1.7-7.23-1.11-15.01,4.04-13.83C207.47,444.96,212.12,453.08,212.12,453.08z"/>
			<g>
				<path class="st104" d="M223.39,500.65c0.02,0.03,0.04,0.06,0.04,0.06l6.68-3.87L223.39,500.65z"/>
			</g>
		</g>
		<g>
			<path class="st105" d="M233.49,436.59c0,0-0.14-0.92-0.87-0.86c-1.2,0.12-3.31,1.3-4.04,1.75c-0.82,0.5-4.27,3.53-4.27,3.53
				s1.71-0.03,3.1-1.25C229.44,438,233.49,436.59,233.49,436.59z"/>
			<path class="st105" d="M232.92,436.87c-1.72,0.24-3.12,1.68-4.36,3.76c-1.18,1.98-2.66,2.13-2.66,2.13s0.62-1.36,2.77-4.24
				c0.6-0.81,1.31-1.65,2.16-2.18C233.4,434.74,237.34,436.25,232.92,436.87z"/>
			<path class="st97" d="M268.67,434.09c-8.34,0.6-21.66,0.85-21.66,0.85s-18.43,2.54-1.07-3.81c3.75-1.37,13.59-5.84,27.45-7.47
				c1.52-0.18,0.74,0.19,2.34,0.78C278.5,425.46,275.44,433.61,268.67,434.09z"/>
			<path class="st97" d="M231.37,437.96l-0.03-0.87l2.16-2.07c0,0,5.07-1.84,7.23-1.84c2.16,0,9.86-3.03,10.87-3.13
				c1.02-0.1,3.66,3.87,3.66,3.87s-8.48,1.14-11.81,1.88c-3.32,0.74-7.7,3.43-8.99,3.77c-2.21,0.57-3.3,0.99-3.3,0.99
				s-0.14-1.22,3.26-2.33c0.9-0.29,0.09-1.14,0.09-1.14L231.37,437.96z"/>
			<path class="st98" d="M234.34,435.68c0,0-2.64,0.79-3.49,1.88c-0.59,0.76-2.79,4.79-2.79,4.79s1.59-0.62,2.48-2.24
				C231.83,437.75,234.34,435.68,234.34,435.68z"/>
			<path class="st105" d="M234.53,437.08c0,0,0.58,0.53,0.52,0.88c0.22-0.14,0.4-0.33,0.55-0.47c0.35-0.3,3.05-1.83,3.05-1.83
				s-2.16,0.73-2.83,0.81c-0.42,0.05-1.31,0.39-2.05,0.67c-0.09,0.04-0.21,0.16-0.36,0.25L234.53,437.08z"/>
			<path class="st105" d="M234.44,438.23c-2.29,0.74-2.98,1.54-3.18,1.98c0.54-0.18,1.41-0.45,2.66-0.78
				c0.45-0.12,1.27-0.52,2.29-1.02c0.2-0.09-0.09-0.88,1.27-2.2c0.24-0.24-1.77,0.39-2.85,1C234.81,437.45,235.13,438,234.44,438.23
				z"/>
		</g>
		<g>
			<linearGradient id="SVGID_52_" gradientUnits="userSpaceOnUse" x1="201.8941" y1="441.2957" x2="250.8687" y2="441.2957">
				<stop  offset="0" style="stop-color:#8647E1"/>
				<stop  offset="1" style="stop-color:#B78FED"/>
			</linearGradient>
			<path class="st106" d="M250.85,441.19c0-0.02,0.01-0.03,0.02-0.04l-0.02-1.18H201.9v1.18c0,0-0.01,0.02,0,0.04l0.13,0.22
				c0.63,1.02,1.76,1.21,3.05,1.21h42.6c1.29,0,2.42-0.19,3.05-1.21L250.85,441.19z"/>
			<linearGradient id="SVGID_53_" gradientUnits="userSpaceOnUse" x1="239.048" y1="441.3188" x2="250.4044" y2="441.3188">
				<stop  offset="0" style="stop-color:#DCDFFB"/>
				<stop  offset="1" style="stop-color:#F3F3FA"/>
			</linearGradient>
			<path class="st107" d="M239.05,441.39c0,0-0.01,0.02,0,0.03l0.12,0.18c0.19,0.26,0.44,0.46,0.72,0.6h7.44
				c1.24,0,2.33-0.15,2.93-0.98l0.12-0.18c0.01-0.01,0.01-0.02,0.02-0.03l-0.01-0.58h-11.34V441.39z"/>
			<g>
				<rect x="207.98" y="440.24" class="st42" width="24.46" height="0.83"/>
			</g>
			<g>
				<path class="st108" d="M238.78,439.93l-6.35-24.05c-0.17-0.64-0.82-1.15-1.45-1.15h-34.35c-0.63,0-1.01,0.51-0.84,1.15
					l6.34,24.05H238.78z"/>
				<linearGradient id="SVGID_54_" gradientUnits="userSpaceOnUse" x1="214.834" y1="427.325" x2="219.4353" y2="427.325">
					<stop  offset="0" style="stop-color:#8647E1"/>
					<stop  offset="1" style="stop-color:#B78FED"/>
				</linearGradient>
				<path class="st109" d="M219.36,427.33c0.33,1.23-0.41,2.22-1.64,2.22c-1.23,0-2.49-1-2.81-2.22c-0.32-1.23,0.41-2.23,1.64-2.23
					C217.78,425.1,219.03,426.1,219.36,427.33z"/>
			</g>
		</g>
	</g>
	<g>
		<path class="st108" d="M491.53,49.11c0.01-0.01,0.03-0.03,0.04-0.04l0.33-1.46l-60.28-14.88l-0.36,1.45c0,0-0.02,0.03-0.01,0.05
			l0.09,0.31c0.46,1.45,1.8,2.02,3.39,2.41l52.46,12.95c1.59,0.39,3.04,0.51,4.13-0.56L491.53,49.11z"/>
		<linearGradient id="SVGID_55_" gradientUnits="userSpaceOnUse" x1="476.9303" y1="47.093" x2="491.2004" y2="47.093">
			<stop  offset="0" style="stop-color:#8647E1"/>
			<stop  offset="1" style="stop-color:#B78FED"/>
		</linearGradient>
		<path class="st110" d="M476.94,45.77c0,0-0.02,0.02-0.01,0.04l0.09,0.25c0.16,0.39,0.4,0.7,0.7,0.96l9.17,2.26
			c1.53,0.38,2.91,0.52,3.91-0.31l0.2-0.19c0.01-0.01,0.02-0.02,0.04-0.03l0.16-0.72l-13.97-3.45L476.94,45.77z"/>
		<g>
			<linearGradient id="SVGID_56_" gradientUnits="userSpaceOnUse" x1="438.7747" y1="39.1498" x2="469.1525" y2="39.1498">
				<stop  offset="0" style="stop-color:#8647E1"/>
				<stop  offset="1" style="stop-color:#B78FED"/>
			</linearGradient>
			<polygon class="st111" points="468.9,43.38 438.77,35.95 439.03,34.92 469.15,42.35 			"/>
		</g>
		<g>
			<path class="st108" d="M477.05,43.89l-0.51-31.55c-0.01-0.83-0.66-1.67-1.44-1.86l-42.3-10.44c-0.78-0.19-1.4,0.32-1.39,1.16
				l0.51,31.55L477.05,43.89z"/>
			<linearGradient id="SVGID_57_" gradientUnits="userSpaceOnUse" x1="451.4848" y1="21.7896" x2="456.9629" y2="21.7896">
				<stop  offset="0" style="stop-color:#8647E1"/>
				<stop  offset="1" style="stop-color:#B78FED"/>
			</linearGradient>
			<path class="st112" d="M456.96,22.47c0.03,1.61-1.18,2.61-2.69,2.24c-1.51-0.37-2.76-1.98-2.78-3.59
				c-0.02-1.61,1.18-2.62,2.69-2.25C455.69,19.25,456.94,20.85,456.96,22.47z"/>
		</g>
	</g>
	<g>
		<linearGradient id="SVGID_58_" gradientUnits="userSpaceOnUse" x1="529.345" y1="102.7786" x2="505.0842" y2="93.6481">
			<stop  offset="0" style="stop-color:#5C5E60"/>
			<stop  offset="1" style="stop-color:#9FA1A4"/>
		</linearGradient>
		<path class="st113" d="M546.63,126.87c23.03,16,8.32,1.68,8.53,1.23c0.95-2.69-6.38-1.85-5.17-7.37
			c1.15-5.37,2.06-13.84,0.82-25.17c-0.1-1.14-0.36-2.23-0.76-3.26c-4.37-3.25-9.5-5.07-14.39-7.65c-2.29,0.14-4.48,0.67-6.37,1.82
			c-8.89,4.94-14.5,2.58-17.7,5.72c-3.16,3-9.91,7.14-11.56,8.76C508.9,118.13,532.46,117.27,546.63,126.87z"/>
		<g>
			<path class="st97" d="M493.71,171.11c0,0,1.16-1.67,2.49-4.09c1.1-1.99,2.5-7.71,2.57-8.54c0.1-1.36,2.82-9.62,3.01-9.73
				c2.04-1.09-3.66,13.02,0.26,16.36c1.12,0.95-6.89,6.27-7.39,6.62C494.15,172.09,493.48,171.12,493.71,171.11z"/>
			<path class="st97" d="M513.25,103.94c0.54,1.05,2.79,4.09,2.75,7.04c-0.06,5.78-0.4,8.7-2.35,14.21
				c-3.1,8.74-8.32,22.61-10.6,28.42c-2.06,5.25-2.52,13.91-4.47,10.89c0.76-7.96-0.42-9.46,2.29-24.59
				C508.59,96.7,512.29,102.08,513.25,103.94z"/>
			<path class="st100" d="M494.6,169.76c0.8,1.64,4.54-2.36,5.34-3.62c0.76-1.19,1.33-1.85,1.33-1.85c0.04-0.04,0.08-0.07,0.12-0.11
				c0.03,0.03,0.07,0.05,0.1,0.09c0.61,0.75,1.76,1.48,0.57,2.46l-7.53,6.19C488.39,177.98,494.58,169.72,494.6,169.76z"/>
			<path class="st97" d="M542.27,79.2c1.58,1.12,4.31,1.19,3.65,3.76c-1.58,6.12-1.48,8.85-11.42,16.6
				c-30.27,23.61-17.02,5.8-25.17,8.66c-1.1-4.04,4.6-10.38,14.13-19.15C532.84,80.43,537.44,75.78,542.27,79.2z"/>
		</g>
		<path class="st97" d="M515.33,96.26c0.76-1.57,1.51-3.13,2.23-4.67c0.51-2.66,0.44-4.31-0.32-4.65
			c-2.86-1.28-13.44,8.01-25.73,39.9c-0.62,1.6-12.86,28.22-12.47,27.64C489.3,139.22,503.98,119.57,515.33,96.26z"/>
		<path class="st100" d="M483.2,152.88c-2.45,2.82-4.26,8.72-6.54,7.8c-0.92-0.37,0.76-3.52,2.45-7.44
			c1.47-3.43,3.14-5.78,3.96-5.23C483.88,148.56,486.72,148.84,483.2,152.88z"/>
		<path class="st97" d="M481.57,152.93c-1.28,1.63-2.95,4.55-3.77,4c0,0,0.33-1.88,1.55-4.35c1.5-3.05,2.35-4.22,3.45-6.12
			c1.41-2.44,2.64-3.07,0.97,1.57C483.32,149.27,482.93,151.2,481.57,152.93z"/>
		<path class="st98" d="M547.32,103.19c-0.63,2.59-1.43,2.34-4.03,3.39c-5.09,2.05-11.51,1.85-17.19-1.72
			c-5.32-3.34-9.63-7.67-12.43-12.12c-0.71-1.12,0.59-5.51,1.64-5.66c3.3-0.45,9.13,0.26,12.79,0.75
			C543.13,89.82,549.25,95.22,547.32,103.19z"/>
		<path class="st96" d="M547.66,23.06c-0.25,5.65,4.12,10.43,9.77,10.68l2.78-4.74c5.65,0.25,10.61-8.06,10.86-13.7l0.17-3.84
			c0.25-5.65-4.12-10.43-9.77-10.69l-2.56-0.12c-5.65-0.25-10.44,4.12-10.69,9.77L547.66,23.06z"/>
		<linearGradient id="SVGID_59_" gradientUnits="userSpaceOnUse" x1="524.9146" y1="45.2337" x2="553.4738" y2="45.2337">
			<stop  offset="0" style="stop-color:#5C5E60"/>
			<stop  offset="1" style="stop-color:#9FA1A4"/>
		</linearGradient>
		<path class="st114" d="M546.75,31.8c-10.93,4.55-21.84,22.41-21.84,22.41s1.04,5.11,3.1,4.61c2.61-0.64,11.73-8.07,22.93-19.43
			C557.87,32.36,548.58,31.03,546.75,31.8z"/>
		<linearGradient id="SVGID_60_" gradientUnits="userSpaceOnUse" x1="523.8424" y1="49.0684" x2="530.5779" y2="49.0684">
			<stop  offset="0" style="stop-color:#5C5E60"/>
			<stop  offset="1" style="stop-color:#9FA1A4"/>
		</linearGradient>
		<path class="st115" d="M525.45,56.43c-3.94-6.83,0.62-16.14,0.62-16.14s2.01,0.05,2.96,1.28c1.21,1.56,1.44,5.06,1.55,13.09
			C530.65,59.63,526.11,57.58,525.45,56.43z"/>
		<path class="st97" d="M527.32,47.8c0,0-1.55-0.06-2.24-6.66c-0.69-6.6,1.41-13.97,1.41-13.97l1.96,12.94
			C528.45,40.12,529.36,45.97,527.32,47.8z"/>
		<path class="st96" d="M568.81,8.92c0.73-0.35,1.47-0.64,2.22-0.89c0.28,0.95,0.62,1.89,1.06,2.81c4.26,8.87,14.56,12.9,23.83,9.73
			c2.66,8.93-1.6,18.8-10.44,23.05c-9.78,4.7-21.45,0.74-26.05-8.83C554.82,25.2,559.02,13.62,568.81,8.92z"/>
		<path class="st97" d="M552.6,4.27c-0.03,0.94,0,1.91,0.12,2.9c0.74,6.61,4.51,11.78,8.84,12.59c0,2.98,0.94,5.61,1.1,7.99
			c0.34,5.18,6.02,5.99,6.02,5.99c0.53,4.62-17.79,10.17-17.39,9.44c0.4-0.72,4.49-5.95,5.97-10.86c1.03-3.41,0.03-6.31-1.2-8.34
			c-2.31-2.98-5.85-3.1-5.85-3.1c-0.34-0.02-0.64-0.18-0.84-0.41c-0.18-0.69-0.26-1.41-0.23-2.15l0.38-8.43
			C549.62,7.54,550.82,5.52,552.6,4.27z"/>
		<path class="st97" d="M572.27,59.81l8.32-14.54c2.47-4.32,1.02-8.68-3.23-9.69l-24.04-5.69c-2.67-0.37-6.96,3.96-6.01,9.09
			l5.08,16.77L572.27,59.81z"/>
		<linearGradient id="SVGID_61_" gradientUnits="userSpaceOnUse" x1="575.5931" y1="54.0024" x2="591.4993" y2="54.0024">
			<stop  offset="0" style="stop-color:#5C5E60"/>
			<stop  offset="1" style="stop-color:#9FA1A4"/>
		</linearGradient>
		<path class="st116" d="M576.81,36.75c-5.45,14.68,9.18,35.79,9.18,35.79s4.86,0.29,5.43-1.92c0.71-2.81-3.26-8.91-7.88-26.19
			C580.66,33.73,577.56,34.71,576.81,36.75z"/>
		<linearGradient id="SVGID_62_" gradientUnits="userSpaceOnUse" x1="549.0847" y1="68.0912" x2="572.5708" y2="68.0912">
			<stop  offset="0" style="stop-color:#8647E1"/>
			<stop  offset="1" style="stop-color:#B78FED"/>
		</linearGradient>
		<path class="st117" d="M551.09,76.55c-0.14,3.37-0.15,7.44,1.33,7.43l10.21-1.01c1.48,0,6.31,0.71,6.45-2.66l3.48-13.82
			c0.14-3.37-0.94-6.09-2.42-6.09l-18.12-8.21c-1.48,0.01-2.8,2.74-2.94,6.11L551.09,76.55z"/>
		<linearGradient id="SVGID_63_" gradientUnits="userSpaceOnUse" x1="545.2333" y1="47.3502" x2="576.5259" y2="47.3502">
			<stop  offset="0" style="stop-color:#8647E1"/>
			<stop  offset="1" style="stop-color:#B78FED"/>
		</linearGradient>
		<path class="st118" d="M548.95,36.36c0.26-0.94,0.62-1.79,1.02-2.52c11.64,9.95,20.29,6.41,26.48,5.14
			c0.04,0.4,0.07,0.81,0.07,1.24c0.04,4.66-0.44,9.29-0.45,13.95c0.02,3.7-4.85,6.7-7.13,6.69c-8.5-0.02-10.4-0.68-18.47-3.5
			c-2.16-0.76-6.06-4.88-5.08-8.23C546.6,44.88,547.79,40.63,548.95,36.36z"/>
		<linearGradient id="SVGID_64_" gradientUnits="userSpaceOnUse" x1="574.8726" y1="42.9905" x2="566.0031" y2="78.7296">
			<stop  offset="0" style="stop-color:#5C5E60"/>
			<stop  offset="1" style="stop-color:#9FA1A4"/>
		</linearGradient>
		<path class="st119" d="M569.69,33.42c0,0,9.76,0.13,11.25,4.88c1.5,4.74-2.95,11.35-2.95,11.35s-2.86,8.54-3.75,13.2
			c-0.89,4.66,1.9,9.25,1.01,8.29c-0.18-0.2-2.39-0.08-5.83-1.88c-3.44-1.8-1.2-8.11-0.77-10.16c0.44-2.05,2.61-12.11,2.3-13.81
			C570.64,43.58,569.69,33.42,569.69,33.42z"/>
		<linearGradient id="SVGID_65_" gradientUnits="userSpaceOnUse" x1="551.439" y1="37.1748" x2="542.5694" y2="72.914">
			<stop  offset="0" style="stop-color:#5C5E60"/>
			<stop  offset="1" style="stop-color:#9FA1A4"/>
		</linearGradient>
		<path class="st120" d="M546.26,36.4c1.13-3.09,4.25-7.88,6.07-7.26c1.82,0.62,3.93,1.2,3.93,1.2s-6.55,2.52-6.91,15.88
			c-0.06,2.28-0.58,6.83,0.04,10.41c0.61,3.59,0.57,10.53,0.57,10.53s-3.89,0.62-4.09,1.18c-0.2,0.56,0.68-3.67-0.74-9.64
			C541.98,45.42,544.2,42.04,546.26,36.4z"/>
		<linearGradient id="SVGID_66_" gradientUnits="userSpaceOnUse" x1="554.9653" y1="49.5441" x2="569.4478" y2="49.5441">
			<stop  offset="0" style="stop-color:#DCDFFB"/>
			<stop  offset="1" style="stop-color:#F3F3FA"/>
		</linearGradient>
		<path class="st121" d="M564.27,42.53l-1.12,1.01l-0.71-0.79l-7.48,6.69l5.92,6.62c0.8,0.9,2.1,1.06,2.88,0.36l4.64-4.15
			c0.78-0.7,0.77-2.01-0.04-2.91l-0.45-0.51l1.12-1c0.56-0.5,0.54-1.41-0.02-2.05l-2.71-3.03
			C565.74,42.15,564.83,42.04,564.27,42.53z M568.17,46.57c0.09,0.1,0.09,0.24,0.01,0.32l-1.13,1.01l-3.03-3.39l1.12-1.01
			c0.09-0.08,0.23-0.06,0.32,0.04L568.17,46.57z"/>
		<g>
			<path class="st97" d="M577.71,58.42c-1.6-3.13-2.8-6.76-4.36-8.08c-2.21-1.88-4.18-1.88-5.11-3.67c-0.1-0.19-0.24-0.36-0.37-0.55
				c-0.33-0.49-0.62-1.09-0.79-1.27c-0.18-0.21-0.78-0.73-0.46-0.62c2.86,1.01,5.95,2.42,6.43,2.97c0.99,1.14,6.18,7.65,7.62,10.47
				C582.29,60.84,579.87,62.64,577.71,58.42z"/>
			<path class="st97" d="M573.37,49.54c0,0,0.69-0.22,0.54-0.77c-0.24-0.9-1.41-2.35-1.85-2.85c-0.49-0.56-3.23-2.8-3.23-2.8
				s0.25,1.29,1.34,2.2C571.79,46.64,573.37,49.54,573.37,49.54z"/>
			<path class="st97" d="M583.97,62.07c-1.16,0.43-2.35,0.79-3.59,1.08c-4.12-8.23-7.24-15.4-7.24-15.4L583.97,62.07z"/>
			<path class="st97" d="M570.96,45.87l-3.94-3.11l-1.75,0.94L565,44.39l0.29,0.45c0,0,0.4,0.08,0.37,0.11
				c-0.2,0.18,0.42,0.76,0.6,0.6c0.02-0.02,0.5,0.9,0.65,0.97c0.39,0.19,0.92-0.37,1.74,0.05c0.83,0.43,1.15,1.48,1.54,1.22
				C570.58,47.54,570.96,45.87,570.96,45.87z"/>
		</g>
		<linearGradient id="SVGID_67_" gradientUnits="userSpaceOnUse" x1="579.424" y1="65.9082" x2="587.7197" y2="65.9082">
			<stop  offset="0" style="stop-color:#5C5E60"/>
			<stop  offset="1" style="stop-color:#9FA1A4"/>
		</linearGradient>
		<path class="st122" d="M582.8,60.11c-0.58-0.47-3.84,2.11-3.32,3.41l0.28,1.04c0,0,2.79,8.82,7.2,6.96
			C586.95,71.51,590.36,67.99,582.8,60.11z"/>
		<linearGradient id="SVGID_68_" gradientUnits="userSpaceOnUse" x1="500.0374" y1="104.1693" x2="572.6363" y2="104.1693">
			<stop  offset="0" style="stop-color:#5C5E60"/>
			<stop  offset="1" style="stop-color:#9FA1A4"/>
		</linearGradient>
		<path class="st123" d="M500.04,100.95c0.26-0.64,5.84-9.19,7.23-10.33c6.73-5.51,41.13-20,44.22-18.76
			c6.98,2.81,14.39,4.02,18.21,8.15c-0.5,2.33,4.6,10.22,2.37,13.64c-8.49,13.05-26.57,2.51-16.24,25.29
			c3.32,7.33,6.48,13.91,4.65,17.21C549,141.08,516.2,98.87,500.04,100.95z"/>
		<g>
			<path class="st97" d="M525.72,28.73c0.11-0.6,0.71-1.3,1.09-2.07c0.67-1.33,1.98-3.2,2.83-4.35c1-1.34,1.84-2.93,1.84-2.91
				c0.13,1.77-0.92,2.52-1.17,3.29c-0.26,0.77-0.26,0.47,0.98-0.23c0.69-0.4,1.15-2.26,1.6-3.41c0.39-1,0.82-1.35,0.82-1.35
				s-0.13,1.65-0.63,3.25c-0.61,1.93-1.64,3.9-1.94,4.29c-0.54,0.72-1.77,2.06-3.03,3.27c-0.39,0.37-1.83,2.3-1.58,4.86
				C526.67,34.78,525.22,31.43,525.72,28.73z"/>
			<path class="st97" d="M530.92,25.29c0,0,2.14-2.27,2.38-2.86c0.17-0.42,0.63-2.51,0.63-2.51s-0.85,0.77-1.08,1.6
				C532.61,22.34,530.92,25.29,530.92,25.29z"/>
		</g>
	</g>
	<g>
		<g>
			<polygon class="st97" points="389.6,347.44 388.16,332.03 394.89,331.62 395.62,349.4 			"/>
			<g>
				<path class="st100" d="M403.54,360.76c0.1,0.9-1.01,2.35-1.01,2.35s-9.56-3.57-12.12-5.73c-0.67-0.56-1.62-1.86-2.47-3.16
					c-0.15-0.22-0.15-1.09-0.29-1.31c-0.26-0.4-0.63-0.13-0.84-0.49c-0.55-0.91-0.91-1.6-0.9-1.65c1.31-4.55,3.21-5.69,3.21-5.69
					s2.47,3.83,2.55,2.6c0.17-2.64,5.04-1.23,5.08,0.29C396.88,354.02,403.26,358.14,403.54,360.76z"/>
				<path class="st124" d="M403.36,361.78c-2.97-1.06-9.2-3.3-10.17-4.05c-4.01-3.04-5.48-6.69-6.55-9.03
					c-0.25,0.6-0.49,1.28-0.72,2.07c-0.01,0.05,0.35,0.74,0.9,1.65c0.21,0.35,0.58,0.09,0.84,0.49c0.13,0.22,0.14,1.09,0.29,1.31
					c0.85,1.3,1.8,2.6,2.47,3.16c2.56,2.16,12.12,5.73,12.12,5.73S403.05,362.47,403.36,361.78z"/>
				<g>
					<path class="st124" d="M400.11,355.25c-0.04,0.18-0.45,0.08-0.93-0.19c-0.96-0.55-1.99-1.01-3.07-1.39
						c-0.54-0.18-0.92-0.46-0.86-0.64c0.07-0.18,0.57-0.21,1.09-0.02c1.06,0.38,2.07,0.84,3.02,1.39
						C399.83,354.67,400.16,355.07,400.11,355.25z"/>
					<path class="st124" d="M399,353.27c-0.05,0.18-0.48,0.12-0.97-0.11c-1-0.47-2.05-0.85-3.15-1.13
						c-0.54-0.14-0.94-0.38-0.86-0.57c0.08-0.18,0.59-0.25,1.12-0.11c1.09,0.29,2.12,0.68,3.1,1.15
						C398.72,352.73,399.05,353.09,399,353.27z"/>
					<path class="st124" d="M397.89,351.41c-0.06,0.18-0.51,0.16-1.02-0.03c-1.02-0.38-2.1-0.68-3.22-0.88
						c-0.55-0.1-0.95-0.31-0.86-0.5c0.08-0.19,0.6-0.29,1.15-0.18c1.11,0.21,2.17,0.51,3.18,0.9
						C397.61,350.9,397.95,351.23,397.89,351.41z"/>
				</g>
			</g>
		</g>
		<g>
			<path class="st97" d="M321.88,370.21c-1.38-2.43,0.91-5.48,0.91-5.48l2.83-8.58l4.06,0.12l-1.13,15.11
				C328.55,371.38,323.26,372.63,321.88,370.21z"/>
			<path class="st100" d="M322.99,364.64c0,0-0.32,0.11-1.5,1.1c-1.19,0.99-1.44,1.77-1.4,2.49c0.17,2.76,1.19,4.42,2.21,10.83
				c1.02,6.41,2.54,7.89,5.94,8.65c3.4,0.75,4.9-1.85,4.07-4.86c-1.22-4.35-2.55-6.52-3.01-8.85c-0.49-2.43-0.02-2.77,0.32-4.42
				c0.32-1.55-4.74-1.04-5.38,0.55C323.66,371.53,321.55,366.18,322.99,364.64z"/>
			<path class="st124" d="M320.79,366.89c0.17,2.76,1.19,4.42,2.21,10.83c1.02,6.41,2.54,7.89,5.94,8.65
				c1.57,0.35,2.73-0.03,3.44-0.82c-0.43,1.64-1.85,2.67-4.14,2.16c-3.4-0.76-4.92-2.23-5.94-8.65c-1.02-6.41-2.04-8.07-2.21-10.83
				c-0.04-0.55,0.12-1.14,0.73-1.84C320.79,366.56,320.78,366.73,320.79,366.89z"/>
			<path class="st98" d="M322.91,364.68c0.05-0.03,0.08-0.04,0.08-0.04c-0.03,0.03-0.05,0.07-0.07,0.09
				C322.91,364.72,322.91,364.69,322.91,364.68z"/>
			<g>
				<path class="st124" d="M325.52,378.38c0,0.22,0.42,0.26,0.95,0.14c1.08-0.26,2.19-0.41,3.34-0.43c0.57-0.01,1.02-0.18,1-0.41
					c-0.02-0.23-0.5-0.44-1.06-0.42c-1.13,0.03-2.23,0.19-3.29,0.45C325.94,377.84,325.53,378.16,325.52,378.38z"/>
				<path class="st124" d="M325.19,376.4c0.03,0.22,0.45,0.27,0.95,0.16c1-0.24,2.06-0.36,3.15-0.37c0.54,0,0.94-0.16,0.89-0.4
					c-0.06-0.23-0.54-0.45-1.07-0.44c-1.08,0.02-2.12,0.15-3.11,0.4C325.52,375.87,325.16,376.18,325.19,376.4z"/>
				<path class="st124" d="M324.57,374.42c0.05,0.22,0.5,0.29,1.02,0.19c1.05-0.2,2.15-0.3,3.29-0.27c0.56,0.01,0.98-0.14,0.9-0.38
					c-0.07-0.24-0.59-0.46-1.14-0.47c-1.12-0.01-2.21,0.09-3.25,0.31C324.88,373.9,324.52,374.2,324.57,374.42z"/>
			</g>
		</g>
		<path class="st98" d="M429.42,203.03c0.7-2.33-0.83-4.43-0.83-4.43s-3.68-5.34-3.34-6.72c0.34-1.38-0.42-4.09-0.42-4.09
			s0.23-1.28,1.75,0.86c0.99,1.4,1.42,2.91,1.42,2.91s3.17,2.29,3.59,3.36c0.86,2.21-0.96,7.82-0.96,7.82
			S429.34,203.33,429.42,203.03z"/>
		<path class="st97" d="M411.37,209.52c0,0,15.86,3.3,19.96-12.79c1.22-4.78,1.66,0.21,1.71,5.06c0.05,4.84-5.11,17.29-14.47,20.64
			c-9.36,3.35-13.2,3.82-16.09,0.94C399.6,220.48,411.37,209.52,411.37,209.52z"/>
		<linearGradient id="SVGID_69_" gradientUnits="userSpaceOnUse" x1="368.3688" y1="280.4524" x2="368.3688" y2="363.9181">
			<stop  offset="0" style="stop-color:#5C5E60"/>
			<stop  offset="1" style="stop-color:#9FA1A4"/>
		</linearGradient>
		<path class="st125" d="M346.87,244.02l43.37,35.05l-3.75,14.73c0,0-15.5-2.14-29.24-12.18
			C343.51,271.58,346.87,244.02,346.87,244.02z"/>
		<linearGradient id="SVGID_70_" gradientUnits="userSpaceOnUse" x1="386.8652" y1="280.4524" x2="386.8652" y2="363.9181">
			<stop  offset="0" style="stop-color:#5C5E60"/>
			<stop  offset="1" style="stop-color:#9FA1A4"/>
		</linearGradient>
		<path class="st126" d="M388.5,344.46c-3.09-10.7-9.55-30.42-10.33-37.41c-1.44-12.94-0.19-22.15-0.19-22.15l12.51-5.66l5.78,64.52
			L388.5,344.46z"/>
		<linearGradient id="SVGID_71_" gradientUnits="userSpaceOnUse" x1="349.7347" y1="280.4524" x2="349.7347" y2="363.9181">
			<stop  offset="0" style="stop-color:#5C5E60"/>
			<stop  offset="1" style="stop-color:#9FA1A4"/>
		</linearGradient>
		<path class="st127" d="M345.67,243.56l11.58,20.06l3.99,41.56L343.6,317.6c0,0-1.95-20.16-4.86-37.41
			C335.91,263.42,345.67,243.56,345.67,243.56z"/>
		<linearGradient id="SVGID_72_" gradientUnits="userSpaceOnUse" x1="341.9443" y1="280.4524" x2="341.9443" y2="363.9181">
			<stop  offset="0" style="stop-color:#5C5E60"/>
			<stop  offset="1" style="stop-color:#9FA1A4"/>
		</linearGradient>
		<path class="st128" d="M322.73,363.91c3.69-13.2,9.73-37.97,13.33-45.86c6.68-14.61,9.42-14.17,9.42-14.17l15.67,1.36
			l-30.46,62.51L322.73,363.91z"/>
		<linearGradient id="SVGID_73_" gradientUnits="userSpaceOnUse" x1="407.1806" y1="218.276" x2="379.1371" y2="214.8847">
			<stop  offset="0" style="stop-color:#5C5E60"/>
			<stop  offset="1" style="stop-color:#9FA1A4"/>
		</linearGradient>
		<path class="st129" d="M374.66,213.34c0,0-1.29,5.39,19.38,12.83c12.88,4.64,17.89,0.47,17.89,0.47l6.1-2.43l-5.11-15.77
			l-7.49,1.42l-0.23,1.12c0,0-1.35,0.75-2.64,0.1c-1.29-0.64-7.36-3.39-19.72-5.87C368.45,202.34,374.98,212.07,374.66,213.34z"/>
		<linearGradient id="SVGID_74_" gradientUnits="userSpaceOnUse" x1="404.38" y1="204.3606" x2="404.5104" y2="222.8823">
			<stop  offset="0" style="stop-color:#5C5E60"/>
			<stop  offset="1" style="stop-color:#9FA1A4"/>
		</linearGradient>
		<path class="st130" d="M402.89,217.31l0.09-4.22l0.14-1.68c1.15,0.27,2.24-0.39,2.24-0.39l-0.68,3.11l-0.1,3.82l1.52,5.02
			L402.89,217.31z"/>
		<linearGradient id="SVGID_75_" gradientUnits="userSpaceOnUse" x1="377.3524" y1="244.3346" x2="338.7437" y2="212.3781">
			<stop  offset="0" style="stop-color:#5C5E60"/>
			<stop  offset="1" style="stop-color:#9FA1A4"/>
		</linearGradient>
		<path class="st131" d="M365.94,261.94l-29.46-1.11l23.9-53.91c0,0,10.7-14.07,21.68-6.12c6.2,4.49,12.23,7.23,12.23,7.23
			S397.07,231.37,365.94,261.94z"/>
		<g>
			<path class="st97" d="M426.69,257.16c1.51-0.01,4.78-3.42,4.78-3.42l-1.7-4.57l-3.45-0.78l-1.14,2.35l-0.58,4.7
				C424.62,255.45,425.77,257.17,426.69,257.16z"/>
			<linearGradient id="SVGID_76_" gradientUnits="userSpaceOnUse" x1="367.7871" y1="214.6689" x2="388.3958" y2="253.0168">
				<stop  offset="0" style="stop-color:#5C5E60"/>
				<stop  offset="1" style="stop-color:#9FA1A4"/>
			</linearGradient>
			<path class="st132" d="M381.05,222.25l13.56,24.55l-0.72,1.95l2.03,0.41l-5.96,9.4l-9.65-2.34l-17.9-33.86
				c0,0-2.24-8.78,4.29-17.74C371.43,198.12,379.85,220.28,381.05,222.25z"/>
			<path class="st97" d="M394.89,249.28l33.26,4.78c0,0-0.49,2.54-2.3,3.21c-4.89,1.82-16.41,3.39-22.09,3.06
				c-7.77-0.46-15.35-2.48-15.35-2.48L394.89,249.28z"/>
		</g>
		<g>
			<path class="st97" d="M388.83,194c1.84,5.96-0.07,12.62-0.39,12.91c-3.06,2.78-7.89-2.6-7.75-4.22c0.14-1.62-1.62-8.57-2.1-9.55
				C378.11,192.16,387.79,190.61,388.83,194z"/>
			<path class="st97" d="M384.1,191.87c-1.96,0.08-3.84,0.39-4.81,0.74c0.68,1.75,1.4,3.46,1.98,4.57c1.61,3.08,4.66,3.64,6.66,4.22
				c0.42,0.13,0.94,0.17,1.48,0.15c0-1.05-0.15-3.26-0.57-7.54C388.68,192.39,386.45,191.87,384.1,191.87z"/>
			<path class="st97" d="M387.37,177.95l5.91,14.98c0,0,1.4,3.55,0.25,4.59c-1.16,1.04-4.9,2.22-6.88,1.64
				c-1.99-0.58-5.05-1.14-6.65-4.22c-1.61-3.08-4.31-10.92-4.31-10.92s0.1-2.97,5.44-3.32
				C386.47,180.36,387.37,177.95,387.37,177.95z"/>
			<path class="st96" d="M385.43,174.51c0.73-0.08,2.03,0,2.73,1.01c0.72,1.05,0.33,3.18-0.57,3.82c-0.9,0.64-7.32,3.22-8.22,3.24
				c-0.9,0.03-2.51,0.3-3.68-0.65c-0.76-0.62,1-3.29,2.61-3.43C382.38,178.13,382.73,174.79,385.43,174.51z"/>
			<path class="st96" d="M377.37,181.35l2.55,6.47l0.84,3.63l-0.77,0.3l-1.39,0.55c0,0-5.79-7.98-4.03-9.85
				C376.34,180.59,377.04,180.9,377.37,181.35z"/>
			<path class="st97" d="M380.18,192.42c0.22,0.56-0.06,1.19-0.61,1.41l-0.59,0.24c-0.56,0.22-1.2-0.06-1.42-0.61l-0.93-2.37
				c-0.22-0.56,0.05-1.2,0.61-1.42l0.59-0.24c0.56-0.22,1.2,0.06,1.42,0.61L380.18,192.42z"/>
		</g>
		<linearGradient id="SVGID_77_" gradientUnits="userSpaceOnUse" x1="378.4204" y1="204.6546" x2="384.1371" y2="204.6546">
			<stop  offset="0" style="stop-color:#5C5E60"/>
			<stop  offset="1" style="stop-color:#9FA1A4"/>
		</linearGradient>
		<polygon class="st133" points="384.14,207.09 380.9,210.31 378.42,199.77 380.21,199 		"/>
		<linearGradient id="SVGID_78_" gradientUnits="userSpaceOnUse" x1="384.489" y1="208.3081" x2="388.5747" y2="208.3081">
			<stop  offset="0" style="stop-color:#5C5E60"/>
			<stop  offset="1" style="stop-color:#9FA1A4"/>
		</linearGradient>
		<polygon class="st134" points="387.85,206.23 388.57,204.87 388.22,207.88 385.39,211.75 384.49,207.48 		"/>
	</g>
	<g>
		<linearGradient id="SVGID_79_" gradientUnits="userSpaceOnUse" x1="366.748" y1="139.4402" x2="457.8922" y2="139.4402">
			<stop  offset="0" style="stop-color:#8647E1"/>
			<stop  offset="1" style="stop-color:#B78FED"/>
		</linearGradient>
		<path class="st135" d="M454.74,113.38c-10.76-24.49-34.23-37.87-60.94-26.13c-26.72,11.73-32.75,38.07-21.99,62.55
			c8.39,19.1,24.7,19.85,43.02,30.71c3.63,2.15,6.78,15.44,6.78,15.44l33.41-14.67c0,0-7.66-11.32-6.78-15.44
			C452.64,144.99,463.12,132.48,454.74,113.38z"/>
		<linearGradient id="SVGID_80_" gradientUnits="userSpaceOnUse" x1="421.0251" y1="195.4285" x2="458.8835" y2="195.4285">
			<stop  offset="0" style="stop-color:#5C5E60"/>
			<stop  offset="1" style="stop-color:#9FA1A4"/>
		</linearGradient>
		<path class="st136" d="M421.03,196.2l2.02,4.61c3.35,7.63,12.25,11.1,19.89,7.75l6.91-3.04c7.64-3.35,11.11-12.26,7.75-19.89
			l-2.02-4.61L421.03,196.2z"/>
		<g>
			<polygon class="st42" points="395.79,138.54 392.87,137.83 395.58,126.7 403.92,131.28 406.17,122.05 414.51,126.63 
				416.78,117.39 425.11,121.98 427.38,112.74 437.44,118.25 436,120.88 429.36,117.25 427.09,126.5 418.76,121.91 416.49,131.15 
				408.16,126.56 405.9,135.8 397.57,131.21 			"/>
		</g>
		<g>
			<polygon class="st42" points="432.14,190.62 419.51,161.86 401.98,142.56 404.2,140.54 422.06,160.2 434.89,189.42 			"/>
		</g>
		<g>
			<polygon class="st42" points="442.74,185.97 429.91,156.75 427.52,130.3 430.5,130.03 432.86,155.99 445.49,184.76 			"/>
		</g>
		<g>
			
				<rect x="401.36" y="49.73" transform="matrix(0.0417 -0.9991 0.9991 0.0417 346.0524 463.2499)" class="st108" width="26.31" height="3"/>
		</g>
		<g>
			
				<rect x="384.82" y="44.27" transform="matrix(0.9578 -0.2873 0.2873 0.9578 -0.2115 113.411)" class="st108" width="3" height="26.31"/>
		</g>
		<g>
			
				<rect x="357.45" y="59.38" transform="matrix(0.7539 -0.657 0.657 0.7539 40.6737 253.6632)" class="st108" width="3" height="26.31"/>
		</g>
		<linearGradient id="SVGID_81_" gradientUnits="userSpaceOnUse" x1="431.4791" y1="191.4991" x2="454.6503" y2="191.4991">
			<stop  offset="0" style="stop-color:#5C5E60"/>
			<stop  offset="1" style="stop-color:#9FA1A4"/>
		</linearGradient>
		<polygon class="st137" points="454.65,188.55 433.05,198.04 431.48,194.45 453.08,184.96 		"/>
		<linearGradient id="SVGID_82_" gradientUnits="userSpaceOnUse" x1="434.3251" y1="199.3058" x2="451.4511" y2="199.3058">
			<stop  offset="0" style="stop-color:#5C5E60"/>
			<stop  offset="1" style="stop-color:#9FA1A4"/>
		</linearGradient>
		<polygon class="st138" points="451.45,197.69 435.9,204.52 434.33,200.92 449.87,194.1 		"/>
		<linearGradient id="SVGID_83_" gradientUnits="userSpaceOnUse" x1="432.9683" y1="204.2212" x2="457.1109" y2="204.2212">
			<stop  offset="0" style="stop-color:#5C5E60"/>
			<stop  offset="1" style="stop-color:#9FA1A4"/>
		</linearGradient>
		<path class="st139" d="M432.97,209.25c3.21,0.86,6.69,0.75,9.97-0.69l6.91-3.04c3.28-1.44,5.72-3.93,7.26-6.87L432.97,209.25z"/>
	</g>
	<g>
		<g>
			<g>
				<g>
					<path class="st97" d="M139.58,319.91l-1.64-4.23c0,0-0.69-2.05-2.29-4.11c-1.61-2.07-3.89-2-6.15-0.83
						c-2.27,1.16-2.91,2.4-2.91,2.4s0.26,3.25,2.9,3.76c2.64,0.52,7.3,4.98,8.03,4.16C138.27,320.24,139.58,319.91,139.58,319.91z"
						/>
					<polygon class="st97" points="126.68,314.52 124.31,310.06 122.3,305.81 123.34,305.72 125.2,308.54 130.11,311.41 
						128.97,312.44 					"/>
					<polygon class="st97" points="126.88,307.87 126.27,303.75 127.26,303.38 128.6,307.34 131.36,310.84 128.97,312.44 					"/>
					<polygon class="st97" points="129.07,303.27 129.35,306.59 129.23,308.82 130.61,310.86 132.9,310.2 131.36,308.05 
						130.25,303.74 					"/>
					<polygon class="st97" points="132.38,303.71 131.87,309.7 132.94,311.07 134.55,310.72 133.78,307.96 133.15,304.42 					"/>
				</g>
				<path class="st97" d="M138.37,323.18c-1.19-2.41-4-2.95-4-2.95s-6.99-1.53-7.75-2.9c-0.76-1.37-3.42-2.98-3.42-2.98
					s-0.77-1.21,2.06-0.63c1.86,0.39,3.33,1.28,3.33,1.28s4.28-0.54,5.43,0.01c2.35,1.13,5.11,7.03,5.11,7.03
					S138.52,323.48,138.37,323.18z"/>
				<linearGradient id="SVGID_84_" gradientUnits="userSpaceOnUse" x1="89.7569" y1="355.1774" x2="140.166" y2="355.1774">
					<stop  offset="0" style="stop-color:#5C5E60"/>
					<stop  offset="1" style="stop-color:#9FA1A4"/>
				</linearGradient>
				<path class="st140" d="M89.76,357.89c0,0-0.56,8.26,24.18,10.16c24.75,1.89,24.21-3.76,24.21-3.76l2.01-5.92l-8.66-16.44
					l-8.08,3.68l-0.04,1.39c0,0-1.35,1.25-2.91,0.82c-1.57-0.43-9.04-0.2-22.69-3.28C91.48,343.13,89.86,356.29,89.76,357.89z"/>
				<g>
					<linearGradient id="SVGID_85_" gradientUnits="userSpaceOnUse" x1="89.7569" y1="356.4275" x2="128.8203" y2="356.4275">
						<stop  offset="0" style="stop-color:#5C5E60"/>
						<stop  offset="1" style="stop-color:#9FA1A4"/>
					</linearGradient>
					<path class="st141" d="M97.77,344.54c0.27,0.07,0.54,0.12,0.81,0.18c-2.08,3.35-3.24,7.89-3.41,8.78c0,0-1.64,8.1,22.73,12.98
						c4.4,0.88,7.98,1.41,10.91,1.69c-3.44,0.34-8.22,0.39-14.88-0.12c-24.75-1.9-24.18-10.16-24.18-10.16
						C89.86,356.29,91.48,343.13,97.77,344.54z"/>
				</g>
				<path class="st97" d="M131.05,343.59c0,0,14.03-11.06,3.36-25.94c-3.17-4.43,1.36-1.25,5.49,2.14
					c4.13,3.39,10.98,16.58,7.16,26.87c-3.81,10.28-6.14,13.86-10.62,14.25C131.95,361.3,131.05,343.59,131.05,343.59z"/>
				<linearGradient id="SVGID_86_" gradientUnits="userSpaceOnUse" x1="121.045" y1="353.3816" x2="126.7757" y2="353.3816">
					<stop  offset="0" style="stop-color:#5C5E60"/>
					<stop  offset="1" style="stop-color:#9FA1A4"/>
				</linearGradient>
				<path class="st142" d="M122.07,354.33l-0.81-4.58l-0.22-1.85c1.31,0.04,2.34-0.91,2.34-0.91l-0.06,3.52l0.72,4.16l2.73,5.1
					L122.07,354.33z"/>
			</g>
			<g>
				<linearGradient id="SVGID_87_" gradientUnits="userSpaceOnUse" x1="56.7045" y1="377.3522" x2="103.0672" y2="377.3522">
					<stop  offset="0" style="stop-color:#5C5E60"/>
					<stop  offset="1" style="stop-color:#9FA1A4"/>
				</linearGradient>
				<path class="st143" d="M99.69,410.29l-28.93-0.63l-12.02-40.27c0,0-7.8-24.35,7.15-24.66c14.95-0.31,32.18-0.31,32.18-0.31
					S108.14,353.16,99.69,410.29z"/>
				<path class="st97" d="M73.37,314.2c0,0,15.21,14.14,13.32,19.04c-0.08,0.21-2.48,2.52-2.74,4.84c-0.25,2.19,0.79,3.48,0.79,4.35
					c0,0.28,0.76,2.16,0.85,2.72c0.36,2.52-0.93,4.6-1.99,4.34c-1.3-0.31-6.8-2.49-7.76-3.01c-0.66-0.36-1.28-0.42-1.45-1.47
					c-0.35-2.23-1.52-6.02-2.64-7.09c-3.28-3.15-12.49-6.19-9.93-15.24C62.56,320.05,72.07,313.57,73.37,314.2z"/>
				<linearGradient id="SVGID_88_" gradientUnits="userSpaceOnUse" x1="73.2582" y1="349.7191" x2="83.1575" y2="349.7191">
					<stop  offset="0" style="stop-color:#5C5E60"/>
					<stop  offset="1" style="stop-color:#9FA1A4"/>
				</linearGradient>
				<polygon class="st144" points="83.16,349.47 82.44,354.47 73.26,346.84 74.32,344.97 				"/>
				<linearGradient id="SVGID_89_" gradientUnits="userSpaceOnUse" x1="83.7235" y1="348.66" x2="87.3549" y2="348.66">
					<stop  offset="0" style="stop-color:#5C5E60"/>
					<stop  offset="1" style="stop-color:#9FA1A4"/>
				</linearGradient>
				<polygon class="st145" points="85.85,346.25 85.59,344.57 87.27,347.45 87.35,352.75 83.72,349.58 				"/>
				<path class="st97" d="M86.52,332.98c0,0-0.72,0.16-2.1,0.35c-0.46,0.06-1.79,0.26-2.4,0.54c-2.68,1.21-2.44,1.36-4.2,1.77
					c-2.01,0.47-6.44,0.63-6.44,0.63s2.23,0.84,3.12,1.2c1.66,0.66,3.08,0.42,4.21,0.04c4.91-1.65,4.91-1.18,5.41-1.59
					C84.16,335.88,84.3,335.51,86.52,332.98z"/>
				<path class="st97" d="M78.77,320.71c0.24,0.29,3.43,1.89,4.02,2.19c0.59,0.3,1.36,0.65,1.42,0.89c0.06,0.24,0,1.13-0.06,1.48
					c-0.06,0.35-0.24,1.77-1.42,0.71C81.55,324.91,78.77,320.71,78.77,320.71z"/>
				<path class="st96" d="M60.97,322.25c0.89-4.79,7.21-9.28,14.49-8.99c0,0,0.65,1.06-0.06,3.01c0,0-4.91-0.94-8.28,2.78
					c-3.54,3.9,0.84,3.42,0.77,5.19c-0.06,1.48-0.18,2.79-0.18,2.79l1.33,2.71l-0.93,1.02c0,0-2.61-1.87-2.53-0.71
					c0.11,1.4,1.94,2.91,2.17,3.15c0.24,0.24,0.64,0.62,0.58,0.8c-0.05,0.14,1.41,1.24,3.14,3.78c-0.48,0.43-1.67,0.29-3.23-0.9
					C64.72,334.21,59.89,328.1,60.97,322.25z"/>
				<path class="st98" d="M65.67,329.73c-0.92,0.74-1.06,2.08-0.32,2.99c0.74,0.92,2.08,1.06,2.99,0.32"/>
				<path class="st97" d="M81.33,326.24c0,0,1.46-2.1,1.7-2.22c0.24-0.12,0.77-0.48,0.95-0.3c0.18,0.18,0.31,0.92-0.16,2.25
					C83.7,326.3,83.42,325.71,81.33,326.24z"/>
				<rect x="91.49" y="534.61" class="st98" width="7.45" height="11.35"/>
				<rect x="38.62" y="534.61" class="st98" width="6.03" height="11.35"/>
				<path class="st100" d="M91.84,549.27h5.44v-1.66l2.36,1.66h13.72c0,0-0.23-2.25-9.46-2.6c-2.37-0.09-4.02-3.31-4.02-3.31
					s-1.18-1.06-2.95,1.42c-0.46,0.65-5.44-0.59-5.44-0.59S91.02,547.5,91.84,549.27z"/>
				<linearGradient id="SVGID_90_" gradientUnits="userSpaceOnUse" x1="89.2774" y1="436.7603" x2="89.2774" y2="544.8995">
					<stop  offset="0" style="stop-color:#5C5E60"/>
					<stop  offset="1" style="stop-color:#9FA1A4"/>
				</linearGradient>
				<path class="st146" d="M98.72,409.35l0.65,61.5l-13.42,9.53c0,0-5.74-19.76-6.72-38.49C78.25,423.16,98.72,409.35,98.72,409.35z
					"/>
				<linearGradient id="SVGID_91_" gradientUnits="userSpaceOnUse" x1="68.0458" y1="436.7603" x2="68.0458" y2="544.8995">
					<stop  offset="0" style="stop-color:#5C5E60"/>
					<stop  offset="1" style="stop-color:#9FA1A4"/>
				</linearGradient>
				<path class="st147" d="M98.72,409.35l-28.6,67.43l-5.2,7.18l-20.05,59.44l-7.49-3.1c0,0,1.81-31.52,6.46-45.72
					c4.74-14.5,9.56-23.51,9.56-23.51l18.35-63.6L98.72,409.35z"/>
				<linearGradient id="SVGID_92_" gradientUnits="userSpaceOnUse" x1="91.8505" y1="436.7603" x2="91.8505" y2="544.8995">
					<stop  offset="0" style="stop-color:#5C5E60"/>
					<stop  offset="1" style="stop-color:#9FA1A4"/>
				</linearGradient>
				<path class="st148" d="M88.52,543.66c-2.35-12.07-3.96-35.38-4.13-43.14c-0.33-14.36,0.68-24.68,0.68-24.68l14.3-4.99
					l0.01,71.01L88.52,543.66z"/>
				<path class="st100" d="M45.46,551.34h-3.68l-1.16-1.16l-0.5-2.85l-1.17,1.17l-3.84-3.85c0.67-1.84,3.34-3.85,3.34-3.85
					s2.65,4.39,3.43,4.27c3.01-0.5,3.09,1.09,3.09,1.09S43.86,549.6,45.46,551.34z"/>
				<path class="st100" d="M41.64,547.18c0.71,0.79,1.69,1.58,2.84,1.62c9.23,0.35,9.46,2.6,9.46,2.6h-12.3V547.18z"/>
			</g>
		</g>
		<path class="st108" d="M0,434.19l28.72-57.32c0,0,24.11,0,32.35-0.83c23.11-2.32,51.45-16.67,51.45-16.67l-22.7,61.82
			c0,0-45.23,10.38-56.25,10.31C15.54,431.38,0,434.19,0,434.19z"/>
		<linearGradient id="SVGID_93_" gradientUnits="userSpaceOnUse" x1="27.2101" y1="370.6562" x2="72.9181" y2="370.6562">
			<stop  offset="0" style="stop-color:#5C5E60"/>
			<stop  offset="1" style="stop-color:#9FA1A4"/>
		</linearGradient>
		<path class="st149" d="M60.69,368.15l-16.9,25.91l-2.28,0.32l0.65,2.18l-12.24-0.94L27.21,385l23.73-34.96
			c0,0,7.39-6.72,19.5-4.99C79.21,346.29,61.99,365.96,60.69,368.15z"/>
		<path class="st97" d="M41.51,395.61l12.55,34.88c0,0-2.73,0.83-4.32-0.58c-4.3-3.83-11.79-14.23-14.41-19.94
			c-3.58-7.8-5.53-16.23-5.53-16.23L41.51,395.61z"/>
		<polygon class="st97" points="50.37,430.37 59.88,433.9 60.8,426.97 58.81,427.74 56.45,425.84 52.82,429.11 		"/>
	</g>
</g>
</svg>
