<?xml version="1.0" encoding="utf-8"?>
<!-- Generator: Adobe Illustrator 25.2.1, SVG Export Plug-In . SVG Version: 6.00 Build 0)  -->
<svg version="1.1" id="Ñëîé_1" xmlns="http://www.w3.org/2000/svg" width="400" xmlns:xlink="http://www.w3.org/1999/xlink" x="0px" y="0px"
	 viewBox="0 0 2349.15 1299.09" style="enable-background:new 0 0 2349.15 1299.09;" xml:space="preserve">
<style type="text/css">
	.st0{fill:url(#SVGID_1_);}
	.st1{fill:url(#SVGID_2_);}
	.st2{fill:#FFFFFF;}
	.st3{fill:url(#SVGID_3_);}
	.st4{fill:#58595B;}
	.st5{fill:url(#SVGID_4_);}
	.st6{fill:url(#SVGID_5_);}
	.st7{fill:url(#SVGID_6_);}
	.st8{fill:#C0C4FB;}
	.st9{fill:url(#SVGID_7_);}
	.st10{fill:url(#SVGID_8_);}
	.st11{fill:url(#SVGID_9_);}
	.st12{fill:#CCCECF;}
	.st13{fill:url(#SVGID_10_);}
	.st14{opacity:0.2;fill:#231F20;}
	.st15{fill:url(#SVGID_11_);}
	.st16{fill:#626366;}
	.st17{fill:#E6E7E8;}
	.st18{fill:url(#SVGID_12_);}
	.st19{fill:url(#SVGID_13_);}
	.st20{fill:url(#SVGID_14_);}
	.st21{fill:url(#SVGID_15_);}
	.st22{fill:url(#SVGID_16_);}
	.st23{fill:url(#SVGID_17_);}
	.st24{fill:url(#SVGID_18_);}
	.st25{fill:url(#SVGID_19_);}
	.st26{fill:#F0F1FE;}
	.st27{fill:url(#SVGID_20_);}
	.st28{fill:url(#SVGID_21_);}
	.st29{fill:#FFD6D6;}
	.st30{fill:url(#SVGID_22_);}
	.st31{fill:url(#SVGID_23_);}
	.st32{fill:#450606;}
	.st33{fill:#616366;}
	.st34{fill:#EDEDEE;}
	.st35{fill:url(#SVGID_24_);}
	.st36{fill:url(#SVGID_25_);}
	.st37{fill:url(#SVGID_26_);}
	.st38{fill:url(#SVGID_27_);}
	.st39{fill:#223265;}
	.st40{fill:url(#SVGID_28_);}
	.st41{fill:url(#SVGID_29_);}
	.st42{fill:url(#SVGID_30_);}
	.st43{fill:url(#SVGID_31_);}
	.st44{fill:url(#SVGID_32_);}
	.st45{fill:#814D4D;}
	.st46{fill:url(#SVGID_33_);}
	.st47{fill:url(#SVGID_34_);}
	.st48{fill:url(#SVGID_35_);}
	.st49{fill:url(#SVGID_36_);}
	.st50{fill:url(#SVGID_37_);}
	.st51{fill:url(#SVGID_38_);}
	.st52{fill:url(#SVGID_39_);}
	.st53{fill:url(#SVGID_40_);}
	.st54{fill:url(#SVGID_41_);}
	.st55{fill:url(#SVGID_42_);}
	.st56{fill:url(#SVGID_43_);}
	.st57{fill:url(#SVGID_44_);}
	.st58{fill:url(#SVGID_45_);}
	.st59{fill:url(#SVGID_46_);}
	.st60{fill:url(#SVGID_47_);}
	.st61{fill:url(#SVGID_48_);}
	.st62{fill:url(#SVGID_49_);}
	.st63{fill:url(#SVGID_50_);}
	.st64{fill:url(#SVGID_51_);}
	.st65{fill:url(#SVGID_52_);}
	.st66{opacity:0.12;fill:#E3A5B4;}
	.st67{opacity:0.31;fill:#FFFFFF;}
	.st68{fill:url(#SVGID_53_);}
	.st69{fill:url(#SVGID_54_);}
	.st70{fill:url(#SVGID_55_);}
	.st71{fill:url(#SVGID_56_);}
	.st72{fill:url(#SVGID_57_);}
	.st73{fill:url(#SVGID_58_);}
</style>
<g>
	<g>
		<g>
			<g>
				<linearGradient id="SVGID_1_" gradientUnits="userSpaceOnUse" x1="1517.2231" y1="804.8661" x2="1739.5605" y2="804.8661">
					<stop  offset="0" style="stop-color:#8647E1"/>
					<stop  offset="1" style="stop-color:#B78FED"/>
				</linearGradient>
				<rect x="1517.22" y="340.04" class="st0" width="222.34" height="929.65"/>
				<linearGradient id="SVGID_2_" gradientUnits="userSpaceOnUse" x1="1628.373" y1="804.8661" x2="1739.5605" y2="804.8661">
					<stop  offset="0" style="stop-color:#8647E1"/>
					<stop  offset="1" style="stop-color:#B78FED"/>
				</linearGradient>
				<rect x="1628.37" y="340.04" class="st1" width="111.19" height="929.65"/>
			</g>
			<rect x="1550.27" y="424.06" class="st2" width="156.24" height="531.79"/>
			<linearGradient id="SVGID_3_" gradientUnits="userSpaceOnUse" x1="1550.2666" y1="468.059" x2="1706.5052" y2="468.059">
				<stop  offset="0" style="stop-color:#8647E1"/>
				<stop  offset="1" style="stop-color:#B78FED"/>
			</linearGradient>
			<rect x="1550.27" y="464.78" class="st3" width="156.24" height="6.56"/>
			<path class="st2" d="M1678.59,1141.01c0,27.7-22.47,50.2-50.21,50.2c-27.74,0-50.22-22.51-50.22-50.2
				c0-27.77,22.48-50.25,50.22-50.25C1656.12,1090.76,1678.59,1113.24,1678.59,1141.01z"/>
			<path class="st4" d="M1671.72,1141.01c0,23.89-19.39,43.29-43.34,43.29c-23.91,0-43.3-19.4-43.3-43.29
				c0-23.97,19.39-43.34,43.3-43.34C1652.33,1097.67,1671.72,1117.05,1671.72,1141.01z"/>
		</g>
		<g>
			<g>
				<linearGradient id="SVGID_4_" gradientUnits="userSpaceOnUse" x1="1739.5605" y1="804.8661" x2="1961.8708" y2="804.8661">
					<stop  offset="0" style="stop-color:#8647E1"/>
					<stop  offset="1" style="stop-color:#B78FED"/>
				</linearGradient>
				<rect x="1739.56" y="340.04" class="st5" width="222.31" height="929.65"/>
				<linearGradient id="SVGID_5_" gradientUnits="userSpaceOnUse" x1="1850.7222" y1="804.8661" x2="1961.8708" y2="804.8661">
					<stop  offset="0" style="stop-color:#8647E1"/>
					<stop  offset="1" style="stop-color:#B78FED"/>
				</linearGradient>
				<rect x="1850.72" y="340.04" class="st6" width="111.15" height="929.65"/>
			</g>
			<rect x="1772.6" y="424.06" class="st2" width="156.23" height="531.79"/>
			<linearGradient id="SVGID_6_" gradientUnits="userSpaceOnUse" x1="1772.6024" y1="468.059" x2="1928.8287" y2="468.059">
				<stop  offset="0" style="stop-color:#8647E1"/>
				<stop  offset="1" style="stop-color:#B78FED"/>
			</linearGradient>
			<rect x="1772.6" y="464.78" class="st7" width="156.23" height="6.56"/>
			<path class="st2" d="M1900.95,1141.01c0,27.7-22.49,50.2-50.23,50.2c-27.73,0-50.23-22.51-50.23-50.2
				c0-27.77,22.49-50.25,50.23-50.25C1878.46,1090.76,1900.95,1113.24,1900.95,1141.01z"/>
			<path class="st8" d="M1894.05,1141.01c0,23.89-19.4,43.29-43.33,43.29c-23.93,0-43.34-19.4-43.34-43.29
				c0-23.97,19.42-43.34,43.34-43.34C1874.65,1097.67,1894.05,1117.05,1894.05,1141.01z"/>
		</g>
		<g>
			<g>
				<linearGradient id="SVGID_7_" gradientUnits="userSpaceOnUse" x1="1961.8708" y1="792.4105" x2="2349.1458" y2="792.4105">
					<stop  offset="0" style="stop-color:#8647E1"/>
					<stop  offset="1" style="stop-color:#B78FED"/>
				</linearGradient>
				<polygon class="st9" points="2349.15,1229.36 2130.47,1269.69 1961.87,355.46 2180.55,315.13 				"/>
				<linearGradient id="SVGID_8_" gradientUnits="userSpaceOnUse" x1="2071.2158" y1="782.3279" x2="2349.1458" y2="782.3279">
					<stop  offset="0" style="stop-color:#8647E1"/>
					<stop  offset="1" style="stop-color:#B78FED"/>
				</linearGradient>
				<polygon class="st10" points="2349.15,1229.36 2239.81,1249.52 2071.22,335.29 2180.55,315.13 				"/>
			</g>
			
				<rect x="2056.54" y="413.51" transform="matrix(0.9834 -0.1814 0.1814 0.9834 -87.8158 398.4062)" class="st2" width="156.27" height="531.79"/>
			<linearGradient id="SVGID_9_" gradientUnits="userSpaceOnUse" x1="2016.9999" y1="461.1876" x2="2171.8633" y2="461.1876">
				<stop  offset="0" style="stop-color:#8647E1"/>
				<stop  offset="1" style="stop-color:#B78FED"/>
			</linearGradient>
			<polygon class="st11" points="2171.86,450.24 2018.19,478.58 2017,472.13 2170.67,443.79 			"/>
			<path class="st2" d="M2265.87,1113.87c5.02,27.24-13.02,53.45-40.29,58.48c-27.28,5.03-53.46-13.03-58.49-40.26
				c-5.04-27.31,12.99-53.5,40.27-58.53C2234.64,1068.53,2260.84,1086.56,2265.87,1113.87z"/>
			<path class="st8" d="M2259.1,1115.12c4.33,23.49-11.26,46.1-34.77,50.43c-23.54,4.34-46.14-11.22-50.48-34.71
				c-4.35-23.57,11.22-46.14,34.76-50.49C2232.14,1076.02,2254.76,1091.55,2259.1,1115.12z"/>
		</g>
	</g>
	<rect x="656.08" y="1025.08" class="st12" width="224.54" height="232.32"/>
	<linearGradient id="SVGID_10_" gradientUnits="userSpaceOnUse" x1="421.3248" y1="1251.0021" x2="1115.3818" y2="1251.0021">
		<stop  offset="0" style="stop-color:#5C5E60"/>
		<stop  offset="1" style="stop-color:#9FA1A4"/>
	</linearGradient>
	<rect x="421.32" y="1232.32" class="st13" width="694.06" height="37.37"/>
	<rect x="656.08" y="1025.08" class="st14" width="224.54" height="29.89"/>
	<linearGradient id="SVGID_11_" gradientUnits="userSpaceOnUse" x1="0" y1="512.5391" x2="1536.7064" y2="512.5391">
		<stop  offset="0" style="stop-color:#5C5E60"/>
		<stop  offset="1" style="stop-color:#9FA1A4"/>
	</linearGradient>
	<path class="st15" d="M1536.71,985.97c0,21.6-17.51,39.11-39.11,39.11H39.11c-21.59,0-39.11-17.5-39.11-39.11V39.11
		C0,17.51,17.51,0,39.11,0H1497.6c21.6,0,39.11,17.51,39.11,39.11V985.97z"/>
	<g>
		<path class="st16" d="M1328.86,969.89c0,9.24-7.48,16.72-16.72,16.72c-9.24,0-16.72-7.48-16.72-16.72
			c0-9.23,7.48-16.72,16.72-16.72C1321.38,953.17,1328.86,960.65,1328.86,969.89z"/>
		<path class="st16" d="M1384.43,969.89c0,9.24-7.48,16.72-16.72,16.72c-9.24,0-16.72-7.48-16.72-16.72
			c0-9.23,7.48-16.72,16.72-16.72C1376.95,953.17,1384.43,960.65,1384.43,969.89z"/>
		<ellipse class="st16" cx="1423.28" cy="969.89" rx="16.72" ry="16.72"/>
	</g>
	<g>
		<rect x="40.47" y="27.08" class="st2" width="1455.78" height="890.91"/>
		<rect x="40.47" y="27.08" class="st17" width="1455.78" height="128.54"/>
	</g>
	<rect x="126.42" y="86.69" class="st2" width="1215.23" height="31.7"/>
	<g>
		<linearGradient id="SVGID_12_" gradientUnits="userSpaceOnUse" x1="1330.9016" y1="57.4831" x2="1357.5839" y2="57.4831">
			<stop  offset="0" style="stop-color:#8647E1"/>
			<stop  offset="1" style="stop-color:#B78FED"/>
		</linearGradient>
		<path class="st18" d="M1357.58,57.49c0,6.97-5.97,12.62-13.34,12.62c-7.37,0-13.34-5.65-13.34-12.62
			c0-6.97,5.97-12.63,13.34-12.63C1351.61,44.86,1357.58,50.51,1357.58,57.49z"/>
		<linearGradient id="SVGID_13_" gradientUnits="userSpaceOnUse" x1="1378.8422" y1="57.4831" x2="1405.5201" y2="57.4831">
			<stop  offset="0" style="stop-color:#8647E1"/>
			<stop  offset="1" style="stop-color:#B78FED"/>
		</linearGradient>
		<path class="st19" d="M1405.52,57.49c0,6.97-5.97,12.62-13.34,12.62c-7.37,0-13.34-5.65-13.34-12.62
			c0-6.97,5.97-12.63,13.34-12.63C1399.55,44.86,1405.52,50.51,1405.52,57.49z"/>
		<linearGradient id="SVGID_14_" gradientUnits="userSpaceOnUse" x1="1426.7784" y1="57.4831" x2="1453.4607" y2="57.4831">
			<stop  offset="0" style="stop-color:#8647E1"/>
			<stop  offset="1" style="stop-color:#B78FED"/>
		</linearGradient>
		<path class="st20" d="M1453.46,57.49c0,6.97-5.97,12.62-13.34,12.62s-13.34-5.65-13.34-12.62c0-6.97,5.98-12.63,13.34-12.63
			S1453.46,50.51,1453.46,57.49z"/>
	</g>
	<path class="st2" d="M95.44,108.37c2.02-2.45,3.29-5.55,3.29-8.96c0-7.82-6.37-14.18-14.19-14.18c-7.82,0-14.18,6.36-14.18,14.18
		c0,7.82,6.36,14.18,14.18,14.18c3.41,0,6.51-1.26,8.96-3.27l9.16,9.15c0.27,0.27,0.62,0.41,0.98,0.41c0.35,0,0.7-0.13,0.97-0.41
		c0.54-0.54,0.54-1.41,0-1.94L95.44,108.37z M84.55,110.84c-6.3,0-11.43-5.13-11.43-11.43c0-6.3,5.13-11.43,11.43-11.43
		c6.3,0,11.43,5.13,11.43,11.43C95.98,105.71,90.85,110.84,84.55,110.84z"/>
	<rect x="1372.31" y="86.7" class="st2" width="30.67" height="30.67"/>
	<rect x="1422.24" y="87.21" class="st2" width="30.67" height="30.67"/>
	<linearGradient id="SVGID_15_" gradientUnits="userSpaceOnUse" x1="204.3755" y1="213.8258" x2="327.7246" y2="213.8258">
		<stop  offset="0" style="stop-color:#8647E1"/>
		<stop  offset="1" style="stop-color:#B78FED"/>
	</linearGradient>
	<rect x="204.38" y="208.18" class="st21" width="123.35" height="11.29"/>
	<linearGradient id="SVGID_16_" gradientUnits="userSpaceOnUse" x1="361.6097" y1="213.8258" x2="544.9728" y2="213.8258">
		<stop  offset="0" style="stop-color:#8647E1"/>
		<stop  offset="1" style="stop-color:#B78FED"/>
	</linearGradient>
	<rect x="361.61" y="208.18" class="st22" width="183.36" height="11.29"/>
	<linearGradient id="SVGID_17_" gradientUnits="userSpaceOnUse" x1="836.0247" y1="213.8258" x2="912.5603" y2="213.8258">
		<stop  offset="0" style="stop-color:#8647E1"/>
		<stop  offset="1" style="stop-color:#B78FED"/>
	</linearGradient>
	<rect x="836.02" y="208.18" class="st23" width="76.54" height="11.29"/>
	<linearGradient id="SVGID_18_" gradientUnits="userSpaceOnUse" x1="1091.371" y1="213.8258" x2="1293.4034" y2="213.8258">
		<stop  offset="0" style="stop-color:#8647E1"/>
		<stop  offset="1" style="stop-color:#B78FED"/>
	</linearGradient>
	<rect x="1091.37" y="208.18" class="st24" width="202.03" height="11.29"/>
	<linearGradient id="SVGID_19_" gradientUnits="userSpaceOnUse" x1="948.8506" y1="213.8258" x2="1057.7939" y2="213.8258">
		<stop  offset="0" style="stop-color:#8647E1"/>
		<stop  offset="1" style="stop-color:#B78FED"/>
	</linearGradient>
	<rect x="948.85" y="208.18" class="st25" width="108.94" height="11.29"/>
	<rect x="801.51" y="267" class="st17" width="663.25" height="613.1"/>
	<g>
		<g>
			<path class="st8" d="M107.33,322.05l92.93-0.1c5.57-7.31,12.3-14.86,16.35-14.86l34.18-0.04c2.7,0,4.91,2.2,4.91,4.9l0.11,109.37
				c0,2.7-2.2,4.91-4.9,4.91l-143.48,0.15c-2.7,0-4.91-2.2-4.91-4.9l-0.1-94.52C102.43,324.27,104.63,322.06,107.33,322.05z"/>
			
				<rect x="108.64" y="328.62" transform="matrix(-1 1.046955e-03 -1.046955e-03 -1 358.1642 746.3446)" class="st2" width="140.5" height="89.28"/>
			<path class="st26" d="M256.49,332.71l-99.3-1c-6.03-6.68-13.36-13.59-17.72-13.64l-36.87-0.4c-2.91-0.03-5.2,1.95-5.09,4.4
				l4.51,99.46c0.11,2.45,2.41,4.47,5.11,4.48l143.49,0.64c2.7,0.01,5.04-1.96,5.2-4.39l5.62-85.08
				C261.6,334.75,259.37,332.73,256.49,332.71z"/>
		</g>
		<g>
			<path class="st8" d="M341.72,322.05l92.93-0.1c5.57-7.31,12.3-14.86,16.35-14.86l34.18-0.04c2.7,0,4.91,2.2,4.91,4.9l0.11,109.37
				c0,2.7-2.2,4.91-4.9,4.91l-143.48,0.15c-2.7,0-4.91-2.2-4.91-4.9l-0.1-94.52C336.82,324.27,339.02,322.06,341.72,322.05z"/>
			
				<rect x="343.02" y="328.62" transform="matrix(-1 1.046956e-03 -1.046956e-03 -1 826.9379 746.0992)" class="st2" width="140.5" height="89.28"/>
			<path class="st26" d="M490.87,332.71l-99.3-1c-6.03-6.68-13.36-13.59-17.72-13.64l-36.87-0.4c-2.91-0.03-5.2,1.95-5.09,4.4
				l4.51,99.46c0.11,2.45,2.41,4.47,5.11,4.48l143.49,0.64c2.7,0.01,5.04-1.96,5.2-4.39l5.62-85.08
				C495.98,334.75,493.76,332.73,490.87,332.71z"/>
		</g>
		<g>
			<path class="st8" d="M576.11,322.05l92.93-0.1c5.57-7.31,12.3-14.86,16.35-14.86l34.18-0.04c2.7,0,4.91,2.2,4.91,4.9l0.11,109.37
				c0,2.7-2.2,4.91-4.9,4.91l-143.48,0.15c-2.7,0-4.91-2.2-4.91-4.9l-0.1-94.52C571.2,324.27,573.41,322.06,576.11,322.05z"/>
			
				<rect x="577.41" y="328.62" transform="matrix(-1 1.046955e-03 -1.046955e-03 -1 1295.7118 745.8538)" class="st2" width="140.5" height="89.28"/>
			<path class="st26" d="M725.26,332.71l-99.3-1c-6.03-6.68-13.36-13.59-17.72-13.64l-36.87-0.4c-2.91-0.03-5.2,1.95-5.09,4.4
				l4.51,99.46c0.11,2.45,2.41,4.47,5.11,4.48l143.49,0.64c2.7,0.01,5.04-1.96,5.2-4.39l5.62-85.08
				C730.37,334.75,728.14,332.73,725.26,332.71z"/>
		</g>
	</g>
	<g>
		<g>
			<path class="st8" d="M107.33,525.86l92.93-0.1c5.57-7.31,12.3-14.86,16.35-14.86l34.18-0.04c2.7,0,4.91,2.2,4.91,4.9l0.11,109.37
				c0,2.7-2.2,4.91-4.9,4.91l-143.48,0.15c-2.7,0-4.91-2.2-4.91-4.9l-0.1-94.52C102.43,528.07,104.63,525.86,107.33,525.86z"/>
			
				<rect x="108.64" y="532.43" transform="matrix(-1 1.046955e-03 -1.046955e-03 -1 358.3776 1153.9545)" class="st2" width="140.5" height="89.28"/>
			<path class="st26" d="M256.49,536.51l-99.3-1c-6.03-6.68-13.36-13.59-17.72-13.64l-36.87-0.4c-2.91-0.03-5.2,1.95-5.09,4.4
				l4.51,99.46c0.11,2.45,2.41,4.47,5.11,4.48l143.49,0.64c2.7,0.01,5.04-1.96,5.2-4.39l5.62-85.08
				C261.6,538.55,259.37,536.54,256.49,536.51z"/>
		</g>
		<g>
			<path class="st8" d="M341.72,525.86l92.93-0.1c5.57-7.31,12.3-14.86,16.35-14.86l34.18-0.04c2.7,0,4.91,2.2,4.91,4.9l0.11,109.37
				c0,2.7-2.2,4.91-4.9,4.91l-143.48,0.15c-2.7,0-4.91-2.2-4.91-4.9l-0.1-94.52C336.82,528.07,339.02,525.86,341.72,525.86z"/>
			
				<rect x="343.02" y="532.43" transform="matrix(-1 1.046956e-03 -1.046956e-03 -1 827.1513 1153.7091)" class="st2" width="140.5" height="89.28"/>
			<path class="st26" d="M490.87,536.51l-99.3-1c-6.03-6.68-13.36-13.59-17.72-13.64l-36.87-0.4c-2.91-0.03-5.2,1.95-5.09,4.4
				l4.51,99.46c0.11,2.45,2.41,4.47,5.11,4.48l143.49,0.64c2.7,0.01,5.04-1.96,5.2-4.39l5.62-85.08
				C495.98,538.55,493.76,536.54,490.87,536.51z"/>
		</g>
		<g>
			<path class="st8" d="M576.11,525.86l92.93-0.1c5.57-7.31,12.3-14.86,16.35-14.86l34.18-0.04c2.7,0,4.91,2.2,4.91,4.9l0.11,109.37
				c0,2.7-2.2,4.91-4.9,4.91l-143.48,0.15c-2.7,0-4.91-2.2-4.91-4.9l-0.1-94.52C571.2,528.07,573.41,525.86,576.11,525.86z"/>
			
				<rect x="577.41" y="532.43" transform="matrix(-1 1.046955e-03 -1.046955e-03 -1 1295.9252 1153.4637)" class="st2" width="140.5" height="89.28"/>
			<path class="st26" d="M725.26,536.51l-99.3-1c-6.03-6.68-13.36-13.59-17.72-13.64l-36.87-0.4c-2.91-0.03-5.2,1.95-5.09,4.4
				l4.51,99.46c0.11,2.45,2.41,4.47,5.11,4.48l143.49,0.64c2.7,0.01,5.04-1.96,5.2-4.39l5.62-85.08
				C730.37,538.55,728.14,536.54,725.26,536.51z"/>
		</g>
	</g>
	<g>
		<g>
			<path class="st8" d="M107.33,729.66l92.93-0.1c5.57-7.31,12.3-14.86,16.35-14.86l34.18-0.04c2.7,0,4.91,2.2,4.91,4.9l0.11,109.37
				c0,2.7-2.2,4.91-4.9,4.91L107.44,834c-2.7,0-4.91-2.2-4.91-4.9l-0.1-94.52C102.43,731.88,104.63,729.67,107.33,729.66z"/>
			
				<rect x="108.64" y="736.23" transform="matrix(-1 1.046955e-03 -1.046955e-03 -1 358.591 1561.5642)" class="st2" width="140.5" height="89.28"/>
			<path class="st26" d="M256.49,740.32l-99.3-1c-6.03-6.68-13.36-13.59-17.72-13.64l-36.87-0.4c-2.91-0.03-5.2,1.95-5.09,4.4
				l4.51,99.46c0.11,2.45,2.41,4.47,5.11,4.48l143.49,0.64c2.7,0.01,5.04-1.96,5.2-4.39l5.62-85.08
				C261.6,742.36,259.37,740.34,256.49,740.32z"/>
		</g>
		<g>
			<path class="st8" d="M341.72,729.66l92.93-0.1c5.57-7.31,12.3-14.86,16.35-14.86l34.18-0.04c2.7,0,4.91,2.2,4.91,4.9l0.11,109.37
				c0,2.7-2.2,4.91-4.9,4.91L341.83,834c-2.7,0-4.91-2.2-4.91-4.9l-0.1-94.52C336.82,731.88,339.02,729.67,341.72,729.66z"/>
			
				<rect x="343.02" y="736.23" transform="matrix(-1 1.046956e-03 -1.046956e-03 -1 827.3647 1561.3188)" class="st2" width="140.5" height="89.28"/>
			<path class="st26" d="M490.87,740.32l-99.3-1c-6.03-6.68-13.36-13.59-17.72-13.64l-36.87-0.4c-2.91-0.03-5.2,1.95-5.09,4.4
				l4.51,99.46c0.11,2.45,2.41,4.47,5.11,4.48l143.49,0.64c2.7,0.01,5.04-1.96,5.2-4.39l5.62-85.08
				C495.98,742.36,493.76,740.34,490.87,740.32z"/>
		</g>
		<g>
			<path class="st8" d="M576.11,729.66l92.93-0.1c5.57-7.31,12.3-14.86,16.35-14.86l34.18-0.04c2.7,0,4.91,2.2,4.91,4.9l0.11,109.37
				c0,2.7-2.2,4.91-4.9,4.91L576.22,834c-2.7,0-4.91-2.2-4.91-4.9l-0.1-94.52C571.2,731.88,573.41,729.67,576.11,729.66z"/>
			
				<rect x="577.41" y="736.23" transform="matrix(-1 1.046955e-03 -1.046955e-03 -1 1296.1384 1561.0735)" class="st2" width="140.5" height="89.28"/>
			<path class="st26" d="M725.26,740.32l-99.3-1c-6.03-6.68-13.36-13.59-17.72-13.64l-36.87-0.4c-2.91-0.03-5.2,1.95-5.09,4.4
				l4.51,99.46c0.11,2.45,2.41,4.47,5.11,4.48l143.49,0.64c2.7,0.01,5.04-1.96,5.2-4.39l5.62-85.08
				C730.37,742.36,728.14,740.34,725.26,740.32z"/>
		</g>
	</g>
	<g>
		<circle class="st17" cx="152.61" cy="219.47" r="31.33"/>
		<linearGradient id="SVGID_20_" gradientUnits="userSpaceOnUse" x1="141.1842" y1="208.4824" x2="164.0306" y2="208.4824">
			<stop  offset="0" style="stop-color:#8647E1"/>
			<stop  offset="1" style="stop-color:#B78FED"/>
		</linearGradient>
		<path class="st27" d="M164.03,208.48c0,6.31-5.11,11.42-11.42,11.42c-6.31,0-11.42-5.11-11.42-11.42
			c0-6.31,5.11-11.42,11.42-11.42C158.92,197.06,164.03,202.17,164.03,208.48z"/>
		<linearGradient id="SVGID_21_" gradientUnits="userSpaceOnUse" x1="133.6839" y1="235.7173" x2="171.5309" y2="235.7173">
			<stop  offset="0" style="stop-color:#8647E1"/>
			<stop  offset="1" style="stop-color:#B78FED"/>
		</linearGradient>
		<path class="st28" d="M171.53,244.44c-1.28-4.67-2.55-9.34-3.83-14c-3.61-13.07-27.14-13.07-30.19,0c-1.28,4.67-2.55,9.34-3.83,14
			c5.26,3.99,11.81,6.36,18.92,6.36C159.72,250.8,166.27,248.43,171.53,244.44z"/>
	</g>
	<g>
		<rect x="135.78" y="444.77" class="st17" width="78.92" height="10.45"/>
		<rect x="373.03" y="444.77" class="st17" width="78.92" height="10.45"/>
		<rect x="609.28" y="444.77" class="st17" width="78.92" height="10.45"/>
	</g>
	<g>
		<rect x="135.78" y="649.19" class="st17" width="78.92" height="10.45"/>
		<rect x="373.03" y="649.19" class="st17" width="78.92" height="10.45"/>
		<rect x="609.28" y="649.19" class="st17" width="78.92" height="10.45"/>
	</g>
	<g>
		<rect x="135.78" y="853.6" class="st17" width="78.92" height="10.45"/>
		<rect x="373.03" y="853.6" class="st17" width="78.92" height="10.45"/>
		<rect x="609.28" y="853.6" class="st17" width="78.92" height="10.45"/>
	</g>
	<g>
		<path class="st29" d="M1796.88,913.28c-17.19,7.37-77.54,10.65-94.09,10.33c0,0-7.19-1.97-9.67-4.17
			c-1.18-1.05-3.32-1.25-7.56-1.42c-5.91-0.23-14.2,1.74-14.05,7.68c0.07,2.72,3.54,8.29,6.74,12.37
			c4.38,5.58,12.36,6.31,16.43,6.06c1.36-0.08,9.85-4.22,9.85-4.22c65.94,12.95,107.2,5.9,107.2,5.9S1833.07,904.35,1796.88,913.28z
			"/>
		<linearGradient id="SVGID_22_" gradientUnits="userSpaceOnUse" x1="1765.6165" y1="916.6385" x2="1895.6613" y2="916.6385">
			<stop  offset="0" style="stop-color:#5C5E60"/>
			<stop  offset="1" style="stop-color:#9FA1A4"/>
		</linearGradient>
		<path class="st30" d="M1864.65,885.91c0,0-33.2,15.99-52.91,21.75c-19.7,5.77-46.03,10.99-46.07,11.27
			c-0.81,6.96,7.29,24.93,9.73,28.19c4.93,6.56,77.13,3.76,108.14-22.3C1914.57,898.79,1877.75,874.84,1864.65,885.91z"/>
		<linearGradient id="SVGID_23_" gradientUnits="userSpaceOnUse" x1="1761.5211" y1="933.6078" x2="1783.8812" y2="933.6078">
			<stop  offset="0" style="stop-color:#5C5E60"/>
			<stop  offset="1" style="stop-color:#9FA1A4"/>
		</linearGradient>
		<path class="st31" d="M1774.37,916.02c0,0,5.9,30.11,8.2,32.18c2.3,2.07,1.65,5.26-2.56,3.44c-4.21-1.81-7.33,1.16-10.41-1.38
			c-3.08-2.54-8.57-26.47-8.04-30.35c0.52-3.89,6.44-1.4,6.44-1.4S1769.58,912.81,1774.37,916.02z"/>
		<polygon class="st29" points="1834.06,851.6 1856.08,862.18 1855.63,904.38 1816.13,873.12 		"/>
		<g>
			<path class="st29" d="M1753.16,853.4c0,0,13.28,12.57,16.85,13.65c3.57,1.08,4.41,2.83,7.14,5.94
				c2.73,3.12,10.57,7.58,15.8,10.88c5.91,3.72,26.09,11.23,36.01-1.8c7.75-10.17,9.54-19.52,9.81-23.75
				c0.27-4.23,0.37-7.11-6.71-16.21c-2.95-3.79-1.31-5.32-0.32-7.2c0.99-1.88-3.01-10.81-9.5-14.49c-7.32-4.14-4.16,6.68-4.16,6.68
				l-4.64-9.6c0,0-11.49-17.04-27.36-11.55C1779.47,808.27,1742.85,835.44,1753.16,853.4z"/>
			<path class="st29" d="M1825.29,827.66c1.27,1.91,1.71,3.84,0.99,4.33c-0.72,0.48-2.34-0.67-3.61-2.58
				c-1.27-1.91-1.71-3.84-0.99-4.33C1822.4,824.6,1824.02,825.75,1825.29,827.66z"/>
			<path class="st32" d="M1766.73,865.23c0,0-15.24-13.1-5.71-21.63c8.97-8.04,15.47-29.54,29.88-29.86
				c6.08-1.55,18.7,5.76,29,16.39c2.04-0.81-3.3-4.8-1.62-9.56c1.05-3.46-12.65-19.88-21.67-24.65c-8.31-4.39-14.65-1.03-14.39,1.94
				c0.15,1.61-4.8-3.54-4.8-3.54s-3.36,4.04-2.71,8.46c-1.19,1.98-7.47-5.54-7.47-5.54s-7.83,12.41-4.21,15.2
				c-0.9,2.45-5.3-3.5-5.75-5.7c-0.38-1.85-4.93,10.03-2.44,14.16c1.66,3.21-3.35-2.56-3.35-2.56s-3.57,4.56-2.44,10.05
				c0.28,1.39-3.28,0.92-5.29,7.45C1741.74,842.37,1744.42,855.32,1766.73,865.23z"/>
			<path class="st32" d="M1749.22,849.28c0,0-1.62-10.93,10.94-19.17c9.91-6.5,13.26-17.02,13.26-17.02s-11.66,12.64-18.08,14.6
				C1748.92,829.65,1743.5,843.83,1749.22,849.28z"/>
		</g>
		<g>
			<path class="st26" d="M1111.86,876.59l361.82,0.04c21.74-28.45,47.97-57.79,63.73-57.78l133.09,0.02c10.5,0,19.1,8.6,19.1,19.1
				l-0.05,425.82c0,10.51-8.6,19.1-19.1,19.1l-558.63-0.06c-10.51,0-19.1-8.59-19.1-19.1l0.04-368.03
				C1092.76,885.18,1101.36,876.59,1111.86,876.59z"/>
			
				<rect x="1110.11" y="894.35" transform="matrix(-1 -1.158957e-04 1.158957e-04 -1 2767.1353 2136.4824)" class="st2" width="547.04" height="347.63"/>
			<g>
				<rect x="1535.22" y="847.84" class="st33" width="59.61" height="9.93"/>
				<rect x="1608.3" y="847.84" class="st33" width="59.61" height="9.93"/>
			</g>
			
				<rect x="1116.71" y="902.49" transform="matrix(-1 -1.158957e-04 1.158957e-04 -1 2780.3296 2152.7742)" class="st34" width="547.04" height="347.63"/>
			<g>
				<g>
					<g>
						<g>
							<polygon class="st2" points="1670.97,910.42 1669.16,1275.73 1190.87,1274.63 1192.68,909.31 							"/>
							
								<linearGradient id="SVGID_24_" gradientUnits="userSpaceOnUse" x1="7069.2451" y1="-846.1432" x2="7069.2451" y2="-300.2545" gradientTransform="matrix(-3.600000e-03 1.0001 1.0001 3.600000e-03 1994.8892 -5792.498)">
								<stop  offset="0" style="stop-color:#A0C4E7"/>
								<stop  offset="1" style="stop-color:#67A1D7"/>
							</linearGradient>
							<rect x="1172.1" y="1255.81" class="st35" width="0" height="37.54"/>
							<linearGradient id="SVGID_25_" gradientUnits="userSpaceOnUse" x1="1123.3553" y1="1091.892" x2="1192.6825" y2="1091.892">
								<stop  offset="0" style="stop-color:#8647E1"/>
								<stop  offset="1" style="stop-color:#B78FED"/>
							</linearGradient>
							<polygon class="st36" points="1123.36,1245.69 1125.03,909.16 1192.68,909.31 1190.87,1274.63 1153.32,1274.54 							"/>
						</g>
						<polygon class="st2" points="1153.47,1245.76 1123.36,1245.69 1153.32,1274.54 						"/>
					</g>
					<g>
						<polygon class="st2" points="1169.55,1073.2 1170.1,963.04 1153.09,963 1152.54,1073.16 						"/>
						<polygon class="st2" points="1168.82,1220.79 1169.37,1110.64 1152.35,1110.6 1151.81,1220.75 						"/>
					</g>
				</g>
				<polygon class="st8" points="1252.96,1213.86 1254.18,967.16 1236.21,967.12 1234.98,1213.82 				"/>
				<polygon class="st8" points="1287.92,1196.5 1288.61,1057.4 1279.63,1057.38 1278.94,1196.48 				"/>
				<g>
					<g>
						<polygon class="st8" points="1314.14,1153.3 1314.61,1057.46 1305.63,1057.44 1305.15,1153.28 						"/>
						<polygon class="st8" points="1313.7,1241.36 1314.03,1174.98 1305.04,1174.96 1304.71,1241.34 						"/>
					</g>
				</g>
				<polygon class="st8" points="1342.81,1196.63 1343.5,1057.53 1334.52,1057.51 1333.83,1196.61 				"/>
				<g>
					<g>
						<polygon class="st8" points="1369.32,1095.43 1369.51,1057.59 1360.52,1057.57 1360.33,1095.41 						"/>
						<polygon class="st8" points="1369.03,1154.19 1369.21,1116.35 1360.23,1116.33 1360.04,1154.17 						"/>
						<polygon class="st8" points="1368.59,1241.49 1368.92,1175.11 1359.93,1175.09 1359.6,1241.47 						"/>
					</g>
				</g>
				<polygon class="st8" points="1425.01,1214.26 1426.23,967.56 1408.26,967.52 1407.03,1214.22 				"/>
				<g>
					<g>
						<polygon class="st8" points="1460.56,1079.38 1461.25,940.28 1452.26,940.26 1451.57,1079.36 						"/>
						<polygon class="st8" points="1459.77,1238.94 1460.46,1099.84 1451.47,1099.82 1450.78,1238.92 						"/>
						<polygon class="st8" points="1486.78,1036.18 1487.25,940.34 1478.26,940.32 1477.79,1036.16 						"/>
						<polygon class="st8" points="1486.19,1153.7 1486.67,1057.86 1477.68,1057.84 1477.2,1153.68 						"/>
						<polygon class="st8" points="1485.75,1241.76 1486.08,1175.38 1477.1,1175.36 1476.77,1241.74 						"/>
						<polygon class="st8" points="1515.45,1079.51 1516.14,940.41 1507.15,940.38 1506.46,1079.49 						"/>
						<polygon class="st8" points="1514.66,1239.07 1515.35,1099.96 1506.36,1099.94 1505.67,1239.05 						"/>
						<polygon class="st8" points="1541.67,1036.3 1542.14,940.47 1533.15,940.44 1532.68,1036.28 						"/>
						<polygon class="st8" points="1541.37,1095.83 1541.56,1057.99 1532.57,1057.97 1532.38,1095.81 						"/>
						<polygon class="st8" points="1541.08,1154.59 1541.27,1116.75 1532.28,1116.73 1532.09,1154.57 						"/>
						<polygon class="st8" points="1540.64,1241.89 1540.97,1175.51 1531.99,1175.49 1531.66,1241.87 						"/>
					</g>
				</g>
				<polygon class="st8" points="1606.81,1018.32 1607.2,940.62 1598.74,940.6 1598.36,1018.3 				"/>
				<polygon class="st8" points="1605.71,1240.29 1606.1,1162.58 1597.64,1162.56 1597.26,1240.27 				"/>
				<polygon class="st8" points="1369.66,1025.98 1370.09,940.07 1280.21,939.86 1279.78,1025.78 				"/>
			</g>
			<path class="st26" d="M1709.69,974.91l-413.86-0.05c-26.04-21.81-57.79-44.3-76.14-44.3l-154.95-0.02
				c-12.23,0-21.29,6.58-20.14,14.63l46.91,326.37c1.16,8.05,10.7,14.64,21.2,14.64l558.63,0.06c10.51,0,19.97-6.58,21.03-14.64
				l37.22-282.06C1730.66,981.5,1721.71,974.91,1709.69,974.91z"/>
		</g>
		<path class="st29" d="M2146.99,1218.86l32.06,16.7c0,0,6.29,3.55,6.44,11.06c0.08,3.79-7.35,7.67-9.81,9.74
			c-5.12,4.32-0.82-9.45-0.82-9.45l-34.19-14.98L2146.99,1218.86z"/>
		<linearGradient id="SVGID_26_" gradientUnits="userSpaceOnUse" x1="1951.5593" y1="1097.8102" x2="2170.0139" y2="1097.8102">
			<stop  offset="0" style="stop-color:#5C5E60"/>
			<stop  offset="1" style="stop-color:#9FA1A4"/>
		</linearGradient>
		<path class="st37" d="M1951.64,1022.64c-2.09-12.93,35.12-80.98,64.06-68.11c44.47,19.77,20,101.7,22,107.34
			c45.58,128.63,132.31,166.45,132.31,166.45s-11.53,14.56-12.29,14.38C2012.11,1202.45,1962.52,1088.41,1951.64,1022.64z"/>
		<path class="st29" d="M1909.82,1226.59l8.82,41.72c0,0,1.98,4.36-1.6,7.71c-6.26,5.85-22.26-1.37-25.86-2.1
			c-7.49-1.53,12.06-5.28,12.06-5.28l-12.78-42.52L1909.82,1226.59z"/>
		<linearGradient id="SVGID_27_" gradientUnits="userSpaceOnUse" x1="1837.5356" y1="1097.6373" x2="2032.0341" y2="1097.6373">
			<stop  offset="0" style="stop-color:#5C5E60"/>
			<stop  offset="1" style="stop-color:#9FA1A4"/>
		</linearGradient>
		<path class="st38" d="M2015.11,946.55c15.6,17.07,39.48,46.93-30.22,108.21c-1.85,1.62-52.37,35.74-95.7,72.47
			c16.57,36.11,12.07,62.44,29.6,122.5c-4.24,3.83-18.43,4.68-23.13,6.54c-21.6-32.2-36.45-76.08-54.62-122.81
			c-4.65-11.96-4.8-16.19,0.33-27.95c17.6-40.38,56.47-71.52,76.78-91.07c13.58-13.06,37.94-35.58,37.94-35.58
			S1989.2,918.19,2015.11,946.55z"/>
		<path class="st39" d="M1762.22,816.61c0.12,0.02,0.22,0.03,0.22,0.03S1762.35,816.64,1762.22,816.61z"/>
		<linearGradient id="SVGID_28_" gradientUnits="userSpaceOnUse" x1="1834.8936" y1="926.7785" x2="2022.2273" y2="926.7785">
			<stop  offset="0" style="stop-color:#5C5E60"/>
			<stop  offset="1" style="stop-color:#9FA1A4"/>
		</linearGradient>
		<path class="st40" d="M1855.95,855.42c0,0,27.99-5.38,71.23,13.14c31.54,13.52,111.05,80.31,92.19,92.46
			c-35.75,23.03-61.58,37.94-85.82,37.85c-6.42-0.02-17.07-5.12-50.58-29.16c-32.63-23.41-35.32-39.73-48.09-71.54
			C1837.41,899.09,1848.42,893.41,1855.95,855.42z"/>
		<linearGradient id="SVGID_29_" gradientUnits="userSpaceOnUse" x1="1835.1729" y1="880.2434" x2="1864.5439" y2="880.2434">
			<stop  offset="0" style="stop-color:#5C5E60"/>
			<stop  offset="1" style="stop-color:#9FA1A4"/>
		</linearGradient>
		<path class="st41" d="M1852.46,854.68c-0.65,1.38,1.06,29.31-17.28,43.37c-0.29,1.62,13.99,8.21,13.99,8.21
			s19.12-24.32,14.72-51.83C1863.76,853.84,1852.46,854.68,1852.46,854.68z"/>
		<linearGradient id="SVGID_30_" gradientUnits="userSpaceOnUse" x1="1924.6377" y1="991.6378" x2="2048.7229" y2="960.6166">
			<stop  offset="0" style="stop-color:#5C5E60"/>
			<stop  offset="1" style="stop-color:#9FA1A4"/>
		</linearGradient>
		<path class="st42" d="M2022.34,954.89l4.75,7.28c0,0-54.06,37.86-93.54,36.7C1933.04,998.62,1987.82,985.13,2022.34,954.89z"/>
		<path class="st29" d="M1789.33,900.41c-17.94,7.3-80.37,9.74-97.46,9.14c0,0-7.38-2.14-9.89-4.43c-1.2-1.1-3.4-1.34-7.78-1.57
			c-6.1-0.33-14.71,1.57-14.7,7.68c0,2.79,3.46,8.58,6.68,12.83c4.39,5.81,12.62,6.67,16.82,6.49c1.41-0.06,10.28-4.19,10.28-4.19
			c67.83,14.34,110.62,7.74,110.62,7.74S1826.93,891.79,1789.33,900.41z"/>
		<linearGradient id="SVGID_31_" gradientUnits="userSpaceOnUse" x1="1752.0232" y1="904.3627" x2="1886.7739" y2="904.3627">
			<stop  offset="0" style="stop-color:#5C5E60"/>
			<stop  offset="1" style="stop-color:#9FA1A4"/>
		</linearGradient>
		<path class="st43" d="M1855.16,873.25c0,0-34.68,15.92-55.18,21.54c-20.5,5.62-47.83,10.58-47.87,10.87
			c-1,7.14,6.93,25.74,9.39,29.13c4.93,6.83,79.6,5.07,112.27-21.23C1906.43,887.26,1868.96,862.07,1855.16,873.25z"/>
		<linearGradient id="SVGID_32_" gradientUnits="userSpaceOnUse" x1="1747.7736" y1="920.9185" x2="1770.1642" y2="920.9185">
			<stop  offset="0" style="stop-color:#5C5E60"/>
			<stop  offset="1" style="stop-color:#9FA1A4"/>
		</linearGradient>
		<path class="st44" d="M1761.17,902.8c0,0,5.37,31.05,7.7,33.21c2.33,2.17,1.58,5.43-2.73,3.5c-4.3-1.93-7.6,1.08-10.72-1.58
			c-3.13-2.66-8.22-27.34-7.59-31.33c0.63-3.98,6.69-1.34,6.69-1.34S1756.29,899.42,1761.17,902.8z"/>
		<g>
			<path class="st45" d="M1898.16,1257.96c0,0-19.62,16.38-26.22,16.46c-4.16,0.8-15.5-0.84-12.27,7.47
				c3.17,2.96,30.97,0.78,36.53,0.72c2.77-1.16,24.66-1.49,24.66-1.49s5.68-5.25-3.21-20.53
				C1913.16,1263.26,1901.69,1262.04,1898.16,1257.96z"/>
			<path class="st2" d="M1923.07,1276.43c0,0,0.38,6.25-1.29,6.69c-1.67,0.44-10.19-0.18-22.33,1.09
				c-14.29,1.5-35.35,4.37-40.87-1.52c-0.91-1.94,0.82-5.97,1.42-5.93c0.61,0.04,8.4,4.31,21.31,3.34
				C1896.88,1278.94,1923.07,1276.43,1923.07,1276.43z"/>
			<path class="st2" d="M1894.27,1259.82l5.45,5.17c0.31,0.29,0.22,0.89-0.2,1.34s-1.01,0.57-1.32,0.28l-5.45-5.17
				c-0.31-0.29-0.22-0.89,0.2-1.33l0,0C1893.37,1259.65,1893.97,1259.52,1894.27,1259.82z"/>
			<path class="st2" d="M1889.26,1263.57l5.45,5.17c0.31,0.29,0.22,0.89-0.2,1.34c-0.42,0.44-1.01,0.57-1.32,0.28l-5.45-5.17
				c-0.31-0.29-0.22-0.89,0.2-1.34l0,0C1888.36,1263.41,1888.95,1263.28,1889.26,1263.57z"/>
			<path class="st2" d="M1884.69,1267.72l5.01,4.75c0.28,0.27,0.17,0.85-0.24,1.29c-0.42,0.44-0.99,0.59-1.27,0.32l-5.01-4.75
				c-0.28-0.27-0.17-0.85,0.24-1.29l0,0C1883.83,1267.6,1884.41,1267.46,1884.69,1267.72z"/>
		</g>
		<g>
			<path class="st45" d="M2160.64,1242.7c0,0-5.99,24.84-11.25,28.84c-2.87,3.12-12.95,8.56-5.4,13.31
				c4.3,0.49,25.34-17.82,29.77-21.19c1.53-2.58,18.91-15.89,18.91-15.89s1.43-7.6-14.81-14.58
				C2175.84,1238.02,2165.9,1243.88,2160.64,1242.7z"/>
			<path class="st2" d="M2191.65,1242.7c0,0,4.03,4.79,2.95,6.14c-1.08,1.35-8.29,5.93-17.28,14.18
				c-10.58,9.71-25.79,24.58-33.73,23.13c-1.89-1.02-2.9-5.28-2.39-5.61c0.51-0.33,9.31-1.54,19.1-10.01
				C2172.11,1260.32,2191.65,1242.7,2191.65,1242.7z"/>
			<path class="st2" d="M2158.63,1246.51l7.46,0.9c0.42,0.05,0.71,0.59,0.64,1.19c-0.07,0.6-0.47,1.06-0.89,1.01l-7.46-0.9
				c-0.42-0.05-0.71-0.59-0.64-1.19l0,0C2157.8,1246.91,2158.21,1246.46,2158.63,1246.51z"/>
			<path class="st2" d="M2156.84,1252.52l7.46,0.9c0.42,0.05,0.71,0.59,0.64,1.19c-0.07,0.6-0.47,1.06-0.89,1.01l-7.46-0.9
				c-0.42-0.05-0.71-0.59-0.64-1.19v0C2156.01,1252.92,2156.42,1252.47,2156.84,1252.52z"/>
			<path class="st2" d="M2155.64,1258.57l6.85,0.83c0.39,0.05,0.65,0.58,0.58,1.18s-0.44,1.06-0.83,1.01l-6.85-0.83
				c-0.39-0.05-0.65-0.58-0.57-1.18v0C2154.88,1258.98,2155.25,1258.53,2155.64,1258.57z"/>
		</g>
	</g>
	<g>
		<g>
			<g>
				<g>
					<g>
						<g>
							<g>
								<polygon class="st2" points="884.8,448.22 983.41,447.73 983.11,318.62 884.5,319.11 								"/>
								
									<linearGradient id="SVGID_33_" gradientUnits="userSpaceOnUse" x1="7379.3159" y1="-2264.0898" x2="7379.3159" y2="-2116.7263" gradientTransform="matrix(1.0001 -3.600000e-03 3.600000e-03 1.0001 -6388.8477 2591.2388)">
									<stop  offset="0" style="stop-color:#A0C4E7"/>
									<stop  offset="1" style="stop-color:#67A1D7"/>
								</linearGradient>
								<rect x="983.1" y="308.49" class="st46" width="0" height="10.14"/>
								<linearGradient id="SVGID_34_" gradientUnits="userSpaceOnUse" x1="884.4558" y1="309.7531" x2="983.1149" y2="309.7531">
									<stop  offset="0" style="stop-color:#8647E1"/>
									<stop  offset="1" style="stop-color:#B78FED"/>
								</linearGradient>
								<polygon class="st47" points="975.3,300.4 884.46,300.85 884.5,319.11 983.11,318.62 983.09,308.49 								"/>
							</g>
							<polygon class="st2" points="975.32,308.52 975.3,300.4 983.09,308.49 							"/>
						</g>
						<g>
							<polygon class="st2" points="928.74,312.87 899,313.01 898.99,308.42 928.73,308.27 							"/>
							<polygon class="st2" points="968.58,312.67 938.85,312.82 938.83,308.22 968.57,308.08 							"/>
						</g>
					</g>
					<polygon class="st8" points="966.71,335.38 900.11,335.71 900.1,330.86 966.7,330.53 					"/>
					<polygon class="st8" points="962.03,344.82 924.47,345.01 924.47,342.58 962.02,342.39 					"/>
					<g>
						<g>
							<polygon class="st8" points="950.36,351.9 924.49,352.03 924.49,349.6 950.36,349.47 							"/>
							<polygon class="st8" points="974.14,351.78 956.22,351.87 956.21,349.44 974.13,349.35 							"/>
						</g>
					</g>
					<polygon class="st8" points="962.06,359.64 924.51,359.83 924.5,357.4 962.05,357.21 					"/>
					<g>
						<g>
							<polygon class="st8" points="934.74,366.79 924.52,366.84 924.52,364.42 934.74,364.37 							"/>
							<polygon class="st8" points="950.6,366.71 940.39,366.77 940.38,364.34 950.6,364.29 							"/>
							<polygon class="st8" points="974.17,366.6 956.25,366.69 956.24,364.26 974.16,364.17 							"/>
						</g>
					</g>
					<polygon class="st8" points="966.82,381.83 900.22,382.16 900.21,377.31 966.81,376.97 					"/>
					<g>
						<g>
							<polygon class="st8" points="930.41,391.42 892.86,391.61 892.85,389.18 930.4,389 							"/>
							<polygon class="st8" points="973.48,391.21 935.93,391.4 935.92,388.97 973.48,388.78 							"/>
							<polygon class="st8" points="918.74,398.5 892.87,398.63 892.87,396.2 918.74,396.08 							"/>
							<polygon class="st8" points="950.47,398.34 924.6,398.47 924.59,396.05 950.46,395.92 							"/>
							<polygon class="st8" points="974.24,398.23 956.32,398.31 956.32,395.89 974.24,395.8 							"/>
							<polygon class="st8" points="930.44,406.24 892.89,406.43 892.89,404 930.44,403.82 							"/>
							<polygon class="st8" points="973.52,406.03 935.96,406.21 935.96,403.79 973.51,403.6 							"/>
							<polygon class="st8" points="918.78,413.32 892.91,413.45 892.9,411.02 918.77,410.89 							"/>
							<polygon class="st8" points="934.85,413.24 924.63,413.29 924.63,410.86 934.84,410.81 							"/>
							<polygon class="st8" points="950.71,413.16 940.49,413.21 940.49,410.78 950.71,410.73 							"/>
							<polygon class="st8" points="974.28,413.04 956.36,413.13 956.35,410.71 974.27,410.62 							"/>
						</g>
					</g>
					<polygon class="st8" points="913.93,430.91 892.95,431.01 892.94,428.73 913.92,428.62 					"/>
					<polygon class="st8" points="973.84,430.61 952.87,430.71 952.86,428.43 973.84,428.33 					"/>
					<polygon class="st8" points="915.99,366.89 892.8,367 892.74,342.74 915.94,342.62 					"/>
				</g>
				<rect x="914.12" y="460.58" class="st8" width="39.63" height="6.64"/>
			</g>
		</g>
	</g>
	<g>
		<g>
			<g>
				<g>
					<g>
						<g>
							<g>
								<polygon class="st2" points="1089.04,448.22 1187.66,447.73 1187.36,318.62 1088.74,319.11 								"/>
								
									<linearGradient id="SVGID_35_" gradientUnits="userSpaceOnUse" x1="7583.5347" y1="-2263.3547" x2="7583.5347" y2="-2115.9912" gradientTransform="matrix(1.0001 -3.600000e-03 3.600000e-03 1.0001 -6388.8477 2591.2388)">
									<stop  offset="0" style="stop-color:#A0C4E7"/>
									<stop  offset="1" style="stop-color:#67A1D7"/>
								</linearGradient>
								<rect x="1187.34" y="308.49" class="st48" width="0" height="10.14"/>
								<linearGradient id="SVGID_36_" gradientUnits="userSpaceOnUse" x1="1088.6975" y1="309.7531" x2="1187.3566" y2="309.7531">
									<stop  offset="0" style="stop-color:#8647E1"/>
									<stop  offset="1" style="stop-color:#B78FED"/>
								</linearGradient>
								<polygon class="st49" points="1179.54,300.4 1088.7,300.85 1088.74,319.11 1187.36,318.62 1187.33,308.49 								"/>
							</g>
							<polygon class="st2" points="1179.56,308.52 1179.54,300.4 1187.33,308.49 							"/>
						</g>
						<g>
							<polygon class="st2" points="1132.98,312.87 1103.24,313.01 1103.23,308.42 1132.97,308.27 							"/>
							<polygon class="st2" points="1172.82,312.67 1143.09,312.82 1143.08,308.22 1172.81,308.08 							"/>
						</g>
					</g>
					<polygon class="st8" points="1170.95,335.38 1104.36,335.71 1104.34,330.86 1170.94,330.53 					"/>
					<polygon class="st8" points="1166.27,344.82 1128.72,345.01 1128.71,342.58 1166.26,342.39 					"/>
					<g>
						<g>
							<polygon class="st8" points="1154.6,351.9 1128.73,352.03 1128.73,349.6 1154.6,349.47 							"/>
							<polygon class="st8" points="1178.38,351.78 1160.46,351.87 1160.45,349.44 1178.37,349.35 							"/>
						</g>
					</g>
					<polygon class="st8" points="1166.3,359.64 1128.75,359.83 1128.74,357.4 1166.3,357.21 					"/>
					<g>
						<g>
							<polygon class="st8" points="1138.98,366.79 1128.77,366.84 1128.76,364.42 1138.98,364.37 							"/>
							<polygon class="st8" points="1154.85,366.71 1144.63,366.77 1144.62,364.34 1154.84,364.29 							"/>
							<polygon class="st8" points="1178.41,366.6 1160.49,366.69 1160.49,364.26 1178.41,364.17 							"/>
						</g>
					</g>
					<polygon class="st8" points="1171.06,381.83 1104.46,382.16 1104.45,377.31 1171.05,376.97 					"/>
					<g>
						<g>
							<polygon class="st8" points="1134.65,391.42 1097.1,391.61 1097.09,389.18 1134.64,389 							"/>
							<polygon class="st8" points="1177.72,391.21 1140.17,391.4 1140.17,388.97 1177.72,388.78 							"/>
							<polygon class="st8" points="1122.99,398.5 1097.11,398.63 1097.11,396.2 1122.98,396.08 							"/>
							<polygon class="st8" points="1154.71,398.34 1128.84,398.47 1128.83,396.05 1154.71,395.92 							"/>
							<polygon class="st8" points="1178.48,398.23 1160.57,398.31 1160.56,395.89 1178.48,395.8 							"/>
							<polygon class="st8" points="1134.68,406.24 1097.13,406.43 1097.13,404 1134.68,403.82 							"/>
							<polygon class="st8" points="1177.76,406.03 1140.21,406.21 1140.2,403.79 1177.75,403.6 							"/>
							<polygon class="st8" points="1123.02,413.32 1097.15,413.45 1097.14,411.02 1123.02,410.89 							"/>
							<polygon class="st8" points="1139.09,413.24 1128.87,413.29 1128.87,410.86 1139.08,410.81 							"/>
							<polygon class="st8" points="1154.95,413.16 1144.74,413.21 1144.73,410.78 1154.95,410.73 							"/>
							<polygon class="st8" points="1178.52,413.04 1160.6,413.13 1160.59,410.71 1178.51,410.62 							"/>
						</g>
					</g>
					<polygon class="st8" points="1118.17,430.91 1097.19,431.01 1097.18,428.73 1118.16,428.62 					"/>
					<polygon class="st8" points="1178.09,430.61 1157.11,430.71 1157.1,428.43 1178.08,428.33 					"/>
					<polygon class="st8" points="1120.23,366.89 1097.04,367 1096.99,342.74 1120.18,342.62 					"/>
				</g>
				<rect x="1118.36" y="460.58" class="st8" width="39.63" height="6.64"/>
			</g>
		</g>
	</g>
	<g>
		<g>
			<g>
				<g>
					<g>
						<g>
							<g>
								<polygon class="st2" points="1286.85,448.22 1385.46,447.73 1385.16,318.62 1286.55,319.11 								"/>
								
									<linearGradient id="SVGID_37_" gradientUnits="userSpaceOnUse" x1="7781.3208" y1="-2262.6428" x2="7781.3208" y2="-2115.2793" gradientTransform="matrix(1.0001 -3.600000e-03 3.600000e-03 1.0001 -6388.8477 2591.2388)">
									<stop  offset="0" style="stop-color:#A0C4E7"/>
									<stop  offset="1" style="stop-color:#67A1D7"/>
								</linearGradient>
								<rect x="1385.15" y="308.49" class="st50" width="0" height="10.14"/>
								<linearGradient id="SVGID_38_" gradientUnits="userSpaceOnUse" x1="1286.5057" y1="309.7531" x2="1385.1649" y2="309.7531">
									<stop  offset="0" style="stop-color:#8647E1"/>
									<stop  offset="1" style="stop-color:#B78FED"/>
								</linearGradient>
								<polygon class="st51" points="1377.35,300.4 1286.51,300.85 1286.55,319.11 1385.16,318.62 1385.14,308.49 								"/>
							</g>
							<polygon class="st2" points="1377.37,308.52 1377.35,300.4 1385.14,308.49 							"/>
						</g>
						<g>
							<polygon class="st2" points="1330.79,312.87 1301.05,313.01 1301.04,308.42 1330.78,308.27 							"/>
							<polygon class="st2" points="1370.63,312.67 1340.9,312.82 1340.88,308.22 1370.62,308.08 							"/>
						</g>
					</g>
					<polygon class="st8" points="1368.76,335.38 1302.16,335.71 1302.15,330.86 1368.75,330.53 					"/>
					<polygon class="st8" points="1364.08,344.82 1326.52,345.01 1326.52,342.58 1364.07,342.39 					"/>
					<g>
						<g>
							<polygon class="st8" points="1352.41,351.9 1326.54,352.03 1326.54,349.6 1352.41,349.47 							"/>
							<polygon class="st8" points="1376.19,351.78 1358.27,351.87 1358.26,349.44 1376.18,349.35 							"/>
						</g>
					</g>
					<polygon class="st8" points="1364.11,359.64 1326.56,359.83 1326.55,357.4 1364.1,357.21 					"/>
					<g>
						<g>
							<polygon class="st8" points="1336.79,366.79 1326.57,366.84 1326.57,364.42 1336.79,364.37 							"/>
							<polygon class="st8" points="1352.65,366.71 1342.44,366.77 1342.43,364.34 1352.65,364.29 							"/>
							<polygon class="st8" points="1376.22,366.6 1358.3,366.69 1358.29,364.26 1376.21,364.17 							"/>
						</g>
					</g>
					<polygon class="st8" points="1368.87,381.83 1302.27,382.16 1302.26,377.31 1368.86,376.97 					"/>
					<g>
						<g>
							<polygon class="st8" points="1332.46,391.42 1294.91,391.61 1294.9,389.18 1332.45,389 							"/>
							<polygon class="st8" points="1375.53,391.21 1337.98,391.4 1337.97,388.97 1375.53,388.78 							"/>
							<polygon class="st8" points="1320.79,398.5 1294.92,398.63 1294.92,396.2 1320.79,396.08 							"/>
							<polygon class="st8" points="1352.52,398.34 1326.65,398.47 1326.64,396.05 1352.51,395.92 							"/>
							<polygon class="st8" points="1376.29,398.23 1358.37,398.31 1358.37,395.89 1376.29,395.8 							"/>
							<polygon class="st8" points="1332.49,406.24 1294.94,406.43 1294.94,404 1332.49,403.82 							"/>
							<polygon class="st8" points="1375.57,406.03 1338.01,406.21 1338.01,403.79 1375.56,403.6 							"/>
							<polygon class="st8" points="1320.83,413.32 1294.96,413.45 1294.95,411.02 1320.82,410.89 							"/>
							<polygon class="st8" points="1336.9,413.24 1326.68,413.29 1326.68,410.86 1336.89,410.81 							"/>
							<polygon class="st8" points="1352.76,413.16 1342.55,413.21 1342.54,410.78 1352.76,410.73 							"/>
							<polygon class="st8" points="1376.33,413.04 1358.41,413.13 1358.4,410.71 1376.32,410.62 							"/>
						</g>
					</g>
					<polygon class="st8" points="1315.98,430.91 1295,431.01 1294.99,428.73 1315.97,428.62 					"/>
					<polygon class="st8" points="1375.9,430.61 1354.92,430.71 1354.91,428.43 1375.89,428.33 					"/>
					<polygon class="st8" points="1318.04,366.89 1294.85,367 1294.79,342.74 1317.99,342.62 					"/>
				</g>
				<rect x="1316.17" y="460.58" class="st8" width="39.63" height="6.64"/>
			</g>
		</g>
	</g>
	<g>
		<g>
			<g>
				<g>
					<g>
						<g>
							<g>
								<polygon class="st2" points="884.8,639.38 983.41,638.89 983.11,509.77 884.5,510.26 								"/>
								
									<linearGradient id="SVGID_39_" gradientUnits="userSpaceOnUse" x1="7378.6279" y1="-2072.9602" x2="7378.6279" y2="-1925.5967" gradientTransform="matrix(1.0001 -3.600000e-03 3.600000e-03 1.0001 -6388.8477 2591.2388)">
									<stop  offset="0" style="stop-color:#A0C4E7"/>
									<stop  offset="1" style="stop-color:#67A1D7"/>
								</linearGradient>
								<rect x="983.1" y="499.64" class="st52" width="0" height="10.14"/>
								<linearGradient id="SVGID_40_" gradientUnits="userSpaceOnUse" x1="884.4558" y1="500.9044" x2="983.1149" y2="500.9044">
									<stop  offset="0" style="stop-color:#8647E1"/>
									<stop  offset="1" style="stop-color:#B78FED"/>
								</linearGradient>
								<polygon class="st53" points="975.3,491.55 884.46,492 884.5,510.26 983.11,509.77 983.09,499.64 								"/>
							</g>
							<polygon class="st2" points="975.32,499.68 975.3,491.55 983.09,499.64 							"/>
						</g>
						<g>
							<polygon class="st2" points="928.74,504.02 899,504.17 898.99,499.57 928.73,499.43 							"/>
							<polygon class="st2" points="968.58,503.82 938.85,503.97 938.83,499.38 968.57,499.23 							"/>
						</g>
					</g>
					<polygon class="st8" points="966.71,526.53 900.11,526.86 900.1,522.01 966.7,521.68 					"/>
					<polygon class="st8" points="962.03,535.97 924.47,536.16 924.47,533.73 962.02,533.55 					"/>
					<g>
						<g>
							<polygon class="st8" points="950.36,543.05 924.49,543.18 924.49,540.75 950.36,540.62 							"/>
							<polygon class="st8" points="974.14,542.93 956.22,543.02 956.21,540.59 974.13,540.5 							"/>
						</g>
					</g>
					<polygon class="st8" points="962.06,550.79 924.51,550.98 924.5,548.55 962.05,548.36 					"/>
					<g>
						<g>
							<polygon class="st8" points="934.74,557.94 924.52,558 924.52,555.57 934.74,555.52 							"/>
							<polygon class="st8" points="950.6,557.87 940.39,557.92 940.38,555.49 950.6,555.44 							"/>
							<polygon class="st8" points="974.17,557.75 956.25,557.84 956.24,555.41 974.16,555.32 							"/>
						</g>
					</g>
					<polygon class="st8" points="966.82,572.98 900.22,573.31 900.21,568.46 966.81,568.13 					"/>
					<g>
						<g>
							<polygon class="st8" points="930.41,582.58 892.86,582.76 892.85,580.34 930.4,580.15 							"/>
							<polygon class="st8" points="973.48,582.36 935.93,582.55 935.92,580.12 973.48,579.94 							"/>
							<polygon class="st8" points="918.74,589.65 892.87,589.78 892.87,587.35 918.74,587.23 							"/>
							<polygon class="st8" points="950.47,589.49 924.6,589.62 924.59,587.2 950.46,587.07 							"/>
							<polygon class="st8" points="974.24,589.38 956.32,589.47 956.32,587.04 974.24,586.95 							"/>
							<polygon class="st8" points="930.44,597.39 892.89,597.58 892.89,595.15 930.44,594.97 							"/>
							<polygon class="st8" points="973.52,597.18 935.96,597.37 935.96,594.94 973.51,594.75 							"/>
							<polygon class="st8" points="918.78,604.47 892.91,604.6 892.9,602.17 918.77,602.04 							"/>
							<polygon class="st8" points="934.85,604.39 924.63,604.44 924.63,602.01 934.84,601.96 							"/>
							<polygon class="st8" points="950.71,604.31 940.49,604.36 940.49,601.94 950.71,601.89 							"/>
							<polygon class="st8" points="974.28,604.19 956.36,604.28 956.35,601.86 974.27,601.77 							"/>
						</g>
					</g>
					<polygon class="st8" points="913.93,622.06 892.95,622.16 892.94,619.88 913.92,619.77 					"/>
					<polygon class="st8" points="973.84,621.76 952.87,621.86 952.86,619.58 973.84,619.48 					"/>
					<polygon class="st8" points="915.99,558.04 892.8,558.15 892.74,533.89 915.94,533.77 					"/>
				</g>
				<rect x="914.12" y="651.74" class="st8" width="39.63" height="6.64"/>
			</g>
		</g>
	</g>
	<g>
		<g>
			<g>
				<g>
					<g>
						<g>
							<g>
								<polygon class="st2" points="1089.04,639.38 1187.66,638.89 1187.36,509.77 1088.74,510.26 								"/>
								
									<linearGradient id="SVGID_41_" gradientUnits="userSpaceOnUse" x1="7582.8467" y1="-2072.2251" x2="7582.8467" y2="-1924.8616" gradientTransform="matrix(1.0001 -3.600000e-03 3.600000e-03 1.0001 -6388.8477 2591.2388)">
									<stop  offset="0" style="stop-color:#A0C4E7"/>
									<stop  offset="1" style="stop-color:#67A1D7"/>
								</linearGradient>
								<rect x="1187.34" y="499.64" class="st54" width="0" height="10.14"/>
								<linearGradient id="SVGID_42_" gradientUnits="userSpaceOnUse" x1="1088.6975" y1="500.9044" x2="1187.3566" y2="500.9044">
									<stop  offset="0" style="stop-color:#8647E1"/>
									<stop  offset="1" style="stop-color:#B78FED"/>
								</linearGradient>
								<polygon class="st55" points="1179.54,491.55 1088.7,492 1088.74,510.26 1187.36,509.77 1187.33,499.64 								"/>
							</g>
							<polygon class="st2" points="1179.56,499.68 1179.54,491.55 1187.33,499.64 							"/>
						</g>
						<g>
							<polygon class="st2" points="1132.98,504.02 1103.24,504.17 1103.23,499.57 1132.97,499.43 							"/>
							<polygon class="st2" points="1172.82,503.82 1143.09,503.97 1143.08,499.38 1172.81,499.23 							"/>
						</g>
					</g>
					<polygon class="st8" points="1170.95,526.53 1104.36,526.86 1104.34,522.01 1170.94,521.68 					"/>
					<polygon class="st8" points="1166.27,535.97 1128.72,536.16 1128.71,533.73 1166.26,533.55 					"/>
					<g>
						<g>
							<polygon class="st8" points="1154.6,543.05 1128.73,543.18 1128.73,540.75 1154.6,540.62 							"/>
							<polygon class="st8" points="1178.38,542.93 1160.46,543.02 1160.45,540.59 1178.37,540.5 							"/>
						</g>
					</g>
					<polygon class="st8" points="1166.3,550.79 1128.75,550.98 1128.74,548.55 1166.3,548.36 					"/>
					<g>
						<g>
							<polygon class="st8" points="1138.98,557.94 1128.77,558 1128.76,555.57 1138.98,555.52 							"/>
							<polygon class="st8" points="1154.85,557.87 1144.63,557.92 1144.62,555.49 1154.84,555.44 							"/>
							<polygon class="st8" points="1178.41,557.75 1160.49,557.84 1160.49,555.41 1178.41,555.32 							"/>
						</g>
					</g>
					<polygon class="st8" points="1171.06,572.98 1104.46,573.31 1104.45,568.46 1171.05,568.13 					"/>
					<g>
						<g>
							<polygon class="st8" points="1134.65,582.58 1097.1,582.76 1097.09,580.34 1134.64,580.15 							"/>
							<polygon class="st8" points="1177.72,582.36 1140.17,582.55 1140.17,580.12 1177.72,579.94 							"/>
							<polygon class="st8" points="1122.99,589.65 1097.11,589.78 1097.11,587.35 1122.98,587.23 							"/>
							<polygon class="st8" points="1154.71,589.49 1128.84,589.62 1128.83,587.2 1154.71,587.07 							"/>
							<polygon class="st8" points="1178.48,589.38 1160.57,589.47 1160.56,587.04 1178.48,586.95 							"/>
							<polygon class="st8" points="1134.68,597.39 1097.13,597.58 1097.13,595.15 1134.68,594.97 							"/>
							<polygon class="st8" points="1177.76,597.18 1140.21,597.37 1140.2,594.94 1177.75,594.75 							"/>
							<polygon class="st8" points="1123.02,604.47 1097.15,604.6 1097.14,602.17 1123.02,602.04 							"/>
							<polygon class="st8" points="1139.09,604.39 1128.87,604.44 1128.87,602.01 1139.08,601.96 							"/>
							<polygon class="st8" points="1154.95,604.31 1144.74,604.36 1144.73,601.94 1154.95,601.89 							"/>
							<polygon class="st8" points="1178.52,604.19 1160.6,604.28 1160.59,601.86 1178.51,601.77 							"/>
						</g>
					</g>
					<polygon class="st8" points="1118.17,622.06 1097.19,622.16 1097.18,619.88 1118.16,619.77 					"/>
					<polygon class="st8" points="1178.09,621.76 1157.11,621.86 1157.1,619.58 1178.08,619.48 					"/>
					<polygon class="st8" points="1120.23,558.04 1097.04,558.15 1096.99,533.89 1120.18,533.77 					"/>
				</g>
				<rect x="1118.36" y="651.74" class="st8" width="39.63" height="6.64"/>
			</g>
		</g>
	</g>
	<g>
		<g>
			<g>
				<g>
					<g>
						<g>
							<g>
								<polygon class="st2" points="1286.85,639.38 1385.46,638.89 1385.16,509.77 1286.55,510.26 								"/>
								
									<linearGradient id="SVGID_43_" gradientUnits="userSpaceOnUse" x1="7780.6328" y1="-2071.5132" x2="7780.6328" y2="-1924.1495" gradientTransform="matrix(1.0001 -3.600000e-03 3.600000e-03 1.0001 -6388.8477 2591.2388)">
									<stop  offset="0" style="stop-color:#A0C4E7"/>
									<stop  offset="1" style="stop-color:#67A1D7"/>
								</linearGradient>
								<rect x="1385.15" y="499.64" class="st56" width="0" height="10.14"/>
								<linearGradient id="SVGID_44_" gradientUnits="userSpaceOnUse" x1="1286.5057" y1="500.9044" x2="1385.1649" y2="500.9044">
									<stop  offset="0" style="stop-color:#8647E1"/>
									<stop  offset="1" style="stop-color:#B78FED"/>
								</linearGradient>
								<polygon class="st57" points="1377.35,491.55 1286.51,492 1286.55,510.26 1385.16,509.77 1385.14,499.64 								"/>
							</g>
							<polygon class="st2" points="1377.37,499.68 1377.35,491.55 1385.14,499.64 							"/>
						</g>
						<g>
							<polygon class="st2" points="1330.79,504.02 1301.05,504.17 1301.04,499.57 1330.78,499.43 							"/>
							<polygon class="st2" points="1370.63,503.82 1340.9,503.97 1340.88,499.38 1370.62,499.23 							"/>
						</g>
					</g>
					<polygon class="st8" points="1368.76,526.53 1302.16,526.86 1302.15,522.01 1368.75,521.68 					"/>
					<polygon class="st8" points="1364.08,535.97 1326.52,536.16 1326.52,533.73 1364.07,533.55 					"/>
					<g>
						<g>
							<polygon class="st8" points="1352.41,543.05 1326.54,543.18 1326.54,540.75 1352.41,540.62 							"/>
							<polygon class="st8" points="1376.19,542.93 1358.27,543.02 1358.26,540.59 1376.18,540.5 							"/>
						</g>
					</g>
					<polygon class="st8" points="1364.11,550.79 1326.56,550.98 1326.55,548.55 1364.1,548.36 					"/>
					<g>
						<g>
							<polygon class="st8" points="1336.79,557.94 1326.57,558 1326.57,555.57 1336.79,555.52 							"/>
							<polygon class="st8" points="1352.65,557.87 1342.44,557.92 1342.43,555.49 1352.65,555.44 							"/>
							<polygon class="st8" points="1376.22,557.75 1358.3,557.84 1358.29,555.41 1376.21,555.32 							"/>
						</g>
					</g>
					<polygon class="st8" points="1368.87,572.98 1302.27,573.31 1302.26,568.46 1368.86,568.13 					"/>
					<g>
						<g>
							<polygon class="st8" points="1332.46,582.58 1294.91,582.76 1294.9,580.34 1332.45,580.15 							"/>
							<polygon class="st8" points="1375.53,582.36 1337.98,582.55 1337.97,580.12 1375.53,579.94 							"/>
							<polygon class="st8" points="1320.79,589.65 1294.92,589.78 1294.92,587.35 1320.79,587.23 							"/>
							<polygon class="st8" points="1352.52,589.49 1326.65,589.62 1326.64,587.2 1352.51,587.07 							"/>
							<polygon class="st8" points="1376.29,589.38 1358.37,589.47 1358.37,587.04 1376.29,586.95 							"/>
							<polygon class="st8" points="1332.49,597.39 1294.94,597.58 1294.94,595.15 1332.49,594.97 							"/>
							<polygon class="st8" points="1375.57,597.18 1338.01,597.37 1338.01,594.94 1375.56,594.75 							"/>
							<polygon class="st8" points="1320.83,604.47 1294.96,604.6 1294.95,602.17 1320.82,602.04 							"/>
							<polygon class="st8" points="1336.9,604.39 1326.68,604.44 1326.68,602.01 1336.89,601.96 							"/>
							<polygon class="st8" points="1352.76,604.31 1342.55,604.36 1342.54,601.94 1352.76,601.89 							"/>
							<polygon class="st8" points="1376.33,604.19 1358.41,604.28 1358.4,601.86 1376.32,601.77 							"/>
						</g>
					</g>
					<polygon class="st8" points="1315.98,622.06 1295,622.16 1294.99,619.88 1315.97,619.77 					"/>
					<polygon class="st8" points="1375.9,621.76 1354.92,621.86 1354.91,619.58 1375.89,619.48 					"/>
					<polygon class="st8" points="1318.04,558.04 1294.85,558.15 1294.79,533.89 1317.99,533.77 					"/>
				</g>
				<rect x="1316.17" y="651.74" class="st8" width="39.63" height="6.64"/>
			</g>
		</g>
	</g>
	<g>
		<g>
			<g>
				<g>
					<g>
						<g>
							<g>
								<polygon class="st2" points="884.8,814.64 983.41,814.15 983.11,685.04 884.5,685.53 								"/>
								
									<linearGradient id="SVGID_45_" gradientUnits="userSpaceOnUse" x1="7377.9971" y1="-1897.7157" x2="7377.9971" y2="-1750.3521" gradientTransform="matrix(1.0001 -3.600000e-03 3.600000e-03 1.0001 -6388.8477 2591.2388)">
									<stop  offset="0" style="stop-color:#A0C4E7"/>
									<stop  offset="1" style="stop-color:#67A1D7"/>
								</linearGradient>
								<rect x="983.1" y="674.9" class="st58" width="0" height="10.14"/>
								<linearGradient id="SVGID_46_" gradientUnits="userSpaceOnUse" x1="884.4558" y1="676.1687" x2="983.1149" y2="676.1687">
									<stop  offset="0" style="stop-color:#8647E1"/>
									<stop  offset="1" style="stop-color:#B78FED"/>
								</linearGradient>
								<polygon class="st59" points="975.3,666.81 884.46,667.26 884.5,685.53 983.11,685.04 983.09,674.9 								"/>
							</g>
							<polygon class="st2" points="975.32,674.94 975.3,666.81 983.09,674.9 							"/>
						</g>
						<g>
							<polygon class="st2" points="928.74,679.28 899,679.43 898.99,674.84 928.73,674.69 							"/>
							<polygon class="st2" points="968.58,679.08 938.85,679.23 938.83,674.64 968.57,674.49 							"/>
						</g>
					</g>
					<polygon class="st8" points="966.71,701.8 900.11,702.13 900.1,697.28 966.7,696.94 					"/>
					<polygon class="st8" points="962.03,711.24 924.47,711.42 924.47,709 962.02,708.81 					"/>
					<g>
						<g>
							<polygon class="st8" points="950.36,718.31 924.49,718.44 924.49,716.02 950.36,715.89 							"/>
							<polygon class="st8" points="974.14,718.2 956.22,718.28 956.21,715.86 974.13,715.77 							"/>
						</g>
					</g>
					<polygon class="st8" points="962.06,726.05 924.51,726.24 924.5,723.81 962.05,723.63 					"/>
					<g>
						<g>
							<polygon class="st8" points="934.74,733.21 924.52,733.26 924.52,730.83 934.74,730.78 							"/>
							<polygon class="st8" points="950.6,733.13 940.39,733.18 940.38,730.75 950.6,730.7 							"/>
							<polygon class="st8" points="974.17,733.01 956.25,733.1 956.24,730.68 974.16,730.59 							"/>
						</g>
					</g>
					<polygon class="st8" points="966.82,748.24 900.22,748.57 900.21,743.72 966.81,743.39 					"/>
					<g>
						<g>
							<polygon class="st8" points="930.41,757.84 892.86,758.03 892.85,755.6 930.4,755.41 							"/>
							<polygon class="st8" points="973.48,757.63 935.93,757.81 935.92,755.39 973.48,755.2 							"/>
							<polygon class="st8" points="918.74,764.92 892.87,765.05 892.87,762.62 918.74,762.49 							"/>
							<polygon class="st8" points="950.47,764.76 924.6,764.89 924.59,762.46 950.46,762.33 							"/>
							<polygon class="st8" points="974.24,764.64 956.32,764.73 956.32,762.3 974.24,762.21 							"/>
							<polygon class="st8" points="930.44,772.66 892.89,772.84 892.89,770.42 930.44,770.23 							"/>
							<polygon class="st8" points="973.52,772.44 935.96,772.63 935.96,770.2 973.51,770.02 							"/>
							<polygon class="st8" points="918.78,779.73 892.91,779.86 892.9,777.44 918.77,777.31 							"/>
							<polygon class="st8" points="934.85,779.65 924.63,779.71 924.63,777.28 934.84,777.23 							"/>
							<polygon class="st8" points="950.71,779.58 940.49,779.63 940.49,777.2 950.71,777.15 							"/>
							<polygon class="st8" points="974.28,779.46 956.36,779.55 956.35,777.12 974.27,777.03 							"/>
						</g>
					</g>
					<polygon class="st8" points="913.93,797.32 892.95,797.43 892.94,795.14 913.92,795.04 					"/>
					<polygon class="st8" points="973.84,797.02 952.87,797.13 952.86,794.85 973.84,794.74 					"/>
					<polygon class="st8" points="915.99,733.3 892.8,733.42 892.74,709.15 915.94,709.04 					"/>
				</g>
				<rect x="914.12" y="827" class="st8" width="39.63" height="6.64"/>
			</g>
		</g>
	</g>
	<g>
		<g>
			<g>
				<g>
					<g>
						<g>
							<g>
								<polygon class="st2" points="1089.04,814.64 1187.66,814.15 1187.36,685.04 1088.74,685.53 								"/>
								
									<linearGradient id="SVGID_47_" gradientUnits="userSpaceOnUse" x1="7582.2158" y1="-1896.9805" x2="7582.2158" y2="-1749.6169" gradientTransform="matrix(1.0001 -3.600000e-03 3.600000e-03 1.0001 -6388.8477 2591.2388)">
									<stop  offset="0" style="stop-color:#A0C4E7"/>
									<stop  offset="1" style="stop-color:#67A1D7"/>
								</linearGradient>
								<rect x="1187.34" y="674.9" class="st60" width="0" height="10.14"/>
								<linearGradient id="SVGID_48_" gradientUnits="userSpaceOnUse" x1="1088.6975" y1="676.1687" x2="1187.3566" y2="676.1687">
									<stop  offset="0" style="stop-color:#8647E1"/>
									<stop  offset="1" style="stop-color:#B78FED"/>
								</linearGradient>
								<polygon class="st61" points="1179.54,666.81 1088.7,667.26 1088.74,685.53 1187.36,685.04 1187.33,674.9 								"/>
							</g>
							<polygon class="st2" points="1179.56,674.94 1179.54,666.81 1187.33,674.9 							"/>
						</g>
						<g>
							<polygon class="st2" points="1132.98,679.28 1103.24,679.43 1103.23,674.84 1132.97,674.69 							"/>
							<polygon class="st2" points="1172.82,679.08 1143.09,679.23 1143.08,674.64 1172.81,674.49 							"/>
						</g>
					</g>
					<polygon class="st8" points="1170.95,701.8 1104.36,702.13 1104.34,697.28 1170.94,696.94 					"/>
					<polygon class="st8" points="1166.27,711.24 1128.72,711.42 1128.71,709 1166.26,708.81 					"/>
					<g>
						<g>
							<polygon class="st8" points="1154.6,718.31 1128.73,718.44 1128.73,716.02 1154.6,715.89 							"/>
							<polygon class="st8" points="1178.38,718.2 1160.46,718.28 1160.45,715.86 1178.37,715.77 							"/>
						</g>
					</g>
					<polygon class="st8" points="1166.3,726.05 1128.75,726.24 1128.74,723.81 1166.3,723.63 					"/>
					<g>
						<g>
							<polygon class="st8" points="1138.98,733.21 1128.77,733.26 1128.76,730.83 1138.98,730.78 							"/>
							<polygon class="st8" points="1154.85,733.13 1144.63,733.18 1144.62,730.75 1154.84,730.7 							"/>
							<polygon class="st8" points="1178.41,733.01 1160.49,733.1 1160.49,730.68 1178.41,730.59 							"/>
						</g>
					</g>
					<polygon class="st8" points="1171.06,748.24 1104.46,748.57 1104.45,743.72 1171.05,743.39 					"/>
					<g>
						<g>
							<polygon class="st8" points="1134.65,757.84 1097.1,758.03 1097.09,755.6 1134.64,755.41 							"/>
							<polygon class="st8" points="1177.72,757.63 1140.17,757.81 1140.17,755.39 1177.72,755.2 							"/>
							<polygon class="st8" points="1122.99,764.92 1097.11,765.05 1097.11,762.62 1122.98,762.49 							"/>
							<polygon class="st8" points="1154.71,764.76 1128.84,764.89 1128.83,762.46 1154.71,762.33 							"/>
							<polygon class="st8" points="1178.48,764.64 1160.57,764.73 1160.56,762.3 1178.48,762.21 							"/>
							<polygon class="st8" points="1134.68,772.66 1097.13,772.84 1097.13,770.42 1134.68,770.23 							"/>
							<polygon class="st8" points="1177.76,772.44 1140.21,772.63 1140.2,770.2 1177.75,770.02 							"/>
							<polygon class="st8" points="1123.02,779.73 1097.15,779.86 1097.14,777.44 1123.02,777.31 							"/>
							<polygon class="st8" points="1139.09,779.65 1128.87,779.71 1128.87,777.28 1139.08,777.23 							"/>
							<polygon class="st8" points="1154.95,779.58 1144.74,779.63 1144.73,777.2 1154.95,777.15 							"/>
							<polygon class="st8" points="1178.52,779.46 1160.6,779.55 1160.59,777.12 1178.51,777.03 							"/>
						</g>
					</g>
					<polygon class="st8" points="1118.17,797.32 1097.19,797.43 1097.18,795.14 1118.16,795.04 					"/>
					<polygon class="st8" points="1178.09,797.02 1157.11,797.13 1157.1,794.85 1178.08,794.74 					"/>
					<polygon class="st8" points="1120.23,733.3 1097.04,733.42 1096.99,709.15 1120.18,709.04 					"/>
				</g>
				<rect x="1118.36" y="827" class="st8" width="39.63" height="6.64"/>
			</g>
		</g>
	</g>
	<g>
		<g>
			<g>
				<g>
					<g>
						<g>
							<g>
								<polygon class="st2" points="1286.85,814.64 1385.46,814.15 1385.16,685.04 1286.55,685.53 								"/>
								
									<linearGradient id="SVGID_49_" gradientUnits="userSpaceOnUse" x1="7780.002" y1="-1896.2686" x2="7780.002" y2="-1748.905" gradientTransform="matrix(1.0001 -3.600000e-03 3.600000e-03 1.0001 -6388.8477 2591.2388)">
									<stop  offset="0" style="stop-color:#A0C4E7"/>
									<stop  offset="1" style="stop-color:#67A1D7"/>
								</linearGradient>
								<rect x="1385.15" y="674.9" class="st62" width="0" height="10.14"/>
								<linearGradient id="SVGID_50_" gradientUnits="userSpaceOnUse" x1="1286.5057" y1="676.1687" x2="1385.1649" y2="676.1687">
									<stop  offset="0" style="stop-color:#8647E1"/>
									<stop  offset="1" style="stop-color:#B78FED"/>
								</linearGradient>
								<polygon class="st63" points="1377.35,666.81 1286.51,667.26 1286.55,685.53 1385.16,685.04 1385.14,674.9 								"/>
							</g>
							<polygon class="st2" points="1377.37,674.94 1377.35,666.81 1385.14,674.9 							"/>
						</g>
						<g>
							<polygon class="st2" points="1330.79,679.28 1301.05,679.43 1301.04,674.84 1330.78,674.69 							"/>
							<polygon class="st2" points="1370.63,679.08 1340.9,679.23 1340.88,674.64 1370.62,674.49 							"/>
						</g>
					</g>
					<polygon class="st8" points="1368.76,701.8 1302.16,702.13 1302.15,697.28 1368.75,696.94 					"/>
					<polygon class="st8" points="1364.08,711.24 1326.52,711.42 1326.52,709 1364.07,708.81 					"/>
					<g>
						<g>
							<polygon class="st8" points="1352.41,718.31 1326.54,718.44 1326.54,716.02 1352.41,715.89 							"/>
							<polygon class="st8" points="1376.19,718.2 1358.27,718.28 1358.26,715.86 1376.18,715.77 							"/>
						</g>
					</g>
					<polygon class="st8" points="1364.11,726.05 1326.56,726.24 1326.55,723.81 1364.1,723.63 					"/>
					<g>
						<g>
							<polygon class="st8" points="1336.79,733.21 1326.57,733.26 1326.57,730.83 1336.79,730.78 							"/>
							<polygon class="st8" points="1352.65,733.13 1342.44,733.18 1342.43,730.75 1352.65,730.7 							"/>
							<polygon class="st8" points="1376.22,733.01 1358.3,733.1 1358.29,730.68 1376.21,730.59 							"/>
						</g>
					</g>
					<polygon class="st8" points="1368.87,748.24 1302.27,748.57 1302.26,743.72 1368.86,743.39 					"/>
					<g>
						<g>
							<polygon class="st8" points="1332.46,757.84 1294.91,758.03 1294.9,755.6 1332.45,755.41 							"/>
							<polygon class="st8" points="1375.53,757.63 1337.98,757.81 1337.97,755.39 1375.53,755.2 							"/>
							<polygon class="st8" points="1320.79,764.92 1294.92,765.05 1294.92,762.62 1320.79,762.49 							"/>
							<polygon class="st8" points="1352.52,764.76 1326.65,764.89 1326.64,762.46 1352.51,762.33 							"/>
							<polygon class="st8" points="1376.29,764.64 1358.37,764.73 1358.37,762.3 1376.29,762.21 							"/>
							<polygon class="st8" points="1332.49,772.66 1294.94,772.84 1294.94,770.42 1332.49,770.23 							"/>
							<polygon class="st8" points="1375.57,772.44 1338.01,772.63 1338.01,770.2 1375.56,770.02 							"/>
							<polygon class="st8" points="1320.83,779.73 1294.96,779.86 1294.95,777.44 1320.82,777.31 							"/>
							<polygon class="st8" points="1336.9,779.65 1326.68,779.71 1326.68,777.28 1336.89,777.23 							"/>
							<polygon class="st8" points="1352.76,779.58 1342.55,779.63 1342.54,777.2 1352.76,777.15 							"/>
							<polygon class="st8" points="1376.33,779.46 1358.41,779.55 1358.4,777.12 1376.32,777.03 							"/>
						</g>
					</g>
					<polygon class="st8" points="1315.98,797.32 1295,797.43 1294.99,795.14 1315.97,795.04 					"/>
					<polygon class="st8" points="1375.9,797.02 1354.92,797.13 1354.91,794.85 1375.89,794.74 					"/>
					<polygon class="st8" points="1318.04,733.3 1294.85,733.42 1294.79,709.15 1317.99,709.04 					"/>
				</g>
				<rect x="1316.17" y="827" class="st8" width="39.63" height="6.64"/>
			</g>
		</g>
	</g>
	<g>
		<path class="st29" d="M324.42,632.97c0,0,13.75,9.79,6.07,29.16c13.41,14.84-6.81,44.41-13.87,46.83
			c-7.05,2.42-20.98,0.46-34.04-14.84c-8.38-9.83-16.67-19.01-19.88-31.75C257.38,641.21,287.89,609.78,324.42,632.97z"/>
		<path class="st29" d="M309.91,696.12c0,0-0.17,18.8,3.75,21.99c4.26,3.46,27.71,12.38,27.71,12.38s5.73,39.37-23.64,44.91
			c-35.67,6.72-58.29-41.93-58.29-41.93s23.13-9.05,25.34-13.14c4.32-7.99-8.92-41.15-8.92-41.15L309.91,696.12z"/>
		<path class="st32" d="M330.27,650.02c0.07-0.45,0.17-0.89,0.32-1.34c0.99-2.92,3.73-5.23,5.03-8.09
			c2.29-5.03,0.26-11.53-2.41-16.45c-4.83-8.92-14.9-14.86-26.76-13.58c-8.09-11.5-25.77-10.14-26.68-7.75
			c-0.57,1.51-13.81,1.31-21.93,5.57c-4.92,2.58-20.12,13.89-14.49,19.78c-15.68,5.71-0.87,8.25-6.4,16.19
			c-3.4,4.45-6.59,1.99-7.27,9.04c0.23,2.79,3,3.66,3.09,5.92c0.56,2.12-2.46,4.16-2.09,7.48c0.65,4.37,3.23,6.45,3.74,10.29
			c0.12,6.24-3.15,4.7,0.77,10.61c3.28,4.94,6.45,2.53,7.34,3.97c0.75,0.91-2.56,5.51-1.67,6.95c2.67,4.33,1.4,2.35,6.34,3.72
			c-1.31-0.36,1.53,5.44,2.26,6.02c2.01,1.58,5.25,0.9,7.21,2.56c2.85,2.41,7.85,12.5,12.14,3.47c1.63,2.7,4.82,4.39,7.97,4.2
			c3.15-0.18,6.12-2.22,7.43-5.1c3.07,2.31,7.31,2.96,10.93,1.67c3.62-1.29,6.5-4.48,7.41-8.21c8.03-1.65,17.47-0.81,15.71-11.71
			c1.91,1.29,4.33-1.24,4.42-3.55c0.1-2.3-0.92-4.62-0.43-6.87c0.54-2.43,2.68-4.13,3.98-6.26c2.47-4.05,1.37-9.89-2.4-12.76
			c2.09,1.6,6.23-5.78,6.52-7.05C331.01,655.81,329.85,652.92,330.27,650.02z"/>
		<path class="st32" d="M279.3,618.94c-8.97-4.68-11.9,3.57-16.15,4.89c-1.86,0.58-3.76,1.17-5.31,2.35
			c-1.55,1.17-2.71,3.06-2.48,4.99c0.28,2.39,2.56,4.66,1.58,6.85c-0.35,0.79-1.07,1.35-1.78,1.85c-1.9,1.33-4,2.5-5.3,4.42
			c-1.3,1.92-1.41,4.9,0.47,6.25c2.04,1.47-1.96,4.17-2.52,6.57c-0.52,2.23-0.13,4.65,1.06,6.6c0.32,0.52,0.72,1.03,1.27,1.3
			c0.55,0.27,1.29,0.23,1.7-0.23c0.99-1.1-0.7-4.71-0.38-6.31c0.34-1.73,1.37-4.07,2.44-5.5c2.73-3.65,7.71-3.29,6.8-8.75
			c-0.51-3.06,3.34-5.14,3.93-8.18c0.16-0.8,0.08-1.64,0.15-2.45c0.31-3.29,3.11-5.76,5.9-7.52c2.79-1.77,3.31-7.1,8.93-6.99"/>
		<path class="st32" d="M304.16,622.73c10.55-4.54,8.82,4.94,11.95,6.76c1.37,0.79,2.76,1.61,3.53,3.05
			c0.77,1.44,0.82,3.64-0.4,5.79c-1.52,2.66-4.77,5.02-5.05,7.56c-0.1,0.92,0.25,1.6,0.62,2.21c1.01,1.64,2.28,3.12,2.43,5.37
			c0.1,1.49-0.44,3.73-1.5,4.84c-1.09,1.13-3.1,0.77-3.44,2.74c-0.19,1.11,0.37,2.2,0.52,3.31c0.28,2.13-1.03,4.21-2.77,5.47
			c-1.74,1.26-3.86,1.85-5.93,2.42c2.15-0.79,3.89-2.59,4.61-4.76c0.67-2.02,0.41-4.99-0.56-6.9c-1.09-2.14-3.45-3.33-2-6.07
			c0.37-0.69,0.92-1.32,1.34-1.99c2.07-3.39-0.29-6.02,0.79-9.48c0.28-0.91,0.8-1.84,1.16-2.76c1.46-3.71,0.25-6.7-1.33-8.9
			c-1.58-2.2,0.78-8.22-4.34-8.54"/>
		<path class="st32" d="M271.8,644.98c-1.92,2.34-5.76,3.71-5.59,6.73c0.16,2.89,4.25,4.85,3.5,7.65c-0.35,1.31-1.69,2.1-2.98,2.52
			c-1.29,0.42-2.69,0.63-3.8,1.41c-1.11,0.78-1.81,2.41-1.02,3.51c0.66,0.92,2,1.06,2.78,1.87c1.51,1.56,0.06,4.06-0.26,6.2
			c-0.48,3.22,1.99,6.3,4.98,7.6c2.99,1.3,6.36,1.25,9.62,1.17c-2.53-0.73-5.16-1.55-7.01-3.42c-1.85-1.87-2.58-5.12-0.88-7.13
			c1.36-1.62,4.06-2.31,4.33-4.41c0.29-2.29-2.75-4.29-1.9-6.43c0.65-1.62,3.09-1.87,3.79-3.47c0.94-2.16-2.09-4.23-1.92-6.58
			c0.14-1.93,2.27-2.98,3.41-4.54c1.49-2.05,1.18-4.91,0.36-7.32c-0.82-2.41-2.07-4.71-2.27-7.24c-0.2-2.53,1.09-5.46,3.58-5.97
			c-2.34-0.94-5.04,0.87-6.06,3.18c-1.02,2.31-0.85,4.94-0.83,7.47C273.63,640.31,273.4,643.03,271.8,644.98z"/>
		<path class="st29" d="M241.92,790.91c0,0-5.71,23.27-5.82,26.31c-0.11,3.04,17.03,64.53,27.98,83.16
			c-1.86-2.09,10.98-6.15,9.16-9.26c-1.83-3.1-19.5-66.49-19.14-76.61c0.36-10.12,10.91-59.08,10.91-59.08l-5.88-10.35
			L241.92,790.91z"/>
		<linearGradient id="SVGID_51_" gradientUnits="userSpaceOnUse" x1="233.7831" y1="774.5702" x2="272.1098" y2="774.5702">
			<stop  offset="0" style="stop-color:#8647E1"/>
			<stop  offset="1" style="stop-color:#B78FED"/>
		</linearGradient>
		<path class="st64" d="M263.46,733.86c0,0-7.47-10.88-13.68,9.86c-3.86,12.04-16,69.88-16,69.88s7.68,7.54,21.89,3.17
			c7.85-17.92,16.43-50.29,16.43-50.29L263.46,733.86z"/>
		<g>
			<linearGradient id="SVGID_52_" gradientUnits="userSpaceOnUse" x1="255.6748" y1="804.6987" x2="500.1994" y2="804.6987">
				<stop  offset="0" style="stop-color:#5C5E60"/>
				<stop  offset="1" style="stop-color:#9FA1A4"/>
			</linearGradient>
			<polygon class="st65" points="282.92,917.93 255.67,887.78 472.96,691.46 500.2,721.61 			"/>
			<g>
				<path class="st66" d="M484.55,494.78c-49.76,76.55-28.03,178.96,48.53,228.72c76.56,49.76,178.95,28.03,228.72-48.53
					c49.76-76.56,28.04-178.96-48.53-228.73C636.7,396.49,534.3,418.22,484.55,494.78z"/>
				<path class="st67" d="M720.4,546.49c-20.44-58.4-71.43-95.79-122.77-94.74c59.38-17.71,125.6,21.91,149.62,90.54
					c24.64,70.38-4.44,144.6-64.95,165.78c-10.3,3.61-20.85,5.44-31.38,5.66c1.51-0.46,3.02-0.94,4.53-1.46
					C715.95,691.08,745.03,616.87,720.4,546.49z"/>
				<linearGradient id="SVGID_53_" gradientUnits="userSpaceOnUse" x1="447.6512" y1="584.8728" x2="798.6787" y2="584.8728">
					<stop  offset="0" style="stop-color:#5C5E60"/>
					<stop  offset="1" style="stop-color:#9FA1A4"/>
				</linearGradient>
				<path class="st68" d="M753.39,467.21c-64.98-71.92-175.97-77.55-247.89-12.56c-71.92,64.98-77.55,175.97-12.56,247.89
					c64.99,71.92,175.97,77.55,247.89,12.56C812.75,650.12,818.38,539.13,753.39,467.21z M508.63,688.36
					c-57.15-63.26-52.21-160.87,11.05-218.02c63.26-57.15,160.87-52.21,218.02,11.05c57.15,63.26,52.21,160.87-11.05,218.02
					C663.39,756.56,565.78,751.61,508.63,688.36z"/>
			</g>
			<linearGradient id="SVGID_54_" gradientUnits="userSpaceOnUse" x1="456.2449" y1="705.7676" x2="522.4794" y2="705.7676">
				<stop  offset="0" style="stop-color:#5C5E60"/>
				<stop  offset="1" style="stop-color:#9FA1A4"/>
			</linearGradient>
			<path class="st69" d="M506.19,739.27l-48.46-53.63c-2.13-2.36-1.94-5.99,0.41-8.12l6.28-5.67c2.36-2.13,5.99-1.95,8.12,0.41
				L521,725.89c2.13,2.36,1.95,5.99-0.41,8.12l-6.28,5.67C511.95,741.81,508.31,741.63,506.19,739.27z"/>
		</g>
		<path class="st29" d="M277.89,998.77l-7.77,54.91c0,0-20.15,35.3-12.23,176.66c-4.62,18.96-8.63,48.92,2.19,50.42
			c10.82,1.5,13.15-6.58,12.17-49.23c-0.21-45.57,28.07-144.54,32.99-165.68c10.63-40.21,7.46-103.9,7.46-103.9l-37.73-1.73
			L277.89,998.77z"/>
		<g>
			<path class="st45" d="M254.26,1253.27c-1.57,10-3.59,25.57-2.6,34.18c0.31,2.69,2.13,4.85,4.5,5.27
				c3.63,0.65,8.82,1.66,13.78,1.92c2.11,0.11,3.98-1.55,4.32-3.91c0.68-4.89,0.73-14.32-2.29-38.39c-0.37-2.98-2.61-5.23-5.26-5.27
				c-0.6-0.01-1.29-0.01-2.07,0.01c-1.5,0.03-3.85,1.11-5.76,1.29C256.54,1248.6,254.67,1250.64,254.26,1253.27z"/>
			<path class="st45" d="M255.48,1237.59c0,0-8.24,20.54-1.15,24.8c8.17,4.91,17.48,3.3,19.41,0.47c1.12-1.64,2.17-17.47-0.86-22.47
				C273.33,1240.39,263.76,1247.86,255.48,1237.59z"/>
			<path class="st45" d="M257.67,1259.81c0,0,4.09,29.81,2.02,37.1c0.21,1.31,4.18,0.83,4.18,0.83s1.65-30.02,6.36-36.75
				C269.12,1261.5,257.67,1259.81,257.67,1259.81z"/>
		</g>
		<path class="st29" d="M346.62,1008.33l-4.01,48.11c0,0,18.18,39.35-6.6,178.74c2.32,19.37,4.23,48.16-6.7,48.35
			c-10.92,0.19-12.18-12.65-6.92-49.16c5.66-45.22-11.34-146.59-13.69-168.17c-5.74-41.2-2.23-100.11-2.23-100.11l43.62,4.15
			L346.62,1008.33z"/>
		<g>
			<path class="st45" d="M338.03,1255.1c0.93,10.07,1.96,25.75,0.43,34.27c-0.48,2.67-2.44,4.7-4.83,4.98
				c-3.67,0.42-8.9,1.1-13.87,1.05c-2.11-0.02-3.88-1.8-4.06-4.18c-0.37-4.92,0.18-14.34,4.71-38.17c0.56-2.95,2.93-5.05,5.58-4.93
				c0.6,0.03,1.29,0.07,2.06,0.14c1.49,0.12,3.78,1.35,5.67,1.66C336.05,1250.3,337.79,1252.46,338.03,1255.1z"/>
			<path class="st45" d="M337.8,1239.38c0,0,6.92,21.02-0.42,24.82c-8.46,4.38-17.65,2.19-19.4-0.76
				c-1.02-1.71-1.07-17.57,2.28-22.37C319.82,1241.05,328.9,1249.11,337.8,1239.38z"/>
			<path class="st45" d="M334.22,1261.42c0,0-5.97,29.5-4.37,36.9c-0.29,1.29-4.23,0.56-4.23,0.56s0.25-30.06-4.02-37.08
				C322.68,1262.38,334.22,1261.42,334.22,1261.42z"/>
		</g>
		<path class="st29" d="M350.2,749.49c0,0,63.43,62.16,72.46,58.1c6.44-4.18,32.04-49.07,34.19-53.2c2.15-4.14,1.39-8.86,5.59-12.26
			c3.34-2.7,7.05-5.17,8.98-6.42c0.82-0.53,1.91-0.23,2.33,0.65c0.74,1.54,0.2,2.26-2.82,4.81c-5.9,4.97-1.59,5.92,6.57,0.95
			c5.63-3.43,6.1-7.51,9.3-5.59c1.76,1.06,2.25,8.74-4.17,15.76c-2.63,2.88-11.02,6.99-14.54,8.09
			c-3.53,1.1-27.74,55.07-40.16,66.39c-7.65,6.97-46.06-23.94-48.37-25.82C377.25,799.08,349.44,756.66,350.2,749.49z"/>
		<linearGradient id="SVGID_55_" gradientUnits="userSpaceOnUse" x1="255.1879" y1="953.0554" x2="361.4899" y2="953.0554">
			<stop  offset="0" style="stop-color:#5C5E60"/>
			<stop  offset="1" style="stop-color:#9FA1A4"/>
		</linearGradient>
		<path class="st70" d="M338.03,827.08c0,0,12.34,25.4,20.88,74.72c10.82,62.48-16.79,87.49-2.94,167.8
			c0.11,4.29-54.33,20.01-97.62-2.08c1.73-4.5,5.88-21.46,5.19-49.5c-10.36-72.63-20.08-119.77,29.83-161.82
			C311.88,842.33,338.03,827.08,338.03,827.08z"/>
		<linearGradient id="SVGID_56_" gradientUnits="userSpaceOnUse" x1="337.3777" y1="770.9415" x2="407.9904" y2="770.9415">
			<stop  offset="0" style="stop-color:#8647E1"/>
			<stop  offset="1" style="stop-color:#B78FED"/>
		</linearGradient>
		<path class="st71" d="M337.38,728.4c0,0,8.56-1.39,15.46,5.7c6.9,7.09,42.71,52.88,54.97,64.01c0.62-1.61,0.54,15.6-14.22,15.49
			c-30.76-18.16-49.77-39.89-49.77-39.89L337.38,728.4z"/>
		<linearGradient id="SVGID_57_" gradientUnits="userSpaceOnUse" x1="255.6748" y1="793.2988" x2="349.6921" y2="793.2988">
			<stop  offset="0" style="stop-color:#8647E1"/>
			<stop  offset="1" style="stop-color:#B78FED"/>
		</linearGradient>
		<path class="st72" d="M347.47,730.39c0,0,1.37,21.92-1.1,56.63c-2.92,17.75,3.33,77.42,3.33,77.42s-33.97,5.69-62.15-2.91
			c-2.81-4.96-5.58-45.2-21.65-89.44c-4.56-14.14-10.23-40.1-10.23-40.1l21.28-9.6c0,0,16.55,2.71,43.59-2.09
			C321.75,720.77,345.12,728.49,347.47,730.39z"/>
		<linearGradient id="SVGID_58_" gradientUnits="userSpaceOnUse" x1="285.3692" y1="862.3172" x2="350.8116" y2="862.3172">
			<stop  offset="0" style="stop-color:#5C5E60"/>
			<stop  offset="1" style="stop-color:#9FA1A4"/>
		</linearGradient>
		<path class="st73" d="M349.69,859.16c0,0-39.43,1.7-63.37-1.41c-0.24,0.28-0.96,6.32-0.96,6.32s35.69,5.17,65.44,1.49
			C349.81,860.89,349.69,859.16,349.69,859.16z"/>
	</g>
</g>
</svg>
