<svg xmlns="http://www.w3.org/2000/svg" xmlns:xlink="http://www.w3.org/1999/xlink" viewBox="0 0 854.95 947.76"><defs><style>.cls-1{mask:url(#mask);filter:url(#luminosity-noclip-2);}.cls-2,.cls-93,.cls-95,.cls-97{mix-blend-mode:multiply;}.cls-2{fill:url(#linear-gradient);}.cls-3{fill:none;}.cls-4{fill:#5f57c4;}.cls-5{fill:#5345ba;}.cls-6{isolation:isolate;}.cls-7{mask:url(#mask-2);}.cls-8{fill:#ddd6ff;}.cls-9{fill:#814d4d;}.cls-10{fill:#ffd6d6;}.cls-11{fill:url(#linear-gradient-2);}.cls-12{fill:url(#linear-gradient-3);}.cls-13{fill:url(#linear-gradient-4);}.cls-14{fill:url(#linear-gradient-5);}.cls-15{fill:url(#linear-gradient-6);}.cls-16{fill:#450606;}.cls-17{fill:#fff;}.cls-18{fill:url(#linear-gradient-7);}.cls-19{fill:url(#linear-gradient-8);}.cls-20{fill:url(#linear-gradient-9);}.cls-21{fill:url(#linear-gradient-10);}.cls-22{fill:url(#linear-gradient-11);}.cls-23{fill:url(#linear-gradient-12);}.cls-24{fill:url(#linear-gradient-13);}.cls-25{fill:url(#linear-gradient-14);}.cls-26{fill:url(#linear-gradient-15);}.cls-27{fill:url(#linear-gradient-16);}.cls-28{fill:url(#linear-gradient-17);}.cls-29{fill:url(#linear-gradient-18);}.cls-30{fill:url(#linear-gradient-19);}.cls-31{fill:url(#linear-gradient-20);}.cls-32{fill:url(#linear-gradient-21);}.cls-33{fill:url(#linear-gradient-22);}.cls-34{fill:#a9b0b2;}.cls-35{fill:#5c5f60;}.cls-36{clip-path:url(#clip-path);}.cls-37{fill:#717677;}.cls-38{clip-path:url(#clip-path-2);}.cls-39{clip-path:url(#clip-path-3);}.cls-40{fill:#757a7b;}.cls-41{clip-path:url(#clip-path-4);}.cls-42{fill:#5f6364;}.cls-43{clip-path:url(#clip-path-5);}.cls-44{fill:#602150;}.cls-45{fill:#dfbb60;}.cls-46{clip-path:url(#clip-path-6);}.cls-47{fill:#957d40;}.cls-48{fill:#debb5f;}.cls-49{clip-path:url(#clip-path-7);}.cls-50{fill:#687582;}.cls-51{clip-path:url(#clip-path-8);}.cls-52{fill:#7d6936;}.cls-53{clip-path:url(#clip-path-9);}.cls-54{fill:#a593c6;}.cls-55{fill:#d2bfef;}.cls-56{fill:#7e2b69;}.cls-57{clip-path:url(#clip-path-10);}.cls-58{fill:#8776b2;}.cls-59{fill:#dcdffb;}.cls-60{clip-path:url(#clip-path-11);}.cls-61{fill:#90793e;}.cls-62{fill:#8b753c;}.cls-63{fill:#86713a;}.cls-64{fill:url(#åçûìßííûé_ãðàäèåíò_15);}.cls-65{fill:#873317;}.cls-66{clip-path:url(#clip-path-12);}.cls-67{fill:#9e792f;}.cls-68{fill:#8d9497;}.cls-69{clip-path:url(#clip-path-14);}.cls-70{fill:#853216;}.cls-71{clip-path:url(#clip-path-15);}.cls-72{fill:#2d9a82;}.cls-73{clip-path:url(#clip-path-16);}.cls-74{fill:#2d3137;}.cls-75{clip-path:url(#clip-path-17);}.cls-76{fill:#92989c;}.cls-77{fill:#7665c1;}.cls-78{fill:#aa8eef;}.cls-79{fill:#b89dea;}.cls-80{clip-path:url(#clip-path-19);}.cls-81{fill:#256381;}.cls-82{fill:#63657c;}.cls-83{fill:#c7cdea;}.cls-84{clip-path:url(#clip-path-20);}.cls-85{clip-path:url(#clip-path-22);}.cls-86{clip-path:url(#clip-path-23);}.cls-87{fill:#25262e;}.cls-88{clip-path:url(#clip-path-24);}.cls-89{fill:#7575ea;}.cls-90{fill:url(#linear-gradient-23);}.cls-91{fill:url(#linear-gradient-24);}.cls-92{fill:url(#åçûìßííûé_ãðàäèåíò_15-2);}.cls-93{fill:url(#åçûìßííûé_ãðàäèåíò_15-3);}.cls-94{fill:url(#åçûìßííûé_ãðàäèåíò_15-4);}.cls-95{fill:url(#åçûìßííûé_ãðàäèåíò_15-5);}.cls-96{fill:url(#åçûìßííûé_ãðàäèåíò_15-6);}.cls-97{fill:url(#åçûìßííûé_ãðàäèåíò_15-7);}.cls-98{fill:url(#linear-gradient-25);}.cls-99{fill:url(#linear-gradient-26);}.cls-100{fill:url(#linear-gradient-27);}.cls-101{fill:url(#linear-gradient-28);}.cls-102{fill:url(#linear-gradient-29);}.cls-103{fill:url(#linear-gradient-30);}.cls-104{fill:url(#linear-gradient-31);}.cls-105{fill:url(#linear-gradient-32);}.cls-106{fill:url(#linear-gradient-33);}.cls-107{fill:url(#linear-gradient-34);}.cls-108{fill:url(#linear-gradient-35);}.cls-109{filter:url(#luminosity-noclip);}</style><filter id="luminosity-noclip" x="0" y="-8597.51" width="828.28" height="32766" filterUnits="userSpaceOnUse" color-interpolation-filters="sRGB"><feFlood flood-color="#fff" result="bg"/><feBlend in="SourceGraphic" in2="bg"/></filter><mask id="mask" x="0" y="-8597.51" width="828.28" height="32766" maskUnits="userSpaceOnUse"><g class="cls-109"/></mask><linearGradient id="linear-gradient" y1="180.62" x2="828.28" y2="180.62" gradientUnits="userSpaceOnUse"><stop offset="0"/><stop offset="1" stop-color="#fff"/></linearGradient><filter id="luminosity-noclip-2" x="0" y="5.99" width="828.28" height="349.26" filterUnits="userSpaceOnUse" color-interpolation-filters="sRGB"><feFlood flood-color="#fff" result="bg"/><feBlend in="SourceGraphic" in2="bg"/></filter><mask id="mask-2" x="0" y="5.99" width="828.28" height="349.26" maskUnits="userSpaceOnUse"><g class="cls-1"><polygon class="cls-2" points="816.26 5.99 677.02 145.23 577.52 45.73 459.52 163.73 408.52 112.73 254.02 267.23 171.02 184.23 0 355.25 24.04 355.25 171.02 208.27 254.02 291.27 408.52 136.77 459.52 187.77 577.52 69.77 677.02 169.27 828.28 18.01 816.26 5.99"/></g></mask><linearGradient id="linear-gradient-2" x1="298.68" y1="428.5" x2="325.81" y2="524.76" gradientUnits="userSpaceOnUse"><stop offset="0" stop-color="#8647e1"/><stop offset="1" stop-color="#b78fed"/></linearGradient><linearGradient id="linear-gradient-3" x1="262.38" y1="438.73" x2="289.51" y2="534.99" xlink:href="#linear-gradient-2"/><linearGradient id="linear-gradient-4" x1="204.79" y1="454.96" x2="231.92" y2="551.22" xlink:href="#linear-gradient-2"/><linearGradient id="linear-gradient-5" x1="251.2" y1="560.49" x2="251.2" y2="771.34" gradientUnits="userSpaceOnUse"><stop offset="0" stop-color="#5c5e60"/><stop offset="1" stop-color="#9fa1a4"/></linearGradient><linearGradient id="linear-gradient-6" x1="306.29" y1="560.49" x2="306.29" y2="771.34" xlink:href="#linear-gradient-5"/><linearGradient id="linear-gradient-7" x1="250.63" y1="463.6" x2="267.61" y2="463.6" xlink:href="#linear-gradient-2"/><linearGradient id="linear-gradient-8" x1="266.51" y1="459.9" x2="273.46" y2="459.9" xlink:href="#linear-gradient-2"/><linearGradient id="linear-gradient-9" x1="496.98" y1="656.77" x2="497.5" y2="639.82" xlink:href="#linear-gradient-5"/><linearGradient id="linear-gradient-10" x1="560.74" y1="658.73" x2="561.26" y2="641.78" xlink:href="#linear-gradient-5"/><linearGradient id="linear-gradient-11" x1="489.63" y1="473.89" x2="489.63" y2="644.27" xlink:href="#linear-gradient-5"/><linearGradient id="linear-gradient-12" x1="532.7" y1="473.89" x2="532.7" y2="644.27" xlink:href="#linear-gradient-5"/><linearGradient id="linear-gradient-13" x1="496.67" y1="473.89" x2="496.67" y2="644.27" xlink:href="#linear-gradient-5"/><linearGradient id="linear-gradient-14" x1="488.77" y1="392.24" x2="526.46" y2="392.24" xlink:href="#linear-gradient-2"/><linearGradient id="linear-gradient-15" x1="520.58" y1="331.65" x2="509.43" y2="351.8" gradientUnits="userSpaceOnUse"><stop offset="0" stop-color="#ffdcff"/><stop offset="1" stop-color="#fff"/></linearGradient><linearGradient id="linear-gradient-16" x1="536.53" y1="340.47" x2="525.37" y2="360.62" xlink:href="#linear-gradient-15"/><linearGradient id="linear-gradient-17" x1="560.18" y1="355.46" x2="539.05" y2="490.46" xlink:href="#linear-gradient-5"/><linearGradient id="linear-gradient-18" x1="490.9" y1="344.61" x2="469.77" y2="479.61" xlink:href="#linear-gradient-5"/><linearGradient id="linear-gradient-19" x1="495.71" y1="345.36" x2="474.58" y2="480.36" xlink:href="#linear-gradient-5"/><linearGradient id="linear-gradient-20" x1="547.55" y1="353.48" x2="526.42" y2="488.48" xlink:href="#linear-gradient-5"/><linearGradient id="linear-gradient-21" x1="481.1" y1="343.08" x2="459.96" y2="478.08" xlink:href="#linear-gradient-5"/><linearGradient id="linear-gradient-22" x1="442.01" y1="336.96" x2="420.88" y2="471.96" xlink:href="#linear-gradient-5"/><clipPath id="clip-path"><path class="cls-3" d="M457.38,380.38c-.05.63-.11,1.25-.17,1.87l16.36-2.62c.06-.62.11-1.25.16-1.87Z"/></clipPath><clipPath id="clip-path-2"><path class="cls-3" d="M472.49,387.16l-16.36,2.63c-.16.85-.33,1.71-.52,2.56L472,389.72C472.15,388.87,472.32,388,472.49,387.16Z"/></clipPath><clipPath id="clip-path-3"><path class="cls-3" d="M470.72,394.64l-16.36,2.62c0,.06,0,.11,0,.16l16.35-2.62C470.69,394.75,470.7,394.69,470.72,394.64Z"/></clipPath><clipPath id="clip-path-4"><path class="cls-3" d="M440.35,316.87l.61.86,16.35-2.63-.61-.85Z"/></clipPath><clipPath id="clip-path-5"><path class="cls-3" d="M435.64,311.09q.56.62,1.08,1.23l16.35-2.62q-.52-.63-1.08-1.23Z"/></clipPath><clipPath id="clip-path-6"><path class="cls-3" d="M446.05,415.51l-.54.81,16.35-2.62.55-.81Z"/></clipPath><clipPath id="clip-path-7"><path class="cls-3" d="M461.25,414.55l-16.35,2.62,3.91-.59,12.34-1.89Z"/></clipPath><clipPath id="clip-path-8"><path class="cls-3" d="M435.84,296.19l-16.35,2.62c.83.39,1.67.81,2.49,1.27l16.36-2.62C437.51,297,436.67,296.58,435.84,296.19Z"/></clipPath><clipPath id="clip-path-9"><path class="cls-3" d="M434.69,317.24l-16.36,2.62a37.14,37.14,0,0,1,9.43,7.61l16.35-2.62A36.89,36.89,0,0,0,434.69,317.24Z"/></clipPath><clipPath id="clip-path-10"><path class="cls-3" d="M419,314.14l-16.36,2.63a24.22,24.22,0,0,1,15.74,3.09l16.35-2.62A24.27,24.27,0,0,0,419,314.14Z"/></clipPath><clipPath id="clip-path-11"><path class="cls-3" d="M444.9,417.17c-6.39,8.7-14.7,14.14-23.82,15.6l16.35-2.62c9.07-1.46,17.34-6.85,23.72-15.46l-6,.92-2.12.32-1.07.17-4.16.63-1,.15A5.64,5.64,0,0,0,444.9,417.17Z"/></clipPath><linearGradient id="åçûìßííûé_ãðàäèåíò_15" x1="421.48" y1="421.31" x2="449.65" y2="342.53" gradientUnits="userSpaceOnUse"><stop offset="0" stop-color="#dcdffb"/><stop offset="1" stop-color="#f3f3fa"/></linearGradient><clipPath id="clip-path-12"><path class="cls-3" d="M382.13,303.77c-.78.67-1.55,1.39-2.3,2.14l16.35-2.62c.75-.75,1.52-1.47,2.31-2.15C393.58,301.93,386.64,301.67,382.13,303.77Z"/></clipPath><clipPath id="clip-path-14"><path class="cls-3" d="M415.46,292.74l-16.35,2.62a33.72,33.72,0,0,0-17,8.41c-.77.67-1.54,1.39-2.29,2.15l16.35-2.62c.75-.76,1.52-1.48,2.3-2.16A33.67,33.67,0,0,1,415.46,292.74Z"/></clipPath><clipPath id="clip-path-15"><path class="cls-3" d="M380.41,336.1l-16.35,2.63c-.22,1.16-.4,2.33-.57,3.49l16.35-2.62C380,338.43,380.2,337.27,380.41,336.1Z"/></clipPath><clipPath id="clip-path-16"><path class="cls-3" d="M380.41,336.11l-16.35,2.62c-.22,1.16-.4,2.32-.57,3.49l16.35-2.62C380,338.43,380.2,337.27,380.41,336.11Z"/></clipPath><clipPath id="clip-path-17"><path class="cls-3" d="M364.05,338.72c-.23,1.22-.42,2.44-.59,3.65l16.35-2.62c.18-1.22.37-2.43.59-3.65,2.61-14.09,8.29-25.3,15.78-32.81l-16.35,2.62C372.34,313.43,366.66,324.64,364.05,338.72Z"/></clipPath><clipPath id="clip-path-19"><path class="cls-4" d="M363,349.48c0-.24.07-.54.1-.77,0,0,.42-3.29.43-3.52,0-.51.11-1.53.31-2.88l-.37.06c-.13.89-.24,1.78-.34,2.67,0,.14,0,.29-.05.43-.15,1.35-.28,2.7-.37,4a96.52,96.52,0,0,0,9,48.09c.55,1.16,1.11,2.31,1.71,3.45-.2-.39-.73-1.42-1.23-2.55-.58-1.31-3-6.91-3-6.94-.73-1.8-1.52-4.27-2.14-6.11a117.74,117.74,0,0,1-3-12.33A96.23,96.23,0,0,1,363,349.48Z"/></clipPath><clipPath id="clip-path-20"><path class="cls-4" d="M379.48,342.42,363.12,345c0,.14,0,.29-.05.43l16.35-2.62Z"/></clipPath><clipPath id="clip-path-22"><path class="cls-4" d="M363,349.48a96.23,96.23,0,0,0,1.11,23.65,117.74,117.74,0,0,0,3,12.33c.62,1.84,1.41,4.31,2.14,6.11,0,0,2.4,5.63,3,6.94.5,1.13,1,2.16,1.23,2.55l16.35-2.62c-.6-1.15-1.16-2.29-1.71-3.45a96.65,96.65,0,0,1-9-48.09c.1-1.35.22-2.7.37-4l.06-.43c.1-.89.2-1.79.33-2.67l-16,2.56c-.2,1.35-.29,2.37-.31,2.88,0,.23-.43,3.49-.43,3.52C363.06,348.94,363,349.24,363,349.48Z"/></clipPath><clipPath id="clip-path-23"><path class="cls-5" d="M371.72,397.61c.54,1.17,1.12,2.32,1.71,3.45l16.35-2.62q-.88-1.71-1.71-3.45Z"/></clipPath><clipPath id="clip-path-24"><path class="cls-5" d="M373.22,400.66l.21.4,16.35-2.62q-.88-1.71-1.71-3.45l-16.35,2.62C372.06,398.34,372.51,399.28,373.22,400.66Z"/></clipPath><linearGradient id="linear-gradient-23" x1="543.41" y1="352.83" x2="522.28" y2="487.83" xlink:href="#linear-gradient-5"/><linearGradient id="linear-gradient-24" x1="488.67" y1="344.26" x2="467.54" y2="479.26" xlink:href="#linear-gradient-5"/><linearGradient id="åçûìßííûé_ãðàäèåíò_15-2" x1="643.74" y1="771.58" x2="854.95" y2="771.58" xlink:href="#åçûìßííûé_ãðàäèåíò_15"/><linearGradient id="åçûìßííûé_ãðàäèåíò_15-3" x1="666.49" y1="619.97" x2="666.49" y2="991.4" xlink:href="#åçûìßííûé_ãðàäèåíò_15"/><linearGradient id="åçûìßííûé_ãðàäèåíò_15-4" x1="404.77" y1="809.14" x2="615.98" y2="809.14" xlink:href="#åçûìßííûé_ãðàäèåíò_15"/><linearGradient id="åçûìßííûé_ãðàäèåíò_15-5" x1="404.77" y1="809.14" x2="450.28" y2="809.14" xlink:href="#åçûìßííûé_ãðàäèåíò_15"/><linearGradient id="åçûìßííûé_ãðàäèåíò_15-6" x1="166.97" y1="878.04" x2="378.17" y2="878.04" xlink:href="#åçûìßííûé_ãðàäèåíò_15"/><linearGradient id="åçûìßííûé_ãðàäèåíò_15-7" x1="166.97" y1="878.04" x2="212.47" y2="878.04" xlink:href="#åçûìßííûé_ãðàäèåíò_15"/><linearGradient id="linear-gradient-25" x1="690.39" y1="242.63" x2="666.39" y2="356.37" xlink:href="#linear-gradient-2"/><linearGradient id="linear-gradient-26" x1="690.08" y1="249.33" x2="692.82" y2="354.2" xlink:href="#linear-gradient-2"/><linearGradient id="linear-gradient-27" x1="725.47" y1="378.41" x2="725.47" y2="568.84" xlink:href="#linear-gradient-5"/><linearGradient id="linear-gradient-28" x1="730.18" y1="378.41" x2="730.18" y2="568.84" xlink:href="#linear-gradient-5"/><linearGradient id="linear-gradient-29" x1="764.23" y1="378.41" x2="764.23" y2="568.84" xlink:href="#linear-gradient-5"/><linearGradient id="linear-gradient-30" x1="751.69" y1="255.57" x2="727.69" y2="369.31" xlink:href="#linear-gradient-2"/><linearGradient id="linear-gradient-31" x1="749.59" y1="255.12" x2="725.59" y2="368.86" xlink:href="#linear-gradient-2"/><linearGradient id="linear-gradient-32" x1="739.37" y1="252.97" x2="715.37" y2="366.71" xlink:href="#linear-gradient-2"/><linearGradient id="linear-gradient-33" x1="675.91" y1="239.58" x2="651.91" y2="353.32" xlink:href="#linear-gradient-2"/><linearGradient id="linear-gradient-34" x1="802.29" y1="266.24" x2="778.29" y2="379.98" xlink:href="#linear-gradient-2"/><linearGradient id="linear-gradient-35" x1="832.95" y1="272.71" x2="808.95" y2="386.45" xlink:href="#linear-gradient-2"/></defs><g class="cls-6"><g id="Layer_2" data-name="Layer 2"><g class="cls-7"><polygon class="cls-8" points="816.26 5.99 677.02 145.23 577.52 45.73 459.52 163.73 408.52 112.73 254.02 267.23 171.02 184.23 0 355.25 24.04 355.25 171.02 208.27 254.02 291.27 408.52 136.77 459.52 187.77 577.52 69.77 677.02 169.27 828.28 18.01 816.26 5.99"/></g><polygon class="cls-8" points="834.27 51.5 817.27 51.5 817.27 17 782.77 17 782.77 0 834.27 0 834.27 51.5"/><path class="cls-9" d="M225.31,784.2l0,10.69-1.18,9-3.36,2.69-2.61,1-.64,1.55-8.73,7a16.31,16.31,0,0,1-10.24,1.52c-1.49-.22.19-4.37.65-5a72.2,72.2,0,0,1,6.76-7.85l6.44-9.52,7.2-11.85Z"/><path class="cls-9" d="M309.45,795.21l-1.95,4.45-.83,4.9.83,7.61,4.17.26,3.06-.93,2.16,1.25s11.87,1.32,16.26,1.09c7.29-.38,11.22-1.47,12.52-3,.73-.85-2.78-2.1-3.92-2.17-6.54-.44-13.68-4-13.68-4l-5.84-5.56-1.39-4.17Z"/><path class="cls-10" d="M320.53,411.66l-3.74-53.41S301.63,395.53,306.32,412,320.53,411.66,320.53,411.66Z"/><polygon class="cls-11" points="275.83 458.38 300.7 426.29 302.35 415.49 299.64 415.79 302.65 405.26 323.39 405.26 324.9 422.1 322.01 422.7 321.52 432.57 317.63 435.05 303.11 483.07 275.83 458.38"/><path class="cls-12" d="M228.63,462.93l52.67-10.76s45.1,7.21,45.1,99.22c0,.43-69.34,21.79-69.46,4.39C256.65,512.3,228.63,462.93,228.63,462.93Z"/><path class="cls-10" d="M186.31,443.34l-43.38-25.16s23.59,34,34.29,39.81S186.31,443.34,186.31,443.34Z"/><polygon class="cls-13" points="243.56 464.83 195.4 441.82 196.51 439.84 184.49 436.83 169.45 457.28 182.68 466 184.47 462.47 187.93 457.27 185.09 463.6 197.63 475.23 208.28 476.5 247.86 504.82 243.56 464.83"/><polygon class="cls-14" points="256.59 554.74 209.24 795.19 226.31 794.65 252.55 717.13 258.53 693.92 289.76 602.19 293.15 553 256.59 554.74"/><polygon class="cls-15" points="306.31 796.26 302.63 699.02 294.53 655.03 284.09 594.59 288.28 553.15 325.8 551.09 323.96 620.47 327.76 682.89 328.5 706.47 326.55 799.75 306.31 796.26"/><path class="cls-10" d="M151.29,423.78s2.79-8.66,1.35-10.83-7.25-9.72-7.25-9.72l-1.67-1.79s-3,.71.95,5.75.67,3.63.67,3.63L140,407.6l-6.87-3.44-2.84-1.91s-1.54-1.21-2.15-1.18c-1.77.06-1.06,1.37-1.06,1.37l10.43,8.35-11.74-5.12s-1.62-.4-2.12.3,0,.91,0,.91l11.9,8.88-6.35-2s-1.59-.36-2.12.3-.76.91-.76.91l23.44,10.92Z"/><path class="cls-10" d="M135.86,412.53l-8.48-3.13a7.4,7.4,0,0,0-2.92-.8,1.18,1.18,0,0,0-1.21,1.21l12.3,5.95Z"/><path class="cls-10" d="M315,369.67s-7.4-5.29-7.53-7.89,0-12.13,0-12.13l.27-2.43s2.85-1.22,2.67,5.18,1.63,3.31,1.63,3.31l2.37-5.77,3.46-6.85,1.14-3.23s.51-1.88,1-2.23c1.46-1,1.67.47,1.67.47L318.31,351l6.37-11.11s1.05-1.29,1.88-1,.54.73.54.73l-4.26,14.22,3.93-5.37s1.06-1.23,1.88-1,1.15.28,1.15.28l-12.29,22.74Z"/><path class="cls-10" d="M320.67,351.43l4.94-7.56a7.42,7.42,0,0,1,1.87-2.39,1.18,1.18,0,0,1,1.69.24l-6.33,12.12Z"/><path class="cls-10" d="M265.05,439.66c2.82,11.78,3.73,17.84,3.51,18.67-1.48,5.73-17.23,4.3-17.39,1s-5.62-16.72-6.87-18.55S263.38,432.68,265.05,439.66Z"/><path class="cls-10" d="M255,436.7a38.4,38.4,0,0,0-9.43,2.82c1.85,3.32,3.77,6.56,5.23,8.61,4.08,5.73,10.35,6,14.5,6.61a9.85,9.85,0,0,0,3-.12c-.29-2.11-1.22-6.48-3.25-15C264.29,436.49,259.67,436.06,255,436.7Z"/><path class="cls-10" d="M257.65,407.91l16,28.36s3.79,6.73,1.77,9.14-9.18,5.82-13.33,5.2-10.43-.88-14.51-6.6-11.66-20.68-11.66-20.68-.63-6,10-8.16S257.65,407.91,257.65,407.91Z"/><path class="cls-16" d="M252.8,401.56c1.43-.36,4.06-.57,5.75,1.27s1.56,6.28-.08,7.81-13.77,8.48-15.56,8.78-4.95,1.3-7.55-.28c-1.69-1,1.09-6.88,4.26-7.61C247.7,409.66,247.48,402.88,252.8,401.56Z"/><path class="cls-16" d="M238.56,417.51l6.92,12.26,2.7,7-1.44.81-2.64,1.49s-13.83-14.38-10.83-18.61S237.78,416.69,238.56,417.51Z"/><path class="cls-10" d="M247.26,438.92a2.2,2.2,0,0,1-.84,3l-1.12.64a2.21,2.21,0,0,1-3-.84l-2.53-4.49a2.2,2.2,0,0,1,.84-3l1.12-.63a2.22,2.22,0,0,1,3,.84Z"/><path class="cls-17" d="M266.81,461.13s30.89,32.56,38.82,76.79c.62,3.49-2,6.94-2,6.94l-6.15-3.34S282.81,493.24,266.81,461.13Z"/><polygon class="cls-18" points="266.39 460.9 267.61 468.41 250.63 460.81 251.06 458.78 266.39 460.9"/><polygon class="cls-19" points="268.67 456.08 273.46 463.73 266.51 460.72 268.67 456.08"/><polygon class="cls-20" points="507.09 658.58 499.03 662.21 491.65 659.9 487.43 637 501.6 636.67 507.09 658.58"/><polygon class="cls-21" points="567.91 652.84 570.51 668.61 552.61 670.73 550.95 649.31 567.91 652.84"/><path class="cls-9" d="M506.42,669.46l-12.16.24-.07-3.7L489,669.81l-30.65.6s.42-5,21-6.23c5.29-.31,8.84-7.58,8.84-7.58s2.6-2.43,6.67,3c1.06,1.43,12.13-1.56,12.13-1.56S508.19,665.46,506.42,669.46Z"/><path class="cls-9" d="M570.4,678.77l-12.16.53-.13-3.74-5.16,4-30.67,1.38s.34-5.12,20.94-6.84c5.28-.45,8.72-7.91,8.72-7.91s2.56-2.53,6.72,2.92c1.09,1.42,12.12-1.88,12.12-1.88S572.11,674.66,570.4,678.77Z"/><path class="cls-17" d="M561.05,355.07a283.39,283.39,0,0,0-36.35-11.13c-18.35-4.22-37.5-6-40.9-4.78-7,2.58-6.8,38.58-3.8,68.72a208.88,208.88,0,0,1,.52,34.76s56.12,30.45,60.37,30.08,15.26-11.59,14.27-20.78,5.35-64.51,12.67-72.78S571.76,357.1,561.05,355.07Z"/><path class="cls-22" d="M490,652.48l18.44.64L504,450.37,470.84,440.2S471,570.21,490,652.48Z"/><polygon class="cls-23" points="540.76 450.56 548.8 554.88 575.46 662.85 549.1 663.49 489.94 446.91 515.46 450.62 540.76 450.56"/><path class="cls-24" d="M520.55,454.27s-7.09-2.38-9.51-3c-15.41-3.68-34.73-18.77-34.73-18.77s-1.6,13.35-3.51,34.29l41.26,30.74Z"/><path class="cls-10" d="M543.54,316.1s-6.35,12.79-.79,26.28-32.27.81-32.27.81,12.79-11-6.14-21C494.25,316.79,540.88,310.5,543.54,316.1Z"/><path class="cls-25" d="M495.8,444c-2.31-.9-4.08-2.89-6.45-3.73-4.05-47.75,13.71-67.57,31.86-99.73l5.25,2.53C511.32,371,492.73,395.8,495.8,444Z"/><path class="cls-10" d="M542.27,303.72c-.29-9.75-15.08-25.1-20.06-22a18.43,18.43,0,0,0-5.17,4.55l-4.12,6.05a6.83,6.83,0,0,0-.8,1.42s-.06.06-.07.1l-11.56,25a1.53,1.53,0,0,0,.75,2l16.42,7.59c.71.33,13.43-3.29,15.73-4.47,2.72-1.18,5.26-1.63,6.91-2.88C542.4,319.51,542.54,312.46,542.27,303.72Z"/><polygon class="cls-10" points="522.11 290.36 523.29 303.37 524.47 316.39 512.61 310.91 502.4 303.2 511.42 297.89 522.11 290.36"/><path class="cls-16" d="M541.44,322.53,550.89,303s-2.24-8.57-13.09-15.82S522,280.07,522,280.07l-6.49.76.15,6.78,14,5.09-6.47,7.62L521.6,311.2l3.17,1.67,0,.3s1.69-5.89,6-7,5.59,3.44,2.69,6.38-3,4.26-3,4.26l2.87,5.64Z"/><polygon class="cls-26" points="523.76 338.41 521.1 344.17 512.53 350.11 508.21 340.54 514.38 333.49 523.76 338.41"/><polygon class="cls-27" points="544.44 341.56 545.39 349.58 528.51 354.59 521.1 344.17 523.76 338.41 544.44 341.56"/><path class="cls-28" d="M570.53,355.66,545,347.58s-28.58,53-17.41,78.42,8,35.29,5.48,49.57,1.55,29.6,1.55,29.6l32.56-30.93s5.26-9.35,2.36-17.13-12.1-25.95-9.71-48.54S567,359.82,570.53,355.66Z"/><path class="cls-29" d="M476,483.07s8.77-84,11.44-96.23c2.48-11.42,20.81-46.3,20.81-46.3l-25.55-3.85s-16.38,40.39-14.39,51.21c.59,3.26,1.57,27.78,3.09,37.66.84,5.42-11.28,37.35-7.34,41.57C468.5,471.92,477.51,483.58,476,483.07Z"/><path class="cls-30" d="M484,399.24a213,213,0,0,1,8.51-23.44c5.95-14.14,15.71-35.26,15.71-35.26l-16.13-1.63L483.8,354.3l5.57,4.33-8.94,9.26S481.19,385.13,484,399.24Z"/><path class="cls-31" d="M560.74,353l-8,20.77-10.91,7.54,4,11.16s-9.78,11-11.61,49.65c0,.49-15.91-32.7-.18-68.59,6-13.63,11-26,11-26Z"/><path class="cls-10" d="M418,319.82l-5.83-12.37-7.7-3.2L399.48,313l-2.31,6.9,2.27,4.89s9.56,5.26,15.28,3.31S418,319.82,418,319.82Z"/><path class="cls-32" d="M498.1,345.93s-19.2,36.93-31.93,35.44c-12.43-1.45-6.48-9.08-3.81-16.27s15.91-24.21,17.59-26.66C482.05,335.38,487.29,338.09,498.1,345.93Z"/><path class="cls-33" d="M467.71,365.68s5.05,10.28-.63,16.08-19.95-3.15-33.9-20.14a319.94,319.94,0,0,1-23.67-32.93l8.12-9.72S467.38,359.34,467.71,365.68Z"/><g class="cls-6"><path class="cls-34" d="M457.38,380.38c-.06.63-.11,1.25-.17,1.87C457.27,381.63,457.33,381,457.38,380.38Z"/><path class="cls-35" d="M441,317.73l-.61-.86Z"/><g class="cls-6"><g class="cls-36"><g class="cls-6"><path class="cls-37" d="M473.73,377.76l-16.35,2.62c-.05.63-.11,1.25-.17,1.87l16.36-2.62c.06-.62.11-1.25.16-1.87"/></g></g></g><g class="cls-6"><g class="cls-38"><g class="cls-6"><path class="cls-37" d="M472.49,387.16l-16.36,2.63c-.16.85-.33,1.71-.52,2.56L472,389.72c.19-.85.36-1.7.53-2.56"/></g></g></g><path class="cls-35" d="M472.49,387.16c-.17.87-.35,1.72-.53,2.56C472.15,388.87,472.32,388,472.49,387.16Z"/><g class="cls-6"><g class="cls-39"><g class="cls-6"><path class="cls-40" d="M470.72,394.64l-16.36,2.62c0,.06,0,.11,0,.16l16.35-2.62c0-.05,0-.11.05-.16"/></g></g></g><g class="cls-6"><g class="cls-41"><g class="cls-6"><path class="cls-42" d="M456.7,314.25l-16.35,2.62.61.86,16.35-2.63-.61-.85"/></g></g></g><g class="cls-6"><g class="cls-43"><g class="cls-6"><path class="cls-44" d="M452,308.47l-16.35,2.62q.56.62,1.08,1.23l16.35-2.62q-.52-.63-1.08-1.23"/></g></g></g><path class="cls-45" d="M422,300.08c-.82-.46-1.66-.88-2.49-1.27C420.32,299.21,421.15,299.62,422,300.08Z"/><g class="cls-6"><g class="cls-46"><g class="cls-6"><path class="cls-47" d="M462.41,412.89l-16.36,2.62-.54.81,16.35-2.62.55-.81"/></g></g></g><path class="cls-48" d="M462.41,412.89l-.55.81Z"/><g class="cls-6"><g class="cls-49"><g class="cls-6"><path class="cls-47" d="M461.25,414.55l-16.35,2.62a44.42,44.42,0,0,1-7.51,8l16.35-2.62a44.42,44.42,0,0,0,7.51-8"/></g></g></g><polygon class="cls-50" points="451.99 308.47 435.64 311.1 427.76 327.48 444.11 324.85 451.99 308.47"/><g class="cls-6"><g class="cls-51"><g class="cls-6"><path class="cls-52" d="M435.84,296.19l-16.35,2.62c.83.39,1.67.81,2.49,1.27l16.36-2.62c-.83-.46-1.67-.88-2.5-1.27"/></g></g></g><g class="cls-6"><g class="cls-53"><path class="cls-54" d="M434.69,317.24l-16.36,2.62a37.14,37.14,0,0,1,9.43,7.61l16.35-2.62a36.89,36.89,0,0,0-9.42-7.61"/></g></g><path class="cls-55" d="M453.07,309.7c-.35-.42-.71-.83-1.08-1.24a51.6,51.6,0,0,0-13.64-11l-3.66,19.78a36.89,36.89,0,0,1,9.42,7.61L452,308.47Q452.55,309.07,453.07,309.7Z"/><polygon class="cls-56" points="438.35 297.46 422 300.09 418.33 319.86 434.69 317.24 438.35 297.46"/><g class="cls-6"><g class="cls-57"><path class="cls-58" d="M419,314.14l-16.36,2.63a24.22,24.22,0,0,1,15.74,3.09l16.35-2.62a24.27,24.27,0,0,0-15.73-3.1"/></g></g><path class="cls-59" d="M443,368.26v-.11c0-1-.09-2-.16-2.94,0-.23,0-.46-.05-.69,0-.52-.1-1-.16-1.56-.08-.78-.17-1.56-.28-2.33-.06-.46-.13-.92-.2-1.38-.12-.77-.26-1.53-.4-2.28-.09-.44-.17-.87-.26-1.31-.19-.89-.4-1.79-.63-2.67-.07-.3-.14-.6-.22-.9-.31-1.18-.66-2.34-1-3.49-.28-.89-.59-1.76-.91-2.63-.08-.23-.17-.45-.26-.68-.27-.7-.55-1.4-.84-2.09l-.27-.65c-.38-.87-.77-1.72-1.18-2.55l-.15-.31c-.38-.75-.76-1.49-1.17-2.22l-.25-.47c-.44-.78-.89-1.54-1.36-2.29-.09-.15-.19-.3-.29-.45-.43-.68-.88-1.34-1.33-2l-.21-.31q-.76-1.06-1.56-2.07l-.36-.45c-.55-.67-1.11-1.33-1.69-2l16.35-2.62c.58.63,1.14,1.29,1.69,2l.37.45c.53.67,1.05,1.36,1.55,2.06l.22.32q.68,1,1.32,2c.1.15.2.3.29.45.47.75.92,1.51,1.36,2.29l.26.49c.39.71.78,1.44,1.14,2.18l.18.35a1.09,1.09,0,0,0,.08.15c.37.78.73,1.57,1.08,2.38.1.22.19.44.29.67.28.68.56,1.37.83,2.08.09.22.18.45.26.67.31.83.61,1.67.88,2.52,0,0,0,.08,0,.12q.56,1.72,1,3.48c.08.3.15.62.23.92.22.88.43,1.77.62,2.66,0,.16.08.3.11.46s.1.56.15.85c.14.75.28,1.51.4,2.27l.21,1.39c.1.77.19,1.54.27,2.32,0,.29.08.59.11.88s0,.46.05.69,0,.46.05.68c.08,1,.13,2,.16,3v0c0,1,0,2,0,2.93,0,.22,0,.44,0,.65s0,.43,0,.64c0,.79-.07,1.59-.12,2.39a62.16,62.16,0,0,1-.89,7c-.2,1.08-.42,2.13-.68,3.16a.07.07,0,0,1,0,.05c-.21.89-.45,1.74-.7,2.59l-.18.58c-.27.86-.55,1.7-.84,2.51l-.06.14c-.29.77-.6,1.52-.92,2.26-.07.17-.14.34-.22.51-.34.76-.69,1.49-1.06,2.21l-.16.3c-.34.64-.69,1.25-1.05,1.85l-.25.43L452,396c-.17.27-.36.52-.54.79s-.52.8-.8,1.18l-.73.95c-.28.35-.56.72-.85,1.06s-.52.58-.78.87-.6.65-.9,1l-.83.79-.94.85c-.11.08-.2.18-.3.26-.37.31-.74.59-1.11.87l-.11.08c-.55.4-1.11.77-1.68,1.13l-.44.25c-.49.3-1,.57-1.51.83l-.26.14-.11.05c-.55.26-1.1.49-1.66.7l-.39.14c-.6.22-1.21.42-1.82.58l-.23.06c-.33.09-.65.16-1,.23l-1,.18-16.35,2.63c.67-.11,1.33-.26,2-.42l.2-.05c.62-.16,1.23-.36,1.83-.58l.39-.15c.59-.22,1.18-.47,1.76-.75l.29-.15c.5-.25,1-.52,1.48-.8l.46-.28c.56-.35,1.12-.71,1.66-1.11l.12-.1c.48-.35.94-.73,1.4-1.11l1-.86c.28-.26.55-.51.82-.78s.61-.64.91-1,.52-.56.78-.86.57-.72.85-1.08.49-.61.73-.94.53-.77.8-1.17.49-.72.72-1.1l.24-.4c.37-.61.72-1.23,1.06-1.87.05-.1.11-.19.16-.3.37-.71.72-1.45,1.06-2.2.08-.17.15-.34.22-.52.32-.73.63-1.49.92-2.26l.05-.14c.3-.81.58-1.65.85-2.51.06-.19.12-.38.17-.58.26-.86.5-1.73.72-2.63s.48-2.09.68-3.16a60.34,60.34,0,0,0,.88-7c.08-1,.12-2,.14-3,0-.24,0-.47,0-.71C443,370.17,443,369.21,443,368.26Z"/><g class="cls-6"><g class="cls-60"><g class="cls-6"><path class="cls-47" d="M461.25,414.55l-16.35,2.62a44.42,44.42,0,0,1-7.51,8l16.35-2.62a44.42,44.42,0,0,0,7.51-8"/><path class="cls-61" d="M453.74,422.57l-16.35,2.62a36,36,0,0,1-7.58,4.85l16.36-2.62a36.63,36.63,0,0,0,7.57-4.85"/><path class="cls-62" d="M446.17,427.42,429.81,430a32,32,0,0,1-7.31,2.47l16.36-2.62a33.33,33.33,0,0,0,7.31-2.47"/><path class="cls-63" d="M438.86,429.89l-16.36,2.62c-.47.1-.94.18-1.42.26l16.35-2.62,1.43-.26"/></g></g></g><path class="cls-64" d="M473.83,376.48c1.57-22.12-4.49-44.67-16.52-61.38l-.61-.85c-.37-.5-.74-1-1.11-1.48s-.54-.69-.82-1c-.56-.7-1.12-1.38-1.7-2.05q-.52-.63-1.08-1.23l-7.88,16.38c10.34,11.34,16.34,29.65,15.09,47.35a62.16,62.16,0,0,1-.89,7c-4.54,24.49-22.47,36.45-40.06,26.73-7-3.87-12.86-10.61-17.13-18.84l-11.34,11.4c6.18,11.9,14.68,21.61,24.8,27.21,1.12.62,2.24,1.15,3.37,1.65l.86.38c.85.36,1.71.68,2.56,1l1.37.44,1.35.38c14.2,3.61,27.75-2.16,37.16-14.94.25-.33.43-.59.61-.85l.55-.81A62.83,62.83,0,0,0,470,397.08c.27-.83.48-1.56.69-2.28.13-.47.22-.75.31-1.06s.22-.89.34-1.33c.16-.64.33-1.29.48-2,.05-.24.1-.49.16-.74.18-.84.36-1.69.53-2.56.35-1.9.58-3.45.78-5,0-.21.06-.44.09-.66.08-.61.15-1.23.21-1.85s.1-1.25.16-1.87C473.76,377.33,473.79,376.91,473.83,376.48Z"/><polygon class="cls-65" points="396.19 303.3 379.84 305.92 389.19 323.94 405.55 321.31 396.19 303.3"/><g class="cls-6"><g class="cls-66"><g class="cls-6"><path class="cls-67" d="M398.49,301.14l-16.36,2.63a46.69,46.69,0,0,0-8.88,10.44l16.36-2.62a46.71,46.71,0,0,1,8.88-10.45"/></g></g></g><g class="cls-6"><g class="cls-66"><g class="cls-6"><path class="cls-68" d="M398.49,301.14l-16.36,2.63a46.69,46.69,0,0,0-8.88,10.44l16.36-2.62a46.71,46.71,0,0,1,8.88-10.45"/></g></g></g><g class="cls-6"><g class="cls-69"><g class="cls-6"><path class="cls-70" d="M415.46,292.74l-16.35,2.62c-.45.07-.9.15-1.34.25L414.12,293c.45-.1.89-.18,1.34-.25"/><path class="cls-58" d="M414.12,293l-16.35,2.62a30.39,30.39,0,0,0-6.94,2.35l16.35-2.63a30.85,30.85,0,0,1,6.94-2.34"/><path class="cls-58" d="M407.18,295.33,390.83,298a36.93,36.93,0,0,0-7.69,4.94l16.36-2.62a36.52,36.52,0,0,1,7.68-4.95"/><path class="cls-58" d="M399.5,300.28l-16.36,2.62-1,.87c-.77.67-1.54,1.39-2.29,2.15l16.35-2.62c.75-.76,1.52-1.48,2.3-2.16l1-.86"/></g></g></g><polygon class="cls-4" points="380.41 336.11 364.06 338.73 378.26 346.57 394.61 343.95 380.41 336.11"/><g class="cls-6"><g class="cls-71"><g class="cls-6"><path class="cls-72" d="M380.41,336.1l-16.35,2.63c-.22,1.16-.4,2.33-.57,3.49l16.35-2.62c.17-1.17.36-2.33.57-3.5"/></g></g></g><g class="cls-6"><g class="cls-73"><g class="cls-6"><path class="cls-74" d="M380.41,336.11l-16.35,2.62c-.22,1.16-.4,2.32-.57,3.49l16.35-2.62c.17-1.17.36-2.33.57-3.49"/></g></g></g><g class="cls-6"><g class="cls-75"><g class="cls-6"><path class="cls-68" d="M398.49,301.14l-16.36,2.63a46.69,46.69,0,0,0-8.88,10.44l16.36-2.62a46.71,46.71,0,0,1,8.88-10.45"/><path class="cls-76" d="M389.61,311.59l-16.36,2.62a66.75,66.75,0,0,0-8.23,20l16.35-2.63a66.55,66.55,0,0,1,8.24-20"/><path class="cls-4" d="M381.37,331.55,365,334.18c-.36,1.48-.68,3-1,4.54-.23,1.22-.42,2.44-.59,3.65l16.35-2.62c.18-1.22.37-2.43.59-3.65.29-1.55.62-3.07,1-4.55"/></g></g></g><g class="cls-6"><g class="cls-75"><path class="cls-77" d="M398.49,301.14l-16.36,2.63a46.69,46.69,0,0,0-8.88,10.44l16.36-2.62a46.71,46.71,0,0,1,8.88-10.45"/><path class="cls-77" d="M389.61,311.59l-16.36,2.62a66.75,66.75,0,0,0-8.23,20l16.35-2.63a66.55,66.55,0,0,1,8.24-20"/><path class="cls-77" d="M381.37,331.55,365,334.18c-.36,1.48-.68,3-1,4.54-.23,1.22.17-1.21,0,0l16.35-2.62c.18-1.22-.22,1.22,0,0,.29-1.55.62-3.07,1-4.55"/></g></g><path class="cls-78" d="M405.55,321.31l-9.36-18c.75-.76,1.52-1.48,2.3-2.16-8.63,7.44-15.22,19.46-18.09,35-.22,1.22-.41,2.43-.59,3.65l0-.15c.17-1.17.36-2.33.57-3.49l14.2,7.84C396.42,334.22,400.37,326.51,405.55,321.31Z"/><path class="cls-79" d="M438.35,297.46c-.85-.46-1.68-.87-2.51-1.27-13.41-6.44-26.34-4.73-37.35,4.95-.78.68-1.55,1.4-2.3,2.16l9.36,18c7.84-7.88,18.54-9.93,29.13-4.07Z"/><path class="cls-5" d="M373.43,401.06c-.59-1.13-1.17-2.28-1.71-3.45C372.27,398.77,372.83,399.92,373.43,401.06Z"/><g class="cls-6"><path class="cls-4" d="M363,349.48c0-.24.07-.54.1-.77,0,0,.42-3.29.43-3.52,0-.51.11-1.53.31-2.88l-.37.06c-.13.89-.24,1.78-.34,2.67,0,.14,0,.29-.05.43-.15,1.35-.28,2.7-.37,4a96.52,96.52,0,0,0,9,48.09c.55,1.16,1.11,2.31,1.71,3.45-.2-.39-.73-1.42-1.23-2.55-.58-1.31-3-6.91-3-6.94-.73-1.8-1.52-4.27-2.14-6.11a117.74,117.74,0,0,1-3-12.33A96.23,96.23,0,0,1,363,349.48Z"/><g class="cls-80"><g class="cls-6"><path class="cls-4" d="M379.81,339.75l-16.35,2.62c-.13.89-.24,1.78-.34,2.67,0,.14,0,.29-.05.43-.15,1.35-.28,2.7-.37,4-.08,1.18-.14,2.35-.19,3.53l16.36-2.63c0-1.17.1-2.35.18-3.52.1-1.35.22-2.7.37-4l.06-.43c.1-.89.2-1.79.33-2.67"/><path class="cls-4" d="M378.87,350.42l-16.36,2.63a98,98,0,0,0,.35,12.12l16.35-2.63a96.06,96.06,0,0,1-.34-12.12"/><path class="cls-4" d="M379.21,362.54l-16.35,2.63a95.8,95.8,0,0,0,1.56,10.51l16.35-2.62a98.45,98.45,0,0,1-1.56-10.52"/><path class="cls-4" d="M380.77,373.06l-16.35,2.62a97.13,97.13,0,0,0,2.79,10.56l16.35-2.62a97.13,97.13,0,0,1-2.79-10.56"/><path class="cls-4" d="M383.56,383.62l-16.35,2.62a96,96,0,0,0,4.51,11.37c.16.35.33.7.5,1L388.57,396l-.5-1a98.44,98.44,0,0,1-4.51-11.37"/><path class="cls-81" d="M388.57,396l-16.35,2.62c.39.81.79,1.61,1.21,2.41l16.35-2.62c-.42-.8-.82-1.61-1.21-2.41"/></g></g></g><polygon class="cls-82" points="401.12 387.05 384.77 389.68 373.43 401.07 389.78 398.45 401.12 387.05"/><path class="cls-83" d="M414.58,425.66c1.12.62,2.24,1.15,3.37,1.65l.86.38c.85.36,1.71.68,2.56,1l1.37.44,1.35.38h0l.7.16a32.72,32.72,0,0,0,12.62.5l-2.78.45.94-.08.53,0c.49-.05,1-.12,1.49-.2l.13,0h0l-16.35,2.63-.16,0c-.48.07-1,.14-1.46.19l-.63,0-1,.08c-.24,0-.47,0-.71,0l-.95,0-.74,0-.93,0-.76-.05-.92-.08-.78-.1-.92-.12-.79-.14-.91-.17-.8-.18-.65-.15-.28-.07-.25-.06c-.45-.12-.9-.24-1.35-.38l-1.38-.44c-.84-.29-1.7-.61-2.55-1l-.86-.38c-1.13-.5-2.25-1-3.37-1.66-10.12-5.59-18.62-15.31-24.8-27.21l16.35-2.62C396,410.35,404.46,420.06,414.58,425.66Z"/><g class="cls-6"><path class="cls-4" d="M379.48,342.42,363.12,345c0,.14,0,.29-.05.43l16.35-2.62Z"/><g class="cls-84"><g class="cls-6"><path class="cls-4" d="M379.48,342.42,363.12,345c0,.14,0,.29-.05.43l16.35-2.62.06-.43"/></g></g></g><g class="cls-6"><path class="cls-4" d="M379.48,342.42,363.12,345c0,.14,0,.29-.05.43l16.35-2.62Z"/><g class="cls-84"><g class="cls-6"><path class="cls-4" d="M379.48,342.42,363.12,345c0,.14,0,.29-.05.43l16.35-2.62.06-.43"/></g></g></g><g class="cls-6"><path class="cls-4" d="M363,349.48a96.23,96.23,0,0,0,1.11,23.65,117.74,117.74,0,0,0,3,12.33c.62,1.84,1.41,4.31,2.14,6.11,0,0,2.4,5.63,3,6.94.5,1.13,1,2.16,1.23,2.55l16.35-2.62c-.6-1.15-1.16-2.29-1.71-3.45a96.65,96.65,0,0,1-9-48.09c.1-1.35.22-2.7.37-4l.06-.43c.1-.89.2-1.79.33-2.67l-16,2.56c-.2,1.35-.29,2.37-.31,2.88,0,.23-.43,3.49-.43,3.52C363.06,348.94,363,349.24,363,349.48Z"/><g class="cls-85"><g class="cls-6"><path class="cls-4" d="M379.81,339.75l-16.35,2.62c-.13.89-.24,1.78-.34,2.67,0,.14,0,.29-.05.43-.15,1.35-.28,2.7-.37,4-.08,1.18-.14,2.35-.19,3.53l16.36-2.63c0-1.17.1-2.35.18-3.52.1-1.35.22-2.7.37-4l.06-.43c.1-.89.2-1.79.33-2.67"/><path class="cls-4" d="M378.87,350.42l-16.36,2.63a98,98,0,0,0,.35,12.12l16.35-2.63a96.06,96.06,0,0,1-.34-12.12"/><path class="cls-4" d="M379.21,362.54l-16.35,2.63a95.8,95.8,0,0,0,1.56,10.51l16.35-2.62a98.45,98.45,0,0,1-1.56-10.52"/><path class="cls-4" d="M380.77,373.06l-16.35,2.62a97.13,97.13,0,0,0,2.79,10.56l16.35-2.62a97.13,97.13,0,0,1-2.79-10.56"/><path class="cls-4" d="M383.56,383.62l-16.35,2.62a96,96,0,0,0,4.51,11.37c.16.35.33.7.5,1L388.57,396l-.5-1a98.44,98.44,0,0,1-4.51-11.37"/><path class="cls-81" d="M388.57,396l-16.35,2.62c.39.81.79,1.61,1.21,2.41l16.35-2.62c-.42-.8-.82-1.61-1.21-2.41"/></g></g></g><g class="cls-6"><path class="cls-5" d="M371.72,397.61c.54,1.17,1.12,2.32,1.71,3.45l16.35-2.62q-.88-1.71-1.71-3.45Z"/><g class="cls-86"><g class="cls-6"><path class="cls-5" d="M388.07,395l-16.35,2.62c.17.35.33.71.5,1.06l16.35-2.62c-.17-.36-.33-.71-.5-1.06"/><path class="cls-87" d="M388.57,396.05l-16.35,2.62c.39.8.8,1.6,1.21,2.39l16.35-2.62c-.41-.79-.81-1.59-1.21-2.39"/></g></g></g><path class="cls-5" d="M373.22,400.66l.21.4,16.35-2.62q-.88-1.71-1.71-3.45l-16.35,2.62C372.06,398.34,372.51,399.28,373.22,400.66Z"/><g class="cls-88"><g class="cls-6"><path class="cls-4" d="M388.07,395l-16.35,2.62c.17.35.33.71.5,1.06l16.35-2.62c-.17-.36-.33-.71-.5-1.06"/><path class="cls-4" d="M388.57,396.05l-16.35,2.62c.39.8.8,1.6,1.21,2.39l16.35-2.62c-.41-.79-.81-1.59-1.21-2.39"/></g></g><path class="cls-89" d="M401.12,387.05a69.36,69.36,0,0,1-7.39-36.14,62.26,62.26,0,0,1,.88-7l-14.2-7.86c-.21,1.17-.4,2.33-.57,3.5l0,.15c-.13.88-.23,1.78-.33,2.67l-.06.43c-.15,1.35-.27,2.7-.37,4a96.65,96.65,0,0,0,9,48.09c.55,1.16,1.11,2.3,1.71,3.45Z"/></g><path class="cls-10" d="M439.14,409a35.32,35.32,0,0,1-5.51-4c-2-1.69-4.07.73-4.07.73l-3.19,1.44.15-4.79,1.53-12.07,9-6.61s2.48.35,3.56,1.76,4,10.8,4,10.8Z"/><path class="cls-90" d="M574.28,359.17c.6,1.11,3.92,20.84-9.07,36-4.52,5.28-42.37,33.38-55.31,34.61s-12.58-9.15-10.12-15.33,11.76-11.13,24.42-22.86c13.13-12.16,21.58-21.64,27.41-26.18C560,358.88,569.05,349.51,574.28,359.17Z"/><path class="cls-91" d="M517.43,423.33s-.34,6.54-10.11,6.58c-2.7,0-7.9-1.29-11.86-2.39-18.29-5-58.26-17.24-58.26-17.24l8.6-16.54s38.35,7.42,46.69,9.33S519.45,404,517.43,423.33Z"/><rect class="cls-92" x="643.74" y="597.87" width="211.2" height="347.42"/><rect class="cls-93" x="643.74" y="597.87" width="45.5" height="347.42"/><rect class="cls-94" x="404.77" y="671.91" width="211.21" height="274.46"/><rect class="cls-95" x="404.77" y="671.91" width="45.5" height="274.46"/><rect class="cls-96" x="166.97" y="808.32" width="211.2" height="139.43"/><rect class="cls-97" x="166.97" y="808.32" width="45.5" height="139.43"/><path class="cls-98" d="M724.89,286.9s-2.77,13.83-44.31,5.86-38.12-17-38.12-17l-.65-10.64L663.41,242,675,251.62l-.55,2.3s1.66,2.66,4.43,2.66,14.78,3.4,38.6,4.46C728.5,261.53,725.45,284.24,724.89,286.9Z"/><path class="cls-99" d="M717.69,261.37l-1.4-.07A53.58,53.58,0,0,1,718,277.25s-.94,14.06-43.2,11.16a185.84,185.84,0,0,1-18.7-2.13c5.51,2.1,13.35,4.33,24.52,6.48,41.54,8,44.31-5.86,44.31-5.86C725.45,284.24,728.67,261.86,717.69,261.37Z"/><path class="cls-10" d="M663.41,244.88s-18.12-24.48,6.1-44.16c7.19-5.85-1.67-2.66-10,1.06s-25.49,22.35-23.82,41,3.88,25.53,11.07,28.19S663.41,244.88,663.41,244.88Z"/><polygon class="cls-10" points="669.13 197.74 687.96 190.82 691.84 197.74 687.4 204.12 682.42 203.06 677.99 205.19 669.13 197.74"/><path class="cls-100" d="M712.71,597.05s26-46.28,26.58-70.75a189,189,0,0,0-4.17-44l-23.52-6Z"/><path class="cls-101" d="M712.71,371.49l-1.11,104.8,22.15,12.23a151.08,151.08,0,0,0,15-56.92C750.37,399.68,712.71,371.49,712.71,371.49Z"/><path class="cls-102" d="M712.71,371.49,761.45,486.4l8.86,12.23,38.77,88.84,4.43,2.67S821.27,538,808,515.65,788,481.08,788,481.08L758.68,368.3Z"/><path class="cls-103" d="M711.05,373.08,760.34,372l20.49-68.63s13.3-41.49-12.18-42-54.84-.53-54.84-.53S696.65,275.73,711.05,373.08Z"/><path class="cls-10" d="M810.19,348.08l-19.94,58s24.37-20.22,30.46-33.52a166.15,166.15,0,0,0,9.42-27.66Z"/><polygon class="cls-10" points="793.46 403.41 779.61 415.64 773.52 404.47 777.39 404.47 780.16 399.68 788.47 402.88 793.46 403.41"/><path class="cls-10" d="M755.91,205.51S730.43,229.45,733.2,238A63.55,63.55,0,0,1,736.52,256c0,2.67-2.76,14.37-.55,13.84s16.61-5.32,18.28-9,4.43-14.9,4.43-14.9S780,235.4,775.59,220C774.32,215.47,758.13,204.44,755.91,205.51Z"/><path class="cls-17" d="M738.42,270.47s-22.33,38.51-16,81.12c.5,3.36,4.5,5.76,4.5,5.76l5.49-4.8S732,304.32,738.42,270.47Z"/><polygon class="cls-104" points="739.22 269.45 740.44 277.96 755.03 264.14 755.03 262.01 739.22 269.45"/><polygon class="cls-105" points="734.63 263.96 732.07 275.03 738.54 269.45 734.63 263.96"/><path class="cls-106" d="M673.36,266.57l3.39-7.16,1.18-3a6.25,6.25,0,0,1-3.44-2.54L673,259.73l-3,6.51-6.77,7.16Z"/><path class="cls-107" d="M777.51,301.27l28.8,44.15,3.88.53-1.11,3.73,20.87-1.6L834.56,330l-40.43-59.58s-12.6-11.45-33.24-8.51C745.94,264,775.29,297.54,777.51,301.27Z"/><path class="cls-108" d="M828.22,336.55s-12.89,6.19-19.72,9.17l1.69.23-1.11,3.73,7.21-.61,10.11-2.39.55-4.28h-3.13Z"/><path class="cls-9" d="M719.2,582.67l1.67,3.82.71,4.19-.71,6.53-3.58.22-2.62-.8-1.85,1.08s-10.18,1.12-14,.93c-6.25-.33-9.61-1.26-10.73-2.57-.63-.73,2.39-1.8,3.36-1.87,5.61-.37,14.71-3.42,14.71-3.42s4.23-3.22,5-4.77a27.52,27.52,0,0,0,1.77-4.86Z"/><path class="cls-9" d="M812.9,582.67l1.67,3.82.72,4.19-.72,6.53-3.57.22-2.63-.8-1.85,1.08s-10.18,1.12-13.94.93c-6.25-.33-9.62-1.26-10.74-2.57-.62-.73,2.39-1.8,3.37-1.87,5.6-.37,14.7-3.42,14.7-3.42s4.23-3.22,5-4.77a27.52,27.52,0,0,0,1.77-4.86Z"/><path class="cls-16" d="M775.5,245.36c3.43-3.1,9.22-9.62,10.5-13.75,1.52-4.89.15-8.83-8.25-18.72s-13.11-11.09-13.11-11.09-4.79-1.34-6.38-1c-1.85.36-5.61,3.37-5.42,5.25.47,4.62,15.7,10,15.7,10l-8.19,5.55-4.43,10,2.57,2.46,0,.29s3.19-5.19,7.55-5.08,4.41,4.81.86,6.84-4,3.28-4,3.28L758.12,245s-.6,3.58,1.21,4.24C762.78,250.53,772.78,247.83,775.5,245.36Z"/></g></g></svg>