<?xml version="1.0" encoding="utf-8"?>
<!-- Generator: Adobe Illustrator 25.2.1, SVG Export Plug-In . SVG Version: 6.00 Build 0)  -->
<svg version="1.1" id="Layer_2" xmlns="http://www.w3.org/2000/svg" width="250" xmlns:xlink="http://www.w3.org/1999/xlink" x="0px" y="0px"
	 viewBox="0 0 854.95 947.76" style="enable-background:new 0 0 854.95 947.76;" xml:space="preserve">
<style type="text/css">
	.st0{filter:url(#Adobe_OpacityMaskFilter);}
	.st1{filter:url(#Adobe_OpacityMaskFilter_1_);}
	.st2{mask:url(#SVGID_1_);fill:url(#SVGID_2_);}
	.st3{fill:#DDD6FF;}
	.st4{fill:#814D4D;}
	.st5{fill:#FFD6D6;}
	.st6{fill:url(#SVGID_3_);}
	.st7{fill:url(#SVGID_4_);}
	.st8{fill:url(#SVGID_5_);}
	.st9{fill:url(#SVGID_6_);}
	.st10{fill:url(#SVGID_7_);}
	.st11{fill:#450606;}
	.st12{fill:#FFFFFF;}
	.st13{fill:url(#SVGID_8_);}
	.st14{fill:url(#SVGID_9_);}
	.st15{fill:url(#SVGID_10_);}
	.st16{fill:url(#SVGID_11_);}
	.st17{fill:url(#SVGID_12_);}
	.st18{fill:url(#SVGID_13_);}
	.st19{fill:url(#SVGID_14_);}
	.st20{fill:url(#SVGID_15_);}
	.st21{fill:url(#SVGID_16_);}
	.st22{fill:url(#SVGID_17_);}
	.st23{fill:url(#SVGID_18_);}
	.st24{fill:url(#SVGID_19_);}
	.st25{fill:url(#SVGID_20_);}
	.st26{fill:url(#SVGID_21_);}
	.st27{fill:url(#SVGID_22_);}
	.st28{fill:url(#SVGID_23_);}
	.st29{enable-background:new    ;}
	.st30{fill:#A9B0B2;}
	.st31{fill:#5C5F60;}
	.st32{clip-path:url(#SVGID_25_);enable-background:new    ;}
	.st33{fill:#717677;}
	.st34{clip-path:url(#SVGID_27_);enable-background:new    ;}
	.st35{clip-path:url(#SVGID_29_);enable-background:new    ;}
	.st36{fill:#757A7B;}
	.st37{clip-path:url(#SVGID_31_);enable-background:new    ;}
	.st38{fill:#5F6364;}
	.st39{clip-path:url(#SVGID_33_);enable-background:new    ;}
	.st40{fill:#602150;}
	.st41{fill:#DFBB60;}
	.st42{clip-path:url(#SVGID_35_);enable-background:new    ;}
	.st43{fill:#957D40;}
	.st44{fill:#DEBB5F;}
	.st45{clip-path:url(#SVGID_37_);enable-background:new    ;}
	.st46{fill:#687582;}
	.st47{clip-path:url(#SVGID_39_);enable-background:new    ;}
	.st48{fill:#7D6936;}
	.st49{clip-path:url(#SVGID_41_);}
	.st50{fill:#A593C6;}
	.st51{fill:#D2BFEF;}
	.st52{fill:#7E2B69;}
	.st53{clip-path:url(#SVGID_43_);}
	.st54{fill:#8776B2;}
	.st55{fill:#DCDFFB;}
	.st56{clip-path:url(#SVGID_45_);enable-background:new    ;}
	.st57{fill:#90793E;}
	.st58{fill:#8B753C;}
	.st59{fill:#86713A;}
	.st60{fill:url(#SVGID_46_);}
	.st61{fill:#873317;}
	.st62{clip-path:url(#SVGID_48_);enable-background:new    ;}
	.st63{fill:#9E792F;}
	.st64{clip-path:url(#SVGID_50_);enable-background:new    ;}
	.st65{fill:#8D9497;}
	.st66{clip-path:url(#SVGID_52_);enable-background:new    ;}
	.st67{fill:#853216;}
	.st68{fill:#5F57C4;}
	.st69{clip-path:url(#SVGID_54_);enable-background:new    ;}
	.st70{fill:#2D9A82;}
	.st71{clip-path:url(#SVGID_56_);enable-background:new    ;}
	.st72{fill:#2D3137;}
	.st73{clip-path:url(#SVGID_58_);enable-background:new    ;}
	.st74{fill:#92989C;}
	.st75{clip-path:url(#SVGID_60_);}
	.st76{fill:#7665C1;}
	.st77{fill:#AA8EEF;}
	.st78{fill:#B89DEA;}
	.st79{fill:#5345BA;}
	.st80{clip-path:url(#SVGID_62_);enable-background:new    ;}
	.st81{fill:#256381;}
	.st82{fill:#63657C;}
	.st83{fill:#C7CDEA;}
	.st84{clip-path:url(#SVGID_64_);enable-background:new    ;}
	.st85{clip-path:url(#SVGID_66_);enable-background:new    ;}
	.st86{clip-path:url(#SVGID_68_);enable-background:new    ;}
	.st87{clip-path:url(#SVGID_70_);enable-background:new    ;}
	.st88{fill:#25262E;}
	.st89{clip-path:url(#SVGID_72_);enable-background:new    ;}
	.st90{fill:#7575EA;}
	.st91{fill:url(#SVGID_73_);}
	.st92{fill:url(#SVGID_74_);}
	.st93{fill:url(#SVGID_75_);}
	.st94{fill:url(#SVGID_76_);}
	.st95{fill:url(#SVGID_77_);}
	.st96{fill:url(#SVGID_78_);}
	.st97{fill:url(#SVGID_79_);}
	.st98{fill:url(#SVGID_80_);}
	.st99{fill:url(#SVGID_81_);}
	.st100{fill:url(#SVGID_82_);}
	.st101{fill:url(#SVGID_83_);}
	.st102{fill:url(#SVGID_84_);}
	.st103{fill:url(#SVGID_85_);}
	.st104{fill:url(#SVGID_86_);}
	.st105{fill:url(#SVGID_87_);}
	.st106{fill:url(#SVGID_88_);}
	.st107{fill:url(#SVGID_89_);}
	.st108{fill:url(#SVGID_90_);}
	.st109{fill:url(#SVGID_91_);}
</style>
<g>
	<g>
		<defs>
			<filter id="Adobe_OpacityMaskFilter" filterUnits="userSpaceOnUse" x="0" y="5.99" width="828.28" height="349.26">
				<feFlood  style="flood-color:white;flood-opacity:1" result="back"/>
				<feBlend  in="SourceGraphic" in2="back" mode="normal"/>
			</filter>
		</defs>
		<mask maskUnits="userSpaceOnUse" x="0" y="5.99" width="828.28" height="349.26" id="SVGID_1_">
			<g class="st0">
				<defs>
					<filter id="Adobe_OpacityMaskFilter_1_" filterUnits="userSpaceOnUse" x="0" y="5.99" width="828.28" height="349.26">
						<feFlood  style="flood-color:white;flood-opacity:1" result="back"/>
						<feBlend  in="SourceGraphic" in2="back" mode="normal"/>
					</filter>
				</defs>
				<mask maskUnits="userSpaceOnUse" x="0" y="5.99" width="828.28" height="349.26" id="SVGID_1_">
				</mask>
				<linearGradient id="SVGID_2_" gradientUnits="userSpaceOnUse" x1="0" y1="180.6194" x2="828.2822" y2="180.6194">
					<stop  offset="0" style="stop-color:#000000"/>
					<stop  offset="1" style="stop-color:#FFFFFF"/>
				</linearGradient>
				<polygon class="st2" points="816.26,5.99 677.02,145.23 577.52,45.73 459.52,163.73 408.52,112.73 254.02,267.23 171.02,184.23 
					0,355.25 24.04,355.25 171.02,208.27 254.02,291.27 408.52,136.77 459.52,187.77 577.52,69.77 677.02,169.27 828.28,18.01 				
					"/>
			</g>
		</mask>
		<polygon class="st3" points="816.26,5.99 677.02,145.23 577.52,45.73 459.52,163.73 408.52,112.73 254.02,267.23 171.02,184.23 
			0,355.25 24.04,355.25 171.02,208.27 254.02,291.27 408.52,136.77 459.52,187.77 577.52,69.77 677.02,169.27 828.28,18.01 		"/>
		<g>
			<polygon class="st3" points="834.27,51.5 817.27,51.5 817.27,17 782.77,17 782.77,0 834.27,0 			"/>
		</g>
	</g>
	<g>
		<g>
			<path class="st4" d="M225.31,784.2l0.02,10.69l-1.17,8.97l-3.36,2.68l-2.61,1.04l-0.64,1.55l-8.73,6.95
				c-2.4,1.31-5.89,2.18-10.24,1.52c-1.48-0.22,0.2-4.37,0.65-5.01c2.61-3.71,6.76-7.85,6.76-7.85l6.45-9.52l7.2-11.85L225.31,784.2
				z"/>
			<path class="st4" d="M309.45,795.21l-1.95,4.45l-0.83,4.9l0.83,7.61l4.17,0.26l3.06-0.93l2.16,1.25c0,0,11.87,1.31,16.27,1.09
				c7.29-0.38,11.21-1.47,12.52-2.99c0.73-0.85-2.79-2.11-3.92-2.18c-6.54-0.44-13.68-4-13.68-4l-5.84-5.56l-1.39-4.17
				L309.45,795.21z"/>
			<path class="st5" d="M320.53,411.66l-3.74-53.42c0,0-15.16,37.29-10.47,53.74C311.01,428.44,320.53,411.66,320.53,411.66z"/>
			<linearGradient id="SVGID_3_" gradientUnits="userSpaceOnUse" x1="298.6768" y1="428.4981" x2="325.8073" y2="524.759">
				<stop  offset="0" style="stop-color:#8647E1"/>
				<stop  offset="1" style="stop-color:#B78FED"/>
			</linearGradient>
			<polygon class="st6" points="275.83,458.38 300.7,426.29 302.35,415.49 299.64,415.79 302.65,405.26 323.39,405.26 324.9,422.1 
				322.01,422.7 321.52,432.57 317.64,435.05 303.11,483.07 			"/>
			<linearGradient id="SVGID_4_" gradientUnits="userSpaceOnUse" x1="262.3812" y1="438.7278" x2="289.5116" y2="534.9886">
				<stop  offset="0" style="stop-color:#8647E1"/>
				<stop  offset="1" style="stop-color:#B78FED"/>
			</linearGradient>
			<path class="st7" d="M228.63,462.93l52.67-10.76c0,0,45.1,7.22,45.1,99.22c0,0.43-69.34,21.79-69.46,4.39
				C256.64,512.3,228.63,462.93,228.63,462.93z"/>
			<path class="st5" d="M186.31,443.34l-43.38-25.16c0,0,23.58,33.97,34.29,39.81C187.93,463.83,186.31,443.34,186.31,443.34z"/>
			<linearGradient id="SVGID_5_" gradientUnits="userSpaceOnUse" x1="204.7921" y1="454.9588" x2="231.9225" y2="551.2197">
				<stop  offset="0" style="stop-color:#8647E1"/>
				<stop  offset="1" style="stop-color:#B78FED"/>
			</linearGradient>
			<polygon class="st8" points="243.57,464.83 195.4,441.82 196.51,439.84 184.49,436.83 169.45,457.28 182.68,466 184.47,462.47 
				187.93,457.27 185.09,463.59 197.63,475.23 208.28,476.5 247.86,504.82 			"/>
			<g>
				<linearGradient id="SVGID_6_" gradientUnits="userSpaceOnUse" x1="251.1968" y1="560.4948" x2="251.1968" y2="771.342">
					<stop  offset="0" style="stop-color:#5C5E60"/>
					<stop  offset="1" style="stop-color:#9FA1A4"/>
				</linearGradient>
				<polygon class="st9" points="256.59,554.74 209.24,795.19 226.31,794.65 252.55,717.12 258.53,693.92 289.76,602.19 293.15,553 
									"/>
				<linearGradient id="SVGID_7_" gradientUnits="userSpaceOnUse" x1="306.2933" y1="560.4948" x2="306.2933" y2="771.342">
					<stop  offset="0" style="stop-color:#5C5E60"/>
					<stop  offset="1" style="stop-color:#9FA1A4"/>
				</linearGradient>
				<polygon class="st10" points="306.31,796.26 302.63,699.02 294.53,655.03 284.09,594.59 288.28,553.16 325.8,551.09 
					323.96,620.47 327.76,682.89 328.5,706.47 326.55,799.75 				"/>
			</g>
			<g>
				<path class="st5" d="M151.29,423.78c0,0,2.79-8.66,1.35-10.82c-1.44-2.16-7.25-9.72-7.25-9.72l-1.67-1.79
					c0,0-3.01,0.71,0.95,5.75c3.96,5.05,0.67,3.63,0.67,3.63L140,407.6l-6.86-3.44l-2.85-1.91c0,0-1.53-1.2-2.14-1.18
					c-1.77,0.06-1.06,1.37-1.06,1.37l10.43,8.35l-11.74-5.12c0,0-1.61-0.41-2.12,0.3c-0.47,0.66,0,0.91,0,0.91l11.9,8.88l-6.35-1.97
					c0,0-1.59-0.36-2.12,0.3c-0.58,0.72-0.76,0.91-0.76,0.91l23.43,10.92L151.29,423.78z"/>
				<path class="st5" d="M135.86,412.53l-8.47-3.13c0,0-1.82-0.91-2.93-0.8c-1.27,0.11-1.21,1.21-1.21,1.21l12.31,5.95
					L135.86,412.53z"/>
			</g>
			<g>
				<path class="st5" d="M314.99,369.67c0,0-7.4-5.29-7.53-7.88c-0.13-2.6,0.01-12.13,0.01-12.13l0.27-2.43c0,0,2.85-1.22,2.67,5.18
					c-0.17,6.41,1.63,3.31,1.63,3.31l2.37-5.77l3.46-6.86l1.14-3.23c0,0,0.51-1.88,1.02-2.22c1.46-1,1.67,0.47,1.67,0.47
					l-3.39,12.92l6.37-11.11c0,0,1.05-1.29,1.88-1.02c0.78,0.25,0.54,0.73,0.54,0.73l-4.26,14.22l3.93-5.37c0,0,1.06-1.24,1.88-1.02
					c0.89,0.24,1.15,0.28,1.15,0.28l-12.3,22.74L314.99,369.67z"/>
				<path class="st5" d="M320.67,351.43l4.94-7.57c0,0,0.92-1.81,1.87-2.39c1.09-0.66,1.69,0.25,1.69,0.25l-6.33,12.12
					L320.67,351.43z"/>
			</g>
			<g>
				<path class="st5" d="M265.05,439.66c2.82,11.77,3.73,17.84,3.51,18.67c-1.49,5.73-17.23,4.3-17.39,1.01
					c-0.16-3.29-5.62-16.72-6.87-18.56C243.05,438.96,263.38,432.68,265.05,439.66z"/>
				<path class="st5" d="M254.97,436.7c-3.91,0.71-7.58,1.85-9.44,2.82c1.86,3.31,3.77,6.55,5.23,8.61
					c4.08,5.73,10.35,5.99,14.51,6.61c0.9,0.13,1.93,0.06,3.02-0.13c-0.28-2.1-1.21-6.48-3.25-14.95
					C264.29,436.49,259.67,436.06,254.97,436.7z"/>
				<path class="st5" d="M257.65,407.91l16.01,28.37c0,0,3.79,6.73,1.77,9.14c-2.02,2.41-9.18,5.82-13.33,5.2
					c-4.15-0.62-10.43-0.88-14.51-6.61c-4.07-5.73-11.67-20.68-11.67-20.68s-0.63-5.98,9.98-8.16
					C256.51,412.99,257.65,407.91,257.65,407.91z"/>
				<path class="st11" d="M252.8,401.56c1.43-0.36,4.06-0.56,5.75,1.27c1.74,1.9,1.56,6.28-0.08,7.81
					c-1.63,1.52-13.77,8.48-15.56,8.78c-1.78,0.3-4.95,1.3-7.55-0.29c-1.69-1.03,1.09-6.87,4.26-7.61
					C247.7,409.66,247.48,402.88,252.8,401.56z"/>
				<path class="st11" d="M238.56,417.51l6.92,12.26l2.7,7.03l-1.44,0.82l-2.64,1.49c0,0-13.82-14.39-10.82-18.62
					C236.28,416.27,237.78,416.69,238.56,417.51z"/>
				<path class="st5" d="M247.26,438.92c0.6,1.06,0.22,2.41-0.84,3.01l-1.12,0.64c-1.06,0.6-2.41,0.22-3.01-0.84l-2.53-4.49
					c-0.6-1.06-0.22-2.41,0.84-3.01l1.12-0.63c1.06-0.6,2.41-0.22,3.01,0.84L247.26,438.92z"/>
			</g>
			<path class="st12" d="M266.81,461.13c0,0,30.89,32.56,38.82,76.79c0.62,3.49-2.01,6.94-2.01,6.94l-6.15-3.35
				C297.47,541.52,282.81,493.24,266.81,461.13z"/>
			<linearGradient id="SVGID_8_" gradientUnits="userSpaceOnUse" x1="250.6336" y1="463.5967" x2="267.6116" y2="463.5967">
				<stop  offset="0" style="stop-color:#8647E1"/>
				<stop  offset="1" style="stop-color:#B78FED"/>
			</linearGradient>
			<polygon class="st13" points="266.39,460.9 267.61,468.41 250.63,460.81 251.06,458.78 			"/>
			<linearGradient id="SVGID_9_" gradientUnits="userSpaceOnUse" x1="266.5144" y1="459.9034" x2="273.459" y2="459.9034">
				<stop  offset="0" style="stop-color:#8647E1"/>
				<stop  offset="1" style="stop-color:#B78FED"/>
			</linearGradient>
			<polygon class="st14" points="268.67,456.08 273.46,463.73 266.51,460.72 			"/>
		</g>
		<g>
			<linearGradient id="SVGID_10_" gradientUnits="userSpaceOnUse" x1="496.981" y1="656.7724" x2="497.5027" y2="639.8159">
				<stop  offset="0" style="stop-color:#5C5E60"/>
				<stop  offset="1" style="stop-color:#9FA1A4"/>
			</linearGradient>
			<polygon class="st15" points="507.09,658.58 499.03,662.21 491.65,659.9 487.43,637 501.6,636.67 			"/>
			<linearGradient id="SVGID_11_" gradientUnits="userSpaceOnUse" x1="560.7394" y1="658.7342" x2="561.2612" y2="641.7776">
				<stop  offset="0" style="stop-color:#5C5E60"/>
				<stop  offset="1" style="stop-color:#9FA1A4"/>
			</linearGradient>
			<polygon class="st16" points="567.91,652.84 570.51,668.61 552.61,670.73 550.95,649.31 			"/>
			<path class="st4" d="M506.42,669.46l-12.16,0.24l-0.07-3.7l-5.21,3.8l-30.66,0.61c0,0,0.43-5.02,21.03-6.23
				c5.29-0.31,8.84-7.58,8.84-7.58s2.6-2.43,6.67,3.04c1.06,1.42,12.13-1.57,12.13-1.57S508.19,665.46,506.42,669.46z"/>
			<path class="st4" d="M570.4,678.77l-12.16,0.54l-0.13-3.75l-5.16,3.98l-30.67,1.38c0,0,0.34-5.12,20.94-6.84
				c5.28-0.45,8.72-7.91,8.72-7.91s2.55-2.53,6.72,2.92c1.09,1.42,12.12-1.88,12.12-1.88S572.11,674.66,570.4,678.77z"/>
			<path class="st12" d="M561.05,355.07c0,0-16.75-6.62-36.36-11.13c-18.35-4.22-37.5-6.03-40.89-4.78
				c-7.02,2.58-6.8,38.58-3.81,68.72c1.9,19.07,0.52,34.76,0.52,34.76s56.12,30.45,60.37,30.08c4.25-0.36,15.26-11.59,14.27-20.78
				c-0.99-9.2,5.35-64.51,12.67-72.78C575.14,370.9,571.76,357.1,561.05,355.07z"/>
			<linearGradient id="SVGID_12_" gradientUnits="userSpaceOnUse" x1="489.6321" y1="473.8861" x2="489.6321" y2="644.2713">
				<stop  offset="0" style="stop-color:#5C5E60"/>
				<stop  offset="1" style="stop-color:#9FA1A4"/>
			</linearGradient>
			<path class="st17" d="M489.98,652.48l18.45,0.65l-4.47-202.75l-33.1-10.18C470.84,440.2,470.97,570.21,489.98,652.48z"/>
			<linearGradient id="SVGID_13_" gradientUnits="userSpaceOnUse" x1="532.7012" y1="473.8861" x2="532.7012" y2="644.2713">
				<stop  offset="0" style="stop-color:#5C5E60"/>
				<stop  offset="1" style="stop-color:#9FA1A4"/>
			</linearGradient>
			<polygon class="st18" points="540.76,450.55 548.8,554.88 575.46,662.84 549.1,663.49 489.94,446.91 515.46,450.62 			"/>
			<linearGradient id="SVGID_14_" gradientUnits="userSpaceOnUse" x1="496.6743" y1="473.8861" x2="496.6743" y2="644.2713">
				<stop  offset="0" style="stop-color:#5C5E60"/>
				<stop  offset="1" style="stop-color:#9FA1A4"/>
			</linearGradient>
			<path class="st19" d="M520.55,454.27c0,0-7.09-2.39-9.51-2.96c-15.42-3.68-34.73-18.77-34.73-18.77s-1.6,13.35-3.52,34.3
				l41.26,30.73L520.55,454.27z"/>
			<g>
				<path class="st5" d="M543.54,316.1c0,0-6.35,12.79-0.79,26.28c5.56,13.49-32.26,0.81-32.26,0.81s12.79-10.98-6.14-21.04
					C494.25,316.79,540.88,310.5,543.54,316.1z"/>
				<linearGradient id="SVGID_15_" gradientUnits="userSpaceOnUse" x1="488.7659" y1="392.2403" x2="526.4609" y2="392.2403">
					<stop  offset="0" style="stop-color:#8647E1"/>
					<stop  offset="1" style="stop-color:#B78FED"/>
				</linearGradient>
				<path class="st20" d="M495.8,443.97c-2.31-0.9-4.08-2.88-6.45-3.72c-4.05-47.75,13.71-67.57,31.86-99.73
					c1.75,0.84,3.5,1.68,5.25,2.52C511.32,371.02,492.73,395.8,495.8,443.97z"/>
				<path class="st5" d="M542.27,303.72c-0.3-9.75-15.09-25.1-20.07-22c-2.14,1.33-3.94,2.88-5.17,4.55
					c-1.39,2.05-2.76,4.06-4.12,6.05c-0.33,0.44-0.58,0.92-0.8,1.43c-0.02,0.04-0.05,0.06-0.07,0.1l-11.56,25
					c-0.36,0.77-0.02,1.68,0.75,2.04l16.42,7.59c0.71,0.33,13.43-3.29,15.73-4.47c2.72-1.17,5.26-1.62,6.91-2.88
					C542.4,319.51,542.54,312.46,542.27,303.72z"/>
				<polygon class="st5" points="522.1,290.36 523.29,303.37 524.47,316.39 512.6,310.91 502.4,303.2 511.42,297.89 				"/>
				<path class="st11" d="M541.44,322.53l9.45-19.53c0,0-2.24-8.57-13.09-15.82c-10.85-7.24-15.76-7.11-15.76-7.11l-6.48,0.76
					l0.15,6.79l13.97,5.09l-6.47,7.62l-1.61,10.88l3.17,1.67l0.03,0.3c0,0,1.69-5.89,5.97-6.99c4.27-1.11,5.59,3.44,2.7,6.38
					c-2.9,2.94-3,4.26-3,4.26l2.87,5.64L541.44,322.53z"/>
				<linearGradient id="SVGID_16_" gradientUnits="userSpaceOnUse" x1="520.5826" y1="331.6469" x2="509.4305" y2="351.799">
					<stop  offset="0" style="stop-color:#FFDCFF"/>
					<stop  offset="1" style="stop-color:#FFFFFF"/>
				</linearGradient>
				<polygon class="st21" points="523.76,338.41 521.1,344.17 512.53,350.11 508.21,340.54 514.38,333.49 				"/>
				<linearGradient id="SVGID_17_" gradientUnits="userSpaceOnUse" x1="536.5256" y1="340.4697" x2="525.3735" y2="360.6218">
					<stop  offset="0" style="stop-color:#FFDCFF"/>
					<stop  offset="1" style="stop-color:#FFFFFF"/>
				</linearGradient>
				<polygon class="st22" points="544.44,341.56 545.39,349.58 528.51,354.59 521.1,344.17 523.76,338.41 				"/>
				<linearGradient id="SVGID_18_" gradientUnits="userSpaceOnUse" x1="560.1797" y1="355.4552" x2="539.0493" y2="490.4552">
					<stop  offset="0" style="stop-color:#5C5E60"/>
					<stop  offset="1" style="stop-color:#9FA1A4"/>
				</linearGradient>
				<path class="st23" d="M570.53,355.66l-25.54-8.08c0,0-28.58,52.99-17.41,78.42c11.17,25.43,8.05,35.3,5.48,49.58
					c-2.57,14.28,1.55,29.59,1.55,29.59l32.56-30.92c0,0,5.26-9.35,2.36-17.14c-2.9-7.78-12.1-25.95-9.71-48.54
					C562.22,385.99,566.98,359.82,570.53,355.66z"/>
				<linearGradient id="SVGID_19_" gradientUnits="userSpaceOnUse" x1="490.9035" y1="344.612" x2="469.7731" y2="479.612">
					<stop  offset="0" style="stop-color:#5C5E60"/>
					<stop  offset="1" style="stop-color:#9FA1A4"/>
				</linearGradient>
				<path class="st24" d="M475.96,483.07c0,0,8.77-83.96,11.44-96.23c2.48-11.41,20.82-46.29,20.82-46.29l-25.56-3.86
					c0,0-16.38,40.39-14.39,51.21c0.6,3.26,1.57,27.78,3.1,37.66c0.84,5.42-11.28,37.36-7.34,41.57
					C468.5,471.92,477.51,483.58,475.96,483.07z"/>
				<linearGradient id="SVGID_20_" gradientUnits="userSpaceOnUse" x1="495.7055" y1="345.3636" x2="474.5751" y2="480.3636">
					<stop  offset="0" style="stop-color:#5C5E60"/>
					<stop  offset="1" style="stop-color:#9FA1A4"/>
				</linearGradient>
				<path class="st25" d="M483.99,399.24c0,0,2.55-9.3,8.51-23.44c5.95-14.14,15.71-35.26,15.71-35.26l-16.14-1.64l-8.28,15.4
					l5.58,4.32l-8.94,9.26C480.43,367.89,481.19,385.13,483.99,399.24z"/>
				<linearGradient id="SVGID_21_" gradientUnits="userSpaceOnUse" x1="547.5462" y1="353.4778" x2="526.4158" y2="488.4778">
					<stop  offset="0" style="stop-color:#5C5E60"/>
					<stop  offset="1" style="stop-color:#9FA1A4"/>
				</linearGradient>
				<path class="st26" d="M560.74,353.02l-8.05,20.77l-10.91,7.54l4.03,11.16c0,0-9.78,10.97-11.61,49.65
					c-0.02,0.49-15.9-32.71-0.18-68.59c5.97-13.63,10.96-25.97,10.96-25.97L560.74,353.02z"/>
			</g>
			<g>
				<path class="st5" d="M417.95,319.82l-5.83-12.37l-7.7-3.2l-4.94,8.74l-2.32,6.9l2.28,4.89c0,0,9.56,5.26,15.28,3.3
					C420.44,326.12,417.95,319.82,417.95,319.82z"/>
				<linearGradient id="SVGID_22_" gradientUnits="userSpaceOnUse" x1="481.095" y1="343.0767" x2="459.9645" y2="478.0767">
					<stop  offset="0" style="stop-color:#5C5E60"/>
					<stop  offset="1" style="stop-color:#9FA1A4"/>
				</linearGradient>
				<path class="st27" d="M498.1,345.93c0,0-19.2,36.93-31.94,35.44c-12.43-1.45-6.48-9.08-3.8-16.28
					c2.68-7.2,15.9-24.21,17.59-26.66C482.05,335.38,487.29,338.09,498.1,345.93z"/>
				<linearGradient id="SVGID_23_" gradientUnits="userSpaceOnUse" x1="442.0143" y1="336.9597" x2="420.8839" y2="471.9597">
					<stop  offset="0" style="stop-color:#5C5E60"/>
					<stop  offset="1" style="stop-color:#9FA1A4"/>
				</linearGradient>
				<path class="st28" d="M467.71,365.68c0,0,5.05,10.28-0.63,16.08c-5.67,5.8-19.95-3.15-33.91-20.14
					c-13.96-16.99-23.67-32.93-23.67-32.93l8.12-9.72C417.63,318.97,467.38,359.34,467.71,365.68z"/>
			</g>
			<g>
				<g class="st29">
					<g>
						<path class="st30" d="M457.38,380.38c-0.05,0.62-0.1,1.25-0.16,1.87C457.27,381.63,457.33,381.01,457.38,380.38z"/>
					</g>
					<g>
						<path class="st31" d="M440.96,317.73c-0.2-0.29-0.41-0.57-0.62-0.85C440.55,317.15,440.76,317.44,440.96,317.73z"/>
					</g>
					<g class="st29">
						<defs>
							<path id="SVGID_24_" class="st29" d="M457.38,380.38c-0.05,0.62-0.1,1.25-0.16,1.87l16.35-2.62
								c0.06-0.62,0.11-1.24,0.16-1.87C468.82,378.55,462.28,379.59,457.38,380.38z"/>
						</defs>
						<clipPath id="SVGID_25_">
							<use xlink:href="#SVGID_24_"  style="overflow:visible;"/>
						</clipPath>
						<g class="st32">
							<path class="st33" d="M473.73,377.76l-16.35,2.62c-0.05,0.62-0.1,1.25-0.16,1.87l16.35-2.62
								C473.63,379.01,473.68,378.38,473.73,377.76"/>
						</g>
					</g>
					<g class="st29">
						<defs>
							<path id="SVGID_26_" class="st29" d="M472.49,387.16l-16.35,2.63c-0.17,0.85-0.34,1.71-0.52,2.56l16.35-2.62
								C472.15,388.88,472.32,388.02,472.49,387.16z"/>
						</defs>
						<clipPath id="SVGID_27_">
							<use xlink:href="#SVGID_26_"  style="overflow:visible;"/>
						</clipPath>
						<g class="st34">
							<path class="st33" d="M472.49,387.16l-16.35,2.63c-0.17,0.85-0.34,1.71-0.52,2.56l16.35-2.62
								C472.15,388.88,472.32,388.02,472.49,387.16"/>
						</g>
					</g>
					<g>
						<path class="st31" d="M472.49,387.16c-0.17,0.87-0.35,1.72-0.53,2.56C472.15,388.88,472.32,388.02,472.49,387.16z"/>
					</g>
					<g class="st29">
						<defs>
							<path id="SVGID_28_" class="st29" d="M470.72,394.64l-16.35,2.62c-0.02,0.06-0.03,0.11-0.05,0.16l16.35-2.62
								C470.69,394.75,470.7,394.69,470.72,394.64z"/>
						</defs>
						<clipPath id="SVGID_29_">
							<use xlink:href="#SVGID_28_"  style="overflow:visible;"/>
						</clipPath>
						<g class="st35">
							<path class="st36" d="M470.72,394.64l-16.35,2.62c-0.02,0.06-0.03,0.11-0.05,0.16l16.35-2.62
								C470.69,394.75,470.7,394.69,470.72,394.64"/>
						</g>
					</g>
					<g class="st29">
						<defs>
							<path id="SVGID_30_" class="st29" d="M440.35,316.88c0.21,0.28,0.41,0.56,0.62,0.85l16.35-2.62
								c-0.2-0.29-0.41-0.57-0.62-0.85C451.79,315.04,445.25,316.09,440.35,316.88z"/>
						</defs>
						<clipPath id="SVGID_31_">
							<use xlink:href="#SVGID_30_"  style="overflow:visible;"/>
						</clipPath>
						<g class="st37">
							<path class="st38" d="M456.7,314.25l-16.35,2.62c0.21,0.28,0.41,0.56,0.62,0.85l16.35-2.62
								C457.11,314.82,456.9,314.53,456.7,314.25"/>
						</g>
					</g>
					<g class="st29">
						<defs>
							<path id="SVGID_32_" class="st29" d="M435.64,311.09c0.37,0.4,0.73,0.81,1.08,1.23l16.35-2.62
								c-0.35-0.41-0.72-0.82-1.08-1.22C447.08,309.26,440.54,310.31,435.64,311.09z"/>
						</defs>
						<clipPath id="SVGID_33_">
							<use xlink:href="#SVGID_32_"  style="overflow:visible;"/>
						</clipPath>
						<g class="st39">
							<path class="st40" d="M451.99,308.47l-16.35,2.62c0.37,0.4,0.73,0.81,1.08,1.23l16.35-2.62
								C452.72,309.28,452.36,308.87,451.99,308.47"/>
						</g>
					</g>
					<g>
						<path class="st41" d="M421.98,300.08c-0.83-0.46-1.66-0.88-2.49-1.27C420.32,299.21,421.15,299.62,421.98,300.08z"/>
					</g>
					<g class="st29">
						<defs>
							<path id="SVGID_34_" class="st29" d="M446.05,415.51c-0.18,0.27-0.36,0.54-0.54,0.81l16.35-2.62
								c0.18-0.27,0.36-0.54,0.55-0.81C457.5,413.67,450.96,414.72,446.05,415.51z"/>
						</defs>
						<clipPath id="SVGID_35_">
							<use xlink:href="#SVGID_34_"  style="overflow:visible;"/>
						</clipPath>
						<g class="st42">
							<path class="st43" d="M462.41,412.89l-16.36,2.62c-0.18,0.27-0.36,0.54-0.54,0.81l16.35-2.62
								C462.05,413.43,462.23,413.16,462.41,412.89"/>
						</g>
					</g>
					<g>
						<path class="st44" d="M462.41,412.89c-0.18,0.27-0.36,0.54-0.55,0.81C462.05,413.43,462.23,413.16,462.41,412.89z"/>
					</g>
					<g class="st29">
						<defs>
							<path id="SVGID_36_" class="st29" d="M461.25,414.55c-4.91,0.79-11.45,1.84-16.35,2.62c1.3-0.2,2.61-0.4,3.91-0.6
								c4.11-0.63,8.22-1.26,12.34-1.88C461.18,414.64,461.22,414.6,461.25,414.55z"/>
						</defs>
						<clipPath id="SVGID_37_">
							<use xlink:href="#SVGID_36_"  style="overflow:visible;"/>
						</clipPath>
						<g class="st45">
							<path class="st43" d="M461.25,414.55l-16.35,2.62c-2.28,3.1-4.8,5.78-7.52,8.02l16.35-2.62
								C456.46,420.33,458.97,417.65,461.25,414.55"/>
						</g>
					</g>
					<g>
						<polygon class="st46" points="451.99,308.47 435.64,311.09 427.76,327.47 444.11,324.85 						"/>
					</g>
					<g class="st29">
						<defs>
							<path id="SVGID_38_" class="st29" d="M435.84,296.19l-16.35,2.62c0.83,0.39,1.67,0.81,2.49,1.27l16.35-2.62
								C437.51,297,436.67,296.58,435.84,296.19z"/>
						</defs>
						<clipPath id="SVGID_39_">
							<use xlink:href="#SVGID_38_"  style="overflow:visible;"/>
						</clipPath>
						<g class="st47">
							<path class="st48" d="M435.84,296.19l-16.35,2.62c0.83,0.39,1.67,0.81,2.49,1.27l16.35-2.62
								C437.51,297,436.67,296.58,435.84,296.19"/>
						</g>
					</g>
					<g class="st29">
						<defs>
							<path id="SVGID_40_" class="st29" d="M434.69,317.24l-16.35,2.62c3.43,1.89,6.59,4.49,9.43,7.61l16.35-2.62
								C441.28,321.73,438.12,319.13,434.69,317.24z"/>
						</defs>
						<clipPath id="SVGID_41_">
							<use xlink:href="#SVGID_40_"  style="overflow:visible;"/>
						</clipPath>
						<g class="st49">
							<path class="st50" d="M434.69,317.24l-16.35,2.62c3.43,1.89,6.59,4.49,9.43,7.61l16.35-2.62
								C441.28,321.73,438.12,319.13,434.69,317.24"/>
						</g>
					</g>
					<g>
						<path class="st51" d="M453.07,309.7c-0.36-0.42-0.72-0.83-1.08-1.23c-4.43-4.86-8.56-8.19-13.64-11l-3.66,19.78
							c3.44,1.89,6.59,4.5,9.43,7.61l7.88-16.38C452.36,308.87,452.72,309.28,453.07,309.7z"/>
					</g>
					<g>
						<polygon class="st52" points="438.35,297.46 422,300.09 418.33,319.86 434.69,317.24 						"/>
					</g>
					<g class="st29">
						<defs>
							<path id="SVGID_42_" class="st29" d="M418.95,314.14l-16.35,2.63c5.02-0.81,10.39,0.13,15.73,3.09l16.35-2.62
								C429.33,314.28,423.96,313.34,418.95,314.14z"/>
						</defs>
						<clipPath id="SVGID_43_">
							<use xlink:href="#SVGID_42_"  style="overflow:visible;"/>
						</clipPath>
						<g class="st53">
							<path class="st54" d="M418.95,314.14l-16.35,2.63c5.02-0.81,10.39,0.13,15.73,3.09l16.35-2.62
								C429.33,314.28,423.96,313.34,418.95,314.14"/>
						</g>
					</g>
					<path class="st55" d="M442.98,368.26c0-0.04,0-0.07,0-0.11c-0.03-0.98-0.09-1.96-0.15-2.94c-0.02-0.23-0.03-0.46-0.06-0.7
						c-0.04-0.52-0.1-1.04-0.16-1.56c-0.08-0.78-0.17-1.56-0.28-2.33c-0.06-0.47-0.13-0.92-0.2-1.38c-0.12-0.76-0.26-1.52-0.4-2.28
						c-0.08-0.44-0.16-0.87-0.26-1.31c-0.19-0.9-0.4-1.79-0.63-2.68c-0.07-0.3-0.14-0.6-0.22-0.9c-0.31-1.18-0.66-2.34-1.03-3.49
						c-0.29-0.89-0.59-1.76-0.91-2.63c-0.08-0.22-0.17-0.45-0.26-0.67c-0.27-0.71-0.55-1.41-0.84-2.1
						c-0.09-0.22-0.18-0.43-0.27-0.65c-0.38-0.87-0.77-1.72-1.17-2.55c-0.05-0.1-0.1-0.21-0.16-0.31c-0.37-0.75-0.76-1.49-1.16-2.22
						c-0.08-0.16-0.17-0.32-0.26-0.47c-0.44-0.78-0.89-1.54-1.36-2.29c-0.09-0.15-0.19-0.3-0.29-0.45
						c-0.43-0.68-0.88-1.34-1.33-1.99c-0.07-0.1-0.14-0.21-0.21-0.31c-0.51-0.71-1.03-1.39-1.56-2.07c-0.12-0.15-0.24-0.3-0.37-0.45
						c-0.55-0.67-1.1-1.33-1.68-1.97l16.35-2.62c0.58,0.63,1.13,1.29,1.68,1.96c0.12,0.15,0.25,0.3,0.37,0.46
						c0.53,0.67,1.05,1.35,1.56,2.06c0.07,0.1,0.15,0.21,0.22,0.32c0.45,0.64,0.89,1.3,1.32,1.98c0.1,0.15,0.2,0.3,0.29,0.45
						c0.47,0.75,0.92,1.51,1.35,2.29c0.09,0.16,0.18,0.32,0.27,0.49c0.39,0.72,0.77,1.44,1.14,2.18c0.06,0.11,0.12,0.23,0.17,0.35
						c0.03,0.05,0.05,0.1,0.08,0.15c0.38,0.78,0.74,1.58,1.09,2.38c0.1,0.22,0.19,0.44,0.28,0.67c0.29,0.68,0.57,1.38,0.84,2.08
						c0.08,0.23,0.17,0.45,0.26,0.68c0.31,0.83,0.61,1.66,0.88,2.51c0.01,0.04,0.03,0.09,0.04,0.13c0.37,1.15,0.71,2.31,1.03,3.48
						c0.08,0.3,0.15,0.61,0.22,0.91c0.22,0.88,0.43,1.77,0.62,2.66c0.03,0.16,0.08,0.31,0.11,0.46c0.06,0.28,0.1,0.57,0.15,0.85
						c0.14,0.75,0.28,1.51,0.4,2.28c0.08,0.46,0.14,0.92,0.21,1.39c0.11,0.77,0.2,1.54,0.28,2.31c0.03,0.3,0.08,0.59,0.11,0.89
						c0.02,0.23,0.03,0.46,0.05,0.68c0.02,0.23,0.04,0.46,0.05,0.68c0.07,0.98,0.13,1.97,0.16,2.96c0,0.02,0,0.04,0,0.05
						c0.03,0.98,0.03,1.95,0.01,2.93c0,0.22,0,0.44-0.01,0.65c-0.01,0.21,0,0.42-0.01,0.63c-0.03,0.8-0.07,1.6-0.13,2.39
						c-0.17,2.34-0.46,4.67-0.88,6.96c-0.2,1.08-0.43,2.13-0.68,3.16c0,0.02-0.01,0.03-0.01,0.05c-0.22,0.88-0.46,1.74-0.71,2.58
						c-0.06,0.2-0.12,0.39-0.18,0.59c-0.26,0.85-0.54,1.69-0.84,2.51c-0.02,0.05-0.04,0.09-0.06,0.14c-0.29,0.77-0.6,1.52-0.92,2.26
						c-0.07,0.17-0.15,0.34-0.22,0.51c-0.34,0.75-0.69,1.49-1.06,2.2c-0.05,0.1-0.11,0.2-0.16,0.31c-0.34,0.64-0.69,1.25-1.05,1.85
						c-0.08,0.14-0.17,0.28-0.25,0.42c-0.06,0.1-0.11,0.2-0.17,0.29c-0.17,0.27-0.36,0.52-0.54,0.79c-0.26,0.39-0.52,0.8-0.8,1.18
						c-0.24,0.33-0.48,0.63-0.73,0.95c-0.28,0.36-0.56,0.72-0.85,1.07c-0.25,0.3-0.52,0.58-0.78,0.87c-0.3,0.33-0.6,0.65-0.9,0.96
						c-0.27,0.27-0.55,0.53-0.83,0.79c-0.31,0.29-0.62,0.58-0.94,0.85c-0.1,0.09-0.2,0.19-0.3,0.27c-0.36,0.3-0.74,0.59-1.11,0.86
						c-0.04,0.03-0.07,0.06-0.11,0.08c-0.55,0.4-1.11,0.77-1.68,1.12c-0.14,0.09-0.29,0.17-0.44,0.26c-0.5,0.29-1,0.57-1.51,0.82
						c-0.09,0.05-0.17,0.09-0.27,0.14c-0.04,0.02-0.08,0.04-0.11,0.05c-0.54,0.26-1.1,0.48-1.66,0.7c-0.13,0.05-0.26,0.1-0.39,0.14
						c-0.6,0.22-1.2,0.41-1.81,0.58c-0.08,0.02-0.16,0.04-0.24,0.06c-0.32,0.09-0.65,0.16-0.97,0.23c-0.33,0.07-0.66,0.13-0.99,0.18
						l-16.35,2.62c0.67-0.11,1.33-0.25,1.99-0.42c0.07-0.02,0.13-0.03,0.2-0.05c0.62-0.16,1.23-0.36,1.83-0.58
						c0.13-0.05,0.26-0.1,0.39-0.14c0.59-0.23,1.18-0.48,1.76-0.75c0.1-0.05,0.2-0.1,0.29-0.15c0.5-0.25,0.99-0.52,1.48-0.8
						c0.15-0.09,0.3-0.18,0.46-0.27c0.56-0.35,1.12-0.71,1.67-1.12c0.04-0.03,0.08-0.06,0.12-0.09c0.48-0.35,0.94-0.73,1.39-1.11
						c0.32-0.28,0.64-0.57,0.95-0.86c0.27-0.26,0.55-0.51,0.82-0.78c0.31-0.31,0.61-0.64,0.91-0.97c0.26-0.28,0.52-0.56,0.77-0.86
						c0.29-0.35,0.58-0.71,0.86-1.07c0.24-0.31,0.49-0.62,0.72-0.94c0.27-0.38,0.54-0.78,0.8-1.17c0.24-0.37,0.49-0.72,0.72-1.1
						c0.08-0.13,0.16-0.27,0.24-0.41c0.37-0.61,0.72-1.23,1.06-1.87c0.05-0.1,0.11-0.2,0.16-0.3c0.37-0.71,0.72-1.45,1.06-2.21
						c0.08-0.17,0.15-0.34,0.22-0.51c0.32-0.73,0.63-1.49,0.92-2.26c0.02-0.05,0.03-0.09,0.05-0.14c0.3-0.81,0.58-1.66,0.84-2.51
						c0.06-0.19,0.12-0.38,0.18-0.58c0.26-0.86,0.5-1.74,0.72-2.64c0.25-1.03,0.48-2.08,0.68-3.16c0.43-2.3,0.72-4.63,0.88-6.96
						c0.07-1,0.11-2,0.14-3.01c0.01-0.23,0.01-0.46,0.01-0.7C443.01,370.17,443.01,369.21,442.98,368.26z"/>
					<g class="st29">
						<defs>
							<path id="SVGID_44_" class="st29" d="M444.9,417.17c-6.4,8.69-14.7,14.13-23.82,15.6l16.35-2.62
								c9.07-1.45,17.34-6.85,23.72-15.45c-2,0.3-4,0.61-6,0.91c-0.64,0.1-1.49,0.23-2.13,0.32c-0.32,0.05-0.75,0.12-1.07,0.17
								c-1.39,0.21-2.78,0.42-4.16,0.63c-0.3,0.05-0.7,0.11-1,0.16C446.23,416.97,445.39,416.87,444.9,417.17z"/>
						</defs>
						<clipPath id="SVGID_45_">
							<use xlink:href="#SVGID_44_"  style="overflow:visible;"/>
						</clipPath>
						<g class="st56">
							<path class="st43" d="M461.25,414.55l-16.35,2.62c-2.28,3.1-4.8,5.78-7.52,8.02l16.35-2.62
								C456.46,420.33,458.97,417.65,461.25,414.55"/>
							<path class="st57" d="M453.74,422.57l-16.35,2.62c-2.39,1.97-4.92,3.59-7.57,4.85l16.35-2.62
								C448.82,426.16,451.35,424.54,453.74,422.57"/>
							<path class="st58" d="M446.17,427.42l-16.35,2.62c-2.35,1.12-4.8,1.94-7.31,2.47l16.35-2.63
								C441.37,429.36,443.81,428.53,446.17,427.42"/>
							<path class="st59" d="M438.86,429.89l-16.35,2.63c-0.47,0.09-0.95,0.18-1.42,0.26l16.35-2.62
								C437.91,430.07,438.38,429.98,438.86,429.89"/>
						</g>
					</g>
					<g>
						<linearGradient id="SVGID_46_" gradientUnits="userSpaceOnUse" x1="421.4774" y1="421.3127" x2="449.6513" y2="342.5301">
							<stop  offset="0" style="stop-color:#DCDFFB"/>
							<stop  offset="1" style="stop-color:#F3F3FA"/>
						</linearGradient>
						<path class="st60" d="M473.83,376.48c1.57-22.12-4.49-44.66-16.51-61.38c-0.21-0.29-0.41-0.57-0.62-0.85
							c-0.36-0.5-0.73-1-1.11-1.49c-0.27-0.35-0.54-0.68-0.82-1.01c-0.55-0.7-1.12-1.38-1.69-2.05c-0.35-0.41-0.72-0.82-1.08-1.22
							l-7.88,16.38c10.34,11.34,16.34,29.65,15.08,47.35c-0.17,2.34-0.46,4.67-0.88,6.96c-4.54,24.49-22.48,36.45-40.07,26.72
							c-7-3.87-12.86-10.61-17.12-18.84l-11.34,11.4c6.18,11.9,14.68,21.62,24.79,27.21c1.12,0.61,2.24,1.15,3.37,1.65
							c0.29,0.13,0.57,0.26,0.86,0.38c0.85,0.36,1.71,0.68,2.56,0.97c0.46,0.15,0.92,0.3,1.38,0.44c0.45,0.14,0.9,0.26,1.35,0.38
							c14.2,3.61,27.75-2.15,37.16-14.94c0.24-0.33,0.42-0.59,0.61-0.85c0.18-0.27,0.36-0.54,0.55-0.81
							c3.06-4.51,5.63-9.81,7.57-15.81c0.26-0.83,0.48-1.56,0.69-2.28c0.13-0.47,0.22-0.76,0.31-1.06c0.12-0.44,0.22-0.9,0.34-1.34
							c0.16-0.64,0.33-1.28,0.48-1.95c0.05-0.24,0.1-0.49,0.16-0.74c0.18-0.84,0.36-1.69,0.53-2.56c0.35-1.9,0.58-3.46,0.79-5.02
							c0.03-0.21,0.06-0.44,0.09-0.66c0.08-0.61,0.14-1.23,0.2-1.85c0.06-0.62,0.11-1.25,0.16-1.87
							C473.76,377.33,473.79,376.91,473.83,376.48z"/>
					</g>
					<g>
						<polygon class="st61" points="396.19,303.3 379.84,305.92 389.19,323.94 405.55,321.31 						"/>
					</g>
					<g class="st29">
						<defs>
							<path id="SVGID_47_" class="st29" d="M382.13,303.77c-0.79,0.68-1.56,1.39-2.31,2.14c5.45-0.87,10.9-1.75,16.35-2.62
								c0.75-0.75,1.52-1.47,2.31-2.14C393.58,301.93,386.64,301.67,382.13,303.77z"/>
						</defs>
						<clipPath id="SVGID_48_">
							<use xlink:href="#SVGID_47_"  style="overflow:visible;"/>
						</clipPath>
						<g class="st62">
							<path class="st63" d="M398.49,301.14l-16.35,2.62c-3.29,2.84-6.28,6.34-8.88,10.44l16.35-2.62
								C392.21,307.48,395.2,303.98,398.49,301.14"/>
						</g>
					</g>
					<g class="st29">
						<defs>
							<path id="SVGID_49_" class="st29" d="M382.13,303.77c-0.79,0.68-1.56,1.39-2.31,2.14c5.45-0.87,10.9-1.75,16.35-2.62
								c0.75-0.75,1.52-1.47,2.31-2.14C393.58,301.93,386.64,301.67,382.13,303.77z"/>
						</defs>
						<clipPath id="SVGID_50_">
							<use xlink:href="#SVGID_49_"  style="overflow:visible;"/>
						</clipPath>
						<g class="st64">
							<path class="st65" d="M398.49,301.14l-16.35,2.62c-3.29,2.84-6.28,6.34-8.88,10.44l16.35-2.62
								C392.21,307.48,395.2,303.98,398.49,301.14"/>
						</g>
					</g>
					<g class="st29">
						<defs>
							<path id="SVGID_51_" class="st29" d="M415.46,292.74l-16.35,2.62c-5.99,0.96-11.71,3.77-16.97,8.41
								c-0.77,0.67-1.55,1.39-2.29,2.15l16.35-2.62c0.75-0.76,1.52-1.48,2.29-2.15C403.76,296.5,409.47,293.7,415.46,292.74z"/>
						</defs>
						<clipPath id="SVGID_52_">
							<use xlink:href="#SVGID_51_"  style="overflow:visible;"/>
						</clipPath>
						<g class="st66">
							<path class="st67" d="M415.46,292.74l-16.35,2.62c-0.45,0.07-0.89,0.15-1.34,0.25l16.35-2.62
								C414.57,292.89,415.01,292.81,415.46,292.74"/>
							<path class="st54" d="M414.12,292.99l-16.35,2.62c-2.36,0.49-4.68,1.28-6.94,2.35l16.35-2.62
								C409.44,294.26,411.76,293.48,414.12,292.99"/>
							<path class="st54" d="M407.18,295.33l-16.35,2.62c-2.64,1.25-5.21,2.9-7.68,4.95l16.35-2.62
								C401.97,298.23,404.54,296.58,407.18,295.33"/>
							<path class="st54" d="M399.5,300.28l-16.35,2.62c-0.34,0.28-0.68,0.57-1.01,0.87c-0.77,0.67-1.55,1.39-2.29,2.15l16.35-2.62
								c0.75-0.76,1.52-1.48,2.29-2.15C398.82,300.85,399.16,300.56,399.5,300.28"/>
						</g>
					</g>
					<g>
						<polygon class="st68" points="380.41,336.11 364.06,338.73 378.26,346.57 394.61,343.95 						"/>
					</g>
					<g class="st29">
						<defs>
							<path id="SVGID_53_" class="st29" d="M380.41,336.1l-16.35,2.62c-0.22,1.17-0.4,2.33-0.57,3.49l16.35-2.62
								C380.01,338.43,380.2,337.27,380.41,336.1z"/>
						</defs>
						<clipPath id="SVGID_54_">
							<use xlink:href="#SVGID_53_"  style="overflow:visible;"/>
						</clipPath>
						<g class="st69">
							<path class="st70" d="M380.41,336.1l-16.35,2.62c-0.22,1.17-0.4,2.33-0.57,3.49l16.35-2.62
								C380.01,338.43,380.2,337.27,380.41,336.1"/>
						</g>
					</g>
					<g class="st29">
						<defs>
							<path id="SVGID_55_" class="st29" d="M380.41,336.11l-16.35,2.62c-0.22,1.16-0.4,2.32-0.57,3.48l16.35-2.62
								C380.01,338.43,380.2,337.27,380.41,336.11z"/>
						</defs>
						<clipPath id="SVGID_56_">
							<use xlink:href="#SVGID_55_"  style="overflow:visible;"/>
						</clipPath>
						<g class="st71">
							<path class="st72" d="M380.41,336.11l-16.35,2.62c-0.22,1.16-0.4,2.32-0.57,3.48l16.35-2.62
								C380.01,338.43,380.2,337.27,380.41,336.11"/>
						</g>
					</g>
					<g class="st29">
						<defs>
							<path id="SVGID_57_" class="st29" d="M364.05,338.72c-0.23,1.21-0.42,2.43-0.59,3.65l16.35-2.63
								c0.17-1.22,0.36-2.43,0.59-3.65c2.61-14.08,8.29-25.29,15.78-32.81c-5.45,0.88-10.9,1.75-16.35,2.62
								C372.34,313.43,366.66,324.64,364.05,338.72z"/>
						</defs>
						<clipPath id="SVGID_58_">
							<use xlink:href="#SVGID_57_"  style="overflow:visible;"/>
						</clipPath>
						<g class="st73">
							<path class="st65" d="M398.49,301.14l-16.35,2.62c-3.29,2.84-6.28,6.34-8.88,10.44l16.35-2.62
								C392.21,307.48,395.2,303.98,398.49,301.14"/>
							<path class="st74" d="M389.61,311.59l-16.35,2.62c-3.54,5.59-6.36,12.3-8.23,19.97l16.35-2.63
								C383.24,323.88,386.06,317.18,389.61,311.59"/>
							<path class="st68" d="M381.37,331.55l-16.35,2.63c-0.36,1.48-0.68,3-0.97,4.55c-0.23,1.21-0.42,2.43-0.59,3.65l16.35-2.63
								c0.17-1.22,0.36-2.43,0.59-3.65C380.69,334.55,381.02,333.03,381.37,331.55"/>
						</g>
					</g>
					<g class="st29">
						<defs>
							<path id="SVGID_59_" class="st29" d="M364.05,338.72c-0.23,1.21-0.42,2.43-0.59,3.65l16.35-2.63
								c0.17-1.22,0.36-2.43,0.59-3.65c2.61-14.08,8.29-25.29,15.78-32.81c-5.45,0.88-10.9,1.75-16.35,2.62
								C372.34,313.43,366.66,324.64,364.05,338.72z"/>
						</defs>
						<clipPath id="SVGID_60_">
							<use xlink:href="#SVGID_59_"  style="overflow:visible;"/>
						</clipPath>
						<g class="st75">
							<path class="st76" d="M398.49,301.14l-16.35,2.62c-3.29,2.84-6.28,6.34-8.88,10.44l16.35-2.62
								C392.21,307.48,395.2,303.98,398.49,301.14"/>
							<path class="st76" d="M389.61,311.59l-16.35,2.62c-3.54,5.59-6.36,12.3-8.23,19.97l16.35-2.63
								C383.24,323.88,386.06,317.18,389.61,311.59"/>
							<path class="st76" d="M381.37,331.55l-16.35,2.63c-0.36,1.48-0.68,3-0.97,4.55c-0.23,1.21,0.17-1.22,0,0l16.35-2.63
								c0.17-1.22-0.23,1.22,0,0C380.69,334.55,381.02,333.03,381.37,331.55"/>
						</g>
					</g>
					<g>
						<path class="st77" d="M405.55,321.31l-9.35-18.01c0.75-0.76,1.52-1.48,2.29-2.15c-8.63,7.44-15.21,19.46-18.08,34.95
							c-0.23,1.22-0.42,2.43-0.59,3.65l0.02-0.15c0.17-1.17,0.36-2.32,0.57-3.49l14.21,7.84
							C396.42,334.22,400.37,326.51,405.55,321.31z"/>
					</g>
					<g>
						<path class="st78" d="M438.35,297.46c-0.85-0.46-1.68-0.88-2.51-1.28c-13.41-6.43-26.34-4.73-37.36,4.96
							c-0.77,0.68-1.54,1.4-2.29,2.15l9.35,18.01c7.85-7.88,18.54-9.93,29.13-4.07L438.35,297.46z"/>
					</g>
					<g>
						<path class="st79" d="M373.43,401.06c-0.59-1.13-1.16-2.28-1.71-3.45C372.27,398.77,372.83,399.92,373.43,401.06z"/>
					</g>
					<g class="st29">
						<defs>
							<path id="SVGID_61_" class="st29" d="M362.99,349.48c0.02-0.23,0.07-0.54,0.1-0.77c0-0.03,0.42-3.29,0.43-3.52
								c0.01-0.51,0.1-1.53,0.3-2.88l-0.36,0.06c-0.14,0.88-0.24,1.78-0.34,2.67c-0.02,0.14-0.03,0.29-0.05,0.43
								c-0.15,1.35-0.28,2.7-0.37,4.05c-1.17,16.47,1.89,32.96,9.02,48.09c0.55,1.16,1.11,2.3,1.71,3.45
								c-0.2-0.39-0.73-1.43-1.23-2.55c-0.58-1.31-2.96-6.91-2.97-6.94c-0.73-1.8-1.52-4.27-2.14-6.12
								c-1.21-3.61-2.23-8.6-2.98-12.33c-0.73-3.58-1.14-8.47-1.31-12.12C362.63,357.55,362.67,352.92,362.99,349.48z"/>
						</defs>
						<use xlink:href="#SVGID_61_"  style="overflow:visible;fill:#5F57C4;"/>
						<clipPath id="SVGID_62_">
							<use xlink:href="#SVGID_61_"  style="overflow:visible;"/>
						</clipPath>
						<g class="st80">
							<path class="st68" d="M379.81,339.75l-16.35,2.63c-0.14,0.88-0.24,1.78-0.34,2.67c-0.02,0.14-0.03,0.29-0.05,0.43
								c-0.15,1.35-0.28,2.7-0.37,4.05c-0.08,1.17-0.14,2.35-0.19,3.53l16.35-2.62c0.04-1.17,0.1-2.35,0.18-3.53
								c0.1-1.35,0.22-2.69,0.37-4.05c0.02-0.14,0.04-0.29,0.05-0.43C379.58,341.53,379.68,340.63,379.81,339.75"/>
							<path class="st68" d="M378.87,350.42l-16.35,2.62c-0.14,4.05-0.02,8.09,0.35,12.12l16.35-2.62
								C378.84,358.52,378.73,354.47,378.87,350.42"/>
							<path class="st68" d="M379.21,362.54l-16.35,2.62c0.33,3.53,0.84,7.04,1.56,10.52l16.35-2.62
								C380.06,369.58,379.54,366.07,379.21,362.54"/>
							<path class="st68" d="M380.77,373.06l-16.35,2.62c0.73,3.56,1.66,7.09,2.79,10.56l16.35-2.62
								C382.43,380.15,381.5,376.62,380.77,373.06"/>
							<path class="st68" d="M383.56,383.62l-16.35,2.62c1.25,3.86,2.76,7.66,4.51,11.37c0.16,0.35,0.33,0.7,0.5,1.04l16.35-2.62
								c-0.17-0.34-0.33-0.69-0.5-1.04C386.32,391.27,384.82,387.48,383.56,383.62"/>
							<path class="st81" d="M388.57,396.03l-16.35,2.62c0.39,0.81,0.79,1.61,1.21,2.41l16.35-2.62
								C389.36,397.64,388.96,396.83,388.57,396.03"/>
						</g>
					</g>
					<g>
						<polygon class="st82" points="401.12,387.05 384.77,389.67 373.43,401.07 389.78,398.45 						"/>
					</g>
					<path class="st83" d="M414.58,425.66c1.12,0.61,2.24,1.15,3.37,1.65c0.29,0.13,0.57,0.26,0.86,0.38
						c0.85,0.36,1.71,0.68,2.56,0.97c0.46,0.15,0.92,0.3,1.38,0.44c0.45,0.14,0.9,0.26,1.35,0.38l0,0c0.01,0,0.01,0,0.02,0
						c0.24,0.06,0.47,0.11,0.7,0.16c4.3,1,8.54,1.15,12.61,0.5c-0.93,0.15-1.85,0.3-2.78,0.45c0.31-0.02,0.63-0.05,0.94-0.08
						c0.17-0.01,0.35-0.02,0.53-0.04c0.5-0.05,0.99-0.12,1.49-0.2c0.04,0,0.09-0.01,0.14-0.01h-0.01c0,0,0,0,0.01,0l-16.35,2.62
						c-0.05,0.01-0.11,0.01-0.16,0.02c-0.48,0.07-0.97,0.14-1.47,0.19c-0.21,0.02-0.42,0.03-0.62,0.05
						c-0.34,0.03-0.68,0.06-1.02,0.08c-0.23,0.02-0.47,0.01-0.71,0.02c-0.32,0.01-0.63,0.02-0.95,0.02c-0.24,0-0.49-0.01-0.74-0.02
						c-0.31-0.01-0.62-0.01-0.93-0.03c-0.25-0.01-0.5-0.04-0.76-0.05c-0.31-0.03-0.62-0.05-0.92-0.08
						c-0.26-0.03-0.52-0.06-0.78-0.09c-0.3-0.04-0.61-0.08-0.91-0.12c-0.26-0.04-0.52-0.09-0.79-0.14c-0.3-0.05-0.61-0.11-0.91-0.17
						c-0.27-0.06-0.54-0.12-0.8-0.18c-0.22-0.05-0.43-0.1-0.65-0.15c-0.09-0.02-0.18-0.05-0.27-0.07c-0.08-0.02-0.17-0.03-0.26-0.06
						c-0.45-0.12-0.89-0.25-1.34-0.38c-0.46-0.14-0.92-0.29-1.38-0.44c-0.84-0.29-1.7-0.61-2.56-0.97
						c-0.28-0.12-0.57-0.25-0.86-0.38c-1.13-0.5-2.25-1.04-3.37-1.65c-10.12-5.59-18.62-15.31-24.8-27.21l16.35-2.62
						C395.96,410.35,404.46,420.07,414.58,425.66z"/>
					<g class="st29">
						<defs>
							<path id="SVGID_63_" class="st29" d="M379.48,342.42l-16.35,2.62c-0.02,0.14-0.03,0.29-0.05,0.43l16.35-2.62
								C379.44,342.71,379.46,342.56,379.48,342.42z"/>
						</defs>
						<use xlink:href="#SVGID_63_"  style="overflow:visible;fill:#5F57C4;"/>
						<clipPath id="SVGID_64_">
							<use xlink:href="#SVGID_63_"  style="overflow:visible;"/>
						</clipPath>
						<g class="st84">
							<path class="st68" d="M379.48,342.42l-16.35,2.62c-0.02,0.14-0.03,0.29-0.05,0.43l16.35-2.62
								C379.44,342.71,379.46,342.56,379.48,342.42"/>
						</g>
					</g>
					<g class="st29">
						<defs>
							<path id="SVGID_65_" class="st29" d="M379.48,342.42l-16.35,2.62c-0.02,0.14-0.03,0.29-0.05,0.43l16.35-2.62
								C379.44,342.71,379.46,342.56,379.48,342.42z"/>
						</defs>
						<use xlink:href="#SVGID_65_"  style="overflow:visible;fill:#5F57C4;"/>
						<clipPath id="SVGID_66_">
							<use xlink:href="#SVGID_65_"  style="overflow:visible;"/>
						</clipPath>
						<g class="st85">
							<path class="st68" d="M379.48,342.42l-16.35,2.62c-0.02,0.14-0.03,0.29-0.05,0.43l16.35-2.62
								C379.44,342.71,379.46,342.56,379.48,342.42"/>
						</g>
					</g>
					<g class="st29">
						<defs>
							<path id="SVGID_67_" class="st29" d="M362.99,349.48c-0.32,3.45-0.36,8.08-0.19,11.53c0.17,3.65,0.58,8.54,1.31,12.12
								c0.76,3.73,1.77,8.72,2.98,12.33c0.62,1.84,1.41,4.31,2.14,6.12c0.01,0.03,2.39,5.62,2.97,6.94c0.5,1.13,1.03,2.16,1.23,2.55
								l16.35-2.62c-0.6-1.15-1.16-2.29-1.71-3.45c-7.12-15.13-10.19-31.63-9.02-48.09c0.1-1.35,0.22-2.69,0.37-4.05
								c0.02-0.14,0.04-0.29,0.05-0.43c0.1-0.89,0.2-1.79,0.34-2.67c-4.79,0.77-11.19,1.79-15.99,2.56c-0.2,1.35-0.29,2.37-0.3,2.88
								c-0.01,0.23-0.43,3.49-0.43,3.52C363.06,348.94,363.01,349.24,362.99,349.48z"/>
						</defs>
						<use xlink:href="#SVGID_67_"  style="overflow:visible;fill:#5F57C4;"/>
						<clipPath id="SVGID_68_">
							<use xlink:href="#SVGID_67_"  style="overflow:visible;"/>
						</clipPath>
						<g class="st86">
							<path class="st68" d="M379.81,339.75l-16.35,2.63c-0.14,0.88-0.24,1.78-0.34,2.67c-0.02,0.14-0.03,0.29-0.05,0.43
								c-0.15,1.35-0.28,2.7-0.37,4.05c-0.08,1.17-0.14,2.35-0.19,3.53l16.35-2.62c0.04-1.17,0.1-2.35,0.18-3.53
								c0.1-1.35,0.22-2.69,0.37-4.05c0.02-0.14,0.04-0.29,0.05-0.43C379.58,341.53,379.68,340.63,379.81,339.75"/>
							<path class="st68" d="M378.87,350.42l-16.35,2.62c-0.14,4.05-0.02,8.09,0.35,12.12l16.35-2.62
								C378.84,358.52,378.73,354.47,378.87,350.42"/>
							<path class="st68" d="M379.21,362.54l-16.35,2.62c0.33,3.53,0.84,7.04,1.56,10.52l16.35-2.62
								C380.06,369.58,379.54,366.07,379.21,362.54"/>
							<path class="st68" d="M380.77,373.06l-16.35,2.62c0.73,3.56,1.66,7.09,2.79,10.56l16.35-2.62
								C382.43,380.15,381.5,376.62,380.77,373.06"/>
							<path class="st68" d="M383.56,383.62l-16.35,2.62c1.25,3.86,2.76,7.66,4.51,11.37c0.16,0.35,0.33,0.7,0.5,1.04l16.35-2.62
								c-0.17-0.34-0.33-0.69-0.5-1.04C386.32,391.27,384.82,387.48,383.56,383.62"/>
							<path class="st81" d="M388.57,396.03l-16.35,2.62c0.39,0.81,0.79,1.61,1.21,2.41l16.35-2.62
								C389.36,397.64,388.96,396.83,388.57,396.03"/>
						</g>
					</g>
					<g class="st29">
						<defs>
							<path id="SVGID_69_" class="st29" d="M371.72,397.61c0.54,1.17,1.12,2.32,1.71,3.45l16.35-2.62
								c-0.59-1.13-1.16-2.28-1.71-3.45C383.17,395.78,376.63,396.82,371.72,397.61z"/>
						</defs>
						<use xlink:href="#SVGID_69_"  style="overflow:visible;fill:#5345BA;"/>
						<clipPath id="SVGID_70_">
							<use xlink:href="#SVGID_69_"  style="overflow:visible;"/>
						</clipPath>
						<g class="st87">
							<path class="st79" d="M388.07,394.99l-16.35,2.62c0.17,0.35,0.33,0.71,0.5,1.06l16.35-2.62
								C388.4,395.69,388.24,395.34,388.07,394.99"/>
							<path class="st88" d="M388.57,396.05l-16.35,2.62c0.39,0.8,0.8,1.6,1.2,2.39l16.35-2.62
								C389.37,397.65,388.97,396.85,388.57,396.05"/>
						</g>
					</g>
					<g>
						<defs>
							<path id="SVGID_71_" d="M373.22,400.66c0.07,0.13,0.14,0.26,0.21,0.4l16.35-2.62c-0.59-1.13-1.16-2.28-1.71-3.45
								c-4.9,0.79-11.45,1.84-16.35,2.62C372.06,398.34,372.51,399.28,373.22,400.66z"/>
						</defs>
						<use xlink:href="#SVGID_71_"  style="overflow:visible;fill:#5345BA;"/>
						<clipPath id="SVGID_72_">
							<use xlink:href="#SVGID_71_"  style="overflow:visible;"/>
						</clipPath>
						<g class="st89">
							<path class="st68" d="M388.07,394.99l-16.35,2.62c0.17,0.35,0.33,0.71,0.5,1.06l16.35-2.62
								C388.4,395.69,388.24,395.34,388.07,394.99"/>
							<path class="st68" d="M388.57,396.05l-16.35,2.62c0.39,0.8,0.8,1.6,1.2,2.39l16.35-2.62
								C389.37,397.65,388.97,396.85,388.57,396.05"/>
						</g>
					</g>
					<g>
						<path class="st90" d="M401.12,387.05c-5.46-10.52-8.29-23.49-7.39-36.14c0.16-2.33,0.46-4.65,0.88-6.94l-14.2-7.86
							c-0.22,1.17-0.4,2.33-0.57,3.5l-0.02,0.15c-0.13,0.88-0.24,1.78-0.34,2.67c-0.02,0.15-0.03,0.29-0.05,0.43
							c-0.15,1.35-0.28,2.7-0.37,4.05c-1.17,16.47,1.89,32.96,9.02,48.09c0.55,1.16,1.11,2.3,1.71,3.45L401.12,387.05z"/>
					</g>
				</g>
			</g>
			<g>
				<path class="st5" d="M439.14,409.02c0,0-2.28-1.24-5.52-4.05c-1.96-1.7-4.07,0.73-4.07,0.73l-3.19,1.44l0.15-4.79l1.53-12.07
					l9.01-6.61c0,0,2.48,0.34,3.55,1.75c1.07,1.42,3.96,10.8,3.96,10.8L439.14,409.02z"/>
				<linearGradient id="SVGID_73_" gradientUnits="userSpaceOnUse" x1="543.4106" y1="352.8305" x2="522.2802" y2="487.8305">
					<stop  offset="0" style="stop-color:#5C5E60"/>
					<stop  offset="1" style="stop-color:#9FA1A4"/>
				</linearGradient>
				<path class="st91" d="M574.28,359.17c0.6,1.11,3.91,20.84-9.08,36.01c-4.52,5.27-42.36,33.37-55.31,34.61
					c-12.95,1.23-12.57-9.15-10.12-15.33c2.45-6.18,11.77-11.13,24.43-22.86c13.13-12.16,21.58-21.64,27.41-26.18
					C560,358.88,569.05,349.51,574.28,359.17z"/>
				<linearGradient id="SVGID_74_" gradientUnits="userSpaceOnUse" x1="488.6739" y1="344.263" x2="467.5434" y2="479.263">
					<stop  offset="0" style="stop-color:#5C5E60"/>
					<stop  offset="1" style="stop-color:#9FA1A4"/>
				</linearGradient>
				<path class="st92" d="M517.43,423.33c0,0-0.34,6.54-10.1,6.58c-2.7,0.01-7.9-1.29-11.87-2.39
					c-18.29-5.05-58.26-17.25-58.26-17.25l8.6-16.54c0,0,38.35,7.42,46.69,9.33C500.83,404.97,519.45,403.99,517.43,423.33z"/>
			</g>
		</g>
		<g>
			<linearGradient id="SVGID_75_" gradientUnits="userSpaceOnUse" x1="643.7442" y1="771.5775" x2="854.9473" y2="771.5775">
				<stop  offset="0" style="stop-color:#DCDFFB"/>
				<stop  offset="1" style="stop-color:#F3F3FA"/>
			</linearGradient>
			<rect x="643.74" y="597.87" class="st93" width="211.2" height="347.42"/>
			<linearGradient id="SVGID_76_" gradientUnits="userSpaceOnUse" x1="666.4918" y1="619.9731" x2="666.4918" y2="991.4048">
				<stop  offset="0" style="stop-color:#DCDFFB"/>
				<stop  offset="1" style="stop-color:#F3F3FA"/>
			</linearGradient>
			<rect x="643.74" y="597.87" class="st94" width="45.5" height="347.42"/>
			<linearGradient id="SVGID_77_" gradientUnits="userSpaceOnUse" x1="404.7725" y1="809.1417" x2="615.98" y2="809.1417">
				<stop  offset="0" style="stop-color:#DCDFFB"/>
				<stop  offset="1" style="stop-color:#F3F3FA"/>
			</linearGradient>
			<rect x="404.77" y="671.91" class="st95" width="211.21" height="274.46"/>
			<linearGradient id="SVGID_78_" gradientUnits="userSpaceOnUse" x1="404.7725" y1="809.1417" x2="450.2774" y2="809.1417">
				<stop  offset="0" style="stop-color:#DCDFFB"/>
				<stop  offset="1" style="stop-color:#F3F3FA"/>
			</linearGradient>
			<rect x="404.77" y="671.91" class="st96" width="45.5" height="274.46"/>
			<linearGradient id="SVGID_79_" gradientUnits="userSpaceOnUse" x1="166.9695" y1="878.0401" x2="378.1738" y2="878.0401">
				<stop  offset="0" style="stop-color:#DCDFFB"/>
				<stop  offset="1" style="stop-color:#F3F3FA"/>
			</linearGradient>
			<rect x="166.97" y="808.32" class="st97" width="211.2" height="139.43"/>
			<linearGradient id="SVGID_80_" gradientUnits="userSpaceOnUse" x1="166.9695" y1="878.0401" x2="212.4671" y2="878.0401">
				<stop  offset="0" style="stop-color:#DCDFFB"/>
				<stop  offset="1" style="stop-color:#F3F3FA"/>
			</linearGradient>
			<rect x="166.97" y="808.32" class="st98" width="45.5" height="139.43"/>
			<g>
				<linearGradient id="SVGID_81_" gradientUnits="userSpaceOnUse" x1="690.391" y1="242.6312" x2="666.391" y2="356.3703">
					<stop  offset="0" style="stop-color:#8647E1"/>
					<stop  offset="1" style="stop-color:#B78FED"/>
				</linearGradient>
				<path class="st99" d="M724.89,286.9c0,0-2.77,13.83-44.31,5.85c-41.54-7.98-38.12-17.03-38.12-17.03l-0.65-10.64l21.6-23.14
					l11.63,9.67l-0.55,2.3c0,0,1.66,2.66,4.43,2.66c2.77,0,14.78,3.4,38.6,4.46C728.5,261.53,725.45,284.24,724.89,286.9z"/>
				<g>
					<linearGradient id="SVGID_82_" gradientUnits="userSpaceOnUse" x1="690.0777" y1="249.3341" x2="692.8168" y2="354.2037">
						<stop  offset="0" style="stop-color:#8647E1"/>
						<stop  offset="1" style="stop-color:#B78FED"/>
					</linearGradient>
					<path class="st100" d="M717.69,261.37c-0.47-0.02-0.94-0.05-1.4-0.07c1.92,6.44,1.79,14.41,1.67,15.95
						c0,0-0.94,14.06-43.2,11.15c-7.62-0.52-13.75-1.26-18.7-2.12c5.51,2.1,13.35,4.32,24.52,6.47c41.54,7.98,44.31-5.85,44.31-5.85
						C725.45,284.24,728.67,261.86,717.69,261.37z"/>
				</g>
				<path class="st5" d="M663.41,244.88c0,0-18.12-24.47,6.1-44.16c7.2-5.85-1.66-2.66-9.97,1.06
					c-8.31,3.73-25.48,22.35-23.82,40.97c1.66,18.62,3.88,25.53,11.07,28.19C654,273.6,663.41,244.88,663.41,244.88z"/>
				<polygon class="st5" points="669.13,197.74 687.96,190.82 691.84,197.74 687.4,204.12 682.42,203.06 677.99,205.19 				"/>
				<linearGradient id="SVGID_83_" gradientUnits="userSpaceOnUse" x1="725.4686" y1="378.4078" x2="725.4686" y2="568.8433">
					<stop  offset="0" style="stop-color:#5C5E60"/>
					<stop  offset="1" style="stop-color:#9FA1A4"/>
				</linearGradient>
				<path class="st101" d="M712.71,597.05c0,0,26.03-46.28,26.58-70.75c0.56-24.47-4.17-43.98-4.17-43.98l-23.52-6.03L712.71,597.05
					z"/>
				<linearGradient id="SVGID_84_" gradientUnits="userSpaceOnUse" x1="730.1801" y1="378.4078" x2="730.1801" y2="568.8433">
					<stop  offset="0" style="stop-color:#5C5E60"/>
					<stop  offset="1" style="stop-color:#9FA1A4"/>
				</linearGradient>
				<path class="st102" d="M712.71,371.49l-1.11,104.8l22.15,12.23c0,0,13.29-25,14.95-56.92
					C750.37,399.68,712.71,371.49,712.71,371.49z"/>
				<linearGradient id="SVGID_85_" gradientUnits="userSpaceOnUse" x1="764.2346" y1="378.4078" x2="764.2346" y2="568.8433">
					<stop  offset="0" style="stop-color:#5C5E60"/>
					<stop  offset="1" style="stop-color:#9FA1A4"/>
				</linearGradient>
				<path class="st103" d="M712.71,371.49l48.74,114.91l8.86,12.23l38.77,88.84l4.43,2.66c0,0,7.76-52.14-5.54-74.48
					c-13.29-22.34-19.94-34.58-19.94-34.58L758.68,368.3L712.71,371.49z"/>
				<linearGradient id="SVGID_86_" gradientUnits="userSpaceOnUse" x1="751.6905" y1="255.5659" x2="727.6905" y2="369.3051">
					<stop  offset="0" style="stop-color:#8647E1"/>
					<stop  offset="1" style="stop-color:#B78FED"/>
				</linearGradient>
				<path class="st104" d="M711.05,373.08l49.29-1.06l20.49-68.63c0,0,13.29-41.49-12.19-42.02c-25.48-0.53-54.83-0.53-54.83-0.53
					S696.65,275.73,711.05,373.08z"/>
				<path class="st5" d="M810.19,348.08l-19.94,57.99c0,0,24.37-20.21,30.46-33.52c6.09-13.29,9.42-27.66,9.42-27.66L810.19,348.08z
					"/>
				<polygon class="st5" points="793.46,403.41 779.61,415.64 773.52,404.47 777.39,404.47 780.16,399.68 788.47,402.88 				"/>
				<path class="st5" d="M755.91,205.51c0,0-25.48,23.94-22.71,32.45c2.77,8.51,3.32,15.43,3.32,18.08c0,2.66-2.77,14.36-0.55,13.83
					c2.21-0.53,16.61-5.32,18.28-9.04c1.66-3.73,4.43-14.9,4.43-14.9s21.28-10.54,16.92-25.96
					C774.32,215.47,758.13,204.44,755.91,205.51z"/>
				<path class="st12" d="M738.42,270.47c0,0-22.33,38.51-15.99,81.12c0.5,3.36,4.5,5.76,4.5,5.76l5.49-4.8
					C732.42,352.55,731.98,304.32,738.42,270.47z"/>
				<linearGradient id="SVGID_87_" gradientUnits="userSpaceOnUse" x1="749.5868" y1="255.122" x2="725.5868" y2="368.8611">
					<stop  offset="0" style="stop-color:#8647E1"/>
					<stop  offset="1" style="stop-color:#B78FED"/>
				</linearGradient>
				<polygon class="st105" points="739.22,269.45 740.44,277.96 755.03,264.14 755.03,262.01 				"/>
				<linearGradient id="SVGID_88_" gradientUnits="userSpaceOnUse" x1="739.3728" y1="252.9668" x2="715.3728" y2="366.7059">
					<stop  offset="0" style="stop-color:#8647E1"/>
					<stop  offset="1" style="stop-color:#B78FED"/>
				</linearGradient>
				<polygon class="st106" points="734.63,263.96 732.07,275.03 738.54,269.45 				"/>
				<linearGradient id="SVGID_89_" gradientUnits="userSpaceOnUse" x1="675.9127" y1="239.5761" x2="651.9127" y2="353.3152">
					<stop  offset="0" style="stop-color:#8647E1"/>
					<stop  offset="1" style="stop-color:#B78FED"/>
				</linearGradient>
				<path class="st107" d="M673.36,266.57l3.39-7.16l1.18-2.95c-2.17-0.51-3.44-2.54-3.44-2.54l-1.47,5.81l-3.05,6.51l-6.77,7.16
					L673.36,266.57z"/>
				<linearGradient id="SVGID_90_" gradientUnits="userSpaceOnUse" x1="802.2947" y1="266.2439" x2="778.2947" y2="379.983">
					<stop  offset="0" style="stop-color:#8647E1"/>
					<stop  offset="1" style="stop-color:#B78FED"/>
				</linearGradient>
				<path class="st108" d="M777.51,301.27l28.8,44.16l3.88,0.53l-1.11,3.73l20.87-1.6l4.62-18.09l-40.44-59.58
					c0,0-12.6-11.45-33.23-8.51C745.94,264.03,775.29,297.54,777.51,301.27z"/>
				<linearGradient id="SVGID_91_" gradientUnits="userSpaceOnUse" x1="832.9528" y1="272.713" x2="808.9528" y2="386.4521">
					<stop  offset="0" style="stop-color:#8647E1"/>
					<stop  offset="1" style="stop-color:#B78FED"/>
				</linearGradient>
				<path class="st109" d="M828.22,336.55c0,0-12.89,6.19-19.73,9.17l1.69,0.23l-1.11,3.73l7.21-0.61l10.11-2.39l0.55-4.27h-3.13
					L828.22,336.55z"/>
				<path class="st4" d="M719.2,582.67l1.67,3.82l0.72,4.2l-0.72,6.53l-3.57,0.22l-2.62-0.8l-1.85,1.07c0,0-10.18,1.13-13.95,0.93
					c-6.25-0.33-9.61-1.26-10.74-2.57c-0.62-0.73,2.39-1.81,3.36-1.87c5.61-0.38,14.71-3.43,14.71-3.43s4.23-3.22,5-4.77
					c1.1-2.22,1.76-4.86,1.76-4.86L719.2,582.67z"/>
				<path class="st4" d="M812.9,582.67l1.67,3.82l0.72,4.2l-0.72,6.53l-3.57,0.22l-2.62-0.8l-1.85,1.07c0,0-10.18,1.13-13.95,0.93
					c-6.25-0.33-9.61-1.26-10.73-2.57c-0.63-0.73,2.39-1.81,3.36-1.87c5.61-0.38,14.71-3.43,14.71-3.43s4.23-3.22,5-4.77
					c1.1-2.22,1.76-4.86,1.76-4.86L812.9,582.67z"/>
				<path class="st11" d="M775.5,245.36c3.43-3.1,9.21-9.63,10.5-13.76c1.52-4.88,0.15-8.83-8.25-18.72
					c-8.41-9.88-13.11-11.09-13.11-11.09s-4.79-1.34-6.38-1.03c-1.85,0.36-5.61,3.37-5.42,5.24c0.47,4.63,15.7,9.97,15.7,9.97
					l-8.19,5.55l-4.43,9.99l2.57,2.46l-0.05,0.29c0,0,3.19-5.19,7.55-5.08c4.37,0.1,4.41,4.82,0.87,6.85
					c-3.54,2.03-3.99,3.27-3.99,3.27l-4.74,5.72c0,0-0.6,3.59,1.21,4.24C762.78,250.53,772.78,247.83,775.5,245.36z"/>
			</g>
		</g>
	</g>
</g>
</svg>
