<svg xmlns="http://www.w3.org/2000/svg" xmlns:xlink="http://www.w3.org/1999/xlink" viewBox="0 0 1872.78 1371.77"><defs><style>.cls-1{mask:url(#mask);}.cls-2,.cls-93,.cls-95,.cls-97{mix-blend-mode:multiply;}.cls-2{fill:url(#linear-gradient);}.cls-3{fill:none;}.cls-4{fill:#5f57c4;}.cls-5{fill:#5345ba;}.cls-6{isolation:isolate;}.cls-7{mask:url(#mask-2);}.cls-8{fill:#ddd6ff;}.cls-9{fill:#814d4d;}.cls-10{fill:#ffd6d6;}.cls-11{fill:url(#linear-gradient-2);}.cls-12{fill:url(#linear-gradient-3);}.cls-13{fill:url(#linear-gradient-4);}.cls-14{fill:url(#linear-gradient-5);}.cls-15{fill:url(#linear-gradient-6);}.cls-16{fill:#450606;}.cls-17{fill:#fff;}.cls-18{fill:url(#linear-gradient-7);}.cls-19{fill:url(#linear-gradient-8);}.cls-20{fill:url(#linear-gradient-9);}.cls-21{fill:url(#linear-gradient-10);}.cls-22{fill:url(#linear-gradient-11);}.cls-23{fill:url(#linear-gradient-12);}.cls-24{fill:url(#linear-gradient-13);}.cls-25{fill:url(#linear-gradient-14);}.cls-26{fill:url(#linear-gradient-15);}.cls-27{fill:url(#linear-gradient-16);}.cls-28{fill:url(#linear-gradient-17);}.cls-29{fill:url(#linear-gradient-18);}.cls-30{fill:url(#linear-gradient-19);}.cls-31{fill:url(#linear-gradient-20);}.cls-32{fill:url(#linear-gradient-21);}.cls-33{fill:url(#linear-gradient-22);}.cls-34{fill:#a9b0b2;}.cls-35{fill:#5c5f60;}.cls-36{clip-path:url(#clip-path);}.cls-37{fill:#717677;}.cls-38{clip-path:url(#clip-path-2);}.cls-39{clip-path:url(#clip-path-3);}.cls-40{fill:#757a7b;}.cls-41{clip-path:url(#clip-path-4);}.cls-42{fill:#5f6364;}.cls-43{clip-path:url(#clip-path-5);}.cls-44{fill:#602150;}.cls-45{fill:#dfbb60;}.cls-46{clip-path:url(#clip-path-6);}.cls-47{fill:#957d40;}.cls-48{fill:#debb5f;}.cls-49{clip-path:url(#clip-path-7);}.cls-50{fill:#687582;}.cls-51{clip-path:url(#clip-path-8);}.cls-52{fill:#7d6936;}.cls-53{clip-path:url(#clip-path-9);}.cls-54{fill:#a593c6;}.cls-55{fill:#d2bfef;}.cls-56{fill:#7e2b69;}.cls-57{clip-path:url(#clip-path-10);}.cls-58{fill:#8776b2;}.cls-59{fill:#dcdffb;}.cls-60{clip-path:url(#clip-path-11);}.cls-61{fill:#90793e;}.cls-62{fill:#8b753c;}.cls-63{fill:#86713a;}.cls-64{fill:url(#åçûìßííûé_ãðàäèåíò_15);}.cls-65{fill:#873317;}.cls-66{clip-path:url(#clip-path-12);}.cls-67{fill:#9e792f;}.cls-68{fill:#8d9497;}.cls-69{clip-path:url(#clip-path-14);}.cls-70{fill:#853216;}.cls-71{clip-path:url(#clip-path-15);}.cls-72{fill:#2d9a82;}.cls-73{clip-path:url(#clip-path-16);}.cls-74{fill:#2d3137;}.cls-75{clip-path:url(#clip-path-17);}.cls-76{fill:#92989c;}.cls-77{fill:#7665c1;}.cls-78{fill:#aa8eef;}.cls-79{fill:#b89dea;}.cls-80{clip-path:url(#clip-path-19);}.cls-81{fill:#256381;}.cls-82{fill:#63657c;}.cls-83{fill:#c7cdea;}.cls-84{clip-path:url(#clip-path-20);}.cls-85{clip-path:url(#clip-path-22);}.cls-86{clip-path:url(#clip-path-23);}.cls-87{fill:#25262e;}.cls-88{clip-path:url(#clip-path-24);}.cls-89{fill:#7575ea;}.cls-90{fill:url(#linear-gradient-23);}.cls-91{fill:url(#linear-gradient-24);}.cls-92{fill:url(#åçûìßííûé_ãðàäèåíò_15-2);}.cls-93{fill:url(#åçûìßííûé_ãðàäèåíò_15-3);}.cls-94{fill:url(#åçûìßííûé_ãðàäèåíò_15-4);}.cls-95{fill:url(#åçûìßííûé_ãðàäèåíò_15-5);}.cls-96{fill:url(#åçûìßííûé_ãðàäèåíò_15-6);}.cls-97{fill:url(#åçûìßííûé_ãðàäèåíò_15-7);}.cls-98{fill:url(#linear-gradient-25);}.cls-99{fill:url(#linear-gradient-26);}.cls-100{fill:url(#linear-gradient-27);}.cls-101{fill:url(#linear-gradient-28);}.cls-102{fill:url(#linear-gradient-29);}.cls-103{fill:url(#linear-gradient-30);}.cls-104{fill:url(#linear-gradient-31);}.cls-105{fill:url(#linear-gradient-32);}.cls-106{fill:url(#linear-gradient-33);}.cls-107{fill:url(#linear-gradient-34);}.cls-108{fill:url(#linear-gradient-35);}.cls-109{filter:url(#luminosity-noclip-2);}.cls-110{filter:url(#luminosity-noclip);}</style><filter id="luminosity-noclip" x="1473.57" y="-8321.14" width="828.28" height="32766" filterUnits="userSpaceOnUse" color-interpolation-filters="sRGB"><feFlood flood-color="#fff" result="bg"/><feBlend in="SourceGraphic" in2="bg"/></filter><mask id="mask" x="1473.57" y="-8321.14" width="828.28" height="32766" maskUnits="userSpaceOnUse"><g class="cls-110"/></mask><linearGradient id="linear-gradient" x1="1473.57" y1="187.31" x2="2301.85" y2="187.31" gradientUnits="userSpaceOnUse"><stop offset="0"/><stop offset="1" stop-color="#fff"/></linearGradient><filter id="luminosity-noclip-2" x="1473.57" y="12.68" width="828.28" height="349.26" filterUnits="userSpaceOnUse" color-interpolation-filters="sRGB"><feFlood flood-color="#fff" result="bg"/><feBlend in="SourceGraphic" in2="bg"/></filter><mask id="mask-2" x="1038.51" y="5.99" width="828.28" height="349.26" maskUnits="userSpaceOnUse"><g class="cls-109"><g transform="translate(-435.06 -6.69)"><g class="cls-1"><polygon class="cls-2" points="2289.83 12.68 2150.59 151.92 2051.09 52.42 1933.09 170.42 1882.09 119.42 1727.59 273.92 1644.59 190.92 1473.57 361.94 1497.62 361.94 1644.59 214.96 1727.59 297.96 1882.09 143.46 1933.09 194.46 2051.09 76.46 2150.59 175.96 2301.85 24.7 2289.83 12.68"/></g></g></g></mask><linearGradient id="linear-gradient-2" x1="175.43" y1="852.52" x2="202.56" y2="948.78" gradientUnits="userSpaceOnUse"><stop offset="0" stop-color="#8647e1"/><stop offset="1" stop-color="#b78fed"/></linearGradient><linearGradient id="linear-gradient-3" x1="574.2" y1="869.44" x2="601.33" y2="965.7" xlink:href="#linear-gradient-2"/><linearGradient id="linear-gradient-4" x1="81.55" y1="878.98" x2="108.68" y2="975.24" xlink:href="#linear-gradient-2"/><linearGradient id="linear-gradient-5" x1="127.95" y1="984.51" x2="127.95" y2="1195.36" gradientUnits="userSpaceOnUse"><stop offset="0" stop-color="#5c5e60"/><stop offset="1" stop-color="#9fa1a4"/></linearGradient><linearGradient id="linear-gradient-6" x1="183.05" y1="984.51" x2="183.05" y2="1195.36" xlink:href="#linear-gradient-5"/><linearGradient id="linear-gradient-7" x1="127.39" y1="887.61" x2="144.37" y2="887.61" xlink:href="#linear-gradient-2"/><linearGradient id="linear-gradient-8" x1="143.27" y1="883.92" x2="150.21" y2="883.92" xlink:href="#linear-gradient-2"/><linearGradient id="linear-gradient-9" x1="373.73" y1="1080.79" x2="374.26" y2="1063.83" xlink:href="#linear-gradient-5"/><linearGradient id="linear-gradient-10" x1="437.49" y1="1082.75" x2="438.02" y2="1065.8" xlink:href="#linear-gradient-5"/><linearGradient id="linear-gradient-11" x1="801.45" y1="904.6" x2="801.45" y2="1074.98" xlink:href="#linear-gradient-5"/><linearGradient id="linear-gradient-12" x1="409.46" y1="897.9" x2="409.46" y2="1068.29" xlink:href="#linear-gradient-5"/><linearGradient id="linear-gradient-13" x1="808.49" y1="904.6" x2="808.49" y2="1074.98" xlink:href="#linear-gradient-5"/><linearGradient id="linear-gradient-14" x1="800.58" y1="822.95" x2="838.28" y2="822.95" xlink:href="#linear-gradient-2"/><linearGradient id="linear-gradient-15" x1="397.34" y1="755.66" x2="386.18" y2="775.82" gradientUnits="userSpaceOnUse"><stop offset="0" stop-color="#ffdcff"/><stop offset="1" stop-color="#fff"/></linearGradient><linearGradient id="linear-gradient-16" x1="413.28" y1="764.49" x2="402.13" y2="784.64" xlink:href="#linear-gradient-15"/><linearGradient id="linear-gradient-17" x1="872" y1="786.16" x2="850.87" y2="921.16" xlink:href="#linear-gradient-5"/><linearGradient id="linear-gradient-18" x1="802.72" y1="775.32" x2="781.59" y2="910.32" xlink:href="#linear-gradient-5"/><linearGradient id="linear-gradient-19" x1="807.52" y1="776.07" x2="786.39" y2="911.07" xlink:href="#linear-gradient-5"/><linearGradient id="linear-gradient-20" x1="859.36" y1="784.19" x2="838.23" y2="919.19" xlink:href="#linear-gradient-5"/><linearGradient id="linear-gradient-21" x1="792.91" y1="773.79" x2="771.78" y2="908.79" xlink:href="#linear-gradient-5"/><linearGradient id="linear-gradient-22" x1="753.83" y1="767.67" x2="732.7" y2="902.67" xlink:href="#linear-gradient-5"/><clipPath id="clip-path" transform="translate(-435.06 -6.69)"><path class="cls-3" d="M769.19,811.09c0,.63-.1,1.25-.16,1.87l16.35-2.62c.07-.62.12-1.25.16-1.87Z"/></clipPath><clipPath id="clip-path-2" transform="translate(-435.06 -6.69)"><path class="cls-3" d="M784.31,817.87,768,820.5c-.16.85-.34,1.71-.52,2.56l16.35-2.63C784,819.58,784.14,818.73,784.31,817.87Z"/></clipPath><clipPath id="clip-path-3" transform="translate(-435.06 -6.69)"><path class="cls-3" d="M782.54,825.35,766.18,828l0,.16,16.35-2.62A1,1,0,0,1,782.54,825.35Z"/></clipPath><clipPath id="clip-path-4" transform="translate(-435.06 -6.69)"><path class="cls-3" d="M752.16,747.58c.21.29.42.57.62.86l16.35-2.63-.61-.85Z"/></clipPath><clipPath id="clip-path-5" transform="translate(-435.06 -6.69)"><path class="cls-3" d="M747.46,741.8q.56.62,1.08,1.23l16.35-2.62q-.52-.63-1.08-1.23Z"/></clipPath><clipPath id="clip-path-6" transform="translate(-435.06 -6.69)"><path class="cls-3" d="M757.87,846.22l-.54.81,16.35-2.63.55-.81Z"/></clipPath><clipPath id="clip-path-7" transform="translate(-435.06 -6.69)"><path class="cls-3" d="M773.07,845.26l-16.35,2.62,3.91-.59L773,845.4Z"/></clipPath><clipPath id="clip-path-8" transform="translate(-435.06 -6.69)"><path class="cls-3" d="M747.66,726.9l-16.35,2.62c.83.39,1.67.81,2.49,1.27l16.36-2.62C749.33,727.71,748.49,727.29,747.66,726.9Z"/></clipPath><clipPath id="clip-path-9" transform="translate(-435.06 -6.69)"><path class="cls-3" d="M746.5,748l-16.35,2.62a37.32,37.32,0,0,1,9.43,7.61l16.35-2.62A36.93,36.93,0,0,0,746.5,748Z"/></clipPath><clipPath id="clip-path-10" transform="translate(-435.06 -6.69)"><path class="cls-3" d="M730.77,744.85l-16.36,2.63a24.18,24.18,0,0,1,15.73,3.09L746.5,748A24.27,24.27,0,0,0,730.77,744.85Z"/></clipPath><clipPath id="clip-path-11" transform="translate(-435.06 -6.69)"><path class="cls-3" d="M756.72,847.88c-6.39,8.69-14.7,14.14-23.82,15.6l16.35-2.63c9.07-1.45,17.34-6.84,23.72-15.45l-6,.92-2.13.32-1.06.17-4.17.63-1,.15A5.64,5.64,0,0,0,756.72,847.88Z"/></clipPath><linearGradient id="åçûìßííûé_ãðàäèåíò_15" x1="733.3" y1="852.02" x2="761.47" y2="773.24" gradientUnits="userSpaceOnUse"><stop offset="0" stop-color="#dcdffb"/><stop offset="1" stop-color="#f3f3fa"/></linearGradient><clipPath id="clip-path-12" transform="translate(-435.06 -6.69)"><path class="cls-3" d="M694,734.48c-.78.67-1.55,1.39-2.3,2.14L708,734c.75-.76,1.52-1.47,2.3-2.15C705.4,732.64,698.46,732.38,694,734.48Z"/></clipPath><clipPath id="clip-path-14" transform="translate(-435.06 -6.69)"><path class="cls-3" d="M727.28,723.45l-16.35,2.62a33.68,33.68,0,0,0-17,8.41c-.77.67-1.54,1.39-2.29,2.15L708,734c.75-.76,1.52-1.48,2.29-2.16A33.74,33.74,0,0,1,727.28,723.45Z"/></clipPath><clipPath id="clip-path-15" transform="translate(-435.06 -6.69)"><path class="cls-3" d="M692.23,766.81l-16.35,2.63c-.22,1.16-.4,2.32-.57,3.49l16.35-2.62C691.83,769.14,692,768,692.23,766.81Z"/></clipPath><clipPath id="clip-path-16" transform="translate(-435.06 -6.69)"><path class="cls-3" d="M692.23,766.82l-16.35,2.62c-.22,1.16-.41,2.32-.57,3.49l16.35-2.62C691.83,769.14,692,768,692.23,766.82Z"/></clipPath><clipPath id="clip-path-17" transform="translate(-435.06 -6.69)"><path class="cls-3" d="M675.87,769.43c-.23,1.22-.42,2.43-.59,3.65l16.35-2.62c.17-1.22.37-2.43.59-3.65,2.61-14.09,8.29-25.3,15.78-32.81l-16.35,2.62C684.16,744.14,678.48,755.35,675.87,769.43Z"/></clipPath><clipPath id="clip-path-19" transform="translate(-435.06 -6.69)"><path class="cls-4" d="M674.81,780.19c0-.24.07-.54.1-.77,0,0,.42-3.29.43-3.52a26.09,26.09,0,0,1,.3-2.88l-.36.06c-.13.89-.24,1.78-.34,2.67,0,.14,0,.29-.05.43-.15,1.35-.28,2.7-.37,4.05a96.52,96.52,0,0,0,9,48.09c.54,1.16,1.11,2.3,1.7,3.45-.2-.39-.72-1.43-1.22-2.55-.58-1.31-3-6.91-3-6.94-.73-1.8-1.52-4.27-2.14-6.11a117.74,117.74,0,0,1-3-12.33,91.28,91.28,0,0,1-1.31-12.12A92.39,92.39,0,0,1,674.81,780.19Z"/></clipPath><clipPath id="clip-path-20" transform="translate(-435.06 -6.69)"><path class="cls-4" d="M691.3,773.13l-16.36,2.62c0,.14,0,.29-.05.43l16.35-2.62Z"/></clipPath><clipPath id="clip-path-22" transform="translate(-435.06 -6.69)"><path class="cls-4" d="M674.81,780.19a92.39,92.39,0,0,0-.2,11.53,91.28,91.28,0,0,0,1.31,12.12,117.74,117.74,0,0,0,3,12.33c.62,1.84,1.41,4.31,2.14,6.11,0,0,2.4,5.63,3,6.94.5,1.12,1,2.16,1.22,2.55l16.36-2.62c-.6-1.15-1.16-2.29-1.71-3.45a96.54,96.54,0,0,1-9-48.09c.1-1.35.22-2.7.37-4.05l.06-.43q.13-1.35.33-2.67l-16,2.56a26.09,26.09,0,0,0-.3,2.88c0,.23-.43,3.49-.43,3.52C674.88,779.65,674.83,780,674.81,780.19Z"/></clipPath><clipPath id="clip-path-23" transform="translate(-435.06 -6.69)"><path class="cls-5" d="M683.54,828.32c.54,1.17,1.12,2.32,1.7,3.45l16.36-2.62c-.6-1.14-1.16-2.29-1.71-3.45Z"/></clipPath><clipPath id="clip-path-24" transform="translate(-435.06 -6.69)"><path class="cls-5" d="M685,831.37c.07.13.14.27.2.4l16.36-2.62c-.6-1.14-1.16-2.29-1.71-3.45l-16.35,2.62C683.88,829.05,684.33,830,685,831.37Z"/></clipPath><linearGradient id="linear-gradient-23" x1="855.23" y1="783.54" x2="834.1" y2="918.54" xlink:href="#linear-gradient-5"/><linearGradient id="linear-gradient-24" x1="800.49" y1="774.97" x2="779.36" y2="909.97" xlink:href="#linear-gradient-5"/><linearGradient id="åçûìßííûé_ãðàäèåíò_15-2" x1="520.5" y1="1195.6" x2="731.7" y2="1195.6" xlink:href="#åçûìßííûé_ãðàäèåíò_15"/><linearGradient id="åçûìßííûé_ãðàäèåíò_15-3" x1="543.25" y1="1043.99" x2="543.25" y2="1415.42" xlink:href="#åçûìßííûé_ãðàäèåíò_15"/><linearGradient id="åçûìßííûé_ãðàäèåíò_15-4" x1="281.53" y1="1233.16" x2="492.73" y2="1233.16" xlink:href="#åçûìßííûé_ãðàäèåíò_15"/><linearGradient id="åçûìßííûé_ãðàäèåíò_15-5" x1="281.53" y1="1233.16" x2="327.03" y2="1233.16" xlink:href="#åçûìßííûé_ãðàäèåíò_15"/><linearGradient id="åçûìßííûé_ãðàäèåíò_15-6" x1="43.72" y1="1302.06" x2="254.93" y2="1302.06" xlink:href="#åçûìßííûé_ãðàäèåíò_15"/><linearGradient id="åçûìßííûé_ãðàäèåíò_15-7" x1="43.72" y1="1302.06" x2="89.22" y2="1302.06" xlink:href="#åçûìßííûé_ãðàäèåíò_15"/><linearGradient id="linear-gradient-25" x1="1002.21" y1="673.34" x2="978.21" y2="787.08" xlink:href="#linear-gradient-2"/><linearGradient id="linear-gradient-26" x1="1001.9" y1="680.04" x2="1004.64" y2="784.91" xlink:href="#linear-gradient-2"/><linearGradient id="linear-gradient-27" x1="1037.29" y1="809.12" x2="1037.29" y2="999.55" xlink:href="#linear-gradient-5"/><linearGradient id="linear-gradient-28" x1="1042" y1="809.12" x2="1042" y2="999.55" xlink:href="#linear-gradient-5"/><linearGradient id="linear-gradient-29" x1="1076.05" y1="809.12" x2="1076.05" y2="999.55" xlink:href="#linear-gradient-5"/><linearGradient id="linear-gradient-30" x1="1063.51" y1="686.28" x2="1039.51" y2="800.01" xlink:href="#linear-gradient-2"/><linearGradient id="linear-gradient-31" x1="626.34" y1="679.14" x2="602.34" y2="792.88" xlink:href="#linear-gradient-2"/><linearGradient id="linear-gradient-32" x1="616.13" y1="676.98" x2="592.13" y2="790.72" xlink:href="#linear-gradient-2"/><linearGradient id="linear-gradient-33" x1="987.73" y1="670.29" x2="963.73" y2="784.02" xlink:href="#linear-gradient-2"/><linearGradient id="linear-gradient-34" x1="1114.11" y1="696.95" x2="1090.11" y2="810.69" xlink:href="#linear-gradient-2"/><linearGradient id="linear-gradient-35" x1="1144.77" y1="703.42" x2="1120.77" y2="817.16" xlink:href="#linear-gradient-2"/></defs><g class="cls-6"><g id="Layer_2" data-name="Layer 2"><g class="cls-7"><polygon class="cls-8" points="1854.77 5.99 1715.53 145.23 1616.03 45.73 1498.03 163.73 1447.03 112.73 1292.53 267.23 1209.53 184.23 1038.51 355.25 1062.55 355.25 1209.53 208.27 1292.53 291.27 1447.03 136.77 1498.03 187.77 1616.03 69.77 1715.53 169.27 1866.79 18.01 1854.77 5.99"/></g><polygon class="cls-8" points="1872.78 51.5 1855.78 51.5 1855.78 17 1821.28 17 1821.28 0 1872.78 0 1872.78 51.5"/><path class="cls-9" d="M537.12,1214.91l0,10.68-1.18,9-3.36,2.69-2.61,1-.64,1.56-8.73,6.94a16.27,16.27,0,0,1-10.25,1.53c-1.48-.22.2-4.37.66-5a72.64,72.64,0,0,1,6.75-7.85l6.45-9.52,7.2-11.85Z" transform="translate(-435.06 -6.69)"/><path class="cls-9" d="M621.26,1225.92l-1.94,4.45-.84,4.9.84,7.61,4.17.26,3.06-.93,2.15,1.25s11.88,1.32,16.27,1.09c7.29-.38,11.21-1.47,12.52-3,.73-.85-2.78-2.1-3.92-2.17-6.54-.44-13.68-4-13.68-4l-5.84-5.56-1.39-4.17Z" transform="translate(-435.06 -6.69)"/><path class="cls-10" d="M632.35,842.37,628.61,789s-15.16,37.28-10.47,53.74S632.35,842.37,632.35,842.37Z" transform="translate(-435.06 -6.69)"/><polygon class="cls-11" points="152.59 882.4 177.45 850.31 179.1 839.5 176.4 839.81 179.4 829.28 200.15 829.28 201.65 846.12 198.76 846.72 198.27 856.59 194.39 859.06 179.86 907.09 152.59 882.4"/><path class="cls-12" d="M540.45,893.64l52.67-10.76s45.1,7.21,45.1,99.22c0,.43-69.34,21.79-69.46,4.39C568.46,943,540.45,893.64,540.45,893.64Z" transform="translate(-435.06 -6.69)"/><path class="cls-10" d="M498.13,874.05l-43.38-25.16s23.58,34,34.29,39.81S498.13,874.05,498.13,874.05Z" transform="translate(-435.06 -6.69)"/><polygon class="cls-13" points="120.32 888.84 72.15 865.84 73.27 863.86 61.24 860.85 46.21 881.3 59.44 890.02 61.23 886.49 64.68 881.29 61.84 887.61 74.39 899.25 85.03 900.52 124.61 928.84 120.32 888.84"/><polygon class="cls-14" points="133.34 978.76 86 1219.21 103.06 1218.67 129.31 1141.14 135.29 1117.94 166.52 1026.21 169.91 977.02 133.34 978.76"/><polygon class="cls-15" points="183.06 1220.28 179.39 1123.04 171.29 1079.05 160.84 1018.61 165.03 977.17 202.56 975.11 200.71 1044.49 204.51 1106.91 205.25 1130.49 203.31 1223.77 183.06 1220.28"/><path class="cls-10" d="M463.11,854.49s2.78-8.66,1.35-10.83-7.25-9.72-7.25-9.72l-1.67-1.79s-3,.71.95,5.75.67,3.63.67,3.63l-5.34-3.22L445,834.87,442.11,833s-1.54-1.21-2.15-1.18c-1.77.06-1.06,1.37-1.06,1.37l10.43,8.35-11.75-5.12s-1.61-.4-2.11.3,0,.91,0,.91l11.9,8.88-6.35-2s-1.59-.36-2.12.3-.76.91-.76.91l23.43,10.92Z" transform="translate(-435.06 -6.69)"/><path class="cls-10" d="M447.67,843.24l-8.47-3.13a7.28,7.28,0,0,0-2.92-.8,1.19,1.19,0,0,0-1.22,1.21l12.31,6Z" transform="translate(-435.06 -6.69)"/><path class="cls-10" d="M626.81,800.37s-7.4-5.28-7.53-7.88,0-12.13,0-12.13l.27-2.43s2.84-1.23,2.67,5.18,1.63,3.31,1.63,3.31l2.37-5.77,3.46-6.85,1.14-3.23s.51-1.88,1-2.23c1.45-1,1.67.47,1.67.47l-3.39,12.92,6.37-11.11s1-1.29,1.88-1,.54.73.54.73l-4.26,14.22,3.93-5.37s1.06-1.23,1.88-1,1.15.28,1.15.28l-12.3,22.74Z" transform="translate(-435.06 -6.69)"/><path class="cls-10" d="M632.49,782.14l4.94-7.56a7.42,7.42,0,0,1,1.87-2.39,1.18,1.18,0,0,1,1.69.24l-6.33,12.12Z" transform="translate(-435.06 -6.69)"/><path class="cls-10" d="M576.87,870.37c2.82,11.78,3.72,17.84,3.51,18.67-1.49,5.73-17.23,4.3-17.39,1s-5.63-16.72-6.87-18.55S575.2,863.39,576.87,870.37Z" transform="translate(-435.06 -6.69)"/><path class="cls-10" d="M566.79,867.41a38.26,38.26,0,0,0-9.43,2.82,100.26,100.26,0,0,0,5.23,8.61c4.07,5.73,10.35,6,14.5,6.61a9.79,9.79,0,0,0,3-.12c-.28-2.11-1.21-6.48-3.24-15C576.11,867.2,571.49,866.77,566.79,867.41Z" transform="translate(-435.06 -6.69)"/><path class="cls-10" d="M569.47,838.61l16,28.37s3.79,6.73,1.77,9.14-9.18,5.82-13.33,5.2-10.43-.88-14.51-6.6S547.75,854,547.75,854s-.63-6,10-8.16S569.47,838.61,569.47,838.61Z" transform="translate(-435.06 -6.69)"/><path class="cls-16" d="M564.62,832.27c1.43-.36,4.06-.57,5.75,1.27s1.56,6.28-.08,7.81-13.77,8.48-15.56,8.78-5,1.3-7.55-.28c-1.69-1,1.08-6.88,4.26-7.61C559.52,840.37,559.29,833.59,564.62,832.27Z" transform="translate(-435.06 -6.69)"/><path class="cls-16" d="M550.38,848.22l6.92,12.26,2.7,7-1.44.81-2.65,1.49s-13.82-14.38-10.82-18.61S549.6,847.4,550.38,848.22Z" transform="translate(-435.06 -6.69)"/><path class="cls-10" d="M559.08,869.63a2.2,2.2,0,0,1-.84,3l-1.12.64a2.22,2.22,0,0,1-3-.84l-2.54-4.49a2.22,2.22,0,0,1,.84-3l1.13-.63a2.19,2.19,0,0,1,3,.84Z" transform="translate(-435.06 -6.69)"/><path class="cls-17" d="M578.62,891.84s30.9,32.56,38.82,76.79c.63,3.49-2,6.94-2,6.94l-6.15-3.34S594.62,924,578.62,891.84Z" transform="translate(-435.06 -6.69)"/><polygon class="cls-18" points="143.14 884.91 144.37 892.43 127.39 884.83 127.82 882.8 143.14 884.91"/><polygon class="cls-19" points="145.43 880.1 150.21 887.75 143.27 884.74 145.43 880.1"/><polygon class="cls-20" points="383.84 1082.6 375.78 1086.22 368.41 1083.92 364.18 1061.02 378.36 1060.69 383.84 1082.6"/><polygon class="cls-21" points="444.66 1076.86 447.26 1092.63 429.36 1094.75 427.71 1073.33 444.66 1076.86"/><path class="cls-9" d="M818.24,1100.17l-12.16.24-.07-3.7-5.22,3.81-30.66.6s.43-5,21-6.23c5.29-.31,8.84-7.58,8.84-7.58s2.6-2.43,6.67,3c1.06,1.42,12.13-1.56,12.13-1.56S820,1096.17,818.24,1100.17Z" transform="translate(-435.06 -6.69)"/><path class="cls-9" d="M882.22,1109.48l-12.16.53-.13-3.74-5.16,4-30.68,1.38s.35-5.12,20.95-6.84c5.28-.45,8.72-7.91,8.72-7.91s2.55-2.53,6.72,2.92c1.09,1.42,12.12-1.88,12.12-1.88S883.93,1105.37,882.22,1109.48Z" transform="translate(-435.06 -6.69)"/><path class="cls-17" d="M872.87,785.78a283.39,283.39,0,0,0-36.35-11.13c-18.36-4.22-37.51-6-40.9-4.78-7,2.58-6.8,38.58-3.81,68.72a208.29,208.29,0,0,1,.53,34.76s56.12,30.45,60.37,30.08S868,891.84,867,882.65s5.36-64.51,12.68-72.78S883.58,787.81,872.87,785.78Z" transform="translate(-435.06 -6.69)"/><path class="cls-22" d="M801.79,1083.19l18.45.64-4.47-202.75L782.66,870.9S782.79,1000.92,801.79,1083.19Z" transform="translate(-435.06 -6.69)"/><polygon class="cls-23" points="417.51 874.57 425.56 978.9 452.21 1086.86 425.85 1087.51 366.7 870.92 392.22 874.64 417.51 874.57"/><path class="cls-24" d="M832.37,885s-7.09-2.39-9.51-3c-15.42-3.68-34.73-18.77-34.73-18.77s-1.6,13.35-3.51,34.29l41.25,30.74Z" transform="translate(-435.06 -6.69)"/><path class="cls-10" d="M855.36,746.81s-6.35,12.79-.79,26.28-32.27.81-32.27.81,12.79-11-6.14-21C806.07,747.5,852.7,741.21,855.36,746.81Z" transform="translate(-435.06 -6.69)"/><path class="cls-25" d="M807.61,874.68c-2.3-.9-4.07-2.89-6.44-3.73-4-47.75,13.71-67.57,31.86-99.73l5.25,2.53C823.14,801.73,804.55,826.51,807.61,874.68Z" transform="translate(-435.06 -6.69)"/><path class="cls-10" d="M854.09,734.43c-.3-9.75-15.09-25.1-20.07-22a18.39,18.39,0,0,0-5.16,4.55l-4.12,6a6.83,6.83,0,0,0-.8,1.42s-.06.06-.07.1l-11.56,25a1.54,1.54,0,0,0,.75,2l16.42,7.59c.71.33,13.42-3.29,15.73-4.48,2.72-1.17,5.26-1.62,6.91-2.87C854.22,750.22,854.36,743.17,854.09,734.43Z" transform="translate(-435.06 -6.69)"/><polygon class="cls-10" points="398.86 714.37 400.04 727.39 401.22 740.41 389.36 734.92 379.15 727.22 388.18 721.91 398.86 714.37"/><path class="cls-16" d="M853.26,753.24l9.45-19.53s-2.24-8.57-13.09-15.82-15.76-7.11-15.76-7.11l-6.49.76.15,6.78,14,5.09L835,731l-1.61,10.88,3.16,1.67,0,.3s1.69-5.89,6-7,5.59,3.44,2.69,6.38-3,4.26-3,4.26l2.86,5.64Z" transform="translate(-435.06 -6.69)"/><polygon class="cls-26" points="400.51 762.43 397.85 768.19 389.28 774.13 384.97 764.56 391.14 757.51 400.51 762.43"/><polygon class="cls-27" points="421.19 765.58 422.14 773.59 405.27 778.6 397.85 768.19 400.51 762.43 421.19 765.58"/><path class="cls-28" d="M882.35,786.37l-25.54-8.08s-28.58,53-17.41,78.42,8.05,35.29,5.48,49.57,1.55,29.6,1.55,29.6L879,905s5.26-9.35,2.36-17.13-12.1-26-9.71-48.54S878.8,790.52,882.35,786.37Z" transform="translate(-435.06 -6.69)"/><path class="cls-29" d="M787.77,913.78s8.77-84,11.45-96.23c2.48-11.42,20.81-46.3,20.81-46.3l-25.56-3.85s-16.37,40.39-14.39,51.21c.6,3.25,1.58,27.78,3.1,37.66.84,5.42-11.28,37.35-7.34,41.57C780.32,902.63,789.33,914.29,787.77,913.78Z" transform="translate(-435.06 -6.69)"/><path class="cls-30" d="M795.81,830a210.38,210.38,0,0,1,8.51-23.44c5.95-14.14,15.71-35.26,15.71-35.26l-16.14-1.63L795.61,785l5.58,4.33-8.94,9.26S793,815.84,795.81,830Z" transform="translate(-435.06 -6.69)"/><path class="cls-31" d="M872.56,783.73l-8,20.77L853.6,812l4,11.16s-9.77,11-11.6,49.65c0,.49-15.91-32.7-.19-68.59,6-13.63,11-26,11-26Z" transform="translate(-435.06 -6.69)"/><path class="cls-10" d="M729.76,750.53l-5.82-12.37-7.7-3.2-4.94,8.73-2.32,6.9,2.28,4.89s9.56,5.26,15.28,3.3S729.76,750.53,729.76,750.53Z" transform="translate(-435.06 -6.69)"/><path class="cls-32" d="M809.92,776.64s-19.2,36.93-31.94,35.44c-12.42-1.45-6.47-9.08-3.8-16.27s15.91-24.21,17.59-26.66C793.87,766.09,799.1,768.8,809.92,776.64Z" transform="translate(-435.06 -6.69)"/><path class="cls-33" d="M779.53,796.39s5.05,10.28-.63,16.08S759,809.32,745,792.33a320.7,320.7,0,0,1-23.66-32.93l8.12-9.72S779.2,790.05,779.53,796.39Z" transform="translate(-435.06 -6.69)"/><g class="cls-6"><path class="cls-34" d="M769.19,811.09c-.05.63-.1,1.25-.16,1.87C769.09,812.34,769.15,811.72,769.19,811.09Z" transform="translate(-435.06 -6.69)"/><path class="cls-35" d="M752.78,748.44c-.2-.29-.41-.57-.62-.86C752.37,747.86,752.57,748.15,752.78,748.44Z" transform="translate(-435.06 -6.69)"/><g class="cls-6"><g class="cls-36"><g class="cls-6"><path class="cls-37" d="M785.54,808.47l-16.35,2.62c0,.63-.1,1.25-.16,1.87l16.35-2.62c.07-.62.12-1.25.16-1.87" transform="translate(-435.06 -6.69)"/></g></g></g><g class="cls-6"><g class="cls-38"><g class="cls-6"><path class="cls-37" d="M784.31,817.87,768,820.5c-.16.85-.34,1.71-.52,2.56l16.35-2.63c.18-.85.36-1.7.53-2.56" transform="translate(-435.06 -6.69)"/></g></g></g><path class="cls-35" d="M784.31,817.87c-.17.87-.35,1.72-.53,2.56C784,819.58,784.14,818.73,784.31,817.87Z" transform="translate(-435.06 -6.69)"/><g class="cls-6"><g class="cls-39"><g class="cls-6"><path class="cls-40" d="M782.54,825.35,766.18,828l0,.16,16.35-2.62a1,1,0,0,1,0-.16" transform="translate(-435.06 -6.69)"/></g></g></g><g class="cls-6"><g class="cls-41"><g class="cls-6"><path class="cls-42" d="M768.52,745l-16.36,2.62c.21.29.42.57.62.86l16.35-2.63-.61-.85" transform="translate(-435.06 -6.69)"/></g></g></g><g class="cls-6"><g class="cls-43"><g class="cls-6"><path class="cls-44" d="M763.81,739.18l-16.35,2.62q.56.62,1.08,1.23l16.35-2.62q-.52-.63-1.08-1.23" transform="translate(-435.06 -6.69)"/></g></g></g><path class="cls-45" d="M733.8,730.79c-.82-.46-1.66-.88-2.49-1.27C732.14,729.92,733,730.33,733.8,730.79Z" transform="translate(-435.06 -6.69)"/><g class="cls-6"><g class="cls-46"><g class="cls-6"><path class="cls-47" d="M774.23,843.59l-16.36,2.63-.54.81,16.35-2.63.55-.81" transform="translate(-435.06 -6.69)"/></g></g></g><path class="cls-48" d="M774.23,843.59l-.55.81C773.87,844.14,774.05,843.87,774.23,843.59Z" transform="translate(-435.06 -6.69)"/><g class="cls-6"><g class="cls-49"><g class="cls-6"><path class="cls-47" d="M773.07,845.26l-16.35,2.62a44.77,44.77,0,0,1-7.51,8l16.35-2.62a45.11,45.11,0,0,0,7.51-8" transform="translate(-435.06 -6.69)"/></g></g></g><polygon class="cls-50" points="328.74 732.49 312.39 735.11 304.52 751.49 320.87 748.87 328.74 732.49"/><g class="cls-6"><g class="cls-51"><g class="cls-6"><path class="cls-52" d="M747.66,726.9l-16.35,2.62c.83.39,1.67.81,2.49,1.27l16.36-2.62c-.83-.46-1.67-.88-2.5-1.27" transform="translate(-435.06 -6.69)"/></g></g></g><g class="cls-6"><g class="cls-53"><path class="cls-54" d="M746.5,748l-16.35,2.62a37.32,37.32,0,0,1,9.43,7.61l16.35-2.62A36.93,36.93,0,0,0,746.5,748" transform="translate(-435.06 -6.69)"/></g></g><path class="cls-55" d="M764.89,740.41c-.35-.42-.71-.83-1.08-1.24a51.6,51.6,0,0,0-13.64-11L746.5,748a36.93,36.93,0,0,1,9.43,7.61l7.88-16.38Q764.37,739.78,764.89,740.41Z" transform="translate(-435.06 -6.69)"/><polygon class="cls-56" points="315.1 721.48 298.75 724.11 295.09 743.88 311.44 741.26 315.1 721.48"/><g class="cls-6"><g class="cls-57"><path class="cls-58" d="M730.77,744.85l-16.36,2.63a24.18,24.18,0,0,1,15.73,3.09L746.5,748a24.27,24.27,0,0,0-15.73-3.1" transform="translate(-435.06 -6.69)"/></g></g><path class="cls-59" d="M754.8,799v-.11c0-1-.09-2-.16-2.94,0-.23,0-.46,0-.69,0-.53-.1-1.05-.16-1.56-.08-.78-.17-1.56-.28-2.33-.06-.46-.13-.92-.2-1.38-.12-.77-.26-1.53-.41-2.28-.08-.44-.16-.87-.25-1.31-.19-.89-.41-1.79-.63-2.67-.07-.3-.14-.6-.22-.9-.31-1.18-.66-2.34-1-3.49-.29-.89-.59-1.76-.91-2.63l-.26-.68c-.27-.7-.55-1.4-.84-2.09-.09-.22-.19-.44-.28-.65q-.55-1.31-1.17-2.55c-.05-.1-.1-.21-.16-.31-.37-.75-.76-1.49-1.16-2.22-.08-.16-.17-.32-.26-.47-.43-.78-.89-1.55-1.35-2.3-.1-.14-.2-.29-.29-.44-.43-.68-.88-1.35-1.33-2l-.21-.31q-.77-1.06-1.56-2.07l-.37-.45c-.54-.67-1.1-1.33-1.68-2l16.35-2.62c.58.63,1.14,1.29,1.68,2l.37.46c.53.67,1,1.36,1.56,2.06l.22.32q.68,1,1.32,2c.1.15.2.3.29.45.47.75.92,1.51,1.35,2.29.1.16.18.32.27.49.39.71.77,1.44,1.14,2.18l.18.35.07.15c.38.78.74,1.57,1.09,2.38.1.22.19.44.28.67.29.68.57,1.37.84,2.08.09.22.18.45.26.67.31.83.6,1.67.88,2.52a.56.56,0,0,0,0,.12q.56,1.72,1,3.48c.08.3.15.61.23.92.22.88.43,1.76.62,2.66,0,.15.08.3.11.46s.09.56.15.85c.14.75.28,1.51.4,2.27l.21,1.39c.1.77.19,1.54.27,2.32,0,.29.08.59.11.88s0,.46.05.69,0,.45,0,.68c.07,1,.13,2,.16,3v0c0,1,0,2,0,2.93,0,.22,0,.43,0,.65s0,.43,0,.64c0,.79-.07,1.59-.13,2.39a62.14,62.14,0,0,1-.88,7c-.2,1.08-.43,2.13-.68,3.16a.07.07,0,0,1,0,.05c-.22.89-.45,1.74-.71,2.59-.05.19-.11.39-.17.58-.27.86-.55,1.7-.85,2.51,0,0,0,.09-.05.14-.29.77-.6,1.52-.92,2.26l-.22.51c-.34.76-.69,1.49-1.06,2.21-.05.1-.11.2-.17.3-.33.64-.68,1.25-1,1.85l-.25.43-.18.28c-.17.28-.36.53-.54.8s-.52.8-.8,1.18l-.73.95c-.28.35-.56.72-.85,1.06l-.78.87c-.3.33-.6.65-.91,1s-.55.53-.83.79-.62.57-.94.84c-.1.09-.19.19-.29.27-.37.31-.74.59-1.11.87l-.11.08c-.55.4-1.11.77-1.68,1.12l-.44.26c-.49.3-1,.57-1.51.83l-.27.14-.11,0c-.54.26-1.09.49-1.65.7l-.4.14c-.59.22-1.2.42-1.81.58l-.23.06-1,.23c-.32.07-.65.13-1,.18l-16.36,2.63c.68-.11,1.34-.26,2-.42l.2,0c.61-.16,1.22-.36,1.83-.58l.39-.15c.59-.22,1.18-.47,1.75-.75l.3-.15c.5-.25,1-.52,1.48-.81l.46-.27c.56-.35,1.12-.71,1.66-1.12l.12-.09c.48-.35.94-.73,1.4-1.11L742,836l.82-.78c.31-.32.61-.64.91-1s.52-.57.77-.86.58-.72.86-1.08.49-.61.73-.94.53-.77.79-1.17.49-.72.73-1.1l.24-.4c.37-.61.72-1.23,1.06-1.87,0-.1.1-.2.16-.3.36-.71.72-1.45,1.06-2.2l.22-.52c.32-.73.63-1.49.92-2.26l.05-.14c.3-.81.58-1.65.84-2.51.07-.19.12-.38.18-.58.26-.86.5-1.73.72-2.64s.48-2.08.68-3.15a65.06,65.06,0,0,0,.88-7c.07-1,.11-2,.14-3,0-.23,0-.46,0-.7C754.83,800.87,754.82,799.92,754.8,799Z" transform="translate(-435.06 -6.69)"/><g class="cls-6"><g class="cls-60"><g class="cls-6"><path class="cls-47" d="M773.07,845.26l-16.35,2.62a44.77,44.77,0,0,1-7.51,8l16.35-2.62a45.11,45.11,0,0,0,7.51-8" transform="translate(-435.06 -6.69)"/><path class="cls-61" d="M765.56,853.28l-16.35,2.62a36.29,36.29,0,0,1-7.58,4.85L758,858.13a36.63,36.63,0,0,0,7.57-4.85" transform="translate(-435.06 -6.69)"/><path class="cls-62" d="M758,858.13l-16.36,2.62a32.47,32.47,0,0,1-7.31,2.47l16.35-2.63a32.69,32.69,0,0,0,7.32-2.46" transform="translate(-435.06 -6.69)"/><path class="cls-63" d="M750.67,860.59l-16.35,2.63-1.42.26,16.35-2.62c.48-.08,1-.17,1.42-.27" transform="translate(-435.06 -6.69)"/></g></g></g><path class="cls-64" d="M785.64,807.19c1.58-22.12-4.48-44.67-16.51-61.38l-.61-.85c-.37-.5-.74-1-1.12-1.48s-.53-.69-.81-1c-.56-.7-1.12-1.38-1.7-2.05q-.52-.63-1.08-1.23l-7.88,16.38c10.34,11.34,16.34,29.65,15.08,47.35a62.14,62.14,0,0,1-.88,7c-4.54,24.49-22.48,36.45-40.07,26.73-7-3.87-12.85-10.62-17.12-18.84l-11.34,11.4c6.18,11.9,14.68,21.61,24.8,27.21,1.12.61,2.24,1.15,3.37,1.65l.86.38c.85.36,1.71.68,2.55,1,.46.15.92.3,1.38.43s.9.27,1.35.39c14.2,3.61,27.75-2.16,37.16-14.94.24-.33.43-.59.61-.86l.55-.81a62.93,62.93,0,0,0,7.57-15.8c.26-.83.48-1.56.69-2.28.13-.47.22-.75.31-1.06s.22-.89.34-1.33c.16-.64.33-1.29.48-2,0-.24.1-.49.16-.74.18-.84.36-1.69.53-2.56.34-1.9.58-3.45.78-5l.09-.66c.08-.61.15-1.23.2-1.85s.11-1.25.16-1.87C785.58,808,785.61,807.61,785.64,807.19Z" transform="translate(-435.06 -6.69)"/><polygon class="cls-65" points="272.95 727.31 256.6 729.94 265.94 747.95 282.3 745.33 272.95 727.31"/><g class="cls-6"><g class="cls-66"><g class="cls-6"><path class="cls-67" d="M710.3,731.85,694,734.48a46.43,46.43,0,0,0-8.88,10.44l16.35-2.62a47,47,0,0,1,8.88-10.45" transform="translate(-435.06 -6.69)"/></g></g></g><g class="cls-6"><g class="cls-66"><g class="cls-6"><path class="cls-68" d="M710.3,731.85,694,734.48a46.43,46.43,0,0,0-8.88,10.44l16.35-2.62a47,47,0,0,1,8.88-10.45" transform="translate(-435.06 -6.69)"/></g></g></g><g class="cls-6"><g class="cls-69"><g class="cls-6"><path class="cls-70" d="M727.28,723.45l-16.35,2.62c-.45.07-.9.15-1.34.25l16.35-2.62c.45-.1.89-.18,1.34-.25" transform="translate(-435.06 -6.69)"/><path class="cls-58" d="M725.94,723.7l-16.35,2.62a30.39,30.39,0,0,0-6.94,2.35L719,726a30.85,30.85,0,0,1,6.94-2.34" transform="translate(-435.06 -6.69)"/><path class="cls-58" d="M719,726l-16.35,2.63a36.67,36.67,0,0,0-7.69,4.94L711.32,731a36.27,36.27,0,0,1,7.68-5" transform="translate(-435.06 -6.69)"/><path class="cls-58" d="M711.32,731,695,733.61l-1,.87c-.77.67-1.54,1.39-2.29,2.15L708,734c.75-.76,1.52-1.48,2.29-2.16l1-.86" transform="translate(-435.06 -6.69)"/></g></g></g><polygon class="cls-4" points="257.16 760.13 240.81 762.75 255.02 770.59 271.37 767.97 257.16 760.13"/><g class="cls-6"><g class="cls-71"><g class="cls-6"><path class="cls-72" d="M692.23,766.81l-16.35,2.63c-.22,1.16-.4,2.32-.57,3.49l16.35-2.62c.17-1.17.35-2.33.57-3.5" transform="translate(-435.06 -6.69)"/></g></g></g><g class="cls-6"><g class="cls-73"><g class="cls-6"><path class="cls-74" d="M692.23,766.82l-16.35,2.62c-.22,1.16-.41,2.32-.57,3.49l16.35-2.62c.17-1.17.35-2.33.57-3.49" transform="translate(-435.06 -6.69)"/></g></g></g><g class="cls-6"><g class="cls-75"><g class="cls-6"><path class="cls-68" d="M710.3,731.85,694,734.48a46.43,46.43,0,0,0-8.88,10.44l16.35-2.62a47,47,0,0,1,8.88-10.45" transform="translate(-435.06 -6.69)"/><path class="cls-76" d="M701.42,742.3l-16.35,2.62a66.75,66.75,0,0,0-8.23,20l16.35-2.63a66.8,66.8,0,0,1,8.23-20" transform="translate(-435.06 -6.69)"/><path class="cls-4" d="M693.19,762.26l-16.35,2.63c-.36,1.48-.68,3-1,4.54-.23,1.22-.42,2.43-.59,3.65l16.35-2.62c.17-1.22.37-2.43.59-3.65.29-1.55.61-3.07,1-4.55" transform="translate(-435.06 -6.69)"/></g></g></g><g class="cls-6"><g class="cls-75"><path class="cls-77" d="M710.3,731.85,694,734.48a46.43,46.43,0,0,0-8.88,10.44l16.35-2.62a47,47,0,0,1,8.88-10.45" transform="translate(-435.06 -6.69)"/><path class="cls-77" d="M701.42,742.3l-16.35,2.62a66.75,66.75,0,0,0-8.23,20l16.35-2.63a66.8,66.8,0,0,1,8.23-20" transform="translate(-435.06 -6.69)"/><path class="cls-77" d="M693.19,762.26l-16.35,2.63c-.36,1.48-.68,3-1,4.54-.23,1.22.17-1.22,0,0l16.35-2.62c.17-1.22-.22,1.22,0,0,.29-1.55.61-3.07,1-4.55" transform="translate(-435.06 -6.69)"/></g></g><path class="cls-78" d="M717.36,752,708,734c.75-.76,1.52-1.48,2.29-2.16-8.62,7.44-15.21,19.46-18.08,35-.22,1.22-.42,2.43-.59,3.65l0-.15c.17-1.17.35-2.33.57-3.49l14.2,7.84C708.24,764.93,712.18,757.22,717.36,752Z" transform="translate(-435.06 -6.69)"/><path class="cls-79" d="M750.17,728.17c-.85-.46-1.68-.87-2.51-1.27-13.41-6.44-26.34-4.73-37.36,5-.77.68-1.54,1.4-2.29,2.16l9.35,18c7.85-7.88,18.55-9.93,29.14-4.07Z" transform="translate(-435.06 -6.69)"/><path class="cls-5" d="M685.24,831.77c-.58-1.13-1.16-2.28-1.7-3.45C684.08,829.48,684.65,830.62,685.24,831.77Z" transform="translate(-435.06 -6.69)"/><g class="cls-6"><path class="cls-4" d="M674.81,780.19c0-.24.07-.54.1-.77,0,0,.42-3.29.43-3.52a26.09,26.09,0,0,1,.3-2.88l-.36.06c-.13.89-.24,1.78-.34,2.67,0,.14,0,.29-.05.43-.15,1.35-.28,2.7-.37,4.05a96.52,96.52,0,0,0,9,48.09c.54,1.16,1.11,2.3,1.7,3.45-.2-.39-.72-1.43-1.22-2.55-.58-1.31-3-6.91-3-6.94-.73-1.8-1.52-4.27-2.14-6.11a117.74,117.74,0,0,1-3-12.33,91.28,91.28,0,0,1-1.31-12.12A92.39,92.39,0,0,1,674.81,780.19Z" transform="translate(-435.06 -6.69)"/><g class="cls-80"><g class="cls-6"><path class="cls-4" d="M691.63,770.46l-16.35,2.62c-.13.89-.24,1.78-.34,2.67,0,.14,0,.29-.05.43-.15,1.35-.28,2.7-.37,4.05-.08,1.17-.15,2.35-.19,3.53l16.36-2.63c0-1.17.1-2.35.18-3.52.1-1.35.22-2.7.37-4.05l.06-.43q.13-1.35.33-2.67" transform="translate(-435.06 -6.69)"/><path class="cls-4" d="M690.69,781.13l-16.36,2.63a95.9,95.9,0,0,0,.35,12.11L691,793.25a94.22,94.22,0,0,1-.34-12.12" transform="translate(-435.06 -6.69)"/><path class="cls-4" d="M691,793.25l-16.35,2.62a93.63,93.63,0,0,0,1.56,10.52l16.35-2.62A96,96,0,0,1,691,793.25" transform="translate(-435.06 -6.69)"/><path class="cls-4" d="M692.59,803.77l-16.35,2.62A94.9,94.9,0,0,0,679,817l16.35-2.62a94.9,94.9,0,0,1-2.79-10.56" transform="translate(-435.06 -6.69)"/><path class="cls-4" d="M695.38,814.33,679,817a96,96,0,0,0,4.51,11.37c.16.35.33.7.5,1l16.35-2.62c-.17-.35-.34-.69-.5-1a98.44,98.44,0,0,1-4.51-11.37" transform="translate(-435.06 -6.69)"/><path class="cls-81" d="M700.39,826.74,684,829.36c.39.81.79,1.61,1.2,2.41l16.36-2.62c-.42-.8-.82-1.61-1.21-2.41" transform="translate(-435.06 -6.69)"/></g></g></g><polygon class="cls-82" points="277.88 811.07 261.52 813.69 250.19 825.09 266.54 822.47 277.88 811.07"/><path class="cls-83" d="M726.4,856.37c1.12.61,2.24,1.15,3.37,1.65l.86.38c.85.36,1.71.68,2.55,1,.46.15.92.3,1.38.43s.9.27,1.35.39h0l.7.16a32.68,32.68,0,0,0,12.61.5l-2.78.45.94-.08.54,0c.49-.05,1-.12,1.48-.2l.14,0h0l-16.35,2.63-.16,0c-.48.07-1,.14-1.47.19l-.62.05-1,.08c-.23,0-.47,0-.7,0l-1,0h-.74l-.93,0-.76-.05-.93-.08-.77-.1-.92-.12-.79-.14-.91-.17-.81-.18-.64-.15-.28-.07-.25-.06-1.35-.38-1.38-.44c-.84-.29-1.7-.61-2.56-1l-.86-.38c-1.12-.5-2.25-1-3.36-1.66-10.12-5.59-18.63-15.31-24.8-27.21l16.35-2.62C707.78,841.06,716.28,850.77,726.4,856.37Z" transform="translate(-435.06 -6.69)"/><g class="cls-6"><path class="cls-4" d="M691.3,773.13l-16.36,2.62c0,.14,0,.29-.05.43l16.35-2.62Z" transform="translate(-435.06 -6.69)"/><g class="cls-84"><g class="cls-6"><path class="cls-4" d="M691.3,773.13l-16.36,2.62c0,.14,0,.29-.05.43l16.35-2.62.06-.43" transform="translate(-435.06 -6.69)"/></g></g></g><g class="cls-6"><path class="cls-4" d="M691.3,773.13l-16.36,2.62c0,.14,0,.29-.05.43l16.35-2.62Z" transform="translate(-435.06 -6.69)"/><g class="cls-84"><g class="cls-6"><path class="cls-4" d="M691.3,773.13l-16.36,2.62c0,.14,0,.29-.05.43l16.35-2.62.06-.43" transform="translate(-435.06 -6.69)"/></g></g></g><g class="cls-6"><path class="cls-4" d="M674.81,780.19a92.39,92.39,0,0,0-.2,11.53,91.28,91.28,0,0,0,1.31,12.12,117.74,117.74,0,0,0,3,12.33c.62,1.84,1.41,4.31,2.14,6.11,0,0,2.4,5.63,3,6.94.5,1.12,1,2.16,1.22,2.55l16.36-2.62c-.6-1.15-1.16-2.29-1.71-3.45a96.54,96.54,0,0,1-9-48.09c.1-1.35.22-2.7.37-4.05l.06-.43q.13-1.35.33-2.67l-16,2.56a26.09,26.09,0,0,0-.3,2.88c0,.23-.43,3.49-.43,3.52C674.88,779.65,674.83,780,674.81,780.19Z" transform="translate(-435.06 -6.69)"/><g class="cls-85"><g class="cls-6"><path class="cls-4" d="M691.63,770.46l-16.35,2.62c-.13.89-.24,1.78-.34,2.67,0,.14,0,.29-.05.43-.15,1.35-.28,2.7-.37,4.05-.08,1.17-.15,2.35-.19,3.53l16.36-2.63c0-1.17.1-2.35.18-3.52.1-1.35.22-2.7.37-4.05l.06-.43q.13-1.35.33-2.67" transform="translate(-435.06 -6.69)"/><path class="cls-4" d="M690.69,781.13l-16.36,2.63a95.9,95.9,0,0,0,.35,12.11L691,793.25a94.22,94.22,0,0,1-.34-12.12" transform="translate(-435.06 -6.69)"/><path class="cls-4" d="M691,793.25l-16.35,2.62a93.63,93.63,0,0,0,1.56,10.52l16.35-2.62A96,96,0,0,1,691,793.25" transform="translate(-435.06 -6.69)"/><path class="cls-4" d="M692.59,803.77l-16.35,2.62A94.9,94.9,0,0,0,679,817l16.35-2.62a94.9,94.9,0,0,1-2.79-10.56" transform="translate(-435.06 -6.69)"/><path class="cls-4" d="M695.38,814.33,679,817a96,96,0,0,0,4.51,11.37c.16.35.33.7.5,1l16.35-2.62c-.17-.35-.34-.69-.5-1a98.44,98.44,0,0,1-4.51-11.37" transform="translate(-435.06 -6.69)"/><path class="cls-81" d="M700.39,826.74,684,829.36c.39.81.79,1.61,1.2,2.41l16.36-2.62c-.42-.8-.82-1.61-1.21-2.41" transform="translate(-435.06 -6.69)"/></g></g></g><g class="cls-6"><path class="cls-5" d="M683.54,828.32c.54,1.17,1.12,2.32,1.7,3.45l16.36-2.62c-.6-1.14-1.16-2.29-1.71-3.45Z" transform="translate(-435.06 -6.69)"/><g class="cls-86"><g class="cls-6"><path class="cls-5" d="M699.89,825.7l-16.35,2.62c.16.35.33.71.5,1.06l16.35-2.62c-.17-.36-.33-.71-.5-1.06" transform="translate(-435.06 -6.69)"/><path class="cls-87" d="M700.39,826.76,684,829.38c.39.8.79,1.6,1.2,2.39l16.36-2.62c-.41-.79-.82-1.59-1.21-2.39" transform="translate(-435.06 -6.69)"/></g></g></g><path class="cls-5" d="M685,831.37c.07.13.14.27.2.4l16.36-2.62c-.6-1.14-1.16-2.29-1.71-3.45l-16.35,2.62C683.88,829.05,684.33,830,685,831.37Z" transform="translate(-435.06 -6.69)"/><g class="cls-88"><g class="cls-6"><path class="cls-4" d="M699.89,825.7l-16.35,2.62c.16.35.33.71.5,1.06l16.35-2.62c-.17-.36-.33-.71-.5-1.06" transform="translate(-435.06 -6.69)"/><path class="cls-4" d="M700.39,826.76,684,829.38c.39.8.79,1.6,1.2,2.39l16.36-2.62c-.41-.79-.82-1.59-1.21-2.39" transform="translate(-435.06 -6.69)"/></g></g><path class="cls-89" d="M712.94,817.76a69.37,69.37,0,0,1-7.39-36.15,59.83,59.83,0,0,1,.88-6.94l-14.2-7.86c-.22,1.17-.4,2.33-.57,3.5l0,.15q-.2,1.32-.33,2.67l-.06.43c-.15,1.35-.27,2.7-.37,4.05a96.54,96.54,0,0,0,9,48.09c.55,1.16,1.11,2.3,1.71,3.45Z" transform="translate(-435.06 -6.69)"/></g><path class="cls-10" d="M751,839.73a34.77,34.77,0,0,1-5.51-4.05c-2-1.69-4.07.73-4.07.73l-3.19,1.44.15-4.79L739.87,821l9-6.61s2.48.35,3.55,1.76,4,10.8,4,10.8Z" transform="translate(-435.06 -6.69)"/><path class="cls-90" d="M886.1,789.88c.6,1.11,3.91,20.84-9.08,36-4.52,5.28-42.36,33.38-55.31,34.61s-12.57-9.15-10.12-15.33S823.36,834,836,822.3c13.13-12.16,21.58-21.64,27.41-26.18C871.82,789.59,880.87,780.22,886.1,789.88Z" transform="translate(-435.06 -6.69)"/><path class="cls-91" d="M829.25,854s-.34,6.54-10.11,6.58c-2.7,0-7.9-1.29-11.86-2.39C789,853.19,749,841,749,841l8.6-16.54s38.35,7.42,46.69,9.33S831.27,834.7,829.25,854Z" transform="translate(-435.06 -6.69)"/><rect class="cls-92" x="520.5" y="1021.89" width="211.2" height="347.42"/><rect class="cls-93" x="520.5" y="1021.89" width="45.5" height="347.42"/><rect class="cls-94" x="281.53" y="1095.93" width="211.21" height="274.46"/><rect class="cls-95" x="281.53" y="1095.93" width="45.5" height="274.46"/><rect class="cls-96" x="43.72" y="1232.34" width="211.2" height="139.43"/><rect class="cls-97" x="43.72" y="1232.34" width="45.5" height="139.43"/><path class="cls-98" d="M1036.71,717.61s-2.77,13.83-44.31,5.86-38.12-17-38.12-17l-.65-10.64,21.6-23.14,11.63,9.67-.55,2.3s1.66,2.66,4.43,2.66,14.78,3.4,38.6,4.46C1040.32,692.24,1037.26,715,1036.71,717.61Z" transform="translate(-435.06 -6.69)"/><path class="cls-99" d="M1029.51,692.08l-1.4-.07a53.93,53.93,0,0,1,1.67,16s-.94,14.06-43.2,11.16a185.49,185.49,0,0,1-18.7-2.13c5.51,2.1,13.35,4.33,24.52,6.48,41.54,8,44.31-5.86,44.31-5.86C1037.26,715,1040.49,692.57,1029.51,692.08Z" transform="translate(-435.06 -6.69)"/><path class="cls-10" d="M975.23,675.59s-18.13-24.48,6.1-44.16c7.19-5.85-1.67-2.66-10,1.06s-25.48,22.35-23.81,41,3.87,25.53,11.07,28.19S975.23,675.59,975.23,675.59Z" transform="translate(-435.06 -6.69)"/><polygon class="cls-10" points="545.88 621.76 564.71 614.84 568.59 621.76 564.15 628.14 559.17 627.08 554.74 629.2 545.88 621.76"/><path class="cls-100" d="M1024.53,1027.76s26-46.28,26.58-70.75a188.91,188.91,0,0,0-4.17-44l-23.52-6Z" transform="translate(-435.06 -6.69)"/><path class="cls-101" d="M1024.53,802.2,1023.42,907l22.15,12.23a151.08,151.08,0,0,0,15-56.92C1062.19,830.39,1024.53,802.2,1024.53,802.2Z" transform="translate(-435.06 -6.69)"/><path class="cls-102" d="M1024.53,802.2l48.73,114.91,8.87,12.23,38.77,88.84,4.43,2.67s7.76-52.14-5.54-74.49-19.94-34.57-19.94-34.57L1070.5,799Z" transform="translate(-435.06 -6.69)"/><path class="cls-103" d="M1022.86,803.79l49.3-1.06,20.49-68.63s13.29-41.49-12.18-42-54.84-.53-54.84-.53S1008.46,706.44,1022.86,803.79Z" transform="translate(-435.06 -6.69)"/><path class="cls-10" d="M1122,778.79l-19.94,58s24.37-20.22,30.46-33.52A166.15,166.15,0,0,0,1142,775.6Z" transform="translate(-435.06 -6.69)"/><polygon class="cls-10" points="670.21 827.43 656.37 839.66 650.27 828.49 654.15 828.49 656.92 823.7 665.22 826.89 670.21 827.43"/><path class="cls-10" d="M1067.73,636.22s-25.48,23.94-22.71,32.45a63.55,63.55,0,0,1,3.32,18.08c0,2.67-2.76,14.37-.55,13.84s16.61-5.32,18.27-9,4.44-14.9,4.44-14.9,21.27-10.54,16.91-26C1086.14,646.18,1069.94,635.15,1067.73,636.22Z" transform="translate(-435.06 -6.69)"/><path class="cls-17" d="M1050.24,701.18s-22.33,38.51-16,81.12c.5,3.36,4.5,5.76,4.5,5.76l5.49-4.8S1043.8,735,1050.24,701.18Z" transform="translate(-435.06 -6.69)"/><polygon class="cls-104" points="615.97 693.47 617.19 701.98 631.78 688.16 631.78 686.03 615.97 693.47"/><polygon class="cls-105" points="611.38 687.98 608.82 699.05 615.3 693.47 611.38 687.98"/><path class="cls-106" d="M985.18,697.28l3.38-7.16,1.19-3a6.25,6.25,0,0,1-3.44-2.54l-1.47,5.81L981.79,697,975,704.11Z" transform="translate(-435.06 -6.69)"/><path class="cls-107" d="M1089.33,732l28.8,44.15,3.88.53-1.11,3.73,20.86-1.6,4.62-18.09-40.44-59.58s-12.59-11.45-33.23-8.51C1057.76,694.74,1087.11,728.25,1089.33,732Z" transform="translate(-435.06 -6.69)"/><path class="cls-108" d="M1140,767.26s-12.89,6.18-19.72,9.17l1.69.23-1.11,3.73,7.21-.62,10.1-2.38.56-4.28h-3.13Z" transform="translate(-435.06 -6.69)"/><path class="cls-9" d="M1031,1013.38l1.67,3.82.71,4.19-.71,6.53-3.58.22-2.62-.8-1.85,1.07s-10.18,1.13-14,.94c-6.25-.33-9.61-1.26-10.73-2.57-.63-.73,2.39-1.8,3.36-1.87,5.61-.37,14.71-3.42,14.71-3.42s4.23-3.22,5-4.77a28,28,0,0,0,1.76-4.86Z" transform="translate(-435.06 -6.69)"/><path class="cls-9" d="M1124.72,1013.38l1.67,3.82.72,4.19-.72,6.53-3.57.22-2.63-.8-1.85,1.07s-10.18,1.13-13.95.94c-6.25-.33-9.61-1.26-10.73-2.57-.63-.73,2.39-1.8,3.36-1.87,5.61-.37,14.71-3.42,14.71-3.42s4.23-3.22,5-4.77a27.52,27.52,0,0,0,1.77-4.86Z" transform="translate(-435.06 -6.69)"/><path class="cls-16" d="M1087.32,676.07c3.43-3.1,9.21-9.62,10.5-13.75,1.52-4.89.15-8.83-8.25-18.72s-13.11-11.09-13.11-11.09-4.79-1.34-6.38-1c-1.85.36-5.61,3.37-5.42,5.25.47,4.62,15.7,10,15.7,10l-8.19,5.55-4.43,10,2.57,2.46,0,.29s3.18-5.19,7.55-5.08,4.41,4.81.86,6.84-4,3.28-4,3.28l-4.74,5.72s-.6,3.58,1.21,4.24C1074.6,681.24,1084.6,678.54,1087.32,676.07Z" transform="translate(-435.06 -6.69)"/></g></g></svg>