<?xml version="1.0" encoding="utf-8"?>
<!-- Generator: Adobe Illustrator 25.2.1, SVG Export Plug-In . SVG Version: 6.00 Build 0)  -->
<svg version="1.1" id="Layer_1" xmlns="http://www.w3.org/2000/svg" width="300" xmlns:xlink="http://www.w3.org/1999/xlink" x="0px" y="0px"
	 viewBox="0 0 277.23 344.79" style="enable-background:new 0 0 277.23 344.79;" xml:space="preserve">
<style type="text/css">
	.st0{fill:#C6BDF4;}
	.st1{fill:#FFFFFF;}
	.st2{fill:url(#SVGID_1_);}
	.st3{fill:#CCCCED;}
	.st4{fill:url(#SVGID_2_);}
	.st5{fill:url(#SVGID_3_);}
	.st6{fill:url(#SVGID_4_);}
	.st7{fill:url(#SVGID_5_);}
	.st8{fill:#FAFBFC;}
	.st9{fill:#FFFBFC;}
	.st10{fill:#A7A7D8;}
	.st11{fill:#FFDB4E;}
	.st12{fill:#D6D6D6;}
	.st13{fill:url(#SVGID_6_);}
	.st14{fill:#DBDBDB;}
	.st15{fill:url(#SVGID_7_);}
	.st16{fill:#450606;}
	.st17{fill:url(#SVGID_8_);}
	.st18{fill:#FFD6D6;}
	.st19{fill:url(#SVGID_9_);}
	.st20{fill:url(#SVGID_10_);}
	.st21{fill:url(#SVGID_11_);}
	.st22{fill:#848484;}
	.st23{opacity:0.44;fill:#303056;}
	.st24{fill:#FFD45C;}
	.st25{fill:url(#SVGID_12_);}
	.st26{fill:#FFAC5E;}
	.st27{fill:url(#SVGID_13_);}
	.st28{fill:url(#SVGID_14_);}
	.st29{fill:#FFE95E;}
	.st30{fill:url(#SVGID_15_);}
	.st31{fill:url(#SVGID_16_);}
	.st32{fill:url(#SVGID_17_);}
	.st33{fill:url(#SVGID_18_);}
	.st34{fill:url(#SVGID_19_);}
	.st35{fill:#814D4D;}
	.st36{fill:url(#SVGID_20_);}
	.st37{fill:url(#SVGID_21_);}
	.st38{fill:url(#SVGID_22_);}
	.st39{fill:url(#SVGID_23_);}
	.st40{fill:url(#SVGID_24_);}
	.st41{fill:url(#SVGID_25_);}
	.st42{fill:url(#SVGID_26_);}
	.st43{fill:url(#SVGID_27_);}
	.st44{fill:url(#SVGID_28_);}
	.st45{fill:url(#SVGID_29_);}
	.st46{fill:#8569B2;}
	.st47{fill:url(#SVGID_30_);}
	.st48{fill:url(#SVGID_31_);}
	.st49{fill:url(#SVGID_32_);}
	.st50{fill:url(#SVGID_33_);}
	.st51{fill:url(#SVGID_34_);}
	.st52{fill:url(#SVGID_35_);}
	.st53{fill:url(#SVGID_36_);}
	.st54{fill:#B743AF;}
	.st55{fill:url(#SVGID_37_);}
	.st56{fill:url(#SVGID_38_);}
</style>
<g>
	<g>
		<ellipse class="st0" cx="150.07" cy="289.04" rx="15.04" ry="15.03"/>
		
			<ellipse transform="matrix(1.410293e-03 -1 1 1.410293e-03 -139.1747 438.7033)" class="st1" cx="150.07" cy="289.04" rx="13.31" ry="13.33"/>
	</g>
	<g>
		<linearGradient id="SVGID_1_" gradientUnits="userSpaceOnUse" x1="131.6572" y1="272.9192" x2="169.0322" y2="272.9192">
			<stop  offset="0" style="stop-color:#8647E1"/>
			<stop  offset="1" style="stop-color:#B78FED"/>
		</linearGradient>
		<path class="st2" d="M169.03,282.45c0,0,0-22.36,0-22.36h-37.38v22.35c0,0,0,0.04,0,0.04c0.13,1.79,8.43,3.24,18.69,3.25
			c10.25-0.01,18.56-1.46,18.68-3.25C169.03,282.49,169.03,282.45,169.03,282.45z"/>
		<ellipse class="st1" cx="150.34" cy="241.68" rx="26.87" ry="4.73"/>
	</g>
	<g>
		<path class="st1" d="M265.23,100.65c0-11.13-51.38-20.16-114.89-20.22c-63.51,0.06-114.89,9.09-114.89,20.22
			c0,0.93,0.37,1.85,1.07,2.75l87.01,138.58h0.26v25.69c0,0,0,0.06,0,0.06c0.18,2.55,11.98,4.6,26.55,4.62
			c14.57-0.01,26.37-2.07,26.54-4.62c0.01,0,0.01-0.06,0.01-0.06c0,0,0-25.69,0-25.69h0.26l87.01-138.58
			C264.86,102.5,265.23,101.58,265.23,100.65z M150.51,84.82c58.09,0.05,105.09,7.32,105.09,16.29c0,8.97-47,16.24-105.09,16.29
			c-58.09-0.05-105.09-7.32-105.09-16.29C45.42,92.15,92.42,84.87,150.51,84.82z"/>
		<ellipse class="st3" cx="150.51" cy="101.12" rx="105.09" ry="16.29"/>
	</g>
	<g>
		<linearGradient id="SVGID_2_" gradientUnits="userSpaceOnUse" x1="68.7207" y1="88.2074" x2="111.8524" y2="88.2074">
			<stop  offset="0" style="stop-color:#8647E1"/>
			<stop  offset="1" style="stop-color:#B78FED"/>
		</linearGradient>
		<path class="st4" d="M108.1,97.21l-29.75,6.98c-2.61,0.61-5.24-1.02-5.85-3.62l-3.65-15.52c-0.61-2.6,1.02-5.23,3.62-5.85
			l29.75-6.98c2.61-0.61,5.24,1.02,5.85,3.62l3.65,15.52C112.34,93.97,110.71,96.6,108.1,97.21z"/>
		<g>
			<path class="st1" d="M89.86,96.17l7.87-7.81c0.95-0.94,0.57-2.56-0.7-2.98L86.5,81.88c-1.34-0.44-2.64,0.75-2.32,2.12l2.66,11.31
				C87.16,96.68,88.86,97.16,89.86,96.17z"/>
		</g>
	</g>
	<g>
		<g>
			<path class="st1" d="M215.82,109.14l-5.89-6.21c-1.16-1.22-1.11-3.17,0.12-4.33l6.22-5.89c1.22-1.16,3.18-1.11,4.34,0.12
				l5.89,6.21c1.16,1.22,1.11,3.17-0.12,4.33l-6.22,5.89C218.93,110.41,216.98,110.36,215.82,109.14z"/>
		</g>
		<g>
			<linearGradient id="SVGID_3_" gradientUnits="userSpaceOnUse" x1="214.89" y1="100.5188" x2="222.6552" y2="100.5188">
				<stop  offset="0" style="stop-color:#8647E1"/>
				<stop  offset="1" style="stop-color:#B78FED"/>
			</linearGradient>
			<path class="st5" d="M215.11,104.05c-0.52-2.09-0.14-5.5,1.2-6.72c1.86-1.71,4.02,0.22,4.08,1.73c1.5,0.15,3.31,2.4,1.51,4.17
				C220.61,104.48,217.1,104.65,215.11,104.05z"/>
		</g>
	</g>
	<g>
		<g>
			<path class="st1" d="M55.54,79.28l-12.88-5.93c-1.95-0.9-2.81-3.21-1.91-5.16l5.93-12.87c0.9-1.95,3.22-2.8,5.17-1.91l12.88,5.93
				c1.95,0.9,2.81,3.21,1.91,5.16l-5.93,12.87C59.81,79.32,57.49,80.18,55.54,79.28z"/>
		</g>
		<g>
			<linearGradient id="SVGID_4_" gradientUnits="userSpaceOnUse" x1="45.9305" y1="66.5757" x2="60.0916" y2="66.5757">
				<stop  offset="0" style="stop-color:#8647E1"/>
				<stop  offset="1" style="stop-color:#B78FED"/>
			</linearGradient>
			<path class="st6" d="M57.38,71.67c0.53,0.2,1.13-0.06,1.33-0.59c0.2-0.53-0.05-1.12-0.58-1.33l-0.08-0.03
				c0.02-0.05,0.04-0.1,0.06-0.15c0.57,0.18,1.18-0.11,1.39-0.67c0.23-0.58-0.06-1.23-0.64-1.46c0,0-0.18-0.07-0.18-0.07l-0.31-0.12
				c-0.01-0.07-0.03-0.14-0.04-0.21l0.35,0.14c0.53,0.2,1.13-0.06,1.33-0.59c0.21-0.53-0.06-1.12-0.59-1.33l-0.17-0.07l-4.19-1.62
				c-0.12-0.05-0.25-0.07-0.38-0.07c-0.26-0.07-0.52-0.11-0.78-0.13l0.88-1.7c0.32-0.62,0.13-1.36-0.44-1.65
				c-0.56-0.29-1.28-0.02-1.6,0.6l-1.81,3.49c-0.04,0.08-0.07,0.16-0.1,0.24l-2.42-1.11l-2.5,5.42c2.52,1.16,8.22,3.76,10.2,4.52
				c0.43,0.17,0.93-0.05,1.1-0.49c0.17-0.44-0.04-0.93-0.48-1.1l-0.14-0.06l-0.07-0.03c0.06-0.04,0.11-0.08,0.16-0.12L57.38,71.67z"
				/>
		</g>
	</g>
	<g>
		<g>
			<path class="st1" d="M138.87,106.13l-10.19,5.74c-1.54,0.87-3.51,0.32-4.38-1.22l-5.74-10.18c-0.87-1.54-0.32-3.5,1.22-4.37
				l10.19-5.74c1.54-0.87,3.51-0.32,4.38,1.22l5.74,10.18C140.96,103.3,140.41,105.27,138.87,106.13z"/>
		</g>
		<g>
			<g>
				<linearGradient id="SVGID_5_" gradientUnits="userSpaceOnUse" x1="123.0798" y1="101.2704" x2="135.1793" y2="101.2704">
					<stop  offset="0" style="stop-color:#8647E1"/>
					<stop  offset="1" style="stop-color:#B78FED"/>
				</linearGradient>
				<path class="st7" d="M134.4,98.3c1.64,2.91,0.61,6.59-2.3,8.23c-2.91,1.64-6.6,0.61-8.24-2.3c-1.64-2.91-0.61-6.59,2.3-8.23
					C129.07,94.37,132.76,95.4,134.4,98.3z"/>
			</g>
			<g>
				<path class="st1" d="M125.64,103.38c1.36,1.34,3.49,1.68,5.23,0.7s2.56-2.98,2.11-4.83L125.64,103.38z"/>
			</g>
		</g>
	</g>
	<path class="st8" d="M207.27,58.82c8.95-11.56-1.5-27.96-15.72-24.82l-19.15,4.22c-8.42,1.86-13.76,10.22-11.9,18.63
		c1.86,8.42,10.23,13.75,18.65,11.89c0.29-0.06,19.15-4.22,19.43-4.29l10.44,2.36L207.27,58.82z M179.08,56.1
		c-1.42,0.31-2.83-0.59-3.14-2c-0.31-1.42,0.59-2.83,2.01-3.14c1.42-0.31,2.83,0.59,3.14,2C181.4,54.37,180.5,55.78,179.08,56.1z
		 M186.15,54.49c-1.42,0.31-2.83-0.59-3.14-2c-0.31-1.42,0.59-2.83,2.01-3.14c1.42-0.31,2.83,0.59,3.14,2
		C188.47,52.76,187.57,54.17,186.15,54.49z M193.35,53c-1.42,0.31-2.83-0.59-3.14-2c-0.31-1.42,0.59-2.83,2.01-3.14
		c1.42-0.31,2.83,0.59,3.14,2.01C195.67,51.28,194.77,52.69,193.35,53z"/>
	<g>
		<path class="st9" d="M126.5,12.98l-25.06,7.47c-1.61,0.48-2.52,2.17-2.04,3.78l14.95,50.03c0.48,1.61,2.17,2.52,3.78,2.04
			l30.04-8.96c1.61-0.48,2.52-2.17,2.04-3.78l-13.17-44.07L126.5,12.98z"/>
		<path class="st10" d="M126.5,12.98l1.78,5.96c0.48,1.61,2.17,2.52,3.78,2.04l4.99-1.49L126.5,12.98z"/>
		<g>
			<g>
				<g>
					<g>
						<path class="st3" d="M124.39,34.77l-12.42,3.71c-0.37,0.11-0.8-0.19-0.94-0.68c-0.15-0.49,0.04-0.98,0.41-1.09L123.86,33
							c0.37-0.11,0.8,0.19,0.94,0.68C124.95,34.17,124.76,34.65,124.39,34.77z"/>
					</g>
				</g>
				<g>
					<g>
						<path class="st3" d="M131.84,32.54l-4.28,1.28c-0.37,0.11-0.8-0.19-0.94-0.68c-0.15-0.49,0.04-0.98,0.41-1.09l4.28-1.28
							c0.37-0.11,0.8,0.19,0.94,0.68C132.4,31.95,132.21,32.43,131.84,32.54z"/>
					</g>
				</g>
				<g>
					<g>
						<path class="st3" d="M120.38,39.48l12.42-3.71c0.37-0.11,0.56-0.6,0.41-1.09c-0.15-0.49-0.57-0.79-0.94-0.68l-12.42,3.71
							c-0.37,0.11-0.56,0.6-0.41,1.09C119.58,39.29,120,39.59,120.38,39.48z"/>
					</g>
				</g>
				<g>
					<g>
						<path class="st3" d="M114.26,44.88l18.89-5.63c0.57-0.17,0.91-0.7,0.77-1.19c-0.15-0.49-0.73-0.75-1.29-0.58l-18.89,5.63
							c-0.57,0.17-0.91,0.7-0.77,1.19C113.12,44.79,113.7,45.05,114.26,44.88z"/>
					</g>
				</g>
				<g>
					<g>
						<path class="st3" d="M112.93,41.7l4.28-1.28c0.37-0.11,0.56-0.6,0.41-1.09c-0.15-0.49-0.57-0.79-0.94-0.68l-4.28,1.28
							c-0.37,0.11-0.56,0.6-0.41,1.09C112.13,41.51,112.56,41.81,112.93,41.7z"/>
					</g>
				</g>
			</g>
			<g>
				<g>
					<g>
						<path class="st3" d="M130.04,54.12l-12.42,3.71c-0.37,0.11-0.8-0.19-0.94-0.68c-0.15-0.49,0.04-0.98,0.41-1.09l12.42-3.71
							c0.37-0.11,0.8,0.19,0.94,0.68C130.6,53.53,130.41,54.01,130.04,54.12z"/>
					</g>
				</g>
				<g>
					<g>
						<path class="st3" d="M137.49,51.9l-4.28,1.28c-0.37,0.11-0.8-0.19-0.94-0.68c-0.15-0.49,0.04-0.98,0.41-1.09l4.28-1.28
							c0.37-0.11,0.8,0.19,0.94,0.68C138.05,51.3,137.86,51.79,137.49,51.9z"/>
					</g>
				</g>
				<g>
					<g>
						<path class="st3" d="M127.02,62.15l12.42-3.71c0.37-0.11,0.56-0.6,0.41-1.09c-0.15-0.49-0.57-0.79-0.94-0.68l-12.42,3.71
							c-0.37,0.11-0.56,0.6-0.41,1.09C126.22,61.96,126.65,62.27,127.02,62.15z"/>
					</g>
				</g>
				<g>
					<g>
						<path class="st3" d="M120.91,67.55l18.89-5.63c0.57-0.17,0.91-0.7,0.77-1.19c-0.15-0.49-0.73-0.75-1.29-0.58l-18.89,5.63
							c-0.57,0.17-0.91,0.7-0.77,1.19C119.76,67.46,120.34,67.72,120.91,67.55z"/>
					</g>
				</g>
				<g>
					<g>
						<path class="st3" d="M119.57,64.38l4.28-1.28c0.37-0.11,0.56-0.6,0.41-1.09c-0.15-0.49-0.57-0.79-0.94-0.68l-4.28,1.28
							c-0.37,0.11-0.56,0.6-0.41,1.09C118.78,64.18,119.2,64.49,119.57,64.38z"/>
					</g>
				</g>
			</g>
			<g>
				<g>
					<g>
						<path class="st3" d="M127.25,44.35l-12.42,3.71c-0.37,0.11-0.8-0.19-0.94-0.68c-0.15-0.49,0.04-0.98,0.41-1.09l12.42-3.71
							c0.37-0.11,0.8,0.19,0.94,0.68C127.81,43.75,127.63,44.23,127.25,44.35z"/>
					</g>
				</g>
				<g>
					<g>
						<path class="st3" d="M134.7,42.12l-4.28,1.28c-0.37,0.11-0.8-0.19-0.94-0.68c-0.15-0.49,0.04-0.98,0.41-1.09l4.28-1.28
							c0.37-0.11,0.8,0.19,0.94,0.68C135.26,41.53,135.07,42.01,134.7,42.12z"/>
					</g>
				</g>
				<g>
					<g>
						<path class="st3" d="M123.24,49.06l12.42-3.71c0.37-0.11,0.56-0.6,0.41-1.09s-0.57-0.79-0.94-0.68l-12.42,3.71
							c-0.37,0.11-0.56,0.6-0.41,1.09C122.44,48.87,122.87,49.17,123.24,49.06z"/>
					</g>
				</g>
				<g>
					<g>
						<path class="st3" d="M116.77,54.57l12.42-3.71c0.37-0.11,0.56-0.6,0.41-1.09c-0.15-0.49-0.57-0.79-0.94-0.68l-12.42,3.71
							c-0.37,0.11-0.56,0.6-0.41,1.09C115.98,54.37,116.4,54.68,116.77,54.57z"/>
					</g>
				</g>
				<g>
					<g>
						<path class="st3" d="M115.79,51.28l4.28-1.28c0.37-0.11,0.56-0.6,0.41-1.09c-0.15-0.49-0.57-0.79-0.94-0.68l-4.28,1.28
							c-0.37,0.11-0.56,0.6-0.41,1.09C115,51.09,115.42,51.39,115.79,51.28z"/>
					</g>
				</g>
			</g>
		</g>
	</g>
	<g>
		<g>
			<g>
				<path class="st1" d="M244.34,61.91c-0.17-0.18-0.38-0.31-0.63-0.38l-21-5.42c-0.27-0.07-0.54-0.05-0.79,0.04l9.85,8.73
					L244.34,61.91z"/>
			</g>
		</g>
		<g>
			<g>
				<path class="st1" d="M244.41,63.2l-13,3.07l-10.17-9.01c-0.17,0.16-0.3,0.37-0.37,0.62l-2.86,11.06
					c-0.18,0.71,0.24,1.43,0.95,1.61l21,5.42c0.71,0.18,1.43-0.24,1.62-0.95l2.86-11.06C244.51,63.7,244.49,63.44,244.41,63.2z"/>
			</g>
		</g>
	</g>
	<g>
		<g>
			<path class="st1" d="M93.68,64.05l0.09,0.03c0.03,0.01,0.06,0.02,0.09,0.03l0.07-4.54c0.01-0.32,0.25-0.51,0.54-0.42
				c0.29,0.09,0.53,0.44,0.52,0.76l-0.07,4.54l2.12,0.68l0.07-4.44c0.01-0.32,0.25-0.51,0.54-0.42c0.29,0.09,0.53,0.44,0.52,0.76
				l-0.07,4.35c1.66,0.17,3.29-0.85,3.82-2.52c0.59-1.85-0.37-3.83-2.14-4.51l-0.08,4.64c-0.01,0.32-0.25,0.51-0.54,0.42
				c-0.29-0.09-0.53-0.44-0.52-0.76l0.08-4.64l-2.08-0.67c0,0.03,0.01,0.06,0,0.09l-0.08,4.71c-0.01,0.32-0.25,0.51-0.54,0.42
				c-0.29-0.09-0.53-0.44-0.52-0.76l0.08-4.71c0-0.03,0-0.06,0.01-0.08c-0.5-0.19-0.96-0.43-1.4-0.72l-2.39,7.44
				C92.44,63.74,93.07,63.85,93.68,64.05z"/>
		</g>
		<g>
			<g>
				<path class="st11" d="M94.39,56.53l-2.29,7.11l-0.2-0.01c-1.12-0.04-2.24,0.24-3.24,0.8c-1.97,1.1-4.33,1.32-6.46,0.61
					c-4.08-1.37-6.37-5.86-5.09-10.02c0.64-2.09,2.07-3.82,4.01-4.83c1.92-1,4.1-1.19,6.15-0.53c2.12,0.68,3.87,2.23,4.81,4.26
					c0.47,1.02,1.21,1.88,2.15,2.5L94.39,56.53z M91.73,63.1l2.04-6.35c-0.94-0.66-1.69-1.56-2.17-2.6
					c-0.88-1.89-2.51-3.34-4.49-3.98c-1.91-0.61-3.95-0.44-5.74,0.5c-1.81,0.95-3.15,2.55-3.75,4.52c-1.19,3.88,0.95,8.08,4.76,9.36
					c1.99,0.67,4.19,0.46,6.03-0.57C89.43,63.4,90.58,63.1,91.73,63.1z"/>
				<path class="st12" d="M94.52,56.49l-2.33,7.26l-0.28-0.01c-1.1-0.03-2.2,0.24-3.19,0.79c-2,1.12-4.38,1.34-6.54,0.61
					c-4.13-1.39-6.45-5.94-5.16-10.15c0.66-2.12,2.09-3.87,4.06-4.9c1.94-1.01,4.15-1.2,6.23-0.54c2.15,0.69,3.92,2.26,4.87,4.32
					c0.46,1,1.19,1.85,2.11,2.46L94.52,56.49z M92.03,63.53l2.24-6.95l-0.1-0.07c-0.95-0.63-1.71-1.51-2.18-2.54
					c-0.93-2-2.66-3.53-4.75-4.2c-2.02-0.65-4.18-0.46-6.07,0.52c-1.92,1-3.33,2.69-3.96,4.77c-1.26,4.1,1,8.53,5.03,9.88
					c2.1,0.71,4.43,0.49,6.37-0.6c1.02-0.57,2.16-0.85,3.3-0.82L92.03,63.53z M93.89,56.71l-2.09,6.5l-0.08,0
					c-1.13,0-2.26,0.3-3.27,0.86c-1.87,1.04-4.1,1.25-6.12,0.57c-3.87-1.3-6.03-5.56-4.82-9.49c0.61-1.99,1.96-3.62,3.8-4.58
					c1.82-0.95,3.88-1.13,5.82-0.5c2.01,0.64,3.67,2.11,4.55,4.04c0.47,1.02,1.21,1.91,2.13,2.56L93.89,56.71z"/>
			</g>
		</g>
		<polygon class="st8" points="85.67,56.63 84.61,57.42 85.01,58.68 83.61,60.49 93.18,61.63 93.27,60.89 84.99,59.91 85.83,58.83 
			85.48,57.7 86.43,56.99 86.37,55.62 93.68,59.63 94.03,58.99 85.58,54.34 		"/>
	</g>
	<g>
		<g>
			<g>
				
					<rect x="201.6" y="16.89" transform="matrix(0.4797 -0.8774 0.8774 0.4797 89.8918 192.8396)" class="st1" width="11.9" height="7.48"/>
			</g>
			<g>
				
					<rect x="209.3" y="18.85" transform="matrix(0.4797 -0.8774 0.8774 0.4797 94.1453 203.9397)" class="st1" width="19.48" height="7.48"/>
			</g>
			<g>
				
					<rect x="217" y="20.81" transform="matrix(0.4797 -0.8774 0.8774 0.4797 98.3997 215.0403)" class="st1" width="27.05" height="7.48"/>
			</g>
			<g>
				
					<rect x="224.7" y="22.77" transform="matrix(0.4797 -0.8774 0.8774 0.4797 102.6557 226.1421)" class="st1" width="34.63" height="7.48"/>
			</g>
		</g>
		<g>
			<g>
				<path class="st1" d="M211.43,13.36c-0.94-0.51-1.28-1.69-0.77-2.63c0.51-0.94,1.69-1.28,2.63-0.77
					c0.94,0.51,1.28,1.69,0.77,2.63C213.55,13.53,212.36,13.87,211.43,13.36z M212.89,10.69c-0.54-0.29-1.21-0.1-1.5,0.44
					c-0.29,0.54-0.1,1.21,0.44,1.5c0.54,0.29,1.21,0.1,1.5-0.44C213.62,11.66,213.43,10.98,212.89,10.69z"/>
			</g>
			<g>
				<path class="st1" d="M224.73,11.98c-0.94-0.51-1.28-1.69-0.77-2.63c0.51-0.94,1.69-1.28,2.63-0.77
					c0.94,0.51,1.28,1.69,0.77,2.63C226.85,12.14,225.67,12.49,224.73,11.98z M226.2,9.31c-0.54-0.29-1.21-0.1-1.5,0.44
					c-0.29,0.54-0.1,1.21,0.44,1.5c0.54,0.29,1.21,0.1,1.5-0.44C226.93,10.27,226.73,9.6,226.2,9.31z"/>
			</g>
			<g>
				<path class="st1" d="M238.04,10.59c-0.94-0.51-1.28-1.69-0.77-2.63s1.69-1.28,2.63-0.77c0.94,0.51,1.28,1.69,0.77,2.63
					S238.98,11.1,238.04,10.59z M239.51,7.92c-0.54-0.29-1.21-0.1-1.5,0.44c-0.29,0.54-0.1,1.21,0.44,1.5
					c0.54,0.29,1.21,0.1,1.5-0.44C240.24,8.89,240.04,8.21,239.51,7.92z"/>
			</g>
			<g>
				<path class="st1" d="M251.35,9.21c-0.94-0.51-1.28-1.69-0.77-2.63c0.51-0.94,1.69-1.28,2.63-0.77c0.94,0.51,1.28,1.69,0.77,2.63
					C253.47,9.37,252.29,9.72,251.35,9.21z M252.81,6.54c-0.54-0.29-1.21-0.1-1.5,0.44c-0.29,0.54-0.1,1.21,0.44,1.5
					c0.54,0.29,1.21,0.1,1.5-0.44C253.55,7.5,253.35,6.83,252.81,6.54z"/>
			</g>
		</g>
		<g>
			<g>
				
					<rect x="213.93" y="10.47" transform="matrix(0.9965 -0.0837 0.0837 0.9965 -0.1425 18.3765)" class="st1" width="10.17" height="0.83"/>
			</g>
		</g>
		<g>
			<g>
				
					<rect x="227.4" y="9.08" transform="matrix(0.9965 -0.0837 0.0837 0.9965 0.0212 19.4994)" class="st1" width="10.17" height="0.83"/>
			</g>
		</g>
		<g>
			<g>
				
					<rect x="240.59" y="7.62" transform="matrix(0.9965 -0.0837 0.0837 0.9965 0.1899 20.5988)" class="st1" width="10.17" height="0.83"/>
			</g>
		</g>
	</g>
	<path class="st9" d="M269.91,44.72c-5.92-2.31-12.6,0.62-14.93,6.56c-2.32,5.94,0.98,29.06,0.98,29.06s18.13-14.75,20.46-20.68
		C278.75,53.72,275.84,47.04,269.91,44.72z M264.27,59.16c-2.37-0.93-3.53-3.6-2.61-5.97c0.93-2.37,3.6-3.55,5.97-2.62
		c2.37,0.93,3.53,3.6,2.6,5.97C269.31,58.91,266.63,60.08,264.27,59.16z"/>
	<g>
		<g>
			<linearGradient id="SVGID_6_" gradientUnits="userSpaceOnUse" x1="90.3706" y1="50.2063" x2="71.588" y2="23.0758">
				<stop  offset="0" style="stop-color:#8647E1"/>
				<stop  offset="1" style="stop-color:#B78FED"/>
			</linearGradient>
			<path class="st13" d="M50.17,18.43l0.39-0.73c5.18-9.74,17.33-13.45,27.08-8.28c9.1,4.83,13.07,16.03,9.04,25.49l-0.3,0.71
				l-11.94-4.08l0.42-0.85c0.89-1.8,1.05-3.85,0.46-5.76c-1.27-4.14-5.68-6.48-9.83-5.22c-1.91,0.58-3.5,1.85-4.5,3.58l-0.4,0.7
				L50.17,18.43z"/>
		</g>
		<g>
			<path class="st14" d="M58.11,44.37l0.34-0.78l5.27-9.6l0.71,0.34c1.78,0.84,3.79,0.99,5.67,0.41c2.1-0.64,3.79-2.08,4.76-4.05
				l0.32-0.66l11.86,4.05l-0.35,0.82c-0.23,0.53-0.47,1.05-0.75,1.57l-0.04,0.08c-5.2,9.68-17.33,13.36-27.04,8.21L58.11,44.37z"/>
		</g>
		<g>
			<path class="st1" d="M49.11,32.95c-1.5-4.91-1.14-10.38,1.45-15.25l0.39-0.74l10.46,5.59l-0.43,0.74
				c-1.11,1.91-1.36,4.13-0.72,6.24c0.65,2.11,2.16,3.86,4.15,4.8l0.8,0.38l-5.71,10.4l-0.73-0.39
				C53.95,42.14,50.61,37.82,49.11,32.95z"/>
		</g>
	</g>
	<g>
		<g>
			<path class="st1" d="M152.81,14.47c1.16-0.37,2.73,0.05,3.93-0.25c2.55-0.64,2.09-3.78,3.43-5.59c1.83-2.47,7.02-2.27,10.77-0.93
				c1.98,0.71,3.19,1.29,3.22,2.83c0.03,1.18-0.09,1.23,0.65,2.42c0.5,0.81,0.97,1.4,1.16,2.27c0.54,2.46-0.28,4.81-2.18,6.24
				c-0.94,0.71-2.12,1.2-3.09,1.87c0.3,0.26,0.59,0.54,0.88,0.87c1.09,0.89,2.09,2.14,2.71,3.72c0,0,0.52,3.9,0.52,3.9
				c4.67-2.15,8.29-6.42,9.39-11.84c1.83-9.02-4.01-17.82-13.04-19.65c-9.03-1.83-17.83,4-19.66,13.03
				c-0.21,1.01-0.31,2.02-0.33,3.02C151.37,15.52,151.87,14.76,152.81,14.47z"/>
		</g>
		<g>
			<linearGradient id="SVGID_7_" gradientUnits="userSpaceOnUse" x1="169.6582" y1="28.7241" x2="174.8108" y2="28.7241">
				<stop  offset="0" style="stop-color:#8647E1"/>
				<stop  offset="1" style="stop-color:#B78FED"/>
			</linearGradient>
			<path class="st15" d="M174.29,27.92c-0.61-1.58-1.62-2.83-2.71-3.72l-1.93,9.04c1.8-0.2,3.54-0.68,5.15-1.42L174.29,27.92
				C174.29,27.93,174.29,27.92,174.29,27.92z"/>
		</g>
		<g>
			<path class="st16" d="M155.52,27.9l1.33-2.26c0.08-0.33,0.21-0.66,0.41-0.95c0.12-0.17,0.26-0.33,0.43-0.45
				c2.49-1.79,5.39-2.51,6.26-2.63c0.02,0,0.03,0,0.05-0.01c0.67-0.11,1.43-0.17,2.24-0.1c0.03-0.01,0.06-0.03,0.08-0.04
				c-0.01-0.07-0.02-0.14,0-0.22l0.6-2.92c-0.45-0.67-0.63-1.62-0.43-2.6l0.03-0.16c-0.03,0-0.07,0-0.1-0.01
				c-0.41-0.08-0.65-0.56-0.54-1.08c0.11-0.52,0.52-0.88,0.93-0.81c0.03,0.01,0.06,0.02,0.1,0.03l0.09-0.43
				c0.2-0.97,0.74-1.76,1.41-2.22l3.34,3.21L171.61,15c0.41,0.08,0.65,0.56,0.54,1.08c-0.11,0.52-0.52,0.88-0.93,0.81
				c-0.25,0.89-0.78,1.61-1.42,2.02l-0.6,2.89c-0.01,0.06-0.03,0.11-0.06,0.15c0.19,0.18,0.34,0.37,0.43,0.57
				c0.39,0.22,0.77,0.49,1.14,0.81c0.97-0.68,2.15-1.17,3.09-1.87c1.9-1.43,2.72-3.77,2.18-6.24c-0.19-0.87-0.66-1.46-1.16-2.27
				c-0.74-1.19-0.63-1.24-0.65-2.42c-0.04-1.54-1.24-2.12-3.22-2.83c-3.75-1.34-8.94-1.54-10.77,0.93
				c-1.34,1.81-0.88,4.95-3.43,5.59c-1.21,0.3-2.77-0.11-3.93,0.25c-0.94,0.29-1.44,1.05-1.64,1.91
				C151.09,20.71,152.71,24.81,155.52,27.9z"/>
		</g>
		<g>
			<linearGradient id="SVGID_8_" gradientUnits="userSpaceOnUse" x1="155.5242" y1="26.9322" x2="163.956" y2="26.9322">
				<stop  offset="0" style="stop-color:#8647E1"/>
				<stop  offset="1" style="stop-color:#B78FED"/>
			</linearGradient>
			<path class="st17" d="M157.69,24.25c-0.17,0.12-0.31,0.27-0.43,0.45c-0.2,0.29-0.33,0.61-0.41,0.95l-1.33,2.26
				c1.72,1.89,3.89,3.4,6.39,4.35l2.05-10.63C163.09,21.74,160.19,22.45,157.69,24.25z"/>
		</g>
		<g>
			<path class="st1" d="M170.71,23.34c-0.37-0.32-0.75-0.59-1.14-0.81c0.13,0.29,0.13,0.58-0.1,0.84c-0.78,0.89-0.4,0.47-1.76,1.83
				c-0.18,0.18-0.43,0.24-0.66,0.18c-0.23-0.03-0.44-0.18-0.53-0.42c-0.72-1.78-0.53-1.25-0.9-2.37c-0.16-0.49,0.16-0.85,0.63-1.08
				c-0.81-0.06-1.57,0-2.24,0.1c-0.01,0-0.03,0-0.05,0.01l-2.05,10.63c0.84,0.32,1.72,0.58,2.63,0.76c1.73,0.35,3.45,0.42,5.12,0.24
				l1.93-9.04C171.3,23.88,171.01,23.59,170.71,23.34z"/>
		</g>
		<g>
			<path class="st18" d="M165.62,22.59c0.38,1.12,0.18,0.59,0.9,2.37c0.1,0.24,0.31,0.39,0.53,0.42c0.22,0.06,0.47,0,0.66-0.18
				c1.36-1.36,0.97-0.95,1.76-1.83c0.23-0.26,0.23-0.56,0.1-0.84c-0.09-0.2-0.25-0.4-0.43-0.57c0.03-0.05,0.05-0.1,0.06-0.15
				l0.6-2.89c0.64-0.41,1.17-1.13,1.41-2.02c0.41,0.08,0.83-0.28,0.94-0.8c0.11-0.52-0.13-1.01-0.54-1.08c0,0,0.16-0.75,0.16-0.75
				l-3.34-3.21c-0.67,0.46-1.21,1.25-1.41,2.22l-0.09,0.43c-0.03-0.01-0.06-0.02-0.1-0.03c-0.41-0.08-0.82,0.28-0.93,0.81
				c-0.11,0.52,0.13,1.01,0.54,1.08c0.03,0.01,0.07,0.01,0.1,0.01l-0.03,0.16c-0.2,0.98-0.02,1.93,0.43,2.6l-0.6,2.92
				c-0.02,0.08-0.01,0.15,0,0.22c-0.03,0.01-0.06,0.03-0.08,0.04C165.78,21.74,165.45,22.1,165.62,22.59z"/>
		</g>
	</g>
	<g>
		<linearGradient id="SVGID_9_" gradientUnits="userSpaceOnUse" x1="148.6902" y1="86.8322" x2="203.2919" y2="86.8322">
			<stop  offset="0" style="stop-color:#8647E1"/>
			<stop  offset="1" style="stop-color:#B78FED"/>
		</linearGradient>
		<path class="st19" d="M164.68,112.4l-14.98-16.01c-1.4-1.5-1.33-3.84,0.17-5.24l32.2-30.07c1.5-1.4,3.84-1.31,5.24,0.18
			l14.98,16.01c1.4,1.5,1.33,3.84-0.17,5.24l-32.2,30.07C168.43,113.98,166.08,113.9,164.68,112.4z"/>
		<path class="st14" d="M200.86,77.94l-14.32-15.31c-1.05-1.12-2.84-1.15-4-0.06l-1.9,1.77l-29.24,27.31
			c-1.16,1.09-1.26,2.88-0.21,4l14.32,15.31c1.05,1.12,2.84,1.15,4,0.06l29.24-27.31l1.9-1.77
			C201.81,80.85,201.91,79.06,200.86,77.94z"/>
		<linearGradient id="SVGID_10_" gradientUnits="userSpaceOnUse" x1="195.5524" y1="87.4376" x2="198.4622" y2="87.4376">
			<stop  offset="0" style="stop-color:#8647E1"/>
			<stop  offset="1" style="stop-color:#B78FED"/>
		</linearGradient>
		<path class="st20" d="M198.34,86.08c-0.01-0.01-0.01-0.01-0.02-0.02l-2.77,2.58c0.01,0.01,0.01,0.01,0.02,0.02
			c0.17,0.18,0.46,0.19,0.64,0.02l2.11-1.97C198.5,86.55,198.51,86.26,198.34,86.08z"/>
		<linearGradient id="SVGID_11_" gradientUnits="userSpaceOnUse" x1="192.5615" y1="90.2702" x2="195.5168" y2="90.2702">
			<stop  offset="0" style="stop-color:#8647E1"/>
			<stop  offset="1" style="stop-color:#B78FED"/>
		</linearGradient>
		<path class="st21" d="M195.39,88.94c-0.02-0.03-0.05-0.05-0.08-0.07l-2.75,2.57c0.02,0.03,0.04,0.06,0.06,0.09
			c0.17,0.18,0.46,0.19,0.64,0.02l2.11-1.97C195.56,89.41,195.57,89.12,195.39,88.94z"/>
		<g>
			<g>
				<g>
					<path class="st22" d="M185.25,79.69l-5.24-5.6c-0.16-0.17-0.11-0.47,0.11-0.68c0.22-0.21,0.53-0.24,0.69-0.07l5.24,5.6
						c0.16,0.17,0.11,0.47-0.11,0.68C185.71,79.83,185.4,79.86,185.25,79.69z"/>
				</g>
			</g>
			<g>
				<g>
					<path class="st22" d="M188.39,83.04l-1.8-1.93c-0.16-0.17-0.11-0.47,0.11-0.68c0.22-0.21,0.53-0.24,0.69-0.07l1.8,1.93
						c0.16,0.17,0.11,0.47-0.11,0.68C188.85,83.18,188.54,83.21,188.39,83.04z"/>
				</g>
			</g>
			<g>
				<g>
					<path class="st22" d="M181.69,78.81l5.24,5.6c0.16,0.17,0.46,0.14,0.69-0.07c0.22-0.21,0.27-0.51,0.11-0.68l-5.24-5.6
						c-0.16-0.17-0.46-0.14-0.69,0.07C181.58,78.33,181.53,78.64,181.69,78.81z"/>
				</g>
			</g>
			<g>
				<g>
					<path class="st22" d="M178.55,75.45l1.8,1.93c0.16,0.17,0.46,0.14,0.69-0.07c0.22-0.21,0.27-0.51,0.11-0.68l-1.8-1.93
						c-0.16-0.17-0.46-0.14-0.69,0.07C178.44,74.98,178.39,75.28,178.55,75.45z"/>
				</g>
			</g>
		</g>
	</g>
	<g>
		<path class="st23" d="M180.78,335.69c0,2.35-11.91,4.26-26.6,4.26c-14.69,0-26.6-1.91-26.6-4.26c0-2.35,11.91-4.26,26.6-4.26
			C168.87,331.43,180.78,333.34,180.78,335.69z"/>
		<g>
			<g>
				<path class="st24" d="M166.37,331.26c-0.01-0.03-0.01,0.03-0.01,0.03C166.36,331.27,166.37,331.26,166.37,331.26z"/>
				<linearGradient id="SVGID_12_" gradientUnits="userSpaceOnUse" x1="134.5553" y1="332.9967" x2="166.3592" y2="332.9967">
					<stop  offset="0" style="stop-color:#DCDFFB"/>
					<stop  offset="1" style="stop-color:#F3F3FA"/>
				</linearGradient>
				<path class="st25" d="M166.36,331.23v-1.68c-0.08,1.64-7.16,2.97-15.9,2.97c-6.7,0-12.42-0.78-14.76-1.88
					c-0.73-0.34-1.14-0.72-1.14-1.11v1.74v0.47c0,0.03,0,0.08,0,0.08v1.66c0,0.03,0,0.08,0,0.08c0.19,1.62,7.23,2.93,15.9,2.93
					c8.69,0,15.74-1.31,15.89-2.94c0.01,0,0.01-0.04,0.01-0.04c0-0.03,0-1.7,0-1.7v-0.04c0-0.02,0-0.47,0-0.47V331.23z"/>
				<path class="st0" d="M135.7,330.63c2.35,1.1,8.06,1.88,14.76,1.88c8.73,0,15.82-1.33,15.9-2.97c0.01-1.68-7.11-3.02-15.9-3.02
					c-8.78,0-15.91,1.34-15.91,2.99C134.56,329.91,134.97,330.29,135.7,330.63z M150.46,327.19c7.42,0,13.43,1.04,13.43,2.32
					c0,1.28-6.01,2.32-13.43,2.32c-7.42,0-13.43-1.04-13.43-2.32C137.03,328.23,143.04,327.19,150.46,327.19z"/>
				<ellipse class="st26" cx="150.46" cy="329.52" rx="13.43" ry="2.32"/>
			</g>
			<g>
				<path class="st24" d="M166.37,326.5c-0.01-0.03-0.01,0.03-0.01,0.03C166.36,326.52,166.37,326.51,166.37,326.5z"/>
				<linearGradient id="SVGID_13_" gradientUnits="userSpaceOnUse" x1="134.5553" y1="328.2405" x2="166.3592" y2="328.2405">
					<stop  offset="0" style="stop-color:#DCDFFB"/>
					<stop  offset="1" style="stop-color:#F3F3FA"/>
				</linearGradient>
				<path class="st27" d="M166.36,326.47v-1.68c-0.08,1.64-7.16,2.97-15.9,2.97c-6.7,0-12.42-0.78-14.76-1.88
					c-0.73-0.34-1.14-0.72-1.14-1.11v1.74v0.47c0,0.03,0,0.08,0,0.08v1.66c0,0.03,0,0.08,0,0.08c0.19,1.62,7.23,2.93,15.9,2.93
					c8.69,0,15.74-1.31,15.89-2.94c0.01,0,0.01-0.04,0.01-0.04c0-0.02,0-1.7,0-1.7V327c0-0.03,0-0.47,0-0.47V326.47z"/>
				<path class="st0" d="M135.7,325.87c2.35,1.1,8.06,1.88,14.76,1.88c8.73,0,15.82-1.33,15.9-2.97c0.01-1.68-7.11-3.02-15.9-3.02
					c-8.78,0-15.91,1.34-15.91,2.99C134.56,325.16,134.97,325.53,135.7,325.87z M150.46,322.44c7.42,0,13.43,1.04,13.43,2.32
					c0,1.28-6.01,2.32-13.43,2.32c-7.42,0-13.43-1.04-13.43-2.32C137.03,323.48,143.04,322.44,150.46,322.44z"/>
				<path class="st26" d="M150.46,327.09c7.42,0,13.43-1.04,13.43-2.32c0-1.28-6.01-2.32-13.43-2.32c-7.42,0-13.43,1.04-13.43,2.32
					C137.03,326.05,143.04,327.09,150.46,327.09z"/>
			</g>
			<g>
				<path class="st24" d="M168.27,321.4c-0.01-0.03-0.01,0.03-0.01,0.03C168.26,321.41,168.27,321.41,168.27,321.4z"/>
				<linearGradient id="SVGID_14_" gradientUnits="userSpaceOnUse" x1="136.4577" y1="323.1369" x2="168.2616" y2="323.1369">
					<stop  offset="0" style="stop-color:#DCDFFB"/>
					<stop  offset="1" style="stop-color:#F3F3FA"/>
				</linearGradient>
				<path class="st28" d="M168.26,321.37v-1.68c-0.08,1.64-7.16,2.97-15.9,2.97c-6.7,0-12.41-0.78-14.76-1.88
					c-0.73-0.34-1.14-0.72-1.14-1.11v1.74v0.47c0,0.03,0,0.08,0,0.08v1.66c0,0.03,0,0.08,0,0.08c0.19,1.62,7.23,2.93,15.9,2.93
					c8.69,0,15.74-1.31,15.89-2.94c0.01,0,0.01-0.04,0.01-0.04c0-0.03,0-1.7,0-1.7v-0.04c0-0.03,0-0.47,0-0.47V321.37z"/>
				<path class="st0" d="M137.6,320.77c2.35,1.1,8.06,1.88,14.76,1.88c8.73,0,15.82-1.33,15.9-2.97c0.01-1.68-7.11-3.02-15.9-3.02
					c-8.78,0-15.91,1.34-15.91,2.99C136.46,320.05,136.87,320.43,137.6,320.77z M152.36,317.33c7.42,0,13.43,1.04,13.43,2.32
					c0,1.28-6.01,2.32-13.43,2.32c-7.42,0-13.43-1.04-13.43-2.32C138.93,318.38,144.95,317.33,152.36,317.33z"/>
				<path class="st1" d="M152.36,321.98c7.42,0,13.43-1.04,13.43-2.32c0-1.28-6.01-2.32-13.43-2.32c-7.42,0-13.43,1.04-13.43,2.32
					C138.93,320.94,144.95,321.98,152.36,321.98z"/>
			</g>
		</g>
		<g>
			<path class="st24" d="M196.51,336.12c-0.01-0.03-0.01,0.03-0.01,0.03C196.51,336.14,196.51,336.13,196.51,336.12z"/>
			<path class="st24" d="M177.35,331.22c8.94,0,16.18,1.25,16.18,2.8c0,1.55-7.24,2.8-16.18,2.8s-16.18-1.25-16.18-2.8
				C161.17,332.48,168.41,331.22,177.35,331.22z"/>
			<path class="st29" d="M177.35,336.83c8.94,0,16.18-1.25,16.18-2.8c0-1.55-7.24-2.8-16.18-2.8s-16.18,1.25-16.18,2.8
				C161.17,335.57,168.41,336.83,177.35,336.83z"/>
		</g>
	</g>
	<g>
		<ellipse class="st23" cx="175.56" cy="341" rx="20.29" ry="3.79"/>
		<g>
			<g>
				<path class="st24" d="M164.72,332.02c-0.01-0.03-0.01,0.03-0.01,0.03C164.71,332.04,164.72,332.03,164.72,332.02z"/>
				<linearGradient id="SVGID_15_" gradientUnits="userSpaceOnUse" x1="132.9047" y1="333.7578" x2="164.7087" y2="333.7578">
					<stop  offset="0" style="stop-color:#DCDFFB"/>
					<stop  offset="1" style="stop-color:#F3F3FA"/>
				</linearGradient>
				<path class="st30" d="M164.71,331.99v-1.68c-0.08,1.64-7.16,2.97-15.9,2.97c-6.7,0-12.42-0.78-14.76-1.88
					c-0.73-0.34-1.14-0.72-1.14-1.11v1.74v0.47c0,0.03,0,0.08,0,0.08v1.66c0,0.03,0,0.08,0,0.08c0.19,1.62,7.23,2.93,15.9,2.93
					c8.69,0,15.74-1.31,15.89-2.94c0.01,0,0.01-0.04,0.01-0.04c0-0.03,0-1.7,0-1.7v-0.04c0-0.02,0-0.47,0-0.47V331.99z"/>
				<path class="st0" d="M134.05,331.39c2.35,1.1,8.06,1.88,14.76,1.88c8.73,0,15.82-1.33,15.9-2.97c0.01-1.68-7.11-3.02-15.9-3.02
					c-8.78,0-15.91,1.34-15.91,2.99C132.9,330.67,133.32,331.05,134.05,331.39z M148.81,327.96c7.42,0,13.43,1.04,13.43,2.32
					c0,1.28-6.01,2.32-13.43,2.32c-7.42,0-13.43-1.04-13.43-2.32C135.38,329,141.39,327.96,148.81,327.96z"/>
			</g>
			<g>
				<path class="st24" d="M164.72,327.26c-0.01-0.03-0.01,0.03-0.01,0.03C164.71,327.28,164.72,327.27,164.72,327.26z"/>
				<linearGradient id="SVGID_16_" gradientUnits="userSpaceOnUse" x1="132.9047" y1="329.0016" x2="164.7087" y2="329.0016">
					<stop  offset="0" style="stop-color:#DCDFFB"/>
					<stop  offset="1" style="stop-color:#F3F3FA"/>
				</linearGradient>
				<path class="st31" d="M164.71,327.23v-1.68c-0.08,1.64-7.16,2.97-15.9,2.97c-6.7,0-12.42-0.78-14.76-1.88
					c-0.73-0.34-1.14-0.72-1.14-1.11v1.74v0.47c0,0.03,0,0.08,0,0.08v1.66c0,0.03,0,0.08,0,0.08c0.19,1.62,7.23,2.93,15.9,2.93
					c8.69,0,15.74-1.31,15.89-2.94c0.01,0,0.01-0.04,0.01-0.04c0-0.02,0-1.7,0-1.7v-0.04c0-0.03,0-0.47,0-0.47V327.23z"/>
				<path class="st0" d="M134.05,326.63c2.35,1.1,8.06,1.88,14.76,1.88c8.73,0,15.82-1.33,15.9-2.97c0.01-1.68-7.11-3.02-15.9-3.02
					c-8.78,0-15.91,1.34-15.91,2.99C132.9,325.92,133.32,326.29,134.05,326.63z M148.81,323.2c7.42,0,13.43,1.04,13.43,2.32
					c0,1.28-6.01,2.32-13.43,2.32c-7.42,0-13.43-1.04-13.43-2.32C135.38,324.24,141.39,323.2,148.81,323.2z"/>
				<path class="st1" d="M148.81,327.85c7.42,0,13.43-1.04,13.43-2.32c0-1.28-6.01-2.32-13.43-2.32c-7.42,0-13.43,1.04-13.43,2.32
					C135.38,326.81,141.39,327.85,148.81,327.85z"/>
			</g>
			<g>
				<path class="st24" d="M166.62,322.16c-0.01-0.03-0.01,0.03-0.01,0.03C166.61,322.18,166.62,322.17,166.62,322.16z"/>
				<linearGradient id="SVGID_17_" gradientUnits="userSpaceOnUse" x1="134.8071" y1="323.898" x2="166.611" y2="323.898">
					<stop  offset="0" style="stop-color:#DCDFFB"/>
					<stop  offset="1" style="stop-color:#F3F3FA"/>
				</linearGradient>
				<path class="st32" d="M166.61,322.13v-1.68c-0.08,1.64-7.16,2.97-15.9,2.97c-6.7,0-12.41-0.78-14.76-1.88
					c-0.73-0.34-1.14-0.72-1.14-1.11v1.74v0.47c0,0.03,0,0.08,0,0.08v1.66c0,0.03,0,0.08,0,0.08c0.19,1.62,7.23,2.93,15.9,2.93
					c8.69,0,15.74-1.31,15.89-2.94c0.01,0,0.01-0.04,0.01-0.04c0-0.02,0-1.7,0-1.7v-0.04c0-0.03,0-0.47,0-0.47V322.13z"/>
				<path class="st0" d="M135.95,321.53c2.35,1.1,8.06,1.88,14.76,1.88c8.73,0,15.82-1.33,15.9-2.97c0.01-1.68-7.11-3.02-15.9-3.02
					c-8.78,0-15.91,1.34-15.91,2.99C134.81,320.81,135.22,321.19,135.95,321.53z M150.71,318.1c7.42,0,13.43,1.04,13.43,2.32
					c0,1.28-6.01,2.32-13.43,2.32c-7.42,0-13.43-1.04-13.43-2.32C137.28,319.14,143.3,318.1,150.71,318.1z"/>
				<path class="st1" d="M150.71,322.74c7.42,0,13.43-1.04,13.43-2.32c0-1.28-6.01-2.32-13.43-2.32c-7.42,0-13.43,1.04-13.43,2.32
					C137.28,321.7,143.3,322.74,150.71,322.74z"/>
			</g>
		</g>
		<g>
			<path class="st24" d="M194.86,336.88c-0.01-0.03-0.01,0.03-0.01,0.03C194.85,336.9,194.86,336.89,194.86,336.88z"/>
			<linearGradient id="SVGID_18_" gradientUnits="userSpaceOnUse" x1="156.5353" y1="338.9764" x2="194.8545" y2="338.9764">
				<stop  offset="0" style="stop-color:#DCDFFB"/>
				<stop  offset="1" style="stop-color:#F3F3FA"/>
			</linearGradient>
			<path class="st33" d="M194.85,336.84v-2.03c-0.1,1.98-8.63,3.57-19.16,3.57c-8.07,0-14.96-0.94-17.78-2.27
				c-0.88-0.41-1.38-0.87-1.38-1.34v2.09v0.57c0,0.04,0,0.09,0,0.09v2c0,0.04,0,0.09,0,0.09c0.23,1.96,8.71,3.53,19.16,3.53
				c10.47,0,18.96-1.58,19.15-3.54c0.01,0,0.01-0.05,0.01-0.05c0-0.03,0-2.04,0-2.04v-0.05c0-0.03,0-0.57,0-0.57V336.84z"/>
			<path class="st0" d="M157.91,336.12c2.83,1.33,9.72,2.27,17.78,2.27c10.52,0,19.06-1.6,19.16-3.57
				c0.01-2.03-8.57-3.64-19.16-3.64c-10.58,0-19.16,1.62-19.16,3.61C156.54,335.26,157.03,335.71,157.91,336.12z M175.7,331.99
				c8.94,0,16.18,1.25,16.18,2.8c0,1.55-7.24,2.8-16.18,2.8c-8.94,0-16.18-1.25-16.18-2.8C159.52,333.24,166.76,331.99,175.7,331.99
				z"/>
			<path class="st1" d="M175.7,337.59c8.94,0,16.18-1.25,16.18-2.8c0-1.55-7.24-2.8-16.18-2.8c-8.94,0-16.18,1.25-16.18,2.8
				C159.52,336.33,166.76,337.59,175.7,337.59z"/>
		</g>
	</g>
	<g>
		<linearGradient id="SVGID_19_" gradientUnits="userSpaceOnUse" x1="37.041" y1="246.2619" x2="44.9812" y2="246.2619">
			<stop  offset="0" style="stop-color:#5C5E60"/>
			<stop  offset="1" style="stop-color:#9FA1A4"/>
		</linearGradient>
		<path class="st34" d="M44.36,241.8l-3.61-0.04c-0.46-0.01-0.94,0.32-1.08,0.72L37.08,250c-0.14,0.4,0.12,0.73,0.58,0.74l2.16,0.03
			c-0.08-0.29-0.13-0.6-0.12-0.93c0.03-1.25,0.81-2.14,1.73-1.98c0.54,0.09,1.01,0.52,1.3,1.11l2.21-6.42
			C45.08,242.14,44.82,241.81,44.36,241.8z"/>
		<path class="st18" d="M41.43,247.85c-0.92-0.15-1.7,0.74-1.73,1.98c-0.01,0.32,0.04,0.63,0.12,0.93c0.07,0.26,0.18,0.51,0.31,0.72
			c0,0.01-0.01,0.02-0.01,0.02c-0.03,0.03-0.06,0.07-0.08,0.1l0.04-0.01c-0.33,0.65-0.69,1.54-0.96,2.05
			c-1.12,2.15-2.53,5.29-3.88,7.89c-0.12-0.38-0.26-0.79-0.4-1.24c-0.19-0.59-0.46-1.39-0.77-2.29l-4.45,2.22
			c-0.01,0.21-0.02,0.43-0.03,0.64c-0.01,0.48-0.02,0.96-0.01,1.44c0.09,0.2,0.19,0.4,0.28,0.6c0.69,1.43,1.47,2.86,2.5,3.93
			c2.05,2.02,3.54,2.16,3.69,2.16l0.01,0.03c3.09,0.18,5.81-12.56,6.47-15.34c0.3-1.26,0.31-1.86,0.41-2.61c0-0.01,0-0.02,0.01-0.03
			h0c0.06-0.21,0.1-0.44,0.11-0.69c0.01-0.52-0.11-1.01-0.31-1.42C42.44,248.38,41.97,247.94,41.43,247.85z"/>
		<path class="st23" d="M24.02,332.63c-0.02-0.02-0.04-0.04-0.07-0.06l0,0C23.98,332.58,24,332.61,24.02,332.63z"/>
		<path class="st23" d="M25.82,332.89c-0.3,0.11-0.62,0.14-0.92,0.1C25.2,333.04,25.51,333,25.82,332.89z"/>
		<path class="st23" d="M24.02,332.63c0.18,0.14,0.37,0.24,0.57,0.3C24.39,332.87,24.2,332.77,24.02,332.63z"/>
		<path class="st16" d="M8.57,264.77c2.53,1.04,5.37,0.97,7.8,0.35c-0.31-1.96-1.02-3.79-1.59-5.67c-0.26-0.34-0.49-0.75-0.68-1.2
			c-1.14,0.94-2.57,2.08-3.86,3.11c-1.53,1.22-2.84,2.27-3.23,2.6C7.5,264.27,8.02,264.54,8.57,264.77z"/>
		<path class="st16" d="M6.68,257.35c1.64-1.36,3.7-3.06,6.26-5.46c0.2-0.19,0.4-0.34,0.59-0.47c0.71-0.86,2.29-2.29,3.23-2.56
			c0,0,0.08-0.06,0.22-0.17c0.66-0.5,1.41-0.94,2.24-1.24c0.63-0.26,1.3-0.48,2.03-0.62l-0.02-5.45c0-0.07,0.02-0.14,0.04-0.2
			c-0.02-0.11-0.03-0.23-0.05-0.34c-0.5,0-0.91-0.49-0.92-1.09c0-0.61,0.4-1.1,0.91-1.1l0-0.87l4.77-2.89
			c0.69,0.65,1.14,1.65,1.15,2.78l0.01,2.87c0.01,1.7-1,3.14-2.33,3.49l0.01,2.99c1,0.28,2.1,0.78,3.29,1.57
			c0.96-0.99,2.19-1.83,3.1-2.85c1.89-2.13,2.3-5.09,1.08-7.86c-0.43-0.98-1.12-1.57-1.9-2.4c-1.16-1.23-1.03-1.31-1.35-2.69
			c-0.41-1.81-1.97-2.2-4.47-2.56c-4.74-0.69-10.89,0.32-12.46,3.66c-1.15,2.45,0.14,6.04-2.7,7.39c-1.35,0.64-3.29,0.53-4.57,1.24
			c-1.26,0.69-1.6,2.04-1.44,3.32c0.17,1.28,0.76,2.57,1.09,3.86c0.11,0.43,0.19,0.87,0.04,1.26c-0.37,0.98-1.95,1.22-2.99,1.82
			c-1.62,0.93-1.87,2.82-1.15,4.49c0.53,1.23,1.5,2.36,2.6,3.43C3.86,259.68,5.07,258.68,6.68,257.35z"/>
		<path class="st35" d="M7.65,334.5h6.3c1.61,0,2.16-1.39,0.84-1.93c-0.04-0.02-0.07-0.03-0.11-0.05l-2.58-0.89
			c-1.64,2.34-3.6,1.21-3.88-1.06c-0.05,0.04-0.1,0.09-0.11,0.15l-0.5,1.84l-0.42,1.56C7.12,334.32,7.35,334.5,7.65,334.5z"/>
		<path class="st35" d="M25.82,332.89c-0.3,0.11-0.62,0.14-0.92,0.1c-0.1-0.01-0.2-0.04-0.3-0.07c-0.2-0.06-0.39-0.16-0.57-0.3
			c-0.02-0.02-0.04-0.04-0.07-0.06c-0.41-0.36-0.73-0.93-0.89-1.79c-0.02,0.02-0.04,0.04-0.04,0.07l-0.45,1.72l-0.4,1.55
			c-0.05,0.19,0.16,0.36,0.44,0.36h5.85c1.54,0,2.04-1.42,0.67-1.91l-0.01,0l-2.02-0.72c-0.06,0.1-0.14,0.2-0.21,0.29
			C26.6,332.49,26.22,332.75,25.82,332.89z"/>
		<path class="st18" d="M12.09,331.63c0.28-0.4,0.55-0.9,0.8-1.51c0.55-1.36,1.09-2.63,1.61-3.83c4.05-9.38,7.02-14.39,8.45-18.75
			l-6.82-0.03c-0.4,1.12-0.87,2.35-1.42,3.74c-1.75,4.4-3.59,8.67-5.07,13.12c0.24,0.39,0.52,0.75,0.83,1.05
			c-0.31-0.31-0.59-0.67-0.83-1.05c-0.47,1.41-0.9,2.85-1.28,4.3c-0.18,0.68-0.21,1.33-0.14,1.91
			C8.49,332.83,10.45,333.97,12.09,331.63z"/>
		<path class="st18" d="M24.79,309.36c-0.12,5.34-0.47,10.57-1.09,15.06c-0.06,0.41-0.12,0.82-0.18,1.22
			c-0.1,0.67-0.21,1.31-0.33,1.94c-0.25,1.34-0.26,2.39-0.12,3.2c0.15,0.85,0.48,1.43,0.89,1.79c0.02,0.02,0.04,0.05,0.07,0.06
			c0.18,0.14,0.37,0.24,0.57,0.3c0.1,0.03,0.2,0.05,0.3,0.07c0.31,0.04,0.62,0,0.92-0.1c0.4-0.14,0.78-0.41,1.08-0.76
			c0.08-0.09,0.15-0.18,0.21-0.29c0.2-0.31,0.35-0.67,0.41-1.07c0.27-1.65,0.52-3.32,0.77-4.98c0.05-0.35,0.11-0.71,0.16-1.06
			c0.75-5.21,1.36-10.42,1.85-15.37c0.06-0.6,0.12-1.2,0.17-1.79l-5.65-0.02C24.81,308.15,24.8,308.75,24.79,309.36z"/>
		<path class="st18" d="M27.13,240.51l-0.01-2.87c0-1.13-0.46-2.13-1.15-2.78l-4.77,2.89l0,0.87c-0.5,0-0.91,0.49-0.91,1.1
			c0,0.61,0.41,1.1,0.92,1.09c0.02,0.11,0.03,0.23,0.05,0.34c-0.02,0.06-0.04,0.13-0.04,0.2l0.02,5.45l0,0.46
			c-0.2,0.11-0.39,0.24-0.57,0.38c-0.6,0.45-0.7,1.31-0.21,1.88c0.76,0.88,1.5,1.78,2.23,2.69c0.42,0.53,1.24,0.46,1.58-0.13
			c1.3-2.32,0.94-1.62,1.65-3.1c0.39-0.8-0.29-1.45-1.12-1.84l0-0.17L24.8,244C26.13,243.65,27.14,242.21,27.13,240.51z"/>
		<linearGradient id="SVGID_20_" gradientUnits="userSpaceOnUse" x1="22.435" y1="315.1322" x2="22.435" y2="296.3206">
			<stop  offset="0" style="stop-color:#8647E1"/>
			<stop  offset="1" style="stop-color:#B78FED"/>
		</linearGradient>
		<path class="st36" d="M21.5,286.75c-0.04,0-0.09-0.01-0.13-0.01c-3.99-0.23-6.74-2.22-7.98-3.35c-0.04-0.04-0.18-0.19-0.32-0.42
			c0,0,0,0,0,0c4.91,14.16,5.71,17.06,3.06,24.53l6.82,0.03c0.01-0.03,0.02-0.06,0.03-0.09h1.85c0,0.03,0,0.06,0,0.09l5.65,0.02
			c0.89-9.44,1.31-17.84,1.33-23.5c0-0.08-0.01-0.16-0.01-0.24H31.3c-1.71,1.07-3.33,1.8-4.84,2.26
			C24.65,286.64,22.99,286.82,21.5,286.75z"/>
		<linearGradient id="SVGID_21_" gradientUnits="userSpaceOnUse" x1="6.6836" y1="266.7918" x2="34.0613" y2="266.7918">
			<stop  offset="0" style="stop-color:#DCDFFB"/>
			<stop  offset="1" style="stop-color:#F3F3FA"/>
		</linearGradient>
		<path class="st37" d="M29.61,260.24l4.45-2.22c-0.61-1.8-1.39-4-2.05-5.83c-0.24-0.66-0.69-1.16-1.24-1.49
			c-0.94-0.88-1.83-1.59-2.67-2.14c-1.19-0.79-2.28-1.29-3.29-1.57l0,0.17c0.83,0.4,1.51,1.05,1.12,1.84
			c-0.71,1.47-0.35,0.78-1.65,3.1c-0.33,0.59-1.15,0.65-1.58,0.13c-0.73-0.91-1.47-1.8-2.23-2.69c-0.49-0.57-0.39-1.43,0.21-1.88
			c0.18-0.14,0.38-0.26,0.57-0.38l0-0.46c-0.73,0.14-1.4,0.36-2.03,0.62c-0.82,0.3-1.57,0.74-2.24,1.24
			c-0.14,0.11-0.22,0.17-0.22,0.17c-0.94,0.27-2.52,1.7-3.23,2.56c-0.2,0.13-0.39,0.29-0.59,0.47c-2.55,2.4-4.61,4.1-6.26,5.46
			l3.55,4.01c1.29-1.03,2.72-2.17,3.86-3.11c0.2,0.45,0.42,0.86,0.68,1.2c0.58,1.88,1.29,3.71,1.59,5.67
			c0.04,0.25,0.07,0.49,0.1,0.75c0.09,0.86,0.05,1.71-0.05,2.54c-0.08,0.43-0.18,0.85-0.31,1.27c-0.53,1.73-1.42,3.31-2.18,4.94
			c0.06,0.09,0.09,0.15,0.11,0.18c2.29,0.21,4.51,3.82,2.91,4.93c-0.94,0.65-2.49-0.2-3.4-1.62c-0.23-0.05-0.48-0.17-0.76-0.34
			c-0.03,0.12-0.06,0.23-0.09,0.35c-0.27,1.4-0.23,2.86,0.11,4.25c0.06,0.25,0.16,0.45,0.26,0.62c0.14,0.23,0.28,0.38,0.32,0.42
			c1.25,1.13,4,3.12,7.98,3.35c0.04,0,0.08,0.01,0.13,0.01c1.49,0.07,3.15-0.11,4.96-0.67c1.51-0.46,3.12-1.2,4.84-2.26
			c0.13-0.08,0.26-0.15,0.39-0.24l0.01-0.53c0.03-0.01,0.05-0.02,0.08-0.02c-0.01-1.22,0.01-2.45,0.01-3.68l0.01,0
			c0-0.21,0-0.43-0.01-0.64c0-0.09,0-0.19,0-0.28c-0.01-0.22,0-0.43-0.01-0.65c-0.09-0.5-0.18-0.97-0.25-1.45
			c-0.01-0.06-0.03-0.12-0.04-0.19c-0.01-0.02-0.01-0.04-0.01-0.05c0-0.04,0-0.09-0.01-0.13c-0.36-2.32-0.6-4.67-1.04-6.97
			c-0.08-0.4-0.14-0.81-0.21-1.22c-0.37-1.75-0.62-3.52-0.66-5.32c0-0.04,0-0.07,0-0.11c-0.01-0.48,0-0.96,0.01-1.44
			C29.59,260.67,29.61,260.46,29.61,260.24z"/>
		<path class="st18" d="M16.94,279.73c1.6-1.11-0.62-4.72-2.91-4.93c-0.01-0.03-0.05-0.09-0.11-0.18
			c-0.77-1.21-5.46-7.85-6.97-10.61c0.01-0.01,0.03-0.03,0.05-0.04c0.38-0.34,1.7-1.38,3.23-2.6l-3.55-4.01
			c-1.62,1.34-2.83,2.34-3.7,3.31c-0.41,0.46-0.76,0.91-1.03,1.4c-1.45,2.59,7.62,12.54,9.66,14.7c0.43,0.46,0.82,0.78,1.18,1
			c0.27,0.17,0.53,0.29,0.76,0.34C14.45,279.52,16,280.38,16.94,279.73z"/>
		<path class="st35" d="M68.92,330.33c-0.02,0.02-0.04,0.04-0.05,0.07l-0.63,2.16l-0.39,1.33c-0.06,0.2,0.19,0.39,0.51,0.39
			l6.8,0.04c1.54,0.01,2.18-1.11,1.33-1.76c-0.14-0.11-0.31-0.2-0.53-0.27l-2.35-0.79C72.4,333.22,69.49,333.43,68.92,330.33z"/>
		<path class="st35" d="M55.85,334.44l6.8,0.04c1.66,0.01,2.29-1.3,1.09-1.91c-0.09-0.05-0.19-0.09-0.3-0.12l-2.14-0.71
			c-1.07,2.1-4.51,2.51-4.95-1.16l-0.58,2l-0.43,1.48C55.28,334.25,55.52,334.43,55.85,334.44z"/>
		<linearGradient id="SVGID_22_" gradientUnits="userSpaceOnUse" x1="74.0594" y1="289.6974" x2="74.0594" y2="336.8897">
			<stop  offset="0" style="stop-color:#5C5E60"/>
			<stop  offset="1" style="stop-color:#9FA1A4"/>
		</linearGradient>
		<path class="st38" d="M77.22,283.64c-0.37,0.01-0.74,0.02-1.11,0.03c-1.93,0.05-3.9,0.11-5.87,0.16
			c0.74,6.66,1.06,15.24,0.81,23.59c-0.16,5.41-0.56,10.72-1.24,15.34c-0.11,0.78-0.23,1.54-0.36,2.27
			c-0.11,0.64-0.23,1.27-0.36,1.87c-0.3,1.43-0.32,2.56-0.16,3.43c0.57,3.09,3.48,2.89,4.69,1.17c0.23-0.33,0.4-0.72,0.48-1.15
			c0.36-1.94,0.69-3.9,1.01-5.85c0.1-0.59,0.18-1.18,0.28-1.77c0.82-5.18,1.51-10.34,2.06-15.28c1.08-9.6,1.69-18.33,1.85-24.67
			c-0.07,0.12-0.16,0.24-0.26,0.34C78.56,283.58,77.86,283.63,77.22,283.64z"/>
		<linearGradient id="SVGID_23_" gradientUnits="userSpaceOnUse" x1="61.5305" y1="289.6974" x2="61.5305" y2="336.8897">
			<stop  offset="0" style="stop-color:#5C5E60"/>
			<stop  offset="1" style="stop-color:#9FA1A4"/>
		</linearGradient>
		<path class="st39" d="M61.3,331.72c0.12-0.24,0.22-0.5,0.27-0.79c0.39-2.13,0.76-4.28,1.1-6.43c0.09-0.57,0.18-1.14,0.26-1.71
			c0.78-5.01,1.45-10,1.98-14.77c1.05-9.32,1.65-17.81,1.84-24.1c-1.43,0.04-2.85,0.08-4.27,0.12c-1.62,0.04-3.23,0.09-4.81,0.13
			c0.76,6.69,1.09,15.37,0.84,23.82c-0.16,5.21-0.53,10.33-1.17,14.83c-0.09,0.64-0.19,1.27-0.29,1.88
			c-0.16,0.96-0.33,1.88-0.51,2.77c-0.26,1.25-0.31,2.26-0.21,3.08C56.79,334.23,60.23,333.83,61.3,331.72z"/>
		<linearGradient id="SVGID_24_" gradientUnits="userSpaceOnUse" x1="65.1395" y1="244.5098" x2="65.1395" y2="282.2069">
			<stop  offset="0" style="stop-color:#5C5E60"/>
			<stop  offset="1" style="stop-color:#9FA1A4"/>
		</linearGradient>
		<path class="st40" d="M67.35,260.22c-0.23-0.52-0.55-1.04-0.88-1.58c-1,1.98-2.42,4.65-3.9,6.85c0.14-0.01,0.29-0.01,0.44,0
			c0.22,0.02,0.42,0.07,0.61,0.13c0.55-0.3,1.24-0.57,2.06-0.75c0.48-0.1,0.96-0.23,1.44-0.37c0.21-0.58,0.38-1.16,0.49-1.73
			C67.79,261.86,67.74,261.07,67.35,260.22z"/>
		<linearGradient id="SVGID_25_" gradientUnits="userSpaceOnUse" x1="65.9922" y1="244.5098" x2="65.9922" y2="282.2069">
			<stop  offset="0" style="stop-color:#5C5E60"/>
			<stop  offset="1" style="stop-color:#9FA1A4"/>
		</linearGradient>
		<path class="st41" d="M66.76,283.93c1.16-0.03,2.32-0.06,3.47-0.1c1.97-0.05,3.94-0.11,5.87-0.16c0.37-0.01,0.75-0.02,1.11-0.03
			c0.64-0.02,1.34-0.06,1.82-0.51c0.11-0.1,0.19-0.22,0.26-0.34c0.26-0.43,0.34-0.98,0.4-1.5c1.06-9.48,2.28-20.79,0.7-30.16
			c-0.49-2.88-3.47-4.16-6.49-5.17c-1.04-0.35-2.1-0.6-3.11-0.76c-0.8-0.13-1.88-0.26-3.12-0.33l0.09,0.4
			c0.08,0.35-0.14,0.7-0.49,0.78l-2.55,0.58c-0.35,0.08-0.7-0.14-0.78-0.49l-0.28-1.25c-1.62,0.12-3.31,0.37-4.94,0.86
			c-3.17,0.95-6.08,2.76-7.65,6.04c-0.06,0.12-0.1,0.25-0.12,0.38c-0.23,1.36-0.19,2.76,0.12,4.11c2.13,9.34,4.09,18.64,6.57,27.9
			c0.01,0,0.02,0,0.03,0c1.58-0.04,3.19-0.09,4.81-0.13C63.91,284.01,65.33,283.97,66.76,283.93z M54.86,266.7
			c-0.78-1.22-1.24-2.74-1.62-4.24c-0.2-0.79-0.38-1.58-0.58-2.35l5.6-1.11c0.09,0.75,0.18,1.41,0.23,1.92
			c0.05,0.46,0.1,0.88,0.15,1.26c1.8-2.22,3.75-4.95,5.24-6.78c0.38-0.47,0.65-1.02,0.96-1.43c-0.05-0.97,0.08-1.94,0.34-2.84
			c0.17-0.6,0.41-1.18,0.67-1.73c-0.09-0.02-0.18-0.07-0.26-0.17l-0.52-0.65c-0.36-0.45-0.19-1.28,0.28-1.31l0.94-0.07
			c0.46-0.03,0.75,0.76,0.46,1.26l-0.42,0.72c-0.08,0.14-0.2,0.21-0.32,0.23c-0.27,0.81-0.47,1.65-0.55,2.49
			c0.41-0.75,1.11-1.13,1.78-0.88c0.85,0.33,1.32,1.55,1.05,2.73c-0.04,0.18-0.1,0.34-0.17,0.49c0.02,0.52-0.12,1.19-0.51,2.01
			c-0.13,0.27-0.31,0.65-0.53,1.11c0.5,0.66,1.07,1.32,1.56,2.14c0.3,0.5,0.55,1.07,0.69,1.7c0.13,0.62,0.15,1.24,0.11,1.83
			c-0.02,0.26-0.05,0.52-0.08,0.77c1.61-0.54,3.25-1.13,4.9-1.55c0-0.05,0-0.09,0-0.14c0.01-0.61,0.01-1.18,0.02-1.73
			c0-0.9,0-1.72-0.01-2.49l6.15,0.14c0,0.42,0,0.83,0,1.25c0,0.17,0,0.35,0.01,0.52c0.04,1.99,0.25,4.36-0.36,6.21
			c-0.12,0.35-0.42,0.65-0.87,0.91c-2.12,1.24-7.44,1.58-11.17,1.65c-0.38,0.96-0.79,1.89-1.22,2.8c-0.23,0.5-0.83,0.69-1.3,0.41
			l-0.86-0.5c-0.47-0.27-0.62-0.89-0.34-1.36c0.28-0.45,0.55-0.89,0.81-1.34c-0.22,0-0.41-0.01-0.56-0.01
			c-0.53-0.01-0.97-0.08-1.32-0.18c-0.22,0.03-0.44,0.05-0.68,0.03c-0.71-0.06-1.3-0.37-1.61-0.79c-1.11,1.3-2.17,2.1-3.01,1.88
			l0-0.03C57.81,269.45,56.42,269.03,54.86,266.7z"/>
		<linearGradient id="SVGID_26_" gradientUnits="userSpaceOnUse" x1="66.1123" y1="249.3931" x2="66.1123" y2="271.916">
			<stop  offset="0" style="stop-color:#8647E1"/>
			<stop  offset="1" style="stop-color:#B78FED"/>
		</linearGradient>
		<path class="st42" d="M65.14,268.58c-0.26,0.45-0.53,0.89-0.81,1.34c-0.29,0.46-0.13,1.08,0.34,1.36l0.86,0.5
			c0.47,0.28,1.07,0.09,1.3-0.41c0.42-0.91,0.84-1.84,1.22-2.8C66.87,268.6,65.85,268.59,65.14,268.58z"/>
		<linearGradient id="SVGID_27_" gradientUnits="userSpaceOnUse" x1="65.8557" y1="249.3931" x2="65.8557" y2="271.916">
			<stop  offset="0" style="stop-color:#8647E1"/>
			<stop  offset="1" style="stop-color:#B78FED"/>
		</linearGradient>
		<path class="st43" d="M65.21,252.58c0.06-0.25,0.15-0.48,0.26-0.68c0.08-0.84,0.27-1.68,0.55-2.49c0.12-0.02,0.23-0.09,0.32-0.23
			l0.42-0.72c0.29-0.5,0.01-1.3-0.46-1.26l-0.94,0.07c-0.46,0.03-0.64,0.86-0.28,1.31l0.52,0.65c0.08,0.1,0.17,0.15,0.26,0.17
			c-0.26,0.56-0.49,1.13-0.67,1.73c-0.26,0.9-0.39,1.87-0.34,2.84c0.1-0.13,0.2-0.24,0.31-0.34
			C65.12,253.3,65.12,252.94,65.21,252.58z"/>
		<linearGradient id="SVGID_28_" gradientUnits="userSpaceOnUse" x1="67.9737" y1="249.3931" x2="67.9737" y2="271.916">
			<stop  offset="0" style="stop-color:#8647E1"/>
			<stop  offset="1" style="stop-color:#B78FED"/>
		</linearGradient>
		<path class="st44" d="M67.35,260.22c0.4,0.86,0.44,1.64,0.27,2.56c-0.11,0.57-0.29,1.15-0.49,1.73c0.74-0.21,1.5-0.45,2.26-0.71
			c0.03-0.25,0.06-0.5,0.08-0.77c0.04-0.59,0.02-1.21-0.11-1.83c-0.14-0.62-0.39-1.2-0.69-1.7c-0.49-0.82-1.06-1.48-1.56-2.14
			c-0.18,0.37-0.39,0.8-0.62,1.26C66.8,259.18,67.12,259.7,67.35,260.22z"/>
		<path class="st16" d="M61.78,236.64l-0.21-0.94l4.42-4.25c0.9,0.53,1.62,1.49,1.9,2.71l0.36,1.6c0.16-0.91,0.14-1.9-0.09-2.92
			l-0.48-2.1c-0.16-0.69-0.4-1.32-0.71-1.89c-2.83,0.7-5.54,1.73-7.6,3.74c0,0.02,0.01,0.03,0.01,0.05l0.48,2.1
			c0.24,1.03,0.66,1.95,1.21,2.71C61.16,237.04,61.42,236.72,61.78,236.64z"/>
		<path class="st18" d="M64.74,246.63l2.55-0.58c0.35-0.08,0.57-0.43,0.49-0.78l-0.09-0.4l-0.76-3.33c1.35-0.69,2.08-2.48,1.66-4.31
			l-0.34-1.48l-0.36-1.6c-0.28-1.21-1-2.17-1.9-2.71l-4.42,4.25l0.21,0.94c-0.37,0.08-0.62,0.4-0.71,0.79
			c-0.04,0.19-0.05,0.4,0,0.61c0.15,0.65,0.71,1.08,1.25,0.95c0,0,0.01,0,0.01,0c0.04,0.12,0.08,0.24,0.12,0.36
			c-0.01,0.07-0.01,0.15,0.01,0.23l1.21,5.32l0.28,1.25C64.04,246.49,64.39,246.71,64.74,246.63z"/>
		<path class="st18" d="M57.96,269.51c0.84,0.22,1.9-0.57,3.01-1.88c0.31,0.42,0.9,0.73,1.61,0.79c0.23,0.02,0.46,0,0.68-0.03
			c0.35,0.1,0.79,0.16,1.32,0.18c0.16,0,0.35,0.01,0.56,0.01c0.71,0.01,1.73,0.01,2.91-0.01c3.73-0.08,9.05-0.42,11.17-1.65
			c0.45-0.26,0.76-0.56,0.87-0.91c0.61-1.85,0.4-4.21,0.36-6.21c0-0.17-0.01-0.35-0.01-0.52c0-0.41,0-0.83,0-1.25l-6.15-0.14
			c0.01,0.77,0.01,1.59,0.01,2.49c0,0.55-0.01,1.12-0.02,1.73c0,0.05,0,0.09,0,0.14c-1.65,0.42-3.29,1.01-4.9,1.55
			c-0.76,0.26-1.51,0.5-2.26,0.71c-0.48,0.14-0.97,0.27-1.44,0.37c-0.82,0.18-1.51,0.44-2.06,0.75c-0.19-0.06-0.39-0.11-0.61-0.13
			c-0.15-0.01-0.29-0.01-0.44,0c1.48-2.2,2.91-4.87,3.9-6.85c0.23-0.46,0.44-0.89,0.62-1.26c0.22-0.45,0.4-0.84,0.53-1.11
			c0.38-0.82,0.53-1.5,0.51-2.01c0.07-0.15,0.13-0.31,0.17-0.49c0.28-1.19-0.19-2.41-1.05-2.73c-0.67-0.26-1.38,0.13-1.78,0.88
			c-0.11,0.2-0.2,0.43-0.26,0.68c-0.08,0.36-0.09,0.72-0.05,1.05c-0.11,0.09-0.21,0.21-0.31,0.34c-0.31,0.41-0.58,0.97-0.96,1.43
			c-1.49,1.83-3.44,4.56-5.24,6.78c-0.04-0.38-0.09-0.8-0.15-1.26c-0.06-0.51-0.14-1.18-0.23-1.92l-5.6,1.11
			c0.19,0.76,0.37,1.56,0.58,2.35c0.38,1.5,0.85,3.02,1.62,4.24c1.56,2.33,2.96,2.75,3.1,2.79L57.96,269.51z"/>
	</g>
	<g>
		<linearGradient id="SVGID_29_" gradientUnits="userSpaceOnUse" x1="221.0015" y1="266.3262" x2="228.8481" y2="266.3262">
			<stop  offset="0" style="stop-color:#5C5E60"/>
			<stop  offset="1" style="stop-color:#9FA1A4"/>
		</linearGradient>
		<path class="st45" d="M228.57,262.45h-1.33c-0.02,0.17-0.04,0.34-0.06,0.5c-0.13-0.16-0.27-0.33-0.4-0.5h-5.48
			c-0.1,0-0.2-0.02-0.3-0.04c2.16,3.91,5.04,8.27,6.86,7.79l0-0.03c0.07-0.02,0.44-0.13,0.98-0.51
			C228.69,267.26,228.58,264.84,228.57,262.45z"/>
		<path class="st46" d="M217.8,255.32c0.02,0.48,0.18,1.07,0.5,1.77c0.18,0.4,0.48,1.02,0.85,1.78l-0.94-3.39
			C218.07,255.44,217.93,255.39,217.8,255.32z"/>
		<path class="st35" d="M234.51,334.33l6.73-0.04c0.32,0,0.57-0.19,0.51-0.39l-0.39-1.34l-0.61-2.11c-0.01-0.03-0.03-0.05-0.05-0.07
			c-0.57,3.06-3.44,2.86-4.64,1.16l-2.33,0.78c-0.2,0.07-0.37,0.15-0.5,0.25C232.33,333.2,232.97,334.33,234.51,334.33z"/>
		<path class="st35" d="M248.24,331.75l-2.12,0.71c-0.09,0.03-0.18,0.07-0.25,0.1c-1.24,0.59-0.63,1.92,1.04,1.91l6.73-0.04
			c0.32,0,0.57-0.19,0.51-0.39l-0.43-1.48l-0.57-1.96C252.71,334.24,249.3,333.84,248.24,331.75z"/>
		<linearGradient id="SVGID_30_" gradientUnits="userSpaceOnUse" x1="235.6016" y1="294.393" x2="235.6016" y2="332.3516">
			<stop  offset="0" style="stop-color:#5C5E60"/>
			<stop  offset="1" style="stop-color:#9FA1A4"/>
		</linearGradient>
		<path class="st47" d="M240.69,330.38c0.16-0.86,0.14-1.98-0.16-3.39c-0.12-0.6-0.24-1.22-0.35-1.85
			c-0.13-0.73-0.25-1.48-0.36-2.25c-0.67-4.57-1.07-9.82-1.23-15.18c-0.25-8.26,0.07-16.74,0.8-23.33
			c-1.96-0.05-3.91-0.11-5.84-0.16c-0.36-0.01-0.72-0.02-1.08-0.03c-0.63-0.02-1.33-0.06-1.8-0.51c-0.11-0.1-0.19-0.22-0.26-0.34
			c0.16,6.28,0.76,14.91,1.84,24.41c0.55,4.88,1.24,9.99,2.04,15.11c0.09,0.58,0.18,1.17,0.27,1.75c0.32,1.93,0.65,3.87,1,5.79
			c0.08,0.43,0.25,0.81,0.48,1.13C237.25,333.24,240.13,333.44,240.69,330.38z"/>
		<linearGradient id="SVGID_31_" gradientUnits="userSpaceOnUse" x1="248.0116" y1="294.393" x2="248.0116" y2="332.3516">
			<stop  offset="0" style="stop-color:#5C5E60"/>
			<stop  offset="1" style="stop-color:#9FA1A4"/>
		</linearGradient>
		<path class="st48" d="M247.06,284.59c-0.34-0.01-0.69-0.02-1.03-0.03c-1.06-0.03-2.13-0.06-3.19-0.09
			c0.18,6.22,0.78,14.63,1.82,23.85c0.53,4.72,1.19,9.65,1.97,14.61c0.09,0.56,0.17,1.12,0.26,1.69c0.34,2.12,0.71,4.25,1.09,6.36
			c0.05,0.28,0.14,0.54,0.27,0.78c1.06,2.08,4.47,2.48,4.91-1.15c0.1-0.81,0.05-1.81-0.21-3.05c-0.18-0.87-0.35-1.79-0.51-2.74
			c-0.1-0.61-0.19-1.23-0.28-1.86c-0.63-4.45-1-9.52-1.16-14.67c-0.25-8.35,0.08-16.94,0.83-23.56
			C250.25,284.67,248.66,284.63,247.06,284.59z"/>
		<linearGradient id="SVGID_32_" gradientUnits="userSpaceOnUse" x1="228.5746" y1="273.3342" x2="234.0835" y2="273.3342">
			<stop  offset="0" style="stop-color:#5C5E60"/>
			<stop  offset="1" style="stop-color:#9FA1A4"/>
		</linearGradient>
		<path class="st49" d="M232.47,284.18c0.36,0.01,0.72,0.02,1.08,0.03l0.53-21.76h-5.51c0.01,2.39,0.11,4.81,0.27,7.21
			c0.28,4.2,0.74,8.35,1.17,12.19c0.06,0.51,0.14,1.05,0.4,1.48c0.07,0.12,0.15,0.24,0.26,0.34
			C231.14,284.12,231.84,284.17,232.47,284.18z"/>
		<path class="st1" d="M241.07,246.47c0.04,0.08,0.08,0.17,0.1,0.26l0.4,1.45l0.11,0.01c0.46,0.03,0.63,0.85,0.27,1.3l-0.02,0.02
			l0.47,1.69c0.83-0.28,1.72,0.4,1.98,1.55c0.13,0.58,0.09,1.16-0.09,1.65c0.04,0.03,0.08,0.06,0.12,0.09h0
			c0.46,0.38,0.77,1.14,1.26,1.75c0.71,0.87,1.52,1.94,2.36,3.05l1.04-13.03c-1.73-0.36-3.49-0.49-5.09-0.5
			c-0.09,0.12-0.23,0.21-0.39,0.24L241.07,246.47z"/>
		<linearGradient id="SVGID_33_" gradientUnits="userSpaceOnUse" x1="233.5508" y1="273.4777" x2="247.4375" y2="273.4777">
			<stop  offset="0" style="stop-color:#DCDFFB"/>
			<stop  offset="1" style="stop-color:#F3F3FA"/>
		</linearGradient>
		<path class="st50" d="M247.44,266.88c-0.96-1.35-1.91-2.95-2.76-4.48c-0.1,0.03-0.2,0.06-0.32,0.06h-4.99
			c-0.01,0.35,0.01,0.7,0.08,1.08c0.17,0.89,0.51,1.84,0.88,2.72c0.64,1.49,1.48,2.92,2.38,4.35c0.28,0.46,0.13,1.07-0.33,1.34
			l-0.86,0.5c-0.47,0.27-1.06,0.09-1.29-0.41c-0.73-1.58-1.46-3.23-1.98-4.99c-0.3-1.06-0.54-2.11-0.63-3.27
			c-0.03-0.43-0.03-0.88,0.03-1.34h-3.57l-0.53,21.76c1.93,0.05,3.88,0.11,5.84,0.16c1.15,0.03,2.29,0.06,3.44,0.09
			c1.07,0.03,2.13,0.06,3.19,0.09L247.44,266.88z"/>
		<path class="st1" d="M243.32,254.51L243.32,254.51c0.38-0.01,0.73-0.01,0.93-0.02L243.32,254.51z"/>
		<linearGradient id="SVGID_34_" gradientUnits="userSpaceOnUse" x1="246.0237" y1="269.0376" x2="258.6077" y2="269.0376">
			<stop  offset="0" style="stop-color:#5C5E60"/>
			<stop  offset="1" style="stop-color:#9FA1A4"/>
		</linearGradient>
		<path class="st51" d="M258.43,254.49c-0.51,2.06-1.09,4.36-1.24,4.9c-0.03,0.11-0.24,0.9-0.4,1.51l0.01,0
			c-0.19,0.76-0.37,1.54-0.57,2.32c-0.38,1.49-0.84,2.99-1.61,4.19c-1.54,2.3-2.93,2.72-3.07,2.76l0,0.03
			c-1.11,0.29-2.62-1.22-4.11-3.32l-1.41,17.68c0.34,0.01,0.69,0.02,1.03,0.03c1.6,0.04,3.2,0.09,4.76,0.13c0.01,0,0.02,0,0.03,0
			c2.46-9.16,4.4-18.36,6.51-27.6c0.28-1.23,0.33-2.51,0.15-3.76C258.54,253.73,258.52,254.11,258.43,254.49z"/>
		<linearGradient id="SVGID_35_" gradientUnits="userSpaceOnUse" x1="248.0436" y1="254.6151" x2="257.2964" y2="254.6151">
			<stop  offset="0" style="stop-color:#5C5E60"/>
			<stop  offset="1" style="stop-color:#9FA1A4"/>
		</linearGradient>
		<path class="st52" d="M250.87,262.96c0.04-0.38,0.09-0.79,0.14-1.24c0.06-0.51,0.14-1.16,0.23-1.9l0.01,0
			c0.26-1.94,0.83-5.38,1.11-7.3c0.24-1.65,1.87-2.73,3.49-2.31c0.55,0.14,1.03,0.42,1.43,0.77c-1.63-2.18-3.98-3.51-6.52-4.27
			c-0.56-0.17-1.12-0.31-1.69-0.42l-1.04,13.03C248.97,260.52,249.94,261.81,250.87,262.96z"/>
		<linearGradient id="SVGID_36_" gradientUnits="userSpaceOnUse" x1="237.6015" y1="267.5159" x2="242.8482" y2="267.5159">
			<stop  offset="0" style="stop-color:#8647E1"/>
			<stop  offset="1" style="stop-color:#B78FED"/>
		</linearGradient>
		<path class="st53" d="M237.62,263.79c0.09,1.16,0.33,2.21,0.63,3.27c0.52,1.76,1.24,3.4,1.98,4.99c0.23,0.49,0.82,0.68,1.29,0.41
			l0.86-0.5c0.47-0.27,0.62-0.89,0.33-1.34c-0.89-1.44-1.74-2.86-2.38-4.35c-0.37-0.88-0.71-1.83-0.88-2.72
			c-0.07-0.38-0.1-0.73-0.08-1.08h-1.71C237.59,262.91,237.59,263.36,237.62,263.79z"/>
		<path class="st54" d="M241.69,248.19l-0.11-0.01l0.37,1.33l0.02-0.02C242.32,249.04,242.15,248.22,241.69,248.19z"/>
		<path class="st16" d="M236.56,232.68l5.68,2.16l0.17,0.93c0.36-0.07,0.72,0.12,0.96,0.45c0.2-0.9,0.24-1.9,0.05-2.93l-0.38-2.09
			c0-0.02-0.01-0.03-0.01-0.05c-2.66-1.03-5.53-0.91-8.38-0.45c-0.06,0.64-0.03,1.31,0.09,2l0.38,2.09
			c0.18,1.01,0.56,1.93,1.05,2.69l-0.29-1.59C235.66,234.67,235.95,233.51,236.56,232.68z"/>
		<path class="st18" d="M241.07,246.47l2.53-0.46c0.16-0.03,0.3-0.12,0.39-0.24c0.11-0.14,0.16-0.32,0.13-0.51l-1.19-6.56
			c-0.01-0.08-0.05-0.16-0.09-0.22c0-0.12-0.02-0.24-0.03-0.36c0.01,0,0.02,0,0.03,0c0.54-0.1,0.88-0.7,0.77-1.35
			c-0.04-0.21-0.12-0.4-0.23-0.55c-0.23-0.33-0.59-0.51-0.96-0.45l-0.17-0.93l-5.68-2.16c-0.61,0.83-0.9,1.99-0.68,3.2l0.29,1.59
			l0.27,1.48c0.33,1.83,1.69,3.17,3.19,3.28l0.63,3.48C240.6,245.86,240.9,246.14,241.07,246.47z"/>
		<linearGradient id="SVGID_37_" gradientUnits="userSpaceOnUse" x1="215.7533" y1="254.0128" x2="244.6781" y2="254.0128">
			<stop  offset="0" style="stop-color:#DCDFFB"/>
			<stop  offset="1" style="stop-color:#F3F3FA"/>
		</linearGradient>
		<path class="st55" d="M226.79,262.45h0.46h1.33h5.51h3.57h1.71h4.99c0.12,0,0.22-0.02,0.32-0.06c-1.26-2.27-2.27-4.39-2.7-5.31
			c-0.52-1.13-0.61-1.98-0.4-2.52c-0.01-0.01,0.94-0.04,1.74-0.05l0,0l-1.75,0.03c-0.1-0.19-0.18-0.4-0.24-0.63
			c-0.27-1.17,0.19-2.38,1.04-2.71c0.01,0,0.03,0,0.04-0.01l-0.47-1.69l-0.37-1.33l-0.4-1.45c-0.02-0.09-0.06-0.18-0.1-0.26
			c-0.17-0.34-0.47-0.61-0.81-0.77c-0.18-0.08-0.38-0.13-0.57-0.13h-23.05c-0.64,0-1.02,0.52-0.84,1.16l1.7,6.13
			c0.35-0.27,0.82-0.44,1.35-0.44c1.08,0,1.96,0.7,1.96,1.57s-0.88,1.57-1.96,1.57c-0.22,0-0.43-0.04-0.63-0.09l0.94,3.39l0.67,2.42
			c0.15,0.54,0.64,0.99,1.18,1.12c0.1,0.02,0.2,0.04,0.3,0.04H226.79z"/>
		<path class="st18" d="M244.42,254.49c-0.04-0.03-0.07-0.07-0.12-0.09c0.18-0.49,0.23-1.07,0.09-1.65
			c-0.27-1.15-1.15-1.84-1.98-1.55c-0.01,0-0.03,0-0.04,0.01c-0.84,0.32-1.31,1.53-1.04,2.71c0.05,0.23,0.14,0.44,0.24,0.63
			l1.75-0.03l0.93-0.02C244.35,254.49,244.42,254.49,244.42,254.49z"/>
		<linearGradient id="SVGID_38_" gradientUnits="userSpaceOnUse" x1="241.4765" y1="260.1749" x2="258.5201" y2="260.1749">
			<stop  offset="0" style="stop-color:#5C5E60"/>
			<stop  offset="1" style="stop-color:#9FA1A4"/>
		</linearGradient>
		<path class="st56" d="M252.37,252.51c-0.28,1.91-0.85,5.36-1.11,7.3l-0.01,0c-0.09,0.74-0.17,1.4-0.23,1.9
			c-0.05,0.45-0.1,0.87-0.14,1.24c-0.93-1.15-1.9-2.43-2.83-3.66c-0.85-1.12-1.66-2.19-2.36-3.05c-0.5-0.61-0.8-1.37-1.26-1.75h0
			c0,0-0.06,0-0.17,0c-0.2,0-0.54,0.01-0.92,0.02c-0.8,0.02-1.75,0.04-1.74,0.05c-0.21,0.54-0.12,1.39,0.4,2.52
			c0.42,0.92,1.44,3.03,2.7,5.31c0.85,1.53,1.8,3.13,2.76,4.48c1.49,2.11,3,3.62,4.11,3.32l0-0.03c0.14-0.04,1.53-0.45,3.07-2.76
			c0.77-1.21,1.23-2.71,1.61-4.19c0.2-0.79,0.38-1.57,0.57-2.32l-0.01,0c0.16-0.61,0.37-1.4,0.4-1.51c0.15-0.54,0.72-2.84,1.24-4.9
			c0.1-0.38,0.11-0.76,0.08-1.14c-0.07-0.93-0.51-1.79-1.21-2.39c-0.4-0.35-0.88-0.62-1.43-0.77
			C254.24,249.78,252.61,250.86,252.37,252.51z"/>
		<path class="st18" d="M218.84,255.57c1.08,0,1.96-0.7,1.96-1.57s-0.88-1.57-1.96-1.57c-0.52,0-1,0.17-1.35,0.44
			c-0.37,0.29-0.61,0.69-0.61,1.13c0,0.56,0.37,1.04,0.91,1.32c0.13,0.07,0.27,0.12,0.42,0.16
			C218.41,255.53,218.62,255.57,218.84,255.57z"/>
	</g>
</g>
</svg>
