<?xml version="1.0" encoding="utf-8"?>
<!-- Generator: Adobe Illustrator 25.2.1, SVG Export Plug-In . SVG Version: 6.00 Build 0)  -->
<svg version="1.1" id="Ñëîé_2" xmlns="http://www.w3.org/2000/svg" width="400" xmlns:xlink="http://www.w3.org/1999/xlink" x="0px" y="0px"
	 viewBox="0 0 2359.17 1199.65" style="enable-background:new 0 0 2359.17 1199.65;" xml:space="preserve">
<style type="text/css">
	.st0{fill:#D1D4FC;}
	.st1{fill:#F0F1FE;}
	.st2{opacity:0.1;fill:url(#SVGID_1_);}
	.st3{opacity:0.1;fill:url(#SVGID_2_);}
	.st4{fill:#FFFFFF;}
	.st5{fill:url(#SVGID_3_);}
	.st6{fill:url(#SVGID_4_);}
	.st7{fill:url(#SVGID_5_);}
	.st8{fill:url(#SVGID_6_);}
	.st9{fill:url(#SVGID_7_);}
	.st10{fill:url(#SVGID_8_);}
	.st11{fill:url(#SVGID_9_);}
	.st12{fill:url(#SVGID_10_);}
	.st13{fill:url(#SVGID_11_);}
	.st14{fill:url(#SVGID_12_);}
	.st15{fill:url(#SVGID_13_);}
	.st16{fill:#FFB27D;}
	.st17{fill:#FFD6D6;}
	.st18{fill:#814D4D;}
	.st19{fill:url(#SVGID_14_);}
	.st20{fill:url(#SVGID_15_);}
	.st21{fill:#450606;}
	.st22{fill:url(#SVGID_16_);}
	.st23{fill:url(#SVGID_17_);}
	.st24{fill:url(#SVGID_18_);}
	.st25{fill:url(#SVGID_19_);}
	.st26{fill:url(#SVGID_20_);}
	.st27{fill:url(#SVGID_21_);}
	.st28{fill:url(#SVGID_22_);}
	.st29{fill:url(#SVGID_23_);}
	.st30{fill:url(#SVGID_24_);}
	.st31{fill:url(#SVGID_25_);}
	.st32{fill:url(#SVGID_26_);}
	.st33{fill:url(#SVGID_27_);}
	.st34{fill:url(#SVGID_28_);}
	.st35{fill:url(#SVGID_29_);}
	.st36{fill:url(#SVGID_30_);}
	.st37{fill:url(#SVGID_31_);}
</style>
<g>
	<g>
		<path class="st0" d="M1709.26,1199.65h-567.53c-17.79,0-32.35-14.56-32.35-32.35V32.36c0-17.79,14.56-32.35,32.35-32.35h567.53
			c17.79,0,32.35,14.56,32.35,32.35v1134.94C1741.61,1185.09,1727.05,1199.65,1709.26,1199.65z"/>
		<path class="st1" d="M1775.03,32.36V1167.3c0,17.79-14.56,32.35-32.36,32.35h-567.53c-17.8,0-32.35-14.56-32.35-32.35V32.36
			c0-17.8,14.55-32.36,32.35-32.36h567.53C1760.47,0,1775.03,14.56,1775.03,32.36z"/>
		<g>
			<path class="st0" d="M1551.56,45.41h-164.35c-3.52,0-6.39-2.88-6.39-6.39l0,0c0-3.52,2.88-6.39,6.39-6.39h164.35
				c3.52,0,6.39,2.88,6.39,6.39l0,0C1557.95,42.53,1555.08,45.41,1551.56,45.41z"/>
			<path class="st0" d="M1358.02,45.41L1358.02,45.41c-3.52,0-6.39-2.88-6.39-6.39l0,0c0-3.52,2.88-6.39,6.39-6.39l0,0
				c3.52,0,6.39,2.88,6.39,6.39l0,0C1364.42,42.53,1361.54,45.41,1358.02,45.41z"/>
		</g>
		<path class="st0" d="M1507.98,1133.36c0,11.32-4.57,21.58-11.96,29.04c-7.47,7.55-17.84,12.21-29.29,12.21
			c-22.78,0-41.25-18.47-41.25-41.25c0-14.64,7.63-27.49,19.14-34.81c6.38-4.07,13.97-6.42,22.11-6.42
			C1489.51,1092.12,1507.98,1110.58,1507.98,1133.36z"/>
		<rect x="1180.65" y="73.9" class="st0" width="560.65" height="997.94"/>
		<path class="st0" d="M1496.02,1162.39c-7.47,7.55-17.84,12.21-29.29,12.21c-22.78,0-41.25-18.47-41.25-41.25
			c0-14.64,7.63-27.49,19.14-34.81C1448.67,1116.1,1460.66,1145.47,1496.02,1162.39z"/>
	</g>
	<linearGradient id="SVGID_1_" gradientUnits="userSpaceOnUse" x1="1203.4082" y1="370.4471" x2="1741.2939" y2="370.4471">
		<stop  offset="0" style="stop-color:#8647E1"/>
		<stop  offset="1" style="stop-color:#B78FED"/>
	</linearGradient>
	<path class="st2" d="M1733.23,193.21h-1.31h-259.56h-260.88c-4.43,0-8.06,4.7-8.06,10.45v333.58c0,5.74,3.63,10.44,8.06,10.44
		h260.88h259.56h1.31c4.44,0,8.07-4.7,8.07-10.44V203.66C1741.29,197.91,1737.67,193.21,1733.23,193.21z"/>
	<linearGradient id="SVGID_2_" gradientUnits="userSpaceOnUse" x1="1125.5029" y1="775.7085" x2="1544.8584" y2="775.7085">
		<stop  offset="0" style="stop-color:#8647E1"/>
		<stop  offset="1" style="stop-color:#B78FED"/>
	</linearGradient>
	<path class="st3" d="M1538.57,598.48h-1.02h-202.37h-203.39c-3.46,0-6.28,4.7-6.28,10.45v333.59c0,5.74,2.83,10.44,6.28,10.44
		h203.39h202.37h1.02c3.46,0,6.29-4.7,6.29-10.44V608.92C1544.86,603.17,1542.03,598.48,1538.57,598.48z"/>
	<g>
		<path class="st4" d="M1931.58,173.61V507.2c0,5.73-4.7,10.43-10.45,10.43h-675.55c-5.73,0-10.43-4.7-10.43-10.43V173.61
			c0-5.75,4.7-10.45,10.43-10.45h675.55C1926.88,163.16,1931.58,167.86,1931.58,173.61z"/>
		<linearGradient id="SVGID_3_" gradientUnits="userSpaceOnUse" x1="1583.3593" y1="340.3965" x2="1931.5723" y2="340.3965">
			<stop  offset="0" style="stop-color:#8647E1"/>
			<stop  offset="1" style="stop-color:#B78FED"/>
		</linearGradient>
		<path class="st5" d="M1931.57,173.61v333.58c0,5.74-5.46,10.44-12.14,10.44h-336.07V163.16h336.07
			C1926.11,163.16,1931.57,167.86,1931.57,173.61z"/>
		<g>
			<path class="st4" d="M1748.33,292.65h-118.9c-4.16,0-7.57-3.41-7.57-7.57l0,0c0-4.16,3.41-7.57,7.57-7.57h118.9
				c4.16,0,7.57,3.41,7.57,7.57l0,0C1755.9,289.24,1752.49,292.65,1748.33,292.65z"/>
			<path class="st4" d="M1718.95,315.36h-90.43c-3.66,0-6.66-3-6.66-6.66v-1.82c0-3.66,3-6.66,6.66-6.66h90.43
				c3.66,0,6.66,3,6.66,6.66v1.82C1725.62,312.36,1722.62,315.36,1718.95,315.36z"/>
		</g>
		<g>
			<path class="st4" d="M1631,207.81c2.85-3.76,6.61-5.64,11.17-5.64c4.56,0,8.27,1.88,11.12,5.58c2.85,3.71,4.24,8.32,4.24,13.85
				c0,5.53-1.4,10.15-4.24,13.85c-2.85,3.71-6.55,5.59-11.12,5.59c-4.56,0-8.32-1.88-11.17-5.59c-2.85-3.7-4.24-8.32-4.24-13.85
				C1626.76,216.13,1628.15,211.51,1631,207.81z M1650.38,210.39c-2.15-3.01-4.89-4.51-8.22-4.51c-3.33,0-6.07,1.5-8.22,4.51
				c-2.15,3.01-3.22,6.77-3.22,11.22c0,4.51,1.07,8.27,3.17,11.28c2.15,2.95,4.89,4.46,8.27,4.46c3.38,0,6.12-1.5,8.22-4.46
				c2.15-3.01,3.22-6.77,3.22-11.28C1653.6,217.15,1652.53,213.39,1650.38,210.39z"/>
			<path class="st4" d="M1688.18,206.84c2.52,3.06,3.81,7.41,3.81,12.94c0.21,11.71-6.12,21.37-16.33,21.26
				c-3.06,0-5.75-0.75-7.95-2.31v-3.81c2.36,1.61,4.89,2.42,7.62,2.42c8.91,0,12.62-8.11,12.78-16.06
				c-1.99,3.38-5.91,5.58-11.01,5.58c-3.38,0-6.28-1.13-8.65-3.33c-2.31-2.25-3.49-5.15-3.49-8.64c0-3.71,1.23-6.71,3.65-9.13
				c2.47-2.42,5.53-3.6,9.13-3.6C1682.17,202.17,1685.66,203.73,1688.18,206.84z M1671.49,208.45c-1.72,1.66-2.58,3.81-2.58,6.44
				c0,2.58,0.86,4.62,2.63,6.18c1.77,1.56,3.92,2.31,6.55,2.31c2.2,0,4.24-0.7,6.12-2.09c1.88-1.4,3.12-3.11,3.81-5.21
				c-0.65-6.44-4.19-10.2-10.04-10.2C1675.41,205.88,1673.26,206.74,1671.49,208.45z"/>
			<path class="st4" d="M1699.94,215.97c1.07-1.07,2.9-1.07,3.97,0c1.07,1.07,1.07,2.9,0,3.97c-1.07,1.07-2.9,1.07-3.97,0
				C1698.87,218.87,1698.87,217.05,1699.94,215.97z M1699.94,235.95c1.07-1.07,2.9-1.07,3.97,0c1.07,1.07,1.07,2.9,0,3.97
				c-1.07,1.07-2.9,1.07-3.97,0C1698.87,238.85,1698.87,237.02,1699.94,235.95z"/>
			<path class="st4" d="M1718.52,240.4v-33.29l-8.43,4.83v-3.81l8.86-5.32h3.49v37.59H1718.52z"/>
			<path class="st4" d="M1736.13,207.81c2.85-3.76,6.6-5.64,11.17-5.64c4.56,0,8.27,1.88,11.12,5.58c2.85,3.71,4.24,8.32,4.24,13.85
				c0,5.53-1.4,10.15-4.24,13.85c-2.85,3.71-6.55,5.59-11.12,5.59c-4.56,0-8.32-1.88-11.17-5.59c-2.85-3.7-4.24-8.32-4.24-13.85
				C1731.89,216.13,1733.29,211.51,1736.13,207.81z M1755.52,210.39c-2.15-3.01-4.89-4.51-8.22-4.51s-6.07,1.5-8.22,4.51
				c-2.15,3.01-3.22,6.77-3.22,11.22c0,4.51,1.07,8.27,3.17,11.28c2.15,2.95,4.89,4.46,8.27,4.46c3.38,0,6.12-1.5,8.22-4.46
				c2.15-3.01,3.22-6.77,3.22-11.28C1758.74,217.15,1757.67,213.39,1755.52,210.39z"/>
			<path class="st4" d="M1785.8,240.4v-37.59h15.79c7.52,0,12.03,4.19,12.03,10.42c0,6.39-4.51,10.58-12.03,10.58h-11.81v16.59
				H1785.8z M1789.78,220.21h11.55c5.32,0,8.38-2.52,8.38-6.87c0-4.46-3.06-6.93-8.38-6.93h-11.55V220.21z"/>
			<path class="st4" d="M1821.51,240.4v-37.59h3.92l13.59,18.2l13.59-18.2h3.87v37.59h-3.92v-31.57l-12.3,16.43h-2.42l-12.4-16.43
				v31.57H1821.51z"/>
		</g>
		<linearGradient id="SVGID_4_" gradientUnits="userSpaceOnUse" x1="1339.1074" y1="302.7969" x2="1476.8291" y2="302.7969">
			<stop  offset="0" style="stop-color:#5C5E60"/>
			<stop  offset="1" style="stop-color:#9FA1A4"/>
		</linearGradient>
		<path class="st6" d="M1407.97,207.08c-38.03,0-68.86,30.83-68.86,68.86c0,38.03,68.86,122.58,68.86,122.58
			s68.86-84.55,68.86-122.58C1476.83,237.91,1446,207.08,1407.97,207.08z M1407.97,307.42c-17.78,0-32.19-14.41-32.19-32.19
			c0-17.78,14.41-32.19,32.19-32.19c17.78,0,32.19,14.41,32.19,32.19C1440.16,293.01,1425.74,307.42,1407.97,307.42z"/>
		<g>
			<linearGradient id="SVGID_5_" gradientUnits="userSpaceOnUse" x1="1275.7089" y1="448.1016" x2="1409.748" y2="448.1016">
				<stop  offset="0" style="stop-color:#5C5E60"/>
				<stop  offset="1" style="stop-color:#9FA1A4"/>
			</linearGradient>
			<path class="st7" d="M1402.18,455.67h-118.89c-4.17,0-7.57-3.41-7.57-7.57l0,0c0-4.16,3.41-7.57,7.57-7.57h118.89
				c4.16,0,7.57,3.41,7.57,7.57l0,0C1409.75,452.27,1406.34,455.67,1402.18,455.67z"/>
			<linearGradient id="SVGID_6_" gradientUnits="userSpaceOnUse" x1="1275.7089" y1="470.8167" x2="1379.4619" y2="470.8167">
				<stop  offset="0" style="stop-color:#5C5E60"/>
				<stop  offset="1" style="stop-color:#9FA1A4"/>
			</linearGradient>
			<path class="st8" d="M1372.8,478.39h-90.43c-3.66,0-6.66-3-6.66-6.66v-1.82c0-3.66,3-6.66,6.66-6.66h90.43
				c3.66,0,6.66,3,6.66,6.66v1.82C1379.46,475.39,1376.46,478.39,1372.8,478.39z"/>
		</g>
	</g>
	<g>
		<path class="st4" d="M1598,583.31v333.59c0,5.74-4.7,10.44-10.44,10.44H912.02c-5.75,0-10.45-4.7-10.45-10.44V583.31
			c0-5.73,4.7-10.43,10.45-10.43h675.54C1593.3,572.88,1598,577.57,1598,583.31z"/>
		<linearGradient id="SVGID_7_" gradientUnits="userSpaceOnUse" x1="1287.1035" y1="750.1065" x2="1597.999" y2="750.1065">
			<stop  offset="0" style="stop-color:#8647E1"/>
			<stop  offset="1" style="stop-color:#B78FED"/>
		</linearGradient>
		<path class="st9" d="M1598,583.31v333.58c0,5.75-4.7,10.45-10.44,10.45H1287.1V572.87h300.46
			C1593.3,572.87,1598,577.57,1598,583.31z"/>
		<g>
			<g>
				<path class="st4" d="M1440.27,822.35c-5.97,0-11.51-3.16-14.54-8.34l-44.4-75.9c-4.7-8.03-2-18.35,6.04-23.05
					c8.03-4.7,18.35-1.99,23.05,6.04l28.49,48.69l53.64-110.35c4.07-8.37,14.15-11.86,22.52-7.79c8.37,4.07,11.86,14.15,7.79,22.52
					l-67.42,138.71c-2.72,5.59-8.29,9.23-14.51,9.47C1440.7,822.34,1440.49,822.35,1440.27,822.35z"/>
			</g>
			<g>
				<path class="st4" d="M1440.27,861.4c-57.67,0-104.58-46.92-104.58-104.58c0-57.67,46.92-104.58,104.58-104.58
					c57.67,0,104.58,46.92,104.58,104.58C1544.86,814.49,1497.94,861.4,1440.27,861.4z M1440.27,664.49
					c-50.91,0-92.33,41.42-92.33,92.33c0,50.91,41.42,92.33,92.33,92.33c50.91,0,92.33-41.42,92.33-92.33
					C1532.6,705.91,1491.19,664.49,1440.27,664.49z"/>
			</g>
		</g>
		<g>
			<g>
				<linearGradient id="SVGID_8_" gradientUnits="userSpaceOnUse" x1="954.7514" y1="668.1964" x2="1029.6713" y2="668.1964">
					<stop  offset="0" style="stop-color:#5C5E60"/>
					<stop  offset="1" style="stop-color:#9FA1A4"/>
				</linearGradient>
				<path class="st10" d="M992.21,630.74c-20.69,0-37.46,16.77-37.46,37.46c0,20.69,16.77,37.46,37.46,37.46
					c20.69,0,37.46-16.77,37.46-37.46C1029.67,647.51,1012.9,630.74,992.21,630.74z M1018.16,669.39h-25.95
					c-0.66,0-1.2-0.54-1.2-1.2v-27.9c0-0.66,0.54-1.2,1.2-1.2c0.66,0,1.2,0.54,1.2,1.2V667h24.75c0.66,0,1.2,0.54,1.2,1.2
					C1019.35,668.86,1018.82,669.39,1018.16,669.39z"/>
				<g>
					<linearGradient id="SVGID_9_" gradientUnits="userSpaceOnUse" x1="1058.4838" y1="646.6768" x2="1192.5225" y2="646.6768">
						<stop  offset="0" style="stop-color:#5C5E60"/>
						<stop  offset="1" style="stop-color:#9FA1A4"/>
					</linearGradient>
					<path class="st11" d="M1184.95,654.25h-118.89c-4.16,0-7.57-3.41-7.57-7.57l0,0c0-4.16,3.41-7.57,7.57-7.57h118.89
						c4.16,0,7.57,3.41,7.57,7.57l0,0C1192.52,650.84,1189.12,654.25,1184.95,654.25z"/>
					<linearGradient id="SVGID_10_" gradientUnits="userSpaceOnUse" x1="1058.4838" y1="669.3917" x2="1162.2363" y2="669.3917">
						<stop  offset="0" style="stop-color:#5C5E60"/>
						<stop  offset="1" style="stop-color:#9FA1A4"/>
					</linearGradient>
					<path class="st12" d="M1155.57,676.96h-90.43c-3.66,0-6.66-3-6.66-6.66v-1.82c0-3.66,3-6.66,6.66-6.66h90.43
						c3.66,0,6.66,3,6.66,6.66v1.82C1162.24,673.97,1159.24,676.96,1155.57,676.96z"/>
				</g>
			</g>
			<g>
				<linearGradient id="SVGID_11_" gradientUnits="userSpaceOnUse" x1="954.7514" y1="822.5972" x2="1022.1904" y2="822.5972">
					<stop  offset="0" style="stop-color:#5C5E60"/>
					<stop  offset="1" style="stop-color:#9FA1A4"/>
				</linearGradient>
				<path class="st13" d="M988.47,775.73c-18.62,0-33.72,15.1-33.72,33.72c0,18.62,33.72,60.03,33.72,60.03s33.72-41.4,33.72-60.03
					C1022.19,790.82,1007.09,775.73,988.47,775.73z M988.47,824.86c-8.7,0-15.76-7.06-15.76-15.76c0-8.71,7.06-15.76,15.76-15.76
					c8.71,0,15.76,7.06,15.76,15.76C1004.23,817.81,997.18,824.86,988.47,824.86z"/>
				<g>
					<linearGradient id="SVGID_12_" gradientUnits="userSpaceOnUse" x1="1049.4423" y1="792.7344" x2="1183.4803" y2="792.7344">
						<stop  offset="0" style="stop-color:#5C5E60"/>
						<stop  offset="1" style="stop-color:#9FA1A4"/>
					</linearGradient>
					<path class="st14" d="M1175.91,800.31h-118.9c-4.16,0-7.57-3.41-7.57-7.57l0,0c0-4.17,3.41-7.57,7.57-7.57h118.9
						c4.16,0,7.57,3.41,7.57,7.57l0,0C1183.48,796.9,1180.07,800.31,1175.91,800.31z"/>
					<linearGradient id="SVGID_13_" gradientUnits="userSpaceOnUse" x1="1049.4423" y1="815.4493" x2="1153.1943" y2="815.4493">
						<stop  offset="0" style="stop-color:#5C5E60"/>
						<stop  offset="1" style="stop-color:#9FA1A4"/>
					</linearGradient>
					<path class="st15" d="M1146.53,823.02h-90.43c-3.66,0-6.66-3-6.66-6.66v-1.82c0-3.66,3-6.66,6.66-6.66h90.43
						c3.66,0,6.66,3,6.66,6.66v1.82C1153.19,820.02,1150.2,823.02,1146.53,823.02z"/>
				</g>
			</g>
		</g>
	</g>
	<g>
		<g>
			<path class="st0" d="M258.86,773.67c-2.48-60.89-7.81-113.86-14.2-150.8c-10.18-58.88-19.35-92.76-19.46-93.12
				c-1.34-5.18-20.72-26.13-63.8-25.48c-43.08,0.65-39,28.12-39,28.12l0,0c0,0.93,0.12,1.79,0.31,2.44
				c0.42,1.42,39.96,144.82,38.25,329.96c-0.02,2.6-0.32,7.09-0.13,10.09c0,0.01,99.84,2.58,99.87,0
				C264.18,858.7,262.48,813.86,258.86,773.67z"/>
			<path class="st0" d="M271.41,863.89c-0.03,2.58-1.39,4.64-3.05,4.64h-0.04c-1.66-0.04-2.98-2.1-3-4.64h-85.56
				c-0.03,2.58-1.39,4.64-3.05,4.64h-0.04c-1.69-0.04-3.03-2.17-3.01-4.78c0.5-53-2.53-102.49-7.1-146.17
				c-11.37-108.93-32.4-181.73-32.7-182.74c-0.19-0.65-0.31-1.51-0.31-2.44c0,0-4.09-27.48,38.99-28.12
				c43.09-0.65,62.47,20.31,63.81,25.49c0.08,0.27,5.27,19.45,12.17,53.94c2.29,11.42,4.75,24.53,7.29,39.17
				c6.38,36.94,11.72,89.91,14.2,150.8C273.62,813.86,274.89,847.71,271.41,863.89z"/>
			<path class="st0" d="M167.32,868.53h335.46c0,0-7.81-31.61-202.09-26.91C163.21,844.96,167.32,868.53,167.32,868.53z"/>
			<g>
				<path class="st0" d="M140.02,1198.73c38.9-196.9,28.89-317.73,28.84-319.25c-0.1-3.03,5.49-5.79,8.5-5.88
					c3.04-0.05,16.47-0.89,18.02,1.7c2.04,3.4,9.87,152.27-48.1,323.43H140.02z"/>
			</g>
			<g>
				<path class="st0" d="M453.23,1198.73c-38.9-196.9-28.89-317.73-28.84-319.25c0.1-3.03-5.49-5.79-8.5-5.88
					c-3.04-0.05-16.47-0.89-18.02,1.7c-2.04,3.4-9.87,152.27,48.1,323.43H453.23z"/>
			</g>
			<g>
				<path class="st0" d="M515.3,1198.73c-38.89-196.9-28.89-317.73-28.84-319.25c0.1-3.03-5.49-5.79-8.5-5.88
					c-3.04-0.05-16.47-0.89-18.02,1.7c-2.04,3.4-9.87,152.27,48.1,323.43H515.3z"/>
			</g>
			<g>
				<path class="st0" d="M202.51,1198.73c38.9-196.9,28.89-317.73,28.84-319.25c-0.1-3.03,5.49-5.79,8.5-5.88
					c3.04-0.05,16.47-0.89,18.02,1.7c2.04,3.4,9.87,152.27-48.1,323.43H202.51z"/>
			</g>
			<path class="st0" d="M502.98,878.62H167.52c-3.78,0-6.87-3.09-6.87-6.87v-4.52c0-3.78,3.09-6.87,6.87-6.87h335.46
				c3.78,0,6.87,3.09,6.87,6.87v4.52C509.85,875.53,506.76,878.62,502.98,878.62z"/>
			<g>
				<path class="st16" d="M491.2,575.67l111.51-24.15l6.57,16.01c0,0-123.04,73.21-134.57,69.63
					C463.18,633.57,491.2,575.67,491.2,575.67z"/>
				<path class="st17" d="M389.82,1079.99c-2.79,3.2-3.15,6.78-1.77,10.6c0,0.02,0.01,0.04,0.03,0.05
					c2.56,7.06,11,14.95,20.81,22.83c1.25,1.01,2.37,1.93,3.34,2.78c0.26,0.22,0.51,0.45,0.75,0.67c0.2,0.17,0.39,0.35,0.58,0.52
					c9.15,8.43,5.71,10.36,22.14,27.47c18.74,19.5,31.64,19.85,35.31,18.07c3.11-1.51-3.2-11.85-10.19-23.48
					c-0.34-0.56-0.67-1.13-1.02-1.69c-0.93-1.54-1.86-3.11-2.78-4.67c-8.19-13.99-6.09-20.55-4.15-41.37
					c1.58-16.92,26.32-94.5,26.32-94.5l-35.91-6.19c0,0-10.81,61.78-22.73,71.3c-6.37,5.07-13.5,5.13-19.63,8.89
					c-0.43,0.26-0.86,0.53-1.27,0.8C396.16,1074.4,392.62,1076.78,389.82,1079.99z"/>
				<path class="st18" d="M389.82,1079.99c-2.79,3.2-3.15,6.78-1.77,10.6c0,0.02,0.01,0.04,0.03,0.05
					c3.13,7.06,11.36,14.9,20.84,22.76c1.24,1.03,2.33,1.97,3.31,2.86c0.26,0.22,0.51,0.45,0.75,0.67c0.2,0.17,0.39,0.35,0.58,0.52
					c9.15,8.43,5.71,10.36,22.14,27.47c18.74,19.5,31.64,19.85,35.31,18.07c3.11-1.51-3.2-11.85-10.19-23.48
					c-3.65-1.34-20.59-8.22-33.4-24.61c-11.28-14.4-18.81-32.9-26.49-43.61c-0.43,0.26-0.86,0.53-1.27,0.8
					C396.16,1074.4,392.62,1076.78,389.82,1079.99z"/>
				<path class="st17" d="M679.37,1057.56c2.22,11.08,18.02,9.24,35.67,4.92c17.65-4.31,13.46,0.81,38.58-1.97
					c25.12-2.78,32.73-12.15,33.5-15.88c0.69-3.31-11.73-4.48-25.04-6.02c-1.67-0.19-3.36-0.39-5.04-0.6
					c-15.03-1.89-26.04-11.59-39.7-19.55c-12.93-7.55-32.24-38.29-32.24-38.29l-34.45,2.73c0,0,18.08,27.46,25.07,39.4
					c4.11,7.02,3.89,16.31,3.38,23.48C678.84,1049.67,678.58,1053.66,679.37,1057.56z"/>
				<path class="st18" d="M715.04,1062.48c17.65-4.31,13.46,0.81,38.58-1.97c25.12-2.78,32.73-12.15,33.5-15.88
					c0.69-3.31-11.73-4.48-25.04-6.02l-0.12,0.26c0,0-15.07,10.68-35.98,11.18c-17.04,0.41-35.1-4.47-46.87-4.28
					c-0.27,3.9-0.52,7.88,0.27,11.79C681.59,1068.64,697.38,1066.79,715.04,1062.48z"/>
				<path class="st16" d="M602.71,551.52c0,0,8.21-20.11,17.24-20.93c9.03-0.82,37.76-5.34,39.81-1.23c2.05,4.1,0,18.88-6.16,24.22
					c-6.16,5.34-44.33,13.96-44.33,13.96L602.71,551.52z"/>
				<linearGradient id="SVGID_14_" gradientUnits="userSpaceOnUse" x1="515.858" y1="803.3914" x2="409.32" y2="1113.1406">
					<stop  offset="0" style="stop-color:#5C5E60"/>
					<stop  offset="1" style="stop-color:#9FA1A4"/>
				</linearGradient>
				<path class="st19" d="M547.33,837.25l-74.25,199.83c0,0-11.41,1.1-22.34-2.05c-10.06-2.9-21.6-10.52-21.6-10.52
					s18.42-191.87,52.19-231.78C515.1,752.83,547.33,837.25,547.33,837.25z"/>
				<linearGradient id="SVGID_15_" gradientUnits="userSpaceOnUse" x1="212.5444" y1="853.5801" x2="705.0434" y2="853.5801">
					<stop  offset="0" style="stop-color:#5C5E60"/>
					<stop  offset="1" style="stop-color:#9FA1A4"/>
				</linearGradient>
				<path class="st20" d="M253.64,756.41c0,0,213.36-72.14,260.95-56.79c47.58,15.35,190.46,299.6,190.46,299.6
					s-3.22,4.29-12.02,7.59c-8.19,3.07-28,2.87-28,2.87S536.08,899.16,520.73,866.93c-15.35-32.24-21.49-62.93-36.84-59.87
					c-15.35,3.07-198.01,75.21-239.46,32.24c-41.44-42.98-30.61-98.82-30.61-98.82L253.64,756.41z"/>
				<path class="st21" d="M375.28,247.69c-9.22-5.24-20.27-5.81-28.01-5.36c1.99-2.05,5.91-2.8,5.91-2.8
					c-4.79-0.71-15.49,4.04-15.49,4.04c-66.68-25.69-77.16,72.49-75.76,95.3c1.39,22.81,1.56,49.06-31.73,69.52
					c-65.5,40.25-10.23,110.52-10.23,110.52c0.52,0.3,30.47,51.12,30.47,51.12c-1.68-18.43,83.37-115.71,127.74-144.84
					c10.8-15.9,14.64-44,14.93-46.21c-1.86,22.27-5.68,34.77-9.08,41.8C421.6,386.2,399.72,261.58,375.28,247.69z"/>
				<path class="st17" d="M375.55,426.64c0.22,0.1-21.42,11.34-37.71,6.89c-15.32-4.18-25.32-24.03-25.11-24.08
					c6.49-1.29,8.36-10.2,8.22-48.5l2.93,0.58l49.3,9.76c0,0-1.12,15.52-1.16,30.13C372,413.69,372.74,425.33,375.55,426.64z"/>
				<path class="st17" d="M373.19,371.28c0,0-1.12,15.52-1.16,30.13c-27.59-0.78-42.17-25.95-48.15-39.89L373.19,371.28z"/>
				<path class="st21" d="M318.79,356.15c0,0-14.46-22.84-17.93-42.38c-2.48-13.95,4.63-65.64,56.57-58.19
					c0,0,15.09,1.49,29.27,11.07c11.28,7.62,27.56,24.06,9.36,69.17l-4.73,15.24L318.79,356.15z"/>
				<path class="st17" d="M382.4,385.12c0,0-65.28,1.08-65.32-39.58c-0.05-40.66-8.5-67.91,33.17-70.31
					c41.67-2.41,49.79,13.1,53.11,26.67C406.67,315.46,399.38,383.8,382.4,385.12z"/>
				<path class="st21" d="M379.98,274.23c0,0-17.87,47.7-45.3,54.76c-27.43,7.05-39.33-0.3-39.33-0.3s21.04-16.71,25.4-45.89
					C320.76,282.8,366.5,251.53,379.98,274.23z"/>
				<path class="st21" d="M375.55,278.11c0,0,13.35,10.65,16.6,21c3.25,10.35,4.72,31.67,10.93,30.94c0,0,13.46-32.42-1.67-50.76
					C385.37,259.84,375.55,278.11,375.55,278.11z"/>
				<linearGradient id="SVGID_16_" gradientUnits="userSpaceOnUse" x1="358.6223" y1="461.3317" x2="348.7577" y2="869.7272">
					<stop  offset="0" style="stop-color:#8647E1"/>
					<stop  offset="1" style="stop-color:#B78FED"/>
				</linearGradient>
				<path class="st22" d="M230.2,602.25c-6.44-27,15.46-79.38,38.33-122.75c20.74-39.31,42.28-71.2,44.21-70.05
					c54.71,32.47,59.65,5.48,59.65,5.48l0,0c0.02,0,49.7,6.6,63.77,30.82c17.45,30.05,36.31,114.03,55.04,129.93
					c-2.88,8.8-1.64,13.49,1.41,24.4c0.65,2.34,1.37,4.56,2.17,6.67c2.82,7.67,6.35,13.9,9.4,19.31
					c-9.52,5.79-27.91,16.79-41.45,8.88c-20.65-12.09-36.76-48.88-45.83-63.53c-0.03-0.06-0.07-0.11-0.1-0.17
					c-19.71,111.57,7.09,136.98-6.48,148.74c-14.33,12.42-34.79-5.92-79.82,13.6c-29.53,12.81-70.52,31.34-98.11,34.56
					c-14.47,1.7-25.27-0.82-28.79-10.59C193.36,729.14,242.48,653.72,230.2,602.25z"/>
				<linearGradient id="SVGID_17_" gradientUnits="userSpaceOnUse" x1="274.0849" y1="459.2897" x2="264.2202" y2="867.6852">
					<stop  offset="0" style="stop-color:#8647E1"/>
					<stop  offset="1" style="stop-color:#B78FED"/>
				</linearGradient>
				<path class="st23" d="M203.59,757.54c3.52,9.77,14.32,12.29,28.79,10.59c19.1-8.32,101.59-40.28,100.67-61.93
					c-1.37-32.06-15.86-33.09-5.63-72.66c8.22-31.78-68.01-90.86-80.16-103.7c-22.86,43.37-23.49,45.42-17.06,72.42
					C242.48,653.72,193.36,729.14,203.59,757.54z"/>
				<linearGradient id="SVGID_18_" gradientUnits="userSpaceOnUse" x1="251.3869" y1="458.7415" x2="241.5223" y2="867.1369">
					<stop  offset="0" style="stop-color:#8647E1"/>
					<stop  offset="1" style="stop-color:#B78FED"/>
				</linearGradient>
				<path class="st24" d="M194.26,641.9c14.63-20.54,29.87-31.41,39.9-36.87c-2.31-5.95,61.54-84.22,61.54-96.34
					c0-12.28,17.03-99.24,17.03-99.24s-53.2,3.28-71.61,28.97C218.08,470.54,170.24,594.17,194.26,641.9z"/>
				<path class="st17" d="M234.16,605.03l106.3,27.74l-9.98,17.91c0,0-129.37-0.9-136.22-8.78S234.16,605.03,234.16,605.03z"/>
				<path class="st17" d="M340.47,632.77c0,0,33.38-9.45,41.33-7.24c7.95,2.21,35.2,20.25,31.37,25.15
					c-3.83,4.9-27.83-2.93-38.88-1.45c-11.04,1.48-19.58,6.93-27.54,5.75c-7.95-1.18-16.27-4.3-16.27-4.3L340.47,632.77z"/>
				<path class="st17" d="M340.47,632.77c0,0,16.33-8.39,20.98-13.17c0.59-0.6,1.58-0.48,2.03,0.23c1.25,1.96,2.41,5.75-3.32,9.52
					C351.91,634.78,340.47,632.77,340.47,632.77z"/>
			</g>
		</g>
		<g>
			<linearGradient id="SVGID_19_" gradientUnits="userSpaceOnUse" x1="338.9931" y1="673.5264" x2="494.7407" y2="673.5264">
				<stop  offset="0" style="stop-color:#5C5E60"/>
				<stop  offset="1" style="stop-color:#9FA1A4"/>
			</linearGradient>
			<path class="st25" d="M494.74,679.73H338.99l0,0c0-6.86,5.56-12.41,12.42-12.41h143.33V679.73z"/>
			<linearGradient id="SVGID_20_" gradientUnits="userSpaceOnUse" x1="434.9741" y1="594.9224" x2="735.0898" y2="594.9224">
				<stop  offset="0" style="stop-color:#5C5E60"/>
				<stop  offset="1" style="stop-color:#9FA1A4"/>
			</linearGradient>
			<polygon class="st26" points="494.29,510.11 735.09,510.11 677.33,679.73 434.97,679.73 			"/>
			<linearGradient id="SVGID_21_" gradientUnits="userSpaceOnUse" x1="438.5224" y1="594.92" x2="738.6401" y2="594.92">
				<stop  offset="0" style="stop-color:#5C5E60"/>
				<stop  offset="1" style="stop-color:#9FA1A4"/>
			</linearGradient>
			<polygon class="st27" points="738.64,510.11 680.87,679.73 438.52,679.73 497.84,510.11 			"/>
			<path class="st4" d="M608.81,593.35c-1.5,6.48-7.96,11.74-14.44,11.74s-10.52-5.25-9.03-11.74c1.5-6.48,7.96-11.73,14.44-11.73
				C606.27,581.62,610.31,586.87,608.81,593.35z"/>
			<linearGradient id="SVGID_22_" gradientUnits="userSpaceOnUse" x1="520.3754" y1="594.92" x2="738.6401" y2="594.92">
				<stop  offset="0" style="stop-color:#5C5E60"/>
				<stop  offset="1" style="stop-color:#9FA1A4"/>
			</linearGradient>
			<path class="st28" d="M738.64,510.11l-57.77,169.62h-160.5c106.32-36.29,134.62-146.93,139.37-169.62H738.64z"/>
		</g>
	</g>
	<g>
		<g>
			<path class="st0" d="M39.57,1198.73c3.05,0,5.65-2.14,6.17-5.06l30.24-171.42l43.5-246.54l12.16-68.94l-30.98-0.88l-5.38,40.02
				l-37.75,281.24l-22.38,166.71C34.82,1196.44,36.89,1198.73,39.57,1198.73z"/>
		</g>
		<path class="st0" d="M95.29,745.9c20.07,8.86,24.2,29.8,24.2,29.8l12.16-68.94l-30.98-0.88L95.29,745.9z"/>
	</g>
	<g>
		<g>
			<path class="st0" d="M810.25,1198.73c-3.05,0-5.65-2.14-6.17-5.06l-30.24-171.42l-43.5-246.54l-12.16-68.94l30.98-0.88
				l5.38,40.02l37.75,281.24l22.38,166.71C814.99,1196.44,812.93,1198.73,810.25,1198.73z"/>
		</g>
		<path class="st0" d="M754.53,745.9c-20.07,8.86-24.2,29.8-24.2,29.8l-12.16-68.94l30.98-0.88L754.53,745.9z"/>
	</g>
	<path class="st0" d="M18.9,733.83h793.46c10.39,0,18.9-8.5,18.9-18.9V698.6c0-10.39-8.5-18.9-18.9-18.9H18.9
		C8.5,679.7,0,688.2,0,698.6v16.34C0,725.33,8.5,733.83,18.9,733.83z"/>
	<g>
		<path class="st17" d="M1865.06,315.36c0,0-11.08-35.74-17.37-39.58c-6.29-3.84-32.52-16.77-34.08-13.28
			c-1.56,3.49,14.16,20.47,17.66,26.13c3.49,5.66,5.24,11.25,2.79,8.81c-2.45-2.45-15.72-10.63-17.12-8.81
			c-1.4,1.82,6.64,8.81,10.48,14.4c3.84,5.59,8.04,15.02,21.66,17.12C1862.72,322.25,1865.06,315.36,1865.06,315.36z"/>
		<path class="st17" d="M2268.84,616.26c0,0-3.32,32.28-6.96,38.39c-3.64,6.11-19.16,25.62-25.76,29.45
			c-6.61,3.83,4.04-25.71,2.69-31.46c-1.35-5.75-5.44,10.49-8.35,10.87c-2.91,0.38-2.16-14.23-2.27-19.55
			c-0.11-5.32,14.17-18.45,19.2-29.77C2252.42,602.86,2268.84,616.26,2268.84,616.26z"/>
		<linearGradient id="SVGID_23_" gradientUnits="userSpaceOnUse" x1="1842.2031" y1="370.4472" x2="2167.6152" y2="370.4472">
			<stop  offset="0" style="stop-color:#DCDFFB"/>
			<stop  offset="1" style="stop-color:#F3F3FA"/>
		</linearGradient>
		<path class="st29" d="M2167.62,285.05c0,0-26.84,131.74-174.55,174.79c-46.11,13.44-150.86-138.37-150.86-138.37
			s3.68-13.99,26.75-10.78c0,0,101.99,67.52,114.84,74.86c11.39,6.51,86.32-83.67,120.48-98.22
			C2138.43,272.79,2167.62,285.05,2167.62,285.05z"/>
		<g>
			<path class="st18" d="M2343.96,1113.22c0,0,18.33,16.72,14.75,28.6c-3.58,11.88-20.11,19.8-22.35,34.33
				c-2.23,14.52-11.17,22.44-19.22,22.44s-38.35,0-38.35,0s-5.92-10.22,8.38-13.3c14.3-3.08,19.69-20.15,18.8-35.99
				c-0.89-15.84,1.34-36.97,1.34-36.97l30.39-7.04L2343.96,1113.22z"/>
			<path class="st18" d="M2119.15,1156.48c0,0,3.29,38.06-4.76,42.02l-102.96-0.21c0,0,0-11.88,16.54-14.52
				c16.54-2.64,45.59-12.32,50.5-33.89C2083.4,1128.31,2119.15,1156.48,2119.15,1156.48z"/>
			<linearGradient id="SVGID_24_" gradientUnits="userSpaceOnUse" x1="2032.2314" y1="884.6657" x2="2183.957" y2="884.6657">
				<stop  offset="0" style="stop-color:#5C5E60"/>
				<stop  offset="1" style="stop-color:#9FA1A4"/>
			</linearGradient>
			<path class="st30" d="M2032.23,618.88c0,0,5.43,66.71,11.81,146.9c8.67,108.93,19.11,242.74,20.14,268.08
				c1.78,44.02,8.94,114.42,8.94,114.42s16.97,16.73,50.95,9.68c0,0,30.28-100.51,38.92-206.85c0.13-1.74,0.27-3.5,0.4-5.25
				c8.04-108.26,20.55-336.22,20.55-336.22L2032.23,618.88z"/>
			<linearGradient id="SVGID_25_" gradientUnits="userSpaceOnUse" x1="2032.2314" y1="780.3726" x2="2183.957" y2="780.3726">
				<stop  offset="0" style="stop-color:#5C5E60"/>
				<stop  offset="1" style="stop-color:#9FA1A4"/>
			</linearGradient>
			<path class="st31" d="M2032.23,618.88c0,0,5.43,66.71,11.81,146.9L2163,951.11c0.13-1.74,0.27-3.5,0.4-5.25
				c8.04-108.26,20.55-336.22,20.55-336.22L2032.23,618.88z"/>
			<linearGradient id="SVGID_26_" gradientUnits="userSpaceOnUse" x1="2197.2407" y1="746.4405" x2="2404.3977" y2="1190.3486">
				<stop  offset="0" style="stop-color:#5C5E60"/>
				<stop  offset="1" style="stop-color:#9FA1A4"/>
			</linearGradient>
			<path class="st32" d="M2057.03,626.8c0,0,97.88,241.6,162.24,355.14c64.36,113.54,84.47,145.22,84.47,145.22
				s36.87-14.52,40.22-24.42c0,0-24.61-219.19-67.71-272.63c-24.35-30.19-52.96-120.8-54.3-152.49s-8.71-94.4-8.71-94.4
				L2057.03,626.8z"/>
		</g>
		<path class="st17" d="M2185.81,254.47c0,0-66.23,31.95-104.41,20.1c0,0,9.4-11.86,25.84-20.68c-1.32-7.66-2.35-14.31-2.94-19.95
			c-1.62-13.01-1.62-20.39-1.62-20.39l25.55-20.1l24.23-19.23C2150.57,228.3,2185.81,254.47,2185.81,254.47z"/>
		<linearGradient id="SVGID_27_" gradientUnits="userSpaceOnUse" x1="2123.7188" y1="329.8456" x2="2123.7188" y2="862.7692">
			<stop  offset="0" style="stop-color:#DCDFFB"/>
			<stop  offset="1" style="stop-color:#F3F3FA"/>
		</linearGradient>
		<path class="st33" d="M2220.71,595.6c0.15,4.06-8.51,8.68-12.34,10.41c-28.33,12.44-54.77,21.11-84.73,24
			c-35.39,3.62-77.24-4.34-91.63-4.05c-1.47,0-2.79-0.58-3.96-1.59c-1.03-0.72-1.76-43.37-1.03-97.02c0-2.16,0-4.33,0.15-6.5v-0.72
			c0.29-20.96,1.03-42.94,2.05-64.93c2.05-48.29,5.88-94.85,12.34-120.58c7.78-30.37,25.41-50.46,41.41-65.07l13.21-11.56
			c13.22,2.6,27.17,1.88,41.12-4.92c15.27-7.37,31.72-15.32,34.36-13.3c19.97,14.6,33.48,47.42,40.68,89.36
			c0.03,0.21,0.07,0.41,0.1,0.62c4.04,23.98,6.06,50.81,5.91,78.9c0,10.42-0.29,21.11-0.88,31.67
			c-2.95,47.82-0.98,90.39,0.95,119.88c0.38,5.83,0.77,11.14,1.1,15.89C2220.12,584.47,2220.56,590.98,2220.71,595.6z"/>
		<linearGradient id="SVGID_28_" gradientUnits="userSpaceOnUse" x1="2187.1558" y1="329.7505" x2="2187.1558" y2="862.674">
			<stop  offset="0" style="stop-color:#DCDFFB"/>
			<stop  offset="1" style="stop-color:#F3F3FA"/>
		</linearGradient>
		<path class="st34" d="M2218.43,560.19c-109.78-126.75-41.68-218.86-41.68-218.86l35.69-11.58c4.04,23.98,6.06,50.81,5.91,78.9
			c0,10.42-0.29,21.11-0.88,31.67C2214.54,488.13,2216.5,530.7,2218.43,560.19z"/>
		<path class="st17" d="M2152.92,194.9c0,0-16.74,30.51-48.6,39.04c-1.62-13.01-1.62-20.39-1.62-20.39l25.55-20.1L2152.92,194.9z"/>
		<path class="st17" d="M2091.05,212.67c0,0,63.18,10.33,69.11-28.5c5.93-38.84,18.08-63.66-22.01-71.9
			c-40.09-8.24-50.2,5.42-55.39,17.91C2077.58,142.66,2074.77,208.98,2091.05,212.67z"/>
		<path class="st21" d="M2183.12,107.61c0.58-0.66,1.9-1.19,4.84-1.35c0,0-2.35-1.47-5.5-1.55c-0.62-4.09-2.79-11.34-9.84-13.1
			c0,0,3.79,2.02,4.28,6.37c-8.16-8.38-25.64-14.48-74.06-10.66c-63.81,5.04-42.78,45.89-34.52,50.76
			c8.26,4.87,29.06-8.48,44.45-7.26c15.39,1.22,18.32,23.46,23.54,26.51c5.22,3.05,3.17-2.34,10.23-5.54
			c7.06-3.19,7.74,8.51,5.7,16.12c-2.04,7.61,7.67,17.65,7.67,17.65s0,0,9.81-10.56c9.81-10.56,19.05-55.31,14.59-64.85
			C2183.91,109.33,2183.52,108.47,2183.12,107.61z"/>
		<linearGradient id="SVGID_29_" gradientUnits="userSpaceOnUse" x1="2218.4954" y1="329.8456" x2="2218.4954" y2="862.7692">
			<stop  offset="0" style="stop-color:#DCDFFB"/>
			<stop  offset="1" style="stop-color:#F3F3FA"/>
		</linearGradient>
		<path class="st35" d="M2171.64,239.45c0,0,39.97,18.93,59.14,48.03c29.73,45.14,64.19,209.64,64.83,224.88
			s-25.15,122.78-25.15,122.78s-26.16-1.72-32.9-14.92c0,0,5.23-110.5,1.91-117.61c-3.31-7.1-109.04-148.23-97.15-178.34
			C2154.2,294.15,2171.64,239.45,2171.64,239.45z"/>
	</g>
	<path class="st4" d="M1840.12,486.79h-157.66c-13.72,0-24.94-11.22-24.94-24.94v-7.04c0-13.72,11.22-24.94,24.94-24.94h157.66
		c13.72,0,24.94,11.22,24.94,24.94v7.04C1865.06,475.57,1853.84,486.79,1840.12,486.79z"/>
	<g>
		<g>
			<linearGradient id="SVGID_30_" gradientUnits="userSpaceOnUse" x1="1749.524" y1="454.6862" x2="1776.6776" y2="454.6862">
				<stop  offset="0" style="stop-color:#8647E1"/>
				<stop  offset="1" style="stop-color:#B78FED"/>
			</linearGradient>
			<path class="st36" d="M1760.95,470.77c-1.11,0-2.15-0.59-2.71-1.56l-8.28-14.16c-0.88-1.5-0.37-3.42,1.13-4.3
				c1.5-0.88,3.42-0.37,4.3,1.13l5.32,9.09l10.01-20.59c0.76-1.56,2.64-2.21,4.2-1.45c1.56,0.76,2.21,2.64,1.45,4.2L1763.78,469
				c-0.51,1.04-1.55,1.72-2.71,1.77C1761.03,470.77,1760.99,470.77,1760.95,470.77z"/>
		</g>
		<g>
			<linearGradient id="SVGID_31_" gradientUnits="userSpaceOnUse" x1="1741.4395" y1="458.5443" x2="1780.4668" y2="458.5443">
				<stop  offset="0" style="stop-color:#8647E1"/>
				<stop  offset="1" style="stop-color:#B78FED"/>
			</linearGradient>
			<path class="st37" d="M1760.95,478.06c-10.76,0-19.51-8.75-19.51-19.51c0-10.76,8.75-19.51,19.51-19.51
				c10.76,0,19.51,8.75,19.51,19.51C1780.47,469.3,1771.71,478.06,1760.95,478.06z M1760.95,441.32c-9.5,0-17.23,7.73-17.23,17.23
				c0,9.5,7.73,17.23,17.23,17.23c9.5,0,17.23-7.73,17.23-17.23C1778.18,449.05,1770.45,441.32,1760.95,441.32z"/>
		</g>
	</g>
	<g>
		<path class="st0" d="M871.38,282.35H702.91c-22.13,0-40.24,18.11-40.24,40.24v63.74c0,10.11,3.79,19.38,10.01,26.47l-10.01,45.75
			l57.72-31.98h151c22.13,0,40.24-18.11,40.24-40.24v-63.74C911.62,300.46,893.51,282.35,871.38,282.35z"/>
		<path class="st4" d="M874.55,330.91H699.89c-3.6,0-6.54-2.94-6.54-6.54l0,0c0-3.6,2.94-6.54,6.54-6.54h174.66
			c3.6,0,6.54,2.94,6.54,6.54l0,0C881.09,327.96,878.15,330.91,874.55,330.91z"/>
		<path class="st4" d="M874.55,359.51H699.89c-3.6,0-6.54-2.94-6.54-6.54l0,0c0-3.6,2.94-6.54,6.54-6.54h174.66
			c3.6,0,6.54,2.94,6.54,6.54l0,0C881.09,356.57,878.15,359.51,874.55,359.51z"/>
		<path class="st4" d="M874.55,387.05H699.89c-3.6,0-6.54-2.94-6.54-6.54l0,0c0-3.59,2.94-6.54,6.54-6.54h174.66
			c3.6,0,6.54,2.94,6.54,6.54l0,0C881.09,384.1,878.15,387.05,874.55,387.05z"/>
	</g>
</g>
</svg>
