<?xml version="1.0" encoding="utf-8"?>
<!-- Generator: Adobe Illustrator 25.2.1, SVG Export Plug-In . SVG Version: 6.00 Build 0)  -->
<svg version="1.1" id="Ñëîé_1" xmlns="http://www.w3.org/2000/svg" width="300" xmlns:xlink="http://www.w3.org/1999/xlink" x="0px" y="0px"
	 viewBox="0 0 314.33 296.64" style="enable-background:new 0 0 314.33 296.64;" xml:space="preserve">
<style type="text/css">
	.st0{fill:#F0F1FE;}
	.st1{fill:url(#SVGID_1_);}
	.st2{fill:url(#SVGID_2_);}
	.st3{fill:url(#SVGID_3_);}
	.st4{fill:url(#SVGID_4_);}
	.st5{fill:url(#SVGID_5_);}
	.st6{fill:url(#SVGID_6_);}
	.st7{fill:url(#SVGID_7_);}
	.st8{fill:#D1D4FC;}
	.st9{fill:#B4BAEF;}
	.st10{fill:url(#SVGID_8_);}
	.st11{fill:url(#SVGID_9_);}
	.st12{fill:url(#SVGID_10_);}
	.st13{fill:url(#SVGID_11_);}
	.st14{fill:url(#SVGID_12_);}
	.st15{fill:url(#SVGID_13_);}
	.st16{fill:#5793CE;}
	.st17{fill:url(#SVGID_14_);}
	.st18{opacity:0.3;fill:url(#SVGID_15_);}
	.st19{opacity:0.5;fill:#FFFFFF;}
	.st20{fill:url(#SVGID_16_);}
	.st21{fill:url(#SVGID_17_);}
	.st22{fill:url(#SVGID_18_);}
	.st23{opacity:0.3;fill:url(#SVGID_19_);}
	.st24{fill:url(#SVGID_20_);}
	.st25{fill:url(#SVGID_21_);}
	.st26{fill:url(#SVGID_22_);}
	.st27{fill:#FFFFFF;}
	.st28{fill:url(#SVGID_23_);}
	.st29{fill:url(#SVGID_24_);}
	.st30{fill:url(#SVGID_25_);}
	.st31{fill:url(#SVGID_26_);}
	.st32{fill:#D4ECFF;}
	.st33{fill:url(#SVGID_27_);}
	.st34{fill:url(#SVGID_28_);}
	.st35{fill:url(#SVGID_29_);}
	.st36{fill:url(#SVGID_30_);}
	.st37{fill:url(#SVGID_31_);}
	.st38{fill:url(#SVGID_32_);}
	.st39{fill:url(#SVGID_33_);}
	.st40{fill:#EEF0FF;}
	.st41{fill:#FFD6D6;}
	.st42{fill:#814D4D;}
	.st43{fill:url(#SVGID_34_);}
	.st44{fill:#450606;}
	.st45{fill:url(#SVGID_35_);}
	.st46{fill:url(#SVGID_36_);}
</style>
<g>
	<g>
		<path class="st0" d="M79.92,158.21c-9.8-5.66-25.69-5.66-35.49,0c-9.8,5.66-9.8,14.83,0,20.49c9.8,5.66,25.69,5.66,35.49,0
			C89.72,173.04,89.72,163.87,79.92,158.21z M70.33,173.16c-4.5,2.6-11.81,2.6-16.31,0c-4.5-2.6-4.5-6.82,0-9.42
			c4.5-2.6,11.81-2.6,16.31,0C74.84,166.35,74.84,170.56,70.33,173.16z"/>
		<g>
			<g>
				<linearGradient id="SVGID_1_" gradientUnits="userSpaceOnUse" x1="73.4419" y1="146.7929" x2="53.1441" y2="148.3249">
					<stop  offset="0" style="stop-color:#8647E1"/>
					<stop  offset="1" style="stop-color:#B78FED"/>
				</linearGradient>
				<path class="st1" d="M40.73,154.86l8.95,0.14c0.66-0.86,1.6-1.67,2.83-2.38c4.92-2.84,12.66-3.06,18.03-0.66l5.32-5l8.19,0.13
					c-0.4-0.26-0.82-0.53-1.26-0.78c-11.38-6.57-29.84-6.57-41.22,0c-2.09,1.21-3.8,2.56-5.12,3.99L40.73,154.86z"/>
				<linearGradient id="SVGID_2_" gradientUnits="userSpaceOnUse" x1="75.855" y1="140.5198" x2="84.0453" y2="140.5198">
					<stop  offset="0" style="stop-color:#8647E1"/>
					<stop  offset="1" style="stop-color:#B78FED"/>
				</linearGradient>
				<polygon class="st2" points="84.05,134.08 84.05,147.08 75.85,146.96 75.85,133.96 				"/>
				<linearGradient id="SVGID_3_" gradientUnits="userSpaceOnUse" x1="77.1111" y1="141.7113" x2="63.0686" y2="146.1794">
					<stop  offset="0" style="stop-color:#8647E1"/>
					<stop  offset="1" style="stop-color:#B78FED"/>
				</linearGradient>
				<polygon class="st3" points="70.54,138.96 70.54,151.96 75.85,146.96 75.85,133.96 				"/>
				<linearGradient id="SVGID_4_" gradientUnits="userSpaceOnUse" x1="73.2045" y1="143.6474" x2="52.9067" y2="145.1793">
					<stop  offset="0" style="stop-color:#8647E1"/>
					<stop  offset="1" style="stop-color:#B78FED"/>
				</linearGradient>
				<path class="st4" d="M49.68,142v13l11.78-9.6l9.08,6.56v-13l-8.36-4.05c0,0-11.51,3.52-12.1,3.67
					C49.48,138.73,49.68,142,49.68,142z"/>
				<linearGradient id="SVGID_5_" gradientUnits="userSpaceOnUse" x1="34.2951" y1="148.8911" x2="49.3589" y2="148.2527">
					<stop  offset="0" style="stop-color:#8647E1"/>
					<stop  offset="1" style="stop-color:#B78FED"/>
				</linearGradient>
				<polygon class="st5" points="40.73,141.86 40.73,154.86 49.68,155 49.68,142 				"/>
				<linearGradient id="SVGID_6_" gradientUnits="userSpaceOnUse" x1="36.4471" y1="146.0765" x2="40.7319" y2="146.0765">
					<stop  offset="0" style="stop-color:#8647E1"/>
					<stop  offset="1" style="stop-color:#B78FED"/>
				</linearGradient>
				<polygon class="st6" points="36.45,137.29 36.45,150.29 40.73,154.86 40.73,141.86 				"/>
				<linearGradient id="SVGID_7_" gradientUnits="userSpaceOnUse" x1="49.9085" y1="135.7623" x2="75.1851" y2="132.4432">
					<stop  offset="0" style="stop-color:#8647E1"/>
					<stop  offset="1" style="stop-color:#B78FED"/>
				</linearGradient>
				<path class="st7" d="M40.73,141.86l8.95,0.14c0.66-0.86,1.6-1.67,2.83-2.38c4.92-2.84,12.66-3.06,18.03-0.66l5.32-5l8.19,0.13
					c-0.4-0.26-0.82-0.53-1.26-0.78c-11.38-6.57-29.84-6.57-41.22,0c-2.09,1.21-3.8,2.56-5.12,3.99L40.73,141.86z"/>
			</g>
			<g>
				<path class="st8" d="M73.23,140.56v11.95l7.75-1.86c0,0-0.45-6.99-0.62-7.18C80.2,143.29,73.23,140.56,73.23,140.56z"/>
				<g>
					<path class="st9" d="M67.37,152.51v13l0.84,0.89l5.46-3.15c0,0-0.85-9.92-0.95-10.12C72.62,152.93,67.37,152.51,67.37,152.51z"
						/>
					<path class="st8" d="M77.92,149.15l-4.68,4.41c3.9,3.09,3.44,7.44-1.39,10.23c-1.32,0.76-2.85,1.34-4.48,1.72l4.84,5.16
						l-4.29,4.03c5.45-0.63,10.64-2.16,14.87-4.6c9.78-5.65,11.15-14.31,4.11-20.81L77.92,149.15z"/>
					<polygon class="st8" points="67.92,161.7 67.92,174.7 78.54,170.6 91.32,158.41 91.27,144.61 77.75,155.32 					"/>
					<path class="st0" d="M77.92,136.15l-4.68,4.41c3.9,3.09,3.44,7.44-1.39,10.23c-1.32,0.76-2.85,1.34-4.48,1.72l4.84,5.16
						l-4.29,4.03c5.45-0.63,10.64-2.16,14.87-4.6c9.78-5.65,11.15-14.31,4.11-20.81L77.92,136.15z"/>
				</g>
			</g>
			<g>
				<linearGradient id="SVGID_8_" gradientUnits="userSpaceOnUse" x1="37.1282" y1="155.8899" x2="51.1708" y2="167.1239">
					<stop  offset="0" style="stop-color:#5C5E60"/>
					<stop  offset="1" style="stop-color:#9FA1A4"/>
				</linearGradient>
				<path class="st10" d="M67.89,170.6l-4.27-4.55c-3.96,0.24-8.07-0.51-11.11-2.27c-3.14-1.81-4.43-4.28-3.88-6.64l-10.16-0.16
					l-3.91-4.16c-3.42,5.87-1.09,12.6,7.01,17.28c5.95,3.43,13.83,5.07,21.62,4.91L67.89,170.6z"/>
				<linearGradient id="SVGID_9_" gradientUnits="userSpaceOnUse" x1="39.3308" y1="153.1366" x2="53.3734" y2="164.3707">
					<stop  offset="0" style="stop-color:#5C5E60"/>
					<stop  offset="1" style="stop-color:#9FA1A4"/>
				</linearGradient>
				<polygon class="st11" points="63.19,162.02 63.19,175.02 33.04,158.31 33.04,145.3 37.44,147.08 				"/>
				<linearGradient id="SVGID_10_" gradientUnits="userSpaceOnUse" x1="63.1874" y1="166.307" x2="67.8853" y2="166.307">
					<stop  offset="0" style="stop-color:#5C5E60"/>
					<stop  offset="1" style="stop-color:#9FA1A4"/>
				</linearGradient>
				<polygon class="st12" points="67.89,157.6 67.89,170.6 63.19,175.02 63.19,162.02 				"/>
				<linearGradient id="SVGID_11_" gradientUnits="userSpaceOnUse" x1="71.8506" y1="158.42" x2="43.5102" y2="150.5051">
					<stop  offset="0" style="stop-color:#5C5E60"/>
					<stop  offset="1" style="stop-color:#9FA1A4"/>
				</linearGradient>
				<path class="st13" d="M67.89,157.6l-4.27-4.55c-3.96,0.24-8.07-0.51-11.11-2.27c-3.14-1.81-4.43-4.28-3.88-6.64l-10.16-0.16
					l-3.91-4.16c-3.42,5.87-1.09,12.6,7.01,17.28c5.95,3.43,13.83,5.07,21.62,4.91L67.89,157.6z"/>
			</g>
		</g>
	</g>
	<g>
		<g>
			<path class="st0" d="M185.66,258.03l-45.85-26.47c-2.81-1.62-2.46-4.46,0.79-6.34l44.27-25.56c3.25-1.88,8.16-2.08,10.98-0.46
				l45.85,26.47c2.81,1.62,2.46,4.46-0.79,6.34l-44.27,25.56C193.39,259.45,188.48,259.65,185.66,258.03z"/>
			<g>
				<linearGradient id="SVGID_12_" gradientUnits="userSpaceOnUse" x1="124.5962" y1="209.825" x2="256.916" y2="209.825">
					<stop  offset="0" style="stop-color:#8647E1"/>
					<stop  offset="1" style="stop-color:#B78FED"/>
				</linearGradient>
				<path class="st14" d="M256.91,205.51L256.91,205.51v-19.81l-44.42-0.02l-15.35-8.86c-3.52-2.03-9.68-1.78-13.75,0.57
					l-14.32,8.27l-44.46-0.02V206c-0.1,1.38,0.67,2.71,2.36,3.68l57.41,33.15c3.52,2.03,9.68,1.78,13.75-0.57l55.43-32.01
					C255.91,208.9,257.04,207.15,256.91,205.51z"/>
				<linearGradient id="SVGID_13_" gradientUnits="userSpaceOnUse" x1="124.5962" y1="209.8275" x2="190.7561" y2="209.8275">
					<stop  offset="0" style="stop-color:#8647E1"/>
					<stop  offset="1" style="stop-color:#B78FED"/>
				</linearGradient>
				<path class="st15" d="M190.76,175.45c-2.58,0.06-5.25,0.71-7.37,1.93l-14.32,8.27l-44.46-0.02V206
					c-0.1,1.38,0.67,2.71,2.36,3.68l57.41,33.15c1.69,0.98,3.99,1.42,6.38,1.36V175.45z"/>
				<path class="st16" d="M129.64,185.63l-5.03,0V206c-0.1,1.38,0.67,2.71,2.36,3.68l2.67,1.54V185.63z"/>
				<linearGradient id="SVGID_14_" gradientUnits="userSpaceOnUse" x1="185.261" y1="232.1057" x2="196.2496" y2="232.1057">
					<stop  offset="0" style="stop-color:#8647E1"/>
					<stop  offset="1" style="stop-color:#B78FED"/>
				</linearGradient>
				<path class="st17" d="M185.26,243.27c3.04,1.3,7.43,1.23,10.99-0.13v-23.13h-10.99V243.27z"/>
				<path class="st0" d="M184.38,222.53l-57.41-33.15c-3.52-2.03-3.08-5.59,0.99-7.94l55.43-32.01c4.07-2.35,10.22-2.6,13.75-0.57
					l57.41,33.15c3.52,2.03,3.08,5.59-0.99,7.94l-55.43,32.01C194.05,224.31,187.9,224.57,184.38,222.53z"/>
				<linearGradient id="SVGID_15_" gradientUnits="userSpaceOnUse" x1="135.3054" y1="185.7055" x2="246.2052" y2="185.7055">
					<stop  offset="0" style="stop-color:#8647E1"/>
					<stop  offset="1" style="stop-color:#B78FED"/>
				</linearGradient>
				<path class="st18" d="M185.41,216.57l-48.11-27.78c-2.95-1.7-2.58-4.68,0.83-6.65l46.46-26.82c3.41-1.97,8.57-2.18,11.52-0.48
					l48.11,27.78c2.95,1.7,2.58,4.68-0.83,6.65l-46.46,26.82C193.52,218.06,188.36,218.27,185.41,216.57z"/>
				<g>
					<path class="st19" d="M235.79,210.74c0,1.48-1.04,3.28-2.32,4.02c-1.28,0.74-2.32,0.14-2.32-1.34c0-1.48,1.04-3.28,2.32-4.02
						C234.75,208.66,235.79,209.26,235.79,210.74z"/>
					<path class="st19" d="M243.25,206.43c0,1.48-1.04,3.28-2.32,4.02c-1.28,0.74-2.32,0.14-2.32-1.34c0-1.48,1.04-3.28,2.32-4.02
						C242.21,204.36,243.25,204.96,243.25,206.43z"/>
					
						<ellipse transform="matrix(0.5 -0.866 0.866 0.5 -52.0159 316.8334)" class="st19" cx="248.39" cy="203.47" rx="3.28" ry="1.89"/>
				</g>
			</g>
			<g>
				<linearGradient id="SVGID_16_" gradientUnits="userSpaceOnUse" x1="124.5962" y1="178.1689" x2="256.916" y2="178.1689">
					<stop  offset="0" style="stop-color:#8647E1"/>
					<stop  offset="1" style="stop-color:#B78FED"/>
				</linearGradient>
				<path class="st20" d="M256.91,173.86L256.91,173.86v-19.81l-44.42-0.02l-15.35-8.86c-3.52-2.03-9.68-1.78-13.75,0.57L169.06,154
					l-44.46-0.02v20.37c-0.1,1.38,0.67,2.71,2.36,3.68l57.41,33.15c3.52,2.03,9.68,1.78,13.75-0.57l55.43-32.01
					C255.91,177.25,257.04,175.49,256.91,173.86z"/>
				<linearGradient id="SVGID_17_" gradientUnits="userSpaceOnUse" x1="124.5962" y1="178.1714" x2="190.7561" y2="178.1714">
					<stop  offset="0" style="stop-color:#8647E1"/>
					<stop  offset="1" style="stop-color:#B78FED"/>
				</linearGradient>
				<path class="st21" d="M190.76,143.8c-2.58,0.06-5.25,0.71-7.37,1.93L169.06,154l-44.46-0.02v20.37
					c-0.1,1.38,0.67,2.71,2.36,3.68l57.41,33.15c1.69,0.98,3.99,1.42,6.38,1.36V143.8z"/>
				<path class="st16" d="M129.64,153.98l-5.03,0v20.37c-0.1,1.38,0.67,2.71,2.36,3.68l2.67,1.54V153.98z"/>
				<linearGradient id="SVGID_18_" gradientUnits="userSpaceOnUse" x1="185.261" y1="200.4495" x2="196.2496" y2="200.4495">
					<stop  offset="0" style="stop-color:#8647E1"/>
					<stop  offset="1" style="stop-color:#B78FED"/>
				</linearGradient>
				<path class="st22" d="M185.26,211.61c3.04,1.3,7.43,1.23,10.99-0.13v-23.13h-10.99V211.61z"/>
				<path class="st0" d="M184.38,190.88l-57.41-33.15c-3.52-2.03-3.08-5.59,0.99-7.94l55.43-32.01c4.07-2.35,10.22-2.6,13.75-0.57
					l57.41,33.15c3.52,2.03,3.08,5.59-0.99,7.94l-55.43,32.01C194.05,192.66,187.9,192.91,184.38,190.88z"/>
				<linearGradient id="SVGID_19_" gradientUnits="userSpaceOnUse" x1="135.3054" y1="154.0493" x2="246.2052" y2="154.0493">
					<stop  offset="0" style="stop-color:#8647E1"/>
					<stop  offset="1" style="stop-color:#B78FED"/>
				</linearGradient>
				<path class="st23" d="M185.41,184.91l-48.11-27.78c-2.95-1.7-2.58-4.68,0.83-6.65l46.46-26.82c3.41-1.97,8.57-2.18,11.52-0.48
					l48.11,27.78c2.95,1.7,2.58,4.68-0.83,6.65l-46.46,26.82C193.52,186.4,188.36,186.62,185.41,184.91z"/>
				<g>
					<path class="st19" d="M235.79,179.09c0,1.48-1.04,3.28-2.32,4.02c-1.28,0.74-2.32,0.14-2.32-1.34c0-1.48,1.04-3.28,2.32-4.02
						C234.75,177.01,235.79,177.61,235.79,179.09z"/>
					<path class="st19" d="M243.25,174.78c0,1.48-1.04,3.28-2.32,4.02c-1.28,0.74-2.32,0.14-2.32-1.34c0-1.48,1.04-3.28,2.32-4.02
						C242.21,172.7,243.25,173.3,243.25,174.78z"/>
					
						<ellipse transform="matrix(0.5 -0.866 0.866 0.5 -24.6016 301.0066)" class="st19" cx="248.39" cy="171.81" rx="3.28" ry="1.89"/>
				</g>
			</g>
			<g>
				<linearGradient id="SVGID_20_" gradientUnits="userSpaceOnUse" x1="124.5962" y1="146.5127" x2="256.916" y2="146.5127">
					<stop  offset="0" style="stop-color:#8647E1"/>
					<stop  offset="1" style="stop-color:#B78FED"/>
				</linearGradient>
				<path class="st24" d="M256.91,142.2L256.91,142.2v-19.81l-44.42-0.02l-15.35-8.86c-3.52-2.03-9.68-1.78-13.75,0.57l-14.32,8.27
					l-44.46-0.02v20.37c-0.1,1.38,0.67,2.71,2.36,3.68l57.41,33.15c3.52,2.03,9.68,1.78,13.75-0.57l55.43-32.01
					C255.91,145.59,257.04,143.84,256.91,142.2z"/>
				<linearGradient id="SVGID_21_" gradientUnits="userSpaceOnUse" x1="124.5962" y1="146.5152" x2="190.7561" y2="146.5152">
					<stop  offset="0" style="stop-color:#8647E1"/>
					<stop  offset="1" style="stop-color:#B78FED"/>
				</linearGradient>
				<path class="st25" d="M190.76,112.14c-2.58,0.06-5.25,0.71-7.37,1.93l-14.32,8.27l-44.46-0.02v20.37
					c-0.1,1.38,0.67,2.71,2.36,3.68l57.41,33.15c1.69,0.98,3.99,1.42,6.38,1.36V112.14z"/>
				<path class="st16" d="M129.64,122.32l-5.03,0v20.37c-0.1,1.38,0.67,2.71,2.36,3.68l2.67,1.54V122.32z"/>
				<linearGradient id="SVGID_22_" gradientUnits="userSpaceOnUse" x1="185.261" y1="168.7934" x2="196.2496" y2="168.7934">
					<stop  offset="0" style="stop-color:#8647E1"/>
					<stop  offset="1" style="stop-color:#B78FED"/>
				</linearGradient>
				<path class="st26" d="M185.26,179.95c3.04,1.3,7.43,1.23,10.99-0.13V156.7h-10.99V179.95z"/>
				<path class="st0" d="M184.38,159.22l-57.41-33.15c-3.52-2.03-3.08-5.59,0.99-7.94l55.43-32.01c4.07-2.35,10.22-2.6,13.75-0.57
					l57.41,33.15c3.52,2.03,3.08,5.59-0.99,7.94l-55.43,32.01C194.05,161,187.9,161.26,184.38,159.22z"/>
				<polygon class="st8" points="221.84,136.81 181.9,112.14 169.47,135.91 172.92,148.71 186.38,157.41 				"/>
				<path class="st27" d="M253.56,122.75l-55.43,32.01c-4.07,2.35-10.22,2.6-13.75,0.57l-57.41-33.15
					c-0.79-0.45-1.36-0.99-1.76-1.56c-1.21,1.95-0.66,4.06,1.76,5.46l57.41,33.15c3.52,2.03,9.68,1.78,13.75-0.57l55.43-32.01
					c3.16-1.83,4.12-4.38,2.75-6.38C255.75,121.16,254.83,122.01,253.56,122.75z"/>
				<g>
					<path class="st19" d="M235.79,147.43c0,1.48-1.04,3.28-2.32,4.02c-1.28,0.74-2.32,0.14-2.32-1.34c0-1.48,1.04-3.28,2.32-4.02
						C234.75,145.35,235.79,145.95,235.79,147.43z"/>
					<path class="st19" d="M243.25,143.12c0,1.48-1.04,3.28-2.32,4.02c-1.28,0.74-2.32,0.14-2.32-1.34c0-1.48,1.04-3.28,2.32-4.02
						C242.21,141.04,243.25,141.64,243.25,143.12z"/>
					
						<ellipse transform="matrix(0.5 -0.866 0.866 0.5 2.8128 285.1797)" class="st19" cx="248.39" cy="140.15" rx="3.28" ry="1.89"/>
				</g>
			</g>
		</g>
		<g>
			<path class="st19" d="M182.67,165.93c0,1.03-0.72,1.45-1.62,0.93c-0.89-0.52-1.62-1.77-1.62-2.8c0-1.03,0.72-1.45,1.62-0.93
				C181.95,163.65,182.67,164.9,182.67,165.93z"/>
			<linearGradient id="SVGID_23_" gradientUnits="userSpaceOnUse" x1="174.4123" y1="162.1183" x2="177.6494" y2="162.1183">
				<stop  offset="0" style="stop-color:#8647E1"/>
				<stop  offset="1" style="stop-color:#B78FED"/>
			</linearGradient>
			<path class="st28" d="M177.65,163.05c0,1.03-0.72,1.45-1.62,0.93c-0.89-0.52-1.62-1.77-1.62-2.8c0-1.03,0.72-1.45,1.62-0.93
				C176.92,160.77,177.65,162.02,177.65,163.05z"/>
			<path class="st19" d="M182.67,171.99c0,1.03-0.72,1.45-1.62,0.93c-0.89-0.52-1.62-1.77-1.62-2.8c0-1.03,0.72-1.45,1.62-0.93
				C181.95,169.7,182.67,170.96,182.67,171.99z"/>
			<path class="st19" d="M177.65,169.11c0,1.03-0.72,1.45-1.62,0.93c-0.89-0.52-1.62-1.77-1.62-2.8c0-1.03,0.72-1.45,1.62-0.93
				C176.92,166.82,177.65,168.08,177.65,169.11z"/>
		</g>
		<g>
			<path class="st19" d="M182.67,197.32c0,1.03-0.72,1.45-1.62,0.93c-0.89-0.52-1.62-1.77-1.62-2.8c0-1.03,0.72-1.45,1.62-0.93
				C181.95,195.03,182.67,196.28,182.67,197.32z"/>
			<linearGradient id="SVGID_24_" gradientUnits="userSpaceOnUse" x1="174.4123" y1="193.5015" x2="177.6494" y2="193.5015">
				<stop  offset="0" style="stop-color:#8647E1"/>
				<stop  offset="1" style="stop-color:#B78FED"/>
			</linearGradient>
			<path class="st29" d="M177.65,194.44c0,1.03-0.72,1.45-1.62,0.93c-0.89-0.52-1.62-1.77-1.62-2.8c0-1.03,0.72-1.45,1.62-0.93
				C176.92,192.15,177.65,193.4,177.65,194.44z"/>
			<path class="st19" d="M182.67,203.38c0,1.03-0.72,1.45-1.62,0.93c-0.89-0.52-1.62-1.77-1.62-2.8c0-1.03,0.72-1.45,1.62-0.93
				C181.95,201.09,182.67,202.34,182.67,203.38z"/>
			<path class="st19" d="M177.65,200.5c0,1.03-0.72,1.45-1.62,0.93c-0.89-0.52-1.62-1.77-1.62-2.8c0-1.03,0.72-1.45,1.62-0.93
				C176.92,198.21,177.65,199.46,177.65,200.5z"/>
		</g>
		<g>
			<path class="st19" d="M182.67,229.03c0,1.03-0.72,1.45-1.62,0.93c-0.89-0.52-1.62-1.77-1.62-2.8c0-1.03,0.72-1.45,1.62-0.93
				C181.95,226.75,182.67,228,182.67,229.03z"/>
			<linearGradient id="SVGID_25_" gradientUnits="userSpaceOnUse" x1="174.4123" y1="225.2181" x2="177.6494" y2="225.2181">
				<stop  offset="0" style="stop-color:#8647E1"/>
				<stop  offset="1" style="stop-color:#B78FED"/>
			</linearGradient>
			<path class="st30" d="M177.65,226.15c0,1.03-0.72,1.45-1.62,0.93c-0.89-0.52-1.62-1.77-1.62-2.8c0-1.03,0.72-1.45,1.62-0.93
				C176.92,223.87,177.65,225.12,177.65,226.15z"/>
			<path class="st19" d="M182.67,235.09c0,1.03-0.72,1.45-1.62,0.93c-0.89-0.52-1.62-1.77-1.62-2.8c0-1.03,0.72-1.45,1.62-0.93
				C181.95,232.8,182.67,234.06,182.67,235.09z"/>
			<path class="st19" d="M177.65,232.21c0,1.03-0.72,1.45-1.62,0.93c-0.89-0.52-1.62-1.77-1.62-2.8c0-1.03,0.72-1.45,1.62-0.93
				C176.92,229.92,177.65,231.18,177.65,232.21z"/>
		</g>
	</g>
	<linearGradient id="SVGID_26_" gradientUnits="userSpaceOnUse" x1="163.7536" y1="120.5487" x2="223.6832" y2="120.5487">
		<stop  offset="0" style="stop-color:#5C5E60"/>
		<stop  offset="1" style="stop-color:#9FA1A4"/>
	</linearGradient>
	<path class="st31" d="M220.5,137.59l-56.3-32.51c-0.66-0.38-0.57-1.04,0.18-1.48l0,0c0.76-0.44,1.9-0.48,2.56-0.11l56.3,32.5
		c0.66,0.38,0.57,1.04-0.18,1.48l0,0C222.3,137.92,221.15,137.97,220.5,137.59z"/>
	<g>
		<g>
			<path class="st32" d="M0.19,215.27l35.2-20.5c6.97-4.03,13.55-4.66,18.52-1.8c4.97,2.87,7.7,8.88,7.7,16.93v2.58
				c-0.25,0.17-0.51,0.33-0.78,0.5v-3.07c0-7.76-2.6-13.54-7.31-16.26c-4.72-2.72-11.02-2.09-17.74,1.8l-35.2,20.5
				c-0.18,0.11-0.42,0.04-0.53-0.14C-0.06,215.61,0.01,215.37,0.19,215.27z"/>
			<path class="st32" d="M109.97,190.85v-79.33c0-15.88,11.19-35.26,24.94-43.19c6.73-3.89,13.09-4.5,17.89-1.73
				c4.8,2.77,7.44,8.58,7.44,16.36v5.53c-0.26,0.26-0.52,0.52-0.78,0.78v-6.31c0-7.49-2.51-13.06-7.05-15.68
				c-4.55-2.62-10.63-2.01-17.11,1.73c-13.54,7.82-24.55,26.89-24.55,42.52v79.33c0,13.16-7.74,28.74-18.25,38.11
				c0-0.35,0-0.69,0-1.04C102.59,218.65,109.97,203.6,109.97,190.85z"/>
			<path class="st8" d="M160.24,90.91L160.24,90.91c1.27-1.21,7.22-6.45,15.89-7.78c9.82-1.5,13.88,9.98,13.88,9.98
				s1.14,5.97,1.1,9.5c-0.04,3.53-0.29,16.36-0.29,16.36l-31.14-17.94l0,0c-0.13-0.06-0.21-0.19-0.21-0.34v-9.1
				C159.72,91.32,159.98,91.17,160.24,90.91z"/>
		</g>
		<g>
			<g>
				<path class="st0" d="M182.31,83.61L152.8,66.59l0.12,0.42c-4.55-2.94-11.42-3.26-20.62,3.49
					c-18.27,13.39-20.46,32.04-21.39,35.54c-0.93,3.49-0.55,25.63-0.55,25.63s-0.06,53.39-0.12,59.61
					c-0.06,6.21-1.87,13.18-5.36,20.7c-3.49,7.52-12.45,16.65-12.45,16.65v10.87c1.43,11.75,6.42,14.49,13.85,15.16
					c5.99,0.54,12.38-3.79,17.49-8.51c-0.19,0.2-0.31,0.32-0.31,0.32v10.87c1.43,11.75,6.42,14.49,13.85,15.16
					c7.43,0.67,15.46-6.13,20.9-11.89c5.44-5.76,10.03-14.55,12.58-22.49c2.55-7.93,1.7-18.18,1.7-18.18s0.06-58.37,0.12-69.87
					c0.06-11.51,0.43-9.5,4.2-21.07s13.78-19.67,13.78-19.67l24.01-7.15L182.31,83.61z"/>
				<linearGradient id="SVGID_27_" gradientUnits="userSpaceOnUse" x1="60.8395" y1="240.5453" x2="130.93" y2="240.5453">
					<stop  offset="0" style="stop-color:#8647E1"/>
					<stop  offset="1" style="stop-color:#B78FED"/>
				</linearGradient>
				<path class="st33" d="M130.93,271.53c-0.4-0.55-5.66-4.08-7-10.29c-0.75-3.45-0.67-8.71-0.67-8.71s0.02-2.92,0.09-5.58
					c0.06-0.05,0.12-0.1,0.18-0.15c0-0.35,0-0.69,0-1.04c-0.05,0.04-0.1,0.08-0.15,0.13c0.02-0.6,0.04-1.16,0.07-1.64
					c0.15-2.76-1.89-8.65-1.89-8.65s-2.89-7.88-11.51-8.19c-7.65-0.27-15.7,5.23-17.41,6.47v-3.56c-0.11,0.08-0.24,0.15-0.35,0.23
					c0.01-0.48,0.02-0.96,0.03-1.44c0.06-0.05,0.12-0.1,0.18-0.15c0-0.35,0-0.69,0-1.04c-0.05,0.04-0.1,0.08-0.15,0.13
					c0.02-0.6,0.04-1.16,0.07-1.64c0.15-2.76-1.89-8.65-1.89-8.65s-2.89-7.88-11.51-8.19c-7.65-0.27-15.7,5.23-17.41,6.47v-3.56
					c-0.25,0.17-0.51,0.33-0.78,0.5v6.23c0,7.55,2.52,13.23,7.08,16.05l0.02,0.02l0.16,0.09c0.04,0.03,0.08,0.06,0.13,0.08
					c0.03,0.02,0.06,0.03,0.09,0.04l31.59,18.19c-0.01-0.01-0.03-0.03-0.04-0.04L130.93,271.53z"/>
				<g>
					<path class="st0" d="M84.94,210.82c0,0-0.24-0.12-0.65-0.29c-0.13-0.06-0.25-0.13-0.38-0.19l-29.99-17.36
						c0,0-5.51-2.9-12.18-0.46c-6.66,2.44-41.59,23.39-41.59,23.39l31.2,17.97l0.01,0c0.03,0.01,0.06,0.01,0.08,0.02l30.94,17.82
						c0,0,17.5-10.84,29.61-17.84l0.78-0.45c4.95-2.85,8.88-4.97,10.12-5.3c7.47-1.98,12.66,0.43,14.01,1.17L84.94,210.82z"/>
					<path class="st32" d="M116.89,229.31l0.36,0.21C117.26,229.52,117.12,229.44,116.89,229.31z"/>
				</g>
			</g>
			<linearGradient id="SVGID_28_" gradientUnits="userSpaceOnUse" x1="190.4876" y1="118.8245" x2="222.1333" y2="118.8245">
				<stop  offset="0" style="stop-color:#8647E1"/>
				<stop  offset="1" style="stop-color:#B78FED"/>
			</linearGradient>
			<path class="st34" d="M191.26,108.75L191.26,108.75c1.27-1.21,7.22-6.45,15.89-7.78c9.82-1.5,13.88,9.98,13.88,9.98
				s1.14,5.97,1.1,9.5c-0.04,3.53-0.29,16.36-0.29,16.36l-31.14-17.94l0,0c-0.13-0.06-0.21-0.19-0.21-0.34v-9.1
				C190.75,109.16,191.01,109.01,191.26,108.75z"/>
			<g>
				<linearGradient id="SVGID_29_" gradientUnits="userSpaceOnUse" x1="62.1777" y1="186.8052" x2="222.4135" y2="186.8052">
					<stop  offset="0" style="stop-color:#8647E1"/>
					<stop  offset="1" style="stop-color:#B78FED"/>
				</linearGradient>
				<path class="st35" d="M137,272.94c3.43,0,7.23-1.15,11.17-3.42c13.65-7.88,24.76-27.12,24.76-42.88v-79.33
					c0-15.63,11.01-34.71,24.55-42.52c6.49-3.74,12.56-4.36,17.11-1.73c4.55,2.63,7.05,8.2,7.05,15.68v17.73
					c0,0.21,0.17,0.39,0.39,0.39c0.21,0,0.39-0.17,0.39-0.39v-17.73c0-7.78-2.64-13.59-7.44-16.36c-4.8-2.77-11.15-2.15-17.89,1.73
					c-13.75,7.94-24.94,27.32-24.94,43.2v79.33c0,15.52-10.93,34.45-24.37,42.21c-6.44,3.71-12.47,4.33-16.98,1.72
					c-4.51-2.61-7-8.13-7-15.57v-9.31c0-8.05-2.74-14.07-7.7-16.93c-4.97-2.87-11.54-2.23-18.52,1.8l-35.2,20.5
					c-0.19,0.11-0.25,0.34-0.14,0.53c0.11,0.19,0.35,0.25,0.53,0.14l35.2-20.5c6.72-3.88,13.02-4.52,17.74-1.8
					c4.72,2.72,7.32,8.5,7.32,16.26V255c0,7.72,2.62,13.49,7.39,16.24C132.37,272.37,134.59,272.94,137,272.94z"/>
			</g>
		</g>
		<g>
			<path class="st8" d="M143.2,91.17l-3.72-2.15c-0.23-0.13-0.23-0.43-0.01-0.67l3.05-3.21c0.22-0.24,0.59-0.32,0.82-0.19l3.72,2.15
				c0.23,0.13,0.23,0.43,0.01,0.67l-3.05,3.21C143.79,91.22,143.42,91.31,143.2,91.17z"/>
			<linearGradient id="SVGID_30_" gradientUnits="userSpaceOnUse" x1="147.298" y1="92.6883" x2="155.2224" y2="92.6883">
				<stop  offset="0" style="stop-color:#8647E1"/>
				<stop  offset="1" style="stop-color:#B78FED"/>
			</linearGradient>
			<path class="st36" d="M151.19,95.79l-3.72-2.15c-0.23-0.13-0.23-0.43-0.01-0.67l3.05-3.21c0.22-0.24,0.59-0.32,0.82-0.19
				l3.72,2.15c0.23,0.13,0.23,0.43,0.01,0.67l-3.05,3.21C151.78,95.84,151.42,95.92,151.19,95.79z"/>
			<path class="st27" d="M159.18,100.41l-3.72-2.15c-0.23-0.13-0.23-0.43-0.01-0.67l3.05-3.21c0.22-0.24,0.59-0.32,0.82-0.19
				l3.72,2.15c0.23,0.13,0.23,0.43,0.01,0.67l-3.05,3.21C159.78,100.46,159.41,100.54,159.18,100.41z"/>
			<path class="st8" d="M167.17,105.03l-3.72-2.15c-0.23-0.13-0.23-0.43-0.01-0.67l3.05-3.21c0.22-0.24,0.59-0.32,0.82-0.19
				l3.72,2.15c0.23,0.13,0.23,0.43,0.01,0.67l-3.05,3.21C167.77,105.08,167.4,105.16,167.17,105.03z"/>
		</g>
		<g>
			<path class="st8" d="M141.3,165.35l-5.2-3c-0.48-0.28-0.88-1.03-0.89-1.68l0,0c-0.01-0.65,0.37-0.95,0.86-0.67l5.2,3
				c0.48,0.28,0.88,1.03,0.89,1.68l0,0C142.17,165.33,141.79,165.63,141.3,165.35z"/>
			<path class="st8" d="M153.7,172.51l-7.67-4.43c-0.48-0.28-0.88-1.03-0.89-1.68l0,0c-0.01-0.65,0.37-0.95,0.86-0.67l7.67,4.43
				c0.48,0.28,0.88,1.03,0.89,1.68l0,0C154.56,172.49,154.18,172.79,153.7,172.51z"/>
			<path class="st8" d="M138.73,193.1l-5.2-3c-0.48-0.28-0.88-1.03-0.89-1.68l0,0c-0.01-0.65,0.37-0.95,0.86-0.67l5.2,3
				c0.48,0.28,0.88,1.03,0.89,1.68l0,0C139.59,193.08,139.21,193.38,138.73,193.1z"/>
			<path class="st8" d="M149.77,199.48l-7.67-4.43c-0.48-0.28-0.88-1.03-0.89-1.68l0,0c-0.01-0.65,0.37-0.95,0.86-0.67l7.67,4.43
				c0.48,0.28,0.88,1.03,0.89,1.68l0,0C150.64,199.46,150.26,199.76,149.77,199.48z"/>
			<path class="st8" d="M127.03,161.99l-3.25-1.88c-0.48-0.28-0.88-1.03-0.89-1.68l0,0c-0.01-0.65,0.37-0.95,0.86-0.67l3.25,1.88
				c0.48,0.28,0.88,1.03,0.89,1.68l0,0C127.9,161.97,127.52,162.27,127.03,161.99z"/>
			<path class="st8" d="M138.14,173.27l-9.93-5.73c-0.48-0.28-0.88-1.03-0.89-1.68l0,0c-0.01-0.65,0.37-0.95,0.86-0.67l9.93,5.73
				c0.48,0.28,0.88,1.03,0.89,1.68l0,0C139,173.25,138.62,173.55,138.14,173.27z"/>
			<path class="st8" d="M131.61,179.25l-3.25-1.88c-0.48-0.28-0.88-1.03-0.89-1.68l0,0c-0.01-0.65,0.37-0.95,0.86-0.67l3.25,1.88
				c0.48,0.28,0.88,1.03,0.89,1.68l0,0C132.48,179.23,132.1,179.53,131.61,179.25z"/>
			<path class="st8" d="M153.61,211.44l-8.68-5.01c-0.48-0.28-0.88-1.03-0.89-1.68l0,0c-0.01-0.65,0.37-0.95,0.86-0.67l8.68,5.01
				c0.48,0.28,0.88,1.03,0.89,1.68l0,0C154.48,211.42,154.09,211.72,153.61,211.44z"/>
			<path class="st8" d="M130.61,188.42l-2.09-1.2c-0.48-0.28-0.88-1.03-0.89-1.68l0,0c-0.01-0.65,0.37-0.95,0.86-0.67l2.09,1.2
				c0.48,0.28,0.88,1.03,0.89,1.68l0,0C131.47,188.4,131.09,188.7,130.61,188.42z"/>
			<path class="st8" d="M131.27,198.55l-2.59-1.5c-0.48-0.28-0.88-1.03-0.89-1.68l0,0c-0.01-0.65,0.37-0.95,0.86-0.67l2.59,1.5
				c0.48,0.28,0.88,1.03,0.89,1.68l0,0C132.14,198.53,131.76,198.83,131.27,198.55z"/>
			<path class="st8" d="M141.35,204.37l-6.83-3.94c-0.48-0.28-0.88-1.03-0.89-1.68l0,0c-0.01-0.65,0.37-0.95,0.86-0.67l6.83,3.94
				c0.48,0.28,0.88,1.03,0.89,1.68l0,0C142.22,204.35,141.84,204.65,141.35,204.37z"/>
			<path class="st8" d="M133.67,204.81l-4.91-2.84c-0.48-0.28-0.88-1.03-0.89-1.68l0,0c-0.01-0.65,0.37-0.95,0.86-0.67l4.91,2.84
				c0.48,0.28,0.88,1.03,0.89,1.68l0,0C134.54,204.79,134.16,205.09,133.67,204.81z"/>
			<path class="st8" d="M143.71,186.23l-8.68-5.01c-0.48-0.28-0.88-1.03-0.89-1.68l0,0c-0.01-0.65,0.37-0.95,0.86-0.67l8.68,5.01
				c0.48,0.28,0.88,1.03,0.89,1.68l0,0C144.57,186.21,144.19,186.51,143.71,186.23z"/>
			<path class="st8" d="M143.42,181.19l-15.13-8.74c-0.48-0.28-0.88-1.03-0.89-1.68l0,0c-0.01-0.65,0.37-0.95,0.86-0.67l15.13,8.74
				c0.48,0.28,0.88,1.03,0.89,1.68l0,0C144.28,181.17,143.9,181.47,143.42,181.19z"/>
			<path class="st8" d="M137.13,187.31l-8.68-5.01c-0.48-0.28-0.88-1.03-0.89-1.68l0,0c-0.01-0.65,0.37-0.95,0.86-0.67l8.68,5.01
				c0.48,0.28,0.88,1.03,0.89,1.68l0,0C137.99,187.29,137.61,187.59,137.13,187.31z"/>
			<path class="st8" d="M150.29,190.04l-3.15-1.82c-0.48-0.28-0.88-1.03-0.89-1.68l0,0c-0.01-0.65,0.37-0.95,0.86-0.67l3.15,1.82
				c0.48,0.28,0.88,1.03,0.89,1.68l0,0C151.16,190.01,150.77,190.31,150.29,190.04z"/>
			<path class="st8" d="M139.04,198.16l-10.44-6.03c-0.48-0.28-0.88-1.03-0.89-1.68l0,0c-0.01-0.65,0.37-0.95,0.86-0.67l10.44,6.03
				c0.48,0.28,0.88,1.03,0.89,1.68l0,0C139.9,198.14,139.52,198.44,139.04,198.16z"/>
			<path class="st8" d="M131.38,159.62l-7.67-4.43c-0.48-0.28-0.88-1.03-0.89-1.68l0,0c-0.01-0.65,0.37-0.95,0.86-0.67l7.67,4.43
				c0.48,0.28,0.88,1.03,0.89,1.68l0,0C132.24,159.6,131.86,159.9,131.38,159.62z"/>
			<path class="st8" d="M133.39,209.51l-8.89-5.13c-0.48-0.28-0.88-1.03-0.89-1.68l0,0c-0.01-0.65,0.37-0.95,0.86-0.67l8.89,5.13
				c0.48,0.28,0.88,1.03,0.89,1.68l0,0C134.25,209.49,133.87,209.79,133.39,209.51z"/>
		</g>
	</g>
	<g>
		<path class="st8" d="M39.83,214.42l-3.72-2.15c-0.23-0.13-0.2-0.36,0.06-0.51l3.59-2.07c0.26-0.15,0.66-0.17,0.89-0.04l3.72,2.15
			c0.23,0.13,0.2,0.36-0.06,0.51l-3.59,2.07C40.45,214.54,40.05,214.55,39.83,214.42z"/>
		<linearGradient id="SVGID_31_" gradientUnits="userSpaceOnUse" x1="43.9477" y1="216.6568" x2="52.5157" y2="216.6568">
			<stop  offset="0" style="stop-color:#8647E1"/>
			<stop  offset="1" style="stop-color:#B78FED"/>
		</linearGradient>
		<path class="st37" d="M47.82,219.04l-3.72-2.15c-0.23-0.13-0.2-0.36,0.06-0.51l3.59-2.07c0.26-0.15,0.66-0.17,0.89-0.04l3.72,2.15
			c0.23,0.13,0.2,0.36-0.06,0.51L48.71,219C48.45,219.16,48.05,219.17,47.82,219.04z"/>
		<path class="st27" d="M55.81,223.66l-3.72-2.15c-0.23-0.13-0.2-0.36,0.06-0.51l3.59-2.07c0.26-0.15,0.66-0.17,0.89-0.04l3.72,2.15
			c0.23,0.13,0.2,0.36-0.06,0.51l-3.59,2.07C56.44,223.77,56.04,223.79,55.81,223.66z"/>
		<path class="st8" d="M63.8,228.28l-3.72-2.15c-0.23-0.13-0.2-0.36,0.06-0.51l3.59-2.07c0.26-0.15,0.66-0.17,0.89-0.04l3.72,2.15
			c0.23,0.13,0.2,0.36-0.06,0.51l-3.59,2.07C64.43,228.39,64.03,228.41,63.8,228.28z"/>
	</g>
	<g>
		<g>
			<linearGradient id="SVGID_32_" gradientUnits="userSpaceOnUse" x1="304.3657" y1="119.1222" x2="259.9402" y2="144.3988">
				<stop  offset="0" style="stop-color:#8647E1"/>
				<stop  offset="1" style="stop-color:#B78FED"/>
			</linearGradient>
			<path class="st38" d="M311.29,118.73l-37.85-21.86c-0.75-0.43-1.43-0.45-1.96-0.16c0,0,0-0.02,0-0.02l-3.67,2.12
				c0,0,1.63,0.59,2.58,0.94v27.57c0,2.24,1.36,4.85,3.05,5.82l36.18,20.89v3.23l3.71-2.14l-0.02-0.01
				c0.63-0.38,1.03-1.22,1.03-2.43v-28.15C314.33,122.31,312.97,119.71,311.29,118.73z"/>
			<linearGradient id="SVGID_33_" gradientUnits="userSpaceOnUse" x1="266.6473" y1="128.0967" x2="310.5933" y2="128.0967">
				<stop  offset="0" style="stop-color:#8647E1"/>
				<stop  offset="1" style="stop-color:#B78FED"/>
			</linearGradient>
			<path class="st39" d="M307.55,157.16l-37.85-21.86c-1.68-0.97-3.05-3.58-3.05-5.82v-28.15c0-2.24,1.36-3.27,3.05-2.3l37.85,21.86
				c1.68,0.97,3.05,3.58,3.05,5.82v28.15C310.59,157.1,309.23,158.13,307.55,157.16z"/>
		</g>
		<g>
			<path class="st27" d="M282.42,125.6c0,1.63-1.14,2.29-2.55,1.47c-1.41-0.81-2.55-2.79-2.55-4.42s1.14-2.29,2.55-1.47
				C281.28,121.99,282.42,123.98,282.42,125.6z"/>
			<path class="st27" d="M290.16,130.07c0,1.63-1.14,2.29-2.55,1.47c-1.41-0.81-2.55-2.8-2.55-4.42c0-1.63,1.14-2.29,2.55-1.47
				C289.02,126.46,290.16,128.44,290.16,130.07z"/>
			<path class="st27" d="M297.9,134.54c0,1.63-1.14,2.29-2.55,1.47c-1.41-0.81-2.55-2.8-2.55-4.42s1.14-2.29,2.55-1.47
				C296.75,130.93,297.9,132.91,297.9,134.54z"/>
		</g>
	</g>
	<g>
		<g>
			<path class="st8" d="M289.74,83.34l-37.85-21.86c-0.75-0.43-1.43-0.45-1.96-0.16c0,0,0-0.02,0-0.02l-3.67,2.12
				c0,0,1.63,0.59,2.58,0.94v27.57c0,2.24,1.36,4.85,3.05,5.82l36.18,20.89v3.23l3.71-2.14l-0.02-0.01
				c0.63-0.38,1.03-1.22,1.03-2.43V89.16C292.79,86.92,291.43,84.31,289.74,83.34z"/>
			<path class="st0" d="M286,121.77l-37.85-21.86c-1.68-0.97-3.05-3.58-3.05-5.82V65.95c0-2.24,1.36-3.27,3.05-2.3L286,85.5
				c1.68,0.97,3.05,3.58,3.05,5.82v28.15C289.05,121.71,287.69,122.74,286,121.77z"/>
		</g>
		<g>
			<path class="st27" d="M260.88,90.21c0,1.63-1.14,2.29-2.55,1.47c-1.41-0.81-2.55-2.79-2.55-4.42c0-1.63,1.14-2.29,2.55-1.47
				C259.74,86.6,260.88,88.58,260.88,90.21z"/>
			<path class="st27" d="M268.62,94.68c0,1.63-1.14,2.29-2.55,1.47s-2.55-2.79-2.55-4.42s1.14-2.29,2.55-1.47
				C267.47,91.07,268.62,93.05,268.62,94.68z"/>
			<path class="st27" d="M276.36,99.15c0,1.63-1.14,2.29-2.55,1.47c-1.41-0.81-2.55-2.79-2.55-4.42c0-1.63,1.14-2.29,2.55-1.47
				C275.21,95.54,276.36,97.52,276.36,99.15z"/>
		</g>
	</g>
	<g>
		<polygon class="st0" points="212.55,288.95 225.88,281.26 239.2,288.95 225.88,296.64 		"/>
		<polygon class="st0" points="240.84,272.4 254.16,264.71 267.48,272.4 254.16,280.09 		"/>
		<polygon class="st0" points="269.03,256.25 282.36,248.56 295.68,256.25 282.36,263.94 		"/>
		<g>
			<g>
				<g>
					<polygon class="st8" points="254.16,231.37 267.48,223.68 267.48,264.71 254.16,272.4 					"/>
					<polygon class="st40" points="254.16,272.4 254.16,231.37 240.84,223.68 240.84,264.71 					"/>
				</g>
				<g>
					<polygon class="st40" points="225.88,288.95 225.88,265.87 212.55,258.18 212.55,281.26 					"/>
					<polygon class="st8" points="225.88,265.87 239.2,258.18 239.2,281.26 225.88,288.95 					"/>
					<polygon class="st0" points="212.55,258.18 225.88,250.48 239.2,258.18 225.88,265.87 					"/>
				</g>
				<g>
					<polygon class="st40" points="282.36,256.25 282.36,199.84 269.03,192.14 269.03,248.56 					"/>
					<polygon class="st8" points="282.36,199.84 295.68,192.14 295.68,248.56 282.36,256.25 					"/>
					<polygon class="st0" points="269.03,192.14 282.36,184.45 295.68,192.14 282.36,199.84 					"/>
				</g>
			</g>
			<polygon class="st0" points="240.84,223.68 254.16,215.99 267.48,223.68 254.16,231.37 			"/>
		</g>
	</g>
	<g>
		<path class="st41" d="M108.83,113.7c0.05-0.02,27.91-48.81,31.68-53.4c0.63-0.77,1.61-1.17,2.61-1.05l7.78,0.93l9.14,19.76
			l-15.22-8.86c1.51,10.42-18.05,25.89-24.75,31.54c-0.68,0.57-0.74,1.6-0.12,2.24l2.68,2.8c-4.39,4.45-9.47,7.32-15.19,8.64
			L108.83,113.7z"/>
		<path class="st42" d="M121.06,106.15c0,0,1.71,0.55,2.29,2.07c0.28,0.73-0.02,1.55-0.65,2.01c-2.81,2.02-12.09,8.52-16.38,9.8
			c-0.35,0.1-0.69-0.21-0.61-0.57c0.22-0.99,0.93-2.98,3.22-5.89l-0.21,0.42c-0.26,0.53,0.31,1.07,0.82,0.79
			C112.41,113.15,118.25,109.61,121.06,106.15z"/>
		<path class="st41" d="M119.68,125.67c0.05-0.03,4.23-10.1,4.27-10.13c3.83-23.33,13.18-43.32,15.94-48.58
			c0.46-0.88,1.34-1.47,2.34-1.55l7.8-0.67l12.95,17.51l-16.7-5.6c3.58,9.9-12.43,29.01-17.86,35.9c-0.55,0.7-0.4,1.72,0.33,2.22
			l3.19,2.2c-3.4,5.25-7.79,9.08-13.13,11.53L119.68,125.67z"/>
		<path class="st42" d="M130.13,115.8c0,0,1.78,0.19,2.66,1.57c0.42,0.66,0.29,1.52-0.24,2.1c-2.35,2.54-10.12,10.79-14.05,12.91
			c-0.32,0.17-0.71-0.07-0.71-0.44c0.01-1.02,0.31-3.11,1.96-6.42l-0.12,0.45c-0.15,0.57,0.52,0.99,0.97,0.6
			C123.08,124.41,128.08,119.76,130.13,115.8z"/>
		<g>
			
				<linearGradient id="SVGID_34_" gradientUnits="userSpaceOnUse" x1="5349.5938" y1="2905.4282" x2="5293.8442" y2="2957.5215" gradientTransform="matrix(-1 0 0 1 8553.4658 0)">
				<stop  offset="0" style="stop-color:#5C5E60"/>
				<stop  offset="1" style="stop-color:#9FA1A4"/>
			</linearGradient>
			<path class="st43" d="M186.56,61.06c0,0,7.06,10.5,7.64,15.29c0.58,4.79-1.95,6.45-9.34,7.06c-21.99,1.82-32.82-4.77-32.82-4.77
				c-1.5-9.59-2.57-12.03-15.14-17.24c0,0,15.89,1.26,19.09,0.02C159.18,60.17,186.56,61.06,186.56,61.06z"/>
		</g>
		<g>
			<path class="st44" d="M158.41,2.23c0,0,4.92-5.82,10.14,1.32c0.95,1.29,4.58,0.23,5.92,2.93c0.69,1.4,2.17,2.19,3.71,1.91
				c3.81-0.7,10.05-0.76,13.13,5.21c2.35,4.56,0.54,7.23-1.81,8.75c-1.72,1.12-2.34,3.39-1.3,5.16c1,1.7,1.19,4-1.39,6.77
				c-5.79,6.2-17.25-3.94-17.25-3.94l-9.1-21.5L158.41,2.23z"/>
			
				<linearGradient id="SVGID_35_" gradientUnits="userSpaceOnUse" x1="16232.8291" y1="24.9458" x2="16129.2822" y2="124.8268" gradientTransform="matrix(-1 0 0 1 16385.166 0)">
				<stop  offset="0" style="stop-color:#8647E1"/>
				<stop  offset="1" style="stop-color:#B78FED"/>
			</linearGradient>
			<path class="st45" d="M167.47,59.67c0,0-8.22-7.83-12.27-13.01c-2.19-2.8-2.87-6.49-1.86-9.9c1.85-6.22,5.13-12.67,5.43-13.67
				c0.46-1.54,9.68-1.47,9.68-1.47s18.14,11.77,25.26,31.71l-8,2.49c0,0-4.74-7.94-9.41-13c0,0,8.1,10.7,8.38,15.07L167.47,59.67z"
				/>
			<path class="st41" d="M151.81,62.76l6.18-6.72l7.13,1.92c0,0,8.32,1.29,13.08,0c4.76-1.29,4.76-1.29,4.76-1.29l10.76-3.35
				l1.69,4.77c0.43,1.21,0,2.56-1.05,3.3c-0.93,0.66-2.02,1.39-2.72,1.69c-1.42,0.62-32.63,0.2-32.63,0.2L151.81,62.76z"/>
			<path class="st41" d="M162.11,10.53l6.19,11.52c-0.41,2.51-6.74,2.59-7.72,1.08c-0.1-0.15-0.16-0.33-0.19-0.51l-3.71-7.7
				c-0.16-0.75,1.9-3.28,2.58-3.64l2.46-1.31C162.67,9.47,158.72,9.43,162.11,10.53z"/>
			<g>
				<path class="st41" d="M149.58,7.82c0,0-0.7,3.89,2.36,8.84s6.1,4.72,7.65,2.96c1.55-1.76,3.4-4.7,2.56-9.64
					C161.3,5.05,150.63,2.86,149.58,7.82z"/>
				<path class="st44" d="M158.44,10.52c0,0-4.95-6.51-8.76-0.83l0.06,1.96c0,0-4.94-0.23-4.41-4.79c0.54-4.56,4.57-7.67,10.17-6.11
					c5.6,1.56,8.87,3.33,9.5,7.22c0.63,3.89-2.54,3.25-2.54,3.25s-1.21-2.68-2.68-2.86c-1.46-0.18-0.93,1.94-0.93,1.94L158.44,10.52
					z"/>
				<path class="st41" d="M159.58,10.35c0,0-2.57-3.33-0.23-4.02c2.34-0.69,2.25,3.26,2.1,4.73L159.58,10.35z"/>
			</g>
		</g>
		<g>
			<path class="st8" d="M172.25,65.42c-0.02,0-0.04,0-0.07,0l-28.41-0.03c-0.7,0-1.27-0.57-1.27-1.27c0-0.7,0.57-1.28,1.27-1.27
				l28.41,0.03c0.7,0,1.27,0.57,1.27,1.27C173.46,64.83,172.93,65.38,172.25,65.42z"/>
			<path class="st8" d="M118.24,39.62h23.66c1.75,0,3.33,1.01,4.08,2.59l10.94,23.19h-29.4c-1.12,0-2.14-0.69-2.55-1.73l-8.48-21.46
				C115.99,40.97,116.91,39.62,118.24,39.62z"/>
			<linearGradient id="SVGID_36_" gradientUnits="userSpaceOnUse" x1="149.3846" y1="67.5054" x2="126.9935" y2="46.2567">
				<stop  offset="0" style="stop-color:#8647E1"/>
				<stop  offset="1" style="stop-color:#B78FED"/>
			</linearGradient>
			<path class="st46" d="M134.91,51.51c0.51,1.59,0.13,3.14-0.85,3.46c-0.98,0.32-2.19-0.72-2.7-2.31
				c-0.51-1.59-0.13-3.14,0.85-3.46C133.19,48.88,134.4,49.92,134.91,51.51z"/>
		</g>
	</g>
</g>
</svg>
