<?xml version="1.0" encoding="utf-8"?>
<!-- Generator: Adobe Illustrator 25.2.1, SVG Export Plug-In . SVG Version: 6.00 Build 0)  -->
<svg version="1.1" id="Ñëîé_1" xmlns="http://www.w3.org/2000/svg" width="300" xmlns:xlink="http://www.w3.org/1999/xlink" x="0px" y="0px"
	 viewBox="0 0 294.7 302.94" style="enable-background:new 0 0 294.7 302.94;" xml:space="preserve">
<style type="text/css">
	.st0{opacity:0.3;}
	.st1{fill:#D1D4FC;}
	.st2{opacity:0.2;fill:#D1D4FC;}
	.st3{fill:url(#SVGID_1_);}
	.st4{fill:url(#SVGID_2_);}
	.st5{fill:url(#SVGID_3_);}
	.st6{fill:url(#SVGID_4_);}
	.st7{fill:#F0F1FE;}
	.st8{fill:#FFFFFF;}
	.st9{opacity:0.5;}
	.st10{fill:url(#SVGID_5_);}
	.st11{fill:url(#SVGID_6_);}
	.st12{fill:url(#SVGID_7_);}
	.st13{fill:#E83B1F;}
	.st14{fill:#5793CE;}
	.st15{fill:#E2E2E2;}
	.st16{fill:url(#SVGID_8_);}
	.st17{fill:url(#SVGID_9_);}
	.st18{fill:url(#SVGID_10_);}
	.st19{fill:url(#SVGID_11_);}
	.st20{fill:url(#SVGID_12_);}
	.st21{fill:url(#SVGID_13_);}
	.st22{fill:url(#SVGID_14_);}
	.st23{fill:url(#SVGID_15_);}
	.st24{fill:url(#SVGID_16_);}
	.st25{fill:url(#SVGID_17_);}
	.st26{fill:url(#SVGID_18_);}
	.st27{fill:url(#SVGID_19_);}
	.st28{fill:url(#SVGID_20_);}
	.st29{fill:url(#SVGID_21_);}
	.st30{fill:url(#SVGID_22_);}
	.st31{fill:url(#SVGID_23_);}
	.st32{fill:url(#SVGID_24_);}
	.st33{fill:url(#SVGID_25_);}
	.st34{fill:url(#SVGID_26_);}
	.st35{fill:url(#SVGID_27_);}
	.st36{fill:url(#SVGID_28_);}
	.st37{fill:url(#SVGID_29_);}
	.st38{fill:url(#SVGID_30_);}
	.st39{fill:url(#SVGID_31_);}
	.st40{fill:#D4ECFF;}
	.st41{fill:url(#SVGID_32_);}
	.st42{fill:url(#SVGID_33_);}
	.st43{fill:url(#SVGID_34_);}
	.st44{fill:url(#SVGID_35_);}
	.st45{fill:url(#SVGID_36_);}
	.st46{fill:url(#SVGID_37_);}
	.st47{fill:url(#SVGID_38_);}
	.st48{fill:url(#SVGID_39_);}
	.st49{fill:url(#SVGID_40_);}
	.st50{fill:url(#SVGID_41_);}
	.st51{fill:url(#SVGID_42_);}
	.st52{fill:url(#SVGID_43_);}
	.st53{fill:url(#SVGID_44_);}
	.st54{fill:url(#SVGID_45_);}
	.st55{fill:url(#SVGID_46_);}
	.st56{fill:url(#SVGID_47_);}
	.st57{fill:url(#SVGID_48_);}
	.st58{fill:url(#SVGID_49_);}
	.st59{fill:url(#SVGID_50_);}
	.st60{fill:url(#SVGID_51_);}
	.st61{fill:url(#SVGID_52_);}
	.st62{fill:url(#SVGID_53_);}
	.st63{fill:url(#SVGID_54_);}
	.st64{fill:url(#SVGID_55_);}
	.st65{fill:url(#SVGID_56_);}
	.st66{fill:url(#SVGID_57_);}
	.st67{fill:url(#SVGID_58_);}
	.st68{fill:url(#SVGID_59_);}
	.st69{fill:url(#SVGID_60_);}
	.st70{fill:#E0E3FD;}
	.st71{fill:url(#SVGID_61_);}
	.st72{fill:url(#SVGID_62_);}
	.st73{fill:url(#SVGID_63_);}
	.st74{fill:#C1C6F4;}
	.st75{fill:#EAEAEA;}
	.st76{fill:#814D4D;}
	.st77{fill:url(#SVGID_64_);}
	.st78{fill:url(#SVGID_65_);}
	.st79{fill:url(#SVGID_66_);}
	.st80{fill:url(#SVGID_67_);}
	.st81{fill:url(#SVGID_68_);}
	.st82{fill:#FFD6D6;}
	.st83{fill:#450606;}
	.st84{fill:url(#SVGID_69_);}
	.st85{fill:url(#SVGID_70_);}
	.st86{fill:url(#SVGID_71_);}
	.st87{fill:url(#SVGID_72_);}
	.st88{fill:url(#SVGID_73_);}
	.st89{fill:#FFC2B0;}
	.st90{fill:url(#SVGID_74_);}
	.st91{fill:url(#SVGID_75_);}
	.st92{fill:url(#SVGID_76_);}
	.st93{fill:url(#SVGID_77_);}
	.st94{fill:url(#SVGID_78_);}
	.st95{fill:url(#SVGID_79_);}
	.st96{fill:url(#SVGID_80_);}
	.st97{fill:url(#SVGID_81_);}
	.st98{fill:url(#SVGID_82_);}
	.st99{fill:url(#SVGID_83_);}
	.st100{fill:url(#SVGID_84_);}
	.st101{fill:url(#SVGID_85_);}
	.st102{fill:url(#SVGID_86_);}
	.st103{fill:url(#SVGID_87_);}
</style>
<g>
	<g class="st0">
		<path class="st1" d="M294.7,97.24v85.27c0,2.9-2.03,4.07-4.54,2.62l-115.2-66.51c-2.51-1.45-4.54-4.97-4.54-7.86V25.48
			L294.7,97.24z"/>
	</g>
	<path class="st1" d="M196.43,179.77c-0.23,0-0.46-0.12-0.58-0.34c-0.19-0.32-0.08-0.73,0.25-0.92l9.11-5.27
		c1.03-0.6,1.67-1.71,1.67-2.9v-7.05c0-0.37,0.3-0.67,0.67-0.67c0.37,0,0.67,0.3,0.67,0.67v7.05c0,1.67-0.9,3.23-2.35,4.07
		l-9.11,5.27C196.66,179.74,196.55,179.77,196.43,179.77z"/>
	<g>
		<g>
			<g>
				<g>
					
						<rect x="189.4" y="175.54" transform="matrix(0.4974 0.8675 -0.8675 0.4974 254.0462 -75.4877)" class="st1" width="5.55" height="11.97"/>
					<path class="st1" d="M199.32,179.68c0-1.25-0.87-2.77-1.95-3.4s-1.96-0.12-1.96,1.13c0,1.25,0.87,2.77,1.95,3.4
						C198.44,181.44,199.32,180.93,199.32,179.68z"/>
				</g>
				<g>
					
						<rect x="176.16" y="178.74" transform="matrix(0.4974 0.8675 -0.8675 0.4974 253.9882 -62.1756)" class="st1" width="8.99" height="18.77"/>
					<path class="st1" d="M187.31,181.11l3.51-2.01c1.45,1.04,2.59,3.03,2.76,4.81l-3.51,2.01
						C188.62,184.88,187.48,182.89,187.31,181.11z"/>
					<path class="st1" d="M191.97,185.3c0.01-2.03-1.41-4.49-3.16-5.51c-1.75-1.02-3.18-0.2-3.18,1.82
						c-0.01,2.03,1.41,4.49,3.16,5.51C190.54,188.14,191.96,187.33,191.97,185.3z"/>
				</g>
			</g>
		</g>
		<path class="st1" d="M196.05,178.4c0.51-0.29,0.51-0.77,0-1.06s-1.33-0.3-1.84-0.01c-0.51,0.29-0.51,0.77,0,1.06
			C194.72,178.69,195.54,178.69,196.05,178.4z"/>
	</g>
	<path class="st1" d="M56.21,180.92c-0.11,0-0.23-0.03-0.33-0.09l-7.98-4.59c-0.67-0.38-1.06-1.07-1.06-1.85
		c0.01-0.77,0.42-1.45,1.09-1.83l51.71-28.31c4.76-2.61,7.72-7.6,7.72-13.03V66.96c0-1.11-0.57-2.11-1.52-2.68
		c-0.95-0.57-2.11-0.59-3.08-0.06l-17.24,9.4c-0.33,0.18-0.73,0.06-0.91-0.27c-0.18-0.33-0.06-0.73,0.27-0.91l17.24-9.4
		c1.4-0.76,3.04-0.73,4.41,0.08c1.37,0.81,2.18,2.24,2.18,3.83v64.26c0,5.92-3.23,11.37-8.42,14.21l-51.71,28.31
		c-0.35,0.19-0.39,0.53-0.4,0.66c0,0.13,0.03,0.47,0.38,0.67l7.98,4.59c0.32,0.18,0.43,0.6,0.25,0.92
		C56.67,180.8,56.44,180.92,56.21,180.92z"/>
	<g>
		<g>
			<g>
				<g>
					
						<rect x="80.77" y="68.32" transform="matrix(0.4974 0.8675 -0.8675 0.4974 106.4465 -35.1345)" class="st1" width="5.55" height="11.97"/>
					<path class="st1" d="M90.7,72.47c0-1.25-0.87-2.77-1.95-3.4c-1.08-0.63-1.96-0.12-1.96,1.13c0,1.25,0.87,2.77,1.95,3.4
						C89.81,74.22,90.69,73.72,90.7,72.47z"/>
				</g>
				<g>
					
						<rect x="67.53" y="71.52" transform="matrix(0.4974 0.8675 -0.8675 0.4974 106.3864 -21.8229)" class="st1" width="8.99" height="18.77"/>
					<path class="st1" d="M78.68,73.9l3.51-2.01c1.45,1.04,2.59,3.03,2.76,4.81l-3.51,2.01C79.99,77.66,78.85,75.68,78.68,73.9z"/>
					<path class="st1" d="M83.34,78.08c0.01-2.03-1.41-4.49-3.16-5.51C78.43,71.55,77,72.37,77,74.4c-0.01,2.03,1.41,4.49,3.16,5.51
						C81.91,80.93,83.34,80.11,83.34,78.08z"/>
				</g>
			</g>
		</g>
		<path class="st1" d="M87.42,71.18c0.51-0.29,0.51-0.77,0-1.06s-1.33-0.3-1.84-0.01c-0.51,0.29-0.51,0.77,0,1.06
			C86.09,71.47,86.91,71.47,87.42,71.18z"/>
	</g>
	<g>
		<g>
			<g>
				<g>
					
						<rect x="54.85" y="174.78" transform="matrix(-0.4975 0.8675 -0.8675 -0.4975 243.0917 220.6969)" class="st1" width="5.55" height="11.97"/>
					<path class="st1" d="M50.47,178.92c0-1.25,0.87-2.77,1.95-3.4c1.08-0.63,1.96-0.12,1.96,1.13c0,1.25-0.87,2.77-1.95,3.4
						S50.47,180.17,50.47,178.92z"/>
				</g>
				<g>
					
						<rect x="64.64" y="177.98" transform="matrix(-0.4974 0.8675 -0.8675 -0.4974 266.0703 220.5944)" class="st1" width="8.99" height="18.77"/>
					<path class="st1" d="M62.48,180.35l-3.51-2.01c-1.45,1.04-2.59,3.03-2.76,4.81l3.51,2.01
						C61.18,184.12,62.32,182.13,62.48,180.35z"/>
					<path class="st1" d="M57.82,184.54c-0.01-2.03,1.41-4.49,3.16-5.51c1.75-1.02,3.18-0.2,3.18,1.82
						c0.01,2.03-1.41,4.49-3.16,5.51C59.26,187.39,57.83,186.57,57.82,184.54z"/>
				</g>
			</g>
		</g>
		<path class="st1" d="M53.75,177.64c-0.51-0.29-0.51-0.77,0-1.06c0.51-0.29,1.33-0.3,1.84-0.01c0.51,0.29,0.51,0.77,0,1.06
			C55.08,177.93,54.25,177.93,53.75,177.64z"/>
	</g>
	<g>
		<g>
			<path class="st2" d="M153.07,290.26L38.44,224.08c-3.24-1.87-2.84-5.14,0.91-7.3l78.05-45.05c3.74-2.16,9.41-2.4,12.65-0.52
				l114.63,66.18c3.24,1.87,2.84,5.14-0.91,7.3l-78.05,45.05C161.97,291.9,156.31,292.13,153.07,290.26z"/>
			<linearGradient id="SVGID_1_" gradientUnits="userSpaceOnUse" x1="36.2544" y1="222.3167" x2="246.8685" y2="222.3167">
				<stop  offset="0" style="stop-color:#8647E1"/>
				<stop  offset="1" style="stop-color:#B78FED"/>
			</linearGradient>
			<path class="st3" d="M246.87,225.02l-15.67-2.07l-101.15-58.4c-3.24-1.87-8.91-1.64-12.65,0.52l-71.67,41.36l-9.47-1.25v5.38
				l0.01,0c-0.06,1.24,0.65,2.44,2.18,3.32l114.63,66.18c3.24,1.87,8.91,1.64,12.65-0.52l78.05-45.05c2.11-1.22,3.16-2.78,3.09-4.25
				l0,0V225.02z"/>
			<linearGradient id="SVGID_2_" gradientUnits="userSpaceOnUse" x1="49.9329" y1="170.6432" x2="151.4223" y2="228.09">
				<stop  offset="0" style="stop-color:#8647E1"/>
				<stop  offset="1" style="stop-color:#B78FED"/>
			</linearGradient>
			<path class="st4" d="M170.87,188.12l-7.19-4.15h-79l-38.95,22.47l-9.47-1.25v5.38l0.01,0c-0.06,1.24,0.65,2.44,2.18,3.32
				l114.63,66.18c1.71,0.99,4.1,1.38,6.53,1.22L170.87,188.12z"/>
			<linearGradient id="SVGID_3_" gradientUnits="userSpaceOnUse" x1="30.5883" y1="204.8188" x2="132.0776" y2="262.2656">
				<stop  offset="0" style="stop-color:#8647E1"/>
				<stop  offset="1" style="stop-color:#B78FED"/>
			</linearGradient>
			<path class="st5" d="M40.46,205.75l-4.2-0.56v5.38l0.01,0c-0.06,1.24,0.65,2.44,2.18,3.32l2.02,1.17V205.75z"/>
			<linearGradient id="SVGID_4_" gradientUnits="userSpaceOnUse" x1="154.2213" y1="274.644" x2="164.9705" y2="274.644">
				<stop  offset="0" style="stop-color:#8647E1"/>
				<stop  offset="1" style="stop-color:#B78FED"/>
			</linearGradient>
			<path class="st6" d="M154.22,280.61c3.07,1.17,7.47,0.91,10.75-0.67v-11.99h-10.75V280.61z"/>
			<path class="st7" d="M153.07,274.71L38.44,208.52c-3.24-1.87-2.84-5.14,0.91-7.3l78.05-45.05c3.74-2.16,9.41-2.4,12.65-0.52
				l114.63,66.18c3.24,1.87,2.84,5.14-0.91,7.3l-78.05,45.05C161.97,276.34,156.31,276.58,153.07,274.71z"/>
			<path class="st8" d="M243.77,227.17l-78.05,45.05c-3.74,2.16-9.41,2.4-12.65,0.52L38.44,206.56c-1.06-0.61-1.73-1.38-2.02-2.21
				c-0.51,1.53,0.14,3.09,2.02,4.17l114.63,66.18c3.24,1.87,8.91,1.64,12.65-0.52l78.05-45.05c2.52-1.45,3.52-3.41,2.92-5.1
				C246.33,225.15,245.35,226.26,243.77,227.17z"/>
			<g>
				<path class="st1" d="M125.88,208.95l-8.29-4.79c-0.42-0.24-0.36-0.66,0.12-0.94l6.12-3.53c0.48-0.28,1.21-0.31,1.62-0.07
					l8.29,4.79c0.42,0.24,0.36,0.66-0.12,0.94l-6.12,3.53C127.03,209.16,126.3,209.19,125.88,208.95z"/>
				<g>
					<path class="st1" d="M87.19,186.62l-5.19-2.99c-0.42-0.24-0.36-0.66,0.12-0.94l6.12-3.53c0.48-0.28,1.21-0.31,1.62-0.07
						l5.19,2.99c0.42,0.24,0.36,0.66-0.12,0.94l-6.12,3.53C88.34,186.83,87.61,186.86,87.19,186.62z"/>
					<path class="st1" d="M95.2,191.24l-5.19-2.99c-0.42-0.24-0.36-0.66,0.12-0.94l6.12-3.53c0.48-0.28,1.21-0.31,1.62-0.07
						l5.19,2.99c0.42,0.24,0.36,0.66-0.12,0.94l-6.12,3.53C96.35,191.45,95.62,191.48,95.2,191.24z"/>
					<path class="st1" d="M103.21,195.86l-5.19-2.99c-0.42-0.24-0.36-0.66,0.12-0.94l6.12-3.53c0.48-0.28,1.21-0.31,1.62-0.07
						l5.19,2.99c0.42,0.24,0.36,0.66-0.12,0.94l-6.12,3.53C104.35,196.07,103.63,196.1,103.21,195.86z"/>
					<path class="st1" d="M114.29,192.04l-5.19-2.99c-0.42-0.24-0.36-0.66,0.12-0.94l5.14-2.97c0.48-0.28,1.21-0.31,1.62-0.07
						l5.19,2.99c0.42,0.24,0.36,0.66-0.12,0.94l-5.14,2.97C115.43,192.25,114.7,192.29,114.29,192.04z"/>
					<path class="st1" d="M122.3,196.67l-5.19-2.99c-0.42-0.24-0.36-0.66,0.12-0.94l5.14-2.97c0.48-0.28,1.21-0.31,1.62-0.07
						l5.19,2.99c0.42,0.24,0.36,0.66-0.12,0.94l-5.14,2.97C123.44,196.88,122.71,196.91,122.3,196.67z"/>
					<path class="st1" d="M130.31,201.29l-5.19-2.99c-0.42-0.24-0.36-0.66,0.12-0.94l5.14-2.97c0.48-0.28,1.21-0.31,1.62-0.07
						l5.19,2.99c0.42,0.24,0.36,0.66-0.12,0.94l-5.14,2.97C131.45,201.5,130.72,201.53,130.31,201.29z"/>
					<path class="st1" d="M138.32,205.92l-5.19-2.99c-0.42-0.24-0.36-0.66,0.12-0.94l5.14-2.97c0.48-0.28,1.21-0.31,1.62-0.07
						l5.19,2.99c0.42,0.24,0.36,0.66-0.12,0.94l-5.14,2.97C139.46,206.13,138.73,206.16,138.32,205.92z"/>
					<path class="st1" d="M146.33,210.54l-5.19-2.99c-0.42-0.24-0.36-0.66,0.12-0.94l5.14-2.97c0.48-0.28,1.21-0.31,1.62-0.07
						l5.19,2.99c0.42,0.24,0.36,0.66-0.12,0.94l-5.14,2.97C147.47,210.75,146.74,210.78,146.33,210.54z"/>
					<path class="st1" d="M154.34,215.17l-5.19-2.99c-0.42-0.24-0.36-0.66,0.12-0.94l5.14-2.97c0.48-0.28,1.21-0.31,1.62-0.07
						l5.19,2.99c0.42,0.24,0.36,0.66-0.12,0.94l-5.14,2.97C155.48,215.38,154.75,215.41,154.34,215.17z"/>
					<path class="st1" d="M162.34,219.79l-5.19-2.99c-0.42-0.24-0.36-0.66,0.12-0.94l5.14-2.97c0.48-0.28,1.21-0.31,1.62-0.07
						l5.19,2.99c0.42,0.24,0.36,0.66-0.12,0.94l-5.14,2.97C163.49,220,162.76,220.03,162.34,219.79z"/>
					<path class="st1" d="M170.35,224.41l-5.19-2.99c-0.42-0.24-0.36-0.66,0.12-0.94l5.14-2.97c0.48-0.28,1.21-0.31,1.62-0.07
						l5.19,2.99c0.42,0.24,0.36,0.66-0.12,0.94l-5.14,2.97C171.5,224.62,170.77,224.65,170.35,224.41z"/>
					<path class="st1" d="M178.36,229.04l-5.19-2.99c-0.42-0.24-0.36-0.66,0.12-0.94l5.14-2.97c0.48-0.28,1.21-0.31,1.62-0.07
						l5.19,2.99c0.42,0.24,0.36,0.66-0.12,0.94l-5.14,2.97C179.51,229.25,178.78,229.28,178.36,229.04z"/>
					<path class="st1" d="M186.37,233.66l-5.19-2.99c-0.42-0.24-0.36-0.66,0.12-0.94l5.14-2.97c0.48-0.28,1.21-0.31,1.62-0.07
						l5.19,2.99c0.42,0.24,0.36,0.66-0.12,0.94L188,233.6C187.52,233.87,186.79,233.9,186.37,233.66z"/>
					<path class="st1" d="M126.09,189.86l-5.19-2.99c-0.42-0.24-0.36-0.66,0.12-0.94l5.14-2.97c0.48-0.28,1.21-0.31,1.62-0.07
						l5.19,2.99c0.42,0.24,0.36,0.66-0.12,0.94l-5.14,2.97C127.23,190.07,126.51,190.1,126.09,189.86z"/>
					<path class="st1" d="M117.96,185.16l-5.19-2.99c-0.42-0.24-0.36-0.66,0.12-0.94l5.14-2.97c0.48-0.28,1.21-0.31,1.62-0.07
						l5.19,2.99c0.42,0.24,0.36,0.66-0.12,0.94l-5.14,2.97C119.1,185.37,118.38,185.4,117.96,185.16z"/>
					<path class="st1" d="M109.82,180.46l-11.17-6.45c-0.42-0.24-0.36-0.66,0.12-0.94l5.14-2.97c0.48-0.28,1.21-0.31,1.62-0.07
						l11.17,6.45c0.42,0.24,0.36,0.66-0.12,0.94l-5.14,2.97C110.96,180.67,110.23,180.7,109.82,180.46z"/>
					<path class="st1" d="M115.51,174.74l-9.07-5.23c-0.42-0.24-0.36-0.66,0.12-0.94l5.14-2.97c0.48-0.28,1.21-0.31,1.62-0.07
						l9.07,5.23c0.42,0.24,0.36,0.66-0.12,0.94l-5.14,2.97C116.65,174.95,115.93,174.98,115.51,174.74z"/>
					<path class="st1" d="M134.1,194.48l-5.19-2.99c-0.42-0.24-0.36-0.66,0.12-0.94l5.14-2.97c0.48-0.28,1.21-0.31,1.62-0.07
						l5.19,2.99c0.42,0.24,0.36,0.66-0.12,0.94l-5.14,2.97C135.24,194.69,134.52,194.72,134.1,194.48z"/>
					<path class="st1" d="M142.11,199.1l-5.19-2.99c-0.42-0.24-0.36-0.66,0.12-0.94l5.14-2.97c0.48-0.28,1.21-0.31,1.62-0.07
						l5.19,2.99c0.42,0.24,0.36,0.66-0.12,0.94l-5.14,2.97C143.25,199.31,142.52,199.34,142.11,199.1z"/>
					<path class="st1" d="M150.12,203.73l-5.19-2.99c-0.42-0.24-0.36-0.66,0.12-0.94l5.14-2.97c0.48-0.28,1.21-0.31,1.62-0.07
						l5.19,2.99c0.42,0.24,0.36,0.66-0.12,0.94l-5.14,2.97C151.26,203.94,150.53,203.97,150.12,203.73z"/>
					<path class="st1" d="M158.13,208.35l-5.19-2.99c-0.42-0.24-0.36-0.66,0.12-0.94l5.14-2.97c0.48-0.28,1.21-0.31,1.62-0.07
						l5.19,2.99c0.42,0.24,0.36,0.66-0.12,0.94l-5.14,2.97C159.27,208.56,158.54,208.59,158.13,208.35z"/>
					<path class="st1" d="M166.14,212.98l-5.19-2.99c-0.42-0.24-0.36-0.66,0.12-0.94l5.14-2.97c0.48-0.28,1.21-0.31,1.62-0.07
						l5.19,2.99c0.42,0.24,0.36,0.66-0.12,0.94l-5.14,2.97C167.28,213.19,166.55,213.22,166.14,212.98z"/>
					<path class="st1" d="M174.15,217.6l-5.19-2.99c-0.42-0.24-0.36-0.66,0.12-0.94l5.14-2.97c0.48-0.28,1.21-0.31,1.62-0.07
						l5.19,2.99c0.42,0.24,0.36,0.66-0.12,0.94l-5.14,2.97C175.29,217.81,174.56,217.84,174.15,217.6z"/>
					<path class="st1" d="M182.16,222.23l-5.19-2.99c-0.42-0.24-0.36-0.66,0.12-0.94l5.14-2.97c0.48-0.28,1.21-0.31,1.62-0.07
						l5.19,2.99c0.42,0.24,0.36,0.66-0.12,0.94l-5.14,2.97C183.3,222.44,182.57,222.47,182.16,222.23z"/>
					<path class="st1" d="M190.17,226.85l-5.19-2.99c-0.42-0.24-0.36-0.66,0.12-0.94l5.14-2.97c0.48-0.28,1.21-0.31,1.62-0.07
						l5.19,2.99c0.42,0.24,0.36,0.66-0.12,0.94l-5.14,2.97C191.31,227.06,190.58,227.09,190.17,226.85z"/>
					<path class="st1" d="M198.17,231.47l-5.19-2.99c-0.42-0.24-0.36-0.66,0.12-0.94l5.14-2.97c0.48-0.28,1.21-0.31,1.62-0.07
						l5.19,2.99c0.42,0.24,0.36,0.66-0.12,0.94l-5.14,2.97C199.32,231.68,198.59,231.71,198.17,231.47z"/>
					<path class="st1" d="M212.41,239.69l-11.32-6.53c-0.42-0.24-0.36-0.66,0.12-0.94l5.14-2.97c0.48-0.28,1.21-0.31,1.62-0.07
						l11.32,6.53c0.42,0.24,0.36,0.66-0.12,0.94l-5.14,2.97C213.56,239.9,212.83,239.93,212.41,239.69z"/>
					<path class="st1" d="M228.01,230.69l-9.55-5.51c-0.42-0.24-0.36-0.66,0.12-0.94l5.14-2.97c0.48-0.28,1.21-0.31,1.62-0.07
						l9.55,5.51c0.42,0.24,0.36,0.66-0.12,0.94l-5.14,2.97C229.15,230.9,228.42,230.93,228.01,230.69z"/>
					<path class="st1" d="M148.13,193.57l-5.19-2.99c-0.42-0.24-0.36-0.66,0.12-0.94l5.14-2.97c0.48-0.28,1.21-0.31,1.62-0.07
						l5.19,2.99c0.42,0.24,0.36,0.66-0.12,0.94l-5.14,2.97C149.27,193.79,148.54,193.82,148.13,193.57z"/>
					<path class="st1" d="M139.92,188.84l-5.19-2.99c-0.42-0.24-0.36-0.66,0.12-0.94l5.14-2.97c0.48-0.28,1.21-0.31,1.62-0.07
						l5.19,2.99c0.42,0.24,0.36,0.66-0.12,0.94l-5.14,2.97C141.06,189.05,140.33,189.08,139.92,188.84z"/>
					<path class="st1" d="M131.71,184.1l-5.19-2.99c-0.42-0.24-0.36-0.66,0.12-0.94l5.14-2.97c0.48-0.28,1.21-0.31,1.62-0.07
						l5.19,2.99c0.42,0.24,0.36,0.66-0.12,0.94l-5.14,2.97C132.85,184.31,132.12,184.34,131.71,184.1z"/>
					<path class="st1" d="M123.5,179.36l-5.19-2.99c-0.42-0.24-0.36-0.66,0.12-0.94l5.14-2.97c0.48-0.28,1.21-0.31,1.62-0.07
						l5.19,2.99c0.42,0.24,0.36,0.66-0.12,0.94l-5.14,2.97C124.64,179.57,123.92,179.6,123.5,179.36z"/>
					<path class="st1" d="M156.13,198.2l-5.19-2.99c-0.42-0.24-0.36-0.66,0.12-0.94l5.14-2.97c0.48-0.28,1.21-0.31,1.62-0.07
						l5.19,2.99c0.42,0.24,0.36,0.66-0.12,0.94l-5.14,2.97C157.28,198.41,156.55,198.44,156.13,198.2z"/>
					<path class="st1" d="M164.14,202.82l-5.19-2.99c-0.42-0.24-0.36-0.66,0.12-0.94l5.14-2.97c0.48-0.28,1.21-0.31,1.62-0.07
						l5.19,2.99c0.42,0.24,0.36,0.66-0.12,0.94l-5.14,2.97C165.29,203.03,164.56,203.06,164.14,202.82z"/>
					<path class="st1" d="M172.15,207.45l-5.19-2.99c-0.42-0.24-0.36-0.66,0.12-0.94l5.14-2.97c0.48-0.28,1.21-0.31,1.62-0.07
						l5.19,2.99c0.42,0.24,0.36,0.66-0.12,0.94l-5.14,2.97C173.3,207.66,172.57,207.69,172.15,207.45z"/>
					<path class="st1" d="M180.16,212.07l-5.19-2.99c-0.42-0.24-0.36-0.66,0.12-0.94l5.14-2.97c0.48-0.28,1.21-0.31,1.62-0.07
						l5.19,2.99c0.42,0.24,0.36,0.66-0.12,0.94l-5.14,2.97C181.31,212.28,180.58,212.31,180.16,212.07z"/>
					<path class="st1" d="M188.17,216.7l-5.19-2.99c-0.42-0.24-0.36-0.66,0.12-0.94l5.14-2.97c0.48-0.28,1.21-0.31,1.62-0.07
						l5.19,2.99c0.42,0.24,0.36,0.66-0.12,0.94l-5.14,2.97C189.32,216.91,188.59,216.94,188.17,216.7z"/>
					<path class="st1" d="M196.18,221.32l-5.19-2.99c-0.42-0.24-0.36-0.66,0.12-0.94l5.14-2.97c0.48-0.28,1.21-0.31,1.62-0.07
						l5.19,2.99c0.42,0.24,0.36,0.66-0.12,0.94l-5.14,2.97C197.33,221.53,196.6,221.56,196.18,221.32z"/>
					<path class="st1" d="M204.19,225.94l-5.19-2.99c-0.42-0.24-0.36-0.66,0.12-0.94l5.14-2.97c0.48-0.28,1.21-0.31,1.62-0.07
						l5.19,2.99c0.42,0.24,0.36,0.66-0.12,0.94l-5.14,2.97C205.34,226.15,204.61,226.19,204.19,225.94z"/>
					<path class="st1" d="M212.2,230.57l-5.19-2.99c-0.42-0.24-0.36-0.66,0.12-0.94l5.14-2.97c0.48-0.28,1.21-0.31,1.62-0.07
						l5.19,2.99c0.42,0.24,0.36,0.66-0.12,0.94l-5.14,2.97C213.34,230.78,212.62,230.81,212.2,230.57z"/>
					<path class="st1" d="M220.21,235.19l-5.19-2.99c-0.42-0.24-0.36-0.66,0.12-0.94l5.14-2.97c0.48-0.28,1.21-0.31,1.62-0.07
						l5.19,2.99c0.42,0.24,0.36,0.66-0.12,0.94l-5.14,2.97C221.35,235.4,220.63,235.43,220.21,235.19z"/>
					<path class="st1" d="M143.91,182.14l-5.19-2.99c-0.42-0.24-0.36-0.66,0.12-0.94l5.14-2.97c0.48-0.28,1.21-0.31,1.62-0.07
						l5.19,2.99c0.42,0.24,0.36,0.66-0.12,0.94l-5.14,2.97C145.05,182.35,144.32,182.38,143.91,182.14z"/>
					<path class="st1" d="M135.94,177.54l-5.19-2.99c-0.42-0.24-0.36-0.66,0.12-0.94l5.14-2.97c0.48-0.28,1.21-0.31,1.62-0.07
						l5.19,2.99c0.42,0.24,0.36,0.66-0.12,0.94l-5.14,2.97C137.08,177.75,136.35,177.78,135.94,177.54z"/>
					<path class="st1" d="M127.97,172.93l-5.19-2.99c-0.42-0.24-0.36-0.66,0.12-0.94l5.14-2.97c0.48-0.28,1.21-0.31,1.62-0.07
						l5.19,2.99c0.42,0.24,0.36,0.66-0.12,0.94l-5.14,2.97C129.11,173.14,128.39,173.17,127.97,172.93z"/>
					<path class="st1" d="M120,168.33l-5.19-2.99c-0.42-0.24-0.36-0.66,0.12-0.94l5.14-2.97c0.48-0.28,1.21-0.31,1.62-0.07
						l5.19,2.99c0.42,0.24,0.36,0.66-0.12,0.94l-5.14,2.97C121.14,168.54,120.42,168.57,120,168.33z"/>
					<path class="st1" d="M128.19,163.6l-5.19-2.99c-0.42-0.24-0.36-0.66,0.12-0.94l1.7-0.98c0.48-0.28,1.21-0.31,1.62-0.07
						l5.19,2.99c0.42,0.24,0.36,0.66-0.12,0.94l-1.7,0.98C129.34,163.81,128.61,163.84,128.19,163.6z"/>
					<path class="st1" d="M138.59,169.61l-5.19-2.99c-0.42-0.24-0.36-0.66,0.12-0.94l1.7-0.98c0.48-0.28,1.21-0.31,1.62-0.07
						l5.19,2.99c0.42,0.24,0.36,0.66-0.12,0.94l-1.7,0.98C139.74,169.82,139.01,169.85,138.59,169.61z"/>
					<path class="st1" d="M146.53,174.19l-5.19-2.99c-0.42-0.24-0.36-0.66,0.12-0.94l1.7-0.98c0.48-0.28,1.21-0.31,1.62-0.07
						l5.19,2.99c0.42,0.24,0.36,0.66-0.12,0.94l-1.7,0.98C147.67,174.4,146.95,174.43,146.53,174.19z"/>
					<path class="st1" d="M154.47,178.77l-5.19-2.99c-0.42-0.24-0.36-0.66,0.12-0.94l1.7-0.98c0.48-0.28,1.21-0.31,1.62-0.07
						l5.19,2.99c0.42,0.24,0.36,0.66-0.12,0.94l-1.7,0.98C155.61,178.98,154.88,179.01,154.47,178.77z"/>
					<path class="st1" d="M162.4,183.35l-5.19-2.99c-0.42-0.24-0.36-0.66,0.12-0.94l1.7-0.98c0.48-0.28,1.21-0.31,1.62-0.07
						l5.19,2.99c0.42,0.24,0.36,0.66-0.12,0.94l-1.7,0.98C163.55,183.56,162.82,183.59,162.4,183.35z"/>
					<path class="st1" d="M206.71,208.93l-5.19-2.99c-0.42-0.24-0.36-0.66,0.12-0.94l1.7-0.98c0.48-0.28,1.21-0.31,1.62-0.07
						l5.19,2.99c0.42,0.24,0.36,0.66-0.12,0.94l-1.7,0.98C207.86,209.14,207.13,209.17,206.71,208.93z"/>
					<path class="st1" d="M214.65,213.52l-5.19-2.99c-0.42-0.24-0.36-0.66,0.12-0.94l1.7-0.98c0.48-0.28,1.21-0.31,1.62-0.07
						l5.19,2.99c0.42,0.24,0.36,0.66-0.12,0.94l-1.7,0.98C215.79,213.73,215.06,213.76,214.65,213.52z"/>
					<path class="st1" d="M222.58,218.1l-5.19-2.99c-0.42-0.24-0.36-0.66,0.12-0.94l1.7-0.98c0.48-0.28,1.21-0.31,1.62-0.07
						l5.19,2.99c0.42,0.24,0.36,0.66-0.12,0.94l-1.7,0.98C223.73,218.31,223,218.34,222.58,218.1z"/>
					<path class="st1" d="M230.52,222.68l-5.19-2.99c-0.42-0.24-0.36-0.66,0.12-0.94l1.7-0.98c0.48-0.28,1.21-0.31,1.62-0.07
						l5.19,2.99c0.42,0.24,0.36,0.66-0.12,0.94l-1.7,0.98C231.66,222.89,230.94,222.92,230.52,222.68z"/>
					<path class="st1" d="M151.92,186.76l-5.19-2.99c-0.42-0.24-0.36-0.66,0.12-0.94l5.14-2.97c0.48-0.28,1.21-0.31,1.62-0.07
						l5.19,2.99c0.42,0.24,0.36,0.66-0.12,0.94l-5.14,2.97C153.06,186.97,152.33,187,151.92,186.76z"/>
					<path class="st1" d="M159.93,191.39l-5.19-2.99c-0.42-0.24-0.36-0.66,0.12-0.94l5.14-2.97c0.48-0.28,1.21-0.31,1.62-0.07
						l5.19,2.99c0.42,0.24,0.36,0.66-0.12,0.94l-5.14,2.97C161.07,191.6,160.34,191.63,159.93,191.39z"/>
					<path class="st1" d="M167.94,196.01l-5.19-2.99c-0.42-0.24-0.36-0.66,0.12-0.94l5.14-2.97c0.48-0.28,1.21-0.31,1.62-0.07
						l5.19,2.99c0.42,0.24,0.36,0.66-0.12,0.94l-5.14,2.97C169.08,196.22,168.35,196.25,167.94,196.01z"/>
					<path class="st1" d="M175.95,200.63l-5.19-2.99c-0.42-0.24-0.36-0.66,0.12-0.94l5.14-2.97c0.48-0.28,1.21-0.31,1.62-0.07
						l5.19,2.99c0.42,0.24,0.36,0.66-0.12,0.94l-5.14,2.97C177.09,200.84,176.36,200.87,175.95,200.63z"/>
					<path class="st1" d="M183.96,205.26l-5.19-2.99c-0.42-0.24-0.36-0.66,0.12-0.94l5.14-2.97c0.48-0.28,1.21-0.31,1.62-0.07
						l5.19,2.99c0.42,0.24,0.36,0.66-0.12,0.94l-5.14,2.97C185.1,205.47,184.37,205.5,183.96,205.26z"/>
					<path class="st1" d="M191.96,209.88l-5.19-2.99c-0.42-0.24-0.36-0.66,0.12-0.94l5.14-2.97c0.48-0.28,1.21-0.31,1.62-0.07
						l5.19,2.99c0.42,0.24,0.36,0.66-0.12,0.94l-5.14,2.97C193.11,210.09,192.38,210.12,191.96,209.88z"/>
					<path class="st1" d="M199.97,214.51l-5.19-2.99c-0.42-0.24-0.36-0.66,0.12-0.94l5.14-2.97c0.48-0.28,1.21-0.31,1.62-0.07
						l5.19,2.99c0.42,0.24,0.36,0.66-0.12,0.94l-5.14,2.97C201.12,214.72,200.39,214.75,199.97,214.51z"/>
					<path class="st1" d="M207.98,219.13l-5.19-2.99c-0.42-0.24-0.36-0.66,0.12-0.94l5.14-2.97c0.48-0.28,1.21-0.31,1.62-0.07
						l5.19,2.99c0.42,0.24,0.36,0.66-0.12,0.94l-5.14,2.97C209.13,219.34,208.4,219.37,207.98,219.13z"/>
					<path class="st1" d="M215.99,223.76l-5.19-2.99c-0.42-0.24-0.36-0.66,0.12-0.94l5.14-2.97c0.48-0.28,1.21-0.31,1.62-0.07
						l5.19,2.99c0.42,0.24,0.36,0.66-0.12,0.94l-5.14,2.97C217.14,223.97,216.41,224,215.99,223.76z"/>
					<path class="st1" d="M106.13,187.33l-15.27-8.82c-0.42-0.24-0.36-0.66,0.12-0.94l5.14-2.97c0.48-0.28,1.21-0.31,1.62-0.07
						l15.27,8.82c0.42,0.24,0.36,0.66-0.12,0.94l-5.14,2.97C107.27,187.54,106.54,187.57,106.13,187.33z"/>
					<path class="st1" d="M204.52,244.14l-15.27-8.82c-0.42-0.24-0.36-0.66,0.12-0.94l5.14-2.97c0.48-0.28,1.21-0.31,1.62-0.07
						l15.27,8.82c0.42,0.24,0.36,0.66-0.12,0.94l-5.14,2.97C205.67,244.35,204.94,244.38,204.52,244.14z"/>
					<path class="st1" d="M172.49,235.86l-5.19-2.99c-0.42-0.24-0.36-0.66,0.12-0.94l6.12-3.53c0.48-0.28,1.21-0.31,1.62-0.07
						l5.19,2.99c0.42,0.24,0.36,0.66-0.12,0.94l-6.12,3.53C173.64,236.07,172.91,236.1,172.49,235.86z"/>
					<path class="st1" d="M114.33,202.28l-8.29-4.79c-0.42-0.24-0.36-0.66,0.12-0.94l6.12-3.53c0.48-0.28,1.21-0.31,1.62-0.07
						l8.29,4.79c0.42,0.24,0.36,0.66-0.12,0.94l-6.12,3.53C115.47,202.49,114.74,202.52,114.33,202.28z"/>
					<path class="st1" d="M164.78,231.41l-8.29-4.79c-0.42-0.24-0.36-0.66,0.12-0.94l6.12-3.53c0.48-0.28,1.21-0.31,1.62-0.07
						l8.29,4.79c0.42,0.24,0.36,0.66-0.12,0.94l-6.12,3.53C165.92,231.62,165.19,231.65,164.78,231.41z"/>
					<path class="st1" d="M125.51,199.66l36.06,20.82c0.45,0.26,0.45,0.68,0,0.94l-6.24,3.6c-0.45,0.26-1.17,0.26-1.62,0
						l-36.06-20.82L125.51,199.66z"/>
					<path class="st1" d="M194.88,244.25l5.78,3.34c0.34,0.2,0.3,0.54-0.1,0.77l-2.5,1.45c-0.39,0.23-0.99,0.25-1.33,0.06
						l-5.78-3.34c-0.34-0.2-0.3-0.54,0.1-0.77l2.5-1.45C193.94,244.08,194.54,244.05,194.88,244.25z"/>
					<path class="st1" d="M186.8,239.59l5.78,3.34c0.34,0.2,0.3,0.54-0.1,0.77l-2.5,1.45c-0.39,0.23-0.99,0.25-1.33,0.06l-5.78-3.34
						c-0.34-0.2-0.3-0.54,0.1-0.77l2.5-1.45C185.86,239.41,186.46,239.39,186.8,239.59z"/>
					<path class="st1" d="M178.79,234.96l5.78,3.34c0.34,0.2,0.3,0.54-0.1,0.77l-2.5,1.45c-0.39,0.23-0.99,0.25-1.33,0.06
						l-5.78-3.34c-0.34-0.2-0.3-0.54,0.1-0.77l2.5-1.45C177.86,234.79,178.45,234.76,178.79,234.96z"/>
					<path class="st1" d="M191.23,237.03l5.78,3.34c0.34,0.2,0.3,0.54-0.1,0.77l-2.5,1.45c-0.39,0.23-0.99,0.25-1.33,0.06
						l-5.78-3.34c-0.34-0.2-0.3-0.54,0.1-0.77l2.5-1.45C190.29,236.86,190.88,236.83,191.23,237.03z"/>
				</g>
			</g>
		</g>
	</g>
	<g class="st9">
		<linearGradient id="SVGID_5_" gradientUnits="userSpaceOnUse" x1="160.8038" y1="111.455" x2="285.0887" y2="111.455">
			<stop  offset="0" style="stop-color:#8647E1"/>
			<stop  offset="1" style="stop-color:#B78FED"/>
		</linearGradient>
		<path class="st10" d="M285.09,103.08v85.27c0,2.9-2.03,4.07-4.54,2.62l-115.2-66.51c-2.51-1.45-4.54-4.97-4.54-7.86V31.32
			L285.09,103.08z"/>
	</g>
	<g>
		<g>
			<g>
				<g>
					<g>
						<linearGradient id="SVGID_6_" gradientUnits="userSpaceOnUse" x1="151.1127" y1="120.8805" x2="275.3976" y2="120.8805">
							<stop  offset="0" style="stop-color:#8647E1"/>
							<stop  offset="1" style="stop-color:#B78FED"/>
						</linearGradient>
						<path class="st11" d="M275.4,112.5v85.27c0,2.9-2.03,4.07-4.54,2.62l-115.2-66.51c-2.51-1.45-4.54-4.97-4.54-7.86V40.75
							L275.4,112.5z"/>
					</g>
					<g>
						<linearGradient id="SVGID_7_" gradientUnits="userSpaceOnUse" x1="151.1127" y1="66.535" x2="275.3976" y2="66.535">
							<stop  offset="0" style="stop-color:#8647E1"/>
							<stop  offset="1" style="stop-color:#B78FED"/>
						</linearGradient>
						<path class="st12" d="M151.11,23.81v16.94L275.4,112.5V95.57c0-2.9-2.03-6.42-4.54-7.86l-115.2-66.51
							C153.15,19.74,151.11,20.91,151.11,23.81z M263.51,89.08c0-1.2,0.84-1.68,1.87-1.08c1.04,0.6,1.87,2.05,1.87,3.25
							c0,1.2-0.84,1.68-1.87,1.08C264.35,91.73,263.51,90.27,263.51,89.08z M258.32,86.08c0-1.2,0.84-1.68,1.87-1.08
							c1.04,0.6,1.87,2.05,1.87,3.25c0,1.2-0.84,1.68-1.87,1.08C259.15,88.73,258.32,87.28,258.32,86.08z M247,79.55
							c0-1.2,0.84-1.68,1.87-1.08c1.04,0.6,1.87,2.05,1.87,3.25c0,1.2-0.84,1.68-1.87,1.08C247.84,82.2,247,80.74,247,79.55z
							 M241.8,76.55c0-1.2,0.84-1.68,1.87-1.08c1.04,0.6,1.87,2.05,1.87,3.25c0,1.2-0.84,1.68-1.87,1.08
							C242.64,79.2,241.8,77.74,241.8,76.55z M230.49,70.01c0-1.2,0.84-1.68,1.87-1.08c1.04,0.6,1.87,2.05,1.87,3.25
							c0,1.2-0.84,1.68-1.87,1.08C231.33,72.66,230.49,71.21,230.49,70.01z M225.29,67.02c0-1.2,0.84-1.68,1.87-1.08
							c1.04,0.6,1.87,2.05,1.87,3.25c0,1.2-0.84,1.68-1.87,1.08C226.13,69.66,225.29,68.21,225.29,67.02z M213.98,60.48
							c0-1.2,0.84-1.68,1.87-1.08c1.04,0.6,1.87,2.05,1.87,3.25c0,1.2-0.84,1.68-1.87,1.08C214.82,63.13,213.98,61.68,213.98,60.48z
							 M208.78,57.48c0-1.2,0.84-1.68,1.87-1.08c1.04,0.6,1.87,2.05,1.87,3.25c0,1.2-0.84,1.68-1.87,1.08
							C209.62,60.13,208.78,58.68,208.78,57.48z M197.47,50.95c0-1.2,0.84-1.68,1.87-1.08c1.04,0.6,1.87,2.05,1.87,3.25
							c0,1.2-0.84,1.68-1.87,1.08C198.31,53.6,197.47,52.14,197.47,50.95z M192.27,47.95c0-1.2,0.84-1.68,1.87-1.08
							c1.04,0.6,1.87,2.05,1.87,3.25c0,1.2-0.84,1.68-1.87,1.08C193.11,50.6,192.27,49.15,192.27,47.95z M180.96,41.42
							c0-1.2,0.84-1.68,1.87-1.08c1.04,0.6,1.87,2.05,1.87,3.25c0,1.2-0.84,1.68-1.87,1.08C181.8,44.07,180.96,42.61,180.96,41.42z
							 M175.76,38.42c0-1.2,0.84-1.68,1.87-1.08c1.04,0.6,1.87,2.05,1.87,3.25c0,1.2-0.84,1.68-1.87,1.08
							C176.6,41.07,175.76,39.61,175.76,38.42z M164.44,31.88c0-1.2,0.84-1.68,1.87-1.08c1.04,0.6,1.87,2.05,1.87,3.25
							c0,1.2-0.84,1.68-1.87,1.08C165.28,34.53,164.44,33.08,164.44,31.88z M159.25,28.89c0-1.2,0.84-1.68,1.87-1.08
							c1.04,0.6,1.87,2.05,1.87,3.25c0,1.2-0.84,1.68-1.87,1.08C160.09,31.53,159.25,30.08,159.25,28.89z"/>
					</g>
					<g>
						<path class="st13" d="M170,45.89l86.5,49.94c0.69,0.4,1.24-0.02,1.24-0.94l0,0c0-0.92-0.56-1.98-1.24-2.37L170,42.57
							c-0.69-0.4-1.24,0.02-1.24,0.94l0,0C168.76,44.43,169.32,45.49,170,45.89z"/>
					</g>
					<g>
						<g>
							<polygon class="st14" points="168.24,75.17 177.09,80.28 177.09,72.79 168.24,67.68 							"/>
						</g>
						<g>
							<polygon class="st14" points="181.77,82.98 190.62,88.09 190.62,80.6 181.77,75.49 							"/>
						</g>
						<g>
							<polygon class="st14" points="168.24,87.41 177.09,92.51 177.09,85.02 168.24,79.91 							"/>
						</g>
						<g>
							<polygon class="st14" points="181.77,95.22 190.62,100.33 190.62,92.83 181.77,87.72 							"/>
						</g>
						<g>
							<polygon class="st15" points="195.3,103.03 204.15,108.14 204.15,100.65 195.3,95.54 							"/>
						</g>
						<g>
							<polygon class="st15" points="208.83,110.84 217.68,115.95 217.68,108.46 208.83,103.35 							"/>
						</g>
						<g>
							<polygon class="st15" points="222.36,118.65 231.21,123.76 231.21,116.27 222.36,111.16 							"/>
						</g>
						<g>
							<polygon class="st15" points="235.89,126.46 244.74,131.57 244.74,124.08 235.89,118.97 							"/>
						</g>
						<g>
							<polygon class="st15" points="249.42,134.27 258.27,139.38 258.27,131.89 249.42,126.78 							"/>
						</g>
						<g>
							<polygon class="st14" points="168.24,99.64 177.09,104.75 177.09,97.26 168.24,92.15 							"/>
						</g>
						<g>
							<polygon class="st14" points="181.77,107.45 190.62,112.56 190.62,105.07 181.77,99.96 							"/>
						</g>
						<g>
							<polygon class="st15" points="195.3,115.26 204.15,120.37 204.15,112.88 195.3,107.77 							"/>
						</g>
						<g>
							<polygon class="st15" points="208.83,123.07 217.68,128.18 217.68,120.69 208.83,115.58 							"/>
						</g>
						<g>
							<polygon class="st15" points="222.36,130.88 231.21,135.99 231.21,128.5 222.36,123.39 							"/>
						</g>
						<g>
							<polygon class="st15" points="235.89,138.7 244.74,143.8 244.74,136.31 235.89,131.2 							"/>
						</g>
						<g>
							<polygon class="st15" points="249.42,146.51 258.27,151.62 258.27,144.12 249.42,139.01 							"/>
						</g>
						<g>
							<polygon class="st14" points="168.24,111.87 177.09,116.98 177.09,109.49 168.24,104.38 							"/>
						</g>
						<g>
							<polygon class="st14" points="181.77,119.68 190.62,124.79 190.62,117.3 181.77,112.19 							"/>
						</g>
						<g>
							<polygon class="st15" points="195.3,127.49 204.15,132.6 204.15,125.11 195.3,120 							"/>
						</g>
						<g>
							<polygon class="st15" points="208.83,135.31 217.68,140.41 217.68,132.92 208.83,127.81 							"/>
						</g>
						<g>
							<polygon class="st15" points="222.36,143.12 231.21,148.23 231.21,140.73 222.36,135.62 							"/>
						</g>
						<g>
							<polygon class="st15" points="235.89,150.93 244.74,156.04 244.74,148.55 235.89,143.44 							"/>
						</g>
						<g>
							<polygon class="st15" points="249.42,158.74 258.27,163.85 258.27,156.36 249.42,151.25 							"/>
						</g>
						<g>
							<polygon class="st14" points="168.24,124.1 177.09,129.21 177.09,121.72 168.24,116.61 							"/>
						</g>
						<g>
							<polygon class="st14" points="181.77,131.91 190.62,137.02 190.62,129.53 181.77,124.42 							"/>
						</g>
						<g>
							<polygon class="st15" points="195.3,139.73 204.15,144.84 204.15,137.34 195.3,132.23 							"/>
						</g>
						<g>
							<polygon class="st15" points="208.83,147.54 217.68,152.65 217.68,145.16 208.83,140.05 							"/>
						</g>
						<g>
							<polygon class="st15" points="222.36,155.35 231.21,160.46 231.21,152.97 222.36,147.86 							"/>
						</g>
						<g>
							<polygon class="st15" points="235.89,163.16 244.74,168.27 244.74,160.78 235.89,155.67 							"/>
						</g>
						<g>
							<polygon class="st15" points="249.42,170.97 258.27,176.08 258.27,168.59 249.42,163.48 							"/>
						</g>
					</g>
				</g>
				<g>
					<polygon class="st15" points="272.78,201.48 274.07,200.71 272.74,200.43 					"/>
				</g>
				<g>
					<g>
						<path class="st7" d="M274.12,113.27v85.27c0,2.9-2.03,4.07-4.54,2.62l-115.2-66.51c-2.51-1.45-4.54-4.97-4.54-7.86V41.51
							L274.12,113.27z"/>
					</g>
					<g>
						<g>
							<linearGradient id="SVGID_8_" gradientUnits="userSpaceOnUse" x1="262.2268" y1="90.9286" x2="265.7826" y2="90.9286">
								<stop  offset="0" style="stop-color:#8647E1"/>
								<stop  offset="1" style="stop-color:#B78FED"/>
							</linearGradient>
							<path class="st16" d="M263.33,88.51c-0.13,0.22-0.2,0.5-0.2,0.84c0,1.2,0.84,2.66,1.88,3.25c0.28,0.16,0.54,0.24,0.77,0.25
								c-0.31,0.54-0.94,0.67-1.68,0.24c-1.04-0.6-1.88-2.06-1.88-3.25C262.23,88.96,262.68,88.47,263.33,88.51z"/>
						</g>
						<g>
							<linearGradient id="SVGID_9_" gradientUnits="userSpaceOnUse" x1="257.0371" y1="87.9287" x2="260.5928" y2="87.9287">
								<stop  offset="0" style="stop-color:#8647E1"/>
								<stop  offset="1" style="stop-color:#B78FED"/>
							</linearGradient>
							<path class="st17" d="M258.14,85.51c-0.13,0.22-0.2,0.5-0.2,0.84c0,1.2,0.84,2.66,1.88,3.25c0.28,0.16,0.54,0.24,0.78,0.25
								c-0.31,0.54-0.94,0.67-1.68,0.24c-1.04-0.6-1.88-2.06-1.88-3.25C257.04,85.96,257.49,85.47,258.14,85.51z"/>
						</g>
						<g>
							<linearGradient id="SVGID_10_" gradientUnits="userSpaceOnUse" x1="245.7161" y1="81.3937" x2="249.2719" y2="81.3937">
								<stop  offset="0" style="stop-color:#8647E1"/>
								<stop  offset="1" style="stop-color:#B78FED"/>
							</linearGradient>
							<path class="st18" d="M246.82,78.97c-0.13,0.22-0.2,0.5-0.2,0.84c0,1.2,0.84,2.66,1.88,3.25c0.28,0.16,0.54,0.24,0.78,0.25
								c-0.31,0.54-0.94,0.67-1.68,0.24c-1.04-0.6-1.88-2.06-1.88-3.25C245.72,79.43,246.17,78.94,246.82,78.97z"/>
						</g>
						<g>
							<linearGradient id="SVGID_11_" gradientUnits="userSpaceOnUse" x1="240.5263" y1="78.3939" x2="244.0821" y2="78.3939">
								<stop  offset="0" style="stop-color:#8647E1"/>
								<stop  offset="1" style="stop-color:#B78FED"/>
							</linearGradient>
							<path class="st19" d="M241.63,75.97c-0.13,0.22-0.2,0.5-0.2,0.84c0,1.2,0.84,2.66,1.88,3.25c0.28,0.16,0.54,0.24,0.78,0.25
								c-0.31,0.54-0.94,0.67-1.68,0.24c-1.04-0.6-1.88-2.06-1.88-3.25C240.53,76.43,240.98,75.94,241.63,75.97z"/>
						</g>
						<g>
							<linearGradient id="SVGID_12_" gradientUnits="userSpaceOnUse" x1="229.2054" y1="71.8589" x2="232.7612" y2="71.8589">
								<stop  offset="0" style="stop-color:#8647E1"/>
								<stop  offset="1" style="stop-color:#B78FED"/>
							</linearGradient>
							<path class="st20" d="M230.31,69.44c-0.13,0.22-0.2,0.5-0.2,0.84c0,1.2,0.84,2.66,1.88,3.25c0.28,0.16,0.54,0.24,0.78,0.25
								c-0.31,0.54-0.94,0.67-1.68,0.24c-1.04-0.6-1.88-2.06-1.88-3.25C229.21,69.89,229.66,69.4,230.31,69.44z"/>
						</g>
						<g>
							<linearGradient id="SVGID_13_" gradientUnits="userSpaceOnUse" x1="224.0157" y1="68.8591" x2="227.5714" y2="68.8591">
								<stop  offset="0" style="stop-color:#8647E1"/>
								<stop  offset="1" style="stop-color:#B78FED"/>
							</linearGradient>
							<path class="st21" d="M225.12,66.44c-0.13,0.22-0.2,0.5-0.2,0.84c0,1.2,0.84,2.66,1.88,3.25c0.28,0.16,0.54,0.24,0.78,0.25
								c-0.31,0.54-0.94,0.67-1.68,0.24c-1.04-0.6-1.88-2.06-1.88-3.25C224.02,66.89,224.47,66.4,225.12,66.44z"/>
						</g>
						<g>
							<linearGradient id="SVGID_14_" gradientUnits="userSpaceOnUse" x1="212.6947" y1="62.3241" x2="216.2505" y2="62.3241">
								<stop  offset="0" style="stop-color:#8647E1"/>
								<stop  offset="1" style="stop-color:#B78FED"/>
							</linearGradient>
							<path class="st22" d="M213.8,59.9c-0.13,0.22-0.2,0.5-0.2,0.84c0,1.2,0.84,2.66,1.88,3.25c0.28,0.16,0.54,0.24,0.78,0.25
								c-0.31,0.54-0.94,0.67-1.68,0.24c-1.04-0.6-1.88-2.06-1.88-3.25C212.69,60.36,213.15,59.87,213.8,59.9z"/>
						</g>
						<g>
							<linearGradient id="SVGID_15_" gradientUnits="userSpaceOnUse" x1="207.505" y1="59.3243" x2="211.0607" y2="59.3243">
								<stop  offset="0" style="stop-color:#8647E1"/>
								<stop  offset="1" style="stop-color:#B78FED"/>
							</linearGradient>
							<path class="st23" d="M208.61,56.9c-0.13,0.22-0.2,0.5-0.2,0.84c0,1.2,0.84,2.66,1.88,3.25c0.28,0.16,0.54,0.24,0.78,0.25
								c-0.31,0.54-0.94,0.67-1.68,0.24c-1.04-0.6-1.88-2.06-1.88-3.25C207.5,57.36,207.96,56.87,208.61,56.9z"/>
						</g>
						<g>
							<linearGradient id="SVGID_16_" gradientUnits="userSpaceOnUse" x1="196.184" y1="52.7892" x2="199.7398" y2="52.7892">
								<stop  offset="0" style="stop-color:#8647E1"/>
								<stop  offset="1" style="stop-color:#B78FED"/>
							</linearGradient>
							<path class="st24" d="M197.29,50.37c-0.13,0.22-0.2,0.5-0.2,0.84c0,1.2,0.84,2.66,1.88,3.25c0.28,0.16,0.54,0.24,0.78,0.25
								c-0.31,0.54-0.94,0.67-1.68,0.24c-1.04-0.6-1.88-2.06-1.88-3.25C196.18,50.82,196.64,50.33,197.29,50.37z"/>
						</g>
						<g>
							<linearGradient id="SVGID_17_" gradientUnits="userSpaceOnUse" x1="190.9943" y1="49.7894" x2="194.55" y2="49.7894">
								<stop  offset="0" style="stop-color:#8647E1"/>
								<stop  offset="1" style="stop-color:#B78FED"/>
							</linearGradient>
							<path class="st25" d="M192.1,47.37c-0.13,0.22-0.2,0.5-0.2,0.84c0,1.2,0.84,2.66,1.88,3.25c0.28,0.16,0.54,0.24,0.78,0.25
								c-0.31,0.54-0.94,0.67-1.68,0.24c-1.04-0.6-1.88-2.06-1.88-3.25C190.99,47.83,191.45,47.34,192.1,47.37z"/>
						</g>
						<g>
							<linearGradient id="SVGID_18_" gradientUnits="userSpaceOnUse" x1="179.6733" y1="43.2544" x2="183.2291" y2="43.2544">
								<stop  offset="0" style="stop-color:#8647E1"/>
								<stop  offset="1" style="stop-color:#B78FED"/>
							</linearGradient>
							<path class="st26" d="M180.78,40.83c-0.13,0.22-0.2,0.5-0.2,0.84c0,1.2,0.84,2.66,1.88,3.25c0.28,0.16,0.54,0.24,0.78,0.25
								c-0.31,0.54-0.94,0.67-1.68,0.24c-1.04-0.6-1.88-2.06-1.88-3.25C179.67,41.29,180.13,40.8,180.78,40.83z"/>
						</g>
						<g>
							<linearGradient id="SVGID_19_" gradientUnits="userSpaceOnUse" x1="174.4836" y1="40.2546" x2="178.0393" y2="40.2546">
								<stop  offset="0" style="stop-color:#8647E1"/>
								<stop  offset="1" style="stop-color:#B78FED"/>
							</linearGradient>
							<path class="st27" d="M175.59,37.83c-0.13,0.22-0.2,0.5-0.2,0.84c0,1.2,0.84,2.66,1.88,3.25c0.28,0.16,0.54,0.24,0.78,0.25
								c-0.31,0.54-0.94,0.67-1.68,0.24c-1.04-0.6-1.88-2.06-1.88-3.25C174.48,38.29,174.94,37.8,175.59,37.83z"/>
						</g>
						<g>
							<linearGradient id="SVGID_20_" gradientUnits="userSpaceOnUse" x1="163.1626" y1="33.7195" x2="166.7184" y2="33.7195">
								<stop  offset="0" style="stop-color:#8647E1"/>
								<stop  offset="1" style="stop-color:#B78FED"/>
							</linearGradient>
							<path class="st28" d="M164.27,31.3c-0.13,0.22-0.2,0.5-0.2,0.84c0,1.2,0.84,2.66,1.88,3.25c0.28,0.16,0.54,0.24,0.78,0.25
								c-0.31,0.54-0.94,0.67-1.68,0.24c-1.04-0.6-1.88-2.06-1.88-3.25C163.16,31.76,163.62,31.27,164.27,31.3z"/>
						</g>
						<g>
							<linearGradient id="SVGID_21_" gradientUnits="userSpaceOnUse" x1="157.9728" y1="30.7198" x2="161.5286" y2="30.7198">
								<stop  offset="0" style="stop-color:#8647E1"/>
								<stop  offset="1" style="stop-color:#B78FED"/>
							</linearGradient>
							<path class="st29" d="M159.08,28.3c-0.13,0.22-0.2,0.5-0.2,0.84c0,1.2,0.84,2.66,1.88,3.25c0.28,0.16,0.54,0.24,0.78,0.25
								c-0.31,0.54-0.94,0.67-1.68,0.24c-1.04-0.6-1.88-2.06-1.88-3.25C157.97,28.76,158.43,28.27,159.08,28.3z"/>
						</g>
					</g>
					<g>
						<path class="st1" d="M149.83,24.58v16.94l124.28,71.76V96.33c0-2.9-2.03-6.42-4.54-7.86l-115.2-66.51
							C151.87,20.51,149.83,21.68,149.83,24.58z M262.23,89.84c0-1.2,0.84-1.68,1.87-1.08c1.04,0.6,1.87,2.05,1.87,3.25
							c0,1.2-0.84,1.68-1.87,1.08C263.07,92.49,262.23,91.04,262.23,89.84z M257.04,86.85c0-1.2,0.84-1.68,1.87-1.08
							s1.87,2.05,1.87,3.25c0,1.2-0.84,1.68-1.87,1.08C257.88,89.5,257.04,88.04,257.04,86.85z M245.72,80.31
							c0-1.2,0.84-1.68,1.87-1.08c1.04,0.6,1.87,2.05,1.87,3.25s-0.84,1.68-1.87,1.08C246.56,82.96,245.72,81.51,245.72,80.31z
							 M240.53,77.31c0-1.2,0.84-1.68,1.88-1.08c1.04,0.6,1.87,2.05,1.87,3.25c0,1.2-0.84,1.68-1.87,1.08
							C241.37,79.96,240.53,78.51,240.53,77.31z M229.21,70.78c0-1.2,0.84-1.68,1.87-1.08c1.04,0.6,1.87,2.05,1.87,3.25
							c0,1.2-0.84,1.68-1.87,1.08C230.05,73.43,229.21,71.98,229.21,70.78z M224.02,67.78c0-1.2,0.84-1.68,1.87-1.08
							c1.04,0.6,1.87,2.05,1.87,3.25c0,1.2-0.84,1.68-1.87,1.08C224.85,70.43,224.02,68.98,224.02,67.78z M212.7,61.25
							c0-1.2,0.84-1.68,1.87-1.08c1.04,0.6,1.87,2.05,1.87,3.25c0,1.2-0.84,1.68-1.87,1.08C213.54,63.9,212.7,62.44,212.7,61.25z
							 M207.5,58.25c0-1.2,0.84-1.68,1.87-1.08c1.04,0.6,1.87,2.05,1.87,3.25c0,1.2-0.84,1.68-1.87,1.08
							C208.34,60.9,207.5,59.44,207.5,58.25z M196.19,51.72c0-1.2,0.84-1.68,1.87-1.08c1.04,0.6,1.87,2.05,1.87,3.25
							c0,1.2-0.84,1.68-1.87,1.08C197.03,54.36,196.19,52.91,196.19,51.72z M190.99,48.72c0-1.2,0.84-1.68,1.87-1.08
							c1.04,0.6,1.87,2.05,1.87,3.25c0,1.2-0.84,1.68-1.87,1.08C191.83,51.37,190.99,49.91,190.99,48.72z M179.68,42.18
							c0-1.2,0.84-1.68,1.88-1.08c1.04,0.6,1.87,2.05,1.87,3.25c0,1.2-0.84,1.68-1.87,1.08C180.52,44.83,179.68,43.38,179.68,42.18z
							 M174.48,39.18c0-1.2,0.84-1.68,1.87-1.08c1.04,0.6,1.87,2.05,1.87,3.25c0,1.2-0.84,1.68-1.87,1.08
							C175.32,41.83,174.48,40.38,174.48,39.18z M163.17,32.65c0-1.2,0.84-1.68,1.87-1.08c1.04,0.6,1.87,2.05,1.87,3.25
							s-0.84,1.68-1.87,1.08C164.01,35.3,163.17,33.85,163.17,32.65z M157.97,29.65c0-1.2,0.84-1.68,1.87-1.08
							c1.04,0.6,1.87,2.05,1.87,3.25c0,1.2-0.84,1.68-1.87,1.08C158.81,32.3,157.97,30.85,157.97,29.65z"/>
					</g>
					<g>
						<path class="st8" d="M168.72,46.65l86.5,49.94c0.69,0.4,1.24-0.02,1.24-0.94l0,0c0-0.92-0.56-1.98-1.24-2.37l-86.5-49.94
							c-0.69-0.4-1.24,0.02-1.24,0.94l0,0C167.48,45.19,168.04,46.26,168.72,46.65z"/>
					</g>
					<g>
						<g>
							<linearGradient id="SVGID_22_" gradientUnits="userSpaceOnUse" x1="166.9625" y1="74.7475" x2="175.8123" y2="74.7475">
								<stop  offset="0" style="stop-color:#8647E1"/>
								<stop  offset="1" style="stop-color:#B78FED"/>
							</linearGradient>
							<polygon class="st30" points="166.96,75.94 175.81,81.05 175.81,73.56 166.96,68.45 							"/>
						</g>
						<g>
							<linearGradient id="SVGID_23_" gradientUnits="userSpaceOnUse" x1="180.4923" y1="82.5589" x2="189.342" y2="82.5589">
								<stop  offset="0" style="stop-color:#8647E1"/>
								<stop  offset="1" style="stop-color:#B78FED"/>
							</linearGradient>
							<polygon class="st31" points="180.49,83.75 189.34,88.86 189.34,81.37 180.49,76.26 							"/>
						</g>
						<g>
							<linearGradient id="SVGID_24_" gradientUnits="userSpaceOnUse" x1="166.9625" y1="86.9802" x2="175.8123" y2="86.9802">
								<stop  offset="0" style="stop-color:#8647E1"/>
								<stop  offset="1" style="stop-color:#B78FED"/>
							</linearGradient>
							<polygon class="st32" points="166.96,88.17 175.81,93.28 175.81,85.79 166.96,80.68 							"/>
						</g>
						<g>
							<linearGradient id="SVGID_25_" gradientUnits="userSpaceOnUse" x1="180.4923" y1="94.7916" x2="189.342" y2="94.7916">
								<stop  offset="0" style="stop-color:#8647E1"/>
								<stop  offset="1" style="stop-color:#B78FED"/>
							</linearGradient>
							<polygon class="st33" points="180.49,95.98 189.34,101.09 189.34,93.6 180.49,88.49 							"/>
						</g>
						<g>
							<polygon class="st8" points="194.02,103.79 202.87,108.9 202.87,101.41 194.02,96.3 							"/>
						</g>
						<g>
							<polygon class="st8" points="207.55,111.61 216.4,116.72 216.4,109.22 207.55,104.11 							"/>
						</g>
						<g>
							<polygon class="st8" points="221.08,119.42 229.93,124.53 229.93,117.03 221.08,111.93 							"/>
						</g>
						<g>
							<polygon class="st8" points="234.61,127.23 243.46,132.34 243.46,124.85 234.61,119.74 							"/>
						</g>
						<g>
							<polygon class="st8" points="248.14,135.04 256.99,140.15 256.99,132.66 248.14,127.55 							"/>
						</g>
						<g>
							<linearGradient id="SVGID_26_" gradientUnits="userSpaceOnUse" x1="166.9625" y1="99.2129" x2="175.8123" y2="99.2129">
								<stop  offset="0" style="stop-color:#8647E1"/>
								<stop  offset="1" style="stop-color:#B78FED"/>
							</linearGradient>
							<polygon class="st34" points="166.96,100.4 175.81,105.51 175.81,98.02 166.96,92.91 							"/>
						</g>
						<g>
							<linearGradient id="SVGID_27_" gradientUnits="userSpaceOnUse" x1="180.4923" y1="107.0243" x2="189.342" y2="107.0243">
								<stop  offset="0" style="stop-color:#8647E1"/>
								<stop  offset="1" style="stop-color:#B78FED"/>
							</linearGradient>
							<polygon class="st35" points="180.49,108.22 189.34,113.33 189.34,105.83 180.49,100.72 							"/>
						</g>
						<g>
							<polygon class="st8" points="194.02,116.03 202.87,121.14 202.87,113.64 194.02,108.54 							"/>
						</g>
						<g>
							<polygon class="st8" points="207.55,123.84 216.4,128.95 216.4,121.46 207.55,116.35 							"/>
						</g>
						<g>
							<polygon class="st8" points="221.08,131.65 229.93,136.76 229.93,129.27 221.08,124.16 							"/>
						</g>
						<g>
							<polygon class="st8" points="234.61,139.46 243.46,144.57 243.46,137.08 234.61,131.97 							"/>
						</g>
						<g>
							<polygon class="st8" points="248.14,147.27 256.99,152.38 256.99,144.89 248.14,139.78 							"/>
						</g>
						<g>
							<linearGradient id="SVGID_28_" gradientUnits="userSpaceOnUse" x1="166.9625" y1="111.4456" x2="175.8123" y2="111.4456">
								<stop  offset="0" style="stop-color:#8647E1"/>
								<stop  offset="1" style="stop-color:#B78FED"/>
							</linearGradient>
							<polygon class="st36" points="166.96,112.64 175.81,117.75 175.81,110.25 166.96,105.14 							"/>
						</g>
						<g>
							<linearGradient id="SVGID_29_" gradientUnits="userSpaceOnUse" x1="154.9221" y1="103.8596" x2="201.5424" y2="127.7913">
								<stop  offset="0" style="stop-color:#8647E1"/>
								<stop  offset="1" style="stop-color:#B78FED"/>
							</linearGradient>
							<polygon class="st37" points="180.49,120.45 189.34,125.56 189.34,118.07 180.49,112.96 							"/>
						</g>
						<g>
							<polygon class="st8" points="194.02,128.26 202.87,133.37 202.87,125.88 194.02,120.77 							"/>
						</g>
						<g>
							<polygon class="st8" points="207.55,136.07 216.4,141.18 216.4,133.69 207.55,128.58 							"/>
						</g>
						<g>
							<polygon class="st8" points="221.08,143.88 229.93,148.99 229.93,141.5 221.08,136.39 							"/>
						</g>
						<g>
							<polygon class="st8" points="234.61,151.69 243.46,156.8 243.46,149.31 234.61,144.2 							"/>
						</g>
						<g>
							<polygon class="st8" points="248.14,159.51 256.99,164.61 256.99,157.12 248.14,152.01 							"/>
						</g>
						<g>
							<linearGradient id="SVGID_30_" gradientUnits="userSpaceOnUse" x1="166.9625" y1="123.6783" x2="175.8123" y2="123.6783">
								<stop  offset="0" style="stop-color:#8647E1"/>
								<stop  offset="1" style="stop-color:#B78FED"/>
							</linearGradient>
							<polygon class="st38" points="166.96,124.87 175.81,129.98 175.81,122.49 166.96,117.38 							"/>
						</g>
						<g>
							<linearGradient id="SVGID_31_" gradientUnits="userSpaceOnUse" x1="180.4923" y1="131.4898" x2="189.342" y2="131.4898">
								<stop  offset="0" style="stop-color:#8647E1"/>
								<stop  offset="1" style="stop-color:#B78FED"/>
							</linearGradient>
							<polygon class="st39" points="180.49,132.68 189.34,137.79 189.34,130.3 180.49,125.19 							"/>
						</g>
						<g>
							<polygon class="st8" points="194.02,140.49 202.87,145.6 202.87,138.11 194.02,133 							"/>
						</g>
						<g>
							<polygon class="st8" points="207.55,148.3 216.4,153.41 216.4,145.92 207.55,140.81 							"/>
						</g>
						<g>
							<polygon class="st8" points="221.08,156.12 229.93,161.22 229.93,153.73 221.08,148.62 							"/>
						</g>
						<g>
							<polygon class="st8" points="234.61,163.93 243.46,169.04 243.46,161.54 234.61,156.43 							"/>
						</g>
						<g>
							<polygon class="st8" points="248.14,171.74 256.99,176.85 256.99,169.36 248.14,164.25 							"/>
						</g>
					</g>
				</g>
				<g>
					<g>
						<path class="st1" d="M255.59,83.72c0,4.13,2.9,5.8,6.47,3.74c3.58-2.06,6.47-7.08,6.47-11.21c0-4.13-2.9-5.8-6.47-3.74
							C258.49,74.57,255.59,79.59,255.59,83.72z M256.97,82.92c0-3.25,2.28-7.2,5.09-8.82c2.81-1.62,5.09-0.31,5.09,2.94
							c0,3.25-2.28,7.2-5.09,8.82C259.25,87.49,256.97,86.17,256.97,82.92z"/>
					</g>
					<g>
						<polygon class="st40" points="258.11,88.39 257.39,87.85 258,88 						"/>
					</g>
					<g>
						<polygon class="st40" points="266.88,72.21 267.87,72.93 267.06,73.17 						"/>
					</g>
					<g>
						<linearGradient id="SVGID_32_" gradientUnits="userSpaceOnUse" x1="256.483" y1="80.6354" x2="269.4293" y2="80.6354">
							<stop  offset="0" style="stop-color:#8647E1"/>
							<stop  offset="1" style="stop-color:#B78FED"/>
						</linearGradient>
						<path class="st41" d="M256.48,84.37c0,4.13,2.9,5.8,6.47,3.74c3.58-2.06,6.47-7.08,6.47-11.21c0-4.13-2.9-5.8-6.47-3.74
							C259.38,75.23,256.48,80.24,256.48,84.37z M257.86,83.58c0-3.25,2.28-7.2,5.09-8.82c2.81-1.62,5.09-0.31,5.09,2.94
							c0,3.25-2.28,7.2-5.09,8.82C260.14,88.14,257.86,86.82,257.86,83.58z"/>
					</g>
				</g>
				<g>
					<linearGradient id="SVGID_33_" gradientUnits="userSpaceOnUse" x1="263.2096" y1="85.0974" x2="266.9509" y2="85.0974">
						<stop  offset="0" style="stop-color:#8647E1"/>
						<stop  offset="1" style="stop-color:#B78FED"/>
					</linearGradient>
					<polygon class="st42" points="263.21,84.9 264.17,83.84 266.95,85.45 265.17,86.35 					"/>
				</g>
				<g>
					<path class="st1" d="M263.18,84.77l2.51,1.45l-1.72,1.71l-3.2,1.43c0,0,0.23-1.4-1.09-2.98L263.18,84.77z"/>
				</g>
				<g>
					<g>
						<path class="st1" d="M239.07,74.18c0,4.13,2.9,5.8,6.47,3.74c3.57-2.06,6.47-7.08,6.47-11.21s-2.9-5.8-6.47-3.74
							C241.97,65.04,239.07,70.05,239.07,74.18z M240.45,73.39c0-3.25,2.28-7.2,5.09-8.82c2.81-1.62,5.09-0.31,5.09,2.94
							c0,3.25-2.28,7.2-5.09,8.82C242.73,77.95,240.45,76.63,240.45,73.39z"/>
					</g>
					<g>
						<polygon class="st40" points="241.59,78.85 240.87,78.31 241.48,78.46 						"/>
					</g>
					<g>
						<polygon class="st40" points="250.36,62.67 251.35,63.4 250.54,63.64 						"/>
					</g>
					<g>
						<linearGradient id="SVGID_34_" gradientUnits="userSpaceOnUse" x1="239.9639" y1="71.0974" x2="252.9102" y2="71.0974">
							<stop  offset="0" style="stop-color:#8647E1"/>
							<stop  offset="1" style="stop-color:#B78FED"/>
						</linearGradient>
						<path class="st43" d="M239.96,74.83c0,4.13,2.9,5.8,6.47,3.74c3.57-2.06,6.47-7.08,6.47-11.21c0-4.13-2.9-5.8-6.47-3.74
							C242.86,65.69,239.96,70.71,239.96,74.83z M241.34,74.04c0-3.25,2.28-7.2,5.09-8.82c2.81-1.62,5.09-0.31,5.09,2.94
							c0,3.25-2.28,7.2-5.09,8.82S241.34,77.29,241.34,74.04z"/>
					</g>
				</g>
				<g>
					<linearGradient id="SVGID_35_" gradientUnits="userSpaceOnUse" x1="246.6904" y1="75.5594" x2="250.4316" y2="75.5594">
						<stop  offset="0" style="stop-color:#8647E1"/>
						<stop  offset="1" style="stop-color:#B78FED"/>
					</linearGradient>
					<polygon class="st44" points="246.69,75.37 247.65,74.3 250.43,75.91 248.65,76.82 					"/>
				</g>
				<g>
					<path class="st1" d="M246.66,75.23l2.51,1.45l-1.72,1.71l-3.2,1.43c0,0,0.23-1.4-1.09-2.98L246.66,75.23z"/>
				</g>
				<g>
					<g>
						<path class="st1" d="M244.27,77.19c0,4.13,2.9,5.8,6.47,3.74c3.57-2.06,6.47-7.08,6.47-11.21c0-4.13-2.9-5.8-6.47-3.74
							C247.17,68.04,244.27,73.06,244.27,77.19z M245.65,76.39c0-3.25,2.28-7.2,5.09-8.82c2.81-1.62,5.09-0.31,5.09,2.94
							c0,3.25-2.28,7.2-5.09,8.82C247.93,80.95,245.65,79.64,245.65,76.39z"/>
					</g>
					<g>
						<polygon class="st40" points="246.79,81.85 246.07,81.32 246.68,81.47 						"/>
					</g>
					<g>
						<polygon class="st40" points="255.56,65.68 256.55,66.4 255.74,66.64 						"/>
					</g>
					<g>
						<linearGradient id="SVGID_36_" gradientUnits="userSpaceOnUse" x1="245.1633" y1="74.1022" x2="258.1096" y2="74.1022">
							<stop  offset="0" style="stop-color:#8647E1"/>
							<stop  offset="1" style="stop-color:#B78FED"/>
						</linearGradient>
						<path class="st45" d="M245.16,77.84c0,4.13,2.9,5.8,6.47,3.74c3.57-2.06,6.47-7.08,6.47-11.21c0-4.13-2.9-5.8-6.47-3.74
							C248.06,68.69,245.16,73.71,245.16,77.84z M246.54,77.04c0-3.25,2.28-7.2,5.09-8.82c2.81-1.62,5.09-0.31,5.09,2.94
							c0,3.25-2.28,7.2-5.09,8.82C248.82,81.61,246.54,80.29,246.54,77.04z"/>
					</g>
				</g>
				<g>
					<linearGradient id="SVGID_37_" gradientUnits="userSpaceOnUse" x1="251.8899" y1="78.5641" x2="255.6311" y2="78.5641">
						<stop  offset="0" style="stop-color:#8647E1"/>
						<stop  offset="1" style="stop-color:#B78FED"/>
					</linearGradient>
					<polygon class="st46" points="251.89,78.37 252.85,77.31 255.63,78.91 253.85,79.82 					"/>
				</g>
				<g>
					<path class="st1" d="M251.86,78.23l2.51,1.45l-1.72,1.71l-3.2,1.43c0,0,0.23-1.4-1.09-2.98L251.86,78.23z"/>
				</g>
				<g>
					<g>
						<path class="st1" d="M222.55,64.62c0,4.13,2.9,5.8,6.47,3.74c3.57-2.06,6.47-7.08,6.47-11.21c0-4.13-2.9-5.8-6.47-3.74
							C225.45,55.47,222.55,60.49,222.55,64.62z M223.93,63.82c0-3.25,2.28-7.2,5.09-8.82c2.81-1.62,5.09-0.31,5.09,2.94
							c0,3.25-2.28,7.2-5.09,8.82C226.21,68.39,223.93,67.07,223.93,63.82z"/>
					</g>
					<g>
						<polygon class="st40" points="225.06,69.28 224.35,68.75 224.96,68.9 						"/>
					</g>
					<g>
						<polygon class="st40" points="233.84,53.11 234.83,53.83 234.02,54.07 						"/>
					</g>
					<g>
						<linearGradient id="SVGID_38_" gradientUnits="userSpaceOnUse" x1="223.4414" y1="61.5334" x2="236.3877" y2="61.5334">
							<stop  offset="0" style="stop-color:#8647E1"/>
							<stop  offset="1" style="stop-color:#B78FED"/>
						</linearGradient>
						<path class="st47" d="M223.44,65.27c0,4.13,2.9,5.8,6.47,3.74c3.57-2.06,6.47-7.08,6.47-11.21c0-4.13-2.9-5.8-6.47-3.74
							S223.44,61.14,223.44,65.27z M224.82,64.47c0-3.25,2.28-7.2,5.09-8.82c2.81-1.62,5.09-0.31,5.09,2.94
							c0,3.25-2.28,7.2-5.09,8.82C227.1,69.04,224.82,67.72,224.82,64.47z"/>
					</g>
				</g>
				<g>
					<linearGradient id="SVGID_39_" gradientUnits="userSpaceOnUse" x1="230.1679" y1="66.0006" x2="233.8857" y2="66.0006">
						<stop  offset="0" style="stop-color:#8647E1"/>
						<stop  offset="1" style="stop-color:#B78FED"/>
					</linearGradient>
					<polygon class="st48" points="230.17,65.8 231.1,64.75 233.89,66.36 232.13,67.25 					"/>
				</g>
				<g>
					<path class="st1" d="M230.11,65.7l2.51,1.44l-1.71,1.69l-3.17,1.42c0,0,0.2-1.39-1.12-2.97L230.11,65.7z"/>
				</g>
				<g>
					<g>
						<path class="st1" d="M227.75,67.62c0,4.13,2.9,5.8,6.47,3.74c3.57-2.06,6.47-7.08,6.47-11.21c0-4.13-2.9-5.8-6.47-3.74
							C230.65,58.48,227.75,63.5,227.75,67.62z M229.13,66.83c0-3.25,2.28-7.2,5.09-8.82c2.81-1.62,5.09-0.31,5.09,2.94
							s-2.28,7.2-5.09,8.82S229.13,70.07,229.13,66.83z"/>
					</g>
					<g>
						<polygon class="st40" points="230.26,72.29 229.55,71.75 230.16,71.9 						"/>
					</g>
					<g>
						<polygon class="st40" points="239.04,56.11 240.03,56.84 239.21,57.08 						"/>
					</g>
					<g>
						<linearGradient id="SVGID_40_" gradientUnits="userSpaceOnUse" x1="228.6408" y1="64.5382" x2="241.5871" y2="64.5382">
							<stop  offset="0" style="stop-color:#8647E1"/>
							<stop  offset="1" style="stop-color:#B78FED"/>
						</linearGradient>
						<path class="st49" d="M228.64,68.28c0,4.13,2.9,5.8,6.47,3.74c3.57-2.06,6.47-7.08,6.47-11.21c0-4.13-2.9-5.8-6.47-3.74
							C231.54,59.13,228.64,64.15,228.64,68.28z M230.02,67.48c0-3.25,2.28-7.2,5.09-8.82c2.81-1.62,5.09-0.31,5.09,2.94
							c0,3.25-2.28,7.2-5.09,8.82C232.3,72.04,230.02,70.73,230.02,67.48z"/>
					</g>
				</g>
				<g>
					<linearGradient id="SVGID_41_" gradientUnits="userSpaceOnUse" x1="235.3674" y1="69.0001" x2="239.1086" y2="69.0001">
						<stop  offset="0" style="stop-color:#8647E1"/>
						<stop  offset="1" style="stop-color:#B78FED"/>
					</linearGradient>
					<polygon class="st50" points="235.37,68.81 236.33,67.74 239.11,69.35 237.33,70.26 					"/>
				</g>
				<g>
					<path class="st1" d="M235.33,68.67l2.51,1.45l-1.72,1.71l-3.18,1.42c0,0,0.21-1.37-1.12-2.95L235.33,68.67z"/>
				</g>
				<g>
					<g>
						<path class="st1" d="M206.03,55.05c0,4.13,2.9,5.8,6.47,3.74c3.57-2.06,6.47-7.08,6.47-11.21c0-4.13-2.9-5.8-6.47-3.74
							C208.93,45.91,206.03,50.93,206.03,55.05z M207.41,54.26c0-3.25,2.28-7.2,5.09-8.82c2.81-1.62,5.09-0.31,5.09,2.94
							c0,3.25-2.28,7.2-5.09,8.82C209.69,58.82,207.41,57.51,207.41,54.26z"/>
					</g>
					<g>
						<polygon class="st40" points="208.54,59.72 207.83,59.19 208.44,59.33 						"/>
					</g>
					<g>
						<polygon class="st40" points="217.32,43.54 218.31,44.27 217.49,44.51 						"/>
					</g>
					<g>
						<linearGradient id="SVGID_42_" gradientUnits="userSpaceOnUse" x1="206.9189" y1="51.9694" x2="219.8652" y2="51.9694">
							<stop  offset="0" style="stop-color:#8647E1"/>
							<stop  offset="1" style="stop-color:#B78FED"/>
						</linearGradient>
						<path class="st51" d="M206.92,55.71c0,4.13,2.9,5.8,6.47,3.74c3.58-2.06,6.47-7.08,6.47-11.21s-2.9-5.8-6.47-3.74
							C209.82,46.56,206.92,51.58,206.92,55.71z M208.3,54.91c0-3.25,2.28-7.2,5.09-8.82c2.81-1.62,5.09-0.31,5.09,2.94
							c0,3.25-2.28,7.2-5.09,8.82C210.58,59.47,208.3,58.16,208.3,54.91z"/>
					</g>
				</g>
				<g>
					<linearGradient id="SVGID_43_" gradientUnits="userSpaceOnUse" x1="213.6455" y1="56.4487" x2="217.3405" y2="56.4487">
						<stop  offset="0" style="stop-color:#8647E1"/>
						<stop  offset="1" style="stop-color:#B78FED"/>
					</linearGradient>
					<polygon class="st52" points="213.65,56.24 214.58,55.21 217.34,56.8 215.61,57.69 					"/>
				</g>
				<g>
					<path class="st1" d="M213.56,56.13l2.55,1.47l-1.71,1.66l-3.16,1.41c0,0,0.17-1.36-1.16-2.94L213.56,56.13z"/>
				</g>
				<g>
					<g>
						<path class="st1" d="M211.23,58.06c0,4.13,2.9,5.8,6.47,3.74c3.57-2.06,6.47-7.08,6.47-11.21c0-4.13-2.9-5.8-6.47-3.74
							C214.13,48.91,211.23,53.93,211.23,58.06z M212.61,57.26c0-3.25,2.28-7.2,5.09-8.82c2.81-1.62,5.09-0.31,5.09,2.94
							c0,3.25-2.28,7.2-5.09,8.82C214.89,61.83,212.61,60.51,212.61,57.26z"/>
					</g>
					<g>
						<polygon class="st40" points="213.74,62.72 213.03,62.19 213.64,62.34 						"/>
					</g>
					<g>
						<polygon class="st40" points="222.52,46.55 223.51,47.27 222.69,47.51 						"/>
					</g>
					<g>
						<linearGradient id="SVGID_44_" gradientUnits="userSpaceOnUse" x1="212.1183" y1="54.9741" x2="225.0646" y2="54.9741">
							<stop  offset="0" style="stop-color:#8647E1"/>
							<stop  offset="1" style="stop-color:#B78FED"/>
						</linearGradient>
						<path class="st53" d="M212.12,58.71c0,4.13,2.9,5.8,6.47,3.74c3.57-2.06,6.47-7.08,6.47-11.21c0-4.13-2.9-5.8-6.47-3.74
							C215.02,49.56,212.12,54.58,212.12,58.71z M213.5,57.91c0-3.25,2.28-7.2,5.09-8.82s5.09-0.31,5.09,2.94
							c0,3.25-2.28,7.2-5.09,8.82C215.78,62.48,213.5,61.16,213.5,57.91z"/>
					</g>
				</g>
				<g>
					<linearGradient id="SVGID_45_" gradientUnits="userSpaceOnUse" x1="218.8449" y1="59.4525" x2="222.5505" y2="59.4525">
						<stop  offset="0" style="stop-color:#8647E1"/>
						<stop  offset="1" style="stop-color:#B78FED"/>
					</linearGradient>
					<polygon class="st54" points="218.84,59.24 219.78,58.21 222.55,59.8 220.81,60.69 					"/>
				</g>
				<g>
					<path class="st1" d="M218.76,59.13l2.53,1.46l-1.69,1.68l-3.17,1.43c0,0,0.17-1.39-1.15-2.96L218.76,59.13z"/>
				</g>
				<g>
					<g>
						<path class="st1" d="M189.51,45.49c0,4.13,2.9,5.8,6.47,3.74c3.57-2.06,6.47-7.08,6.47-11.21c0-4.13-2.9-5.8-6.47-3.74
							C192.4,36.34,189.51,41.36,189.51,45.49z M190.89,44.69c0-3.25,2.28-7.2,5.09-8.82c2.81-1.62,5.09-0.31,5.09,2.94
							c0,3.25-2.28,7.2-5.09,8.82C193.17,49.26,190.89,47.94,190.89,44.69z"/>
					</g>
					<g>
						<polygon class="st40" points="192.02,50.16 191.3,49.62 191.91,49.77 						"/>
					</g>
					<g>
						<polygon class="st40" points="200.8,33.98 201.79,34.7 200.97,34.94 						"/>
					</g>
					<g>
						<linearGradient id="SVGID_46_" gradientUnits="userSpaceOnUse" x1="190.3964" y1="42.4053" x2="203.3427" y2="42.4053">
							<stop  offset="0" style="stop-color:#8647E1"/>
							<stop  offset="1" style="stop-color:#B78FED"/>
						</linearGradient>
						<path class="st55" d="M190.4,46.14c0,4.13,2.9,5.8,6.47,3.74c3.57-2.06,6.47-7.08,6.47-11.21c0-4.13-2.9-5.8-6.47-3.74
							C193.29,37,190.4,42.01,190.4,46.14z M191.78,45.35c0-3.25,2.28-7.2,5.09-8.82c2.81-1.62,5.09-0.31,5.09,2.94
							c0,3.25-2.28,7.2-5.09,8.82C194.06,49.91,191.78,48.59,191.78,45.35z"/>
					</g>
				</g>
				<g>
					<linearGradient id="SVGID_47_" gradientUnits="userSpaceOnUse" x1="197.123" y1="46.8928" x2="200.7953" y2="46.8928">
						<stop  offset="0" style="stop-color:#8647E1"/>
						<stop  offset="1" style="stop-color:#B78FED"/>
					</linearGradient>
					<polygon class="st56" points="197.12,46.67 198.04,45.66 200.8,47.25 199.08,48.12 					"/>
				</g>
				<g>
					<path class="st1" d="M197.01,46.57l2.56,1.48l-1.7,1.65l-3.14,1.4c0,0,0.15-1.34-1.17-2.92L197.01,46.57z"/>
				</g>
				<g>
					<g>
						<path class="st1" d="M194.71,48.5c0,4.13,2.9,5.8,6.47,3.74c3.58-2.06,6.47-7.08,6.47-11.21c0-4.13-2.9-5.8-6.47-3.74
							C197.6,39.35,194.71,44.37,194.71,48.5z M196.09,47.7c0-3.25,2.28-7.2,5.09-8.82c2.81-1.62,5.09-0.31,5.09,2.94
							c0,3.25-2.28,7.2-5.09,8.82C198.37,52.26,196.09,50.95,196.09,47.7z"/>
					</g>
					<g>
						<polygon class="st40" points="197.22,53.16 196.5,52.63 197.11,52.77 						"/>
					</g>
					<g>
						<polygon class="st40" points="205.99,36.98 206.98,37.71 206.17,37.95 						"/>
					</g>
					<g>
						<linearGradient id="SVGID_48_" gradientUnits="userSpaceOnUse" x1="195.5959" y1="45.4101" x2="208.5421" y2="45.4101">
							<stop  offset="0" style="stop-color:#8647E1"/>
							<stop  offset="1" style="stop-color:#B78FED"/>
						</linearGradient>
						<path class="st57" d="M195.6,49.15c0,4.13,2.9,5.8,6.47,3.74c3.57-2.06,6.47-7.08,6.47-11.21s-2.9-5.8-6.47-3.74
							C198.49,40,195.6,45.02,195.6,49.15z M196.98,48.35c0-3.25,2.28-7.2,5.09-8.82c2.81-1.62,5.09-0.31,5.09,2.94
							s-2.28,7.2-5.09,8.82C199.26,52.91,196.98,51.6,196.98,48.35z"/>
					</g>
				</g>
				<g>
					<linearGradient id="SVGID_49_" gradientUnits="userSpaceOnUse" x1="202.3224" y1="49.8967" x2="205.9973" y2="49.8967">
						<stop  offset="0" style="stop-color:#8647E1"/>
						<stop  offset="1" style="stop-color:#B78FED"/>
					</linearGradient>
					<polygon class="st58" points="202.32,49.68 203.24,48.66 206,50.25 204.28,51.13 					"/>
				</g>
				<g>
					<path class="st1" d="M202.22,49.58l2.55,1.47l-1.69,1.65l-3.15,1.41c0,0,0.14-1.36-1.18-2.94L202.22,49.58z"/>
				</g>
				<g>
					<g>
						<path class="st1" d="M172.98,35.93c0,4.13,2.9,5.8,6.47,3.74c3.57-2.06,6.47-7.08,6.47-11.21s-2.9-5.8-6.47-3.74
							S172.98,31.8,172.98,35.93z M174.36,35.13c0-3.25,2.28-7.2,5.09-8.82c2.81-1.62,5.09-0.31,5.09,2.94
							c0,3.25-2.28,7.2-5.09,8.82C176.64,39.69,174.36,38.38,174.36,35.13z"/>
					</g>
					<g>
						<polygon class="st40" points="175.5,40.59 174.78,40.06 175.39,40.2 						"/>
					</g>
					<g>
						<polygon class="st40" points="184.27,24.42 185.26,25.14 184.45,25.38 						"/>
					</g>
					<g>
						<linearGradient id="SVGID_50_" gradientUnits="userSpaceOnUse" x1="173.874" y1="32.8413" x2="186.8202" y2="32.8413">
							<stop  offset="0" style="stop-color:#8647E1"/>
							<stop  offset="1" style="stop-color:#B78FED"/>
						</linearGradient>
						<path class="st59" d="M173.87,36.58c0,4.13,2.9,5.8,6.47,3.74c3.57-2.06,6.47-7.08,6.47-11.21c0-4.13-2.9-5.8-6.47-3.74
							S173.87,32.45,173.87,36.58z M175.25,35.78c0-3.25,2.28-7.2,5.09-8.82c2.81-1.62,5.09-0.31,5.09,2.94s-2.28,7.2-5.09,8.82
							C177.53,40.35,175.25,39.03,175.25,35.78z"/>
					</g>
				</g>
				<g>
					<linearGradient id="SVGID_51_" gradientUnits="userSpaceOnUse" x1="180.6005" y1="37.3369" x2="184.25" y2="37.3369">
						<stop  offset="0" style="stop-color:#8647E1"/>
						<stop  offset="1" style="stop-color:#B78FED"/>
					</linearGradient>
					<polygon class="st60" points="180.6,37.11 181.5,36.11 184.25,37.7 182.56,38.56 					"/>
				</g>
				<g>
					<path class="st1" d="M180.45,37.01l2.56,1.48l-1.66,1.65l-3.13,1.4c0,0,0.15-1.37-1.2-2.91L180.45,37.01z"/>
				</g>
				<g>
					<g>
						<path class="st1" d="M178.18,38.93c0,4.13,2.9,5.8,6.47,3.74c3.58-2.06,6.47-7.08,6.47-11.21c0-4.13-2.9-5.8-6.47-3.74
							C181.08,29.78,178.18,34.8,178.18,38.93z M179.56,38.13c0-3.25,2.28-7.2,5.09-8.82c2.81-1.62,5.09-0.31,5.09,2.94
							c0,3.25-2.28,7.2-5.09,8.82C181.84,42.7,179.56,41.38,179.56,38.13z"/>
					</g>
					<g>
						<polygon class="st40" points="180.7,43.6 179.98,43.06 180.59,43.21 						"/>
					</g>
					<g>
						<polygon class="st40" points="189.47,27.42 190.46,28.14 189.65,28.38 						"/>
					</g>
					<g>
						<linearGradient id="SVGID_52_" gradientUnits="userSpaceOnUse" x1="179.0734" y1="35.8461" x2="192.0197" y2="35.8461">
							<stop  offset="0" style="stop-color:#8647E1"/>
							<stop  offset="1" style="stop-color:#B78FED"/>
						</linearGradient>
						<path class="st61" d="M179.07,39.58c0,4.13,2.9,5.8,6.47,3.74c3.57-2.06,6.47-7.08,6.47-11.21c0-4.13-2.9-5.8-6.47-3.74
							S179.07,35.46,179.07,39.58z M180.45,38.79c0-3.25,2.28-7.2,5.09-8.82c2.81-1.62,5.09-0.31,5.09,2.94
							c0,3.25-2.28,7.2-5.09,8.82C182.73,43.35,180.45,42.03,180.45,38.79z"/>
					</g>
				</g>
				<g>
					<linearGradient id="SVGID_53_" gradientUnits="userSpaceOnUse" x1="185.8" y1="40.3407" x2="189.4522" y2="40.3407">
						<stop  offset="0" style="stop-color:#8647E1"/>
						<stop  offset="1" style="stop-color:#B78FED"/>
					</linearGradient>
					<polygon class="st62" points="185.8,40.12 186.7,39.12 189.45,40.7 187.76,41.57 					"/>
				</g>
				<g>
					<path class="st1" d="M185.67,40.02l2.54,1.47l-1.66,1.65l-3.13,1.4c0,0,0.19-1.4-1.21-2.92L185.67,40.02z"/>
				</g>
				<g>
					<g>
						<path class="st1" d="M156.46,26.36c0,4.13,2.9,5.8,6.47,3.74c3.57-2.06,6.47-7.08,6.47-11.21s-2.9-5.8-6.47-3.74
							C159.36,17.22,156.46,22.23,156.46,26.36z M157.84,25.57c0-3.25,2.28-7.2,5.09-8.82c2.81-1.62,5.09-0.31,5.09,2.94
							c0,3.25-2.28,7.2-5.09,8.82C160.12,30.13,157.84,28.81,157.84,25.57z"/>
					</g>
					<g>
						<polygon class="st40" points="158.97,31.03 158.26,30.49 158.87,30.64 						"/>
					</g>
					<g>
						<polygon class="st40" points="167.75,14.85 168.74,15.58 167.93,15.82 						"/>
					</g>
					<g>
						<linearGradient id="SVGID_54_" gradientUnits="userSpaceOnUse" x1="157.3515" y1="23.2773" x2="170.2978" y2="23.2773">
							<stop  offset="0" style="stop-color:#8647E1"/>
							<stop  offset="1" style="stop-color:#B78FED"/>
						</linearGradient>
						<path class="st63" d="M157.35,27.01c0,4.13,2.9,5.8,6.47,3.74c3.57-2.06,6.47-7.08,6.47-11.21c0-4.13-2.9-5.8-6.47-3.74
							S157.35,22.89,157.35,27.01z M158.73,26.22c0-3.25,2.28-7.2,5.09-8.82c2.81-1.62,5.09-0.31,5.09,2.94
							c0,3.25-2.28,7.2-5.09,8.82S158.73,29.46,158.73,26.22z"/>
					</g>
				</g>
				<g>
					<linearGradient id="SVGID_55_" gradientUnits="userSpaceOnUse" x1="164.078" y1="27.781" x2="167.7047" y2="27.781">
						<stop  offset="0" style="stop-color:#8647E1"/>
						<stop  offset="1" style="stop-color:#B78FED"/>
					</linearGradient>
					<polygon class="st64" points="164.08,27.55 164.97,26.57 167.7,28.15 166.04,29 					"/>
				</g>
				<g>
					<path class="st1" d="M163.93,27.47l2.54,1.47l-1.64,1.63l-3.11,1.39c0,0,0.14-1.41-1.25-2.91L163.93,27.47z"/>
				</g>
				<g>
					<g>
						<path class="st1" d="M161.66,29.37c0,4.13,2.9,5.8,6.47,3.74c3.57-2.06,6.47-7.08,6.47-11.21c0-4.13-2.9-5.8-6.47-3.74
							C164.56,20.22,161.66,25.24,161.66,29.37z M163.04,28.57c0-3.25,2.28-7.2,5.09-8.82c2.81-1.62,5.09-0.31,5.09,2.94
							c0,3.25-2.28,7.2-5.09,8.82C165.32,33.13,163.04,31.82,163.04,28.57z"/>
					</g>
					<g>
						<polygon class="st40" points="164.17,34.03 163.46,33.5 164.07,33.65 						"/>
					</g>
					<g>
						<polygon class="st40" points="172.95,17.86 173.94,18.58 173.12,18.82 						"/>
					</g>
					<g>
						<linearGradient id="SVGID_56_" gradientUnits="userSpaceOnUse" x1="162.5509" y1="26.2821" x2="175.4972" y2="26.2821">
							<stop  offset="0" style="stop-color:#8647E1"/>
							<stop  offset="1" style="stop-color:#B78FED"/>
						</linearGradient>
						<path class="st65" d="M162.55,30.02c0,4.13,2.9,5.8,6.47,3.74c3.57-2.06,6.47-7.08,6.47-11.21c0-4.13-2.9-5.8-6.47-3.74
							C165.45,20.87,162.55,25.89,162.55,30.02z M163.93,29.22c0-3.25,2.28-7.2,5.09-8.82c2.81-1.62,5.09-0.31,5.09,2.94
							c0,3.25-2.28,7.2-5.09,8.82C166.21,33.79,163.93,32.47,163.93,29.22z"/>
					</g>
				</g>
				<g>
					<linearGradient id="SVGID_57_" gradientUnits="userSpaceOnUse" x1="169.2774" y1="30.7849" x2="172.9069" y2="30.7849">
						<stop  offset="0" style="stop-color:#8647E1"/>
						<stop  offset="1" style="stop-color:#B78FED"/>
					</linearGradient>
					<polygon class="st66" points="169.28,30.55 170.17,29.57 172.91,31.15 171.24,32 					"/>
				</g>
				<g>
					<path class="st1" d="M169.12,30.47l2.55,1.47l-1.65,1.63l-3.12,1.43c0,0,0.15-1.43-1.24-2.95L169.12,30.47z"/>
				</g>
				<g>
					<g>
						<path class="st1" d="M260.79,86.72c0,4.13,2.9,5.8,6.47,3.74c3.57-2.06,6.47-7.08,6.47-11.21c0-4.13-2.9-5.8-6.47-3.74
							C263.68,77.58,260.79,82.59,260.79,86.72z M262.17,85.93c0-3.25,2.28-7.2,5.09-8.82c2.81-1.62,5.09-0.31,5.09,2.94
							c0,3.25-2.28,7.2-5.09,8.82S262.17,89.17,262.17,85.93z"/>
					</g>
					<g>
						<polygon class="st40" points="263.3,91.39 262.58,90.85 263.2,91 						"/>
					</g>
					<g>
						<polygon class="st40" points="272.08,75.21 273.07,75.94 272.25,76.18 						"/>
					</g>
					<g>
						<linearGradient id="SVGID_58_" gradientUnits="userSpaceOnUse" x1="261.6777" y1="83.6372" x2="274.624" y2="83.6372">
							<stop  offset="0" style="stop-color:#8647E1"/>
							<stop  offset="1" style="stop-color:#B78FED"/>
						</linearGradient>
						<path class="st67" d="M261.68,87.37c0,4.13,2.9,5.8,6.47,3.74c3.58-2.06,6.47-7.08,6.47-11.21c0-4.13-2.9-5.8-6.47-3.74
							C264.58,78.23,261.68,83.25,261.68,87.37z M263.06,86.58c0-3.25,2.28-7.2,5.09-8.82s5.09-0.31,5.09,2.94
							c0,3.25-2.28,7.2-5.09,8.82C265.34,91.14,263.06,89.82,263.06,86.58z"/>
					</g>
				</g>
				<g>
					<linearGradient id="SVGID_59_" gradientUnits="userSpaceOnUse" x1="274.1192" y1="111.7764" x2="275.3976" y2="111.7764">
						<stop  offset="0" style="stop-color:#8647E1"/>
						<stop  offset="1" style="stop-color:#B78FED"/>
					</linearGradient>
					<polygon class="st68" points="274.12,113.27 275.4,112.5 275.4,110.29 274.12,111.11 					"/>
				</g>
				<g>
					<linearGradient id="SVGID_60_" gradientUnits="userSpaceOnUse" x1="268.4042" y1="88.0992" x2="272.0503" y2="88.0992">
						<stop  offset="0" style="stop-color:#8647E1"/>
						<stop  offset="1" style="stop-color:#B78FED"/>
					</linearGradient>
					<path class="st69" d="M268.4,87.91l0.96-1.06c0,0,2.01,1.06,2.68,1.73l-1.69,0.78L268.4,87.91z"/>
				</g>
				<g>
					<path class="st1" d="M268.37,87.77c0,0,2.1,1.08,3.08,2.24c0.98,1.17-5.5,2.35-5.5,2.35s0.23-1.4-1.09-2.98L268.37,87.77z"/>
				</g>
			</g>
		</g>
	</g>
	<g>
		<g>
			<g>
				<path class="st70" d="M62.92,147.05c-0.65-0.38-1.35-0.7-2.08-0.99l0.02,0l-4-1.77l0.3,0.7c-3.03-0.6-6.32-0.64-9.38-0.1
					l0.19-0.78l-4.71,2.08l0.03,0c-0.61,0.26-1.21,0.54-1.76,0.86c-5.91,3.41-5.91,8.94,0,12.35c5.91,3.41,15.48,3.41,21.39,0
					C68.83,155.99,68.83,150.46,62.92,147.05z"/>
				<linearGradient id="SVGID_61_" gradientUnits="userSpaceOnUse" x1="45.1448" y1="147.3799" x2="59.3176" y2="147.3799">
					<stop  offset="0" style="stop-color:#8647E1"/>
					<stop  offset="1" style="stop-color:#B78FED"/>
				</linearGradient>
				<path class="st71" d="M57.24,150.27c-2.77,1.6-7.25,1.6-10.02,0c-2.77-1.6-2.77-4.19,0-5.79c2.77-1.6,7.25-1.6,10.02,0
					C60.01,146.08,60.01,148.68,57.24,150.27z"/>
			</g>
			<g>
				<path class="st70" d="M52.23,148.48L52.23,148.48c-1.33,0-2.41-1.08-2.41-2.41v-30.45h4.82v30.45
					C54.64,147.4,53.56,148.48,52.23,148.48z"/>
				<linearGradient id="SVGID_62_" gradientUnits="userSpaceOnUse" x1="49.7282" y1="115.7226" x2="54.646" y2="115.7226">
					<stop  offset="0" style="stop-color:#8647E1"/>
					<stop  offset="1" style="stop-color:#B78FED"/>
				</linearGradient>
				<path class="st72" d="M53.93,116.73c-0.96,0.55-2.52,0.55-3.48,0c-0.96-0.55-0.96-1.45,0-2.01c0.96-0.55,2.52-0.55,3.48,0
					C54.89,115.27,54.89,116.17,53.93,116.73z"/>
			</g>
			<path class="st70" d="M52.23,116.67L52.23,116.67c-1.08,0-1.95-0.87-1.95-1.95V86.09h3.91v28.63
				C54.18,115.79,53.31,116.67,52.23,116.67z"/>
			<g>
				<path class="st7" d="M80.31,101.09l0-1.12l1.58-0.23l1.77-1.33c0.29-0.21,0.84-0.24,1.17-0.04l1.31,0.76l1.3-0.19v1.14l-0.01,0
					c-0.01,0.13-0.1,0.26-0.3,0.34l-4.13,1.84c-0.33,0.15-0.79,0.13-1.08-0.04l-1.38-0.79C80.39,101.33,80.32,101.21,80.31,101.09
					L80.31,101.09z"/>
				<path class="st7" d="M80.48,99.67l3.19-2.38c0.29-0.21,0.84-0.24,1.17-0.04l2.38,1.37c0.33,0.19,0.3,0.51-0.07,0.67l-4.13,1.84
					c-0.33,0.15-0.79,0.13-1.08-0.04l-1.38-0.79C80.26,100.12,80.23,99.85,80.48,99.67z"/>
				<g>
					<path class="st7" d="M75.11,105.07c0.46,0,0.91-0.11,1.28-0.31l4.95-2.86c0.27-0.16,0.37-0.51,0.21-0.78
						c-0.16-0.27-0.51-0.37-0.78-0.21l-4.95,2.86c-0.37,0.21-1.04,0.21-1.41,0L66.17,99c-0.27-0.16-0.62-0.06-0.78,0.21
						c-0.16,0.27-0.06,0.62,0.21,0.78l8.23,4.77C74.19,104.97,74.65,105.07,75.11,105.07z"/>
				</g>
			</g>
			<g>
				<radialGradient id="SVGID_63_" cx="-25.0643" cy="88.6805" r="49.07" gradientUnits="userSpaceOnUse">
					<stop  offset="0" style="stop-color:#01C8EF"/>
					<stop  offset="0.0894" style="stop-color:#03BEE9"/>
					<stop  offset="0.2388" style="stop-color:#08A5D7"/>
					<stop  offset="0.4288" style="stop-color:#107BBB"/>
					<stop  offset="0.4457" style="stop-color:#1177B8"/>
					<stop  offset="1" style="stop-color:#112564"/>
				</radialGradient>
				<polygon class="st73" points="27.51,94.6 35.46,89.98 31,87.97 27.19,90.67 				"/>
				<path class="st74" d="M78.55,87.74c-0.44-0.23-0.89-0.5-1.34-0.83L60.28,74.5c-3.06-2.24-6.21-2.82-8.64-1.58
					c-0.06,0.03-0.12,0.08-0.18,0.11l-0.02-0.01L28.04,86.59l2.1,0.7L38.34,91l11.15,7.91l8.8,4.67l0.4,0.08
					c2.05-1.73,4.35-3.21,5.61-5.73c2.18-3.81,8.24-4.9,11.81-7.99c0.36,0.23,0.72,0.44,1.08,0.63
					C77.91,89.85,78.11,88.82,78.55,87.74z"/>
				<path class="st70" d="M85.98,82.14c-0.36,0-0.69,0.13-0.96,0.33l0,0L62.13,95.73l0.84,3.42l0.86-0.41
					c-1.31,2.05-3.32,3.39-5.14,4.92l2.59,0.55l22.42-13.05c0.1-0.04,0.21-0.08,0.31-0.13c0.31-0.16,0.59-0.34,0.86-0.55l0.04-0.02
					l-0.01,0c1.71-1.32,2.67-3.61,2.67-6.47v-0.27C87.56,82.85,86.85,82.14,85.98,82.14z"/>
				<g>
					<path class="st75" d="M54.63,72.28c1.43,0.05,2.96,0.54,4.49,1.45C57.59,72.82,56.06,72.33,54.63,72.28z"/>
					<path class="st70" d="M65.06,96.79v-0.27c0-0.87-0.7-1.57-1.57-1.57c-0.87,0-1.57,0.7-1.57,1.57v0.27
						c0,2.1-0.67,3.65-1.83,4.24c-1.32,0.67-3.32,0.18-5.36-1.32L37.78,87.3c-2.61-1.91-5.28-2.6-7.52-2l13.99-8.12l-16.21,9.4
						l2.1,0.7L38.34,91l11.15,7.91l8.8,4.67l0.4,0.08c2.05-1.73,4.35-3.21,5.61-5.73c0.22-0.38,0.48-0.73,0.77-1.06
						C65.06,96.85,65.06,96.82,65.06,96.79z"/>
				</g>
				<g>
					<path class="st8" d="M58.27,104.98c-1.85,0-3.89-0.75-5.9-2.22L35.44,90.35c-2.04-1.49-4.04-1.98-5.36-1.32
						c-1.17,0.59-1.83,2.14-1.83,4.24c0,0.87-0.7,1.57-1.57,1.57s-1.57-0.7-1.57-1.57c0-3.33,1.3-5.9,3.56-7.05
						c2.43-1.23,5.58-0.66,8.64,1.59l16.94,12.41c2.04,1.49,4.04,1.98,5.36,1.32c1.17-0.59,1.83-2.14,1.83-4.24v-0.27
						c0-0.87,0.7-1.57,1.57-1.57c0.87,0,1.57,0.7,1.57,1.57v0.27c0,3.33-1.3,5.9-3.56,7.05C60.18,104.77,59.25,104.98,58.27,104.98z
						"/>
				</g>
			</g>
		</g>
		<g>
			<g>
				<path class="st76" d="M44.96,132.73c0,0-3.19-1.61-5.15,0.79c-1.96,2.4-4.76,8.05-4.85,11.87c-0.09,3.82,3.02,3.56,4.87,2.66
					c1.85-0.9,7.25-8.74,7.58-10.28c0.33-1.54-0.39-3.61-0.91-4.02C45.99,133.35,44.96,132.73,44.96,132.73z"/>
				<linearGradient id="SVGID_64_" gradientUnits="userSpaceOnUse" x1="39.6157" y1="134.3174" x2="45.8056" y2="134.3174">
					<stop  offset="0" style="stop-color:#5C5E60"/>
					<stop  offset="1" style="stop-color:#9FA1A4"/>
				</linearGradient>
				<path class="st77" d="M45.66,131.97l0.15,3.31c0.03,0.7-0.32,1.37-0.93,1.72c-0.56,0.32-1.37,0.56-2.46,0.38
					c-2.4-0.39-2.62-1.07-2.79-4.38C39.45,129.69,45.66,131.97,45.66,131.97z"/>
				<g>
					<path class="st76" d="M33.28,126.38c0,0-3.19-1.61-5.15,0.79c-1.96,2.4-4.76,8.05-4.85,11.87c-0.09,3.82,3.02,3.56,4.87,2.66
						c1.85-0.9,7.25-8.74,7.58-10.28c0.33-1.54-0.39-3.61-0.91-4.02C34.31,127,33.28,126.38,33.28,126.38z"/>
					<linearGradient id="SVGID_65_" gradientUnits="userSpaceOnUse" x1="27.9376" y1="127.9621" x2="34.1274" y2="127.9621">
						<stop  offset="0" style="stop-color:#5C5E60"/>
						<stop  offset="1" style="stop-color:#9FA1A4"/>
					</linearGradient>
					<path class="st78" d="M33.98,125.61l0.15,3.31c0.03,0.7-0.32,1.37-0.93,1.72c-0.56,0.32-1.37,0.56-2.46,0.38
						c-2.4-0.39-2.62-1.07-2.79-4.38C27.77,123.34,33.98,125.61,33.98,125.61z"/>
					<linearGradient id="SVGID_66_" gradientUnits="userSpaceOnUse" x1="22.9088" y1="93.4906" x2="62.5126" y2="93.4906">
						<stop  offset="0" style="stop-color:#5C5E60"/>
						<stop  offset="1" style="stop-color:#9FA1A4"/>
					</linearGradient>
					<path class="st79" d="M62.45,64.93c-0.94-15.36-16.64,2.26-16.64,2.26L35.06,77.72l-9.67,10.63c-1.89,2.08-2.77,4.88-2.4,7.66
						l3.91,29.79c0.19,1.47,1.45,2.56,2.94,2.54c0.42,0,0.9-0.04,1.45-0.13c3.49-0.54,3.23-3.86,3.23-3.86l-0.72-27.87l20.31-12.25
						C54.12,84.24,63.39,80.29,62.45,64.93z"/>
				</g>
				<linearGradient id="SVGID_67_" gradientUnits="userSpaceOnUse" x1="34.5869" y1="99.3443" x2="74.1907" y2="99.3443">
					<stop  offset="0" style="stop-color:#5C5E60"/>
					<stop  offset="1" style="stop-color:#9FA1A4"/>
				</linearGradient>
				<path class="st80" d="M74.12,70.78c-0.94-15.36-16.64,2.26-16.64,2.26L46.74,83.57L37.07,94.2c-1.89,2.08-2.77,4.88-2.4,7.66
					l3.91,29.79c0.19,1.47,1.45,2.56,2.94,2.54c0.42,0,0.9-0.04,1.45-0.13c3.49-0.54,3.23-3.86,3.23-3.86l-0.72-27.87L65.8,90.09
					C65.8,90.09,75.07,86.15,74.12,70.78z"/>
				<linearGradient id="SVGID_68_" gradientUnits="userSpaceOnUse" x1="42.1013" y1="37.946" x2="88.2366" y2="73.9044">
					<stop  offset="0" style="stop-color:#8647E1"/>
					<stop  offset="1" style="stop-color:#B78FED"/>
				</linearGradient>
				<path class="st81" d="M64.84,21.46C76.74,26.4,76.5,33.43,76.5,33.43s-2.33,25.79-1.54,43.01c0.33,7.2-38.25,7.75-32.49-11.46
					c6.78-22.65,4.24-40.98,7.42-43.74C53.06,18.47,61.76,20.19,64.84,21.46z"/>
				<path class="st82" d="M68.67,27.7c-0.62,2.42-3.79,3.69-7.07,2.84c-3.28-0.85-5.44-3.49-4.82-5.91
					c0.62-2.42,3.79-3.69,7.07-2.84C67.13,22.64,69.29,25.28,68.67,27.7z"/>
				<path class="st8" d="M63.61,31.37c-0.7,0-1.42-0.09-2.15-0.28c-1.7-0.44-3.19-1.35-4.17-2.55c-1.03-1.26-1.4-2.7-1.05-4.04
					c0.7-2.72,4.18-4.17,7.76-3.25c3.58,0.92,5.92,3.88,5.23,6.6l0,0C68.66,30.01,66.34,31.37,63.61,31.37z M61.81,22.1
					c-2.21,0-4.06,1.03-4.48,2.68c-0.25,0.99,0.04,2.07,0.83,3.04c0.83,1.02,2.1,1.79,3.57,2.17c2.97,0.77,5.83-0.33,6.38-2.43
					c0.54-2.11-1.43-4.45-4.41-5.21C63.06,22.18,62.43,22.1,61.81,22.1z"/>
				<path class="st82" d="M60.07,20.93c0,0,0.1,0.48-0.1,4.25c-0.06,1.19,4.09,2.29,5.16,1.22c1.07-1.07,0.64-2.19,0.9-6.22
					C66.28,16.14,60.07,20.93,60.07,20.93z"/>
				<path class="st82" d="M66.02,20.17c0,0-1.02,3.74-6.06,5.18l0.08-3.4L66.02,20.17z"/>
				
					<ellipse transform="matrix(0.5133 -0.8582 0.8582 0.5133 18.2498 58.1014)" class="st82" cx="60.35" cy="12.96" rx="9.16" ry="9.16"/>
				<path class="st83" d="M52.88,13.87c0,0,4.39-1.86,8.25-1.09c0.91,0.18,1.75,0.67,2.33,1.38c0.19,0.23,0.43,0.45,0.7,0.51
					c0.68,0.15,1.8-2.68,3.13-2.74c1.33-0.06,2.21,0.88,1.13,2.62c-1.09,1.74-0.72,3.69-0.22,3.97c0.5,0.28,5.82-3.79,1.13-13.08
					c-4.69-9.29-16.6-4.29-18.45-2.4c0,0-1.95,1.7-3.54,0.19C47.33,3.23,45.55,16.55,52.88,13.87z"/>
				<path class="st82" d="M69.82,52.27v6.97c0,0.8-0.34,1.56-0.93,2.1L54.58,74.38l1.63,2.49l18.9-13.71
					c0.88-0.64,1.45-1.62,1.57-2.71l1.28-12.15L69.82,52.27z"/>
				<linearGradient id="SVGID_69_" gradientUnits="userSpaceOnUse" x1="51.5051" y1="25.8808" x2="97.6404" y2="61.8392">
					<stop  offset="0" style="stop-color:#8647E1"/>
					<stop  offset="1" style="stop-color:#B78FED"/>
				</linearGradient>
				<path class="st84" d="M75.49,29.95c0,0,4.34,6.53,5.96,23.72c0,0-7.42,2.4-11.63,1.04C65.61,53.34,75.49,29.95,75.49,29.95z"/>
				<linearGradient id="SVGID_70_" gradientUnits="userSpaceOnUse" x1="68.6116" y1="36.6851" x2="67.2547" y2="82.5942">
					<stop  offset="0" style="stop-color:#8647E1"/>
					<stop  offset="1" style="stop-color:#B78FED"/>
				</linearGradient>
				<path class="st85" d="M69.03,38.2c0,0-1.7,9.1-1.8,13.37c-0.03,1.18,0.69,2.24,1.8,2.64l0,0V38.2z"/>
			</g>
			<g>
				<linearGradient id="SVGID_71_" gradientUnits="userSpaceOnUse" x1="22.7953" y1="83.3062" x2="65.3179" y2="83.3062">
					<stop  offset="0" style="stop-color:#8647E1"/>
					<stop  offset="1" style="stop-color:#B78FED"/>
				</linearGradient>
				<path class="st86" d="M65.32,83.44l-3.16-0.42L41.73,71.24c-0.65-0.38-1.8-0.33-2.55,0.11l-14.47,8.35l-1.91-0.25v1.9l0,0
					c-0.01,0.25,0.13,0.49,0.44,0.67l23.14,13.36c0.65,0.38,1.8,0.33,2.55-0.11l15.76-9.1c0.43-0.25,0.64-0.56,0.62-0.86l0,0V83.44z
					"/>
				<linearGradient id="SVGID_72_" gradientUnits="userSpaceOnUse" x1="22.7953" y1="85.3933" x2="49.9736" y2="85.3933">
					<stop  offset="0" style="stop-color:#8647E1"/>
					<stop  offset="1" style="stop-color:#B78FED"/>
				</linearGradient>
				<path class="st87" d="M49.97,75.99l-1.45-0.84H32.57l-7.86,4.54l-1.91-0.25v1.9l0,0c-0.01,0.25,0.13,0.49,0.44,0.67l23.14,13.36
					c0.35,0.2,0.83,0.28,1.32,0.25L49.97,75.99z"/>
				<path class="st14" d="M23.64,79.55l-0.85-0.11v1.9l0,0c-0.01,0.25,0.13,0.49,0.44,0.67l0.41,0.24V79.55z"/>
				<linearGradient id="SVGID_73_" gradientUnits="userSpaceOnUse" x1="46.6126" y1="93.8709" x2="48.7828" y2="93.8709">
					<stop  offset="0" style="stop-color:#8647E1"/>
					<stop  offset="1" style="stop-color:#B78FED"/>
				</linearGradient>
				<path class="st88" d="M46.61,95.49c0.62,0.24,1.51,0.18,2.17-0.13v-3.24h-2.17V95.49z"/>
				<path class="st8" d="M46.38,93.47L23.24,80.11c-0.65-0.38-0.57-1.04,0.18-1.47l15.76-9.1c0.76-0.44,1.9-0.48,2.55-0.11
					L64.88,82.8c0.65,0.38,0.57,1.04-0.18,1.47l-15.76,9.1C48.18,93.8,47.03,93.85,46.38,93.47z"/>
				<path class="st7" d="M45.99,91.45L26.74,80.34c-0.54-0.31-0.48-0.86,0.15-1.23l8.44-4.75c0.63-0.36,1.58-0.4,2.12-0.09
					l19.24,11.11c0.54,0.31,0.48,0.86-0.15,1.23l-8.44,4.75C47.48,91.72,46.53,91.76,45.99,91.45z"/>
			</g>
			<path class="st89" d="M40.07,69.1l-0.24,1.6c-0.2,1.36-0.17,2.75,0.1,4.09l0.28,1.41c0.16,0.79,0.79,1.41,1.59,1.55l0,0
				c0.62,0.11,1.21-0.32,1.28-0.95l0.38-3.41c0,0,0.87,1.14,1.3,1.14c0.42,0-0.47-3.42-1.43-5.35C42.39,67.25,40.07,69.1,40.07,69.1
				z"/>
			<path class="st82" d="M47.92,43.72l-2.48,4.91c-0.59,1.16-0.93,2.43-1.02,3.73l-1.08,16.81l-3.27-0.08l-1.48-18.88
				c-0.05-0.58-0.02-1.17,0.08-1.75l1.69-9.57L47.92,43.72z"/>
			<g>
				<linearGradient id="SVGID_74_" gradientUnits="userSpaceOnUse" x1="23.3139" y1="64.2784" x2="47.1543" y2="90.2252">
					<stop  offset="0" style="stop-color:#8647E1"/>
					<stop  offset="1" style="stop-color:#B78FED"/>
				</linearGradient>
				<path class="st90" d="M45.6,94.76l-1.94-2.53L23.25,80.41c-0.65-0.38-1.18-1.39-1.18-2.27l0.02-16.71l-1.17-1.53l1.1-0.64l0,0
					c0.21-0.14,0.49-0.13,0.8,0.05L45.94,72.7c0.65,0.38,1.18,1.39,1.18,2.27l-0.02,18.2c0,0.49-0.17,0.83-0.43,0.97l0,0L45.6,94.76
					z"/>
				<linearGradient id="SVGID_75_" gradientUnits="userSpaceOnUse" x1="24.2025" y1="63.4619" x2="48.0429" y2="89.4087">
					<stop  offset="0" style="stop-color:#8647E1"/>
					<stop  offset="1" style="stop-color:#B78FED"/>
				</linearGradient>
				<path class="st91" d="M31.48,85.18l-1.45-0.84l-7.96-13.82l0.01-9.08l-1.17-1.53l1.1-0.64l0,0c0.21-0.14,0.49-0.13,0.8,0.05
					L45.94,72.7c0.35,0.2,0.66,0.58,0.87,1.02L31.48,85.18z"/>
				<linearGradient id="SVGID_76_" gradientUnits="userSpaceOnUse" x1="24.877" y1="62.8421" x2="48.7175" y2="88.7889">
					<stop  offset="0" style="stop-color:#8647E1"/>
					<stop  offset="1" style="stop-color:#B78FED"/>
				</linearGradient>
				<path class="st92" d="M21.43,60.58l-0.52-0.68l1.1-0.64l0,0c0.21-0.14,0.49-0.13,0.8,0.05l0.41,0.24L21.43,60.58z"/>
				<linearGradient id="SVGID_77_" gradientUnits="userSpaceOnUse" x1="30.2724" y1="57.8848" x2="54.1128" y2="83.8316">
					<stop  offset="0" style="stop-color:#8647E1"/>
					<stop  offset="1" style="stop-color:#B78FED"/>
				</linearGradient>
				<path class="st93" d="M46.15,72.85c0.51,0.42,0.91,1.21,0.97,1.95l-2.26,1.3l-1.08-1.88L46.15,72.85z"/>
				<path class="st1" d="M44.84,73.34L21.71,59.95c-0.65-0.38-1.19,0.02-1.19,0.89l-0.02,18.2c0,0.87,0.53,1.89,1.18,2.27
					L44.82,94.7C45.47,95.08,46,94.67,46,93.8l0.02-18.2C46.02,74.73,45.49,73.72,44.84,73.34z"/>
			</g>
			<path class="st89" d="M56.21,76.87l-0.37,0.77c-0.43,0.88-1.1,1.63-1.93,2.14l-2.3,1.42c-0.71,0.44-1.62,0.48-2.35,0.05
				c-0.03-0.02-0.05-0.03-0.08-0.05c-0.73-0.46-0.8-1.51-0.2-2.12l2.4-2.47c0,0-1.35,1.03-1.73,0.62c-0.28-0.3,1.31-1.79,2.52-1.84
				s2.39-1,2.39-1L56.21,76.87z"/>
			<linearGradient id="SVGID_78_" gradientUnits="userSpaceOnUse" x1="46.1721" y1="32.7231" x2="92.3074" y2="68.6814">
				<stop  offset="0" style="stop-color:#8647E1"/>
				<stop  offset="1" style="stop-color:#B78FED"/>
			</linearGradient>
			<path class="st94" d="M50.12,21.2c0,0-8.8,9.58-12.35,18.36c0,0,3.01,5.42,10.38,7.55C55.51,49.24,50.12,21.2,50.12,21.2z"/>
			<linearGradient id="SVGID_79_" gradientUnits="userSpaceOnUse" x1="46.332" y1="36.0265" x2="44.9751" y2="81.9357">
				<stop  offset="0" style="stop-color:#8647E1"/>
				<stop  offset="1" style="stop-color:#B78FED"/>
			</linearGradient>
			<path class="st95" d="M46.49,46.54l1.43-13.78l-3.36,12.91C45.16,45.98,45.8,46.27,46.49,46.54z"/>
		</g>
	</g>
	<path class="st1" d="M251.97,191.67c-0.11,0-0.23-0.03-0.33-0.09L164.03,141c-0.32-0.19-0.43-0.6-0.25-0.92
		c0.19-0.32,0.6-0.43,0.92-0.25l87.61,50.58c0.32,0.19,0.43,0.6,0.25,0.92C252.43,191.55,252.2,191.67,251.97,191.67z"/>
	<g>
		<polygon class="st7" points="31.67,230 40.46,235.21 33.93,238.88 25.14,233.67 		"/>
	</g>
	<g>
		<polygon class="st1" points="53.54,244.3 62.32,249.52 55.79,253.19 47,247.97 		"/>
	</g>
	<g>
		<linearGradient id="SVGID_80_" gradientUnits="userSpaceOnUse" x1="66.2778" y1="260.975" x2="81.5989" y2="260.975">
			<stop  offset="0" style="stop-color:#8647E1"/>
			<stop  offset="1" style="stop-color:#B78FED"/>
		</linearGradient>
		<polygon class="st96" points="72.81,256.53 81.6,261.75 75.07,265.42 66.28,260.2 		"/>
	</g>
	<g>
		<linearGradient id="SVGID_81_" gradientUnits="userSpaceOnUse" x1="119.276" y1="127.9622" x2="134.5971" y2="127.9622">
			<stop  offset="0" style="stop-color:#8647E1"/>
			<stop  offset="1" style="stop-color:#B78FED"/>
		</linearGradient>
		<polygon class="st97" points="125.81,123.52 134.6,128.73 128.07,132.4 119.28,127.19 		"/>
	</g>
	<g>
		<polygon class="st1" points="121.18,55.23 129.97,60.45 123.44,64.12 114.65,58.9 		"/>
	</g>
	<g>
		<polygon class="st1" points="6.53,91.86 15.32,97.07 8.79,100.74 0,95.53 		"/>
	</g>
	<g>
		<polygon class="st7" points="164.16,156.78 172.95,162 166.42,165.67 157.63,160.45 		"/>
	</g>
	<g>
		<polygon class="st1" points="135.51,86.49 144.3,91.7 137.77,95.37 128.98,90.16 		"/>
	</g>
	<g>
		<polygon class="st1" points="67.53,121.86 76.32,127.07 69.79,130.74 61,125.53 		"/>
	</g>
	<g>
		<polygon class="st1" points="285.91,75.91 294.7,81.12 288.16,84.79 279.38,79.58 		"/>
	</g>
	<g>
		<polygon class="st1" points="231.63,193.37 240.42,198.58 233.89,202.25 225.1,197.04 		"/>
	</g>
	<g>
		<polygon class="st1" points="95.41,268.96 104.2,274.17 97.67,277.84 88.88,272.63 		"/>
	</g>
	<g>
		<polygon class="st1" points="59.87,268.96 68.66,274.17 62.13,277.84 53.34,272.63 		"/>
	</g>
	<g>
		<polygon class="st1" points="85.48,280.48 94.27,285.69 87.74,289.36 78.95,284.15 		"/>
	</g>
	<g>
		<polygon class="st7" points="115.7,281.33 124.49,286.55 117.96,290.22 109.17,285 		"/>
	</g>
	<g>
		<polygon class="st1" points="136.34,294.05 145.13,299.27 138.6,302.94 129.81,297.72 		"/>
	</g>
	<g>
		<linearGradient id="SVGID_82_" gradientUnits="userSpaceOnUse" x1="257.4197" y1="227.9904" x2="272.7408" y2="227.9904">
			<stop  offset="0" style="stop-color:#8647E1"/>
			<stop  offset="1" style="stop-color:#B78FED"/>
		</linearGradient>
		<polygon class="st98" points="263.95,223.55 272.74,228.76 266.21,232.43 257.42,227.22 		"/>
	</g>
	<g>
		<polygon class="st1" points="34.44,252.09 43.23,257.3 36.69,260.97 27.91,255.76 		"/>
	</g>
	<g>
		<g>
			<path class="st1" d="M31.54,174.26l-20.08-11.59c-0.4-0.23-0.76-0.24-1.04-0.08c0,0,0-0.01,0-0.01l-1.95,1.13
				c0,0,0.86,0.31,1.37,0.5v14.62c0,1.19,0.72,2.57,1.62,3.09l19.19,11.08v1.72l1.97-1.13l-0.01,0c0.33-0.2,0.55-0.65,0.55-1.29
				v-14.93C33.15,176.15,32.43,174.77,31.54,174.26z"/>
			<path class="st7" d="M29.55,194.64L9.48,183.04c-0.89-0.52-1.62-1.9-1.62-3.09v-14.93c0-1.19,0.72-1.74,1.62-1.22l20.08,11.59
				c0.89,0.52,1.62,1.9,1.62,3.09v14.93C31.17,194.6,30.45,195.15,29.55,194.64z"/>
		</g>
		<g>
			<path class="st8" d="M16.23,177.9c0,0.86-0.61,1.21-1.35,0.78c-0.75-0.43-1.35-1.48-1.35-2.35c0-0.86,0.61-1.21,1.35-0.78
				C15.62,175.99,16.23,177.04,16.23,177.9z"/>
			<path class="st8" d="M20.33,180.27c0,0.86-0.61,1.21-1.35,0.78c-0.75-0.43-1.35-1.48-1.35-2.35c0-0.86,0.61-1.21,1.35-0.78
				S20.33,179.41,20.33,180.27z"/>
			<path class="st8" d="M24.44,182.64c0,0.86-0.61,1.21-1.35,0.78c-0.75-0.43-1.35-1.48-1.35-2.35c0-0.86,0.61-1.21,1.35-0.78
				C23.83,180.72,24.44,181.77,24.44,182.64z"/>
		</g>
	</g>
	<g>
		<g>
			<path class="st1" d="M257.41,29.45l-20.08-11.59c-0.4-0.23-0.76-0.24-1.04-0.08c0,0,0-0.01,0-0.01l-1.95,1.13
				c0,0,0.86,0.31,1.37,0.5v14.62c0,1.19,0.72,2.57,1.62,3.09l19.19,11.08v1.72l1.97-1.13l-0.01,0c0.33-0.2,0.55-0.65,0.55-1.29
				V32.54C259.03,31.35,258.31,29.97,257.41,29.45z"/>
			<path class="st7" d="M255.43,49.83l-20.08-11.59c-0.89-0.52-1.62-1.9-1.62-3.09V20.23c0-1.19,0.72-1.74,1.62-1.22l20.08,11.59
				c0.89,0.52,1.62,1.9,1.62,3.09v14.93C257.05,49.8,256.32,50.35,255.43,49.83z"/>
		</g>
		<g>
			<path class="st1" d="M242.11,33.1c0,0.86-0.61,1.21-1.35,0.78c-0.75-0.43-1.35-1.48-1.35-2.35c0-0.86,0.61-1.21,1.35-0.78
				C241.5,31.18,242.11,32.23,242.11,33.1z"/>
			<path class="st1" d="M246.21,35.47c0,0.86-0.61,1.21-1.35,0.78c-0.75-0.43-1.35-1.48-1.35-2.35c0-0.86,0.61-1.21,1.35-0.78
				C245.6,33.55,246.21,34.6,246.21,35.47z"/>
			<path class="st1" d="M250.31,37.84c0,0.86-0.61,1.21-1.35,0.78c-0.75-0.43-1.35-1.48-1.35-2.35c0-0.86,0.61-1.21,1.35-0.78
				C249.71,35.92,250.31,36.97,250.31,37.84z"/>
		</g>
	</g>
	<g>
		<g>
			<linearGradient id="SVGID_83_" gradientUnits="userSpaceOnUse" x1="240.8607" y1="28.472" x2="229.1799" y2="13.9188">
				<stop  offset="0" style="stop-color:#8647E1"/>
				<stop  offset="1" style="stop-color:#B78FED"/>
			</linearGradient>
			<path class="st99" d="M239.16,21.18c0-4.93-3.46-10.92-7.73-13.39c-2.08-1.2-3.96-1.34-5.35-0.59l0-0.01l-0.08,0.05
				c-0.02,0.01-0.03,0.02-0.05,0.03l-2.69,1.55l1.28-0.08c-0.52,0.9-0.82,2.08-0.82,3.52c0,4.93,3.46,10.92,7.73,13.39
				c1.13,0.65,2.2,0.98,3.17,1.04c-0.17,0.34-0.59,1.17-0.59,1.17l2.8-1.62c0.06-0.03,0.12-0.07,0.17-0.1l0.13-0.07
				c0,0-0.02,0-0.03,0.01C238.36,25.21,239.16,23.53,239.16,21.18z"/>
			<linearGradient id="SVGID_84_" gradientUnits="userSpaceOnUse" x1="220.8984" y1="18.3309" x2="236.3591" y2="18.3309">
				<stop  offset="0" style="stop-color:#8647E1"/>
				<stop  offset="1" style="stop-color:#B78FED"/>
			</linearGradient>
			<path class="st100" d="M236.36,22.79c0,4.93-3.46,6.93-7.73,4.46c-4.27-2.46-7.73-8.46-7.73-13.39c0-4.93,3.46-6.93,7.73-4.46
				C232.9,11.87,236.36,17.86,236.36,22.79z"/>
		</g>
		<g>
			<path class="st8" d="M228.4,23.21c-0.41-0.24-0.76-0.51-1.05-0.81c-0.29-0.3-0.51-0.63-0.66-0.99c-0.16-0.36-0.27-0.73-0.33-1.11
				c-0.07-0.38-0.1-0.81-0.1-1.29l1.42,0.82c0,0.27,0.01,0.49,0.03,0.68c0.02,0.19,0.05,0.38,0.1,0.58c0.05,0.2,0.13,0.37,0.24,0.51
				s0.25,0.26,0.41,0.36c0.11,0.06,0.2,0.09,0.28,0.1c0.08,0,0.15-0.01,0.2-0.03c0.05-0.02,0.1-0.09,0.13-0.18
				c0.04-0.1,0.07-0.19,0.09-0.27c0.02-0.08,0.03-0.21,0.04-0.39c0.01-0.18,0.01-0.32,0.01-0.44c0-0.12,0-0.29,0-0.52
				c0-0.25,0-0.46-0.01-0.63c-0.01-0.17-0.03-0.35-0.06-0.54c-0.03-0.19-0.07-0.35-0.13-0.48c-0.05-0.13-0.13-0.25-0.23-0.37
				c-0.1-0.12-0.22-0.22-0.36-0.3c-0.2-0.12-0.37-0.13-0.51-0.06c-0.14,0.08-0.24,0.23-0.29,0.44l-1.25-0.72l0.07-5.39l3.84,2.22
				v1.53l-2.6-1.5l-0.09,2.25c0.11-0.08,0.27-0.1,0.47-0.08c0.2,0.03,0.42,0.11,0.66,0.24c0.33,0.17,0.62,0.4,0.86,0.67
				c0.24,0.27,0.44,0.59,0.59,0.94c0.15,0.35,0.26,0.73,0.33,1.13c0.07,0.41,0.11,0.84,0.11,1.31c0,0.43-0.02,0.81-0.05,1.12
				c-0.04,0.32-0.1,0.61-0.2,0.87c-0.1,0.26-0.23,0.45-0.39,0.56c-0.16,0.11-0.38,0.15-0.64,0.12
				C229.06,23.54,228.75,23.42,228.4,23.21z"/>
		</g>
	</g>
	<linearGradient id="SVGID_85_" gradientUnits="userSpaceOnUse" x1="219.5284" y1="140.9712" x2="234.0425" y2="140.9712">
		<stop  offset="0" style="stop-color:#8647E1"/>
		<stop  offset="1" style="stop-color:#B78FED"/>
	</linearGradient>
	<path class="st101" d="M223.35,144.71l-3.67-5.96c-0.29-0.47-0.14-1.09,0.33-1.38c0.47-0.29,1.09-0.14,1.38,0.33l2.69,4.37
		l8.51-4.47c0.49-0.25,1.09-0.07,1.35,0.42c0.26,0.49,0.07,1.09-0.42,1.35L223.35,144.71z"/>
	<linearGradient id="SVGID_86_" gradientUnits="userSpaceOnUse" x1="203.6875" y1="110.2741" x2="221.3535" y2="110.2741">
		<stop  offset="0" style="stop-color:#8647E1"/>
		<stop  offset="1" style="stop-color:#B78FED"/>
	</linearGradient>
	<path class="st102" d="M217.34,120.53c-1.92,0-4.11-0.99-5.83-1.98c-5.19-3-7.82-7.02-7.82-11.96c0-2.78,0.99-4.89,2.78-5.92
		c1.79-1.04,4.11-0.84,6.52,0.55c4.61,2.66,8.37,9.17,8.37,14.49c0,2.11-0.65,3.56-1.94,4.3
		C218.79,120.38,218.08,120.53,217.34,120.53z M209,101.88c-0.59,0-1.13,0.13-1.6,0.4c-1.19,0.69-1.85,2.22-1.85,4.31
		c0,4.22,2.32,7.7,6.89,10.34c2.69,1.55,4.95,2.1,6.04,1.47c0.67-0.39,1.01-1.29,1.01-2.69c0-4.74-3.34-10.51-7.44-12.88
		C210.96,102.2,209.91,101.88,209,101.88z"/>
	<linearGradient id="SVGID_87_" gradientUnits="userSpaceOnUse" x1="209.4882" y1="106.1539" x2="225.5078" y2="106.1539">
		<stop  offset="0" style="stop-color:#8647E1"/>
		<stop  offset="1" style="stop-color:#B78FED"/>
	</linearGradient>
	<path class="st103" d="M224.58,112.09c-0.27,0-0.54-0.12-0.72-0.34c-4.59-5.61-13.72-9.71-13.82-9.75
		c-0.47-0.21-0.68-0.76-0.47-1.23c0.21-0.47,0.76-0.68,1.23-0.47c0.39,0.17,9.62,4.31,14.5,10.27c0.33,0.4,0.27,0.98-0.13,1.31
		C224.99,112.02,224.79,112.09,224.58,112.09z"/>
</g>
</svg>
