<?xml version="1.0" encoding="utf-8"?>
<!-- Generator: Adobe Illustrator 25.2.1, SVG Export Plug-In . SVG Version: 6.00 Build 0)  -->
<svg version="1.1" id="Layer_1" xmlns="http://www.w3.org/2000/svg" width="100" xmlns:xlink="http://www.w3.org/1999/xlink" x="0px" y="0px"
	 viewBox="0 0 770.79 953.71" style="enable-background:new 0 0 770.79 953.71;" xml:space="preserve">
<style type="text/css">
	.st0{fill:none;}
	.st1{opacity:0.15;fill:url(#SVGID_3_);}
	.st2{fill:none;stroke:#020202;stroke-width:15;stroke-linecap:round;stroke-linejoin:round;stroke-miterlimit:10;}
</style>
<g>
	<g>
		<defs>
			<rect id="SVGID_1_" width="770.79" height="953.71"/>
		</defs>
		<clipPath id="SVGID_2_">
			<use xlink:href="#SVGID_1_"  style="overflow:visible;"/>
		</clipPath>
	</g>
	<rect class="st0" width="770.79" height="953.71"/>
	<linearGradient id="SVGID_3_" gradientUnits="userSpaceOnUse" x1="399.6516" y1="716.878" x2="696.8431" y2="165.3886">
		<stop  offset="0" style="stop-color:#8647E1"/>
		<stop  offset="1" style="stop-color:#B78FED"/>
	</linearGradient>
	<polygon class="st1" points="0,563.04 770.79,0 754.58,953.71 	"/>
	<g>
		<g>
			<path class="st2" d="M402.51,497.13c0-10.89,8.76-19.67,19.65-19.67h82.63c10.88,0,19.64,8.77,19.64,19.67v23.17
				c0,11.17-27.19,20.16-60.96,20.16s-60.96-8.99-60.96-20.16V497.13z"/>
			<path class="st2" d="M496.23,425.31c0,8.71-3.45,17.06-9.6,23.22s-14.48,9.62-23.17,9.62s-17.02-3.46-23.17-9.62
				c-6.14-6.16-9.6-14.51-9.6-23.22c0-8.71,3.45-17.06,9.6-23.22c6.14-6.16,14.48-9.62,23.17-9.62s17.02,3.46,23.17,9.62
				C492.78,408.25,496.23,416.6,496.23,425.31z"/>
			<path class="st2" d="M593.26,466.47c0,34.42-13.67,67.44-38.01,91.78c-24.34,24.34-57.35,38.01-91.78,38.01
				s-67.44-13.67-91.78-38.02c-24.34-24.34-38.01-57.35-38.01-91.77c0-71.68,58.11-129.79,129.79-129.79
				c34.42,0,67.44,13.67,91.78,38.02C579.59,399.03,593.26,432.04,593.26,466.47z"/>
			<path class="st2" d="M419.61,237.43v33.92c-22.41,4.98-43.8,13.77-63.23,26l-23.85-23.85l-62.03,62.03l23.97,23.97
				c-12.29,19.38-21.15,40.73-26.21,63.11h-33.83v87.72h33.92c4.98,22.41,13.77,43.8,25.99,63.23l-23.85,23.85l62.03,62.03
				l23.97-23.97c19.38,12.29,40.73,21.15,63.11,26.21v33.84h87.72v-33.92c22.41-4.98,43.8-13.77,63.23-26l23.85,23.85l62.03-62.03
				l-23.97-23.97c12.29-19.38,21.15-40.73,26.21-63.11h33.83V422.6h-33.92c-4.98-22.41-13.77-43.8-26-63.23l23.85-23.85
				l-62.03-62.03l-23.97,23.97c-19.38-12.29-40.73-21.15-63.11-26.21v-33.83H419.61z"/>
		</g>
	</g>
</g>
</svg>
