<?xml version="1.0" encoding="utf-8"?>
<!-- Generator: Adobe Illustrator 25.2.1, SVG Export Plug-In . SVG Version: 6.00 Build 0)  -->
<svg version="1.1" id="Layer_1" xmlns="http://www.w3.org/2000/svg" width="100" xmlns:xlink="http://www.w3.org/1999/xlink" x="0px" y="0px"
	 viewBox="0 0 770.79 953.71" style="enable-background:new 0 0 770.79 953.71;" xml:space="preserve">
<style type="text/css">
	.st0{opacity:0.15;fill:url(#SVGID_1_);}
	.st1{fill:none;stroke:#020202;stroke-width:15;stroke-linecap:round;stroke-linejoin:round;stroke-miterlimit:10;}
</style>
<g>
	<linearGradient id="SVGID_1_" gradientUnits="userSpaceOnUse" x1="399.6516" y1="716.878" x2="696.8431" y2="165.3886">
		<stop  offset="0" style="stop-color:#8647E1"/>
		<stop  offset="1" style="stop-color:#B78FED"/>
	</linearGradient>
	<polygon class="st0" points="0,563.04 770.79,0 754.58,953.71 	"/>
	<g>
		<g>
			<polygon class="st1" points="706.51,611.13 653.29,589.64 643.19,585.57 633.03,581.46 536.41,542.45 577.33,643.79 
				581.36,653.78 585.38,663.73 605.1,712.55 629.43,657.62 684.11,719.98 698.08,704.13 713.94,690.16 651.57,635.47 			"/>
			<path class="st1" d="M535.19,700.51c-19.09,5.14-39.17,7.89-59.89,7.89c-126.84,0-229.67-102.83-229.67-229.68
				c0-126.83,102.83-229.65,229.67-229.65c126.84,0,229.66,102.82,229.66,229.65c0,23.78-3.62,46.72-10.32,68.3"/>
			<path class="st1" d="M509.5,636.54c-11.02,2.38-22.47,3.63-34.2,3.63c-89.16,0-161.43-72.27-161.43-161.43
				s72.28-161.42,161.43-161.42s161.43,72.26,161.43,161.42c0,14.82-2,29.17-5.75,42.81"/>
			<path class="st1" d="M483.49,568.14c-2.7,0.25-5.43,0.37-8.19,0.37c-49.58,0-89.78-40.2-89.78-89.78
				c0-49.57,40.2-89.76,89.78-89.76c49.57,0,89.77,40.19,89.77,89.76c0,5.39-0.47,10.67-1.39,15.8"/>
		</g>
	</g>
</g>
</svg>
