<?xml version="1.0" encoding="utf-8"?>
<!-- Generator: Adobe Illustrator 25.2.1, SVG Export Plug-In . SVG Version: 6.00 Build 0)  -->
<svg version="1.1" id="Layer_1" xmlns="http://www.w3.org/2000/svg" width="100" xmlns:xlink="http://www.w3.org/1999/xlink" x="0px" y="0px"
	 viewBox="0 0 770.79 953.71" style="enable-background:new 0 0 770.79 953.71;" xml:space="preserve">
<style type="text/css">
	.st0{opacity:0.15;fill:url(#SVGID_1_);}
</style>
<g>
	<linearGradient id="SVGID_1_" gradientUnits="userSpaceOnUse" x1="399.6516" y1="716.878" x2="696.8431" y2="165.3886">
		<stop  offset="0" style="stop-color:#8647E1"/>
		<stop  offset="1" style="stop-color:#B78FED"/>
	</linearGradient>
	<polygon class="st0" points="0,563.04 770.79,0 754.58,953.71 	"/>
	<g>
		<g>
			<g>
				<path d="M494.1,616.61h-47.55c-3.62,0-6.56-2.94-6.56-6.56v-53.98L293.71,383.31c-1.65-1.95-2.02-4.68-0.94-6.99
					c1.07-2.32,3.39-3.8,5.95-3.8h343.22c2.55,0,4.87,1.48,5.95,3.8c1.07,2.32,0.71,5.05-0.94,6.99L500.66,556.07v53.98
					C500.66,613.67,497.72,616.61,494.1,616.61z M453.1,603.5h34.44v-49.83c0-1.55,0.55-3.05,1.55-4.24l138.69-163.81H312.86
					l138.69,163.81c1,1.18,1.55,2.69,1.55,4.24V603.5z M470.53,525.78c-1.74,0-3.41-0.69-4.63-1.92l-61.26-61.26
					c-1.88-1.87-2.44-4.69-1.42-7.14c1.01-2.45,3.4-4.05,6.06-4.05h35.4v-45.07c0-3.62,2.94-6.56,6.56-6.56h38.6
					c3.62,0,6.56,2.94,6.56,6.56v45.07h35.4c2.65,0,5.04,1.6,6.06,4.05c1.01,2.45,0.45,5.27-1.42,7.14l-61.26,61.26
					C473.94,525.09,472.27,525.78,470.53,525.78z M425.1,464.52l45.43,45.43l45.43-45.43h-26.13c-3.62,0-6.56-2.94-6.56-6.56V412.9
					h-25.49v45.07c0,3.62-2.94,6.56-6.56,6.56H425.1z"/>
			</g>
		</g>
		<g>
			<g>
				<g>
					<g>
						<g>
							<g>
								<path d="M648.9,378.57l-13.11-0.07c0.05-9.04-0.66-18.12-2.11-27.06l-45.97,6.26l-19.41-47.35l37.14-27.81
									c-10.42-14.71-23.07-27.45-37.71-37.99l-28.08,36.93l-47.21-19.76l6.6-45.92c-17.79-3.03-35.74-3.1-53.53-0.2l6.26,45.97
									l-47.35,19.41l-27.81-37.14c-14.71,10.42-27.45,23.07-37.99,37.71l36.93,28.08l-19.76,47.21l-45.92-6.6
									c-1.43,8.42-2.2,16.95-2.3,25.46l-13.11-0.15c0.13-11.4,1.39-22.85,3.72-34.03l1.26-6.02l48.17,6.92l11.93-28.49
									l-38.74-29.46l3.41-5.12c13.3-20,30.23-36.8,50.31-49.94l5.15-3.37l29.17,38.96l28.58-11.71l-6.57-48.22l6.03-1.21
									c23.52-4.74,47.37-4.65,70.88,0.26l6.02,1.26l-6.92,48.17l28.49,11.93l29.45-38.74l5.12,3.41c20,13.3,36.8,30.23,49.94,50.3
									l3.37,5.15l-38.96,29.17L596,343.33l48.22-6.57l1.21,6.03C647.8,354.55,648.97,366.58,648.9,378.57z M547.44,377.76
									l-13.11-0.03c0.08-34.54-27.97-62.7-62.51-62.78c-0.04,0-0.09,0-0.14,0c-34.48,0-62.57,28.01-62.64,62.51l-13.11-0.03
									c0.09-41.71,34.06-75.59,75.75-75.59c0.06,0,0.11,0,0.17,0C513.62,301.93,547.53,335.99,547.44,377.76z"/>
							</g>
						</g>
					</g>
				</g>
			</g>
		</g>
		<g>
			<g>
				<g>
					<g>
						<path d="M470.84,741.76c-9.03,0-19.01-3.35-27.87-9.63l7.58-10.7c8.92,6.32,19.27,8.77,26.37,6.26
							c3.62-1.28,5.96-3.76,6.98-7.38c0.22-0.78,0.8-2.83-3.64-5.99c-2.57-1.83-5.85-3.13-9.75-3.86
							c-14.12-2.66-19.69-10.06-21.87-15.79c-3.26-8.58-0.26-18.36,7.46-24.34c18-13.95,42.89,1.09,43.94,1.74l-6.88,11.16
							l3.44-5.58l-3.43,5.59c-0.18-0.11-18.23-10.93-29.05-2.55c-3.08,2.39-4.41,6.22-3.23,9.32c1.44,3.79,5.49,6.33,12.04,7.57
							c5.77,1.09,10.79,3.13,14.91,6.06c10.41,7.4,9.9,15.85,8.67,20.23c-2.17,7.73-7.58,13.48-15.23,16.19
							C478.07,741.2,474.53,741.76,470.84,741.76z"/>
					</g>
					<g>
						<rect x="466.95" y="650.5" width="13.11" height="20.49"/>
					</g>
					<g>
						<rect x="466.95" y="736.42" width="13.11" height="20.49"/>
					</g>
				</g>
			</g>
			<g>
				<g>
					<g>
						<path d="M471.65,779.42c-17.91,0-35.88-6.3-50.29-19.1c-31.22-27.75-34.04-75.72-6.28-106.94
							c27.75-31.22,75.73-34.03,106.94-6.28c31.22,27.75,34.03,75.72,6.28,106.94v0C513.36,770.84,492.55,779.42,471.65,779.42z
							 M471.77,641.06c-1.25,0-2.5,0.04-3.76,0.11c-16.7,0.98-32.02,8.41-43.14,20.91c-11.12,12.5-16.7,28.59-15.72,45.29
							c0.98,16.7,8.41,32.02,20.91,43.14c25.81,22.95,65.48,20.62,88.43-5.2c22.95-25.81,20.62-65.48-5.2-88.43
							C501.74,646.61,487.12,641.06,471.77,641.06z"/>
					</g>
				</g>
			</g>
		</g>
	</g>
</g>
</svg>
