<?xml version="1.0" encoding="utf-8"?>
<!-- Generator: Adobe Illustrator 25.2.1, SVG Export Plug-In . SVG Version: 6.00 Build 0)  -->
<svg version="1.1" id="Layer_1" xmlns="http://www.w3.org/2000/svg" width="100" xmlns:xlink="http://www.w3.org/1999/xlink" x="0px" y="0px"
	 viewBox="0 0 770.79 953.71" style="enable-background:new 0 0 770.79 953.71;" xml:space="preserve">
<style type="text/css">
	.st0{fill:none;}
	.st1{opacity:0.15;fill:url(#SVGID_3_);}
</style>
<g>
	<g>
		<defs>
			<rect id="SVGID_1_" width="770.79" height="953.71"/>
		</defs>
		<clipPath id="SVGID_2_">
			<use xlink:href="#SVGID_1_"  style="overflow:visible;"/>
		</clipPath>
	</g>
	<rect class="st0" width="770.79" height="953.71"/>
	<linearGradient id="SVGID_3_" gradientUnits="userSpaceOnUse" x1="399.6516" y1="716.878" x2="696.8431" y2="165.3886">
		<stop  offset="0" style="stop-color:#8647E1"/>
		<stop  offset="1" style="stop-color:#B78FED"/>
	</linearGradient>
	<polygon class="st1" points="0,563.04 770.79,0 754.58,953.71 	"/>
	<g id="Element_1_">
		<path id="Element_2_" d="M611.71,273.87c-13.05,0-24.53,6.82-31.08,17.08l-229.72,84.22H214.23c-3.36,0-6.08,2.72-6.08,6.08v18.51
			c-25.46,2.64-45.38,24.22-45.38,50.37c0,26.15,19.92,47.73,45.38,50.37V519c0,3.36,2.72,6.08,6.08,6.08h30.39v99.27
			c0,21.22,17.27,38.49,38.49,38.49c21.22,0,38.49-17.27,38.49-38.49v-99.27h29.31l229.72,84.22c6.55,10.26,18.03,17.08,31.08,17.08
			c20.33,0,36.87-16.54,36.87-36.87V310.74C648.58,290.41,632.04,273.87,611.71,273.87z M208.15,488.25
			c-18.74-2.58-33.23-18.69-33.23-38.12s14.48-35.55,33.23-38.12V488.25z M309.44,561.55h-21.97c-3.36,0-6.08,2.72-6.08,6.08
			c0,3.36,2.72,6.08,6.08,6.08h21.97v12.16h-21.97c-3.36,0-6.08,2.72-6.08,6.08c0,3.36,2.72,6.08,6.08,6.08h21.97v26.34
			c0,14.52-11.81,26.34-26.34,26.34c-14.52,0-26.34-11.81-26.34-26.34v-99.27h52.67V561.55z M345.91,512.93H220.31V387.32h125.61
			V512.93z M358.07,514.76V385.49l216.77-79.59v288.46L358.07,514.76z M636.43,589.51c0,13.63-11.09,24.72-24.72,24.72
			c-13.63,0-24.72-11.09-24.72-24.72V310.74c0-13.63,11.09-24.72,24.72-24.72c13.63,0,24.72,11.09,24.72,24.72V589.51z"/>
	</g>
</g>
</svg>
