<?xml version="1.0" encoding="utf-8"?>
<!-- Generator: Adobe Illustrator 25.2.1, SVG Export Plug-In . SVG Version: 6.00 Build 0)  -->
<svg version="1.1" id="image" xmlns="http://www.w3.org/2000/svg" xmlns:xlink="http://www.w3.org/1999/xlink" x="0px" y="0px"
	 viewBox="0 0 1723.5 743.3" style="enable-background:new 0 0 1723.5 743.3;" xml:space="preserve">
<style type="text/css">
	.st0{fill:#FFD6D6;}
	.st1{fill:#0C0C0C;}
	.st2{fill:url(#SVGID_1_);}
	.st3{opacity:0.4;}
	.st4{fill:url(#SVGID_2_);}
	.st5{fill:url(#SVGID_3_);}
	.st6{fill:url(#SVGID_4_);}
	.st7{fill:url(#SVGID_5_);}
	.st8{fill:url(#SVGID_6_);}
	.st9{fill:#FFAB8F;}
	.st10{fill:#BD35B8;}
	.st11{fill:#FFFFFF;}
	.st12{fill:url(#SVGID_7_);}
	.st13{fill:url(#SVGID_8_);}
	.st14{fill:url(#SVGID_9_);}
	.st15{fill:url(#SVGID_10_);}
	.st16{fill:url(#SVGID_11_);}
	.st17{fill:url(#SVGID_12_);}
	.st18{fill:url(#SVGID_13_);}
	.st19{fill:url(#SVGID_14_);}
	.st20{opacity:0.5;fill:url(#SVGID_15_);}
	.st21{opacity:0.5;fill:url(#SVGID_16_);}
	.st22{opacity:0.25;fill:url(#SVGID_17_);}
	.st23{opacity:0.25;fill:url(#SVGID_18_);}
	.st24{fill:url(#SVGID_19_);}
	.st25{fill:url(#SVGID_20_);}
	.st26{fill:url(#SVGID_21_);}
	.st27{fill:url(#SVGID_22_);}
	.st28{fill:url(#SVGID_23_);}
	.st29{fill:url(#SVGID_24_);}
	.st30{fill:url(#SVGID_25_);}
	.st31{fill:url(#SVGID_26_);}
	.st32{fill:#E2E2E2;}
	.st33{fill:url(#SVGID_27_);}
	.st34{fill:url(#SVGID_28_);}
	.st35{fill:url(#SVGID_29_);}
	.st36{fill:url(#SVGID_30_);}
	.st37{fill:url(#SVGID_31_);}
	.st38{fill:url(#SVGID_32_);}
	.st39{fill:#CE434A;}
	.st40{fill:url(#SVGID_33_);}
	.st41{fill:url(#SVGID_34_);}
	.st42{fill:#C9C9C9;}
	.st43{fill:url(#SVGID_35_);}
	.st44{fill:url(#SVGID_36_);}
	.st45{fill:url(#SVGID_37_);}
	.st46{fill:url(#SVGID_38_);}
	.st47{fill:url(#SVGID_39_);}
	.st48{fill:url(#SVGID_40_);}
	.st49{fill:url(#SVGID_41_);}
	.st50{fill:url(#SVGID_42_);}
	.st51{fill:url(#SVGID_43_);}
	.st52{fill:url(#SVGID_44_);}
	.st53{fill:url(#SVGID_45_);}
	.st54{fill:url(#SVGID_46_);}
	.st55{fill:url(#SVGID_47_);}
	.st56{fill:url(#SVGID_48_);}
	.st57{fill:url(#SVGID_49_);}
	.st58{fill:url(#SVGID_50_);}
	.st59{fill:url(#SVGID_51_);}
	.st60{fill:url(#SVGID_52_);}
	.st61{fill:url(#SVGID_53_);}
	.st62{fill:url(#SVGID_54_);fill-opacity:0;}
</style>
<g>
	<polygon class="st0" points="1096.1,702.6 1134.2,708.3 1132.3,716.4 1089.7,717.5 	"/>
	<path class="st1" d="M1135.1,720l-1.7-1c-3.1-1.9-4.3-5.9-3-9.6l0,0c0.4-1.1,1.2-2.2,2.2-2.6c0.7-0.3,1.5-0.3,2.1,0.1l17.4,10.7
		c1.7,1-0.4,7.3-6.8,5.6C1145.3,723.2,1137.3,721.4,1135.1,720z"/>
	<polygon class="st0" points="1097,707.6 1134.8,714.8 1132.6,722.8 1090,722.2 	"/>
	<path class="st1" d="M1135.3,726.5l-1.7-1.1c-3-2-4.1-6-2.6-9.7l0,0c0.5-1.1,1.3-2.1,2.3-2.5c0.7-0.3,1.5-0.3,2.1,0.1l17,11.3
		c1.7,1.1-0.6,7.3-7,5.4C1145.3,730,1137.4,727.9,1135.3,726.5z"/>
	
		<linearGradient id="SVGID_1_" gradientUnits="userSpaceOnUse" x1="906.293" y1="691.4034" x2="906.293" y2="258.5821" gradientTransform="matrix(1 0 0 -1 0 746)">
		<stop  offset="0" style="stop-color:#FFFFFF"/>
		<stop  offset="1" style="stop-color:#FFFFFF;stop-opacity:0.2"/>
	</linearGradient>
	<path class="st2" d="M120.5,443.9c53.5-94.4,169.7-275.5,259.2-254.6C500.5,217.5,515.9,362.6,578.9,363
		c63,0.4,106.8-350.7,346.8-362.7c169.7-8.5,224.6,191,285.6,307.4c26.7,51,91.6,89.8,129.5,46.5c46.9-53.7,101.3-101.3,180.7-96
		c0,0,102.7,12.7,134,118c15.4,51.6,68,121.6,68,121.6H89.1L120.5,443.9z"/>
	<g class="st3">
		<g>
			
				<linearGradient id="SVGID_2_" gradientUnits="userSpaceOnUse" x1="704.641" y1="669.6486" x2="1123.7229" y2="669.6486" gradientTransform="matrix(1 0 0 -1 0 746)">
				<stop  offset="0" style="stop-color:#DCDFFB"/>
				<stop  offset="1" style="stop-color:#F3F3FA"/>
			</linearGradient>
			<path class="st4" d="M924.9,0.3C820,5.5,752.6,75.5,704.6,152.7c37-29.8,77.2-51.9,116.7-51.3c120,2,59.6,64,222.8,40
				c26.6-3.9,53.4-7.2,79.6-10.1C1079.4,56.4,1020.3-4.5,924.9,0.3z"/>
			
				<linearGradient id="SVGID_3_" gradientUnits="userSpaceOnUse" x1="211.237" y1="492.4607" x2="513.746" y2="492.4607" gradientTransform="matrix(1 0 0 -1 0 746)">
				<stop  offset="0" style="stop-color:#DCDFFB"/>
				<stop  offset="1" style="stop-color:#F3F3FA"/>
			</linearGradient>
			<path class="st5" d="M303.3,319.4c79.4-1.5,161.9-11.6,210.5-15.2c-28.9-43.8-63.5-98.7-133-114.9
				c-53.6-12.5-116.4,46.8-169.5,116.7C237.8,314.2,269,320.1,303.3,319.4z"/>
		</g>
	</g>
	<g>
		<path class="st1" d="M688.4,618.3l7.3-0.1l1.3,5.4c0.2,1,0.1,2.1-0.5,2.8c-0.4,0.5-1,0.9-1.6,0.9l-18.2,0.2
			c-1.8,0-3.2-5.2,2.5-6.9C679.2,620.6,686.1,618.3,688.4,618.3z"/>
		<path class="st1" d="M741.4,618.3l7.3-0.1l1.3,5.4c0.2,1,0.1,2.1-0.5,2.8c-0.4,0.5-1,0.9-1.6,0.9l-18.2,0.2
			c-1.8,0-3.2-5.2,2.5-6.9C732.2,620.6,739.1,618.3,741.4,618.3z"/>
		
			<linearGradient id="SVGID_4_" gradientUnits="userSpaceOnUse" x1="705.2555" y1="202.513" x2="705.2555" y2="123.5953" gradientTransform="matrix(1 0 0 -1 0 746)">
			<stop  offset="0" style="stop-color:#5C5E60"/>
			<stop  offset="1" style="stop-color:#9FA1A4"/>
		</linearGradient>
		<polygon class="st6" points="702.2,494.8 683.9,618.2 696.9,618.2 726.6,499.6 		"/>
		
			<linearGradient id="SVGID_5_" gradientUnits="userSpaceOnUse" x1="736.0435" y1="202.513" x2="736.0435" y2="123.5953" gradientTransform="matrix(1 0 0 -1 0 746)">
			<stop  offset="0" style="stop-color:#5C5E60"/>
			<stop  offset="1" style="stop-color:#9FA1A4"/>
		</linearGradient>
		<polygon class="st7" points="722.8,500.3 736.3,618.2 749.3,618.2 745.8,498.2 		"/>
		
			<linearGradient id="SVGID_6_" gradientUnits="userSpaceOnUse" x1="709.5074" y1="286.9422" x2="719.5074" y2="228.2755" gradientTransform="matrix(1 0 0 -1 0 746)">
			<stop  offset="0" style="stop-color:#5C5E60"/>
			<stop  offset="1" style="stop-color:#9FA1A4"/>
		</linearGradient>
		<path class="st8" d="M743.8,446.2c-0.7-2.3-1.6-4.6-3.3-6.4c-2.2-2.4-5.7-3.6-9-3.8s-6.7,0.5-10,1.1c-4.4,0.9-14.6,3-19.1,3.9
			c-0.1,0-0.2,0-0.3,0.1c-4.3,1.1-8.6,2.2-13,3.4c-3.3,0.8-6.6,1.7-9.5,3.3c-2.9,1.6-5.5,4.1-6.5,7.3c-0.7,2.3-0.5,4.8-0.2,7.2
			c0.3,2.2,0.7,4.4,1.2,6.6c0.6,2.9,3.7,4.5,6.5,3.3l3.1-1.3c2.8-1.1,5.9,0.5,6.5,3.5c1.7,8.5,4.9,24.7,7.6,35.4
			c0.6,2.4,2.9,3.9,5.4,3.5c4.1-0.7,8.8-1.6,12.8-2.5c0,0,0,0,0,0c4.9-1,16.6-3.8,23.9-5.9c2.4-0.7,3.8-3.1,3.3-5.5
			c-2.5-11.7-7.3-30.5-9.6-39.2c-0.7-2.6,0.9-5.2,3.5-5.8l8.2-1.9C746,454.1,745,450.1,743.8,446.2z"/>
		<path class="st0" d="M697.4,442.5c0,0,3.9,3.3,9.3,2.1c5.5-1.2,5.7-5.5,5.7-5.5l-8-0.3L697.4,442.5z"/>
		<path d="M696.9,427.5L696.9,427.5c-3.9,2.2-9,0.9-11.2-3l-2.4-4.1c-2.2-3.9-0.9-9,3-11.2l0,0c3.9-2.2,9-0.9,11.2,3l2.4,4.1
			C702.2,420.2,700.8,425.2,696.9,427.5z"/>
		<path class="st0" d="M709.2,418.7c-0.7,0.3-3.9,0.8-4.6,1.1l-0.5-4.1c-0.5-4.3-4.3-7.4-8.6-6.9l-2.6,0.3c-4.3,0.5-7.4,4.3-6.9,8.6
			l1.1,9.7c0.5,4.3,4.3,7.4,8.6,6.9h0c2.1-0.3,4,1.2,4.3,3.3c0.3,2.8-1.8,4-2.3,4.4l14.5-1.3C710.7,432.6,709.8,427.5,709.2,418.7z"
			/>
		<path d="M710.4,430.2c0,0,7.5-13,1.6-23.3s-25.5-7.3-25.3,2.8s14.1,5.5,14.1,5.5s6.1,0.9,8.1,6.8L710.4,430.2z"/>
		<path class="st9" d="M703.7,420.8c0.2,2.2,2.1,3.9,4.1,3.6c2-0.2,3.5-2.2,3.2-4.4s-2.1-3.9-4.1-3.6
			C704.9,416.5,703.4,418.5,703.7,420.8z"/>
		<path d="M705.3,422.7L705.3,422.7c-0.8,0.1-1.5-0.5-1.6-1.3l-0.6-5.1c-0.1-0.8,0.5-1.5,1.3-1.6l0,0c0.8-0.1,1.5,0.5,1.6,1.3
			l0.6,5.1C706.7,421.9,706.1,422.6,705.3,422.7z"/>
		<polygon class="st10" points="743.6,443.3 754.4,465.4 742.7,473.6 726.9,452.8 740.3,440 		"/>
		<polygon class="st11" points="711,434.5 718.2,437.8 713.1,449.3 706.3,444.6 		"/>
	</g>
	<polygon class="st0" points="288.4,577.5 266.8,544.7 254.5,553.7 282.1,583.1 	"/>
	<g>
		
			<linearGradient id="SVGID_7_" gradientUnits="userSpaceOnUse" x1="353.6265" y1="261.8463" x2="353.6265" y2="242.7996" gradientTransform="matrix(1 0 0 -1 0 746)">
			<stop  offset="0" style="stop-color:#5C5E60"/>
			<stop  offset="1" style="stop-color:#9FA1A4"/>
		</linearGradient>
		<path class="st12" d="M365,497.3h-22.8c-4.7,0-8.6-3.9-8.6-8.6v-0.4c0-4.7,3.9-8.6,8.6-8.6H365c4.7,0,8.6,3.9,8.6,8.6v0.4
			C373.6,493.4,369.8,497.3,365,497.3z"/>
		
			<linearGradient id="SVGID_8_" gradientUnits="userSpaceOnUse" x1="333.62" y1="249.8463" x2="333.62" y2="266.2611" gradientTransform="matrix(1 0 0 -1 0 746)">
			<stop  offset="0" style="stop-color:#5C5E60"/>
			<stop  offset="1" style="stop-color:#9FA1A4"/>
		</linearGradient>
		<path class="st13" d="M338.6,496h-10c-3.6,0-6.5-2.9-6.5-6.5v-0.3c0-3.6,2.9-6.5,6.5-6.5h10c3.6,0,6.5,2.9,6.5,6.5v0.3
			C345.1,493.1,342.2,496,338.6,496z"/>
		
			<linearGradient id="SVGID_9_" gradientUnits="userSpaceOnUse" x1="323.242" y1="261.8463" x2="323.242" y2="242.7996" gradientTransform="matrix(1 0 0 -1 0 746)">
			<stop  offset="0" style="stop-color:#5C5E60"/>
			<stop  offset="1" style="stop-color:#9FA1A4"/>
		</linearGradient>
		<path class="st14" d="M326.8,494.1h-7.1c-2.5,0-4.6-2.1-4.6-4.6v-0.2c0-2.5,2.1-4.6,4.6-4.6h7.1c2.5,0,4.6,2.1,4.6,4.6v0.2
			C331.4,492,329.3,494.1,326.8,494.1z"/>
	</g>
	<path class="st0" d="M337.7,484.2L337.7,484.2c-2.7,0.3-4.7,2.1-4.5,4l0.6,5.7c0.2,2,2.5,3.3,5.2,3.1l0,0c2.7-0.3,4.7-2.1,4.5-4
		l-0.6-5.7C342.7,485.3,340.4,483.9,337.7,484.2z"/>
	<path class="st1" d="M314.5,702.4l-7.3-0.1l-1.3,5.4c-0.2,1-0.1,2.1,0.5,2.8c0.4,0.5,1,0.9,1.6,0.9l18.3,0.2c1.8,0,3.2-5.3-2.5-6.9
		C323.8,704.7,316.8,702.5,314.5,702.4z"/>
	<path class="st1" d="M279.3,702.4l-7.3-0.1l-1.3,5.4c-0.2,1-0.1,2.1,0.5,2.8c0.4,0.5,1,0.9,1.6,0.9l18.3,0.2c1.8,0,3.2-5.3-2.5-6.9
		C288.6,704.7,281.7,702.5,279.3,702.4z"/>
	
		<linearGradient id="SVGID_10_" gradientUnits="userSpaceOnUse" x1="306.4165" y1="115.513" x2="306.4165" y2="40.1436" gradientTransform="matrix(1 0 0 -1 0 746)">
		<stop  offset="0" style="stop-color:#5C5E60"/>
		<stop  offset="1" style="stop-color:#9FA1A4"/>
	</linearGradient>
	<polygon class="st15" points="319.1,583.6 319.1,702.3 305.9,702.3 293.8,583.6 	"/>
	
		<linearGradient id="SVGID_11_" gradientUnits="userSpaceOnUse" x1="284.746" y1="115.513" x2="284.746" y2="40.1436" gradientTransform="matrix(1 0 0 -1 0 746)">
		<stop  offset="0" style="stop-color:#5C5E60"/>
		<stop  offset="1" style="stop-color:#9FA1A4"/>
	</linearGradient>
	<polygon class="st16" points="298.1,583.6 284.5,702.3 271.4,702.3 274.9,581.6 	"/>
	<g>
		<path class="st0" d="M297.2,489.2c0.8,0.3,1.6,0.6,2.5,0.9l0.2-4.5c0.2-4.6,4.2-8.2,8.9-8l2.8,0.1c4.6,0.2,8.2,4.2,8,8.9
			l-0.5,10.5c-0.2,4.6-4.2,8.2-8.9,8c0,0,0,0,0,0c-2.3-0.1-3.3,0.8-4.6,4c-1.1,2.9-1.2,5.6-1.2,8.7c-3.7-0.7-8.5-1.6-12.3-1.4
			C294,507.2,297.1,498.7,297.2,489.2z"/>
		<path d="M316.4,485.5c7.8-7.4-3-16.5-14.5-14.3c-6.9,1.3-13.1,2.9-15.4,10.6c-0.7,2.3-0.7,0.7-1,3.1c-0.6,6.6,0.8,7.5,4.5,14.5
			c5.4,10.3,16.2,6.4,18.2,3.4C309.9,500.6,313.8,488,316.4,485.5z"/>
		
			<linearGradient id="SVGID_12_" gradientUnits="userSpaceOnUse" x1="297.2715" y1="148.3081" x2="298.8367" y2="223.0472" gradientTransform="matrix(1 0 0 -1 0 746)">
			<stop  offset="0" style="stop-color:#B78FED"/>
			<stop  offset="1" style="stop-color:#8647E1"/>
		</linearGradient>
		<path class="st17" d="M284.7,513.3c4.9-0.1,8.8-0.3,13.7-0.4c4.9,0.1,9.7,0.3,14.6,0.4c3.6,0.1,5.3,0.4,6.9,2.2
			c2.4,2.7,2.3,20.2,2.3,20.2s-2.5,44.2-3.2,59.7c-5.2,0.5-38-0.2-44.5-0.8c-0.5-11.1,0.4-50.5,0.4-62.4
			C275,517.9,283.2,513.3,284.7,513.3z"/>
		<path class="st0" d="M307.8,513.1c0,0-3.9,2.4-9.9,2.4s-6.8-2.4-6.8-2.4l8.3-2.2L307.8,513.1z"/>
		<path class="st0" d="M307.4,492.4c-0.2,2.9,1.5,5.4,3.7,5.5c2.2,0.1,4.1-2.2,4.3-5.1c0.2-2.9-1.5-5.4-3.7-5.5
			C309.4,487.2,307.5,489.5,307.4,492.4z"/>
	</g>
	<polygon class="st0" points="334.7,494.5 329.2,533.4 344.4,534.8 343.1,494.5 	"/>
	
		<linearGradient id="SVGID_13_" gradientUnits="userSpaceOnUse" x1="325.7072" y1="147.7126" x2="327.2724" y2="222.4518" gradientTransform="matrix(1 0 0 -1 0 746)">
		<stop  offset="0" style="stop-color:#B78FED"/>
		<stop  offset="1" style="stop-color:#8647E1"/>
	</linearGradient>
	<path class="st18" d="M308.8,530l20.1,11.3c5.1,2.9,11.5,1.3,14.8-3.5l1.6-2.3l-26.3-20.9L308.8,530z"/>
	
		<linearGradient id="SVGID_14_" gradientUnits="userSpaceOnUse" x1="269.2285" y1="148.8954" x2="270.7937" y2="223.6346" gradientTransform="matrix(1 0 0 -1 0 746)">
		<stop  offset="0" style="stop-color:#B78FED"/>
		<stop  offset="1" style="stop-color:#8647E1"/>
	</linearGradient>
	<path class="st19" d="M279.8,517l-21.7,19.6c-5.5,4.9-7.6,13.1-4.8,18.6l0,0c0.7,1.4,2.5,1.9,3.8,1l31.6-21.6L279.8,517z"/>
	<linearGradient id="SVGID_15_" gradientUnits="userSpaceOnUse" x1="363.7162" y1="102.2694" x2="626.9662" y2="111.2694">
		<stop  offset="0" style="stop-color:#DCDFFB"/>
		<stop  offset="1" style="stop-color:#F3F3FA"/>
	</linearGradient>
	<path class="st20" d="M671.6,106.6c0,0-25.9-33.5-42.9-22.3S592.3,126,592.3,126s-38-53.6-63.4-32.9s-20,38.8-20,38.8
		s-42.6-21-64,2.9l221.1,2.7c8.3,0.1,13.1-6.6,10.6-14.9L671.6,106.6z"/>
	<linearGradient id="SVGID_16_" gradientUnits="userSpaceOnUse" x1="1237.3322" y1="157.2905" x2="1431.5667" y2="157.2905">
		<stop  offset="0" style="stop-color:#DCDFFB"/>
		<stop  offset="1" style="stop-color:#F3F3FA"/>
	</linearGradient>
	<path class="st21" d="M1427,154.7c0,0-21.7-28-35.8-18.7c-14.2,9.4-30.5,34.9-30.5,34.9s-31.8-44.8-53-27.5s-16.7,32.4-16.7,32.4
		s-35.6-17.5-53.5,2.4l184.8,2.2c7,0.1,10.9-5.5,8.8-12.5L1427,154.7z"/>
	<g>
		<linearGradient id="SVGID_17_" gradientUnits="userSpaceOnUse" x1="1291.1976" y1="472.0185" x2="1450.076" y2="472.0185">
			<stop  offset="0" style="stop-color:#DCDFFB"/>
			<stop  offset="1" style="stop-color:#F3F3FA"/>
		</linearGradient>
		<path class="st22" d="M1294.3,586.9c0,0-15.7-72.7,23.8-99.2c39.5-26.6,5.4-96.2,67.8-118s62.3-45.8,62.3-45.8s12.1,91-25.8,123.3
			c-37.8,32.4-57.8,104.5-74.9,119.8c-17.2,15.3-41.6,53.4-41.6,53.4L1294.3,586.9z"/>
		<g>
			<path class="st11" d="M1318.8,557.9c-0.2,0-0.5,0-0.7-0.1c-1-0.4-1.4-1.5-1-2.4c0.2-0.6,25.3-62,62.4-113.6
				c2.5-3.4,5.2-7.2,8.2-11.3c22-30.3,55.3-76.1,57.6-95c0.1-1,1.1-1.8,2.1-1.6c1,0.1,1.8,1.1,1.6,2.1
				c-2.4,19.9-34.7,64.3-58.3,96.8c-2.9,4-5.7,7.8-8.1,11.2c-36.8,51.2-61.7,112.2-61.9,112.8
				C1320.2,557.4,1319.5,557.9,1318.8,557.9z"/>
		</g>
		<linearGradient id="SVGID_18_" gradientUnits="userSpaceOnUse" x1="1286.894" y1="562.5397" x2="1510.2521" y2="562.5397">
			<stop  offset="0" style="stop-color:#DCDFFB"/>
			<stop  offset="1" style="stop-color:#F3F3FA"/>
		</linearGradient>
		<path class="st23" d="M1286.9,630c0,0,61.3-110.4,129.2-130.1c67.9-19.7,94.2,17.2,94.2,17.2s-30-3-58.6,20.7
			c-28.5,23.7-53.3,34.4-70.2,40.2s-49.6,53-49.6,53L1286.9,630z"/>
		<g>
			<path class="st11" d="M1324.8,615.1c-0.3,0-0.6-0.1-0.9-0.2c-0.9-0.5-1.3-1.6-0.8-2.5c0.1-0.2,11.5-22.1,29.6-44.3
				c16.8-20.7,43.1-45.9,72.8-48.7c9.2-0.9,18.7-3.2,27.8-5.5c16.5-4,32.1-7.9,44.9-3.4c1,0.3,1.5,1.4,1.2,2.4
				c-0.3,1-1.4,1.5-2.4,1.2c-11.8-4.1-26.9-0.4-42.8,3.5c-9.3,2.3-18.9,4.6-28.3,5.5c-28.3,2.7-53.8,27.3-70.2,47.4
				c-17.9,21.9-29.1,43.4-29.2,43.7C1326.1,614.7,1325.5,615.1,1324.8,615.1z"/>
		</g>
	</g>
	<g>
		
			<linearGradient id="SVGID_19_" gradientUnits="userSpaceOnUse" x1="1095.522" y1="260.8966" x2="507.0002" y2="514.4617" gradientTransform="matrix(1 0 0 -1 0 746)">
			<stop  offset="0" style="stop-color:#8648E2"/>
			<stop  offset="1" style="stop-color:#AC7FEB"/>
		</linearGradient>
		<polygon class="st24" points="383.1,168.4 420.8,168.4 420.8,288.8 462.6,288.8 462.6,168.4 500.2,168.4 500.2,134.2 383.1,134.2 
					"/>
		
			<linearGradient id="SVGID_20_" gradientUnits="userSpaceOnUse" x1="1115.5724" y1="307.4334" x2="527.0505" y2="560.9986" gradientTransform="matrix(1 0 0 -1 0 746)">
			<stop  offset="0" style="stop-color:#8648E2"/>
			<stop  offset="1" style="stop-color:#AC7FEB"/>
		</linearGradient>
		<polygon class="st25" points="612.9,191.5 564.3,191.5 564.3,134.2 522.3,134.2 522.3,288.8 564.3,288.8 564.3,225.8 612.9,225.8 
			612.9,288.8 654.8,288.8 654.8,134.2 612.9,134.2 		"/>
		
			<linearGradient id="SVGID_21_" gradientUnits="userSpaceOnUse" x1="1136.9879" y1="357.1389" x2="548.4662" y2="610.7042" gradientTransform="matrix(1 0 0 -1 0 746)">
			<stop  offset="0" style="stop-color:#8648E2"/>
			<stop  offset="1" style="stop-color:#AC7FEB"/>
		</linearGradient>
		<path class="st26" d="M722,133.6l-50.4,155.2h45.9l7.8-29h50.2l7.6,29h45.7l-51.1-155.2H722z M733.9,225.6
			c6.4-24.3,10.6-40.5,12.4-48.8c1.9-8.2,3.1-14.2,3.8-17.8c0.7,3.9,2.2,10.3,4.4,19.2c2.2,9,4.1,16.3,5.7,21.9l6.7,25.4H733.9z"/>
		
			<linearGradient id="SVGID_22_" gradientUnits="userSpaceOnUse" x1="1167.3209" y1="427.5414" x2="578.7993" y2="681.1067" gradientTransform="matrix(1 0 0 -1 0 746)">
			<stop  offset="0" style="stop-color:#8648E2"/>
			<stop  offset="1" style="stop-color:#AC7FEB"/>
		</linearGradient>
		<path class="st27" d="M955.5,204.1c0,9.4,0.5,22,1.5,37.5h-0.6l-56.3-107.4h-54.6v154.6h37v-69.7c0-9-0.7-22.1-2-39.2h1
			l56.5,108.9h54.8V134.2h-37.2L955.5,204.1L955.5,204.1z"/>
		
			<linearGradient id="SVGID_23_" gradientUnits="userSpaceOnUse" x1="1194.4823" y1="490.5827" x2="605.9608" y2="744.148" gradientTransform="matrix(1 0 0 -1 0 746)">
			<stop  offset="0" style="stop-color:#8648E2"/>
			<stop  offset="1" style="stop-color:#AC7FEB"/>
		</linearGradient>
		<path class="st28" d="M1159,134.2h-45.7l-32.5,47.4c-6.4,9-10.7,15.6-12.8,19.8v-67.2h-42v154.6h42v-51.7l12.4-7.4l30.6,59.1h47.2
			l-47.9-85.3L1159,134.2z"/>
	</g>
	<g>
		
			<linearGradient id="SVGID_24_" gradientUnits="userSpaceOnUse" x1="527.8423" y1="450.3781" x2="520.0163" y2="118.552" gradientTransform="matrix(1 0 0 -1 0 746)">
			<stop  offset="0" style="stop-color:#8648E2"/>
			<stop  offset="1" style="stop-color:#AC7FEB"/>
		</linearGradient>
		<polygon class="st29" points="527.5,427.9 472.4,308.3 377.4,308.3 483.6,507.6 483.6,631 571.5,631 571.5,504.9 677.7,308.3 
			583.2,308.3 		"/>
		
			<linearGradient id="SVGID_25_" gradientUnits="userSpaceOnUse" x1="861.4857" y1="442.8219" x2="853.6595" y2="110.9957" gradientTransform="matrix(1 0 0 -1 0 746)">
			<stop  offset="0" style="stop-color:#8648E2"/>
			<stop  offset="1" style="stop-color:#AC7FEB"/>
		</linearGradient>
		<path class="st30" d="M858,303.2c-51.2,0-90.3,14.2-117.1,42.5C714,374,700.6,415,700.6,468.7c0,54.3,13.5,95.7,40.5,124.1
			c27,28.4,65.8,42.6,116.4,42.6c51.4,0,90.4-14.1,117-42.4c26.6-28.3,40-69.5,40-123.8c0-54.5-13.2-95.7-39.7-123.8
			C948.3,317.2,909.4,303.2,858,303.2z M906.7,540c-10.7,15.2-27,22.7-49.1,22.7c-43.4,0-65.1-31.2-65.1-93.6
			c0-63,21.9-94.5,65.6-94.5c21.5,0,37.6,7.7,48.5,23.1c10.8,15.4,16.2,39.2,16.2,71.4C922.7,501.3,917.4,524.9,906.7,540z"/>
		
			<linearGradient id="SVGID_26_" gradientUnits="userSpaceOnUse" x1="1211.3669" y1="434.2572" x2="1203.5409" y2="102.4312" gradientTransform="matrix(1 0 0 -1 0 746)">
			<stop  offset="0" style="stop-color:#8648E2"/>
			<stop  offset="1" style="stop-color:#AC7FEB"/>
		</linearGradient>
		<path class="st31" d="M1260,308.3v189c0,23.3-4,40-12,50.2c-8,10.2-20.9,15.3-38.7,15.3c-16.6,0-29.2-5.1-37.7-15.5
			c-8.5-10.3-12.8-26.9-12.8-49.7V308.3H1071v196.3c0,42.2,11.8,74.6,35.4,97.1c23.6,22.5,57.4,33.8,101.4,33.8
			c45,0,79.5-11.6,103.4-34.8c23.9-23.2,35.9-55.9,35.9-98.1V308.3H1260z"/>
	</g>
	
		<ellipse transform="matrix(0.3173 -0.9483 0.9483 0.3173 124.3898 1362.526)" class="st32" cx="1008.5" cy="594.9" rx="22.4" ry="22.4"/>
	<g>
		<path class="st32" d="M1033.3,634l-0.3,0.2c-0.7,0.5-1.6,0.3-2.1-0.3l-12.5-17.3c-0.5-0.7-0.3-1.6,0.3-2.1l0.3-0.2
			c0.7-0.5,1.6-0.3,2.1,0.3l12.5,17.3C1034.2,632.6,1034,633.5,1033.3,634z"/>
		
			<linearGradient id="SVGID_27_" gradientUnits="userSpaceOnUse" x1="1024.3934" y1="106.9145" x2="1047.5367" y2="106.9145" gradientTransform="matrix(1 0 0 -1 0 746)">
			<stop  offset="0" style="stop-color:#5C5E60"/>
			<stop  offset="1" style="stop-color:#9FA1A4"/>
		</linearGradient>
		<path class="st33" d="M1045.6,652.5L1045.6,652.5c-2.1,1.5-5,1-6.5-1l-13.9-19.2c-1.5-2.1-1-5,1-6.5l0,0c2.1-1.5,5-1,6.5,1
			l13.9,19.2C1048.2,648,1047.7,651,1045.6,652.5z"/>
		<g>
			
				<linearGradient id="SVGID_28_" gradientUnits="userSpaceOnUse" x1="982.1476" y1="151.1315" x2="1034.9227" y2="151.1315" gradientTransform="matrix(1 0 0 -1 0 746)">
				<stop  offset="0" style="stop-color:#5C5E60"/>
				<stop  offset="1" style="stop-color:#9FA1A4"/>
			</linearGradient>
			<path class="st34" d="M1000.9,620.1c-13.9-4.2-21.8-19-17.6-32.9c4.2-13.9,19-21.8,32.9-17.6c13.9,4.2,21.8,19,17.6,32.9
				C1029.6,616.4,1014.8,624.3,1000.9,620.1z M1014.6,574.9c-11-3.3-22.7,2.9-26.1,14c-3.3,11,2.9,22.7,14,26.1
				c11,3.3,22.7-2.9,26.1-14C1031.9,589.9,1025.6,578.2,1014.6,574.9z"/>
		</g>
	</g>
	<path class="st0" d="M1041.9,645.7L1041.9,645.7c-1.5,2.3-4.5,3-6.7,1.6l-5.8-3.7c-2.2-1.4-2.9-4.4-1.5-6.6l0.1-0.1
		c1.4-2.2,4.4-2.9,6.6-1.5l5.8,3.7C1042.7,640.5,1043.3,643.5,1041.9,645.7z"/>
	<path class="st0" d="M1077.5,650.3l-4.3,6.2c-1.5,2.1-4.3,2.7-6.6,1.4l-23.4-14.4l-11.9,1l30.6,24.5c5.5,4.4,13.7,2.8,17.1-3.5
		l9.1-16.6L1077.5,650.3z"/>
	<g>
		<path class="st0" d="M1093.6,599.8c-0.6,0.5-1.2,0.9-1.9,1.4l-1.3-3.8c-1.4-3.9-5.6-5.9-9.5-4.6l-2.3,0.8
			c-3.9,1.4-5.9,5.6-4.6,9.5l3.1,8.8c1.4,3.9,5.6,5.9,9.5,4.6h0c1.9-0.7,3-0.1,4.9,2.3c1.7,2.2,2.4,4.5,3.2,7.1
			c3-1.5,6.8-3.5,10.1-4.3C1100.8,614.3,1096.1,607.8,1093.6,599.8z"/>
		<path d="M1076.3,601.5c-8.5-4.3-1.6-14.8,8.7-15.8c6.2-0.6,11.9-0.8,15.7,5.2c1.2,1.8,0.8,0.4,1.6,2.4c2.2,5.5,1.2,6.5-0.2,13.4
			c-2.1,10.1-12.1,9.4-14.7,7.5C1085.6,612.6,1079.2,602.9,1076.3,601.5z"/>
		<path class="st0" d="M1085.7,605c0.9,2.4,0.1,5-1.8,5.6s-4.1-0.8-4.9-3.3c-0.9-2.4-0.1-5,1.8-5.6S1084.9,602.6,1085.7,605z"/>
		<linearGradient id="SVGID_29_" gradientUnits="userSpaceOnUse" x1="1089.8966" y1="628.465" x2="1074.8966" y2="715.465">
			<stop  offset="0" style="stop-color:#B78FED"/>
			<stop  offset="1" style="stop-color:#8647E1"/>
		</linearGradient>
		<polygon class="st35" points="1084.9,627.7 1072.9,654 1084.3,660.4 1101.2,635.8 		"/>
		<ellipse class="st11" cx="1097" cy="595.1" rx="5.7" ry="5.7"/>
		<linearGradient id="SVGID_30_" gradientUnits="userSpaceOnUse" x1="1106.0175" y1="631.2444" x2="1091.0175" y2="718.2444">
			<stop  offset="0" style="stop-color:#B78FED"/>
			<stop  offset="1" style="stop-color:#8647E1"/>
		</linearGradient>
		<path class="st36" d="M1102.6,623.1c-4.7,0.5-8.3,0.9-13,1.6c-8.9,1.3-9.2,20-9.2,20s13.5,28.4,14.6,41.7c5,0,2,3.6,7.9,3.1
			c0,0,0,0,0,0c6.4-0.3,12.2-9.1,18.5-10.2c0.1-9.6,2.4-39.5,1-49.7C1120.9,618.5,1107.3,622.8,1102.6,623.1z"/>
		<path class="st0" d="M1093.7,624.1c0,0,4,1.7,9.8,1.3c5.8-0.5,6.3-2.6,6.3-2.6l-8.2-1.2L1093.7,624.1z"/>
		<path d="M1094.5,593.4c2.2-2.8,6-3.5,9-1.5c2.1,1.4,4.1,4.1,5.6,9c4,13.4,13,5.1,13.9,11.3s-3,24.8-13.7,16.9
			c-10.6-7.8-14.5-13.1-12.5-20.9c1-3.7-0.3-6.3-1.9-7.9C1093.2,598.4,1093,595.4,1094.5,593.4L1094.5,593.4z"/>
		<linearGradient id="SVGID_31_" gradientUnits="userSpaceOnUse" x1="1108.1909" y1="631.6191" x2="1093.1909" y2="718.6191">
			<stop  offset="0" style="stop-color:#B78FED"/>
			<stop  offset="1" style="stop-color:#8647E1"/>
		</linearGradient>
		<path class="st37" d="M1097,676.1c0,0-38.5,17.6-34.1,34.4c4.4,16.8,40.7,13.5,40.7,13.5l23.4-16.4c1.4-1,1.3-3,0-3.9l-4.1-2.8
			c0,0,14.9-16.5-0.9-34.5C1106.2,648.3,1097,676.1,1097,676.1z"/>
	</g>
	<path class="st11" d="M1020.4,585.4c0,2.5-2,4.5-4.5,4.5s-4.5-2-4.5-4.5s2-4.5,4.5-4.5S1020.4,582.9,1020.4,585.4z"/>
	<path class="st0" d="M709.7,477.3L709.7,477.3c-2.7,0.3-4.7,2.1-4.5,4l0.6,5.7c0.2,2,2.5,3.3,5.2,3.1l0,0c2.7-0.3,4.7-2.1,4.5-4
		l-0.6-5.7C714.7,478.4,712.4,477,709.7,477.3z"/>
	<path class="st0" d="M674.8,469.6c0,0-1.5,32.5,9.7,29.7c11.2-2.9,24.6-11.7,24.6-11.7l-1.8-5.8c0,0-20.5,10.4-20.7,3.4
		c-0.2-7,0.9-24.7,0.9-24.7L674.8,469.6z"/>
	
		<linearGradient id="SVGID_32_" gradientUnits="userSpaceOnUse" x1="681.7588" y1="282.2124" x2="691.7588" y2="223.5458" gradientTransform="matrix(1 0 0 -1 0 746)">
		<stop  offset="0" style="stop-color:#5C5E60"/>
		<stop  offset="1" style="stop-color:#9FA1A4"/>
	</linearGradient>
	<polygon class="st38" points="672.7,458.7 673.8,482.2 689.5,480 691.6,456.8 	"/>
	<path class="st1" d="M1237.8,634.1h7.1l1.2,5.2c0.2,0.9,0.1,2-0.5,2.7c-0.4,0.5-0.9,0.8-1.6,0.8h-17.7c-1.7,0-3.1-5.1,2.5-6.6
		C1228.8,636.2,1235.5,634.1,1237.8,634.1z"/>
	<polygon class="st0" points="1228.6,562.5 1236.2,634.3 1244.9,634.1 1248.9,568.2 	"/>
	<path class="st0" d="M1244.5,562.5l4,17.4c2.8,12,9.1,22.9,18.2,31.3l20.3,18.7l2.6-6.5l-17.8-22.5c-4.5-5.6-6.8-12.7-6.7-19.9
		l0.7-30.9L1244.5,562.5z"/>
	<g>
		<g>
			<path d="M1268.5,435.2c4.7,1.1,9.7,1.5,13.5,4.4c2.8,2.2,4.6,5.5,6.8,8.3c1.2,1.6,2.8,3,4.5,4c3,1.6,4.8,4.7,4.9,8
				c0.2,3.6,0.1,9.2,0,14.2c-0.1,6.5-7.3,10.7-12.9,7.2c-0.4-0.3-0.8-0.5-1.1-0.8c-2.6-2.6-3.5-1.5-6-4c-4.6-4.3-13.5-6.6-19.6-5.3
				c-5.4,1.2-10.8-0.1-15.9-2c-3.9-1.4-8.3-5.7-9.8-9.6c-1.6-4.3-1.8-8.9-1.7-13.5c0-4.4,0.2-8.9,0.6-13.3c0.2-2.1,0.5-4.4,3.7-4.9
				c1-0.2,2.1-0.1,3.1,0.2l1.8,0.5c5.3,1.3,10.4,0.4,15.6,1.2C1260.5,430.5,1264,434.1,1268.5,435.2z"/>
		</g>
		<rect x="1237.7" y="532.9" class="st39" width="21.3" height="12.6"/>
		<path class="st0" d="M1252.2,446.1c-0.7,0.2-1.5,0.5-2.2,0.7v-4c0-4.1-3.3-7.5-7.5-7.5h-2.5c-4.1,0-7.5,3.3-7.5,7.5v9.4
			c0,4.1,3.3,7.5,7.5,7.5h0c2,0,3.7,1.6,3.7,3.6c0,2.7,0,5.5-0.1,8.2c3.3-0.5,6.7-0.6,10-0.2
			C1252.3,462.9,1251.9,454.5,1252.2,446.1z"/>
		<path d="M1235.1,437.5c-3.6-2.4-4-7.6-0.7-10.3c0.2-0.2,0.5-0.4,0.7-0.5c2.9-1.9,6.5-2.1,9.9-1.9c4.9,0.3,10.2,1.7,13.2,5.5
			c1.2,1.5,1.9,3.3,2.5,5.1c0.6,2.1,0.8,4.3,0.1,6.4c-1.1,2.8-4.2,4.6-7.2,4.5c-1.4-0.1-2.7,0.7-4,0.3c-2-0.7-4-2.6-5.8-3.6
			C1241.6,441.7,1237.8,439.2,1235.1,437.5z"/>
		<linearGradient id="SVGID_33_" gradientUnits="userSpaceOnUse" x1="1248.3729" y1="532.25" x2="1248.3729" y2="472.9419">
			<stop  offset="0" style="stop-color:#F3F3FA"/>
			<stop  offset="1" style="stop-color:#DCDFFB"/>
		</linearGradient>
		<path class="st40" d="M1283.1,482.1c-0.2-2.3-0.5-4.6-1.7-6.7c-1.6-2.8-4.5-4.6-7.6-5.5c-3.1-0.9-6.4-1-9.6-1.1
			c-4.3-0.1-14.5-0.3-18.8-0.4c-4.3,0.1-8.6,0.3-12.9,0.4c-3.2,0.1-6.5,0.2-9.6,1.1c-3.1,0.9-6,2.7-7.6,5.5c-1.1,2-1.5,4.4-1.7,6.7
			c-0.4,3.9-0.4,7.8-0.2,11.7l13.8-2.3c0,0-1.1,30.6-0.5,44.3c4.6,0.5,11.3,0.7,16.7,0.7c0,0,0,0,0,0c5.9,0.2,21.9-0.2,27.7-0.8
			c0.6-13.7-0.7-47.4-0.7-47.4l12.8-0.1C1283.5,489.9,1283.5,486,1283.1,482.1z"/>
		<path class="st0" d="M1240.6,468.7c0,0,0.9,9.7,6.2,9.7s8.6-9.7,8.6-9.7l-7.4-1.9L1240.6,468.7z"/>
		<path class="st0" d="M1213.7,480.9l-4.5,12.5c-4,11.7-13.5,11.7-25.7,9.3l-11.8-2.3l-0.3,6.5l21.6,6.5
			c11.4,3.4,23.6-1.7,29.1-12.2l6.8-12.9L1213.7,480.9z"/>
		
			<linearGradient id="SVGID_34_" gradientUnits="userSpaceOnUse" x1="1173.1837" y1="256.0009" x2="1187.3792" y2="232.3418" gradientTransform="matrix(1 0 0 -1 0 746)">
			<stop  offset="0" style="stop-color:#5C5E60"/>
			<stop  offset="1" style="stop-color:#9FA1A4"/>
		</linearGradient>
		<path class="st41" d="M1184.2,503.2l-10.1,3.7c-1.4,0.5-3-0.2-3.6-1.7l-7.3-20.1c-0.5-1.4,0.2-3,1.7-3.6l10.1-3.7
			c1.4-0.5,3,0.2,3.6,1.7l7.3,20.1C1186.4,501.1,1185.7,502.7,1184.2,503.2z"/>
		<polygon class="st42" points="1183.8,499.7 1172.4,503.8 1172.4,503.8 1165.6,485 1165.6,485 1176.9,480.9 		"/>
		<path class="st0" d="M1170.1,504.9L1170.1,504.9c-1,0.4-2.2-0.2-2.6-1.2l-2.4-6.6c-0.4-1,0.2-2.2,1.2-2.6l0,0
			c1-0.4,2.2,0.2,2.6,1.2l2.4,6.6C1171.6,503.3,1171.1,504.5,1170.1,504.9z"/>
		
			<linearGradient id="SVGID_35_" gradientUnits="userSpaceOnUse" x1="1248.0884" y1="203.4067" x2="1248.0884" y2="167.4513" gradientTransform="matrix(1 0 0 -1 0 746)">
			<stop  offset="0" style="stop-color:#5C5E60"/>
			<stop  offset="1" style="stop-color:#9FA1A4"/>
		</linearGradient>
		<path class="st43" d="M1226.7,525l0,2.4c0.1,5.5-5.9,46.6-4.3,46.6c18.5,4.7,30.2,3.1,51.3,0c1.3-0.2-2.3-48.8-2.3-48.8
			C1256.2,527.4,1241.3,527.4,1226.7,525z"/>
		<path class="st0" d="M1256.3,449.5c0,2.6-1.6,4.7-3.6,4.7s-3.6-2.1-3.6-4.7c0-2.6,1.6-4.7,3.6-4.7
			C1254.7,444.7,1256.3,446.9,1256.3,449.5z"/>
		<path class="st0" d="M1270.2,488.3l12.9,16.1c1.8,2.3,2.8,5.1,2.7,8.1l-1.1,26.8h5.5l4.7-32.5c0.4-2.6-0.1-5.3-1.4-7.6l-12.5-22.6
			L1270.2,488.3z"/>
		<path class="st0" d="M1289.1,545.9L1289.1,545.9c-2.4,0-4.3-2-4.3-4.3v-6.9c0-2.4,2-4.3,4.3-4.3l0,0c2.4,0,4.3,2,4.3,4.3v6.9
			C1293.4,543.9,1291.5,545.9,1289.1,545.9z"/>
		<linearGradient id="SVGID_36_" gradientUnits="userSpaceOnUse" x1="1220.0421" y1="532.25" x2="1220.0421" y2="472.9419">
			<stop  offset="0" style="stop-color:#F3F3FA"/>
			<stop  offset="1" style="stop-color:#DCDFFB"/>
		</linearGradient>
		<path class="st44" d="M1214.5,477.1l-5.4,15.5c-0.3,1,0.2,2,1.1,2.4l12.4,4.5c0.9,0.3,1.8-0.1,2.3-0.9l6.3-11.7L1214.5,477.1z"/>
		<linearGradient id="SVGID_37_" gradientUnits="userSpaceOnUse" x1="1277.7904" y1="532.25" x2="1277.7904" y2="472.9419">
			<stop  offset="0" style="stop-color:#F3F3FA"/>
			<stop  offset="1" style="stop-color:#DCDFFB"/>
		</linearGradient>
		<path class="st45" d="M1267.3,485.5l8.5,10.5c0.5,0.6,1.4,0.7,2,0.2l9.9-8.1c0.6-0.5,0.7-1.2,0.3-1.9l-6.6-10.7l-12.3,4
			L1267.3,485.5z"/>
	</g>
	<path class="st1" d="M1285.2,628.1l3.1-6.4l5.2,1.2c0.9,0.2,1.8,0.8,2.2,1.6c0.3,0.6,0.3,1.2,0.1,1.8l-7.7,15.9
		c-0.8,1.6-5.9,0.5-4.9-5.1C1283.2,637.1,1284.2,630.1,1285.2,628.1z"/>
	<g>
		<linearGradient id="SVGID_38_" gradientUnits="userSpaceOnUse" x1="598.2109" y1="653.75" x2="598.2109" y2="717.75">
			<stop  offset="0" style="stop-color:#B78FED"/>
			<stop  offset="1" style="stop-color:#8647E1"/>
		</linearGradient>
		<path class="st46" d="M633.2,666.1c-0.2-2.3-0.6-4.7-1.7-6.7c-1.6-2.8-4.6-4.6-7.7-5.5s-6.4-1-9.6-1.1c-4.3-0.1-14.4-0.3-18.8-0.4
			c-0.1,0-0.2,0-0.3,0c-4.3,0.1-8.6,0.3-12.9,0.4c-3.2,0.1-6.5,0.2-9.6,1.1s-6.1,2.7-7.7,5.5c-1.2,2-1.5,4.4-1.7,6.7
			c-0.2,2.1-0.3,4.3-0.3,6.4c0,2.8,2.6,5,5.4,4.5l3.2-0.5c2.9-0.5,5.4,1.8,5.3,4.7c-0.2,8.4-0.6,24.3-0.4,34.9
			c0,2.4,1.9,4.3,4.3,4.5c4,0.2,8.7,0.4,12.6,0.4v0c4.8,0.1,16.4-0.1,23.7-0.5c2.4-0.1,4.3-2.1,4.3-4.5c0.2-11.6-0.4-30.3-0.7-38.9
			c-0.1-2.6,2-4.7,4.5-4.7l8.1-0.1C633.7,674,633.6,670,633.2,666.1z"/>
		<path class="st0" d="M590.4,652.6c0,0,0.9,9.8,6.3,9.8s8.7-9.8,8.7-9.8l-7.5-2L590.4,652.6z"/>
		<path class="st0" d="M563.2,664.9l-6.9,13.5c-0.9,1.8-3.4,2.3-4.9,0.8L538,666.2l-7.8,1.9l17.5,23.5c4.4,5.9,13.4,5.8,17.7-0.3
			l13.3-18.9L563.2,664.9z"/>
		
			<linearGradient id="SVGID_39_" gradientUnits="userSpaceOnUse" x1="530.0178" y1="102.7755" x2="536.6844" y2="70.4421" gradientTransform="matrix(1 0 0 -1 0 746)">
			<stop  offset="0" style="stop-color:#5C5E60"/>
			<stop  offset="1" style="stop-color:#9FA1A4"/>
		</linearGradient>
		<path class="st47" d="M540.7,665.5l-10.5,2.6c-1.5,0.4-3-0.5-3.4-2l-5.2-20.9c-0.4-1.5,0.5-3,2-3.4l10.5-2.6c1.5-0.4,3,0.5,3.4,2
			l5.2,20.9C543.1,663.6,542.2,665.2,540.7,665.5z"/>
		<path class="st0" d="M526.3,665.7L526.3,665.7c-1.1,0.3-2.2-0.4-2.5-1.5l-1.7-6.8c-0.3-1.1,0.4-2.2,1.5-2.5l0,0
			c1.1-0.3,2.2,0.4,2.5,1.5l1.7,6.8C528,664.3,527.4,665.4,526.3,665.7z"/>
		<path d="M591.5,638.9L591.5,638.9c-4,1.7-8.7-0.1-10.4-4.1l-1.8-4.2c-1.7-4,0.1-8.7,4.1-10.4l0,0c4-1.7,8.7,0.1,10.4,4.1l1.8,4.2
			C597.4,632.4,595.5,637.1,591.5,638.9z"/>
		<path class="st0" d="M604.2,631.8c-0.8,0.2-3.8,0.4-4.6,0.6v-4c0-4.2-3.4-7.5-7.5-7.5h-2.5c-4.2,0-7.5,3.4-7.5,7.5v9.4
			c0,4.2,3.4,7.5,7.5,7.5h0c2,0,3.7,1.6,3.7,3.7c0,2.8-2.1,3.6-2.7,3.9l14,0.3C604.2,645.3,603.9,640.2,604.2,631.8z"/>
		<path d="M604.2,642.9c0,0,8.5-11.7,4-22.2c-4.5-10.5-23.7-9.8-24.6,0c-0.9,9.8,12.9,6.7,12.9,6.7s5.8,1.5,7,7.4L604.2,642.9z"/>
		<ellipse class="st0" cx="602.3" cy="633.1" rx="3.6" ry="3.9"/>
		<path d="M591.3,613.6h-10.3c-1.6,0-2.8,1.5-2.4,3c0.9,3.9,3.6,10.4,11.2,11.2C597.8,628.7,591.3,613.6,591.3,613.6z"/>
		<path d="M600.1,635.2L600.1,635.2c-0.8,0-1.4-0.6-1.4-1.4v-4.9c0-0.8,0.6-1.4,1.4-1.4l0,0c0.8,0,1.4,0.6,1.4,1.4v4.9
			C601.5,634.6,600.9,635.2,600.1,635.2z"/>
		<polygon class="st42" points="540.8,661.8 529,664.8 529,664.8 524.1,645.3 524.1,645.3 535.9,642.3 		"/>
		<linearGradient id="SVGID_40_" gradientUnits="userSpaceOnUse" x1="570.1575" y1="653.75" x2="570.1575" y2="717.75">
			<stop  offset="0" style="stop-color:#B78FED"/>
			<stop  offset="1" style="stop-color:#8647E1"/>
		</linearGradient>
		<polygon class="st48" points="565.3,658.7 557.3,673.6 572.1,684.3 583,670.4 		"/>
		<linearGradient id="SVGID_41_" gradientUnits="userSpaceOnUse" x1="556.6682" y1="678.251" x2="573.8598" y2="678.251">
			<stop  offset="0" style="stop-color:#DCDFFB"/>
			<stop  offset="1" style="stop-color:#F3F3FA"/>
		</linearGradient>
		<path class="st49" d="M571,684.2l-13.5-8.7c-0.9-0.6-1.1-1.7-0.6-2.6l0,0c0.6-0.9,1.7-1.1,2.6-0.6L573,681
			c0.9,0.6,1.1,1.7,0.6,2.6l0,0C573,684.5,571.9,684.7,571,684.2z"/>
		<path class="st1" d="M557.1,740.9c-13.9,0-13.9-12.9,0-12.8l5.5,0c4.5,0,8.2,2.5,8.2,5.6l0,2.6c0,2.6-3.1,4.7-7,4.7L557.1,740.9z"
			/>
		
			<linearGradient id="SVGID_42_" gradientUnits="userSpaceOnUse" x1="629.6609" y1="30.3752" x2="567.6609" y2="7.6252" gradientTransform="matrix(1 0 0 -1 0 746)">
			<stop  offset="0" style="stop-color:#5C5E60"/>
			<stop  offset="1" style="stop-color:#9FA1A4"/>
		</linearGradient>
		<path class="st50" d="M567.7,741l-2.1-13.3l65.9-20.2c5.6-1.4,11,1.5,12,6.4l0,0c1,4.4-2.3,9-7.4,10.3
			C616.8,733,595.2,737.8,567.7,741z"/>
		<path class="st1" d="M631.5,730.4c13.9,0.1,13.9,12.9-0.1,12.8l-5.5,0c-4.5,0-8.2-2.5-8.1-5.6l0-2.6c0-2.6,3.1-4.7,7-4.7
			L631.5,730.4z"/>
		
			<linearGradient id="SVGID_43_" gradientUnits="userSpaceOnUse" x1="581.3968" y1="22.6587" x2="616.6468" y2="8.9087" gradientTransform="matrix(1 0 0 -1 0 746)">
			<stop  offset="0" style="stop-color:#5C5E60"/>
			<stop  offset="1" style="stop-color:#9FA1A4"/>
		</linearGradient>
		<path class="st51" d="M621.1,743l2.6-13.2l-60.9-23.5c-5.5-1.6-11.1,1-12.4,5.8l0,0c-1.2,4.4,1.9,9.1,6.8,10.6
			C576.3,732.4,593.7,738.6,621.1,743z"/>
		<path class="st0" d="M621.4,674.4l-2.7,18.7c-0.6,4.1-2.7,7.9-5.8,10.7l-19,16.4l3.8,4l25.7-18c3.1-2.2,5.4-5.3,6.6-8.9l3.6-14.8
			L621.4,674.4z"/>
		<path class="st0" d="M592.1,728.1L592.1,728.1c-1.6-1.8-1.6-4.5,0.2-6.2l5.1-4.8c1.8-1.6,4.5-1.6,6.2,0.2l0,0
			c1.6,1.8,1.6,4.5-0.2,6.2l-5.1,4.8C596.5,729.9,593.7,729.8,592.1,728.1z"/>
		<linearGradient id="SVGID_44_" gradientUnits="userSpaceOnUse" x1="627.7542" y1="653.75" x2="627.7542" y2="717.75">
			<stop  offset="0" style="stop-color:#B78FED"/>
			<stop  offset="1" style="stop-color:#8647E1"/>
		</linearGradient>
		<path class="st52" d="M636.1,677.6l-0.2,6.2l-16.5-0.5l0.6-12.9l12.6-8l3,11.3C636,675,636.1,676.3,636.1,677.6z"/>
		<linearGradient id="SVGID_45_" gradientUnits="userSpaceOnUse" x1="617.5651" y1="683.7755" x2="637.2269" y2="683.7755">
			<stop  offset="0" style="stop-color:#DCDFFB"/>
			<stop  offset="1" style="stop-color:#F3F3FA"/>
		</linearGradient>
		<path class="st53" d="M635.2,686.4l-16-1.6c-1-0.1-1.8-1-1.7-2l0,0c0.1-1,1-1.8,2-1.7l16,1.6c1,0.1,1.8,1,1.7,2l0,0
			C637.1,685.8,636.2,686.5,635.2,686.4z"/>
	</g>
	<g>
		<path class="st1" d="M1471.9,713.7l7.3-0.1l1.3,5.4c0.2,1,0.1,2-0.5,2.8c-0.4,0.5-1,0.9-1.6,0.9l-18.1,0.2c-1.8,0-3.2-5.2,2.5-6.9
			C1462.7,716,1469.6,713.8,1471.9,713.7z"/>
		<path class="st1" d="M1506.7,713.7l7.3-0.1l1.3,5.4c0.2,1,0.1,2-0.5,2.8c-0.4,0.5-1,0.9-1.6,0.9l-18.1,0.2c-1.8,0-3.2-5.2,2.5-6.9
			C1497.5,716,1504.4,713.8,1506.7,713.7z"/>
		
			<linearGradient id="SVGID_46_" gradientUnits="userSpaceOnUse" x1="1479.882" y1="107.9423" x2="1479.882" y2="16.4195" gradientTransform="matrix(1 0 0 -1 0 746)">
			<stop  offset="0" style="stop-color:#5C5E60"/>
			<stop  offset="1" style="stop-color:#9FA1A4"/>
		</linearGradient>
		<polygon class="st54" points="1467.3,591.1 1467.3,713.6 1480.4,713.6 1492.4,596 		"/>
		
			<linearGradient id="SVGID_47_" gradientUnits="userSpaceOnUse" x1="1501.369" y1="107.9423" x2="1501.369" y2="16.4195" gradientTransform="matrix(1 0 0 -1 0 746)">
			<stop  offset="0" style="stop-color:#5C5E60"/>
			<stop  offset="1" style="stop-color:#9FA1A4"/>
		</linearGradient>
		<polygon class="st55" points="1488.1,596 1501.6,713.6 1514.6,713.6 1511.1,593.9 		"/>
		
			<linearGradient id="SVGID_48_" gradientUnits="userSpaceOnUse" x1="1486.217" y1="144.6678" x2="1488.5648" y2="219.407" gradientTransform="matrix(1 0 0 -1 0 746)">
			<stop  offset="0" style="stop-color:#B78FED"/>
			<stop  offset="1" style="stop-color:#8647E1"/>
		</linearGradient>
		<path class="st56" d="M1524.2,539.4c-0.2-2.4-0.6-4.8-1.8-6.9c-1.6-2.9-4.7-4.8-7.9-5.7s-6.6-1-10-1.1c-4.5-0.1-14.9-0.3-19.5-0.4
			c-0.1,0-0.2,0-0.3,0c-4.5,0.1-8.9,0.3-13.4,0.4c-3.4,0.1-6.8,0.2-10,1.1s-6.3,2.8-7.9,5.7c-1.2,2.1-1.5,4.5-1.8,6.9
			c-0.2,2.2-0.3,4.4-0.3,6.6c0,2.9,2.6,5.2,5.5,4.7l3.3-0.6c2.9-0.5,5.6,1.8,5.5,4.8c-0.2,8.6-0.6,25.1-0.4,36.1
			c0,2.5,2,4.5,4.5,4.6c4.2,0.3,8.9,0.4,13.1,0.4c0,0,0,0,0,0c5,0.2,17-0.1,24.5-0.5c2.5-0.1,4.4-2.2,4.5-4.7
			c0.2-12-0.4-31.3-0.7-40.2c-0.1-2.7,2-4.9,4.7-4.9l8.4-0.1C1524.6,547.5,1524.6,543.4,1524.2,539.4z"/>
		<path class="st0" d="M1479.9,525.4c0,0,3,4.1,8.6,4.1s6.8-4.1,6.8-4.1l-7.7-2L1479.9,525.4z"/>
		<path class="st0" d="M1509.7,544.7l7.9,17.8c1.8,4,3.1,9,3.1,9l-16.8,5.5l-0.5,7.7l23.1-4.6c4.1-0.8,6.8-4.8,5.9-8.9
			c-0.9-4.3-2-9.2-2.5-11.2l-6.2-24.3L1509.7,544.7z"/>
		<path class="st0" d="M1451.8,538.2l-7.2,14c-1,1.9-3.5,2.3-5.1,0.8l-13.9-13.5l-8,2l18.1,24.3c4.6,6.1,13.8,6,18.3-0.3l13.7-19.6
			L1451.8,538.2z"/>
		<path class="st0" d="M1411,538.9L1411,538.9c0.6-2.4,3.1-3.9,5.5-3.2l7,1.8c2.4,0.6,3.9,3.1,3.2,5.5l0,0c-0.6,2.4-3.1,3.9-5.5,3.2
			l-7-1.8C1411.8,543.7,1410.4,541.3,1411,538.9z"/>
		<path d="M1482.8,510.7L1482.8,510.7c-4.3,1.3-8.9-1.1-10.2-5.4l-1.4-4.5c-1.3-4.3,1.1-8.9,5.4-10.2l0,0c4.3-1.3,8.9,1.1,10.2,5.4
			l1.4,4.5C1489.5,504.8,1487.1,509.4,1482.8,510.7z"/>
		<path class="st0" d="M1496.6,504.9c-0.8,0.2-4-0.1-4.8,0.1l0.5-4.1c0.5-4.3-2.6-8.1-6.9-8.6l-2.6-0.3c-4.3-0.5-8.1,2.6-8.6,6.9
			l-1.1,9.7c-0.5,4.3,2.6,8.1,6.9,8.6h0c2.1,0.2,3.6,2.1,3.4,4.2c-0.3,2.8-2.6,3.5-3.2,3.7l14.4,1.9
			C1495,518.8,1495.3,513.6,1496.6,504.9z"/>
		<path d="M1495.2,516.4c0,0,10.1-11,6.7-22.3c-3.4-11.3-23.2-12.8-25.3-2.9s12.5,8.4,12.5,8.4s5.8,2.3,6.3,8.4L1495.2,516.4z"/>
		<path class="st0" d="M1490.8,505.7c-0.3,2.2,1.2,4.2,3.2,4.5s3.9-1.4,4.1-3.6c0.3-2.2-1.2-4.2-3.2-4.5
			C1492.9,501.8,1491.1,503.4,1490.8,505.7z"/>
		<path d="M1492,507.9L1492,507.9c-0.8-0.1-1.3-0.8-1.3-1.6l0.6-5.1c0.1-0.8,0.8-1.3,1.6-1.3l0,0c0.8,0.1,1.3,0.8,1.3,1.6l-0.6,5.1
			C1493.5,507.5,1492.8,508,1492,507.9z"/>
		
			<linearGradient id="SVGID_49_" gradientUnits="userSpaceOnUse" x1="1516.71" y1="143.71" x2="1519.0577" y2="218.449" gradientTransform="matrix(1 0 0 -1 0 746)">
			<stop  offset="0" style="stop-color:#B78FED"/>
			<stop  offset="1" style="stop-color:#8647E1"/>
		</linearGradient>
		<polygon class="st57" points="1524.7,536.5 1530.3,560.4 1517.1,565.8 1506.3,542 1522.2,532.5 		"/>
		
			<linearGradient id="SVGID_50_" gradientUnits="userSpaceOnUse" x1="1455.8531" y1="145.6216" x2="1458.2009" y2="220.3608" gradientTransform="matrix(1 0 0 -1 0 746)">
			<stop  offset="0" style="stop-color:#B78FED"/>
			<stop  offset="1" style="stop-color:#8647E1"/>
		</linearGradient>
		<path class="st58" d="M1454,531.7l-11.3,20.8l3.5,18c7.9,0.5,17-13.4,26.1-26.7L1454,531.7z"/>
		<path class="st11" d="M1443.7,570.1l-3.4-16.2c-0.2-1,0.5-2.1,1.5-2.3l0,0c1-0.2,2.1,0.5,2.3,1.5l3.4,16.2c0.2,1-0.5,2.1-1.5,2.3
			l0,0C1444.9,571.8,1443.9,571.1,1443.7,570.1z"/>
		<path class="st11" d="M1530.8,564.1l-12.3,4.4c-1,0.4-2.1-0.2-2.5-1.2l0,0c-0.4-1,0.2-2.1,1.2-2.5l12.3-4.4c1-0.4,2.1,0.2,2.4,1.2
			l0,0C1532.3,562.6,1531.8,563.7,1530.8,564.1z"/>
		<polygon class="st11" points="1482.9,521.7 1475.4,525.5 1483,535.6 1488.5,529.5 		"/>
		<polygon class="st11" points="1494.9,520.7 1501.2,525.5 1493.6,535.6 1488.1,529.5 		"/>
		
			<linearGradient id="SVGID_51_" gradientUnits="userSpaceOnUse" x1="1489.674" y1="174.5984" x2="1489.7393" y2="158.6202" gradientTransform="matrix(1 0 0 -1 0 746)">
			<stop  offset="0" style="stop-color:#231F20"/>
			<stop  offset="1" style="stop-color:#58595B"/>
		</linearGradient>
		<path class="st59" d="M1495.6,588.8h-11.8c-0.5,0-0.9-0.4-0.9-0.9v-17.6c0-0.5,0.4-0.9,0.9-0.9h11.8c0.5,0,0.9,0.4,0.9,0.9v17.6
			C1496.5,588.4,1496.1,588.8,1495.6,588.8z"/>
		
			<linearGradient id="SVGID_52_" gradientUnits="userSpaceOnUse" x1="1494.3522" y1="174.6176" x2="1494.4174" y2="158.6393" gradientTransform="matrix(1 0 0 -1 0 746)">
			<stop  offset="0" style="stop-color:#231F20"/>
			<stop  offset="1" style="stop-color:#58595B"/>
		</linearGradient>
		<path class="st60" d="M1496.3,573.7h-4.6c-2.1,0-4,1.2-4.9,2.9c0.3-0.1,0.6-0.1,1-0.1h8c2.2,0,4,1.8,4,4c0,2.2-1.8,4-4,4h-8
			c-0.2,0-0.5,0-0.7-0.1c1,1.5,2.7,2.4,4.7,2.4h4.6c3.1,0,5.7-2.6,5.7-5.7v-1.8C1502,576.2,1499.4,573.7,1496.3,573.7z"/>
		<path class="st0" d="M1497.3,581.3l0-2.1c0-1.9,1.5-3.5,3.4-3.5l2.6,0c1.9,0,3.5,1.5,3.5,3.4l0,2.1c0,1.9-1.5,3.5-3.4,3.5l-2.6,0
			C1498.9,584.8,1497.3,583.3,1497.3,581.3z"/>
		<linearGradient id="SVGID_53_" gradientUnits="userSpaceOnUse" x1="1490.297" y1="579.096" x2="1494.3781" y2="579.096">
			<stop  offset="0" style="stop-color:#6D6E71"/>
			<stop  offset="1" style="stop-color:#9FA1A4"/>
		</linearGradient>
		<rect x="1490.3" y="569.4" class="st61" width="4.1" height="19.4"/>
	</g>
	
		<linearGradient id="SVGID_54_" gradientUnits="userSpaceOnUse" x1="44.554" y1="320.7797" x2="44.554" y2="142.0065" gradientTransform="matrix(1 0 0 -1 0 746)">
		<stop  offset="0" style="stop-color:#FFFFFF"/>
		<stop  offset="1" style="stop-color:#FFFFFF;stop-opacity:0.2"/>
	</linearGradient>
	<rect y="402.7" class="st62" width="89.1" height="205.6"/>
</g>
</svg>
