<?xml version="1.0" encoding="utf-8"?>
<!-- Generator: Adobe Illustrator 25.2.1, SVG Export Plug-In . SVG Version: 6.00 Build 0)  -->
<svg version="1.1" id="Layer_1" xmlns="http://www.w3.org/2000/svg" width="100" xmlns:xlink="http://www.w3.org/1999/xlink" x="0px" y="0px"
	 viewBox="0 0 770.79 953.71" style="enable-background:new 0 0 770.79 953.71;" xml:space="preserve">
<style type="text/css">
	.st0{opacity:0.15;fill:url(#SVGID_1_);}
	.st1{fill:none;stroke:#020202;stroke-width:15;stroke-linecap:round;stroke-linejoin:round;stroke-miterlimit:10;}
</style>
<g>
	<linearGradient id="SVGID_1_" gradientUnits="userSpaceOnUse" x1="399.6516" y1="716.878" x2="696.8431" y2="165.3886">
		<stop  offset="0" style="stop-color:#8647E1"/>
		<stop  offset="1" style="stop-color:#B78FED"/>
	</linearGradient>
	<polygon class="st0" points="0,563.04 770.79,0 754.58,953.71 	"/>
	<g>
		<path class="st1" d="M539.27,476.94h21.15c6.66,0,17.1,4.22,21.15,10.58h21.15c9.91,0,21.15,9.26,21.15,21.15h21.15
			c9.92,0,21.15,9.26,21.15,21.15V635.6c0,21.4-21.15,38.63-21.15,52.89v10.58"/>
		<path class="st1" d="M539.27,540.41V402.9c0-11.68-9.48-21.15-21.15-21.15c-11.68,0-21.15,9.48-21.15,21.15v158.66l-14.13,13.56
			l-27.64-42.85c-16.93-23.31-42.85-10.22-42.85,0c0,0,32.09,91.82,36.69,99.01c7.38,11.57,37.35,37.58,37.35,46.62v21.15"/>
		<line class="st1" x1="581.58" y1="487.52" x2="581.58" y2="540.41"/>
		<line class="st1" x1="623.89" y1="508.67" x2="623.89" y2="550.98"/>
		<polyline class="st1" points="666.2,730.8 666.2,699.07 465.23,699.07 465.23,730.8 		"/>
		<path class="st1" d="M412.35,635.33c-106.07-5.5-190.4-93.25-190.4-200.7c0-110.99,89.98-200.97,200.97-200.97
			s200.97,89.98,200.97,200.97c0,6.95-0.35,13.79-1.04,20.55"/>
		<polyline class="st1" points="422.92,286.55 422.92,434.63 348.88,476.94 		"/>
	</g>
</g>
</svg>
