<?xml version="1.0" encoding="utf-8"?>
<!-- Generator: Adobe Illustrator 25.2.1, SVG Export Plug-In . SVG Version: 6.00 Build 0)  -->
<svg version="1.1" id="Layer_1" xmlns="http://www.w3.org/2000/svg" width="100" xmlns:xlink="http://www.w3.org/1999/xlink" x="0px" y="0px"
	 viewBox="0 0 770.79 953.71" style="enable-background:new 0 0 770.79 953.71;" xml:space="preserve">
<style type="text/css">
	.st0{fill:none;}
	.st1{opacity:0.15;fill:url(#SVGID_3_);}
	.st2{fill:none;stroke:#020202;stroke-width:15;stroke-linecap:round;stroke-linejoin:round;stroke-miterlimit:10;}
</style>
<g>
	<g>
		<defs>
			<rect id="SVGID_1_" width="770.79" height="953.71"/>
		</defs>
		<clipPath id="SVGID_2_">
			<use xlink:href="#SVGID_1_"  style="overflow:visible;"/>
		</clipPath>
	</g>
	<rect class="st0" width="770.79" height="953.71"/>
	<linearGradient id="SVGID_3_" gradientUnits="userSpaceOnUse" x1="399.6516" y1="716.878" x2="696.8431" y2="165.3886">
		<stop  offset="0" style="stop-color:#8647E1"/>
		<stop  offset="1" style="stop-color:#B78FED"/>
	</linearGradient>
	<polygon class="st1" points="0,563.04 770.79,0 754.58,953.71 	"/>
	<g>
		<g>
			<line class="st2" x1="484.51" y1="259.4" x2="545.28" y2="259.4"/>
			<line class="st2" x1="514.9" y1="259.4" x2="514.9" y2="299.91"/>
		</g>
		<line class="st2" x1="413.61" y1="340.43" x2="393.35" y2="320.17"/>
		<line class="st2" x1="373.1" y1="330.3" x2="403.48" y2="299.91"/>
		<line class="st2" x1="616.18" y1="340.43" x2="636.44" y2="320.17"/>
		<g>
			<line class="st2" x1="656.7" y1="330.3" x2="626.31" y2="299.91"/>
		</g>
		<line class="st2" x1="514.9" y1="482.23" x2="514.9" y2="380.94"/>
		<g>
			<path class="st2" d="M357.64,422.65c17.57-70.5,81.31-122.74,157.26-122.74c89.5,0,162.06,72.55,162.06,162.06
				c0,68.01-41.89,126.23-101.29,150.28"/>
			<path class="st2" d="M312.32,532.87c-23.93,0-40.51-19.44-40.51-43.41v-14.47c0-23.97,16.58-43.4,40.51-43.4
				s40.51,19.43,40.51,43.4v14.47C352.84,513.44,336.26,532.87,312.32,532.87z"/>
			<path class="st2" d="M221.17,684.8c0,0,6.64-56.34,10.13-81.03c3.48-24.69,18.23-40.51,40.51-40.51h20.26l70.71,81.03h60.77
				c0,0,4.53,40.51-30.39,40.51h-60.58l-50.64-60.77"/>
			<polyline class="st2" points="373.1,613.9 413.61,553.13 575.67,553.13 514.9,654.42 444,654.42 			"/>
			<line class="st2" x1="514.9" y1="330.3" x2="514.9" y2="360.68"/>
			<line class="st2" x1="430.26" y1="361.1" x2="449.79" y2="384.38"/>
			<line class="st2" x1="385.22" y1="439.11" x2="415.15" y2="444.38"/>
			<line class="st2" x1="628.93" y1="527.81" x2="602.62" y2="512.61"/>
			<line class="st2" x1="644.57" y1="439.11" x2="614.64" y2="444.38"/>
			<line class="st2" x1="599.53" y1="361.1" x2="580.01" y2="384.38"/>
		</g>
	</g>
</g>
</svg>
